<svg viewBox="0 0 105 29" fill="none" xmlns="http://www.w3.org/2000/svg">
<path d="M2.15625 17.5199V14.5199L14.1562 9.23579V12.6875L5.94034 15.9858L6.05114 15.8068V16.233L5.94034 16.054L14.1562 19.3523V22.804L2.15625 17.5199Z" fill="#D4D4D8"/>
<path d="M26.9467 15.4318V23H23.3161V9.90909H26.7763V12.2188H26.9297C27.2195 11.4574 27.7053 10.8551 28.3871 10.4119C29.0689 9.96307 29.8956 9.73864 30.8672 9.73864C31.7763 9.73864 32.5689 9.9375 33.245 10.3352C33.9212 10.733 34.4467 11.3011 34.8217 12.0398C35.1967 12.7727 35.3842 13.6477 35.3842 14.6648V23H31.7536V15.3125C31.7592 14.5114 31.5547 13.8864 31.1399 13.4375C30.7251 12.983 30.1541 12.7557 29.4268 12.7557C28.9382 12.7557 28.5064 12.8608 28.1314 13.071C27.7621 13.2812 27.4723 13.5881 27.2621 13.9915C27.0575 14.3892 26.9524 14.8693 26.9467 15.4318ZM38.2457 23V9.90909H41.7656V12.1932H41.902C42.1406 11.3807 42.5412 10.767 43.1037 10.3523C43.6662 9.93182 44.3139 9.72159 45.0469 9.72159C45.2287 9.72159 45.4247 9.73295 45.6349 9.75568C45.8452 9.77841 46.0298 9.80966 46.1889 9.84943V13.071C46.0185 13.0199 45.7827 12.9744 45.4815 12.9347C45.1804 12.8949 44.9048 12.875 44.6548 12.875C44.1207 12.875 43.6435 12.9915 43.223 13.2244C42.8082 13.4517 42.4787 13.7699 42.2344 14.179C41.9957 14.5881 41.8764 15.0597 41.8764 15.5938V23H38.2457ZM51.424 23.2472C50.5888 23.2472 49.8445 23.1023 49.1911 22.8125C48.5376 22.517 48.0206 22.0824 47.6399 21.5085C47.2649 20.929 47.0774 20.2074 47.0774 19.3438C47.0774 18.6165 47.2109 18.0057 47.478 17.5114C47.745 17.017 48.1087 16.6193 48.5689 16.3182C49.0291 16.017 49.5518 15.7898 50.1371 15.6364C50.728 15.483 51.3473 15.375 51.995 15.3125C52.7564 15.233 53.37 15.1591 53.8359 15.0909C54.3018 15.017 54.6399 14.9091 54.8501 14.767C55.0604 14.625 55.1655 14.4148 55.1655 14.1364V14.0852C55.1655 13.5455 54.995 13.1278 54.6541 12.8324C54.3189 12.5369 53.8416 12.3892 53.2223 12.3892C52.5689 12.3892 52.049 12.5341 51.6626 12.8239C51.2763 13.108 51.0206 13.4659 50.8956 13.8977L47.5376 13.625C47.7081 12.8295 48.0433 12.142 48.5433 11.5625C49.0433 10.9773 49.6882 10.5284 50.478 10.2159C51.2734 9.89773 52.1939 9.73864 53.2393 9.73864C53.9666 9.73864 54.6626 9.82386 55.3274 9.99432C55.9979 10.1648 56.5916 10.429 57.1087 10.7869C57.6314 11.1449 58.0433 11.6051 58.3445 12.1676C58.6456 12.7244 58.7962 13.392 58.7962 14.1705V23H55.353V21.1847H55.2507C55.0405 21.5938 54.7592 21.9545 54.407 22.267C54.0547 22.5739 53.6314 22.8153 53.1371 22.9915C52.6428 23.1619 52.0717 23.2472 51.424 23.2472ZM52.4638 20.7415C52.9979 20.7415 53.4695 20.6364 53.8786 20.4261C54.2876 20.2102 54.6087 19.9205 54.8416 19.5568C55.0746 19.1932 55.1911 18.7812 55.1911 18.321V16.9318C55.0774 17.0057 54.9212 17.0739 54.7223 17.1364C54.5291 17.1932 54.3104 17.2472 54.0661 17.2983C53.8217 17.3437 53.5774 17.3864 53.3331 17.4261C53.0888 17.4602 52.8672 17.4915 52.6683 17.5199C52.2422 17.5824 51.87 17.6818 51.5518 17.8182C51.2337 17.9545 50.9865 18.1392 50.8104 18.3722C50.6342 18.5994 50.5462 18.8835 50.5462 19.2244C50.5462 19.7188 50.7251 20.0966 51.0831 20.358C51.4467 20.6136 51.907 20.7415 52.4638 20.7415ZM63.3857 27.9091C62.9254 27.9091 62.4936 27.8722 62.0902 27.7983C61.6925 27.7301 61.3629 27.642 61.1016 27.5341L61.9197 24.8239C62.3459 24.9545 62.7294 25.0256 63.0703 25.0369C63.4169 25.0483 63.7152 24.9688 63.9652 24.7983C64.2209 24.6278 64.4283 24.3381 64.5874 23.929L64.8004 23.375L60.1044 9.90909H63.9226L66.6328 19.5227H66.7692L69.505 9.90909H73.3487L68.2607 24.4148C68.0163 25.1193 67.6839 25.733 67.2635 26.2557C66.8487 26.7841 66.3232 27.1903 65.6868 27.4744C65.0504 27.7642 64.2834 27.9091 63.3857 27.9091Z" fill="white"/>
<path d="M88.3636 4.72727L82.7386 25.625H79.6108L85.2358 4.72727H88.3636ZM102.82 17.5199L90.8203 22.804V19.3523L99.0362 16.054L98.9254 16.233V15.8068L99.0362 15.9858L90.8203 12.6875V9.23579L102.82 14.5199V17.5199Z" fill="#CBD5E1"/>
</svg>
