<svg xmlns="http://www.w3.org/2000/svg" fill="none" viewBox="0 0 104 29"><path fill="#D4D4D8" d="M2.156 17.52v-3l12-5.284v3.451L5.94 15.986l.111-.18v.427l-.11-.179 8.215 3.298v3.452l-12-5.284ZM80.912 4.727l-5.625 20.898H72.16l5.625-20.898h3.128ZM92.97 17.52l-12 5.284v-3.452l8.216-3.298-.11.179v-.426l.11.179-8.216-3.299V9.236l12 5.284v3Z" class="fill-zinc-500 dark:fill-zinc-300"/><path fill="#fff" d="M23.347 15.432V23h-3.63V9.91h3.46v2.309h.153a3.652 3.652 0 0 1 1.457-1.807c.682-.449 1.509-.673 2.48-.673.91 0 1.702.198 2.378.596a4.057 4.057 0 0 1 1.577 1.705c.375.733.562 1.608.562 2.625V23h-3.63v-7.688c.005-.8-.2-1.426-.614-1.874-.415-.455-.986-.682-1.713-.682-.489 0-.92.105-1.296.315-.369.21-.659.517-.869.92-.204.398-.31.878-.315 1.44ZM34.406 23V9.91h3.52v2.283h.136c.239-.812.64-1.426 1.202-1.84a3.154 3.154 0 0 1 1.943-.631 5.414 5.414 0 0 1 1.142.127v3.222a4.737 4.737 0 0 0-.707-.136 6.35 6.35 0 0 0-.827-.06c-.534 0-1.011.117-1.432.35a2.573 2.573 0 0 0-.989.954c-.238.41-.358.88-.358 1.415V23h-3.63Zm12.938.247c-.835 0-1.58-.145-2.233-.434a3.595 3.595 0 0 1-1.551-1.304c-.375-.58-.563-1.302-.563-2.165 0-.728.134-1.338.401-1.833.267-.494.63-.892 1.09-1.193a5.321 5.321 0 0 1 1.57-.682c.59-.153 1.21-.261 1.857-.323.761-.08 1.375-.154 1.84-.222.467-.074.805-.182 1.015-.324.21-.142.316-.352.316-.63v-.052c0-.54-.171-.957-.512-1.253-.335-.295-.812-.443-1.432-.443-.653 0-1.173.145-1.56.435a2 2 0 0 0-.766 1.074l-3.358-.273a4.563 4.563 0 0 1 1.005-2.063c.5-.585 1.145-1.034 1.935-1.346.795-.318 1.716-.477 2.761-.477.728 0 1.424.085 2.088.255a5.46 5.46 0 0 1 1.782.793c.522.358.934.818 1.235 1.38.302.557.452 1.225.452 2.004V23h-3.443v-1.815h-.102a3.69 3.69 0 0 1-.844 1.082 3.906 3.906 0 0 1-1.27.724c-.494.17-1.065.256-1.713.256Zm1.04-2.506c.534 0 1.005-.105 1.414-.315.41-.216.73-.505.964-.87.233-.363.349-.775.349-1.235v-1.39c-.114.075-.27.143-.469.205a8.41 8.41 0 0 1-.656.162c-.244.046-.489.088-.733.128l-.665.094a4.49 4.49 0 0 0-1.116.298 1.785 1.785 0 0 0-.742.554c-.176.227-.264.512-.264.852 0 .495.18.873.537 1.134.364.256.824.383 1.38.383Zm11.15 7.168a7.19 7.19 0 0 1-1.295-.11 4.722 4.722 0 0 1-.989-.265l.819-2.71c.426.13.81.202 1.15.213a1.46 1.46 0 0 0 .895-.239c.256-.17.463-.46.622-.869l.213-.554-4.696-13.466h3.818l2.71 9.614h.137l2.736-9.614h3.844l-5.089 14.506a6.09 6.09 0 0 1-.997 1.84c-.414.53-.94.935-1.576 1.22-.637.29-1.404.434-2.302.434Z" class="fill-zinc-900 dark:fill-white"/></svg>