<svg viewBox="0 0 104 29" fill="none" xmlns="http://www.w3.org/2000/svg">
<path d="M2.15625 17.5199V14.5199L14.1562 9.23579V12.6875L5.94034 15.9858L6.05114 15.8068V16.233L5.94034 16.054L14.1562 19.3523V22.804L2.15625 17.5199ZM85.7236 4.72727L80.0986 25.625H76.9708L82.5958 4.72727H85.7236ZM98.9803 17.5199L86.9803 22.804V19.3523L95.1962 16.054L95.0854 16.233V15.8068L95.1962 15.9858L86.9803 12.6875V9.23579L98.9803 14.5199V17.5199Z" fill="#D4D4D8"/>
<path d="M25.5067 15.4318V23H21.8761V9.90909H25.3363V12.2188H25.4897C25.7795 11.4574 26.2653 10.8551 26.9471 10.4119C27.6289 9.96307 28.4556 9.73864 29.4272 9.73864C30.3363 9.73864 31.1289 9.9375 31.805 10.3352C32.4812 10.733 33.0067 11.3011 33.3817 12.0398C33.7567 12.7727 33.9442 13.6477 33.9442 14.6648V23H30.3136V15.3125C30.3192 14.5114 30.1147 13.8864 29.6999 13.4375C29.2851 12.983 28.7141 12.7557 27.9868 12.7557C27.4982 12.7557 27.0664 12.8608 26.6914 13.071C26.3221 13.2812 26.0323 13.5881 25.8221 13.9915C25.6175 14.3892 25.5124 14.8693 25.5067 15.4318ZM36.5657 23V9.90909H40.0856V12.1932H40.222C40.4606 11.3807 40.8612 10.767 41.4237 10.3523C41.9862 9.93182 42.6339 9.72159 43.3669 9.72159C43.5487 9.72159 43.7447 9.73295 43.9549 9.75568C44.1652 9.77841 44.3498 9.80966 44.5089 9.84943V13.071C44.3385 13.0199 44.1027 12.9744 43.8015 12.9347C43.5004 12.8949 43.2248 12.875 42.9748 12.875C42.4407 12.875 41.9635 12.9915 41.543 13.2244C41.1282 13.4517 40.7987 13.7699 40.5544 14.179C40.3157 14.5881 40.1964 15.0597 40.1964 15.5938V23H36.5657ZM49.504 23.2472C48.6688 23.2472 47.9245 23.1023 47.2711 22.8125C46.6176 22.517 46.1006 22.0824 45.7199 21.5085C45.3449 20.929 45.1574 20.2074 45.1574 19.3438C45.1574 18.6165 45.2909 18.0057 45.558 17.5114C45.825 17.017 46.1887 16.6193 46.6489 16.3182C47.1091 16.017 47.6318 15.7898 48.2171 15.6364C48.808 15.483 49.4273 15.375 50.075 15.3125C50.8364 15.233 51.45 15.1591 51.9159 15.0909C52.3818 15.017 52.7199 14.9091 52.9301 14.767C53.1404 14.625 53.2455 14.4148 53.2455 14.1364V14.0852C53.2455 13.5455 53.075 13.1278 52.7341 12.8324C52.3989 12.5369 51.9216 12.3892 51.3023 12.3892C50.6489 12.3892 50.129 12.5341 49.7426 12.8239C49.3563 13.108 49.1006 13.4659 48.9756 13.8977L45.6176 13.625C45.7881 12.8295 46.1233 12.142 46.6233 11.5625C47.1233 10.9773 47.7682 10.5284 48.558 10.2159C49.3534 9.89773 50.2739 9.73864 51.3193 9.73864C52.0466 9.73864 52.7426 9.82386 53.4074 9.99432C54.0779 10.1648 54.6716 10.429 55.1887 10.7869C55.7114 11.1449 56.1233 11.6051 56.4245 12.1676C56.7256 12.7244 56.8762 13.392 56.8762 14.1705V23H53.433V21.1847H53.3307C53.1205 21.5938 52.8392 21.9545 52.487 22.267C52.1347 22.5739 51.7114 22.8153 51.2171 22.9915C50.7228 23.1619 50.1517 23.2472 49.504 23.2472ZM50.5438 20.7415C51.0779 20.7415 51.5495 20.6364 51.9586 20.4261C52.3676 20.2102 52.6887 19.9205 52.9216 19.5568C53.1546 19.1932 53.2711 18.7812 53.2711 18.321V16.9318C53.1574 17.0057 53.0012 17.0739 52.8023 17.1364C52.6091 17.1932 52.3904 17.2472 52.1461 17.2983C51.9017 17.3437 51.6574 17.3864 51.4131 17.4261C51.1688 17.4602 50.9472 17.4915 50.7483 17.5199C50.3222 17.5824 49.95 17.6818 49.6318 17.8182C49.3137 17.9545 49.0665 18.1392 48.8904 18.3722C48.7142 18.5994 48.6262 18.8835 48.6262 19.2244C48.6262 19.7188 48.8051 20.0966 49.1631 20.358C49.5267 20.6136 49.987 20.7415 50.5438 20.7415ZM61.2257 27.9091C60.7654 27.9091 60.3336 27.8722 59.9302 27.7983C59.5325 27.7301 59.2029 27.642 58.9416 27.5341L59.7597 24.8239C60.1859 24.9545 60.5694 25.0256 60.9103 25.0369C61.2569 25.0483 61.5552 24.9688 61.8052 24.7983C62.0609 24.6278 62.2683 24.3381 62.4274 23.929L62.6404 23.375L57.9444 9.90909H61.7626L64.4728 19.5227H64.6092L67.345 9.90909H71.1887L66.1007 24.4148C65.8563 25.1193 65.5239 25.733 65.1035 26.2557C64.6887 26.7841 64.1632 27.1903 63.5268 27.4744C62.8904 27.7642 62.1234 27.9091 61.2257 27.9091Z" fill="white"/>
</svg>
