<svg viewBox="0 0 104 29" fill="none" xmlns="http://www.w3.org/2000/svg">
<path d="M2.15625 17.5199V14.5199L14.1562 9.23579V12.6875L5.94034 15.9858L6.05114 15.8068V16.233L5.94034 16.054L14.1562 19.3523V22.804L2.15625 17.5199Z" fill="#D4D4D8"/>
<path d="M26.4667 15.4318V23H22.8361V9.90909H26.2963V12.2188H26.4497C26.7395 11.4574 27.2253 10.8551 27.9071 10.4119C28.5889 9.96307 29.4156 9.73864 30.3872 9.73864C31.2963 9.73864 32.0889 9.9375 32.765 10.3352C33.4412 10.733 33.9667 11.3011 34.3417 12.0398C34.7167 12.7727 34.9042 13.6477 34.9042 14.6648V23H31.2736V15.3125C31.2792 14.5114 31.0747 13.8864 30.6599 13.4375C30.2451 12.983 29.6741 12.7557 28.9468 12.7557C28.4582 12.7557 28.0264 12.8608 27.6514 13.071C27.2821 13.2812 26.9923 13.5881 26.7821 13.9915C26.5775 14.3892 26.4724 14.8693 26.4667 15.4318ZM37.5257 23V9.90909H41.0456V12.1932H41.182C41.4206 11.3807 41.8212 10.767 42.3837 10.3523C42.9462 9.93182 43.5939 9.72159 44.3269 9.72159C44.5087 9.72159 44.7047 9.73295 44.9149 9.75568C45.1252 9.77841 45.3098 9.80966 45.4689 9.84943V13.071C45.2985 13.0199 45.0627 12.9744 44.7615 12.9347C44.4604 12.8949 44.1848 12.875 43.9348 12.875C43.4007 12.875 42.9235 12.9915 42.503 13.2244C42.0882 13.4517 41.7587 13.7699 41.5144 14.179C41.2757 14.5881 41.1564 15.0597 41.1564 15.5938V23H37.5257ZM50.464 23.2472C49.6288 23.2472 48.8845 23.1023 48.2311 22.8125C47.5776 22.517 47.0606 22.0824 46.6799 21.5085C46.3049 20.929 46.1174 20.2074 46.1174 19.3438C46.1174 18.6165 46.2509 18.0057 46.518 17.5114C46.785 17.017 47.1487 16.6193 47.6089 16.3182C48.0691 16.017 48.5918 15.7898 49.1771 15.6364C49.768 15.483 50.3873 15.375 51.035 15.3125C51.7964 15.233 52.41 15.1591 52.8759 15.0909C53.3418 15.017 53.6799 14.9091 53.8901 14.767C54.1004 14.625 54.2055 14.4148 54.2055 14.1364V14.0852C54.2055 13.5455 54.035 13.1278 53.6941 12.8324C53.3589 12.5369 52.8816 12.3892 52.2623 12.3892C51.6089 12.3892 51.089 12.5341 50.7026 12.8239C50.3163 13.108 50.0606 13.4659 49.9356 13.8977L46.5776 13.625C46.7481 12.8295 47.0833 12.142 47.5833 11.5625C48.0833 10.9773 48.7282 10.5284 49.518 10.2159C50.3134 9.89773 51.2339 9.73864 52.2793 9.73864C53.0066 9.73864 53.7026 9.82386 54.3674 9.99432C55.0379 10.1648 55.6316 10.429 56.1487 10.7869C56.6714 11.1449 57.0833 11.6051 57.3845 12.1676C57.6856 12.7244 57.8362 13.392 57.8362 14.1705V23H54.393V21.1847H54.2907C54.0805 21.5938 53.7992 21.9545 53.447 22.267C53.0947 22.5739 52.6714 22.8153 52.1771 22.9915C51.6828 23.1619 51.1117 23.2472 50.464 23.2472ZM51.5038 20.7415C52.0379 20.7415 52.5095 20.6364 52.9186 20.4261C53.3276 20.2102 53.6487 19.9205 53.8816 19.5568C54.1146 19.1932 54.2311 18.7812 54.2311 18.321V16.9318C54.1174 17.0057 53.9612 17.0739 53.7623 17.1364C53.5691 17.1932 53.3504 17.2472 53.1061 17.2983C52.8617 17.3437 52.6174 17.3864 52.3731 17.4261C52.1288 17.4602 51.9072 17.4915 51.7083 17.5199C51.2822 17.5824 50.91 17.6818 50.5918 17.8182C50.2737 17.9545 50.0265 18.1392 49.8504 18.3722C49.6742 18.5994 49.5862 18.8835 49.5862 19.2244C49.5862 19.7188 49.7651 20.0966 50.1231 20.358C50.4867 20.6136 50.947 20.7415 51.5038 20.7415ZM62.1857 27.9091C61.7254 27.9091 61.2936 27.8722 60.8902 27.7983C60.4925 27.7301 60.1629 27.642 59.9016 27.5341L60.7197 24.8239C61.1459 24.9545 61.5294 25.0256 61.8703 25.0369C62.2169 25.0483 62.5152 24.9688 62.7652 24.7983C63.0209 24.6278 63.2283 24.3381 63.3874 23.929L63.6004 23.375L58.9044 9.90909H62.7226L65.4328 19.5227H65.5692L68.305 9.90909H72.1487L67.0607 24.4148C66.8163 25.1193 66.4839 25.733 66.0635 26.2557C65.6487 26.7841 65.1232 27.1903 64.4868 27.4744C63.8504 27.7642 63.0834 27.9091 62.1857 27.9091Z" fill="white"/>
<path d="M86.6836 4.72727L81.0586 25.625H77.9308L83.5558 4.72727H86.6836ZM100.9 17.5199L88.9003 22.804V19.3523L97.1162 16.054L97.0054 16.233V15.8068L97.1162 15.9858L88.9003 12.6875V9.23579L100.9 14.5199V17.5199Z" fill="#CBD5E1"/>
</svg>
