<svg viewBox="0 0 104 29" fill="none" xmlns="http://www.w3.org/2000/svg">
<path d="M2.15625 17.5199V14.5199L14.1562 9.23579V12.6875L5.94034 15.9858L6.05114 15.8068V16.233L5.94034 16.054L14.1562 19.3523V22.804L2.15625 17.5199ZM80.2036 4.72727L74.5786 25.625H71.4508L77.0758 4.72727H80.2036ZM92.2603 17.5199L80.2603 22.804V19.3523L88.4762 16.054L88.3654 16.233V15.8068L88.4762 15.9858L80.2603 12.6875V9.23579L92.2603 14.5199V17.5199Z" fill="#D4D4D8"/>
<path d="M22.1467 15.4318V23H18.5161V9.90909H21.9763V12.2188H22.1297C22.4195 11.4574 22.9053 10.8551 23.5871 10.4119C24.2689 9.96307 25.0956 9.73864 26.0672 9.73864C26.9763 9.73864 27.7689 9.9375 28.445 10.3352C29.1212 10.733 29.6467 11.3011 30.0217 12.0398C30.3967 12.7727 30.5842 13.6477 30.5842 14.6648V23H26.9536V15.3125C26.9592 14.5114 26.7547 13.8864 26.3399 13.4375C25.9251 12.983 25.3541 12.7557 24.6268 12.7557C24.1382 12.7557 23.7064 12.8608 23.3314 13.071C22.9621 13.2812 22.6723 13.5881 22.4621 13.9915C22.2575 14.3892 22.1524 14.8693 22.1467 15.4318ZM33.2057 23V9.90909H36.7256V12.1932H36.862C37.1006 11.3807 37.5012 10.767 38.0637 10.3523C38.6262 9.93182 39.2739 9.72159 40.0069 9.72159C40.1887 9.72159 40.3847 9.73295 40.5949 9.75568C40.8052 9.77841 40.9898 9.80966 41.1489 9.84943V13.071C40.9785 13.0199 40.7427 12.9744 40.4415 12.9347C40.1404 12.8949 39.8648 12.875 39.6148 12.875C39.0807 12.875 38.6035 12.9915 38.183 13.2244C37.7682 13.4517 37.4387 13.7699 37.1944 14.179C36.9557 14.5881 36.8364 15.0597 36.8364 15.5938V23H33.2057ZM46.144 23.2472C45.3088 23.2472 44.5645 23.1023 43.9111 22.8125C43.2576 22.517 42.7406 22.0824 42.3599 21.5085C41.9849 20.929 41.7974 20.2074 41.7974 19.3438C41.7974 18.6165 41.9309 18.0057 42.198 17.5114C42.465 17.017 42.8287 16.6193 43.2889 16.3182C43.7491 16.017 44.2718 15.7898 44.8571 15.6364C45.448 15.483 46.0673 15.375 46.715 15.3125C47.4764 15.233 48.09 15.1591 48.5559 15.0909C49.0218 15.017 49.3599 14.9091 49.5701 14.767C49.7804 14.625 49.8855 14.4148 49.8855 14.1364V14.0852C49.8855 13.5455 49.715 13.1278 49.3741 12.8324C49.0389 12.5369 48.5616 12.3892 47.9423 12.3892C47.2889 12.3892 46.769 12.5341 46.3826 12.8239C45.9963 13.108 45.7406 13.4659 45.6156 13.8977L42.2576 13.625C42.4281 12.8295 42.7633 12.142 43.2633 11.5625C43.7633 10.9773 44.4082 10.5284 45.198 10.2159C45.9934 9.89773 46.9139 9.73864 47.9593 9.73864C48.6866 9.73864 49.3826 9.82386 50.0474 9.99432C50.7179 10.1648 51.3116 10.429 51.8287 10.7869C52.3514 11.1449 52.7633 11.6051 53.0645 12.1676C53.3656 12.7244 53.5162 13.392 53.5162 14.1705V23H50.073V21.1847H49.9707C49.7605 21.5938 49.4792 21.9545 49.127 22.267C48.7747 22.5739 48.3514 22.8153 47.8571 22.9915C47.3628 23.1619 46.7917 23.2472 46.144 23.2472ZM47.1838 20.7415C47.7179 20.7415 48.1895 20.6364 48.5986 20.4261C49.0076 20.2102 49.3287 19.9205 49.5616 19.5568C49.7946 19.1932 49.9111 18.7812 49.9111 18.321V16.9318C49.7974 17.0057 49.6412 17.0739 49.4423 17.1364C49.2491 17.1932 49.0304 17.2472 48.7861 17.2983C48.5417 17.3437 48.2974 17.3864 48.0531 17.4261C47.8088 17.4602 47.5872 17.4915 47.3883 17.5199C46.9622 17.5824 46.59 17.6818 46.2718 17.8182C45.9537 17.9545 45.7065 18.1392 45.5304 18.3722C45.3542 18.5994 45.2662 18.8835 45.2662 19.2244C45.2662 19.7188 45.4451 20.0966 45.8031 20.358C46.1667 20.6136 46.627 20.7415 47.1838 20.7415ZM57.8657 27.9091C57.4054 27.9091 56.9736 27.8722 56.5702 27.7983C56.1725 27.7301 55.8429 27.642 55.5816 27.5341L56.3997 24.8239C56.8259 24.9545 57.2094 25.0256 57.5503 25.0369C57.8969 25.0483 58.1952 24.9688 58.4452 24.7983C58.7009 24.6278 58.9083 24.3381 59.0674 23.929L59.2804 23.375L54.5844 9.90909H58.4026L61.1128 19.5227H61.2492L63.985 9.90909H67.8287L62.7407 24.4148C62.4963 25.1193 62.1639 25.733 61.7435 26.2557C61.3287 26.7841 60.8032 27.1903 60.1668 27.4744C59.5304 27.7642 58.7634 27.9091 57.8657 27.9091Z" fill="white"/>
</svg>
