<svg viewBox="0 0 104 29" fill="none" xmlns="http://www.w3.org/2000/svg">
<path d="M2.15625 17.5199V14.5199L14.1562 9.23579V12.6875L5.94034 15.9858L6.05114 15.8068V16.233L5.94034 16.054L14.1562 19.3523V22.804L2.15625 17.5199ZM84.5236 4.72727L78.8986 25.625H75.7708L81.3958 4.72727H84.5236ZM96.5803 17.5199L84.5803 22.804V19.3523L92.7962 16.054L92.6854 16.233V15.8068L92.7962 15.9858L84.5803 12.6875V9.23579L96.5803 14.5199V17.5199Z" fill="#D4D4D8"/>
<path d="M24.3067 15.4318V23H20.6761V9.90909H24.1363V12.2188H24.2897C24.5795 11.4574 25.0653 10.8551 25.7471 10.4119C26.4289 9.96307 27.2556 9.73864 28.2272 9.73864C29.1363 9.73864 29.9289 9.9375 30.605 10.3352C31.2812 10.733 31.8067 11.3011 32.1817 12.0398C32.5567 12.7727 32.7442 13.6477 32.7442 14.6648V23H29.1136V15.3125C29.1192 14.5114 28.9147 13.8864 28.4999 13.4375C28.0851 12.983 27.5141 12.7557 26.7868 12.7557C26.2982 12.7557 25.8664 12.8608 25.4914 13.071C25.1221 13.2812 24.8323 13.5881 24.6221 13.9915C24.4175 14.3892 24.3124 14.8693 24.3067 15.4318ZM35.3657 23V9.90909H38.8856V12.1932H39.022C39.2606 11.3807 39.6612 10.767 40.2237 10.3523C40.7862 9.93182 41.4339 9.72159 42.1669 9.72159C42.3487 9.72159 42.5447 9.73295 42.7549 9.75568C42.9652 9.77841 43.1498 9.80966 43.3089 9.84943V13.071C43.1385 13.0199 42.9027 12.9744 42.6015 12.9347C42.3004 12.8949 42.0248 12.875 41.7748 12.875C41.2407 12.875 40.7635 12.9915 40.343 13.2244C39.9282 13.4517 39.5987 13.7699 39.3544 14.179C39.1157 14.5881 38.9964 15.0597 38.9964 15.5938V23H35.3657ZM48.304 23.2472C47.4688 23.2472 46.7245 23.1023 46.0711 22.8125C45.4176 22.517 44.9006 22.0824 44.5199 21.5085C44.1449 20.929 43.9574 20.2074 43.9574 19.3438C43.9574 18.6165 44.0909 18.0057 44.358 17.5114C44.625 17.017 44.9887 16.6193 45.4489 16.3182C45.9091 16.017 46.4318 15.7898 47.0171 15.6364C47.608 15.483 48.2273 15.375 48.875 15.3125C49.6364 15.233 50.25 15.1591 50.7159 15.0909C51.1818 15.017 51.5199 14.9091 51.7301 14.767C51.9404 14.625 52.0455 14.4148 52.0455 14.1364V14.0852C52.0455 13.5455 51.875 13.1278 51.5341 12.8324C51.1989 12.5369 50.7216 12.3892 50.1023 12.3892C49.4489 12.3892 48.929 12.5341 48.5426 12.8239C48.1563 13.108 47.9006 13.4659 47.7756 13.8977L44.4176 13.625C44.5881 12.8295 44.9233 12.142 45.4233 11.5625C45.9233 10.9773 46.5682 10.5284 47.358 10.2159C48.1534 9.89773 49.0739 9.73864 50.1193 9.73864C50.8466 9.73864 51.5426 9.82386 52.2074 9.99432C52.8779 10.1648 53.4716 10.429 53.9887 10.7869C54.5114 11.1449 54.9233 11.6051 55.2245 12.1676C55.5256 12.7244 55.6762 13.392 55.6762 14.1705V23H52.233V21.1847H52.1307C51.9205 21.5938 51.6392 21.9545 51.287 22.267C50.9347 22.5739 50.5114 22.8153 50.0171 22.9915C49.5228 23.1619 48.9517 23.2472 48.304 23.2472ZM49.3438 20.7415C49.8779 20.7415 50.3495 20.6364 50.7586 20.4261C51.1676 20.2102 51.4887 19.9205 51.7216 19.5568C51.9546 19.1932 52.0711 18.7812 52.0711 18.321V16.9318C51.9574 17.0057 51.8012 17.0739 51.6023 17.1364C51.4091 17.1932 51.1904 17.2472 50.9461 17.2983C50.7017 17.3437 50.4574 17.3864 50.2131 17.4261C49.9688 17.4602 49.7472 17.4915 49.5483 17.5199C49.1222 17.5824 48.75 17.6818 48.4318 17.8182C48.1137 17.9545 47.8665 18.1392 47.6904 18.3722C47.5142 18.5994 47.4262 18.8835 47.4262 19.2244C47.4262 19.7188 47.6051 20.0966 47.9631 20.358C48.3267 20.6136 48.787 20.7415 49.3438 20.7415ZM60.0257 27.9091C59.5654 27.9091 59.1336 27.8722 58.7302 27.7983C58.3325 27.7301 58.0029 27.642 57.7416 27.5341L58.5597 24.8239C58.9859 24.9545 59.3694 25.0256 59.7103 25.0369C60.0569 25.0483 60.3552 24.9688 60.6052 24.7983C60.8609 24.6278 61.0683 24.3381 61.2274 23.929L61.4404 23.375L56.7444 9.90909H60.5626L63.2728 19.5227H63.4092L66.145 9.90909H69.9887L64.9007 24.4148C64.6563 25.1193 64.3239 25.733 63.9035 26.2557C63.4887 26.7841 62.9632 27.1903 62.3268 27.4744C61.6904 27.7642 60.9234 27.9091 60.0257 27.9091Z" fill="white"/>
</svg>
