<svg width="589" height="344" viewBox="0 0 589 344" fill="none" xmlns="http://www.w3.org/2000/svg">
<g clip-path="url(#clip0_1605_1062)">
<rect width="589" height="344" fill="#A7F3D0"/>
<rect x="-2" width="295" height="344" fill="#86EFAC"/>
<rect x="228" y="57" width="131" height="231" rx="65.5" stroke="#22C55E" stroke-width="6"/>
<rect x="287" y="84" width="13" height="33" rx="6.5" fill="#22C55E"/>
<g filter="url(#filter0_dd_1605_1062)">
<path fill-rule="evenodd" clip-rule="evenodd" d="M432.904 208.604C434.282 207.226 436.151 206.452 438.1 206.452C440.049 206.452 441.918 207.226 443.296 208.604L467.5 232.807L491.704 208.604C492.382 207.902 493.193 207.342 494.089 206.956C494.986 206.571 495.951 206.368 496.926 206.36C497.902 206.351 498.87 206.537 499.774 206.907C500.677 207.277 501.497 207.822 502.188 208.512C502.878 209.203 503.423 210.023 503.793 210.926C504.163 211.83 504.349 212.798 504.34 213.774C504.332 214.749 504.129 215.714 503.744 216.611C503.358 217.507 502.798 218.318 502.096 218.996L472.696 248.396C471.318 249.774 469.449 250.548 467.5 250.548C465.551 250.548 463.682 249.774 462.304 248.396L432.904 218.996C431.526 217.618 430.752 215.749 430.752 213.8C430.752 211.851 431.526 209.982 432.904 208.604V208.604Z" fill="#22C55E"/>
<path fill-rule="evenodd" clip-rule="evenodd" d="M432.904 153.604C434.282 152.226 436.151 151.452 438.1 151.452C440.049 151.452 441.918 152.226 443.296 153.604L467.5 177.807L491.704 153.604C492.382 152.902 493.193 152.342 494.089 151.956C494.986 151.571 495.951 151.368 496.926 151.36C497.902 151.351 498.87 151.537 499.774 151.907C500.677 152.277 501.497 152.822 502.188 153.512C502.878 154.203 503.423 155.023 503.793 155.926C504.163 156.83 504.349 157.798 504.34 158.774C504.332 159.749 504.129 160.714 503.744 161.611C503.358 162.507 502.798 163.318 502.096 163.996L472.696 193.396C471.318 194.774 469.449 195.548 467.5 195.548C465.551 195.548 463.682 194.774 462.304 193.396L432.904 163.996C431.526 162.618 430.752 160.749 430.752 158.8C430.752 156.851 431.526 154.982 432.904 153.604V153.604Z" fill="#22C55E"/>
<path fill-rule="evenodd" clip-rule="evenodd" d="M432.904 95.6035C434.282 94.2256 436.151 93.4516 438.1 93.4516C440.049 93.4516 441.918 94.2256 443.296 95.6035L467.5 119.807L491.704 95.6035C492.382 94.9015 493.193 94.3416 494.089 93.9564C494.986 93.5712 495.951 93.3684 496.926 93.36C497.902 93.3515 498.87 93.5374 499.774 93.907C500.677 94.2766 501.497 94.8223 502.188 95.5124C502.878 96.2026 503.423 97.0232 503.793 97.9265C504.163 98.8298 504.349 99.7976 504.34 100.774C504.332 101.749 504.129 102.714 503.744 103.611C503.358 104.507 502.798 105.318 502.096 105.996L472.696 135.396C471.318 136.774 469.449 137.548 467.5 137.548C465.551 137.548 463.682 136.774 462.304 135.396L432.904 105.996C431.526 104.618 430.752 102.749 430.752 100.8C430.752 98.851 431.526 96.9819 432.904 95.6035V95.6035Z" fill="#22C55E"/>
</g>
</g>
<defs>
<filter id="filter0_dd_1605_1062" x="391" y="40" width="153" height="266" filterUnits="userSpaceOnUse" color-interpolation-filters="sRGB">
<feFlood flood-opacity="0" result="BackgroundImageFix"/>
<feColorMatrix in="SourceAlpha" type="matrix" values="0 0 0 0 0 0 0 0 0 0 0 0 0 0 0 0 0 0 127 0" result="hardAlpha"/>
<feOffset dy="1"/>
<feGaussianBlur stdDeviation="1"/>
<feColorMatrix type="matrix" values="0 0 0 0 0 0 0 0 0 0 0 0 0 0 0 0 0 0 0.06 0"/>
<feBlend mode="normal" in2="BackgroundImageFix" result="effect1_dropShadow_1605_1062"/>
<feColorMatrix in="SourceAlpha" type="matrix" values="0 0 0 0 0 0 0 0 0 0 0 0 0 0 0 0 0 0 127 0" result="hardAlpha"/>
<feOffset dy="1"/>
<feGaussianBlur stdDeviation="1.5"/>
<feColorMatrix type="matrix" values="0 0 0 0 0 0 0 0 0 0 0 0 0 0 0 0 0 0 0.1 0"/>
<feBlend mode="normal" in2="effect1_dropShadow_1605_1062" result="effect2_dropShadow_1605_1062"/>
<feBlend mode="normal" in="SourceGraphic" in2="effect2_dropShadow_1605_1062" result="shape"/>
</filter>
<clipPath id="clip0_1605_1062">
<rect width="589" height="344" fill="white"/>
</clipPath>
</defs>
</svg>
