<svg xmlns="http://www.w3.org/2000/svg" width="1070" height="711" fill="none" viewBox="0 0 1070 711"><rect width="1068" height="374" x="1" y="167" stroke="#38383E" stroke-width="2" rx="7"/><path fill="#D4D4D8" d="M1037.71 344.707a1 1 0 0 0 0-1.414l-6.37-6.364a.994.994 0 0 0-1.41 0 1 1 0 0 0 0 1.414l5.66 5.657-5.66 5.657a1 1 0 0 0 0 1.414.994.994 0 0 0 1.41 0l6.37-6.364ZM22 345h4.531v-2H22v2Zm13.594 0h9.062v-2h-9.062v2Zm18.125 0h9.062v-2H53.72v2Zm18.125 0h9.062v-2h-9.062v2Zm18.125 0h9.062v-2H89.97v2Zm18.125 0h9.062v-2h-9.062v2Zm18.125 0h9.062v-2h-9.062v2Zm18.125 0h9.062v-2h-9.062v2Zm18.125 0h9.062v-2h-9.062v2Zm18.125 0h9.062v-2h-9.062v2Zm18.125 0h9.062v-2h-9.062v2Zm18.125 0h9.062v-2h-9.062v2Zm18.125 0h9.062v-2h-9.062v2Zm18.125 0h9.062v-2h-9.062v2Zm18.125 0h9.062v-2h-9.062v2Zm18.125 0h9.062v-2h-9.062v2Zm18.125 0h9.062v-2h-9.062v2Zm18.125 0h9.062v-2h-9.062v2Zm18.125 0h9.062v-2h-9.062v2Zm18.125 0h9.062v-2h-9.062v2Zm18.125 0h9.062v-2h-9.062v2Zm18.125 0h9.062v-2h-9.062v2Zm18.125 0h9.062v-2h-9.062v2Zm18.125 0h9.062v-2h-9.062v2Zm18.125 0h9.062v-2h-9.062v2Zm18.125 0h9.062v-2h-9.062v2Zm18.125 0h9.062v-2h-9.062v2Zm18.125 0h9.062v-2h-9.062v2Zm18.125 0h9.062v-2h-9.062v2Zm18.125 0h9.062v-2h-9.062v2Zm18.125 0h9.062v-2h-9.062v2Zm18.125 0h9.062v-2h-9.062v2Zm18.125 0h9.062v-2h-9.062v2Zm18.125 0h9.062v-2h-9.062v2Zm18.125 0h9.062v-2h-9.062v2Zm18.125 0h9.062v-2h-9.062v2Zm18.125 0h9.062v-2h-9.062v2Zm18.125 0h9.062v-2h-9.062v2Zm18.125 0h9.062v-2h-9.062v2Zm18.125 0h9.062v-2h-9.062v2Zm18.125 0h9.062v-2h-9.062v2Zm18.125 0h9.062v-2h-9.062v2Zm18.125 0h9.062v-2h-9.062v2Zm18.125 0h9.062v-2h-9.062v2Zm18.125 0h9.062v-2h-9.062v2Zm18.125 0h9.062v-2h-9.062v2Zm18.125 0h9.062v-2h-9.062v2Zm18.125 0h9.062v-2h-9.062v2Zm18.125 0h9.062v-2h-9.062v2Zm18.125 0h9.062v-2h-9.062v2Zm18.125 0h9.062v-2h-9.062v2Zm18.125 0h9.062v-2h-9.062v2Zm18.125 0h9.062v-2h-9.062v2Zm18.125 0h9.062v-2h-9.062v2Zm18.125 0h9.061v-2h-9.061v2Zm18.121 0h9.07v-2h-9.07v2Zm18.13 0h4.53v-2h-4.53v2Zm5.94.414c.79-.781.79-2.047 0-2.828l-12.72-12.728a2.001 2.001 0 0 0-2.83 2.828L1034.17 344l-11.31 11.314a2.001 2.001 0 0 0 2.83 2.828l12.72-12.728ZM22 346h4.531v-4H22v4Zm13.594 0h9.062v-4h-9.062v4Zm18.125 0h9.062v-4H53.72v4Zm18.125 0h9.062v-4h-9.062v4Zm18.125 0h9.062v-4H89.97v4Zm18.125 0h9.062v-4h-9.062v4Zm18.125 0h9.062v-4h-9.062v4Zm18.125 0h9.062v-4h-9.062v4Zm18.125 0h9.062v-4h-9.062v4Zm18.125 0h9.062v-4h-9.062v4Zm18.125 0h9.062v-4h-9.062v4Zm18.125 0h9.062v-4h-9.062v4Zm18.125 0h9.062v-4h-9.062v4Zm18.125 0h9.062v-4h-9.062v4Zm18.125 0h9.062v-4h-9.062v4Zm18.125 0h9.062v-4h-9.062v4Zm18.125 0h9.062v-4h-9.062v4Zm18.125 0h9.062v-4h-9.062v4Zm18.125 0h9.062v-4h-9.062v4Zm18.125 0h9.062v-4h-9.062v4Zm18.125 0h9.062v-4h-9.062v4Zm18.125 0h9.062v-4h-9.062v4Zm18.125 0h9.062v-4h-9.062v4Zm18.125 0h9.062v-4h-9.062v4Zm18.125 0h9.062v-4h-9.062v4Zm18.125 0h9.062v-4h-9.062v4Zm18.125 0h9.062v-4h-9.062v4Zm18.125 0h9.062v-4h-9.062v4Zm18.125 0h9.062v-4h-9.062v4Zm18.125 0h9.062v-4h-9.062v4Zm18.125 0h9.062v-4h-9.062v4Zm18.125 0h9.062v-4h-9.062v4Zm18.125 0h9.062v-4h-9.062v4Zm18.125 0h9.062v-4h-9.062v4Zm18.125 0h9.062v-4h-9.062v4Zm18.125 0h9.062v-4h-9.062v4Zm18.125 0h9.062v-4h-9.062v4Zm18.125 0h9.062v-4h-9.062v4Zm18.125 0h9.062v-4h-9.062v4Zm18.125 0h9.062v-4h-9.062v4Zm18.125 0h9.062v-4h-9.062v4Zm18.125 0h9.062v-4h-9.062v4Zm18.125 0h9.062v-4h-9.062v4Zm18.125 0h9.062v-4h-9.062v4Zm18.125 0h9.062v-4h-9.062v4Zm18.125 0h9.062v-4h-9.062v4Zm18.125 0h9.062v-4h-9.062v4Zm18.125 0h9.062v-4h-9.062v4Zm18.125 0h9.062v-4h-9.062v4Zm18.125 0h9.062v-4h-9.062v4Zm18.125 0h9.062v-4h-9.062v4Zm18.125 0h9.062v-4h-9.062v4Zm18.125 0h9.062v-4h-9.062v4Zm18.125 0h9.062v-4h-9.062v4Zm18.125 0h9.061v-4h-9.061v4Zm18.121 0h9.07v-4h-9.07v4Zm18.13 0h4.53v-4h-4.53v4Z"/><rect width="315" height="81" x="286.5" y="303.5" fill="#2A261D" rx="7.5"/><path fill="#FEF3C7" d="M382.71 341v-1.636c0-.483.091-.992.273-1.526a6.695 6.695 0 0 1 .758-1.534 5.362 5.362 0 0 1 1.143-1.253l1.261.904a9.803 9.803 0 0 0-.886 1.585 4.374 4.374 0 0 0-.367 1.798V341h-2.182Zm4.347 0v-1.636c0-.483.091-.992.273-1.526a6.615 6.615 0 0 1 .758-1.534 5.38 5.38 0 0 1 1.142-1.253l1.261.904a9.88 9.88 0 0 0-.886 1.585 4.39 4.39 0 0 0-.366 1.798V341h-2.182Zm4.983 12h-2.795l6.281-17.455h3.043L404.85 353h-2.795l-4.935-14.284h-.136L392.04 353Zm.469-6.835h9.068v2.216h-9.068v-2.216Zm14.387-10.62v1.637c0 .483-.091.991-.273 1.525a6.432 6.432 0 0 1-.75 1.526 5.523 5.523 0 0 1-1.142 1.261l-1.262-.903a9.717 9.717 0 0 0 .87-1.56c.25-.551.375-1.159.375-1.824v-1.662h2.182Zm4.338 0v1.637c0 .483-.091.991-.273 1.525a6.432 6.432 0 0 1-.75 1.526 5.523 5.523 0 0 1-1.142 1.261l-1.261-.903a9.712 9.712 0 0 0 .869-1.56c.25-.551.375-1.159.375-1.824v-1.662h2.182Zm11.84 9.682V353h-2.548v-17.455h2.514v6.495h.162a3.76 3.76 0 0 1 1.406-1.679c.631-.415 1.455-.622 2.472-.622.897 0 1.681.184 2.352.554.676.369 1.199.92 1.568 1.653.375.727.562 1.636.562 2.727V353h-2.548v-8.02c0-.96-.247-1.704-.741-2.233-.495-.534-1.182-.801-2.063-.801a3.37 3.37 0 0 0-1.619.384c-.472.255-.844.63-1.117 1.125-.267.488-.4 1.079-.4 1.772Zm15.699 8.063c-.83 0-1.58-.154-2.25-.46a3.792 3.792 0 0 1-1.594-1.356c-.386-.59-.58-1.315-.58-2.173 0-.739.142-1.346.427-1.824a3.14 3.14 0 0 1 1.15-1.133 5.995 5.995 0 0 1 1.619-.631c.597-.142 1.205-.25 1.824-.324l1.909-.221c.489-.063.844-.162 1.066-.299.221-.136.332-.358.332-.664v-.06c0-.744-.21-1.321-.631-1.73-.414-.409-1.034-.614-1.857-.614-.858 0-1.535.19-2.029.571-.489.375-.827.793-1.014 1.253l-2.395-.545c.284-.796.699-1.438 1.244-1.927a5.041 5.041 0 0 1 1.901-1.073 7.398 7.398 0 0 1 2.258-.341c.523 0 1.077.062 1.662.187a4.863 4.863 0 0 1 1.654.665c.517.324.94.787 1.27 1.389.329.597.494 1.372.494 2.327V353h-2.489v-1.79h-.102c-.165.33-.412.654-.741.972-.33.318-.753.582-1.27.792-.517.211-1.137.316-1.858.316Zm.554-2.046c.704 0 1.307-.139 1.807-.417.505-.279.889-.642 1.15-1.091.267-.455.401-.941.401-1.458v-1.687c-.091.091-.267.176-.529.256a8.42 8.42 0 0 1-.878.196c-.329.051-.65.099-.963.145a63.64 63.64 0 0 0-.784.102 6.274 6.274 0 0 0-1.355.315 2.331 2.331 0 0 0-.971.639c-.239.273-.358.637-.358 1.091 0 .631.233 1.108.698 1.432.466.318 1.06.477 1.782.477Zm11.848-6.017V353h-2.548v-13.091h2.446v2.131h.162a3.747 3.747 0 0 1 1.415-1.671c.648-.42 1.463-.63 2.446-.63.892 0 1.673.187 2.344.562.67.369 1.19.921 1.559 1.654.37.732.554 1.639.554 2.718V353h-2.548v-8.02c0-.949-.247-1.69-.742-2.224-.494-.54-1.173-.81-2.036-.81-.591 0-1.117.128-1.577.384-.455.255-.815.63-1.083 1.125-.261.488-.392 1.079-.392 1.772Zm16.696 8.029c-1.056 0-2-.27-2.829-.81-.824-.545-1.472-1.321-1.943-2.327-.466-1.011-.699-2.224-.699-3.639 0-1.415.236-2.625.707-3.631.478-1.005 1.131-1.775 1.96-2.309.83-.534 1.77-.801 2.821-.801.813 0 1.466.136 1.961.409.5.267.886.579 1.159.937.278.358.494.674.648.946h.153v-6.486h2.548V353h-2.488v-2.037h-.213a6.805 6.805 0 0 1-.665.955c-.284.358-.676.67-1.176.937-.5.267-1.148.401-1.944.401Zm.563-2.174c.733 0 1.352-.193 1.858-.579.511-.392.898-.935 1.159-1.628.267-.693.401-1.5.401-2.42 0-.91-.131-1.705-.392-2.387-.262-.682-.645-1.213-1.151-1.594-.506-.38-1.131-.571-1.875-.571-.767 0-1.406.199-1.918.597-.511.398-.897.94-1.159 1.628-.255.687-.383 1.463-.383 2.327 0 .875.13 1.661.392 2.36.261.699.647 1.253 1.159 1.662.517.404 1.153.605 1.909.605Zm12.109-15.537V353h-2.549v-17.455h2.549Zm9.07 17.719c-1.29 0-2.401-.275-3.332-.826-.927-.557-1.643-1.339-2.148-2.344-.5-1.012-.75-2.196-.75-3.554 0-1.341.25-2.523.75-3.546.505-1.022 1.21-1.821 2.113-2.395.91-.573 1.972-.86 3.188-.86.739 0 1.454.122 2.148.366a5.193 5.193 0 0 1 1.866 1.151c.551.522.986 1.201 1.304 2.037.318.829.477 1.838.477 3.025v.904h-10.406v-1.91h7.909c0-.67-.136-1.264-.409-1.781a3.107 3.107 0 0 0-1.15-1.236c-.489-.301-1.063-.451-1.722-.451-.716 0-1.341.176-1.875.528a3.543 3.543 0 0 0-1.227 1.364 3.938 3.938 0 0 0-.426 1.815v1.492c0 .875.153 1.619.46 2.233a3.328 3.328 0 0 0 1.304 1.406c.557.318 1.207.477 1.951.477a4.07 4.07 0 0 0 1.322-.204 2.88 2.88 0 0 0 1.031-.631 2.75 2.75 0 0 0 .665-1.031l2.411.434a4.367 4.367 0 0 1-1.039 1.867c-.495.528-1.117.94-1.867 1.236-.744.289-1.594.434-2.548.434Zm8.444-.264v-13.091h2.463v2.08h.136a3.16 3.16 0 0 1 1.262-1.662 3.61 3.61 0 0 1 2.062-.614 11.338 11.338 0 0 1 1.082.06v2.437a4.838 4.838 0 0 0-.545-.094 5.305 5.305 0 0 0-.784-.059c-.602 0-1.139.128-1.611.383a2.851 2.851 0 0 0-1.517 2.566V353h-2.548Z"/><rect width="315" height="81" x="286.5" y="303.5" stroke="#DCB750" rx="7.5"/><g filter="url(#a)" opacity=".9"><circle cx="336.5" cy="92.5" r="27.5" fill="#D1FAE5" fill-opacity=".25"/></g><circle cx="335.5" cy="92.5" r="27.5" fill="#D1FAE5" fill-opacity=".1"/><circle cx="335.5" cy="92.5" r="15" fill="#CEF3E4" stroke="#6EE7B7" stroke-width="5"/><path stroke="#D4D4D8" stroke-dasharray="9 9" stroke-linecap="round" stroke-width="4" d="M335.5 120v183"/><g filter="url(#b)" opacity=".9"><circle cx="199.5" cy="618.5" r="27.5" fill="#D1FAE5" fill-opacity=".25" transform="rotate(-180 199.5 618.5)"/></g><circle cx="200.5" cy="618.5" r="27.5" fill="#D1FAE5" fill-opacity=".1" transform="rotate(-180 200.5 618.5)"/><circle cx="200.5" cy="618.5" r="15" fill="#CEF3E4" stroke="#6EE7B7" stroke-width="5" transform="rotate(-180 200.5 618.5)"/><path stroke="#D4D4D8" stroke-dasharray="9 9" stroke-linecap="round" stroke-width="4" d="M200.5 591V344"/><path fill="#D4D4D8" d="M23.918 207.545h3.196l5.556 13.569h.205l5.557-13.569h3.196V225h-2.506v-12.631h-.162l-5.148 12.605h-2.079l-5.148-12.613h-.162V225h-2.505v-17.455Zm25.144 17.745c-.83 0-1.58-.154-2.25-.46a3.795 3.795 0 0 1-1.594-1.356c-.386-.59-.58-1.315-.58-2.173 0-.739.143-1.346.427-1.824a3.142 3.142 0 0 1 1.15-1.133 5.989 5.989 0 0 1 1.62-.631c.596-.142 1.204-.25 1.823-.324l1.91-.221c.488-.063.843-.162 1.065-.299.221-.136.332-.358.332-.664v-.06c0-.744-.21-1.321-.63-1.73-.415-.409-1.035-.614-1.858-.614-.858 0-1.534.19-2.029.571-.489.375-.827.793-1.014 1.253l-2.395-.545c.284-.796.699-1.438 1.244-1.927a5.04 5.04 0 0 1 1.9-1.073 7.398 7.398 0 0 1 2.26-.341c.522 0 1.076.062 1.661.187a4.863 4.863 0 0 1 1.654.665c.517.324.94.787 1.27 1.389.33.597.494 1.372.494 2.327V225h-2.489v-1.79h-.102c-.165.33-.412.654-.741.972-.33.318-.753.582-1.27.792-.517.211-1.137.316-1.858.316Zm.554-2.046c.704 0 1.307-.139 1.807-.417.505-.279.889-.642 1.15-1.091.267-.455.4-.941.4-1.458v-1.687c-.09.091-.266.176-.528.256a8.485 8.485 0 0 1-.877.196c-.33.051-.651.099-.964.145-.312.039-.573.073-.784.102a6.272 6.272 0 0 0-1.355.315 2.333 2.333 0 0 0-.971.639c-.239.273-.358.637-.358 1.091 0 .631.233 1.108.698 1.432.466.318 1.06.477 1.782.477Zm9.3 1.756v-13.091h2.549V225h-2.549Zm1.287-15.111c-.443 0-.824-.148-1.142-.443a1.44 1.44 0 0 1-.469-1.074c0-.42.157-.778.47-1.074a1.603 1.603 0 0 1 1.141-.451c.443 0 .821.15 1.134.451.318.296.477.654.477 1.074 0 .415-.16.773-.477 1.074-.313.295-.69.443-1.134.443Zm7.238 7.338V225h-2.548v-13.091h2.446v2.131h.162a3.747 3.747 0 0 1 1.414-1.671c.648-.42 1.464-.63 2.447-.63.892 0 1.673.187 2.343.562.67.369 1.19.921 1.56 1.654.37.732.554 1.639.554 2.718V225H73.27v-8.02c0-.949-.248-1.69-.742-2.224-.494-.54-1.173-.81-2.037-.81-.59 0-1.116.128-1.577.384a2.75 2.75 0 0 0-1.082 1.125c-.261.488-.392 1.079-.392 1.772Zm24.258-5.318v2.046h-7.15v-2.046h7.15Zm-5.233-3.136h2.548v12.383c0 .495.074.867.222 1.117.147.244.338.412.57.503.24.085.498.127.776.127.205 0 .384-.014.537-.042l.358-.068.46 2.105a4.294 4.294 0 0 1-.63.17 4.911 4.911 0 0 1-1.023.102 4.476 4.476 0 0 1-1.875-.358 3.214 3.214 0 0 1-1.406-1.159c-.358-.522-.537-1.179-.537-1.968v-12.912Zm10.881 8.454V225H94.8v-17.455h2.514v6.495h.162a3.762 3.762 0 0 1 1.406-1.679c.631-.415 1.455-.622 2.472-.622.898 0 1.682.184 2.352.554.676.369 1.199.92 1.568 1.653.375.727.563 1.636.563 2.727V225h-2.548v-8.02c0-.96-.248-1.704-.742-2.233-.494-.534-1.182-.801-2.062-.801-.603 0-1.142.128-1.62.384-.471.255-.843.63-1.116 1.125-.267.488-.4 1.079-.4 1.772Zm11.89 7.773v-13.091h2.463v2.08h.136a3.164 3.164 0 0 1 1.261-1.662 3.612 3.612 0 0 1 2.063-.614 11.301 11.301 0 0 1 1.082.06v2.437a4.838 4.838 0 0 0-.545-.094 5.316 5.316 0 0 0-.784-.059c-.603 0-1.14.128-1.611.383a2.851 2.851 0 0 0-1.517 2.566V225h-2.548Zm14.384.264c-1.29 0-2.401-.275-3.333-.826-.926-.557-1.642-1.339-2.147-2.344-.5-1.012-.75-2.196-.75-3.554 0-1.341.25-2.523.75-3.546.505-1.022 1.21-1.821 2.113-2.395.909-.573 1.972-.86 3.188-.86a6.42 6.42 0 0 1 2.147.366 5.189 5.189 0 0 1 1.867 1.151c.551.522.986 1.201 1.304 2.037.318.829.477 1.838.477 3.025v.904h-10.406v-1.91h7.909c0-.67-.136-1.264-.409-1.781a3.102 3.102 0 0 0-1.151-1.236c-.488-.301-1.062-.451-1.721-.451-.716 0-1.341.176-1.875.528a3.535 3.535 0 0 0-1.227 1.364 3.926 3.926 0 0 0-.427 1.815v1.492c0 .875.154 1.619.461 2.233a3.328 3.328 0 0 0 1.304 1.406c.556.318 1.207.477 1.951.477a4.06 4.06 0 0 0 1.321-.204 2.875 2.875 0 0 0 1.032-.631c.289-.279.511-.622.664-1.031l2.412.434a4.367 4.367 0 0 1-1.039 1.867c-.495.528-1.117.94-1.867 1.236-.744.289-1.594.434-2.548.434Zm12.253.026c-.829 0-1.579-.154-2.25-.46a3.796 3.796 0 0 1-1.593-1.356c-.387-.59-.58-1.315-.58-2.173 0-.739.142-1.346.426-1.824a3.142 3.142 0 0 1 1.151-1.133 5.982 5.982 0 0 1 1.619-.631c.597-.142 1.205-.25 1.824-.324l1.909-.221c.489-.063.844-.162 1.065-.299.222-.136.333-.358.333-.664v-.06c0-.744-.211-1.321-.631-1.73-.415-.409-1.034-.614-1.858-.614-.858 0-1.534.19-2.028.571-.489.375-.827.793-1.015 1.253l-2.394-.545c.284-.796.698-1.438 1.244-1.927a5.045 5.045 0 0 1 1.9-1.073 7.4 7.4 0 0 1 2.259-.341c.523 0 1.077.062 1.662.187a4.85 4.85 0 0 1 1.653.665c.517.324.941.787 1.27 1.389.33.597.495 1.372.495 2.327V225h-2.489v-1.79h-.102c-.165.33-.412.654-.742.972-.329.318-.753.582-1.27.792-.517.211-1.136.316-1.858.316Zm.554-2.046c.705 0 1.307-.139 1.807-.417.506-.279.889-.642 1.151-1.091.267-.455.4-.941.4-1.458v-1.687c-.091.091-.267.176-.528.256a8.478 8.478 0 0 1-.878.196c-.33.051-.651.099-.963.145-.313.039-.574.073-.784.102a6.26 6.26 0 0 0-1.355.315 2.328 2.328 0 0 0-.972.639c-.239.273-.358.637-.358 1.091 0 .631.233 1.108.699 1.432.466.318 1.06.477 1.781.477Zm14.201 2.012c-1.057 0-2-.27-2.829-.81-.824-.545-1.472-1.321-1.943-2.327-.466-1.011-.699-2.224-.699-3.639 0-1.415.235-2.625.707-3.631.477-1.005 1.131-1.775 1.96-2.309.83-.534 1.77-.801 2.821-.801.813 0 1.466.136 1.961.409.5.267.886.579 1.159.937.278.358.494.674.647.946h.154v-6.486h2.548V225h-2.489v-2.037h-.213a6.788 6.788 0 0 1-.664.955c-.285.358-.677.67-1.177.937s-1.147.401-1.943.401Zm.563-2.174c.733 0 1.352-.193 1.858-.579.511-.392.897-.935 1.159-1.628.267-.693.4-1.5.4-2.42 0-.91-.13-1.705-.392-2.387-.261-.682-.645-1.213-1.15-1.594-.506-.38-1.131-.571-1.875-.571-.767 0-1.406.199-1.918.597-.511.398-.898.94-1.159 1.628-.256.687-.383 1.463-.383 2.327 0 .875.13 1.661.392 2.36.261.699.647 1.253 1.159 1.662.517.404 1.153.605 1.909.605ZM264.21 14v-1.636c0-.483.091-.992.273-1.526a6.687 6.687 0 0 1 .758-1.534 5.36 5.36 0 0 1 1.143-1.253l1.261.904a9.828 9.828 0 0 0-.886 1.585 4.376 4.376 0 0 0-.367 1.798V14h-2.182Zm4.347 0v-1.636c0-.483.091-.992.273-1.526a6.607 6.607 0 0 1 .758-1.534 5.378 5.378 0 0 1 1.142-1.253l1.261.904a9.905 9.905 0 0 0-.886 1.585 4.392 4.392 0 0 0-.366 1.798V14h-2.182Zm5.829 12V8.545h6.392c1.239 0 2.265.205 3.077.614.813.403 1.421.952 1.824 1.645.403.688.605 1.463.605 2.327 0 .727-.133 1.34-.4 1.84a3.307 3.307 0 0 1-1.074 1.194 4.743 4.743 0 0 1-1.466.648v.17c.579.028 1.145.216 1.696.563.557.34 1.017.826 1.38 1.457.364.63.546 1.398.546 2.301 0 .892-.21 1.693-.631 2.403-.415.705-1.057 1.265-1.926 1.68-.869.409-1.98.613-3.332.613h-6.691Zm2.634-2.259h3.801c1.261 0 2.165-.244 2.71-.732.546-.49.818-1.1.818-1.833 0-.551-.139-1.057-.417-1.517a2.987 2.987 0 0 0-1.193-1.1c-.512-.272-1.12-.408-1.824-.408h-3.895v5.59Zm0-7.644h3.528a3.63 3.63 0 0 0 1.594-.341 2.796 2.796 0 0 0 1.134-.955c.284-.415.426-.903.426-1.466 0-.721-.253-1.327-.759-1.815-.505-.489-1.281-.733-2.327-.733h-3.596v5.31Zm15.055-7.552v1.637c0 .483-.091.991-.272 1.525a6.512 6.512 0 0 1-.75 1.526 5.539 5.539 0 0 1-1.142 1.261l-1.262-.903a9.684 9.684 0 0 0 .869-1.56 4.36 4.36 0 0 0 .375-1.824V8.545h2.182Zm4.338 0v1.637c0 .483-.091.991-.272 1.525a6.512 6.512 0 0 1-.75 1.526 5.539 5.539 0 0 1-1.142 1.261l-1.262-.903a9.766 9.766 0 0 0 .87-1.56 4.36 4.36 0 0 0 .375-1.824V8.545h2.181Zm11.636 13.015-.017-3.111h.443l5.216-5.54h3.051l-5.949 6.307h-.4l-2.344 2.344ZM305.705 26V8.545h2.549V26h-2.549Zm8.267 0-4.687-6.222 1.755-1.78L317.1 26h-3.128Zm10.196.264c-1.29 0-2.401-.275-3.333-.826-.926-.557-1.642-1.339-2.147-2.344-.5-1.012-.75-2.196-.75-3.554 0-1.341.25-2.523.75-3.546.505-1.022 1.21-1.82 2.113-2.395.909-.573 1.972-.86 3.188-.86a6.42 6.42 0 0 1 2.147.366 5.196 5.196 0 0 1 1.867 1.15c.551.523.986 1.202 1.304 2.038.318.83.477 1.838.477 3.025v.904h-10.406v-1.91h7.909c0-.67-.136-1.264-.409-1.78a3.091 3.091 0 0 0-1.151-1.236c-.488-.302-1.062-.452-1.721-.452-.716 0-1.341.176-1.875.528a3.545 3.545 0 0 0-1.228 1.364 3.937 3.937 0 0 0-.426 1.815v1.492c0 .875.154 1.619.461 2.233a3.328 3.328 0 0 0 1.303 1.406c.557.318 1.208.477 1.952.477.483 0 .923-.068 1.321-.204a2.842 2.842 0 0 0 1.031-.631c.29-.279.512-.622.665-1.031l2.412.434a4.367 4.367 0 0 1-1.04 1.867c-.494.528-1.116.94-1.866 1.235-.744.29-1.594.435-2.548.435Zm9.679 4.645a5.27 5.27 0 0 1-1.039-.094 3.256 3.256 0 0 1-.699-.187l.613-2.088c.466.125.881.179 1.245.162.363-.017.684-.154.963-.41.284-.255.534-.673.75-1.252l.315-.87-4.79-13.26h2.728l3.315 10.158h.136L340.7 12.91h2.735l-5.395 14.838c-.25.682-.568 1.259-.954 1.73a3.705 3.705 0 0 1-1.381 1.074c-.534.239-1.153.358-1.858.358Zm11.983 0v-18h2.489v2.122h.213a7.19 7.19 0 0 1 .639-.946c.279-.358.665-.67 1.159-.937.495-.273 1.148-.41 1.96-.41 1.057 0 2 .268 2.83.802.83.534 1.48 1.304 1.952 2.31.477 1.005.716 2.215.716 3.63s-.236 2.628-.708 3.64c-.471 1.005-1.119 1.78-1.943 2.326-.824.54-1.764.81-2.821.81-.795 0-1.446-.134-1.952-.4-.5-.268-.892-.58-1.176-.938a7.059 7.059 0 0 1-.656-.955h-.153v6.946h-2.549Zm2.497-11.454c0 .92.134 1.727.401 2.42.267.693.653 1.236 1.159 1.628.506.386 1.125.58 1.858.58.761 0 1.398-.202 1.909-.606.511-.409.898-.963 1.159-1.662.267-.699.401-1.486.401-2.36 0-.864-.131-1.64-.392-2.327-.256-.688-.642-1.23-1.159-1.628-.512-.398-1.151-.597-1.918-.597-.739 0-1.364.19-1.875.571-.506.381-.889.912-1.151 1.594-.261.682-.392 1.477-.392 2.386ZM360.643 26V12.91h2.463v2.079h.136a3.164 3.164 0 0 1 1.262-1.662 3.608 3.608 0 0 1 2.062-.614 10.87 10.87 0 0 1 1.082.06v2.437a4.566 4.566 0 0 0-.545-.094 5.2 5.2 0 0 0-.784-.06c-.602 0-1.139.129-1.611.384a2.851 2.851 0 0 0-1.517 2.566V26h-2.548Zm14.384.264c-1.29 0-2.401-.275-3.332-.826-.927-.557-1.642-1.339-2.148-2.344-.5-1.012-.75-2.196-.75-3.554 0-1.341.25-2.523.75-3.546.506-1.022 1.21-1.82 2.114-2.395.909-.573 1.971-.86 3.187-.86.739 0 1.455.122 2.148.366a5.2 5.2 0 0 1 1.866 1.15c.551.523.986 1.202 1.304 2.038.318.83.477 1.838.477 3.025v.904h-10.406v-1.91h7.909c0-.67-.136-1.264-.409-1.78a3.096 3.096 0 0 0-1.15-1.236c-.489-.302-1.063-.452-1.722-.452-.716 0-1.341.176-1.875.528a3.55 3.55 0 0 0-1.227 1.364 3.937 3.937 0 0 0-.426 1.815v1.492c0 .875.153 1.619.46 2.233a3.324 3.324 0 0 0 1.304 1.406c.557.318 1.207.477 1.952.477.483 0 .923-.068 1.321-.204a2.86 2.86 0 0 0 1.031-.631 2.75 2.75 0 0 0 .665-1.031l2.412.434a4.377 4.377 0 0 1-1.04 1.867c-.495.528-1.117.94-1.867 1.235-.744.29-1.593.435-2.548.435Zm18.254-10.159-2.31.41a2.747 2.747 0 0 0-.46-.845 2.278 2.278 0 0 0-.836-.656c-.352-.17-.792-.255-1.321-.255-.721 0-1.323.162-1.806.485-.483.319-.725.73-.725 1.236 0 .438.162.79.486 1.057.324.267.847.486 1.568.656l2.08.477c1.204.279 2.102.708 2.693 1.287.591.58.886 1.333.886 2.259 0 .784-.227 1.483-.682 2.096-.448.608-1.076 1.086-1.883 1.432-.801.347-1.73.52-2.787.52-1.466 0-2.662-.312-3.588-.937-.926-.631-1.494-1.526-1.705-2.685l2.463-.375c.154.642.469 1.128.946 1.457.478.324 1.1.486 1.867.486.835 0 1.503-.173 2.003-.52.5-.352.75-.78.75-1.287 0-.409-.154-.752-.46-1.03-.302-.28-.765-.49-1.39-.632l-2.216-.485c-1.221-.279-2.125-.722-2.71-1.33-.579-.608-.869-1.378-.869-2.31 0-.772.216-1.448.648-2.028.431-.58 1.028-1.031 1.789-1.355.762-.33 1.634-.494 2.617-.494 1.415 0 2.528.306 3.341.92.812.608 1.349 1.423 1.611 2.446Zm12.867 0-2.31.41a2.747 2.747 0 0 0-.46-.845 2.282 2.282 0 0 0-.835-.656c-.353-.17-.793-.255-1.321-.255-.722 0-1.324.162-1.807.485-.483.319-.725.73-.725 1.236 0 .438.162.79.486 1.057.324.267.847.486 1.568.656l2.08.477c1.204.279 2.102.708 2.693 1.287.591.58.886 1.333.886 2.259 0 .784-.227 1.483-.681 2.096-.449.608-1.077 1.086-1.884 1.432-.801.347-1.73.52-2.787.52-1.466 0-2.662-.312-3.588-.937-.926-.631-1.494-1.526-1.704-2.685l2.463-.375c.153.642.468 1.128.946 1.457.477.324 1.099.486 1.866.486.835 0 1.503-.173 2.003-.52.5-.352.75-.78.75-1.287 0-.409-.153-.752-.46-1.03-.301-.28-.765-.49-1.389-.632l-2.216-.485c-1.222-.279-2.125-.722-2.711-1.33-.579-.608-.869-1.378-.869-2.31 0-.772.216-1.448.648-2.028.432-.58 1.028-1.031 1.79-1.355.761-.33 1.633-.494 2.616-.494 1.415 0 2.528.306 3.341.92.812.608 1.349 1.423 1.611 2.446Z"/><path stroke="#F4F4F5" stroke-linecap="round" stroke-width="4" d="M335 447v24"/><path fill="#F4F4F5" d="M335 457a2 2 0 1 0 0 4v-4Zm0 4h69v-4h-69v4Zm88.689-12.818V470h-3.292v-21.818h3.292Zm7.724 12.102V470h-3.186v-16.364h3.058v2.664h.202a4.674 4.674 0 0 1 1.769-2.088c.809-.526 1.829-.789 3.057-.789 1.115 0 2.092.235 2.93.703.838.462 1.488 1.151 1.949 2.067.462.916.693 2.049.693 3.399V470H438.7v-10.025c0-1.186-.309-2.113-.927-2.78-.618-.675-1.467-1.012-2.546-1.012-.739 0-1.396.159-1.971.479-.568.32-1.019.788-1.353 1.406-.327.611-.49 1.35-.49 2.216Zm14.744 15.852v-22.5h3.111v2.653h.266a8.9 8.9 0 0 1 .799-1.182c.348-.448.831-.839 1.449-1.172.618-.341 1.435-.512 2.45-.512 1.321 0 2.5.334 3.537 1.002 1.037.667 1.85 1.63 2.44 2.887.596 1.257.895 2.77.895 4.538 0 1.769-.295 3.285-.885 4.549-.589 1.257-1.399 2.227-2.429 2.909-1.029.674-2.205 1.012-3.526 1.012-.994 0-1.807-.167-2.439-.501-.625-.334-1.115-.725-1.471-1.172a8.87 8.87 0 0 1-.82-1.193h-.192v8.682h-3.185Zm3.121-14.318c0 1.151.167 2.159.501 3.026.334.866.817 1.544 1.449 2.035.632.483 1.406.724 2.322.724.952 0 1.748-.252 2.387-.756.639-.512 1.122-1.204 1.449-2.078.333-.873.5-1.857.5-2.951 0-1.079-.163-2.049-.49-2.908-.319-.86-.802-1.538-1.449-2.035-.639-.497-1.438-.746-2.397-.746-.923 0-1.704.238-2.343.714-.632.476-1.112 1.14-1.439 1.992-.326.852-.49 1.847-.49 2.983Zm25.76 1.396v-9.578h3.196V470h-3.132v-2.834h-.17c-.377.874-.98 1.602-1.811 2.184-.824.575-1.85.863-3.079.863-1.051 0-1.982-.231-2.791-.692-.803-.469-1.435-1.162-1.897-2.078-.454-.916-.681-2.049-.681-3.398v-10.409h3.185v10.025c0 1.115.309 2.003.927 2.664.618.66 1.42.99 2.407.99.597 0 1.19-.149 1.78-.447a3.74 3.74 0 0 0 1.48-1.353c.398-.604.593-1.371.586-2.301Zm15.115-9.578v2.557h-8.938v-2.557h8.938Zm-6.541-3.92h3.185v15.479c0 .618.092 1.083.277 1.396.185.305.423.515.714.628.298.107.621.16.969.16.256 0 .48-.017.671-.053l.448-.085.575 2.631a5.324 5.324 0 0 1-.788.213 6.241 6.241 0 0 1-1.279.128 5.615 5.615 0 0 1-2.343-.447 4.022 4.022 0 0 1-1.758-1.449c-.448-.654-.671-1.474-.671-2.461v-16.14Zm24.13 20.604c-1.321 0-2.5-.338-3.537-1.012-1.03-.682-1.84-1.652-2.429-2.909-.583-1.264-.874-2.78-.874-4.549 0-1.768.295-3.281.884-4.538.597-1.257 1.414-2.22 2.451-2.887 1.037-.668 2.212-1.002 3.526-1.002 1.016 0 1.832.171 2.45.512.625.333 1.108.724 1.449 1.172.348.447.618.841.81 1.182h.192v-8.107h3.185V470h-3.111v-2.546h-.266a8.442 8.442 0 0 1-.831 1.193c-.355.447-.845.838-1.47 1.172-.625.334-1.435.501-2.429.501Zm.703-2.717c.916 0 1.69-.241 2.322-.724.639-.491 1.122-1.169 1.449-2.035.334-.867.501-1.875.501-3.026 0-1.136-.164-2.131-.49-2.983-.327-.852-.806-1.516-1.438-1.992-.633-.476-1.414-.714-2.344-.714-.959 0-1.758.249-2.397.746-.639.497-1.122 1.175-1.449 2.035-.32.859-.48 1.829-.48 2.908 0 1.094.164 2.078.491 2.951.326.874.809 1.566 1.448 2.078.647.504 1.442.756 2.387.756Zm19.003 2.727c-1.612 0-3.001-.344-4.166-1.033-1.157-.696-2.052-1.673-2.684-2.93-.625-1.264-.938-2.745-.938-4.442 0-1.676.313-3.154.938-4.432.632-1.279 1.512-2.276 2.642-2.994 1.136-.717 2.464-1.076 3.984-1.076.923 0 1.818.153 2.685.458a6.51 6.51 0 0 1 2.333 1.439c.689.653 1.232 1.502 1.63 2.546.398 1.037.596 2.297.596 3.782v1.129h-13.007v-2.386h9.886c0-.838-.171-1.581-.511-2.227a3.875 3.875 0 0 0-1.439-1.545c-.61-.376-1.328-.564-2.152-.564-.895 0-1.676.22-2.343.66a4.428 4.428 0 0 0-1.534 1.705 4.908 4.908 0 0 0-.533 2.269v1.864c0 1.094.192 2.024.575 2.791.391.768.934 1.353 1.63 1.758.696.398 1.509.597 2.44.597.603 0 1.154-.085 1.651-.256.497-.177.927-.44 1.289-.788.362-.348.639-.778.831-1.289l3.015.543a5.45 5.45 0 0 1-1.3 2.333c-.618.661-1.395 1.176-2.333 1.545-.93.362-1.992.543-3.185.543Zm13.74-22.148V470h-3.185v-21.818h3.185Zm9.047 22.18c-1.036 0-1.974-.192-2.812-.575a4.738 4.738 0 0 1-1.992-1.694c-.483-.739-.725-1.644-.725-2.717 0-.923.178-1.683.533-2.279a3.932 3.932 0 0 1 1.438-1.417 7.54 7.54 0 0 1 2.024-.789 20.192 20.192 0 0 1 2.28-.404l2.387-.277c.61-.079 1.054-.203 1.331-.373.277-.171.416-.448.416-.831v-.075c0-.93-.263-1.651-.789-2.163-.518-.511-1.292-.767-2.322-.767-1.073 0-1.918.238-2.536.714-.61.469-1.033.991-1.267 1.566l-2.994-.682c.355-.994.874-1.796 1.555-2.407a6.31 6.31 0 0 1 2.376-1.343 9.278 9.278 0 0 1 2.823-.426c.654 0 1.346.078 2.078.235a6.074 6.074 0 0 1 2.066.831c.647.404 1.176.983 1.588 1.736.412.746.618 1.715.618 2.909V470H555.2v-2.237h-.128c-.206.412-.515.817-.927 1.214-.412.398-.941.728-1.587.991s-1.421.394-2.323.394Zm.693-2.557c.881 0 1.633-.174 2.258-.522.633-.348 1.112-.802 1.439-1.363.333-.568.5-1.176.5-1.822v-2.109c-.113.113-.333.22-.66.319-.32.093-.686.174-1.097.245-.412.064-.814.125-1.204.181-.391.05-.718.093-.98.128a7.924 7.924 0 0 0-1.694.394c-.505.185-.909.451-1.215.799-.298.341-.447.796-.447 1.364 0 .788.291 1.385.873 1.79.583.398 1.325.596 2.227.596Zm13.053 8.331a6.66 6.66 0 0 1-1.3-.117c-.39-.071-.682-.149-.873-.234l.767-2.61c.582.156 1.101.223 1.555.202a1.863 1.863 0 0 0 1.204-.511c.355-.32.668-.842.937-1.566l.395-1.087-5.988-16.577h3.41l4.144 12.699h.17l4.144-12.699h3.42l-6.744 18.548c-.312.852-.71 1.573-1.193 2.163a4.633 4.633 0 0 1-1.726 1.342c-.667.298-1.441.447-2.322.447Z"/><path stroke="#F4F4F5" stroke-linecap="round" stroke-width="4" d="M660 471v-24"/><path fill="#F4F4F5" d="M660 461a2 2 0 1 0 0-4v4Zm0-4h-69v4h69v-4Z"/><rect width="315" height="81" x="660.5" y="303.5" fill="#2A261D" rx="7.5"/><path fill="#FEF3C7" d="M755.21 341v-1.636c0-.483.091-.992.273-1.526a6.695 6.695 0 0 1 .758-1.534 5.362 5.362 0 0 1 1.143-1.253l1.261.904a9.803 9.803 0 0 0-.886 1.585 4.374 4.374 0 0 0-.367 1.798V341h-2.182Zm4.347 0v-1.636c0-.483.091-.992.273-1.526a6.615 6.615 0 0 1 .758-1.534 5.38 5.38 0 0 1 1.142-1.253l1.261.904a9.88 9.88 0 0 0-.886 1.585 4.39 4.39 0 0 0-.366 1.798V341h-2.182Zm5.829 12v-17.455h6.392c1.239 0 2.265.205 3.077.614.813.403 1.421.952 1.824 1.645.403.687.605 1.463.605 2.327 0 .727-.133 1.341-.4 1.841a3.307 3.307 0 0 1-1.074 1.193 4.742 4.742 0 0 1-1.466.647v.171c.579.028 1.145.216 1.696.562.557.341 1.017.827 1.38 1.458.364.631.546 1.398.546 2.301 0 .892-.21 1.693-.631 2.403-.415.705-1.057 1.265-1.926 1.679-.869.409-1.98.614-3.332.614h-6.691Zm2.634-2.259h3.801c1.261 0 2.165-.244 2.71-.732.546-.489.818-1.1.818-1.833 0-.551-.139-1.057-.417-1.517a2.983 2.983 0 0 0-1.193-1.099c-.512-.273-1.12-.409-1.824-.409h-3.895v5.59Zm0-7.644h3.528a3.63 3.63 0 0 0 1.594-.341 2.804 2.804 0 0 0 1.134-.955c.284-.415.426-.903.426-1.466 0-.721-.253-1.326-.759-1.815-.505-.489-1.281-.733-2.327-.733h-3.596v5.31Zm15.055-7.552v1.637c0 .483-.091.991-.272 1.525a6.509 6.509 0 0 1-.75 1.526 5.523 5.523 0 0 1-1.142 1.261l-1.262-.903a9.712 9.712 0 0 0 .869-1.56c.25-.551.375-1.159.375-1.824v-1.662h2.182Zm4.338 0v1.637c0 .483-.091.991-.272 1.525a6.509 6.509 0 0 1-.75 1.526 5.523 5.523 0 0 1-1.142 1.261l-1.262-.903a9.795 9.795 0 0 0 .87-1.56c.25-.551.375-1.159.375-1.824v-1.662h2.181Zm11.841 9.682V353h-2.549v-17.455h2.514v6.495h.162a3.762 3.762 0 0 1 1.407-1.679c.63-.415 1.454-.622 2.471-.622.898 0 1.682.184 2.353.554.676.369 1.198.92 1.568 1.653.375.727.562 1.636.562 2.727V353h-2.548v-8.02c0-.96-.247-1.704-.742-2.233-.494-.534-1.181-.801-2.062-.801a3.37 3.37 0 0 0-1.619.384c-.472.255-.844.63-1.117 1.125-.267.488-.4 1.079-.4 1.772Zm15.698 8.063c-.829 0-1.579-.154-2.25-.46a3.796 3.796 0 0 1-1.593-1.356c-.387-.59-.58-1.315-.58-2.173 0-.739.142-1.346.426-1.824a3.142 3.142 0 0 1 1.151-1.133 5.995 5.995 0 0 1 1.619-.631c.597-.142 1.205-.25 1.824-.324l1.909-.221c.489-.063.844-.162 1.065-.299.222-.136.333-.358.333-.664v-.06c0-.744-.21-1.321-.631-1.73-.415-.409-1.034-.614-1.858-.614-.858 0-1.534.19-2.028.571-.489.375-.827.793-1.014 1.253l-2.395-.545c.284-.796.699-1.438 1.244-1.927a5.041 5.041 0 0 1 1.901-1.073 7.389 7.389 0 0 1 2.258-.341c.523 0 1.077.062 1.662.187a4.85 4.85 0 0 1 1.653.665c.517.324.941.787 1.27 1.389.33.597.495 1.372.495 2.327V353h-2.489v-1.79h-.102c-.165.33-.412.654-.742.972-.329.318-.753.582-1.27.792-.517.211-1.136.316-1.858.316Zm.554-2.046c.705 0 1.307-.139 1.807-.417.506-.279.889-.642 1.151-1.091.267-.455.4-.941.4-1.458v-1.687c-.091.091-.267.176-.528.256a8.478 8.478 0 0 1-.878.196c-.329.051-.65.099-.963.145a63.64 63.64 0 0 0-.784.102 6.274 6.274 0 0 0-1.355.315 2.335 2.335 0 0 0-.972.639c-.238.273-.358.637-.358 1.091 0 .631.233 1.108.699 1.432.466.318 1.06.477 1.781.477Zm11.849-6.017V353h-2.548v-13.091h2.446v2.131h.162a3.747 3.747 0 0 1 1.415-1.671c.647-.42 1.463-.63 2.446-.63.892 0 1.673.187 2.343.562.671.369 1.191.921 1.56 1.654.369.732.554 1.639.554 2.718V353h-2.548v-8.02c0-.949-.247-1.69-.742-2.224-.494-.54-1.173-.81-2.037-.81-.591 0-1.116.128-1.576.384-.455.255-.816.63-1.083 1.125-.261.488-.392 1.079-.392 1.772Zm16.696 8.029c-1.057 0-2-.27-2.829-.81-.824-.545-1.472-1.321-1.944-2.327-.465-1.011-.698-2.224-.698-3.639 0-1.415.235-2.625.707-3.631.477-1.005 1.131-1.775 1.96-2.309.83-.534 1.77-.801 2.821-.801.813 0 1.466.136 1.96.409.5.267.887.579 1.16.937.278.358.494.674.647.946h.154v-6.486h2.548V353h-2.489v-2.037h-.213a6.721 6.721 0 0 1-.665.955c-.284.358-.676.67-1.176.937-.5.267-1.147.401-1.943.401Zm.563-2.174c.733 0 1.352-.193 1.858-.579.511-.392.897-.935 1.159-1.628.267-.693.4-1.5.4-2.42 0-.91-.13-1.705-.392-2.387-.261-.682-.645-1.213-1.15-1.594-.506-.38-1.131-.571-1.875-.571-.767 0-1.407.199-1.918.597-.511.398-.898.94-1.159 1.628-.256.687-.384 1.463-.384 2.327 0 .875.131 1.661.392 2.36.262.699.648 1.253 1.16 1.662.517.404 1.153.605 1.909.605Zm12.108-15.537V353h-2.548v-17.455h2.548Zm9.071 17.719c-1.29 0-2.401-.275-3.333-.826-.926-.557-1.642-1.339-2.148-2.344-.5-1.012-.75-2.196-.75-3.554 0-1.341.25-2.523.75-3.546.506-1.022 1.211-1.821 2.114-2.395.909-.573 1.972-.86 3.188-.86a6.42 6.42 0 0 1 2.147.366 5.189 5.189 0 0 1 1.867 1.151c.551.522.986 1.201 1.304 2.037.318.829.477 1.838.477 3.025v.904h-10.406v-1.91h7.909c0-.67-.136-1.264-.409-1.781a3.102 3.102 0 0 0-1.151-1.236c-.488-.301-1.062-.451-1.721-.451-.716 0-1.341.176-1.875.528a3.546 3.546 0 0 0-1.228 1.364 3.938 3.938 0 0 0-.426 1.815v1.492c0 .875.154 1.619.46 2.233a3.34 3.34 0 0 0 1.304 1.406c.557.318 1.208.477 1.952.477.483 0 .923-.068 1.321-.204a2.863 2.863 0 0 0 1.031-.631c.29-.279.512-.622.665-1.031l2.412.434a4.369 4.369 0 0 1-1.04 1.867c-.494.528-1.116.94-1.866 1.236-.744.289-1.594.434-2.548.434Zm8.444-.264v-13.091h2.463v2.08h.136a3.164 3.164 0 0 1 1.261-1.662 3.612 3.612 0 0 1 2.063-.614 11.301 11.301 0 0 1 1.082.06v2.437a4.838 4.838 0 0 0-.545-.094 5.316 5.316 0 0 0-.784-.059c-.603 0-1.14.128-1.611.383a2.851 2.851 0 0 0-1.517 2.566V353h-2.548Z"/><rect width="315" height="81" x="660.5" y="303.5" stroke="#DCB750" rx="7.5"/><path fill="#D4D4D8" d="M129.21 684v-1.636c0-.483.091-.992.273-1.526a6.695 6.695 0 0 1 .758-1.534 5.362 5.362 0 0 1 1.143-1.253l1.261.904a9.803 9.803 0 0 0-.886 1.585 4.374 4.374 0 0 0-.367 1.798V684h-2.182Zm4.347 0v-1.636c0-.483.091-.992.273-1.526a6.615 6.615 0 0 1 .758-1.534 5.38 5.38 0 0 1 1.142-1.253l1.261.904a9.88 9.88 0 0 0-.886 1.585 4.39 4.39 0 0 0-.366 1.798V684h-2.182Zm4.983 12h-2.795l6.281-17.455h3.043L151.35 696h-2.795l-4.935-14.284h-.136L138.54 696Zm.469-6.835h9.068v2.216h-9.068v-2.216Zm14.387-10.62v1.637c0 .483-.091.991-.273 1.525a6.432 6.432 0 0 1-.75 1.526 5.523 5.523 0 0 1-1.142 1.261l-1.262-.903a9.717 9.717 0 0 0 .87-1.56c.25-.551.375-1.159.375-1.824v-1.662h2.182Zm4.338 0v1.637c0 .483-.091.991-.273 1.525a6.432 6.432 0 0 1-.75 1.526 5.523 5.523 0 0 1-1.142 1.261l-1.261-.903a9.712 9.712 0 0 0 .869-1.56c.25-.551.375-1.159.375-1.824v-1.662h2.182Zm11.635 13.015-.017-3.111h.443l5.216-5.54h3.051l-5.948 6.307h-.401l-2.344 2.344Zm-2.343 4.44v-17.455h2.548V696h-2.548Zm8.267 0-4.688-6.222 1.756-1.781L178.42 696h-3.127Zm10.195.264c-1.29 0-2.401-.275-3.332-.826-.927-.557-1.643-1.339-2.148-2.344-.5-1.012-.75-2.196-.75-3.554 0-1.341.25-2.523.75-3.546.505-1.022 1.21-1.821 2.113-2.395.91-.573 1.972-.86 3.188-.86.739 0 1.454.122 2.148.366a5.193 5.193 0 0 1 1.866 1.151c.551.522.986 1.201 1.304 2.037.318.829.477 1.838.477 3.025v.904h-10.406v-1.91h7.909c0-.67-.136-1.264-.409-1.781a3.107 3.107 0 0 0-1.15-1.236c-.489-.301-1.063-.451-1.722-.451-.716 0-1.341.176-1.875.528a3.543 3.543 0 0 0-1.227 1.364 3.938 3.938 0 0 0-.426 1.815v1.492c0 .875.153 1.619.46 2.233a3.328 3.328 0 0 0 1.304 1.406c.557.318 1.207.477 1.951.477a4.07 4.07 0 0 0 1.322-.204 2.88 2.88 0 0 0 1.031-.631 2.75 2.75 0 0 0 .665-1.031l2.411.434a4.367 4.367 0 0 1-1.039 1.867c-.495.528-1.117.94-1.867 1.236-.744.289-1.594.434-2.548.434Zm9.68 4.645c-.381 0-.728-.031-1.04-.094a3.226 3.226 0 0 1-.699-.187l.614-2.088c.466.125.88.179 1.244.162.364-.017.685-.154.963-.409.284-.256.534-.674.75-1.253l.315-.87-4.789-13.261h2.727l3.315 10.159h.137l3.315-10.159h2.736l-5.395 14.838c-.25.682-.568 1.259-.955 1.73a3.688 3.688 0 0 1-1.38 1.074c-.535.239-1.154.358-1.858.358Zm11.983 0v-18h2.488v2.122h.213c.148-.272.361-.588.639-.946.279-.358.665-.67 1.16-.937.494-.273 1.147-.409 1.96-.409 1.057 0 2 .267 2.829.801.83.534 1.48 1.304 1.952 2.309.477 1.006.716 2.216.716 3.631 0 1.415-.236 2.628-.707 3.639-.472 1.006-1.12 1.782-1.944 2.327-.823.54-1.764.81-2.821.81-.795 0-1.446-.134-1.951-.401-.5-.267-.892-.579-1.176-.937a7.11 7.11 0 0 1-.657-.955h-.153v6.946h-2.548Zm2.497-11.454c0 .92.133 1.727.4 2.42.267.693.654 1.236 1.159 1.628.506.386 1.125.579 1.858.579.762 0 1.398-.201 1.909-.605.512-.409.898-.963 1.16-1.662.267-.699.4-1.485.4-2.36 0-.864-.131-1.64-.392-2.327-.256-.688-.642-1.23-1.159-1.628-.511-.398-1.151-.597-1.918-.597-.738 0-1.363.191-1.875.571-.505.381-.889.912-1.15 1.594-.262.682-.392 1.477-.392 2.387ZM221.963 696v-13.091h2.463v2.08h.136a3.166 3.166 0 0 1 1.262-1.662 3.61 3.61 0 0 1 2.062-.614 11.338 11.338 0 0 1 1.083.06v2.437a4.867 4.867 0 0 0-.546-.094 5.295 5.295 0 0 0-.784-.059c-.602 0-1.139.128-1.611.383-.465.25-.835.6-1.108 1.049a2.84 2.84 0 0 0-.409 1.517V696h-2.548Zm14.384.264c-1.289 0-2.4-.275-3.332-.826-.926-.557-1.642-1.339-2.148-2.344-.5-1.012-.75-2.196-.75-3.554 0-1.341.25-2.523.75-3.546.506-1.022 1.21-1.821 2.114-2.395.909-.573 1.971-.86 3.187-.86.739 0 1.455.122 2.148.366a5.206 5.206 0 0 1 1.867 1.151c.551.522.985 1.201 1.304 2.037.318.829.477 1.838.477 3.025v.904h-10.406v-1.91h7.909c0-.67-.137-1.264-.409-1.781a3.11 3.11 0 0 0-1.151-1.236c-.489-.301-1.063-.451-1.722-.451-.716 0-1.341.176-1.875.528a3.551 3.551 0 0 0-1.227 1.364 3.938 3.938 0 0 0-.426 1.815v1.492c0 .875.153 1.619.46 2.233.313.613.747 1.082 1.304 1.406.557.318 1.208.477 1.952.477.483 0 .923-.068 1.321-.204a2.871 2.871 0 0 0 1.031-.631c.29-.279.512-.622.665-1.031l2.412.434a4.369 4.369 0 0 1-1.04 1.867c-.494.528-1.116.94-1.866 1.236-.745.289-1.594.434-2.549.434Zm18.254-10.159-2.31.409a2.733 2.733 0 0 0-.46-.844 2.288 2.288 0 0 0-.835-.656c-.353-.17-.793-.255-1.321-.255-.722 0-1.324.161-1.807.485-.483.318-.725.73-.725 1.236 0 .438.162.79.486 1.057.324.267.847.486 1.568.656l2.08.477c1.205.279 2.102.708 2.693 1.287.591.58.887 1.333.887 2.259 0 .784-.228 1.483-.682 2.096-.449.608-1.077 1.086-1.884 1.432-.801.347-1.73.52-2.787.52-1.466 0-2.662-.312-3.588-.937-.926-.631-1.494-1.526-1.704-2.685l2.463-.375c.153.642.468 1.128.946 1.457.477.324 1.099.486 1.866.486.835 0 1.503-.173 2.003-.52.5-.352.75-.781.75-1.287 0-.409-.153-.752-.46-1.031-.301-.278-.764-.488-1.389-.631l-2.216-.485c-1.222-.279-2.125-.722-2.711-1.33-.579-.608-.869-1.378-.869-2.31 0-.772.216-1.448.648-2.028.432-.579 1.028-1.031 1.79-1.355.761-.33 1.633-.494 2.616-.494 1.415 0 2.529.306 3.341.92.813.608 1.349 1.423 1.611 2.446Zm12.867 0-2.31.409a2.733 2.733 0 0 0-.46-.844 2.28 2.28 0 0 0-.835-.656c-.352-.17-.793-.255-1.321-.255-.722 0-1.324.161-1.807.485-.483.318-.724.73-.724 1.236 0 .438.162.79.485 1.057.324.267.847.486 1.569.656l2.079.477c1.205.279 2.102.708 2.693 1.287.591.58.887 1.333.887 2.259 0 .784-.228 1.483-.682 2.096-.449.608-1.077 1.086-1.884 1.432-.801.347-1.73.52-2.787.52-1.465 0-2.661-.312-3.588-.937-.926-.631-1.494-1.526-1.704-2.685l2.463-.375c.153.642.469 1.128.946 1.457.477.324 1.099.486 1.866.486.836 0 1.503-.173 2.003-.52.5-.352.75-.781.75-1.287 0-.409-.153-.752-.46-1.031-.301-.278-.764-.488-1.389-.631l-2.216-.485c-1.222-.279-2.125-.722-2.71-1.33-.58-.608-.87-1.378-.87-2.31 0-.772.216-1.448.648-2.028.432-.579 1.028-1.031 1.79-1.355.761-.33 1.633-.494 2.616-.494 1.415 0 2.529.306 3.341.92.813.608 1.35 1.423 1.611 2.446Z"/><defs><filter id="a" width="185" height="185" x="244" y="0" color-interpolation-filters="sRGB" filterUnits="userSpaceOnUse"><feFlood flood-opacity="0" result="BackgroundImageFix"/><feBlend in="SourceGraphic" in2="BackgroundImageFix" result="shape"/><feGaussianBlur result="effect1_foregroundBlur_443_2736" stdDeviation="32.5"/></filter><filter id="b" width="185" height="185" x="107" y="526" color-interpolation-filters="sRGB" filterUnits="userSpaceOnUse"><feFlood flood-opacity="0" result="BackgroundImageFix"/><feBlend in="SourceGraphic" in2="BackgroundImageFix" result="shape"/><feGaussianBlur result="effect1_foregroundBlur_443_2736" stdDeviation="32.5"/></filter></defs></svg>