<svg xmlns="http://www.w3.org/2000/svg" width="1706" height="692" fill="none" viewBox="0 0 1706 692"><rect width="1704" height="374" x="1" y="167" stroke="#38383E" stroke-width="2" rx="7"/><path fill="#D4D4D8" d="M1685.71 344.707a1 1 0 0 0 0-1.414l-6.37-6.364a.996.996 0 0 0-1.41 0 1 1 0 0 0 0 1.414l5.66 5.657-5.66 5.657a1 1 0 0 0 0 1.414.994.994 0 0 0 1.41 0l6.37-6.364ZM22 345h4.519v-2H22v2Zm13.557 0h9.038v-2h-9.038v2Zm18.076 0h9.038v-2h-9.038v2Zm18.076 0h9.038v-2H71.71v2Zm18.076 0h9.038v-2h-9.038v2Zm18.076 0h9.038v-2h-9.038v2Zm18.076 0h9.039v-2h-9.039v2Zm18.077 0h9.038v-2h-9.038v2Zm18.076 0h9.038v-2h-9.038v2Zm18.076 0h9.038v-2h-9.038v2Zm18.076 0h9.038v-2h-9.038v2Zm18.076 0h9.038v-2h-9.038v2Zm18.076 0h9.038v-2h-9.038v2Zm18.076 0h9.038v-2h-9.038v2Zm18.076 0h9.038v-2h-9.038v2Zm18.076 0h9.038v-2h-9.038v2Zm18.076 0h9.038v-2h-9.038v2Zm18.076 0h9.039v-2h-9.039v2Zm18.077 0h9.038v-2h-9.038v2Zm18.076 0h9.038v-2h-9.038v2Zm18.076 0h9.038v-2h-9.038v2Zm18.076 0h9.038v-2h-9.038v2Zm18.076 0h9.038v-2h-9.038v2Zm18.076 0h9.038v-2h-9.038v2Zm18.076 0h9.038v-2h-9.038v2Zm18.076 0h9.038v-2h-9.038v2Zm18.076 0h9.039v-2h-9.039v2Zm18.077 0h9.038v-2h-9.038v2Zm18.076 0h9.038v-2h-9.038v2Zm18.076 0h9.038v-2h-9.038v2Zm18.076 0h9.038v-2h-9.038v2Zm18.076 0h9.038v-2h-9.038v2Zm18.076 0h9.038v-2h-9.038v2Zm18.076 0h9.038v-2h-9.038v2Zm18.076 0h9.038v-2h-9.038v2Zm18.076 0h9.038v-2h-9.038v2Zm18.076 0h9.038v-2h-9.038v2Zm18.076 0h9.038v-2h-9.038v2Zm18.076 0h9.038v-2h-9.038v2Zm18.076 0h9.038v-2h-9.038v2Zm18.076 0h9.038v-2h-9.038v2Zm18.076 0h9.038v-2H758.6v2Zm18.076 0h9.038v-2h-9.038v2Zm18.076 0h9.038v-2h-9.038v2Zm18.076 0h9.039v-2h-9.039v2Zm18.077 0h9.038v-2h-9.038v2Zm18.076 0h9.038v-2h-9.038v2Zm18.076 0h9.038v-2h-9.038v2Zm18.076 0h9.038v-2h-9.038v2Zm18.076 0h9.038v-2h-9.038v2Zm18.076 0h9.038v-2h-9.038v2Zm18.076 0h9.038v-2h-9.038v2Zm18.076 0h9.038v-2h-9.038v2Zm18.076 0h9.038v-2h-9.038v2Zm18.076 0h9.041v-2h-9.041v2Zm18.081 0h9.03v-2h-9.03v2Zm18.07 0h9.04v-2h-9.04v2Zm18.08 0h9.04v-2h-9.04v2Zm18.07 0h9.04v-2h-9.04v2Zm18.08 0h9.04v-2h-9.04v2Zm18.08 0h9.03v-2h-9.03v2Zm18.07 0h9.04v-2h-9.04v2Zm18.08 0h9.04v-2h-9.04v2Zm18.07 0h9.04v-2h-9.04v2Zm18.08 0h9.04v-2h-9.04v2Zm18.08 0h9.03v-2h-9.03v2Zm18.07 0h9.04v-2h-9.04v2Zm18.08 0h9.04v-2h-9.04v2Zm18.08 0h9.03v-2h-9.03v2Zm18.07 0h9.04v-2h-9.04v2Zm18.08 0h9.04v-2h-9.04v2Zm18.07 0h9.04v-2h-9.04v2Zm18.08 0h9.04v-2h-9.04v2Zm18.08 0h9.03v-2h-9.03v2Zm18.07 0h9.04v-2h-9.04v2Zm18.08 0h9.04v-2h-9.04v2Zm18.07 0h9.04v-2h-9.04v2Zm18.08 0h9.04v-2h-9.04v2Zm18.08 0h9.03v-2h-9.03v2Zm18.07 0h9.04v-2h-9.04v2Zm18.08 0h9.04v-2h-9.04v2Zm18.08 0h9.03v-2h-9.03v2Zm18.07 0h9.04v-2h-9.04v2Zm18.08 0h9.04v-2h-9.04v2Zm18.07 0h9.04v-2h-9.04v2Zm18.08 0h9.04v-2h-9.04v2Zm18.08 0h9.03v-2h-9.03v2Zm18.07 0h9.04v-2h-9.04v2Zm18.08 0h9.04v-2h-9.04v2Zm18.07 0h9.04v-2h-9.04v2Zm18.08 0h9.04v-2h-9.04v2Zm18.08 0h9.04v-2h-9.04v2Zm18.07 0h4.52v-2h-4.52v2Zm5.93.414c.79-.781.79-2.047 0-2.828l-12.72-12.728a2.001 2.001 0 0 0-2.83 2.828L1682.17 344l-11.31 11.314a2.001 2.001 0 0 0 2.83 2.828l12.72-12.728ZM22 346h4.519v-4H22v4Zm13.557 0h9.038v-4h-9.038v4Zm18.076 0h9.038v-4h-9.038v4Zm18.076 0h9.038v-4H71.71v4Zm18.076 0h9.038v-4h-9.038v4Zm18.076 0h9.038v-4h-9.038v4Zm18.076 0h9.039v-4h-9.039v4Zm18.077 0h9.038v-4h-9.038v4Zm18.076 0h9.038v-4h-9.038v4Zm18.076 0h9.038v-4h-9.038v4Zm18.076 0h9.038v-4h-9.038v4Zm18.076 0h9.038v-4h-9.038v4Zm18.076 0h9.038v-4h-9.038v4Zm18.076 0h9.038v-4h-9.038v4Zm18.076 0h9.038v-4h-9.038v4Zm18.076 0h9.038v-4h-9.038v4Zm18.076 0h9.038v-4h-9.038v4Zm18.076 0h9.039v-4h-9.039v4Zm18.077 0h9.038v-4h-9.038v4Zm18.076 0h9.038v-4h-9.038v4Zm18.076 0h9.038v-4h-9.038v4Zm18.076 0h9.038v-4h-9.038v4Zm18.076 0h9.038v-4h-9.038v4Zm18.076 0h9.038v-4h-9.038v4Zm18.076 0h9.038v-4h-9.038v4Zm18.076 0h9.038v-4h-9.038v4Zm18.076 0h9.039v-4h-9.039v4Zm18.077 0h9.038v-4h-9.038v4Zm18.076 0h9.038v-4h-9.038v4Zm18.076 0h9.038v-4h-9.038v4Zm18.076 0h9.038v-4h-9.038v4Zm18.076 0h9.038v-4h-9.038v4Zm18.076 0h9.038v-4h-9.038v4Zm18.076 0h9.038v-4h-9.038v4Zm18.076 0h9.038v-4h-9.038v4Zm18.076 0h9.038v-4h-9.038v4Zm18.076 0h9.038v-4h-9.038v4Zm18.076 0h9.038v-4h-9.038v4Zm18.076 0h9.038v-4h-9.038v4Zm18.076 0h9.038v-4h-9.038v4Zm18.076 0h9.038v-4h-9.038v4Zm18.076 0h9.038v-4H758.6v4Zm18.076 0h9.038v-4h-9.038v4Zm18.076 0h9.038v-4h-9.038v4Zm18.076 0h9.039v-4h-9.039v4Zm18.077 0h9.038v-4h-9.038v4Zm18.076 0h9.038v-4h-9.038v4Zm18.076 0h9.038v-4h-9.038v4Zm18.076 0h9.038v-4h-9.038v4Zm18.076 0h9.038v-4h-9.038v4Zm18.076 0h9.038v-4h-9.038v4Zm18.076 0h9.038v-4h-9.038v4Zm18.076 0h9.038v-4h-9.038v4Zm18.076 0h9.038v-4h-9.038v4Zm18.076 0h9.041v-4h-9.041v4Zm18.081 0h9.03v-4h-9.03v4Zm18.07 0h9.04v-4h-9.04v4Zm18.08 0h9.04v-4h-9.04v4Zm18.07 0h9.04v-4h-9.04v4Zm18.08 0h9.04v-4h-9.04v4Zm18.08 0h9.03v-4h-9.03v4Zm18.07 0h9.04v-4h-9.04v4Zm18.08 0h9.04v-4h-9.04v4Zm18.07 0h9.04v-4h-9.04v4Zm18.08 0h9.04v-4h-9.04v4Zm18.08 0h9.03v-4h-9.03v4Zm18.07 0h9.04v-4h-9.04v4Zm18.08 0h9.04v-4h-9.04v4Zm18.08 0h9.03v-4h-9.03v4Zm18.07 0h9.04v-4h-9.04v4Zm18.08 0h9.04v-4h-9.04v4Zm18.07 0h9.04v-4h-9.04v4Zm18.08 0h9.04v-4h-9.04v4Zm18.08 0h9.03v-4h-9.03v4Zm18.07 0h9.04v-4h-9.04v4Zm18.08 0h9.04v-4h-9.04v4Zm18.07 0h9.04v-4h-9.04v4Zm18.08 0h9.04v-4h-9.04v4Zm18.08 0h9.03v-4h-9.03v4Zm18.07 0h9.04v-4h-9.04v4Zm18.08 0h9.04v-4h-9.04v4Zm18.08 0h9.03v-4h-9.03v4Zm18.07 0h9.04v-4h-9.04v4Zm18.08 0h9.04v-4h-9.04v4Zm18.07 0h9.04v-4h-9.04v4Zm18.08 0h9.04v-4h-9.04v4Zm18.08 0h9.03v-4h-9.03v4Zm18.07 0h9.04v-4h-9.04v4Zm18.08 0h9.04v-4h-9.04v4Zm18.07 0h9.04v-4h-9.04v4Zm18.08 0h9.04v-4h-9.04v4Zm18.08 0h9.04v-4h-9.04v4Zm18.07 0h4.52v-4h-4.52v4Z"/><rect width="364" height="81" x="56.5" y="303.5" fill="#232325" rx="7.5"/><path fill="#F4F4F5" d="M163.418 353v-17.455h6.392c1.238 0 2.264.205 3.076.614.813.403 1.421.952 1.824 1.645.404.687.605 1.463.605 2.327 0 .727-.133 1.341-.4 1.841a3.298 3.298 0 0 1-1.074 1.193 4.731 4.731 0 0 1-1.466.647v.171c.58.028 1.145.216 1.696.562.557.341 1.017.827 1.381 1.458.363.631.545 1.398.545 2.301 0 .892-.21 1.693-.631 2.403-.414.705-1.056 1.265-1.926 1.679-.869.409-1.98.614-3.332.614h-6.69Zm2.633-2.259h3.801c1.262 0 2.165-.244 2.71-.732.546-.489.819-1.1.819-1.833a2.88 2.88 0 0 0-.418-1.517 2.976 2.976 0 0 0-1.193-1.099c-.511-.273-1.119-.409-1.824-.409h-3.895v5.59Zm0-7.644h3.529c.59 0 1.122-.114 1.593-.341a2.797 2.797 0 0 0 1.134-.955c.284-.415.426-.903.426-1.466 0-.721-.253-1.326-.759-1.815-.505-.489-1.281-.733-2.326-.733h-3.597v5.31Zm15.413-7.552V353h-2.548v-17.455h2.548Zm8.943 17.719c-1.227 0-2.298-.281-3.213-.844-.915-.562-1.625-1.349-2.131-2.36-.505-1.012-.758-2.194-.758-3.546 0-1.358.253-2.545.758-3.562.506-1.017 1.216-1.807 2.131-2.37.915-.562 1.986-.843 3.213-.843s2.298.281 3.213.843c.915.563 1.625 1.353 2.131 2.37.505 1.017.758 2.204.758 3.562 0 1.352-.253 2.534-.758 3.546-.506 1.011-1.216 1.798-2.131 2.36-.915.563-1.986.844-3.213.844Zm.008-2.139c.796 0 1.455-.21 1.978-.631.522-.42.909-.98 1.159-1.679.256-.699.383-1.468.383-2.309 0-.836-.127-1.603-.383-2.301-.25-.705-.637-1.27-1.159-1.696-.523-.427-1.182-.64-1.978-.64-.801 0-1.465.213-1.994.64-.523.426-.912.991-1.167 1.696a6.78 6.78 0 0 0-.375 2.301c0 .841.125 1.61.375 2.309.255.699.644 1.259 1.167 1.679.529.421 1.193.631 1.994.631Zm14.453 2.139c-1.267 0-2.358-.287-3.273-.861-.909-.579-1.608-1.377-2.096-2.394-.489-1.018-.733-2.182-.733-3.495 0-1.329.25-2.503.75-3.52.5-1.022 1.204-1.821 2.113-2.395.909-.573 1.98-.86 3.213-.86.995 0 1.881.184 2.659.554a4.76 4.76 0 0 1 1.884 1.534c.483.659.77 1.429.861 2.309h-2.48a2.975 2.975 0 0 0-.938-1.585c-.483-.443-1.131-.665-1.943-.665-.71 0-1.332.188-1.867.563-.528.369-.94.898-1.235 1.585-.296.682-.444 1.489-.444 2.421 0 .954.145 1.778.435 2.471.29.693.699 1.23 1.227 1.611.535.381 1.162.571 1.884.571.483 0 .92-.088 1.312-.264.398-.182.731-.441.998-.776.272-.335.463-.738.571-1.21h2.48a4.821 4.821 0 0 1-.827 2.267c-.46.665-1.077 1.187-1.849 1.568-.767.381-1.668.571-2.702.571Zm10.447-4.704-.017-3.111h.443l5.216-5.54h3.051l-5.949 6.307h-.401l-2.343 2.344Zm-2.344 4.44v-17.455h2.548V353h-2.548Zm8.267 0-4.688-6.222 1.756-1.781 6.06 8.003h-3.128Zm5.092 0v-13.091h2.549V353h-2.549Zm1.287-15.111c-.443 0-.824-.148-1.142-.443a1.443 1.443 0 0 1-.469-1.074c0-.42.157-.778.469-1.074a1.603 1.603 0 0 1 1.142-.451c.443 0 .821.15 1.134.451.318.296.477.654.477 1.074 0 .415-.159.773-.477 1.074a1.594 1.594 0 0 1-1.134.443Zm7.238 7.338V353h-2.548v-13.091h2.446v2.131h.162a3.747 3.747 0 0 1 1.415-1.671c.647-.42 1.463-.63 2.446-.63.892 0 1.673.187 2.343.562.671.369 1.191.921 1.56 1.654.369.732.554 1.639.554 2.718V353h-2.548v-8.02c0-.949-.247-1.69-.742-2.224-.494-.54-1.173-.81-2.037-.81-.591 0-1.116.128-1.576.384-.455.255-.816.63-1.083 1.125-.261.488-.392 1.079-.392 1.772Zm17.284 12.955c-1.04 0-1.934-.137-2.684-.409-.745-.273-1.353-.634-1.824-1.083a4.54 4.54 0 0 1-1.057-1.474l2.19-.904c.154.25.358.515.614.793.261.284.613.526 1.057.725.449.198 1.025.298 1.73.298.966 0 1.764-.236 2.395-.708.63-.465.946-1.21.946-2.232v-2.574h-.162a5.857 5.857 0 0 1-.665.929c-.284.341-.676.636-1.176.886-.5.25-1.151.375-1.952.375-1.034 0-1.966-.242-2.795-.724-.824-.489-1.478-1.208-1.961-2.157-.477-.954-.715-2.128-.715-3.52s.235-2.585.707-3.579c.477-.994 1.131-1.756 1.96-2.284.83-.534 1.77-.801 2.821-.801.813 0 1.469.136 1.969.409.5.267.889.579 1.168.937.284.358.502.674.656.946h.187v-2.122h2.497v13.381c0 1.125-.261 2.048-.784 2.77-.522.721-1.23 1.255-2.122 1.602-.886.347-1.886.52-3 .52Zm-.025-7.492c.733 0 1.352-.17 1.858-.511.511-.347.897-.841 1.159-1.483.267-.648.4-1.423.4-2.327 0-.88-.13-1.656-.392-2.326-.261-.671-.645-1.194-1.15-1.569-.506-.38-1.131-.571-1.875-.571-.767 0-1.407.199-1.918.597-.511.392-.898.926-1.159 1.602-.256.676-.384 1.432-.384 2.267 0 .858.131 1.611.392 2.259.262.648.648 1.153 1.16 1.517.517.364 1.153.545 1.909.545Zm21.811-10.781v2.046h-7.15v-2.046h7.15Zm-5.233-3.136h2.549v12.383c0 .495.074.867.221 1.117.148.244.338.412.571.503.239.085.498.127.776.127.204 0 .383-.014.537-.042l.358-.068.46 2.105a4.3 4.3 0 0 1-.631.17 4.9 4.9 0 0 1-1.022.102 4.473 4.473 0 0 1-1.875-.358 3.214 3.214 0 0 1-1.407-1.159c-.358-.522-.537-1.179-.537-1.968v-12.912Zm11.862 16.517c-.83 0-1.58-.154-2.25-.46a3.798 3.798 0 0 1-1.594-1.356c-.386-.59-.579-1.315-.579-2.173 0-.739.142-1.346.426-1.824a3.14 3.14 0 0 1 1.15-1.133 5.989 5.989 0 0 1 1.62-.631c.596-.142 1.204-.25 1.824-.324l1.909-.221c.488-.063.843-.162 1.065-.299.222-.136.332-.358.332-.664v-.06c0-.744-.21-1.321-.63-1.73-.415-.409-1.034-.614-1.858-.614-.858 0-1.534.19-2.029.571-.488.375-.826.793-1.014 1.253l-2.395-.545c.284-.796.699-1.438 1.245-1.927a5.037 5.037 0 0 1 1.9-1.073 7.4 7.4 0 0 1 2.259-.341c.522 0 1.076.062 1.662.187a4.85 4.85 0 0 1 1.653.665c.517.324.94.787 1.27 1.389.329.597.494 1.372.494 2.327V353h-2.488v-1.79h-.103a3.61 3.61 0 0 1-.741.972c-.33.318-.753.582-1.27.792-.517.211-1.136.316-1.858.316Zm.554-2.046c.705 0 1.307-.139 1.807-.417.505-.279.889-.642 1.15-1.091.267-.455.401-.941.401-1.458v-1.687c-.091.091-.267.176-.528.256a8.537 8.537 0 0 1-.878.196c-.33.051-.651.099-.963.145a64.13 64.13 0 0 0-.785.102 6.274 6.274 0 0 0-1.355.315 2.331 2.331 0 0 0-.971.639c-.239.273-.358.637-.358 1.091 0 .631.233 1.108.699 1.432.466.318 1.059.477 1.781.477Zm19.11-8.139-2.31.409a2.733 2.733 0 0 0-.46-.844 2.28 2.28 0 0 0-.835-.656c-.352-.17-.793-.255-1.321-.255-.722 0-1.324.161-1.807.485-.483.318-.724.73-.724 1.236 0 .438.162.79.485 1.057.324.267.847.486 1.569.656l2.079.477c1.205.279 2.102.708 2.693 1.287.591.58.887 1.333.887 2.259 0 .784-.228 1.483-.682 2.096-.449.608-1.077 1.086-1.884 1.432-.801.347-1.73.52-2.787.52-1.465 0-2.661-.312-3.588-.937-.926-.631-1.494-1.526-1.704-2.685l2.463-.375c.153.642.469 1.128.946 1.457.477.324 1.099.486 1.866.486.836 0 1.503-.173 2.003-.52.5-.352.75-.781.75-1.287 0-.409-.153-.752-.46-1.031-.301-.278-.764-.488-1.389-.631l-2.216-.485c-1.222-.279-2.125-.722-2.71-1.33-.58-.608-.87-1.378-.87-2.31 0-.772.216-1.448.648-2.028.432-.579 1.028-1.031 1.79-1.355.761-.33 1.633-.494 2.616-.494 1.415 0 2.529.306 3.341.92.813.608 1.35 1.423 1.611 2.446Zm5.401 5.455-.017-3.111h.443l5.216-5.54h3.051l-5.948 6.307h-.401l-2.344 2.344Zm-2.343 4.44v-17.455h2.548V353h-2.548Zm8.267 0-4.688-6.222 1.756-1.781L314.67 353h-3.127Z"/><rect width="364" height="81" x="56.5" y="303.5" stroke="#6D6D74" rx="7.5"/><rect width="193" height="81" x="467.5" y="303.5" fill="#2A261D" rx="7.5"/><path fill="#FEF3C7" d="M510.213 357.909v-18h2.489v2.122h.213c.148-.272.361-.588.639-.946s.665-.67 1.159-.937c.494-.273 1.148-.409 1.96-.409 1.057 0 2 .267 2.83.801.829.534 1.48 1.304 1.952 2.309.477 1.006.715 2.216.715 3.631 0 1.415-.235 2.628-.707 3.639-.472 1.006-1.119 1.782-1.943 2.327-.824.54-1.764.81-2.821.81-.796 0-1.446-.134-1.952-.401-.5-.267-.892-.579-1.176-.937a7.092 7.092 0 0 1-.656-.955h-.154v6.946h-2.548Zm2.497-11.454c0 .92.134 1.727.401 2.42.267.693.653 1.236 1.159 1.628.506.386 1.125.579 1.858.579.761 0 1.398-.201 1.909-.605.511-.409.898-.963 1.159-1.662.267-.699.401-1.485.401-2.36 0-.864-.131-1.64-.392-2.327-.256-.688-.642-1.23-1.16-1.628-.511-.398-1.15-.597-1.917-.597-.739 0-1.364.191-1.875.571-.506.381-.889.912-1.151 1.594-.261.682-.392 1.477-.392 2.387Zm17.83 6.809c-1.227 0-2.299-.281-3.213-.844-.915-.562-1.625-1.349-2.131-2.36-.506-1.012-.758-2.194-.758-3.546 0-1.358.252-2.545.758-3.562s1.216-1.807 2.131-2.37c.914-.562 1.986-.843 3.213-.843s2.298.281 3.213.843c.915.563 1.625 1.353 2.131 2.37.505 1.017.758 2.204.758 3.562 0 1.352-.253 2.534-.758 3.546-.506 1.011-1.216 1.798-2.131 2.36-.915.563-1.986.844-3.213.844Zm.008-2.139c.796 0 1.455-.21 1.978-.631.522-.42.909-.98 1.159-1.679.255-.699.383-1.468.383-2.309a6.66 6.66 0 0 0-.383-2.301c-.25-.705-.637-1.27-1.159-1.696-.523-.427-1.182-.64-1.978-.64-.801 0-1.466.213-1.994.64-.523.426-.912.991-1.168 1.696a6.78 6.78 0 0 0-.375 2.301c0 .841.125 1.61.375 2.309.256.699.645 1.259 1.168 1.679.528.421 1.193.631 1.994.631Zm8.939 1.875v-13.091h2.548V353h-2.548Zm1.286-15.111c-.443 0-.823-.148-1.142-.443a1.442 1.442 0 0 1-.468-1.074c0-.42.156-.778.468-1.074a1.605 1.605 0 0 1 1.142-.451c.444 0 .821.15 1.134.451.318.296.477.654.477 1.074 0 .415-.159.773-.477 1.074-.313.295-.69.443-1.134.443Zm7.238 7.338V353h-2.548v-13.091h2.446v2.131h.162a3.747 3.747 0 0 1 1.415-1.671c.648-.42 1.463-.63 2.446-.63.892 0 1.673.187 2.344.562.67.369 1.19.921 1.559 1.654.37.732.554 1.639.554 2.718V353h-2.548v-8.02c0-.949-.247-1.69-.742-2.224-.494-.54-1.173-.81-2.037-.81-.59 0-1.116.128-1.576.384-.455.255-.816.63-1.083 1.125-.261.488-.392 1.079-.392 1.772Zm17.907-5.318v2.046h-7.151v-2.046h7.151Zm-5.233-3.136h2.548v12.383c0 .495.074.867.222 1.117.147.244.338.412.571.503.238.085.497.127.775.127.205 0 .384-.014.537-.042l.358-.068.46 2.105a4.28 4.28 0 0 1-.63.17 4.917 4.917 0 0 1-1.023.102 4.473 4.473 0 0 1-1.875-.358 3.211 3.211 0 0 1-1.406-1.159c-.358-.522-.537-1.179-.537-1.968v-12.912Zm13.553 16.491c-1.29 0-2.401-.275-3.332-.826-.927-.557-1.643-1.339-2.148-2.344-.5-1.012-.75-2.196-.75-3.554 0-1.341.25-2.523.75-3.546.505-1.022 1.21-1.821 2.113-2.395.91-.573 1.972-.86 3.188-.86.739 0 1.454.122 2.148.366a5.193 5.193 0 0 1 1.866 1.151c.551.522.986 1.201 1.304 2.037.318.829.477 1.838.477 3.025v.904h-10.406v-1.91h7.909c0-.67-.136-1.264-.409-1.781a3.107 3.107 0 0 0-1.15-1.236c-.489-.301-1.063-.451-1.722-.451-.716 0-1.341.176-1.875.528a3.543 3.543 0 0 0-1.227 1.364 3.938 3.938 0 0 0-.426 1.815v1.492c0 .875.153 1.619.46 2.233a3.328 3.328 0 0 0 1.304 1.406c.557.318 1.207.477 1.951.477a4.07 4.07 0 0 0 1.322-.204 2.88 2.88 0 0 0 1.031-.631 2.75 2.75 0 0 0 .665-1.031l2.411.434a4.367 4.367 0 0 1-1.039 1.867c-.495.528-1.117.94-1.867 1.236-.744.289-1.594.434-2.548.434Zm8.444-.264v-13.091h2.463v2.08h.136a3.16 3.16 0 0 1 1.262-1.662 3.61 3.61 0 0 1 2.062-.614 11.338 11.338 0 0 1 1.083.06v2.437a4.912 4.912 0 0 0-.546-.094 5.305 5.305 0 0 0-.784-.059c-.602 0-1.139.128-1.611.383a2.851 2.851 0 0 0-1.517 2.566V353h-2.548Zm17.503-5.429v-7.662h2.557V353h-2.505v-2.267h-.137c-.301.699-.784 1.281-1.449 1.747-.659.46-1.48.69-2.463.69-.841 0-1.585-.184-2.233-.554-.642-.375-1.147-.928-1.517-1.661-.363-.733-.545-1.64-.545-2.719v-8.327h2.548v8.02c0 .892.247 1.602.742 2.131.494.528 1.136.792 1.926.792.477 0 .951-.119 1.423-.358a2.998 2.998 0 0 0 1.185-1.082c.318-.483.474-1.097.468-1.841Zm5.981 10.338v-18h2.489v2.122h.213c.148-.272.361-.588.639-.946.279-.358.665-.67 1.159-.937.495-.273 1.148-.409 1.96-.409 1.057 0 2 .267 2.83.801.83.534 1.48 1.304 1.952 2.309.477 1.006.716 2.216.716 3.631 0 1.415-.236 2.628-.708 3.639-.471 1.006-1.119 1.782-1.943 2.327-.824.54-1.764.81-2.821.81-.795 0-1.446-.134-1.952-.401-.5-.267-.892-.579-1.176-.937a7.092 7.092 0 0 1-.656-.955h-.154v6.946h-2.548Zm2.497-11.454c0 .92.134 1.727.401 2.42.267.693.653 1.236 1.159 1.628.506.386 1.125.579 1.858.579.761 0 1.398-.201 1.909-.605.511-.409.898-.963 1.159-1.662.267-.699.401-1.485.401-2.36 0-.864-.131-1.64-.392-2.327-.256-.688-.642-1.23-1.159-1.628-.512-.398-1.151-.597-1.918-.597-.739 0-1.364.191-1.875.571-.506.381-.889.912-1.151 1.594-.261.682-.392 1.477-.392 2.387Z"/><rect width="193" height="81" x="467.5" y="303.5" stroke="#DCB750" rx="7.5"/><rect width="177" height="81" x="674.5" y="303.5" fill="#2A261D" rx="7.5"/><path fill="#FEF3C7" d="M711.713 353v-13.091h2.446v2.131h.162a3.387 3.387 0 0 1 1.338-1.688c.619-.409 1.361-.613 2.225-.613.875 0 1.607.204 2.198.613.597.409 1.037.972 1.321 1.688h.137a3.68 3.68 0 0 1 1.491-1.671c.682-.42 1.495-.63 2.438-.63 1.187 0 2.156.372 2.906 1.116.756.744 1.134 1.867 1.134 3.367V353h-2.549v-8.54c0-.886-.241-1.528-.724-1.926-.483-.398-1.06-.596-1.73-.596-.83 0-1.475.255-1.935.767-.46.505-.69 1.156-.69 1.951V353h-2.54v-8.702c0-.71-.222-1.281-.665-1.713-.443-.432-1.02-.647-1.73-.647-.483 0-.929.127-1.338.383-.403.25-.73.599-.98 1.048-.244.449-.367.969-.367 1.56V353h-2.548Zm26.725.264c-1.227 0-2.298-.281-3.213-.844-.915-.562-1.625-1.349-2.131-2.36-.505-1.012-.758-2.194-.758-3.546 0-1.358.253-2.545.758-3.562.506-1.017 1.216-1.807 2.131-2.37.915-.562 1.986-.843 3.213-.843s2.299.281 3.213.843c.915.563 1.625 1.353 2.131 2.37.506 1.017.758 2.204.758 3.562 0 1.352-.252 2.534-.758 3.546-.506 1.011-1.216 1.798-2.131 2.36-.914.563-1.986.844-3.213.844Zm.009-2.139c.795 0 1.454-.21 1.977-.631.523-.42.909-.98 1.159-1.679.256-.699.384-1.468.384-2.309 0-.836-.128-1.603-.384-2.301-.25-.705-.636-1.27-1.159-1.696-.523-.427-1.182-.64-1.977-.64-.801 0-1.466.213-1.995.64-.522.426-.912.991-1.167 1.696a6.78 6.78 0 0 0-.375 2.301c0 .841.125 1.61.375 2.309.255.699.645 1.259 1.167 1.679.529.421 1.194.631 1.995.631Zm17.231-3.554v-7.662h2.556V353h-2.505v-2.267h-.137c-.301.699-.784 1.281-1.449 1.747-.659.46-1.48.69-2.463.69-.841 0-1.585-.184-2.233-.554-.642-.375-1.147-.928-1.517-1.661-.363-.733-.545-1.64-.545-2.719v-8.327h2.548v8.02c0 .892.247 1.602.742 2.131.494.528 1.136.792 1.926.792.477 0 .952-.119 1.423-.358a2.998 2.998 0 0 0 1.185-1.082c.318-.483.474-1.097.469-1.841Zm15.79-4.466-2.31.409a2.733 2.733 0 0 0-.46-.844 2.28 2.28 0 0 0-.835-.656c-.352-.17-.793-.255-1.321-.255-.722 0-1.324.161-1.807.485-.483.318-.724.73-.724 1.236 0 .438.162.79.485 1.057.324.267.847.486 1.569.656l2.079.477c1.205.279 2.102.708 2.693 1.287.591.58.887 1.333.887 2.259 0 .784-.228 1.483-.682 2.096-.449.608-1.077 1.086-1.884 1.432-.801.347-1.73.52-2.787.52-1.465 0-2.661-.312-3.588-.937-.926-.631-1.494-1.526-1.704-2.685l2.463-.375c.153.642.469 1.128.946 1.457.477.324 1.099.486 1.866.486.836 0 1.503-.173 2.003-.52.5-.352.75-.781.75-1.287 0-.409-.153-.752-.46-1.031-.301-.278-.764-.488-1.389-.631l-2.216-.485c-1.222-.279-2.125-.722-2.71-1.33-.58-.608-.87-1.378-.87-2.31 0-.772.216-1.448.648-2.028.432-.579 1.028-1.031 1.79-1.355.761-.33 1.633-.494 2.616-.494 1.415 0 2.529.306 3.341.92.813.608 1.35 1.423 1.611 2.446Zm8.7 10.159c-1.29 0-2.401-.275-3.333-.826-.926-.557-1.642-1.339-2.147-2.344-.5-1.012-.75-2.196-.75-3.554 0-1.341.25-2.523.75-3.546.505-1.022 1.21-1.821 2.113-2.395.909-.573 1.972-.86 3.188-.86a6.42 6.42 0 0 1 2.147.366 5.189 5.189 0 0 1 1.867 1.151c.551.522.986 1.201 1.304 2.037.318.829.477 1.838.477 3.025v.904h-10.406v-1.91h7.909c0-.67-.136-1.264-.409-1.781a3.102 3.102 0 0 0-1.151-1.236c-.488-.301-1.062-.451-1.721-.451-.716 0-1.341.176-1.875.528a3.546 3.546 0 0 0-1.228 1.364 3.938 3.938 0 0 0-.426 1.815v1.492c0 .875.154 1.619.461 2.233a3.332 3.332 0 0 0 1.303 1.406c.557.318 1.208.477 1.952.477.483 0 .923-.068 1.321-.204a2.863 2.863 0 0 0 1.031-.631c.29-.279.512-.622.665-1.031l2.412.434a4.369 4.369 0 0 1-1.04 1.867c-.494.528-1.116.94-1.866 1.236-.744.289-1.594.434-2.548.434Zm16.736-5.693v-7.662h2.557V353h-2.506v-2.267h-.136c-.301.699-.784 1.281-1.449 1.747-.659.46-1.48.69-2.463.69-.841 0-1.585-.184-2.233-.554-.642-.375-1.148-.928-1.517-1.661-.364-.733-.545-1.64-.545-2.719v-8.327h2.548v8.02c0 .892.247 1.602.741 2.131.495.528 1.137.792 1.926.792.478 0 .952-.119 1.424-.358a2.989 2.989 0 0 0 1.184-1.082c.319-.483.475-1.097.469-1.841Zm5.981 10.338v-18h2.489v2.122h.213a7.04 7.04 0 0 1 .639-.946c.278-.358.665-.67 1.159-.937.494-.273 1.148-.409 1.96-.409 1.057 0 2 .267 2.83.801.829.534 1.48 1.304 1.951 2.309.478 1.006.716 2.216.716 3.631 0 1.415-.235 2.628-.707 3.639-.472 1.006-1.119 1.782-1.943 2.327-.824.54-1.764.81-2.821.81-.796 0-1.446-.134-1.952-.401-.5-.267-.892-.579-1.176-.937a7.092 7.092 0 0 1-.656-.955h-.154v6.946h-2.548Zm2.497-11.454c0 .92.134 1.727.401 2.42.267.693.653 1.236 1.159 1.628.505.386 1.125.579 1.858.579.761 0 1.397-.201 1.909-.605.511-.409.898-.963 1.159-1.662.267-.699.4-1.485.4-2.36 0-.864-.13-1.64-.392-2.327-.255-.688-.642-1.23-1.159-1.628-.511-.398-1.15-.597-1.917-.597-.739 0-1.364.191-1.875.571-.506.381-.889.912-1.151 1.594-.261.682-.392 1.477-.392 2.387Z"/><rect width="177" height="81" x="674.5" y="303.5" stroke="#DCB750" rx="7.5"/><rect width="154" height="81" x="865.5" y="303.5" fill="#2A261D" rx="7.5"/><path fill="#FEF3C7" d="M923.227 353.264c-1.267 0-2.358-.287-3.272-.861-.91-.579-1.608-1.377-2.097-2.394-.489-1.018-.733-2.182-.733-3.495 0-1.329.25-2.503.75-3.52.5-1.022 1.205-1.821 2.114-2.395.909-.573 1.98-.86 3.213-.86.994 0 1.88.184 2.659.554a4.764 4.764 0 0 1 1.883 1.534c.483.659.77 1.429.861 2.309h-2.48a2.974 2.974 0 0 0-.937-1.585c-.483-.443-1.131-.665-1.944-.665-.71 0-1.332.188-1.866.563-.529.369-.94.898-1.236 1.585-.295.682-.443 1.489-.443 2.421 0 .954.145 1.778.435 2.471.289.693.698 1.23 1.227 1.611.534.381 1.162.571 1.883.571.483 0 .921-.088 1.313-.264.398-.182.73-.441.997-.776a2.91 2.91 0 0 0 .571-1.21h2.48a4.81 4.81 0 0 1-.827 2.267c-.46.665-1.076 1.187-1.849 1.568-.767.381-1.668.571-2.702.571Zm10.652-17.719V353h-2.549v-17.455h2.549ZM937.307 353v-13.091h2.548V353h-2.548Zm1.287-15.111c-.443 0-.824-.148-1.142-.443a1.44 1.44 0 0 1-.469-1.074c0-.42.156-.778.469-1.074a1.603 1.603 0 0 1 1.142-.451c.443 0 .821.15 1.133.451.318.296.478.654.478 1.074 0 .415-.16.773-.478 1.074a1.59 1.59 0 0 1-1.133.443Zm10.204 15.375c-1.267 0-2.358-.287-3.273-.861-.909-.579-1.608-1.377-2.097-2.394-.488-1.018-.733-2.182-.733-3.495 0-1.329.25-2.503.75-3.52.5-1.022 1.205-1.821 2.114-2.395.909-.573 1.98-.86 3.213-.86.994 0 1.881.184 2.659.554a4.767 4.767 0 0 1 1.884 1.534c.483.659.77 1.429.86 2.309h-2.48a2.974 2.974 0 0 0-.937-1.585c-.483-.443-1.131-.665-1.943-.665-.711 0-1.333.188-1.867.563-.528.369-.94.898-1.236 1.585-.295.682-.443 1.489-.443 2.421 0 .954.145 1.778.435 2.471.29.693.699 1.23 1.227 1.611.534.381 1.162.571 1.884.571.483 0 .92-.088 1.312-.264.398-.182.73-.441.997-.776a2.91 2.91 0 0 0 .571-1.21h2.48a4.81 4.81 0 0 1-.826 2.267 4.763 4.763 0 0 1-1.85 1.568c-.767.381-1.667.571-2.701.571Zm10.446-4.704-.017-3.111h.443l5.216-5.54h3.052l-5.949 6.307h-.401l-2.344 2.344Zm-2.343 4.44v-17.455h2.548V353h-2.548Zm8.267 0-4.688-6.222 1.756-1.781 6.059 8.003h-3.127Z"/><rect width="154" height="81" x="865.5" y="303.5" stroke="#DCB750" rx="7.5"/><rect width="146" height="81" x="1065.5" y="303.5" fill="#211D2A" rx="7.5"/><path fill="#EDE9FE" d="M1098.92 353v-17.455h6.22c1.35 0 2.47.233 3.37.699.89.466 1.56 1.111 2.01 1.935.44.818.66 1.764.66 2.838 0 1.068-.22 2.009-.67 2.821-.44.807-1.12 1.435-2.01 1.884-.89.448-2.02.673-3.37.673h-4.71v-2.267h4.47c.85 0 1.55-.122 2.08-.367.54-.244.94-.599 1.19-1.065.25-.466.37-1.026.37-1.679 0-.659-.13-1.23-.38-1.713-.25-.483-.65-.852-1.19-1.108-.53-.261-1.23-.392-2.1-.392h-3.31V353h-2.63Zm8.61-7.875 4.32 7.875h-3l-4.23-7.875h2.91Zm12.13 8.139c-1.29 0-2.4-.275-3.33-.826-.93-.557-1.64-1.339-2.15-2.344-.5-1.012-.75-2.196-.75-3.554 0-1.341.25-2.523.75-3.546.51-1.022 1.21-1.821 2.11-2.395.91-.573 1.97-.86 3.19-.86.74 0 1.46.122 2.15.366s1.31.628 1.87 1.151c.55.522.98 1.201 1.3 2.037.32.829.48 1.838.48 3.025v.904h-10.41v-1.91h7.91c0-.67-.14-1.264-.41-1.781a3.114 3.114 0 0 0-1.15-1.236c-.49-.301-1.06-.451-1.72-.451-.72 0-1.34.176-1.88.528-.53.347-.93.801-1.22 1.364a3.867 3.867 0 0 0-.43 1.815v1.492c0 .875.15 1.619.46 2.233a3.35 3.35 0 0 0 1.3 1.406c.56.318 1.21.477 1.96.477.48 0 .92-.068 1.32-.204.39-.143.74-.353 1.03-.631.29-.279.51-.622.66-1.031l2.41.434c-.19.71-.54 1.333-1.04 1.867-.49.528-1.11.94-1.86 1.236-.75.289-1.6.434-2.55.434Zm10.99-8.037V353h-2.55v-13.091h2.45v2.131h.16c.3-.693.77-1.25 1.42-1.671.64-.42 1.46-.63 2.44-.63.89 0 1.68.187 2.35.562.67.369 1.19.921 1.56 1.654.37.732.55 1.639.55 2.718V353h-2.55v-8.02c0-.949-.25-1.69-.74-2.224-.49-.54-1.17-.81-2.04-.81-.59 0-1.11.128-1.57.384-.46.255-.82.63-1.09 1.125-.26.488-.39 1.079-.39 1.772Zm16.7 8.029c-1.06 0-2-.27-2.83-.81-.83-.545-1.47-1.321-1.94-2.327-.47-1.011-.7-2.224-.7-3.639 0-1.415.23-2.625.7-3.631.48-1.005 1.13-1.775 1.96-2.309.83-.534 1.77-.801 2.83-.801.81 0 1.46.136 1.96.409.5.267.88.579 1.15.937.28.358.5.674.65.946h.16v-6.486h2.54V353h-2.48v-2.037h-.22c-.15.278-.37.597-.66.955-.29.358-.68.67-1.18.937-.5.267-1.15.401-1.94.401Zm.56-2.174c.73 0 1.35-.193 1.86-.579.51-.392.9-.935 1.16-1.628.26-.693.4-1.5.4-2.42 0-.91-.13-1.705-.39-2.387-.27-.682-.65-1.213-1.15-1.594-.51-.38-1.14-.571-1.88-.571-.77 0-1.41.199-1.92.597-.51.398-.89.94-1.16 1.628-.25.687-.38 1.463-.38 2.327 0 .875.13 1.661.39 2.36.26.699.65 1.253 1.16 1.662.52.404 1.15.605 1.91.605Zm15.2 2.182c-1.29 0-2.4-.275-3.33-.826-.93-.557-1.64-1.339-2.15-2.344-.5-1.012-.75-2.196-.75-3.554 0-1.341.25-2.523.75-3.546.51-1.022 1.21-1.821 2.12-2.395.91-.573 1.97-.86 3.18-.86.74 0 1.46.122 2.15.366s1.32.628 1.87 1.151c.55.522.98 1.201 1.3 2.037.32.829.48 1.838.48 3.025v.904h-10.41v-1.91h7.91c0-.67-.13-1.264-.41-1.781a3.045 3.045 0 0 0-1.15-1.236c-.49-.301-1.06-.451-1.72-.451-.71 0-1.34.176-1.87.528-.53.347-.94.801-1.23 1.364a3.867 3.867 0 0 0-.43 1.815v1.492c0 .875.16 1.619.46 2.233.32.613.75 1.082 1.31 1.406.55.318 1.2.477 1.95.477.48 0 .92-.068 1.32-.204.4-.143.74-.353 1.03-.631.29-.279.51-.622.67-1.031l2.41.434c-.2.71-.54 1.333-1.04 1.867-.5.528-1.12.94-1.87 1.236-.74.289-1.59.434-2.55.434Zm8.45-.264v-13.091h2.46v2.08h.14c.23-.705.66-1.259 1.26-1.662a3.6 3.6 0 0 1 2.06-.614 10.991 10.991 0 0 1 1.08.06v2.437c-.1-.028-.28-.059-.54-.094a5.386 5.386 0 0 0-.79-.059c-.6 0-1.14.128-1.61.383-.46.25-.83.6-1.11 1.049-.27.443-.4.948-.4 1.517V353h-2.55Z"/><rect width="146" height="81" x="1065.5" y="303.5" stroke="#8C71D6" rx="7.5"/><rect width="165" height="81" x="1225.5" y="303.5" fill="#1D2A24" rx="7.5"/><path fill="#D1FAE5" d="M1280.42 353v-17.455h6.22c1.36 0 2.48.248 3.37.742.9.494 1.56 1.17 2.01 2.028.44.853.66 1.813.66 2.881 0 1.074-.22 2.04-.67 2.898-.44.852-1.12 1.528-2.01 2.028-.89.494-2.02.742-3.37.742h-4.28v-2.233h4.04c.86 0 1.56-.148 2.09-.443.53-.302.93-.711 1.18-1.228.25-.517.37-1.105.37-1.764s-.12-1.244-.37-1.756c-.25-.511-.65-.912-1.19-1.201-.53-.29-1.24-.435-2.11-.435h-3.31V353h-2.63Zm18.84.29c-.83 0-1.58-.154-2.25-.46a3.864 3.864 0 0 1-1.6-1.356c-.38-.59-.58-1.315-.58-2.173 0-.739.15-1.346.43-1.824.28-.477.67-.855 1.15-1.133a5.913 5.913 0 0 1 1.62-.631c.6-.142 1.2-.25 1.82-.324l1.91-.221c.49-.063.85-.162 1.07-.299.22-.136.33-.358.33-.664v-.06c0-.744-.21-1.321-.63-1.73-.41-.409-1.03-.614-1.86-.614-.86 0-1.53.19-2.03.571-.49.375-.82.793-1.01 1.253l-2.4-.545c.29-.796.7-1.438 1.25-1.927a5 5 0 0 1 1.9-1.073 7.425 7.425 0 0 1 2.26-.341c.52 0 1.07.062 1.66.187.59.119 1.14.341 1.65.665.52.324.94.787 1.27 1.389.33.597.5 1.372.5 2.327V353h-2.49v-1.79h-.1c-.17.33-.42.654-.75.972-.32.318-.75.582-1.26.792-.52.211-1.14.316-1.86.316Zm.55-2.046c.71 0 1.31-.139 1.81-.417.5-.279.89-.642 1.15-1.091.27-.455.4-.941.4-1.458v-1.687c-.09.091-.27.176-.53.256-.26.073-.55.139-.88.196-.33.051-.65.099-.96.145-.31.039-.57.073-.78.102-.5.062-.95.167-1.36.315-.4.148-.73.361-.97.639-.24.273-.36.637-.36 1.091 0 .631.23 1.108.7 1.432.47.318 1.06.477 1.78.477Zm9.3 1.756v-13.091h2.55V353h-2.55Zm1.29-15.111c-.44 0-.83-.148-1.14-.443a1.415 1.415 0 0 1-.47-1.074c0-.42.15-.778.47-1.074.31-.301.7-.451 1.14-.451.44 0 .82.15 1.13.451.32.296.48.654.48 1.074 0 .415-.16.773-.48 1.074-.31.295-.69.443-1.13.443Zm7.24 7.338V353h-2.55v-13.091h2.44v2.131h.17c.3-.693.77-1.25 1.41-1.671.65-.42 1.46-.63 2.45-.63.89 0 1.67.187 2.34.562.67.369 1.19.921 1.56 1.654.37.732.55 1.639.55 2.718V353h-2.54v-8.02c0-.949-.25-1.69-.75-2.224-.49-.54-1.17-.81-2.03-.81-.59 0-1.12.128-1.58.384-.45.255-.81.63-1.08 1.125-.26.488-.39 1.079-.39 1.772Zm17.9-5.318v2.046h-7.15v-2.046h7.15Zm-5.23-3.136h2.55v12.383c0 .495.07.867.22 1.117.15.244.34.412.57.503.24.085.5.127.78.127.2 0 .38-.014.53-.042.16-.029.28-.051.36-.068l.46 2.105c-.15.057-.36.113-.63.17-.27.063-.61.097-1.02.102-.67.012-1.3-.108-1.88-.358a3.152 3.152 0 0 1-1.4-1.159c-.36-.522-.54-1.179-.54-1.968v-12.912Z"/><rect width="165" height="81" x="1225.5" y="303.5" stroke="#3F8862" rx="7.5"/><rect width="188" height="113" x="1407.5" y="578.5" fill="#1D2A24" rx="7.5"/><path fill="#D1FAE5" d="M1448.91 616.222h-2.65a4.173 4.173 0 0 0-.58-1.5 3.948 3.948 0 0 0-1.02-1.1c-.4-.301-.85-.528-1.35-.682-.5-.153-1.02-.23-1.58-.23-1.01 0-1.91.253-2.7.759-.79.505-1.42 1.247-1.88 2.224-.45.977-.68 2.171-.68 3.58 0 1.42.23 2.619.68 3.596.46.978 1.09 1.716 1.89 2.216.79.5 1.69.75 2.68.75.55 0 1.08-.074 1.57-.221.5-.154.95-.378 1.35-.674.41-.295.75-.656 1.03-1.082.28-.432.48-.926.59-1.483l2.65.009a7.054 7.054 0 0 1-.82 2.369 6.76 6.76 0 0 1-1.56 1.858c-.63.517-1.35.917-2.17 1.201-.81.285-1.7.427-2.66.427-1.51 0-2.85-.358-4.04-1.074-1.18-.722-2.11-1.753-2.79-3.094-.68-1.341-1.01-2.94-1.01-4.798 0-1.864.34-3.463 1.02-4.799.68-1.34 1.61-2.369 2.79-3.085 1.19-.721 2.53-1.082 4.03-1.082.93 0 1.79.133 2.6.4.8.262 1.53.648 2.17 1.159a6.392 6.392 0 0 1 1.59 1.858c.42.728.71 1.56.85 2.498Zm8.47 12.042c-1.23 0-2.3-.281-3.22-.844-.91-.562-1.62-1.349-2.13-2.36-.5-1.012-.76-2.194-.76-3.546 0-1.358.26-2.545.76-3.562.51-1.017 1.22-1.807 2.13-2.37.92-.562 1.99-.843 3.22-.843 1.22 0 2.29.281 3.21.843.91.563 1.62 1.353 2.13 2.37.51 1.017.76 2.204.76 3.562 0 1.352-.25 2.534-.76 3.546-.51 1.011-1.22 1.798-2.13 2.36-.92.563-1.99.844-3.21.844Zm0-2.139c.8 0 1.46-.21 1.98-.631.52-.42.91-.98 1.16-1.679.26-.699.38-1.468.38-2.309 0-.836-.12-1.603-.38-2.301-.25-.705-.64-1.27-1.16-1.696-.52-.427-1.18-.64-1.98-.64s-1.46.213-1.99.64c-.52.426-.91.991-1.17 1.696-.25.698-.37 1.465-.37 2.301 0 .841.12 1.61.37 2.309.26.699.65 1.259 1.17 1.679.53.421 1.19.631 1.99.631Zm8.94 1.875v-13.091h2.45v2.131h.16a3.37 3.37 0 0 1 1.34-1.688c.62-.409 1.36-.613 2.22-.613.88 0 1.61.204 2.2.613.6.409 1.04.972 1.32 1.688h.14c.31-.699.81-1.256 1.49-1.671.68-.42 1.49-.63 2.44-.63 1.19 0 2.15.372 2.9 1.116.76.744 1.14 1.867 1.14 3.367V628h-2.55v-8.54c0-.886-.24-1.528-.72-1.926-.49-.398-1.06-.596-1.73-.596-.83 0-1.48.255-1.94.767-.46.505-.69 1.156-.69 1.951V628h-2.54v-8.702c0-.71-.22-1.281-.66-1.713-.45-.432-1.02-.647-1.73-.647-.49 0-.93.127-1.34.383-.41.25-.73.599-.98 1.048-.25.449-.37.969-.37 1.56V628h-2.55Zm21.21 4.909v-18h2.49v2.122h.22c.14-.272.36-.588.63-.946.28-.358.67-.67 1.16-.937.5-.273 1.15-.409 1.96-.409 1.06 0 2 .267 2.83.801.83.534 1.48 1.304 1.95 2.309.48 1.006.72 2.216.72 3.631 0 1.415-.24 2.628-.71 3.639-.47 1.006-1.12 1.782-1.94 2.327-.82.54-1.76.81-2.82.81-.8 0-1.45-.134-1.95-.401s-.89-.579-1.18-.937c-.28-.358-.5-.677-.65-.955h-.16v6.946h-2.55Zm2.5-11.454c0 .92.13 1.727.4 2.42.27.693.65 1.236 1.16 1.628.51.386 1.13.579 1.86.579.76 0 1.4-.201 1.91-.605.51-.409.89-.963 1.16-1.662.26-.699.4-1.485.4-2.36 0-.864-.13-1.64-.4-2.327-.25-.688-.64-1.23-1.15-1.628-.52-.398-1.15-.597-1.92-.597-.74 0-1.37.191-1.88.571-.5.381-.89.912-1.15 1.594-.26.682-.39 1.477-.39 2.387Zm17.83 6.809c-1.23 0-2.3-.281-3.21-.844-.92-.562-1.63-1.349-2.13-2.36-.51-1.012-.76-2.194-.76-3.546 0-1.358.25-2.545.76-3.562.5-1.017 1.21-1.807 2.13-2.37.91-.562 1.98-.843 3.21-.843s2.3.281 3.21.843c.92.563 1.63 1.353 2.13 2.37.51 1.017.76 2.204.76 3.562 0 1.352-.25 2.534-.76 3.546-.5 1.011-1.21 1.798-2.13 2.36-.91.563-1.98.844-3.21.844Zm.01-2.139c.79 0 1.45-.21 1.98-.631.52-.42.9-.98 1.15-1.679.26-.699.39-1.468.39-2.309 0-.836-.13-1.603-.39-2.301-.25-.705-.63-1.27-1.15-1.696-.53-.427-1.19-.64-1.98-.64-.8 0-1.47.213-2 .64-.52.426-.91.991-1.16 1.696a6.78 6.78 0 0 0-.38 2.301c0 .841.13 1.61.38 2.309.25.699.64 1.259 1.16 1.679.53.421 1.2.631 2 .631Zm18.75-8.02-2.31.409a2.82 2.82 0 0 0-.46-.844 2.367 2.367 0 0 0-.84-.656c-.35-.17-.79-.255-1.32-.255-.72 0-1.32.161-1.81.485-.48.318-.72.73-.72 1.236 0 .438.16.79.48 1.057.33.267.85.486 1.57.656l2.08.477c1.21.279 2.1.708 2.7 1.287.59.58.88 1.333.88 2.259 0 .784-.23 1.483-.68 2.096-.45.608-1.08 1.086-1.88 1.432-.8.347-1.73.52-2.79.52-1.47 0-2.66-.312-3.59-.937-.92-.631-1.49-1.526-1.7-2.685l2.46-.375c.15.642.47 1.128.95 1.457.47.324 1.1.486 1.86.486.84 0 1.51-.173 2.01-.52.5-.352.75-.781.75-1.287 0-.409-.16-.752-.46-1.031-.31-.278-.77-.488-1.39-.631l-2.22-.485c-1.22-.279-2.12-.722-2.71-1.33-.58-.608-.87-1.378-.87-2.31 0-.772.22-1.448.65-2.028.43-.579 1.03-1.031 1.79-1.355.76-.33 1.63-.494 2.61-.494 1.42 0 2.53.306 3.35.92.81.608 1.35 1.423 1.61 2.446Zm3.05 9.895v-13.091h2.55V628h-2.55Zm1.29-15.111c-.44 0-.82-.148-1.14-.443-.31-.301-.47-.659-.47-1.074 0-.42.16-.778.47-1.074.32-.301.7-.451 1.14-.451.44 0 .82.15 1.13.451.32.296.48.654.48 1.074 0 .415-.16.773-.48 1.074-.31.295-.69.443-1.13.443Zm10.8 2.02v2.046h-7.15v-2.046h7.15Zm-5.23-3.136h2.55v12.383c0 .495.07.867.22 1.117.15.244.34.412.57.503.24.085.5.127.77.127.21 0 .39-.014.54-.042.16-.029.27-.051.36-.068l.46 2.105c-.15.057-.36.113-.63.17-.27.063-.61.097-1.02.102-.67.012-1.3-.108-1.88-.358a3.152 3.152 0 0 1-1.4-1.159c-.36-.522-.54-1.179-.54-1.968v-12.912Zm13.55 16.491c-1.29 0-2.4-.275-3.33-.826-.93-.557-1.64-1.339-2.15-2.344-.5-1.012-.75-2.196-.75-3.554 0-1.341.25-2.523.75-3.546.51-1.022 1.21-1.821 2.12-2.395.9-.573 1.97-.86 3.18-.86.74 0 1.46.122 2.15.366s1.32.628 1.87 1.151c.55.522.98 1.201 1.3 2.037.32.829.48 1.838.48 3.025v.904h-10.41v-1.91h7.91c0-.67-.14-1.264-.41-1.781a3.045 3.045 0 0 0-1.15-1.236c-.49-.301-1.06-.451-1.72-.451-.72 0-1.34.176-1.88.528-.52.347-.93.801-1.22 1.364a3.867 3.867 0 0 0-.43 1.815v1.492c0 .875.15 1.619.46 2.233a3.31 3.31 0 0 0 1.31 1.406c.55.318 1.2.477 1.95.477.48 0 .92-.068 1.32-.204.4-.143.74-.353 1.03-.631.29-.279.51-.622.66-1.031l2.42.434c-.2.71-.54 1.333-1.04 1.867-.5.528-1.12.94-1.87 1.236-.74.289-1.59.434-2.55.434Zm11.76-2.65-.13.929c-.08.681-.23 1.392-.43 2.13-.2.745-.41 1.435-.62 2.071-.21.637-.39 1.142-.52 1.517h-1.81c.07-.352.18-.829.31-1.431.13-.597.25-1.265.38-2.003.12-.739.22-1.492.28-2.259l.09-.954h2.45Zm-115.61 22.446c-.16-.517-.39-.98-.66-1.39-.28-.414-.6-.767-.98-1.056-.39-.296-.82-.52-1.31-.674a5.215 5.215 0 0 0-1.59-.23c-.99 0-1.87.253-2.66.759-.79.505-1.42 1.247-1.88 2.224-.45.972-.68 2.162-.68 3.571 0 1.415.23 2.611.69 3.588.46.978 1.09 1.719 1.89 2.225.81.505 1.72.758 2.74.758.95 0 1.78-.193 2.48-.579a3.992 3.992 0 0 0 1.64-1.637c.4-.71.59-1.545.59-2.505l.68.127h-4.99v-2.173h6.86v1.986c0 1.466-.31 2.739-.94 3.818a6.355 6.355 0 0 1-2.57 2.489c-1.09.585-2.34.878-3.75.878-1.58 0-2.97-.364-4.16-1.091-1.19-.728-2.11-1.759-2.78-3.094-.66-1.341-.99-2.932-.99-4.773 0-1.392.19-2.642.57-3.75.39-1.108.93-2.048 1.63-2.821a7.15 7.15 0 0 1 2.48-1.781c.96-.415 2-.622 3.13-.622.94 0 1.82.139 2.63.417.82.279 1.55.674 2.19 1.185a6.709 6.709 0 0 1 2.44 4.151h-2.7Zm6.16 11.94v-17.455h6.23c1.35 0 2.48.248 3.37.742.89.494 1.56 1.17 2 2.028.45.853.67 1.813.67 2.881 0 1.074-.23 2.04-.67 2.898-.45.852-1.12 1.528-2.02 2.028-.89.494-2.01.742-3.36.742h-4.28v-2.233h4.04c.86 0 1.55-.148 2.09-.443.53-.302.92-.711 1.17-1.228.25-.517.38-1.105.38-1.764s-.13-1.244-.38-1.756a2.674 2.674 0 0 0-1.18-1.201c-.54-.29-1.24-.435-2.12-.435h-3.3V660h-2.64Zm26.58-17.455h2.64v11.481c0 1.221-.28 2.304-.86 3.247-.57.937-1.38 1.676-2.42 2.216-1.04.534-2.26.801-3.66.801-1.39 0-2.6-.267-3.64-.801-1.04-.54-1.85-1.279-2.42-2.216-.58-.943-.86-2.026-.86-3.247v-11.481h2.63v11.267c0 .79.17 1.492.52 2.106.35.613.85 1.096 1.49 1.448.64.347 1.4.52 2.28.52.89 0 1.66-.173 2.3-.52a3.618 3.618 0 0 0 1.48-1.448c.35-.614.52-1.316.52-2.106v-11.267Zm8.76 15.069-.13.929c-.08.681-.23 1.392-.43 2.13-.2.745-.41 1.435-.62 2.071-.21.637-.39 1.142-.52 1.517h-1.81c.07-.352.18-.829.31-1.431.13-.597.26-1.265.38-2.003a23.7 23.7 0 0 0 .28-2.259l.09-.954h2.45Zm9.88 2.386v-17.455h6.22c1.35 0 2.47.233 3.36.699.9.466 1.57 1.111 2.01 1.935.45.818.67 1.764.67 2.838 0 1.068-.23 2.009-.67 2.821-.45.807-1.12 1.435-2.02 1.884-.89.448-2.01.673-3.36.673h-4.71v-2.267h4.47c.85 0 1.55-.122 2.08-.367.54-.244.93-.599 1.18-1.065.25-.466.38-1.026.38-1.679 0-.659-.13-1.23-.38-1.713-.25-.483-.65-.852-1.19-1.108-.53-.261-1.24-.392-2.1-.392h-3.31V660h-2.63Zm8.61-7.875 4.31 7.875h-3l-4.22-7.875h2.91Zm10.46 8.165c-.83 0-1.58-.154-2.25-.46a3.775 3.775 0 0 1-1.59-1.356c-.39-.59-.58-1.315-.58-2.173 0-.739.14-1.346.42-1.824a3.21 3.21 0 0 1 1.15-1.133 6.174 6.174 0 0 1 1.62-.631c.6-.142 1.21-.25 1.83-.324l1.9-.221c.49-.063.85-.162 1.07-.299.22-.136.33-.358.33-.664v-.06c0-.744-.21-1.321-.63-1.73-.41-.409-1.03-.614-1.86-.614-.85 0-1.53.19-2.02.571-.49.375-.83.793-1.02 1.253l-2.39-.545c.28-.796.7-1.438 1.24-1.927a5.076 5.076 0 0 1 1.9-1.073 7.425 7.425 0 0 1 2.26-.341c.52 0 1.08.062 1.66.187.59.119 1.14.341 1.66.665.51.324.94.787 1.26 1.389.33.597.5 1.372.5 2.327V660h-2.49v-1.79h-.1c-.17.33-.41.654-.74.972-.33.318-.76.582-1.27.792-.52.211-1.14.316-1.86.316Zm.55-2.046c.71 0 1.31-.139 1.81-.417.51-.279.89-.642 1.15-1.091.27-.455.4-.941.4-1.458v-1.687c-.09.091-.27.176-.53.256-.25.073-.55.139-.88.196-.32.051-.65.099-.96.145-.31.039-.57.073-.78.102-.5.062-.95.167-1.36.315-.4.148-.72.361-.97.639-.24.273-.36.637-.36 1.091 0 .631.24 1.108.7 1.432.47.318 1.06.477 1.78.477Zm19.11-8.139-2.31.409a2.614 2.614 0 0 0-.46-.844c-.2-.267-.48-.485-.83-.656-.35-.17-.79-.255-1.32-.255-.72 0-1.33.161-1.81.485-.48.318-.72.73-.72 1.236 0 .438.16.79.48 1.057.33.267.85.486 1.57.656l2.08.477c1.2.279 2.1.708 2.69 1.287.59.58.89 1.333.89 2.259 0 .784-.23 1.483-.68 2.096-.45.608-1.08 1.086-1.89 1.432-.8.347-1.73.52-2.78.52-1.47 0-2.67-.312-3.59-.937-.93-.631-1.5-1.526-1.71-2.685l2.47-.375c.15.642.47 1.128.94 1.457.48.324 1.1.486 1.87.486.83 0 1.5-.173 2-.52.5-.352.75-.781.75-1.287 0-.409-.15-.752-.46-1.031-.3-.278-.76-.488-1.39-.631l-2.21-.485c-1.22-.279-2.13-.722-2.71-1.33-.58-.608-.87-1.378-.87-2.31 0-.772.21-1.448.65-2.028.43-.579 1.02-1.031 1.78-1.355.77-.33 1.64-.494 2.62-.494 1.42 0 2.53.306 3.34.92.81.608 1.35 1.423 1.61 2.446Zm9.17-3.196v2.046h-7.15v-2.046h7.15Zm-5.23-3.136h2.55v12.383c0 .495.07.867.22 1.117.15.244.34.412.57.503.24.085.5.127.77.127.21 0 .39-.014.54-.042.16-.029.27-.051.36-.068l.46 2.105c-.15.057-.36.113-.63.17-.27.063-.61.097-1.02.102-.67.012-1.3-.108-1.88-.358a3.152 3.152 0 0 1-1.4-1.159c-.36-.522-.54-1.179-.54-1.968v-12.912Zm13.55 16.491c-1.29 0-2.4-.275-3.33-.826-.93-.557-1.64-1.339-2.15-2.344-.5-1.012-.75-2.196-.75-3.554 0-1.341.25-2.523.75-3.546.51-1.022 1.21-1.821 2.12-2.395.9-.573 1.97-.86 3.18-.86.74 0 1.46.122 2.15.366s1.32.628 1.87 1.151c.55.522.98 1.201 1.3 2.037.32.829.48 1.838.48 3.025v.904h-10.41v-1.91h7.91c0-.67-.14-1.264-.41-1.781a3.045 3.045 0 0 0-1.15-1.236c-.49-.301-1.06-.451-1.72-.451-.72 0-1.34.176-1.88.528-.52.347-.93.801-1.22 1.364a3.867 3.867 0 0 0-.43 1.815v1.492c0 .875.15 1.619.46 2.233a3.31 3.31 0 0 0 1.31 1.406c.55.318 1.2.477 1.95.477.48 0 .92-.068 1.32-.204.4-.143.74-.353 1.03-.631.29-.279.51-.622.66-1.031l2.42.434c-.2.71-.54 1.333-1.04 1.867-.5.528-1.12.94-1.87 1.236-.74.289-1.59.434-2.55.434Zm8.45-.264v-13.091h2.46v2.08h.14c.23-.705.65-1.259 1.26-1.662.6-.409 1.29-.614 2.06-.614a10.991 10.991 0 0 1 1.08.06v2.437c-.1-.028-.28-.059-.54-.094a5.49 5.49 0 0 0-.79-.059c-.6 0-1.14.128-1.61.383-.46.25-.83.6-1.11 1.049-.27.443-.41.948-.41 1.517V660h-2.54Z"/><rect width="188" height="113" x="1407.5" y="578.5" stroke="#3F8862" rx="7.5"/><g filter="url(#a)" opacity=".9"><circle cx="1596.5" cy="92.5" r="27.5" fill="#D1FAE5" fill-opacity=".35"/></g><circle cx="1595.5" cy="92.5" r="27.5" fill="#D1FAE5" fill-opacity=".1"/><circle cx="1595.5" cy="92.5" r="15" fill="#CEF3E4" stroke="#6EE7B7" stroke-width="5"/><path stroke="#D4D4D8" stroke-dasharray="9 9" stroke-linecap="round" stroke-width="4" d="M1595.5 120v224"/><g filter="url(#b)" opacity=".9"><circle cx="192.5" cy="92.5" r="27.5" fill="#D1FAE5" fill-opacity=".35"/></g><circle cx="191.5" cy="92.5" r="27.5" fill="#D1FAE5" fill-opacity=".1"/><circle cx="191.5" cy="92.5" r="15" fill="#CEF3E4" stroke="#6EE7B7" stroke-width="5"/><path stroke="#D4D4D8" stroke-dasharray="9 9" stroke-linecap="round" stroke-width="4" d="M191.5 120v183"/><path fill="#D4D4D8" d="M23.918 207.545h3.196l5.556 13.569h.205l5.557-13.569h3.196V225h-2.506v-12.631h-.162l-5.148 12.605h-2.079l-5.148-12.613h-.162V225h-2.505v-17.455Zm25.144 17.745c-.83 0-1.58-.154-2.25-.46a3.795 3.795 0 0 1-1.594-1.356c-.386-.59-.58-1.315-.58-2.173 0-.739.143-1.346.427-1.824a3.142 3.142 0 0 1 1.15-1.133 5.989 5.989 0 0 1 1.62-.631c.596-.142 1.204-.25 1.823-.324l1.91-.221c.488-.063.843-.162 1.065-.299.221-.136.332-.358.332-.664v-.06c0-.744-.21-1.321-.63-1.73-.415-.409-1.035-.614-1.858-.614-.858 0-1.534.19-2.029.571-.489.375-.827.793-1.014 1.253l-2.395-.545c.284-.796.699-1.438 1.244-1.927a5.04 5.04 0 0 1 1.9-1.073 7.398 7.398 0 0 1 2.26-.341c.522 0 1.076.062 1.661.187a4.863 4.863 0 0 1 1.654.665c.517.324.94.787 1.27 1.389.33.597.494 1.372.494 2.327V225h-2.489v-1.79h-.102c-.165.33-.412.654-.741.972-.33.318-.753.582-1.27.792-.517.211-1.137.316-1.858.316Zm.554-2.046c.704 0 1.307-.139 1.807-.417.505-.279.889-.642 1.15-1.091.267-.455.4-.941.4-1.458v-1.687c-.09.091-.266.176-.528.256a8.485 8.485 0 0 1-.877.196c-.33.051-.651.099-.964.145-.312.039-.573.073-.784.102a6.272 6.272 0 0 0-1.355.315 2.333 2.333 0 0 0-.971.639c-.239.273-.358.637-.358 1.091 0 .631.233 1.108.698 1.432.466.318 1.06.477 1.782.477Zm9.3 1.756v-13.091h2.549V225h-2.549Zm1.287-15.111c-.443 0-.824-.148-1.142-.443a1.44 1.44 0 0 1-.469-1.074c0-.42.157-.778.47-1.074a1.603 1.603 0 0 1 1.141-.451c.443 0 .821.15 1.134.451.318.296.477.654.477 1.074 0 .415-.16.773-.477 1.074-.313.295-.69.443-1.134.443Zm7.238 7.338V225h-2.548v-13.091h2.446v2.131h.162a3.747 3.747 0 0 1 1.414-1.671c.648-.42 1.464-.63 2.447-.63.892 0 1.673.187 2.343.562.67.369 1.19.921 1.56 1.654.37.732.554 1.639.554 2.718V225H73.27v-8.02c0-.949-.248-1.69-.742-2.224-.494-.54-1.173-.81-2.037-.81-.59 0-1.116.128-1.577.384a2.75 2.75 0 0 0-1.082 1.125c-.261.488-.392 1.079-.392 1.772Zm24.258-5.318v2.046h-7.15v-2.046h7.15Zm-5.233-3.136h2.548v12.383c0 .495.074.867.222 1.117.147.244.338.412.57.503.24.085.498.127.776.127.205 0 .384-.014.537-.042l.358-.068.46 2.105a4.294 4.294 0 0 1-.63.17 4.911 4.911 0 0 1-1.023.102 4.476 4.476 0 0 1-1.875-.358 3.214 3.214 0 0 1-1.406-1.159c-.358-.522-.537-1.179-.537-1.968v-12.912Zm10.881 8.454V225H94.8v-17.455h2.514v6.495h.162a3.762 3.762 0 0 1 1.406-1.679c.631-.415 1.455-.622 2.472-.622.898 0 1.682.184 2.352.554.676.369 1.199.92 1.568 1.653.375.727.563 1.636.563 2.727V225h-2.548v-8.02c0-.96-.248-1.704-.742-2.233-.494-.534-1.182-.801-2.062-.801-.603 0-1.142.128-1.62.384-.471.255-.843.63-1.116 1.125-.267.488-.4 1.079-.4 1.772Zm11.89 7.773v-13.091h2.463v2.08h.136a3.164 3.164 0 0 1 1.261-1.662 3.612 3.612 0 0 1 2.063-.614 11.301 11.301 0 0 1 1.082.06v2.437a4.838 4.838 0 0 0-.545-.094 5.316 5.316 0 0 0-.784-.059c-.603 0-1.14.128-1.611.383a2.851 2.851 0 0 0-1.517 2.566V225h-2.548Zm14.384.264c-1.29 0-2.401-.275-3.333-.826-.926-.557-1.642-1.339-2.147-2.344-.5-1.012-.75-2.196-.75-3.554 0-1.341.25-2.523.75-3.546.505-1.022 1.21-1.821 2.113-2.395.909-.573 1.972-.86 3.188-.86a6.42 6.42 0 0 1 2.147.366 5.189 5.189 0 0 1 1.867 1.151c.551.522.986 1.201 1.304 2.037.318.829.477 1.838.477 3.025v.904h-10.406v-1.91h7.909c0-.67-.136-1.264-.409-1.781a3.102 3.102 0 0 0-1.151-1.236c-.488-.301-1.062-.451-1.721-.451-.716 0-1.341.176-1.875.528a3.535 3.535 0 0 0-1.227 1.364 3.926 3.926 0 0 0-.427 1.815v1.492c0 .875.154 1.619.461 2.233a3.328 3.328 0 0 0 1.304 1.406c.556.318 1.207.477 1.951.477a4.06 4.06 0 0 0 1.321-.204 2.875 2.875 0 0 0 1.032-.631c.289-.279.511-.622.664-1.031l2.412.434a4.367 4.367 0 0 1-1.039 1.867c-.495.528-1.117.94-1.867 1.236-.744.289-1.594.434-2.548.434Zm12.253.026c-.829 0-1.579-.154-2.25-.46a3.796 3.796 0 0 1-1.593-1.356c-.387-.59-.58-1.315-.58-2.173 0-.739.142-1.346.426-1.824a3.142 3.142 0 0 1 1.151-1.133 5.982 5.982 0 0 1 1.619-.631c.597-.142 1.205-.25 1.824-.324l1.909-.221c.489-.063.844-.162 1.065-.299.222-.136.333-.358.333-.664v-.06c0-.744-.211-1.321-.631-1.73-.415-.409-1.034-.614-1.858-.614-.858 0-1.534.19-2.028.571-.489.375-.827.793-1.015 1.253l-2.394-.545c.284-.796.698-1.438 1.244-1.927a5.045 5.045 0 0 1 1.9-1.073 7.4 7.4 0 0 1 2.259-.341c.523 0 1.077.062 1.662.187a4.85 4.85 0 0 1 1.653.665c.517.324.941.787 1.27 1.389.33.597.495 1.372.495 2.327V225h-2.489v-1.79h-.102c-.165.33-.412.654-.742.972-.329.318-.753.582-1.27.792-.517.211-1.136.316-1.858.316Zm.554-2.046c.705 0 1.307-.139 1.807-.417.506-.279.889-.642 1.151-1.091.267-.455.4-.941.4-1.458v-1.687c-.091.091-.267.176-.528.256a8.478 8.478 0 0 1-.878.196c-.33.051-.651.099-.963.145-.313.039-.574.073-.784.102a6.26 6.26 0 0 0-1.355.315 2.328 2.328 0 0 0-.972.639c-.239.273-.358.637-.358 1.091 0 .631.233 1.108.699 1.432.466.318 1.06.477 1.781.477Zm14.201 2.012c-1.057 0-2-.27-2.829-.81-.824-.545-1.472-1.321-1.943-2.327-.466-1.011-.699-2.224-.699-3.639 0-1.415.235-2.625.707-3.631.477-1.005 1.131-1.775 1.96-2.309.83-.534 1.77-.801 2.821-.801.813 0 1.466.136 1.961.409.5.267.886.579 1.159.937.278.358.494.674.647.946h.154v-6.486h2.548V225h-2.489v-2.037h-.213a6.788 6.788 0 0 1-.664.955c-.285.358-.677.67-1.177.937s-1.147.401-1.943.401Zm.563-2.174c.733 0 1.352-.193 1.858-.579.511-.392.897-.935 1.159-1.628.267-.693.4-1.5.4-2.42 0-.91-.13-1.705-.392-2.387-.261-.682-.645-1.213-1.15-1.594-.506-.38-1.131-.571-1.875-.571-.767 0-1.406.199-1.918.597-.511.398-.898.94-1.159 1.628-.256.687-.383 1.463-.383 2.327 0 .875.13 1.661.392 2.36.261.699.647 1.253 1.159 1.662.517.404 1.153.605 1.909.605ZM136.551 8.545V26h-2.633V8.545h2.633Zm6.179 9.682V26h-2.548V12.91h2.446v2.13h.162a3.742 3.742 0 0 1 1.415-1.67c.647-.421 1.463-.631 2.446-.631.892 0 1.673.187 2.343.562.671.37 1.191.92 1.56 1.653s.554 1.64.554 2.72V26h-2.548v-8.02c0-.949-.247-1.69-.742-2.224-.494-.54-1.173-.81-2.037-.81-.591 0-1.116.128-1.576.383a2.76 2.76 0 0 0-1.083 1.125c-.261.49-.392 1.08-.392 1.773Zm17.906-5.318v2.045h-7.15V12.91h7.15Zm-5.233-3.136h2.549v12.383c0 .495.074.867.221 1.117.148.244.338.412.571.503.239.085.497.127.776.127.204 0 .383-.014.537-.042l.358-.068.46 2.105a4.29 4.29 0 0 1-.631.17 4.98 4.98 0 0 1-1.022.102 4.484 4.484 0 0 1-1.875-.358 3.216 3.216 0 0 1-1.407-1.159c-.358-.522-.537-1.179-.537-1.968V9.773Zm13.554 16.491c-1.29 0-2.401-.275-3.333-.826-.926-.557-1.642-1.339-2.147-2.344-.5-1.012-.75-2.196-.75-3.554 0-1.341.25-2.523.75-3.546.505-1.022 1.21-1.82 2.113-2.395.909-.573 1.972-.86 3.188-.86a6.42 6.42 0 0 1 2.147.366 5.196 5.196 0 0 1 1.867 1.15c.551.523.986 1.202 1.304 2.038.318.83.477 1.838.477 3.025v.904h-10.406v-1.91h7.909c0-.67-.136-1.264-.409-1.78a3.091 3.091 0 0 0-1.151-1.236c-.488-.302-1.062-.452-1.721-.452-.716 0-1.341.176-1.875.528a3.545 3.545 0 0 0-1.228 1.364 3.937 3.937 0 0 0-.426 1.815v1.492c0 .875.154 1.619.461 2.233a3.324 3.324 0 0 0 1.304 1.406c.556.318 1.207.477 1.951.477a4.06 4.06 0 0 0 1.321-.204 2.855 2.855 0 0 0 1.032-.631c.289-.279.511-.622.664-1.031l2.412.434a4.367 4.367 0 0 1-1.04 1.867c-.494.528-1.116.94-1.866 1.235-.744.29-1.594.435-2.548.435Zm8.444-.264V12.91h2.463v2.079H180a3.167 3.167 0 0 1 1.261-1.662 3.611 3.611 0 0 1 2.063-.614 10.834 10.834 0 0 1 1.082.06v2.437a4.566 4.566 0 0 0-.545-.094 5.21 5.21 0 0 0-.784-.06c-.603 0-1.139.129-1.611.384a2.851 2.851 0 0 0-1.517 2.566V26h-2.548Zm12.903.29c-.83 0-1.58-.154-2.25-.46a3.793 3.793 0 0 1-1.594-1.356c-.386-.59-.579-1.315-.579-2.173 0-.738.142-1.346.426-1.824a3.142 3.142 0 0 1 1.15-1.133 6.005 6.005 0 0 1 1.62-.63c.596-.143 1.204-.25 1.824-.325l1.909-.221c.488-.063.843-.162 1.065-.299.222-.136.332-.358.332-.665v-.06c0-.743-.21-1.32-.63-1.73-.415-.408-1.034-.613-1.858-.613-.858 0-1.534.19-2.029.571-.488.375-.826.793-1.014 1.253l-2.395-.546c.284-.795.699-1.437 1.245-1.926a5.043 5.043 0 0 1 1.9-1.074 7.424 7.424 0 0 1 2.259-.34 7.98 7.98 0 0 1 1.662.187 4.86 4.86 0 0 1 1.653.665c.517.324.94.787 1.27 1.39.329.596.494 1.371.494 2.326V26h-2.488v-1.79h-.103a3.61 3.61 0 0 1-.741.972c-.33.318-.753.582-1.27.792-.517.21-1.136.316-1.858.316Zm.554-2.046c.705 0 1.307-.139 1.807-.417.505-.279.889-.642 1.15-1.091a2.83 2.83 0 0 0 .401-1.458v-1.687c-.091.09-.267.176-.528.256a8.537 8.537 0 0 1-.878.196l-.963.145c-.313.04-.574.073-.785.102a6.321 6.321 0 0 0-1.355.315c-.403.148-.727.36-.971.64-.239.272-.358.636-.358 1.09 0 .63.233 1.108.699 1.432.466.318 1.059.477 1.781.477Zm14.815 2.02c-1.267 0-2.358-.287-3.273-.86-.909-.58-1.608-1.378-2.097-2.395-.488-1.018-.733-2.182-.733-3.495 0-1.33.25-2.503.75-3.52.5-1.022 1.205-1.82 2.114-2.395.909-.573 1.98-.86 3.213-.86.994 0 1.881.184 2.659.554a4.771 4.771 0 0 1 1.884 1.534c.483.659.77 1.429.86 2.31h-2.48a2.973 2.973 0 0 0-.937-1.586c-.483-.443-1.131-.665-1.943-.665-.711 0-1.333.188-1.867.563-.528.37-.94.898-1.236 1.585-.295.682-.443 1.489-.443 2.42 0 .955.145 1.779.435 2.472.29.693.699 1.23 1.227 1.61.534.382 1.162.572 1.884.572.483 0 .92-.088 1.312-.264.398-.182.73-.44.997-.776.273-.335.463-.739.571-1.21h2.48a4.81 4.81 0 0 1-.826 2.267 4.762 4.762 0 0 1-1.85 1.568c-.767.38-1.667.571-2.701.571Zm14.213-13.355v2.045h-7.15V12.91h7.15Zm-5.233-3.136h2.549v12.383c0 .495.074.867.221 1.117.148.244.338.412.571.503.239.085.497.127.776.127.204 0 .383-.014.537-.042l.358-.068.46 2.105a4.29 4.29 0 0 1-.631.17 4.98 4.98 0 0 1-1.022.102 4.484 4.484 0 0 1-1.875-.358 3.216 3.216 0 0 1-1.407-1.159c-.358-.522-.537-1.179-.537-1.968V9.773ZM222.705 26V12.91h2.549V26h-2.549Zm1.287-15.11a1.62 1.62 0 0 1-1.142-.444 1.443 1.443 0 0 1-.469-1.074c0-.42.157-.778.469-1.074a1.603 1.603 0 0 1 1.142-.451c.443 0 .821.15 1.134.451.318.296.477.654.477 1.074 0 .415-.159.773-.477 1.074a1.592 1.592 0 0 1-1.134.443Zm10.204 15.374c-1.227 0-2.298-.281-3.213-.843-.915-.563-1.625-1.35-2.131-2.361-.505-1.012-.758-2.194-.758-3.546 0-1.358.253-2.545.758-3.562.506-1.017 1.216-1.807 2.131-2.37.915-.562 1.986-.843 3.213-.843s2.298.28 3.213.843 1.625 1.353 2.131 2.37c.505 1.017.758 2.204.758 3.562 0 1.352-.253 2.534-.758 3.546-.506 1.011-1.216 1.798-2.131 2.36-.915.563-1.986.844-3.213.844Zm.009-2.139c.795 0 1.454-.21 1.977-.63.523-.421.909-.98 1.159-1.68.256-.699.383-1.468.383-2.31 0-.834-.127-1.602-.383-2.3-.25-.705-.636-1.27-1.159-1.696-.523-.427-1.182-.64-1.977-.64-.802 0-1.466.213-1.995.64-.522.426-.912.991-1.167 1.695a6.789 6.789 0 0 0-.375 2.302c0 .84.125 1.61.375 2.31.255.698.645 1.258 1.167 1.678.529.42 1.193.631 1.995.631Zm11.486-5.898V26h-2.548V12.91h2.446v2.13h.162a3.74 3.74 0 0 1 1.414-1.67c.648-.421 1.464-.631 2.447-.631.892 0 1.673.187 2.343.562.671.37 1.191.92 1.56 1.653s.554 1.64.554 2.72V26h-2.548v-8.02c0-.949-.248-1.69-.742-2.224-.494-.54-1.173-.81-2.037-.81-.591 0-1.116.128-1.577.383a2.76 2.76 0 0 0-1.082 1.125c-.261.49-.392 1.08-.392 1.773ZM1520.44 8.545l4.86 14.216h.2l4.86-14.216h2.84L1526.92 26h-3.04l-6.28-17.455h2.84ZM1535.52 26V12.91h2.55V26h-2.55Zm1.28-15.11c-.44 0-.82-.149-1.14-.444-.31-.301-.47-.66-.47-1.074 0-.42.16-.778.47-1.074.32-.3.7-.451 1.14-.451.45 0 .83.15 1.14.451.32.296.48.654.48 1.074 0 .415-.16.773-.48 1.074a1.59 1.59 0 0 1-1.14.443Zm14.5 5.215-2.31.41a2.607 2.607 0 0 0-.46-.845c-.2-.267-.48-.485-.83-.656-.35-.17-.79-.255-1.32-.255-.72 0-1.33.162-1.81.485-.48.319-.72.73-.72 1.236 0 .438.16.79.48 1.057.33.267.85.486 1.57.656l2.08.477c1.2.279 2.1.708 2.69 1.287.59.58.89 1.333.89 2.259a3.46 3.46 0 0 1-.68 2.096c-.45.608-1.08 1.086-1.89 1.432-.8.347-1.73.52-2.78.52-1.47 0-2.66-.312-3.59-.937-.93-.631-1.49-1.526-1.71-2.685l2.47-.375c.15.642.47 1.128.94 1.457.48.324 1.1.486 1.87.486.84 0 1.5-.173 2-.52.5-.352.75-.78.75-1.287 0-.409-.15-.752-.46-1.03-.3-.28-.76-.49-1.39-.632l-2.21-.485c-1.22-.279-2.13-.722-2.71-1.33-.58-.608-.87-1.378-.87-2.31 0-.772.21-1.448.65-2.028.43-.58 1.02-1.031 1.79-1.355.76-.33 1.63-.494 2.61-.494 1.42 0 2.53.306 3.34.92.82.608 1.35 1.423 1.61 2.446Zm11.35 4.466v-7.662h2.56V26h-2.5v-2.267h-.14c-.3.699-.79 1.281-1.45 1.747-.66.46-1.48.69-2.46.69-.84 0-1.59-.184-2.24-.554-.64-.375-1.14-.928-1.51-1.662-.37-.732-.55-1.639-.55-2.718v-8.327h2.55v8.02c0 .892.25 1.602.74 2.13.5.53 1.14.793 1.93.793.47 0 .95-.119 1.42-.358.48-.238.87-.6 1.19-1.082.31-.483.47-1.097.46-1.841Zm9.79 5.719a5.42 5.42 0 0 1-2.25-.46 3.77 3.77 0 0 1-1.59-1.356c-.39-.59-.58-1.315-.58-2.173 0-.738.14-1.346.43-1.824.28-.477.67-.855 1.15-1.133a5.928 5.928 0 0 1 1.62-.63c.59-.143 1.2-.25 1.82-.325.79-.09 1.42-.165 1.91-.221.49-.063.84-.162 1.07-.299.22-.136.33-.358.33-.665v-.06c0-.743-.21-1.32-.63-1.73-.42-.408-1.04-.613-1.86-.613-.86 0-1.53.19-2.03.571-.49.375-.83.793-1.01 1.253l-2.4-.546c.29-.795.7-1.437 1.25-1.926a5.006 5.006 0 0 1 1.9-1.074c.71-.227 1.47-.34 2.26-.34.52 0 1.07.062 1.66.187.59.12 1.14.341 1.65.665.52.324.94.787 1.27 1.39.33.596.49 1.371.49 2.326V26h-2.48v-1.79h-.11c-.16.33-.41.654-.74.972-.33.318-.75.582-1.27.792-.51.21-1.13.316-1.86.316Zm.56-2.046c.7 0 1.31-.139 1.81-.417.5-.279.88-.642 1.15-1.091.26-.455.4-.94.4-1.458v-1.687c-.09.09-.27.176-.53.256-.26.073-.55.139-.88.196l-.96.145c-.32.04-.58.073-.79.102-.49.062-.94.167-1.35.315-.41.148-.73.36-.97.64-.24.272-.36.636-.36 1.09 0 .63.23 1.108.7 1.432.46.318 1.06.477 1.78.477Zm11.85-15.699V26h-2.55V8.545h2.55Zm18.07 12.026v-7.662h2.56V26h-2.51v-2.267h-.14c-.3.699-.78 1.281-1.44 1.747-.66.46-1.48.69-2.47.69-.84 0-1.58-.184-2.23-.554-.64-.375-1.15-.928-1.52-1.662-.36-.732-.54-1.639-.54-2.718v-8.327h2.55v8.02c0 .892.24 1.602.74 2.13.49.53 1.13.793 1.92.793.48 0 .95-.119 1.43-.358.47-.238.87-.6 1.18-1.082.32-.483.48-1.097.47-1.841Zm5.98 10.338v-18h2.49v2.122h.21c.15-.273.36-.588.64-.946s.67-.67 1.16-.937c.49-.273 1.15-.41 1.96-.41 1.06 0 2 .268 2.83.802.83.534 1.48 1.304 1.95 2.31.48 1.005.72 2.215.72 3.63s-.24 2.628-.71 3.64c-.47 1.005-1.12 1.78-1.94 2.326-.83.54-1.77.81-2.82.81-.8 0-1.45-.134-1.96-.4-.5-.268-.89-.58-1.17-.938a7.26 7.26 0 0 1-.66-.955h-.15v6.946h-2.55Zm2.5-11.454c0 .92.13 1.727.4 2.42.27.693.65 1.236 1.16 1.628.5.386 1.12.58 1.86.58.76 0 1.39-.202 1.9-.606.52-.409.9-.963 1.16-1.662.27-.699.4-1.486.4-2.36 0-.864-.13-1.64-.39-2.327-.25-.688-.64-1.23-1.16-1.628-.51-.398-1.15-.597-1.91-.597-.74 0-1.37.19-1.88.571-.51.381-.89.912-1.15 1.594-.26.682-.39 1.477-.39 2.386Zm17.21 6.8c-1.05 0-2-.27-2.83-.809-.82-.545-1.47-1.321-1.94-2.327-.46-1.011-.7-2.224-.7-3.639 0-1.415.24-2.625.71-3.63.48-1.006 1.13-1.776 1.96-2.31.83-.534 1.77-.801 2.82-.801.81 0 1.47.136 1.96.409.5.267.89.58 1.16.937.28.358.49.673.65.946h.15V8.545h2.55V26h-2.49v-2.037h-.21c-.16.278-.38.597-.67.955-.28.358-.67.67-1.17.937-.5.267-1.15.4-1.95.4Zm.57-2.173c.73 0 1.35-.193 1.85-.58.52-.391.9-.934 1.16-1.627.27-.693.4-1.5.4-2.42 0-.91-.13-1.705-.39-2.387-.26-.682-.64-1.213-1.15-1.594-.5-.38-1.13-.57-1.87-.57-.77 0-1.41.198-1.92.596-.51.398-.9.94-1.16 1.628-.26.687-.38 1.463-.38 2.326 0 .875.13 1.662.39 2.361.26.7.65 1.253 1.16 1.662.51.404 1.15.605 1.91.605Zm13.37 2.208c-.83 0-1.58-.154-2.25-.46a3.798 3.798 0 0 1-1.6-1.356c-.38-.59-.58-1.315-.58-2.173 0-.738.14-1.346.43-1.824.28-.477.67-.855 1.15-1.133a5.928 5.928 0 0 1 1.62-.63c.6-.143 1.2-.25 1.82-.325.79-.09 1.42-.165 1.91-.221.49-.063.85-.162 1.07-.299.22-.136.33-.358.33-.665v-.06c0-.743-.21-1.32-.63-1.73-.42-.408-1.04-.613-1.86-.613-.86 0-1.53.19-2.03.571-.49.375-.82.793-1.01 1.253l-2.4-.546c.29-.795.7-1.437 1.25-1.926a5.006 5.006 0 0 1 1.9-1.074c.71-.227 1.47-.34 2.26-.34.52 0 1.07.062 1.66.187.59.12 1.14.341 1.65.665.52.324.94.787 1.27 1.39.33.596.5 1.371.5 2.326V26h-2.49v-1.79h-.1c-.17.33-.42.654-.75.972-.33.318-.75.582-1.27.792-.51.21-1.13.316-1.85.316Zm.55-2.046c.7 0 1.31-.139 1.81-.417.5-.279.89-.642 1.15-1.091.26-.455.4-.94.4-1.458v-1.687c-.09.09-.27.176-.53.256-.26.073-.55.139-.88.196l-.96.145c-.31.04-.58.073-.79.102-.49.062-.94.167-1.35.315-.4.148-.73.36-.97.64-.24.272-.36.636-.36 1.09 0 .63.23 1.108.7 1.432.46.318 1.06.477 1.78.477Zm15.41-11.335v2.045h-7.15V12.91h7.15Zm-5.23-3.136h2.55v12.383c0 .495.07.867.22 1.117.15.244.34.412.57.503.24.085.5.127.77.127.21 0 .39-.014.54-.042.16-.029.27-.051.36-.068l.46 2.105c-.15.056-.36.113-.63.17-.27.063-.61.097-1.02.102-.67.012-1.3-.108-1.88-.358a3.154 3.154 0 0 1-1.4-1.159c-.36-.522-.54-1.179-.54-1.968V9.773Zm13.55 16.491c-1.29 0-2.4-.275-3.33-.826-.93-.557-1.64-1.339-2.15-2.344-.5-1.012-.75-2.196-.75-3.554 0-1.341.25-2.523.75-3.546.51-1.022 1.21-1.82 2.12-2.395.9-.573 1.97-.86 3.18-.86.74 0 1.46.122 2.15.366s1.32.628 1.87 1.15c.55.523.98 1.202 1.3 2.038.32.83.48 1.838.48 3.025v.904h-10.41v-1.91h7.91c0-.67-.14-1.264-.41-1.78a3.034 3.034 0 0 0-1.15-1.236c-.49-.302-1.06-.452-1.72-.452-.72 0-1.34.176-1.88.528-.52.347-.93.801-1.22 1.364a3.867 3.867 0 0 0-.43 1.815v1.492c0 .875.15 1.619.46 2.233a3.31 3.31 0 0 0 1.31 1.406c.55.318 1.2.477 1.95.477.48 0 .92-.068 1.32-.204.4-.142.74-.353 1.03-.631.29-.279.51-.622.66-1.031l2.42.434c-.2.71-.54 1.333-1.04 1.867-.5.528-1.12.94-1.87 1.235-.74.29-1.59.435-2.55.435Z"/><path stroke="#F4F4F5" stroke-linecap="round" stroke-width="4" d="M191 447v24"/><path fill="#F4F4F5" d="M191 457a2 2 0 1 0 0 4v-4Zm0 4h44.5v-4H191v4Zm64.189-12.818V470h-3.292v-21.818h3.292Zm7.724 12.102V470h-3.186v-16.364h3.058v2.664h.202a4.674 4.674 0 0 1 1.769-2.088c.809-.526 1.829-.789 3.057-.789 1.115 0 2.092.235 2.93.703.838.462 1.488 1.151 1.949 2.067.462.916.693 2.049.693 3.399V470H270.2v-10.025c0-1.186-.309-2.113-.927-2.78-.618-.675-1.467-1.012-2.546-1.012-.739 0-1.396.159-1.971.479-.568.32-1.019.788-1.353 1.406-.327.611-.49 1.35-.49 2.216Zm14.744 15.852v-22.5h3.111v2.653h.266a8.9 8.9 0 0 1 .799-1.182c.348-.448.831-.839 1.449-1.172.618-.341 1.435-.512 2.45-.512 1.321 0 2.5.334 3.537 1.002 1.037.667 1.85 1.63 2.44 2.887.596 1.257.895 2.77.895 4.538 0 1.769-.295 3.285-.885 4.549-.589 1.257-1.399 2.227-2.429 2.909-1.029.674-2.205 1.012-3.526 1.012-.994 0-1.807-.167-2.439-.501-.625-.334-1.115-.725-1.471-1.172a8.87 8.87 0 0 1-.82-1.193h-.192v8.682h-3.185Zm3.121-14.318c0 1.151.167 2.159.501 3.026.334.866.817 1.544 1.449 2.035.632.483 1.406.724 2.322.724.952 0 1.748-.252 2.387-.756.639-.512 1.122-1.204 1.449-2.078.333-.873.5-1.857.5-2.951 0-1.079-.163-2.049-.49-2.908-.319-.86-.802-1.538-1.449-2.035-.639-.497-1.438-.746-2.397-.746-.923 0-1.704.238-2.343.714-.632.476-1.112 1.14-1.439 1.992-.326.852-.49 1.847-.49 2.983Zm25.76 1.396v-9.578h3.196V470h-3.132v-2.834h-.17c-.377.874-.98 1.602-1.811 2.184-.824.575-1.85.863-3.079.863-1.051 0-1.982-.231-2.791-.692-.803-.469-1.435-1.162-1.897-2.078-.454-.916-.681-2.049-.681-3.398v-10.409h3.185v10.025c0 1.115.309 2.003.927 2.664.618.66 1.42.99 2.407.99.597 0 1.19-.149 1.78-.447a3.74 3.74 0 0 0 1.48-1.353c.398-.604.593-1.371.586-2.301Zm15.115-9.578v2.557h-8.938v-2.557h8.938Zm-6.541-3.92h3.185v15.479c0 .618.092 1.083.277 1.396.185.305.423.515.714.628.298.107.621.16.969.16.256 0 .48-.017.671-.053l.448-.085.575 2.631a5.324 5.324 0 0 1-.788.213 6.241 6.241 0 0 1-1.279.128 5.615 5.615 0 0 1-2.343-.447 4.022 4.022 0 0 1-1.758-1.449c-.448-.654-.671-1.474-.671-2.461v-16.14Zm24.13 20.604c-1.321 0-2.5-.338-3.537-1.012-1.03-.682-1.84-1.652-2.429-2.909-.583-1.264-.874-2.78-.874-4.549 0-1.768.295-3.281.884-4.538.597-1.257 1.414-2.22 2.451-2.887 1.037-.668 2.212-1.002 3.526-1.002 1.016 0 1.832.171 2.45.512.625.333 1.108.724 1.449 1.172.348.447.618.841.81 1.182h.192v-8.107h3.185V470h-3.111v-2.546h-.266a8.442 8.442 0 0 1-.831 1.193c-.355.447-.845.838-1.47 1.172-.625.334-1.435.501-2.429.501Zm.703-2.717c.916 0 1.69-.241 2.322-.724.639-.491 1.122-1.169 1.449-2.035.334-.867.501-1.875.501-3.026 0-1.136-.164-2.131-.49-2.983-.327-.852-.806-1.516-1.438-1.992-.633-.476-1.414-.714-2.344-.714-.959 0-1.758.249-2.397.746-.639.497-1.122 1.175-1.449 2.035-.32.859-.48 1.829-.48 2.908 0 1.094.164 2.078.491 2.951.326.874.809 1.566 1.448 2.078.647.504 1.442.756 2.387.756Zm19.003 2.727c-1.612 0-3.001-.344-4.166-1.033-1.157-.696-2.052-1.673-2.684-2.93-.625-1.264-.938-2.745-.938-4.442 0-1.676.313-3.154.938-4.432.632-1.279 1.512-2.276 2.642-2.994 1.136-.717 2.464-1.076 3.984-1.076.923 0 1.818.153 2.685.458a6.51 6.51 0 0 1 2.333 1.439c.689.653 1.232 1.502 1.63 2.546.398 1.037.596 2.297.596 3.782v1.129h-13.007v-2.386h9.886c0-.838-.171-1.581-.511-2.227a3.875 3.875 0 0 0-1.439-1.545c-.61-.376-1.328-.564-2.152-.564-.895 0-1.676.22-2.343.66a4.428 4.428 0 0 0-1.534 1.705 4.908 4.908 0 0 0-.533 2.269v1.864c0 1.094.192 2.024.575 2.791.391.768.934 1.353 1.63 1.758.696.398 1.509.597 2.44.597.603 0 1.154-.085 1.651-.256.497-.177.927-.44 1.289-.788.362-.348.639-.778.831-1.289l3.015.543a5.45 5.45 0 0 1-1.3 2.333c-.618.661-1.395 1.176-2.333 1.545-.93.362-1.992.543-3.185.543Zm13.74-22.148V470h-3.185v-21.818h3.185Zm9.047 22.18c-1.036 0-1.974-.192-2.812-.575a4.738 4.738 0 0 1-1.992-1.694c-.483-.739-.725-1.644-.725-2.717 0-.923.178-1.683.533-2.279a3.932 3.932 0 0 1 1.438-1.417 7.54 7.54 0 0 1 2.024-.789 20.192 20.192 0 0 1 2.28-.404l2.387-.277c.61-.079 1.054-.203 1.331-.373.277-.171.416-.448.416-.831v-.075c0-.93-.263-1.651-.789-2.163-.518-.511-1.292-.767-2.322-.767-1.073 0-1.918.238-2.536.714-.61.469-1.033.991-1.267 1.566l-2.994-.682c.355-.994.874-1.796 1.555-2.407a6.31 6.31 0 0 1 2.376-1.343 9.278 9.278 0 0 1 2.823-.426c.654 0 1.346.078 2.078.235a6.074 6.074 0 0 1 2.066.831c.647.404 1.176.983 1.588 1.736.412.746.618 1.715.618 2.909V470H386.7v-2.237h-.128c-.206.412-.515.817-.927 1.214-.412.398-.941.728-1.587.991s-1.421.394-2.323.394Zm.693-2.557c.881 0 1.633-.174 2.258-.522.633-.348 1.112-.802 1.439-1.363.333-.568.5-1.176.5-1.822v-2.109c-.113.113-.333.22-.66.319-.32.093-.686.174-1.097.245-.412.064-.814.125-1.204.181-.391.05-.718.093-.98.128a7.924 7.924 0 0 0-1.694.394c-.505.185-.909.451-1.215.799-.298.341-.447.796-.447 1.364 0 .788.291 1.385.873 1.79.583.398 1.325.596 2.227.596Zm13.053 8.331a6.66 6.66 0 0 1-1.3-.117c-.39-.071-.682-.149-.873-.234l.767-2.61c.582.156 1.101.223 1.555.202a1.863 1.863 0 0 0 1.204-.511c.355-.32.668-.842.937-1.566l.395-1.087-5.988-16.577h3.41l4.144 12.699h.17l4.144-12.699h3.42l-6.744 18.548c-.312.852-.71 1.573-1.193 2.163a4.633 4.633 0 0 1-1.726 1.342c-.667.298-1.441.447-2.322.447Z"/><path stroke="#F4F4F5" stroke-linecap="round" stroke-width="4" d="M467 471v-24"/><path fill="#F4F4F5" d="M467 461a2 2 0 1 0 0-4v4Zm0-4h-44.5v4H467v-4Z"/><path fill="#F4F4F5" d="M467 457a2 2 0 1 0 0 4v-4Zm0 4h147.5v-4H467v4Zm163.897 9v-21.818h7.777c1.697 0 3.104.309 4.219.927 1.115.618 1.949 1.463 2.503 2.535.554 1.066.831 2.266.831 3.601 0 1.342-.28 2.55-.841 3.622-.554 1.066-1.392 1.911-2.515 2.536-1.115.618-2.517.927-4.208.927h-5.348v-2.792h5.05c1.073 0 1.943-.184 2.61-.554.668-.376 1.158-.887 1.47-1.534.313-.646.469-1.381.469-2.205 0-.824-.156-1.555-.469-2.195-.312-.639-.806-1.139-1.481-1.502-.667-.362-1.548-.543-2.642-.543h-4.133V470h-3.292Zm18.934 0v-16.364h3.079v2.6h.17a3.957 3.957 0 0 1 1.577-2.078c.76-.511 1.619-.767 2.578-.767.199 0 .433.007.703.022.277.014.494.032.65.053v3.047a5.498 5.498 0 0 0-.682-.117 6.468 6.468 0 0 0-.98-.075c-.753 0-1.424.16-2.014.479a3.561 3.561 0 0 0-1.384 1.311c-.341.554-.512 1.186-.512 1.896V470h-3.185Zm17.82.33c-1.534 0-2.873-.351-4.016-1.054-1.144-.704-2.031-1.687-2.663-2.951-.633-1.265-.949-2.742-.949-4.432 0-1.698.316-3.182.949-4.453.632-1.272 1.519-2.259 2.663-2.962 1.143-.703 2.482-1.055 4.016-1.055 1.534 0 2.873.352 4.017 1.055 1.143.703 2.031 1.69 2.663 2.962.632 1.271.948 2.755.948 4.453 0 1.69-.316 3.167-.948 4.432-.632 1.264-1.52 2.247-2.663 2.951-1.144.703-2.483 1.054-4.017 1.054Zm.011-2.674c.994 0 1.818-.263 2.472-.788.653-.526 1.136-1.225 1.448-2.099.32-.873.48-1.836.48-2.887 0-1.044-.16-2.003-.48-2.876-.312-.881-.795-1.588-1.448-2.12-.654-.533-1.478-.799-2.472-.799-1.001 0-1.832.266-2.493.799-.653.532-1.14 1.239-1.459 2.12-.313.873-.469 1.832-.469 2.876 0 1.051.156 2.014.469 2.887.319.874.806 1.573 1.459 2.099.661.525 1.492.788 2.493.788Zm18.065 2.674c-1.583 0-2.947-.358-4.09-1.076-1.137-.724-2.01-1.722-2.621-2.993-.611-1.272-.916-2.728-.916-4.368 0-1.662.312-3.129.937-4.4.625-1.279 1.506-2.276 2.642-2.994 1.137-.717 2.475-1.076 4.016-1.076 1.243 0 2.351.231 3.324.693.973.454 1.758 1.094 2.355 1.917.603.824.962 1.787 1.076 2.887h-3.1c-.171-.767-.561-1.427-1.172-1.981-.604-.554-1.414-.831-2.429-.831-.888 0-1.666.234-2.333.703-.661.462-1.176 1.122-1.545 1.982-.369.852-.554 1.86-.554 3.025 0 1.193.181 2.223.543 3.09.362.866.874 1.537 1.534 2.013.668.476 1.453.714 2.355.714.603 0 1.15-.11 1.64-.33a3.356 3.356 0 0 0 1.247-.97c.341-.419.579-.923.714-1.513h3.1c-.114 1.059-.458 2.003-1.034 2.834-.575.831-1.346 1.485-2.311 1.96-.959.476-2.085.714-3.378.714Zm17.182 0c-1.612 0-3.001-.344-4.166-1.033-1.157-.696-2.052-1.673-2.684-2.93-.625-1.264-.938-2.745-.938-4.442 0-1.676.313-3.154.938-4.432.632-1.279 1.512-2.276 2.642-2.994 1.136-.717 2.464-1.076 3.984-1.076.923 0 1.818.153 2.685.458a6.51 6.51 0 0 1 2.333 1.439c.689.653 1.232 1.502 1.63 2.546.397 1.037.596 2.297.596 3.782v1.129h-13.007v-2.386h9.886c0-.838-.171-1.581-.511-2.227a3.875 3.875 0 0 0-1.439-1.545c-.61-.376-1.328-.564-2.152-.564-.895 0-1.676.22-2.343.66a4.438 4.438 0 0 0-1.535 1.705 4.92 4.92 0 0 0-.532 2.269v1.864c0 1.094.192 2.024.575 2.791.391.768.934 1.353 1.63 1.758.696.398 1.509.597 2.44.597.603 0 1.154-.085 1.651-.256.497-.177.927-.44 1.289-.788.362-.348.639-.778.831-1.289l3.015.543a5.46 5.46 0 0 1-1.3 2.333c-.618.661-1.395 1.176-2.333 1.545-.93.362-1.992.543-3.185.543Zm22.817-12.699-2.887.512a3.42 3.42 0 0 0-.576-1.055c-.255-.334-.603-.607-1.044-.82-.44-.213-.99-.32-1.651-.32-.902 0-1.655.203-2.259.607-.603.398-.905.913-.905 1.545 0 .547.202.987.607 1.321.405.334 1.058.607 1.96.82l2.6.597c1.506.348 2.628.884 3.366 1.609.739.724 1.108 1.665 1.108 2.823 0 .98-.284 1.854-.852 2.621-.561.76-1.346 1.356-2.354 1.789-1.002.434-2.163.65-3.484.65-1.832 0-3.327-.39-4.485-1.172-1.158-.788-1.868-1.907-2.131-3.355l3.079-.469c.192.802.586 1.41 1.183 1.822.596.404 1.374.607 2.333.607 1.044 0 1.878-.217 2.503-.65.625-.44.938-.977.938-1.609 0-.511-.192-.941-.576-1.289-.376-.348-.955-.611-1.736-.788l-2.77-.607c-1.527-.348-2.656-.902-3.388-1.662-.724-.76-1.086-1.723-1.086-2.887 0-.966.269-1.811.809-2.536.54-.724 1.286-1.289 2.237-1.694.952-.412 2.042-.618 3.271-.618 1.769 0 3.161.384 4.176 1.151 1.016.76 1.687 1.779 2.014 3.057Zm16.084 0-2.887.512a3.42 3.42 0 0 0-.576-1.055c-.255-.334-.603-.607-1.044-.82-.44-.213-.99-.32-1.651-.32-.902 0-1.655.203-2.259.607-.603.398-.905.913-.905 1.545 0 .547.202.987.607 1.321.405.334 1.058.607 1.96.82l2.6.597c1.506.348 2.628.884 3.366 1.609.739.724 1.108 1.665 1.108 2.823 0 .98-.284 1.854-.852 2.621-.561.76-1.346 1.356-2.354 1.789-1.002.434-2.163.65-3.484.65-1.832 0-3.327-.39-4.485-1.172-1.158-.788-1.868-1.907-2.131-3.355l3.079-.469c.192.802.586 1.41 1.183 1.822.596.404 1.374.607 2.333.607 1.044 0 1.878-.217 2.503-.65.625-.44.938-.977.938-1.609 0-.511-.192-.941-.576-1.289-.376-.348-.955-.611-1.736-.788l-2.77-.607c-1.527-.348-2.656-.902-3.388-1.662-.724-.76-1.086-1.723-1.086-2.887 0-.966.269-1.811.809-2.536.54-.724 1.286-1.289 2.237-1.694.952-.412 2.042-.618 3.271-.618 1.768 0 3.161.384 4.176 1.151 1.016.76 1.687 1.779 2.014 3.057ZM745.632 470v-16.364h3.185V470h-3.185Zm1.608-18.888c-.554 0-1.03-.185-1.427-.554-.391-.377-.586-.824-.586-1.343 0-.525.195-.973.586-1.342a2 2 0 0 1 1.427-.565c.554 0 1.027.188 1.417.565.398.369.597.817.597 1.342 0 .519-.199.966-.597 1.343-.39.369-.863.554-1.417.554Zm9.048 9.172V470h-3.186v-16.364h3.058v2.664h.202a4.674 4.674 0 0 1 1.769-2.088c.809-.526 1.829-.789 3.057-.789 1.115 0 2.092.235 2.93.703.838.462 1.488 1.151 1.949 2.067.462.916.693 2.049.693 3.399V470h-3.185v-10.025c0-1.186-.309-2.113-.927-2.78-.618-.675-1.467-1.012-2.546-1.012-.739 0-1.396.159-1.971.479-.568.32-1.019.788-1.353 1.406-.327.611-.49 1.35-.49 2.216Zm21.605 16.193c-1.3 0-2.419-.17-3.356-.511-.93-.341-1.69-.792-2.28-1.353-.589-.561-1.03-1.175-1.321-1.843l2.738-1.129c.192.312.447.642.767.99.327.356.767.657 1.321.906.561.249 1.282.373 2.163.373 1.207 0 2.205-.295 2.993-.884.789-.583 1.183-1.513 1.183-2.792v-3.217h-.203a7.158 7.158 0 0 1-.831 1.161c-.355.426-.845.796-1.47 1.108-.625.313-1.438.469-2.439.469-1.293 0-2.458-.302-3.495-.906-1.029-.61-1.846-1.509-2.45-2.695-.597-1.193-.895-2.66-.895-4.4 0-1.74.295-3.231.884-4.474.597-1.243 1.414-2.195 2.451-2.855 1.037-.668 2.212-1.002 3.526-1.002 1.016 0 1.836.171 2.461.512.625.333 1.111.724 1.459 1.172.356.447.629.841.821 1.182h.234v-2.653h3.122v16.726c0 1.406-.327 2.561-.981 3.463-.653.902-1.537 1.569-2.652 2.002-1.108.434-2.358.65-3.75.65Zm-.032-9.364c.916 0 1.69-.213 2.322-.639.639-.434 1.122-1.051 1.449-1.854.334-.81.501-1.779.501-2.908 0-1.101-.164-2.071-.49-2.909-.327-.838-.806-1.491-1.438-1.96-.633-.476-1.414-.714-2.344-.714-.959 0-1.758.249-2.397.746-.639.49-1.122 1.158-1.449 2.003-.32.845-.479 1.79-.479 2.834 0 1.072.163 2.013.49 2.823.326.809.809 1.442 1.448 1.896.647.455 1.442.682 2.387.682Zm27.265-13.477v2.557h-8.939v-2.557h8.939Zm-6.542-3.92h3.186v15.479c0 .618.092 1.083.277 1.396.184.305.422.515.713.628.299.107.622.16.97.16.256 0 .479-.017.671-.053l.448-.085.575 2.631a5.379 5.379 0 0 1-.789.213 6.23 6.23 0 0 1-1.278.128 5.622 5.622 0 0 1-2.344-.447 4.025 4.025 0 0 1-1.757-1.449c-.448-.654-.672-1.474-.672-2.461v-16.14ZM808.649 470v-16.364h3.186V470h-3.186Zm1.609-18.888c-.554 0-1.03-.185-1.428-.554-.39-.377-.586-.824-.586-1.343 0-.525.196-.973.586-1.342a2.004 2.004 0 0 1 1.428-.565c.554 0 1.026.188 1.417.565.397.369.596.817.596 1.342 0 .519-.199.966-.596 1.343a1.99 1.99 0 0 1-1.417.554ZM816.12 470v-16.364h3.057v2.664h.203c.341-.902.898-1.605 1.672-2.11.775-.511 1.701-.767 2.781-.767 1.094 0 2.01.256 2.748.767.746.512 1.297 1.215 1.652 2.11h.17c.391-.874 1.012-1.57 1.865-2.088.852-.526 1.867-.789 3.046-.789 1.485 0 2.696.465 3.633 1.396.945.93 1.417 2.333 1.417 4.208V470h-3.185v-10.675c0-1.108-.302-1.91-.906-2.407-.603-.498-1.324-.746-2.162-.746-1.037 0-1.843.319-2.419.959-.575.632-.863 1.445-.863 2.439V470h-3.174v-10.877c0-.888-.277-1.602-.831-2.141-.554-.54-1.275-.81-2.163-.81-.604 0-1.161.16-1.673.479a3.53 3.53 0 0 0-1.225 1.311c-.305.561-.458 1.211-.458 1.949V470h-3.185Zm33.566.33c-1.612 0-3.001-.344-4.165-1.033-1.158-.696-2.053-1.673-2.685-2.93-.625-1.264-.938-2.745-.938-4.442 0-1.676.313-3.154.938-4.432.632-1.279 1.513-2.276 2.642-2.994 1.136-.717 2.464-1.076 3.984-1.076.924 0 1.819.153 2.685.458a6.51 6.51 0 0 1 2.333 1.439c.689.653 1.232 1.502 1.63 2.546.398 1.037.597 2.297.597 3.782v1.129h-13.008v-2.386h9.886c0-.838-.17-1.581-.511-2.227a3.873 3.873 0 0 0-1.438-1.545c-.611-.376-1.328-.564-2.152-.564-.895 0-1.676.22-2.344.66a4.428 4.428 0 0 0-1.534 1.705 4.92 4.92 0 0 0-.533 2.269v1.864c0 1.094.192 2.024.575 2.791.391.768.934 1.353 1.63 1.758.696.398 1.51.597 2.44.597.604 0 1.154-.085 1.651-.256.497-.177.927-.44 1.289-.788.363-.348.64-.778.831-1.289l3.015.543a5.448 5.448 0 0 1-1.299 2.333c-.618.661-1.396 1.176-2.334 1.545-.93.362-1.992.543-3.185.543Z"/><path stroke="#F4F4F5" stroke-linecap="round" stroke-width="4" d="M1020 471v-24"/><path fill="#F4F4F5" d="M1020 461c1.1 0 2-.895 2-2s-.9-2-2-2v4Zm0-4H872.5v4H1020v-4Z"/><path fill="#F4F4F5" d="M1020 457c-1.1 0-2 .895-2 2s.9 2 2 2v-4Zm0 4h140v-4h-140v4Zm156.4 9v-21.818h7.77c1.7 0 3.11.309 4.22.927 1.12.618 1.95 1.463 2.51 2.535.55 1.066.83 2.266.83 3.601 0 1.342-.28 2.55-.84 3.622-.56 1.066-1.4 1.911-2.52 2.536-1.11.618-2.52.927-4.21.927h-5.34v-2.792h5.05c1.07 0 1.94-.184 2.61-.554a3.556 3.556 0 0 0 1.47-1.534c.31-.646.46-1.381.46-2.205 0-.824-.15-1.555-.46-2.195-.32-.639-.81-1.139-1.49-1.502-.66-.362-1.54-.543-2.64-.543h-4.13V470h-3.29Zm18.93 0v-16.364h3.08v2.6h.17c.3-.881.82-1.573 1.58-2.078a4.51 4.51 0 0 1 2.57-.767c.2 0 .44.007.71.022.28.014.49.032.65.053v3.047a5.786 5.786 0 0 0-.68-.117c-.33-.05-.66-.075-.98-.075-.76 0-1.43.16-2.02.479-.58.313-1.04.75-1.38 1.311-.34.554-.51 1.186-.51 1.896V470h-3.19Zm17.98.33c-1.61 0-3-.344-4.16-1.033-1.16-.696-2.06-1.673-2.69-2.93-.62-1.264-.94-2.745-.94-4.442 0-1.676.32-3.154.94-4.432.63-1.279 1.51-2.276 2.64-2.994 1.14-.717 2.47-1.076 3.99-1.076.92 0 1.82.153 2.68.458a6.51 6.51 0 0 1 2.34 1.439c.68.653 1.23 1.502 1.63 2.546.39 1.037.59 2.297.59 3.782v1.129h-13.01v-2.386h9.89c0-.838-.17-1.581-.51-2.227a3.857 3.857 0 0 0-1.44-1.545c-.61-.376-1.33-.564-2.15-.564-.9 0-1.68.22-2.35.66a4.41 4.41 0 0 0-1.53 1.705 4.982 4.982 0 0 0-.53 2.269v1.864c0 1.094.19 2.024.57 2.791a4.19 4.19 0 0 0 1.63 1.758c.7.398 1.51.597 2.44.597.61 0 1.16-.085 1.65-.256.5-.177.93-.44 1.29-.788.37-.348.64-.778.83-1.289l3.02.543a5.492 5.492 0 0 1-1.3 2.333c-.62.661-1.4 1.176-2.33 1.545-.93.362-2 .543-3.19.543Zm22.82-12.699-2.89.512c-.12-.37-.31-.721-.57-1.055a2.904 2.904 0 0 0-1.05-.82c-.44-.213-.99-.32-1.65-.32-.9 0-1.65.203-2.26.607-.6.398-.9.913-.9 1.545 0 .547.2.987.6 1.321.41.334 1.06.607 1.96.82l2.6.597c1.51.348 2.63.884 3.37 1.609.74.724 1.11 1.665 1.11 2.823 0 .98-.29 1.854-.85 2.621-.57.76-1.35 1.356-2.36 1.789-1 .434-2.16.65-3.48.65-1.84 0-3.33-.39-4.49-1.172-1.16-.788-1.87-1.907-2.13-3.355l3.08-.469c.19.802.59 1.41 1.18 1.822.6.404 1.38.607 2.34.607 1.04 0 1.87-.217 2.5-.65.62-.44.94-.977.94-1.609 0-.511-.19-.941-.58-1.289-.37-.348-.95-.611-1.73-.788l-2.77-.607c-1.53-.348-2.66-.902-3.39-1.662-.73-.76-1.09-1.723-1.09-2.887 0-.966.27-1.811.81-2.536.54-.724 1.29-1.289 2.24-1.694.95-.412 2.04-.618 3.27-.618 1.77 0 3.16.384 4.17 1.151 1.02.76 1.69 1.779 2.02 3.057ZM1247 470.33c-1.61 0-3-.344-4.16-1.033-1.16-.696-2.06-1.673-2.69-2.93-.62-1.264-.94-2.745-.94-4.442 0-1.676.32-3.154.94-4.432.63-1.279 1.52-2.276 2.64-2.994 1.14-.717 2.47-1.076 3.99-1.076.92 0 1.82.153 2.68.458a6.51 6.51 0 0 1 2.34 1.439c.69.653 1.23 1.502 1.63 2.546.39 1.037.59 2.297.59 3.782v1.129h-13v-2.386h9.88c0-.838-.17-1.581-.51-2.227a3.857 3.857 0 0 0-1.44-1.545c-.61-.376-1.33-.564-2.15-.564-.89 0-1.68.22-2.34.66a4.435 4.435 0 0 0-1.54 1.705 4.982 4.982 0 0 0-.53 2.269v1.864c0 1.094.19 2.024.57 2.791.4.768.94 1.353 1.63 1.758.7.398 1.51.597 2.44.597.61 0 1.16-.085 1.66-.256.49-.177.92-.44 1.28-.788.37-.348.64-.778.84-1.289l3.01.543a5.388 5.388 0 0 1-1.3 2.333c-.62.661-1.39 1.176-2.33 1.545-.93.362-1.99.543-3.19.543Zm13.74-10.046V470h-3.18v-16.364h3.05v2.664h.21a4.59 4.59 0 0 1 1.77-2.088c.81-.526 1.82-.789 3.05-.789 1.12 0 2.09.235 2.93.703.84.462 1.49 1.151 1.95 2.067.46.916.7 2.049.7 3.399V470h-3.19v-10.025c0-1.186-.31-2.113-.93-2.78-.62-.675-1.46-1.012-2.54-1.012-.74 0-1.4.159-1.97.479-.57.32-1.02.788-1.36 1.406-.32.611-.49 1.35-.49 2.216Zm22.39-6.648v2.557h-8.94v-2.557h8.94Zm-6.55-3.92h3.19v15.479c0 .618.09 1.083.28 1.396.18.305.42.515.71.628.3.107.62.16.97.16.26 0 .48-.017.67-.053l.45-.085.57 2.631c-.18.071-.44.142-.78.213-.35.078-.77.121-1.28.128a5.66 5.66 0 0 1-2.35-.447 3.99 3.99 0 0 1-1.75-1.449c-.45-.654-.68-1.474-.68-2.461v-16.14Zm14.83 20.646c-1.04 0-1.97-.192-2.81-.575a4.72 4.72 0 0 1-1.99-1.694c-.49-.739-.73-1.644-.73-2.717 0-.923.18-1.683.53-2.279.36-.597.84-1.069 1.44-1.417a7.594 7.594 0 0 1 2.03-.789c.74-.177 1.5-.312 2.28-.404l2.38-.277c.61-.079 1.06-.203 1.34-.373.27-.171.41-.448.41-.831v-.075c0-.93-.26-1.651-.79-2.163-.52-.511-1.29-.767-2.32-.767-1.07 0-1.92.238-2.54.714-.61.469-1.03.991-1.26 1.566l-3-.682c.36-.994.88-1.796 1.56-2.407a6.332 6.332 0 0 1 2.37-1.343c.9-.284 1.84-.426 2.83-.426.65 0 1.34.078 2.07.235.74.149 1.43.426 2.07.831.65.404 1.18.983 1.59 1.736.41.746.62 1.715.62 2.909V470h-3.11v-2.237h-.13c-.21.412-.52.817-.93 1.214-.41.398-.94.728-1.59.991-.64.263-1.42.394-2.32.394Zm.69-2.557c.88 0 1.64-.174 2.26-.522.63-.348 1.11-.802 1.44-1.363.33-.568.5-1.176.5-1.822v-2.109c-.11.113-.33.22-.66.319-.32.093-.68.174-1.1.245-.41.064-.81.125-1.2.181-.39.05-.72.093-.98.128-.62.078-1.18.21-1.69.394-.51.185-.91.451-1.22.799-.3.341-.45.796-.45 1.364 0 .788.29 1.385.88 1.79.58.398 1.32.596 2.22.596Zm19.27-14.169v2.557h-8.94v-2.557h8.94Zm-6.54-3.92h3.18v15.479c0 .618.09 1.083.28 1.396.18.305.42.515.71.628.3.107.62.16.97.16.26 0 .48-.017.67-.053.2-.036.34-.064.45-.085l.58 2.631c-.19.071-.45.142-.79.213a6.26 6.26 0 0 1-1.28.128 5.582 5.582 0 0 1-2.34-.447 4.016 4.016 0 0 1-1.76-1.449c-.45-.654-.67-1.474-.67-2.461v-16.14ZM1314.89 470v-16.364h3.19V470h-3.19Zm1.61-18.888c-.55 0-1.03-.185-1.43-.554a1.8 1.8 0 0 1-.58-1.343c0-.525.19-.973.58-1.342.4-.377.88-.565 1.43-.565.55 0 1.03.188 1.42.565.39.369.59.817.59 1.342 0 .519-.2.966-.59 1.343-.39.369-.87.554-1.42.554Zm12.75 19.218c-1.53 0-2.87-.351-4.01-1.054-1.15-.704-2.03-1.687-2.66-2.951-.64-1.265-.95-2.742-.95-4.432 0-1.698.31-3.182.95-4.453.63-1.272 1.51-2.259 2.66-2.962 1.14-.703 2.48-1.055 4.01-1.055 1.54 0 2.88.352 4.02 1.055 1.14.703 2.03 1.69 2.66 2.962.64 1.271.95 2.755.95 4.453 0 1.69-.31 3.167-.95 4.432-.63 1.264-1.52 2.247-2.66 2.951-1.14.703-2.48 1.054-4.02 1.054Zm.02-2.674c.99 0 1.81-.263 2.47-.788.65-.526 1.13-1.225 1.45-2.099.32-.873.48-1.836.48-2.887 0-1.044-.16-2.003-.48-2.876-.32-.881-.8-1.588-1.45-2.12-.66-.533-1.48-.799-2.47-.799-1.01 0-1.84.266-2.5.799-.65.532-1.14 1.239-1.46 2.12-.31.873-.47 1.832-.47 2.876 0 1.051.16 2.014.47 2.887.32.874.81 1.573 1.46 2.099.66.525 1.49.788 2.5.788Zm14.35-7.372V470h-3.18v-16.364h3.06v2.664h.2a4.59 4.59 0 0 1 1.77-2.088c.81-.526 1.83-.789 3.05-.789 1.12 0 2.1.235 2.93.703.84.462 1.49 1.151 1.95 2.067.47.916.7 2.049.7 3.399V470h-3.19v-10.025c0-1.186-.31-2.113-.93-2.78-.61-.675-1.46-1.012-2.54-1.012-.74 0-1.4.159-1.97.479-.57.32-1.02.788-1.36 1.406-.32.611-.49 1.35-.49 2.216Zm28.81 10.036c-1.32 0-2.5-.338-3.53-1.012-1.03-.682-1.84-1.652-2.43-2.909-.59-1.264-.88-2.78-.88-4.549 0-1.768.3-3.281.89-4.538.59-1.257 1.41-2.22 2.45-2.887 1.04-.668 2.21-1.002 3.52-1.002 1.02 0 1.84.171 2.45.512.63.333 1.11.724 1.45 1.172.35.447.62.841.81 1.182h.19v-8.107h3.19V470h-3.11v-2.546h-.27c-.19.348-.47.746-.83 1.193-.35.447-.84.838-1.47 1.172-.62.334-1.43.501-2.43.501Zm.71-2.717c.91 0 1.69-.241 2.32-.724.64-.491 1.12-1.169 1.45-2.035.33-.867.5-1.875.5-3.026 0-1.136-.17-2.131-.49-2.983-.33-.852-.81-1.516-1.44-1.992-.63-.476-1.41-.714-2.34-.714-.96 0-1.76.249-2.4.746-.64.497-1.12 1.175-1.45 2.035-.32.859-.48 1.829-.48 2.908 0 1.094.16 2.078.49 2.951.33.874.81 1.566 1.45 2.078.65.504 1.44.756 2.39.756Zm19 2.727c-1.61 0-3-.344-4.17-1.033-1.15-.696-2.05-1.673-2.68-2.93-.63-1.264-.94-2.745-.94-4.442 0-1.676.31-3.154.94-4.432.63-1.279 1.51-2.276 2.64-2.994 1.14-.717 2.47-1.076 3.99-1.076.92 0 1.81.153 2.68.458.87.306 1.64.785 2.33 1.439.69.653 1.24 1.502 1.63 2.546.4 1.037.6 2.297.6 3.782v1.129h-13.01v-2.386h9.89c0-.838-.17-1.581-.51-2.227a3.857 3.857 0 0 0-1.44-1.545c-.61-.376-1.33-.564-2.15-.564-.9 0-1.68.22-2.35.66a4.41 4.41 0 0 0-1.53 1.705c-.36.696-.53 1.452-.53 2.269v1.864c0 1.094.19 2.024.57 2.791a4.19 4.19 0 0 0 1.63 1.758c.7.398 1.51.597 2.44.597.6 0 1.16-.085 1.65-.256.5-.177.93-.44 1.29-.788.36-.348.64-.778.83-1.289l3.02.543a5.492 5.492 0 0 1-1.3 2.333c-.62.661-1.4 1.176-2.34 1.545-.93.362-1.99.543-3.18.543Zm13.74-22.148V470h-3.19v-21.818h3.19Zm9.05 22.18c-1.04 0-1.98-.192-2.82-.575-.83-.391-1.5-.955-1.99-1.694-.48-.739-.72-1.644-.72-2.717 0-.923.18-1.683.53-2.279.36-.597.83-1.069 1.44-1.417.6-.348 1.28-.611 2.02-.789.75-.177 1.51-.312 2.28-.404l2.39-.277c.61-.079 1.05-.203 1.33-.373.28-.171.42-.448.42-.831v-.075c0-.93-.27-1.651-.79-2.163-.52-.511-1.29-.767-2.32-.767-1.08 0-1.92.238-2.54.714-.61.469-1.03.991-1.27 1.566l-2.99-.682c.35-.994.87-1.796 1.55-2.407a6.295 6.295 0 0 1 2.38-1.343 9.268 9.268 0 0 1 2.82-.426c.66 0 1.35.078 2.08.235.74.149 1.43.426 2.07.831.64.404 1.17.983 1.58 1.736.42.746.62 1.715.62 2.909V470h-3.11v-2.237h-.13c-.2.412-.51.817-.92 1.214-.42.398-.94.728-1.59.991-.65.263-1.42.394-2.32.394Zm.69-2.557c.88 0 1.63-.174 2.26-.522.63-.348 1.11-.802 1.44-1.363.33-.568.5-1.176.5-1.822v-2.109c-.12.113-.34.22-.66.319-.32.093-.69.174-1.1.245-.41.064-.81.125-1.2.181-.4.05-.72.093-.98.128-.62.078-1.19.21-1.7.394-.5.185-.91.451-1.21.799-.3.341-.45.796-.45 1.364 0 .788.29 1.385.87 1.79.59.398 1.33.596 2.23.596Zm13.05 8.331c-.47 0-.91-.039-1.3-.117-.39-.071-.68-.149-.87-.234l.77-2.61c.58.156 1.1.223 1.55.202.46-.021.86-.192 1.21-.511.35-.32.66-.842.93-1.566l.4-1.087-5.99-16.577h3.41l4.14 12.699h.17l4.15-12.699h3.42l-6.75 18.548c-.31.852-.71 1.573-1.19 2.163a4.606 4.606 0 0 1-1.73 1.342c-.66.298-1.44.447-2.32.447Z"/><path stroke="#F4F4F5" stroke-linecap="round" stroke-width="4" d="M1596 471v-24"/><path fill="#F4F4F5" d="M1596 461c1.1 0 2-.895 2-2s-.9-2-2-2v4Zm0-4h-140v4h140v-4Z"/><defs><filter id="a" width="185" height="185" x="1504" y="0" color-interpolation-filters="sRGB" filterUnits="userSpaceOnUse"><feFlood flood-opacity="0" result="BackgroundImageFix"/><feBlend in="SourceGraphic" in2="BackgroundImageFix" result="shape"/><feGaussianBlur result="effect1_foregroundBlur_433_1820" stdDeviation="32.5"/></filter><filter id="b" width="185" height="185" x="100" y="0" color-interpolation-filters="sRGB" filterUnits="userSpaceOnUse"><feFlood flood-opacity="0" result="BackgroundImageFix"/><feBlend in="SourceGraphic" in2="BackgroundImageFix" result="shape"/><feGaussianBlur result="effect1_foregroundBlur_433_1820" stdDeviation="32.5"/></filter></defs></svg>