<svg xmlns="http://www.w3.org/2000/svg" width="538" height="116" fill="none" viewBox="0 0 538 116"><path fill="#52525B" d="M536.707 42.707a1 1 0 0 0 0-1.414l-6.364-6.364a1 1 0 1 0-1.414 1.414L534.586 42l-5.657 5.657a1 1 0 1 0 1.414 1.414l6.364-6.364ZM0 43h4.467v-2H0v2Zm13.4 0h8.933v-2H13.4v2Zm17.867 0H40.2v-2h-8.933v2Zm17.866 0h8.934v-2h-8.934v2ZM67 43h8.933v-2H67v2Zm17.867 0H93.8v-2h-8.933v2Zm17.866 0h8.934v-2h-8.934v2Zm17.867 0h8.933v-2H120.6v2Zm17.867 0h8.933v-2h-8.933v2Zm17.866 0h8.934v-2h-8.934v2Zm17.867 0h8.933v-2H174.2v2Zm17.867 0H201v-2h-8.933v2Zm17.866 0h8.934v-2h-8.934v2Zm17.867 0h8.933v-2H227.8v2Zm17.867 0h8.933v-2h-8.933v2Zm17.866 0h8.934v-2h-8.934v2Zm17.867 0h8.933v-2H281.4v2Zm17.867 0h8.933v-2h-8.933v2Zm17.866 0h8.934v-2h-8.934v2ZM335 43h8.933v-2H335v2Zm17.867 0h8.933v-2h-8.933v2Zm17.866 0h8.934v-2h-8.934v2Zm17.867 0h8.933v-2H388.6v2Zm17.866 0h8.934v-2h-8.934v2Zm17.867 0h8.933v-2h-8.933v2Zm17.867 0h8.933v-2H442.2v2Zm17.866 0H469v-2h-8.934v2Zm17.867 0h8.933v-2h-8.933v2Zm17.867 0h8.933v-2H495.8v2Zm17.866 0h8.934v-2h-8.934v2Zm17.867 0H536v-2h-4.467v2Zm5.881.414a2 2 0 0 0 0-2.828l-12.728-12.728a2 2 0 1 0-2.828 2.828L533.172 42l-11.314 11.314a2 2 0 0 0 2.828 2.828l12.728-12.728ZM0 44h4.467v-4H0v4Zm13.4 0h8.933v-4H13.4v4Zm17.867 0H40.2v-4h-8.933v4Zm17.866 0h8.934v-4h-8.934v4ZM67 44h8.933v-4H67v4Zm17.867 0H93.8v-4h-8.933v4Zm17.866 0h8.934v-4h-8.934v4Zm17.867 0h8.933v-4H120.6v4Zm17.867 0h8.933v-4h-8.933v4Zm17.866 0h8.934v-4h-8.934v4Zm17.867 0h8.933v-4H174.2v4Zm17.867 0H201v-4h-8.933v4Zm17.866 0h8.934v-4h-8.934v4Zm17.867 0h8.933v-4H227.8v4Zm17.867 0h8.933v-4h-8.933v4Zm17.866 0h8.934v-4h-8.934v4Zm17.867 0h8.933v-4H281.4v4Zm17.867 0h8.933v-4h-8.933v4Zm17.866 0h8.934v-4h-8.934v4ZM335 44h8.933v-4H335v4Zm17.867 0h8.933v-4h-8.933v4Zm17.866 0h8.934v-4h-8.934v4Zm17.867 0h8.933v-4H388.6v4Zm17.866 0h8.934v-4h-8.934v4Zm17.867 0h8.933v-4h-8.933v4Zm17.867 0h8.933v-4H442.2v4Zm17.866 0H469v-4h-8.934v4Zm17.867 0h8.933v-4h-8.933v4Zm17.867 0h8.933v-4H495.8v4Zm17.866 0h8.934v-4h-8.934v4Zm17.867 0H536v-4h-4.467v4Z"/><path fill="#E4E4E7" d="M27 9a8 8 0 0 1 8-8h257v82H35a8 8 0 0 1-8-8V9Z"/><path fill="#18181B" d="M133.557 35.813v-2.268h13.508v2.267h-5.446V51h-2.625V35.812h-5.437Zm18.317 15.477c-.829 0-1.579-.154-2.25-.46a3.79 3.79 0 0 1-1.593-1.356c-.387-.59-.58-1.315-.58-2.173 0-.739.142-1.346.426-1.824a3.145 3.145 0 0 1 1.151-1.133 5.998 5.998 0 0 1 1.619-.63c.597-.143 1.205-.25 1.824-.325l1.909-.221c.489-.063.844-.162 1.065-.299.222-.136.333-.358.333-.664v-.06c0-.744-.211-1.321-.631-1.73-.415-.41-1.034-.614-1.858-.614-.858 0-1.534.19-2.028.571-.489.375-.827.793-1.015 1.253l-2.394-.545c.284-.796.698-1.438 1.244-1.927a5.051 5.051 0 0 1 1.9-1.073 7.424 7.424 0 0 1 2.259-.341c.523 0 1.077.062 1.662.187a4.86 4.86 0 0 1 1.653.665c.517.324.941.787 1.27 1.39.33.596.495 1.371.495 2.326V51h-2.489v-1.79h-.102c-.165.33-.412.654-.742.972-.329.318-.753.582-1.27.792-.517.21-1.136.316-1.858.316Zm.554-2.046c.705 0 1.307-.139 1.807-.417.506-.279.889-.642 1.151-1.091.267-.455.4-.94.4-1.458v-1.687c-.091.09-.267.176-.528.256a8.478 8.478 0 0 1-.878.196l-.963.145c-.313.04-.574.073-.784.102a6.307 6.307 0 0 0-1.355.315c-.404.148-.728.36-.972.64-.239.272-.358.636-.358 1.09 0 .63.233 1.108.699 1.432.466.318 1.06.477 1.781.477Zm19.11-8.139-2.309.41a2.73 2.73 0 0 0-.461-.845 2.266 2.266 0 0 0-.835-.656c-.352-.17-.792-.256-1.321-.256-.721 0-1.324.162-1.807.486-.483.319-.724.73-.724 1.236 0 .438.162.79.486 1.057.324.267.846.486 1.568.656l2.079.477c1.205.279 2.103.708 2.694 1.287.591.58.886 1.333.886 2.259 0 .784-.227 1.483-.682 2.096-.449.608-1.076 1.086-1.883 1.432-.801.347-1.73.52-2.787.52-1.466 0-2.662-.312-3.588-.937-.926-.631-1.495-1.526-1.705-2.685l2.463-.375c.154.642.469 1.128.946 1.457.478.324 1.1.486 1.867.486.835 0 1.503-.173 2.003-.52.5-.352.75-.78.75-1.287 0-.409-.154-.752-.461-1.03-.301-.28-.764-.49-1.389-.631l-2.216-.486c-1.221-.279-2.125-.722-2.71-1.33-.58-.608-.869-1.378-.869-2.31 0-.772.216-1.448.647-2.028.432-.58 1.029-1.031 1.79-1.355.762-.33 1.634-.494 2.617-.494 1.414 0 2.528.306 3.341.92.812.608 1.349 1.423 1.61 2.446Zm5.402 5.455-.017-3.111h.443l5.216-5.54h3.051l-5.949 6.307h-.401l-2.343 2.344ZM174.596 51V33.545h2.548V51h-2.548Zm8.267 0-4.688-6.222 1.756-1.78 6.06 8.002h-3.128Z"/><path fill="#FEE2E2" d="M292 1h189a8 8 0 0 1 8 8v66a8 8 0 0 1-8 8H292V1Z"/><path fill="#B91C1C" d="M268.2 115.199c-.89 0-1.69-.171-2.4-.511a4.372 4.372 0 0 1-1.691-1.421 3.75 3.75 0 0 1-.674-2.06h2.13c.052.625.329 1.139.831 1.542.502.402 1.104.603 1.804.603.559 0 1.054-.128 1.485-.383a2.755 2.755 0 0 0 1.022-1.073c.251-.454.377-.973.377-1.555 0-.592-.128-1.12-.384-1.584a2.831 2.831 0 0 0-1.058-1.094c-.445-.265-.956-.4-1.534-.404-.44 0-.883.075-1.328.227-.445.151-.805.35-1.08.596l-2.01-.298.817-7.329h7.997v1.882h-6.172l-.461 4.069h.085c.284-.274.66-.504 1.129-.689.474-.184.98-.277 1.52-.277.886 0 1.674.211 2.365.632a4.503 4.503 0 0 1 1.641 1.726c.402.725.601 1.558.596 2.5.005.943-.208 1.783-.639 2.522a4.634 4.634 0 0 1-1.775 1.747c-.753.421-1.617.632-2.593.632Zm12.665.042c-1.122-.004-2.081-.3-2.876-.887-.795-.587-1.404-1.442-1.825-2.564-.422-1.122-.632-2.474-.632-4.056 0-1.576.21-2.923.632-4.041.426-1.117 1.037-1.97 1.832-2.557.8-.587 1.757-.88 2.869-.88 1.113 0 2.067.296 2.863.887.795.588 1.404 1.44 1.825 2.557.426 1.113.639 2.458.639 4.034 0 1.587-.211 2.941-.632 4.063-.421 1.117-1.03 1.972-1.825 2.564-.796.587-1.752.88-2.87.88Zm0-1.896c.985 0 1.755-.48 2.309-1.442.558-.961.838-2.35.838-4.169 0-1.207-.128-2.227-.384-3.061-.251-.838-.613-1.472-1.086-1.903a2.378 2.378 0 0 0-1.677-.654c-.98 0-1.749.483-2.308 1.449-.559.966-.84 2.356-.845 4.169 0 1.212.125 2.238.376 3.076.256.833.618 1.465 1.087 1.896.469.426 1.032.639 1.69.639ZM294.033 115v-10.909h2.038v1.775h.135a2.823 2.823 0 0 1 1.115-1.406c.516-.341 1.134-.511 1.854-.511.729 0 1.34.17 1.832.511.498.341.865.81 1.101 1.406h.114a3.072 3.072 0 0 1 1.243-1.392c.568-.35 1.245-.525 2.031-.525.99 0 1.797.31 2.422.93.63.621.945 1.556.945 2.806V115h-2.124v-7.116c0-.739-.201-1.274-.604-1.606-.402-.331-.883-.497-1.441-.497-.692 0-1.229.213-1.613.639-.383.422-.575.964-.575 1.627V115h-2.116v-7.251c0-.592-.185-1.068-.554-1.428-.37-.36-.85-.54-1.442-.54-.403 0-.774.107-1.115.32a2.341 2.341 0 0 0-.817.873c-.204.374-.305.808-.305 1.3V115h-2.124Zm25.851-8.246-1.925.341a2.303 2.303 0 0 0-.384-.703 1.895 1.895 0 0 0-.696-.547c-.293-.142-.66-.213-1.101-.213-.601 0-1.103.135-1.505.405-.403.265-.604.608-.604 1.03 0 .364.135.658.405.88.27.223.705.405 1.307.547l1.733.398c1.003.232 1.752.59 2.244 1.072.492.483.739 1.111.739 1.883a2.86 2.86 0 0 1-.569 1.747c-.374.506-.897.904-1.569 1.193-.668.289-1.442.433-2.323.433-1.221 0-2.218-.26-2.99-.781-.771-.526-1.245-1.271-1.42-2.237l2.052-.313c.128.535.391.94.789 1.215.397.27.916.405 1.555.405.696 0 1.253-.145 1.669-.434.417-.293.625-.651.625-1.072 0-.341-.128-.628-.383-.86-.251-.232-.637-.407-1.158-.525l-1.847-.405c-1.018-.232-1.77-.601-2.258-1.108-.483-.507-.725-1.148-.725-1.925 0-.644.18-1.207.54-1.69.36-.483.857-.859 1.492-1.129.634-.275 1.361-.412 2.18-.412 1.179 0 2.107.256 2.784.767.677.507 1.125 1.186 1.343 2.038Z"/><path stroke="#DC2626" stroke-dasharray="4 4" stroke-width="2" d="M292 1h189a8 8 0 0 1 8 8v66a8 8 0 0 1-8 8H292V1Z"/></svg>