<svg xmlns="http://www.w3.org/2000/svg" width="1201" height="953" fill="none" viewBox="0 0 1201 953"><g clip-path="url(#clip0_722_1585)"><path fill="#F1F5F9" d="M0 0h1201v952.335H0z"/><g filter="url(#filter0_dd_722_1585)"><g clip-path="url(#clip1_722_1585)"><path fill="#fff" d="M85.71 120.629c0-14.026 11.37-25.396 25.396-25.396H1201v857.102H85.71V120.629Z"/><circle cx="123.803" cy="133.327" r="12.698" fill="#F1F5F9"/><circle cx="166.129" cy="133.327" r="12.698" fill="#F1F5F9"/><circle cx="208.455" cy="133.327" r="12.698" fill="#F1F5F9"/><path fill="#94A3B8" fill-rule="evenodd" d="M302.904 121.093a1.55 1.55 0 0 1-.018 2.193l-8.67 8.522h19.989a1.55 1.55 0 1 1 0 3.102h-19.974l8.651 8.454a1.552 1.552 0 0 1-2.167 2.219l-11.374-11.115a1.55 1.55 0 0 1-.003-2.215l11.373-11.179a1.55 1.55 0 0 1 2.193.019Z" clip-rule="evenodd"/><path fill="#E2E8F0" fill-rule="evenodd" d="M362.469 121.093a1.55 1.55 0 0 0 .019 2.193l8.67 8.522h-19.99a1.551 1.551 0 0 0 0 3.102h19.974l-8.651 8.454a1.552 1.552 0 0 0 2.168 2.219l11.373-11.115a1.552 1.552 0 0 0 .003-2.215l-11.373-11.179a1.55 1.55 0 0 0-2.193.019Z" clip-rule="evenodd"/><path fill="#94A3B8" d="M413.29 133.327c0-5.395 4.373-9.768 9.767-9.768a9.746 9.746 0 0 1 7.378 3.366l-4.448 4.448h10.745v-10.744l-4.221 4.221a12.667 12.667 0 0 0-9.454-4.221c-7.013 0-12.698 5.685-12.698 12.698 0 7.013 5.685 12.698 12.698 12.698 5.037 0 9.385-2.933 11.437-7.177a1.465 1.465 0 1 0-2.638-1.275 9.768 9.768 0 0 1-8.799 5.521c-5.394 0-9.767-4.373-9.767-9.767Z"/><path fill="#F1F5F9" d="M647.588 133.327c0-16.363 13.265-29.628 29.628-29.628H1201v59.256H677.216c-16.363 0-29.628-13.265-29.628-29.628Z"/><path fill="#94A3B8" fill-rule="evenodd" d="M681.045 122.746a5.039 5.039 0 0 0-5.038 5.038v2.016h-1.008a2.016 2.016 0 0 0-2.016 2.015v10.078c0 1.113.903 2.016 2.016 2.016h12.093a2.017 2.017 0 0 0 2.016-2.016v-10.078a2.016 2.016 0 0 0-2.016-2.015h-1.008v-2.016a5.039 5.039 0 0 0-5.039-5.038Zm3.024 7.054v-2.016a3.024 3.024 0 0 0-6.047 0v2.016h6.047Z" clip-rule="evenodd"/><g clip-path="url(#clip2_722_1585)"><circle cx="340.724" cy="302.026" r="17.988" fill="#34D399"/><path fill="#27272A" d="M404.942 290.439v23.087h-3.483v-23.087h3.483Zm4.802 23.087v-17.315h3.236v2.818h.214c.361-.955.951-1.699 1.77-2.232.819-.541 1.8-.812 2.942-.812 1.157 0 2.127.271 2.908.812.789.541 1.372 1.285 1.748 2.232h.18c.413-.924 1.071-1.661 1.973-2.21.902-.556 1.976-.834 3.224-.834 1.571 0 2.852.492 3.844 1.477.999.984 1.499 2.469 1.499 4.453v11.611h-3.37V302.23c0-1.172-.32-2.021-.959-2.547-.638-.526-1.401-.789-2.288-.789-1.097 0-1.95.338-2.559 1.014-.609.669-.913 1.53-.913 2.582v11.036h-3.359v-11.51c0-.939-.293-1.694-.88-2.266-.586-.571-1.349-.856-2.288-.856-.639 0-1.229.169-1.77.507a3.72 3.72 0 0 0-1.296 1.386c-.323.594-.485 1.282-.485 2.063v10.676h-3.371Zm33.095.383c-1.097 0-2.089-.203-2.976-.609a5.003 5.003 0 0 1-2.108-1.792c-.511-.782-.767-1.74-.767-2.875 0-.977.188-1.781.564-2.412a4.16 4.16 0 0 1 1.522-1.499 7.88 7.88 0 0 1 2.141-.834c.79-.188 1.594-.331 2.413-.429l2.525-.293c.646-.083 1.116-.214 1.409-.394.293-.181.44-.474.44-.88v-.079c0-.984-.278-1.747-.834-2.288-.549-.541-1.368-.812-2.458-.812-1.135 0-2.029.252-2.683.756-.646.496-1.093 1.048-1.341 1.657l-3.168-.722c.376-1.052.924-1.901 1.646-2.547a6.673 6.673 0 0 1 2.514-1.421 9.83 9.83 0 0 1 2.987-.451c.691 0 1.424.083 2.198.248a6.42 6.42 0 0 1 2.187.88c.684.428 1.244 1.04 1.68 1.837.436.789.654 1.815.654 3.078v11.498h-3.292v-2.367h-.135c-.218.435-.545.864-.981 1.285-.436.421-.996.77-1.68 1.048-.684.278-1.503.417-2.457.417Zm.733-2.705c.931 0 1.728-.184 2.389-.553.669-.368 1.177-.849 1.522-1.443.353-.601.53-1.243.53-1.927v-2.232c-.12.12-.353.233-.699.338-.338.098-.725.184-1.161.259-.436.068-.86.132-1.274.192-.413.052-.759.097-1.037.135a8.393 8.393 0 0 0-1.792.417c-.534.196-.962.477-1.285.846-.316.36-.474.841-.474 1.443 0 .834.308 1.465.924 1.893.617.421 1.402.632 2.357.632Zm19.561 9.176c-1.375 0-2.559-.181-3.551-.541-.985-.361-1.789-.838-2.413-1.432-.623-.594-1.089-1.244-1.397-1.95l2.897-1.195c.203.331.473.68.811 1.048.346.376.812.695 1.398.958.594.264 1.357.395 2.289.395 1.277 0 2.333-.312 3.167-.936.835-.616 1.252-1.6 1.252-2.953v-3.405h-.215c-.202.369-.496.778-.879 1.229-.376.451-.894.842-1.556 1.173-.661.33-1.521.496-2.581.496-1.368 0-2.6-.32-3.698-.959-1.089-.646-1.953-1.597-2.592-2.852-.632-1.262-.947-2.814-.947-4.655 0-1.842.312-3.42.935-4.735.632-1.315 1.496-2.322 2.593-3.021 1.097-.707 2.341-1.06 3.732-1.06 1.074 0 1.942.181 2.604.541.661.354 1.176.767 1.544 1.24.376.474.665.891.868 1.252h.248v-2.807h3.303v17.698c0 1.488-.346 2.709-1.037 3.664-.692.954-1.627 1.661-2.807 2.119-1.173.459-2.495.688-3.968.688Zm-.034-9.909c.969 0 1.789-.226 2.457-.676.677-.459 1.188-1.113 1.534-1.962.353-.857.529-1.883.529-3.077 0-1.165-.172-2.191-.518-3.078-.346-.887-.853-1.578-1.522-2.074-.669-.504-1.495-.755-2.48-.755-1.015 0-1.86.263-2.536.789-.677.518-1.188 1.225-1.534 2.119-.338.894-.507 1.894-.507 2.999 0 1.134.173 2.13.519 2.987.345.857.856 1.525 1.533 2.006.684.481 1.525.722 2.525.722Zm19.829 3.404c-1.706 0-3.175-.364-4.408-1.093-1.225-.737-2.172-1.77-2.84-3.1-.662-1.338-.992-2.905-.992-4.701 0-1.774.33-3.337.992-4.69.668-1.352 1.6-2.408 2.795-3.167 1.203-.759 2.608-1.139 4.216-1.139a8.49 8.49 0 0 1 2.841.485 6.87 6.87 0 0 1 2.469 1.522c.729.691 1.304 1.589 1.725 2.694.42 1.097.631 2.431.631 4.002v1.195h-13.764v-2.525h10.461c0-.887-.18-1.672-.541-2.356a4.088 4.088 0 0 0-1.522-1.635c-.646-.398-1.405-.597-2.277-.597-.947 0-1.774.233-2.48.699a4.683 4.683 0 0 0-1.623 1.803 5.206 5.206 0 0 0-.564 2.401v1.973c0 1.157.203 2.142.609 2.954.413.811.988 1.431 1.724 1.86.737.421 1.597.631 2.582.631a5.34 5.34 0 0 0 1.747-.271 3.763 3.763 0 0 0 1.364-.834c.383-.368.677-.823.879-1.364l3.191.575a5.783 5.783 0 0 1-1.376 2.469c-.653.699-1.476 1.244-2.468 1.634-.985.384-2.108.575-3.371.575Zm27.032 0c-1.706 0-3.175-.364-4.407-1.093-1.225-.737-2.172-1.77-2.841-3.1-.661-1.338-.992-2.905-.992-4.701 0-1.774.331-3.337.992-4.69.669-1.352 1.601-2.408 2.796-3.167 1.202-.759 2.607-1.139 4.216-1.139a8.48 8.48 0 0 1 2.84.485 6.87 6.87 0 0 1 2.469 1.522c.729.691 1.304 1.589 1.725 2.694.421 1.097.631 2.431.631 4.002v1.195h-13.764v-2.525h10.461c0-.887-.18-1.672-.541-2.356a4.08 4.08 0 0 0-1.522-1.635c-.646-.398-1.405-.597-2.277-.597-.947 0-1.773.233-2.48.699a4.683 4.683 0 0 0-1.623 1.803 5.206 5.206 0 0 0-.564 2.401v1.973c0 1.157.203 2.142.609 2.954.413.811.988 1.431 1.725 1.86.736.421 1.597.631 2.581.631.639 0 1.222-.09 1.748-.271.526-.187.98-.466 1.364-.834.383-.368.676-.823.879-1.364l3.19.575a5.781 5.781 0 0 1-1.375 2.469c-.654.699-1.477 1.244-2.469 1.634-.984.384-2.108.575-3.371.575Zm14.54-23.436v23.087h-3.371v-23.087h3.371Zm11.997 23.436c-1.706 0-3.175-.364-4.408-1.093-1.225-.737-2.172-1.77-2.841-3.1-.661-1.338-.992-2.905-.992-4.701 0-1.774.331-3.337.992-4.69.669-1.352 1.601-2.408 2.796-3.167 1.203-.759 2.608-1.139 4.216-1.139a8.49 8.49 0 0 1 2.841.485 6.87 6.87 0 0 1 2.469 1.522c.729.691 1.304 1.589 1.724 2.694.421 1.097.632 2.431.632 4.002v1.195h-13.764v-2.525h10.461c0-.887-.181-1.672-.541-2.356a4.088 4.088 0 0 0-1.522-1.635c-.646-.398-1.406-.597-2.277-.597-.947 0-1.774.233-2.48.699a4.693 4.693 0 0 0-1.624 1.803 5.217 5.217 0 0 0-.563 2.401v1.973c0 1.157.203 2.142.608 2.954.414.811.989 1.431 1.725 1.86.737.421 1.597.631 2.582.631.638 0 1.221-.09 1.747-.271a3.763 3.763 0 0 0 1.364-.834c.383-.368.676-.823.879-1.364l3.191.575a5.783 5.783 0 0 1-1.376 2.469c-.654.699-1.477 1.244-2.469 1.634-.984.384-2.108.575-3.37.575Zm11.168-.349v-17.315h3.236v2.818h.214c.361-.955.951-1.699 1.77-2.232.819-.541 1.8-.812 2.942-.812 1.157 0 2.127.271 2.908.812.79.541 1.372 1.285 1.748 2.232h.18c.413-.924 1.071-1.661 1.973-2.21.902-.556 1.976-.834 3.224-.834 1.571 0 2.852.492 3.844 1.477 1 .984 1.499 2.469 1.499 4.453v11.611h-3.37V302.23c0-1.172-.32-2.021-.958-2.547-.639-.526-1.402-.789-2.289-.789-1.097 0-1.95.338-2.559 1.014-.609.669-.913 1.53-.913 2.582v11.036h-3.359v-11.51c0-.939-.293-1.694-.88-2.266-.586-.571-1.349-.856-2.288-.856-.639 0-1.229.169-1.77.507a3.736 3.736 0 0 0-1.296 1.386c-.323.594-.485 1.282-.485 2.063v10.676h-3.371Zm35.519.349c-1.706 0-3.176-.364-4.408-1.093-1.225-.737-2.172-1.77-2.841-3.1-.661-1.338-.992-2.905-.992-4.701 0-1.774.331-3.337.992-4.69.669-1.352 1.601-2.408 2.796-3.167 1.202-.759 2.608-1.139 4.216-1.139a8.49 8.49 0 0 1 2.841.485c.916.323 1.739.83 2.468 1.522.729.691 1.304 1.589 1.725 2.694.421 1.097.631 2.431.631 4.002v1.195h-13.764v-2.525h10.461c0-.887-.18-1.672-.541-2.356a4.085 4.085 0 0 0-1.521-1.635c-.647-.398-1.406-.597-2.278-.597-.947 0-1.773.233-2.48.699a4.683 4.683 0 0 0-1.623 1.803 5.206 5.206 0 0 0-.564 2.401v1.973c0 1.157.203 2.142.609 2.954.414.811.988 1.431 1.725 1.86.736.421 1.597.631 2.581.631.639 0 1.222-.09 1.748-.271.526-.187.98-.466 1.364-.834.383-.368.676-.823.879-1.364l3.19.575a5.781 5.781 0 0 1-1.375 2.469c-.654.699-1.477 1.244-2.469 1.634-.984.384-2.108.575-3.37.575Zm14.539-10.63v10.281h-3.371v-17.315h3.236v2.818h.214a4.953 4.953 0 0 1 1.871-2.21c.857-.556 1.935-.834 3.235-.834 1.18 0 2.214.248 3.1.744.887.489 1.575 1.218 2.063 2.187.489.97.733 2.168.733 3.596v11.014h-3.371v-10.608c0-1.255-.326-2.236-.98-2.942-.654-.714-1.552-1.071-2.694-1.071-.782 0-1.477.169-2.086.507-.601.338-1.078.834-1.432 1.488-.345.647-.518 1.428-.518 2.345Zm23.684-7.034v2.705h-9.458v-2.705h9.458Zm-6.921-4.149h3.37v16.38c0 .654.098 1.146.293 1.477.196.323.447.544.756.665a3.04 3.04 0 0 0 1.025.169c.271 0 .508-.019.711-.057.203-.037.36-.067.473-.09l.609 2.785a5.72 5.72 0 0 1-.834.225c-.361.083-.812.128-1.353.135a5.927 5.927 0 0 1-2.48-.473 4.254 4.254 0 0 1-1.86-1.533c-.474-.692-.71-1.56-.71-2.604v-17.079Zm23.346 8.376-3.055.541a3.621 3.621 0 0 0-.609-1.116c-.27-.353-.639-.642-1.105-.868-.466-.225-1.048-.338-1.747-.338-.954 0-1.751.214-2.39.642-.639.421-.958.966-.958 1.635 0 .579.214 1.045.643 1.398.428.353 1.119.642 2.074.868l2.75.631c1.594.368 2.781.936 3.563 1.702.781.767 1.172 1.763 1.172 2.988a4.541 4.541 0 0 1-.902 2.773c-.594.804-1.424 1.435-2.491 1.894-1.06.458-2.289.687-3.686.687-1.939 0-3.521-.413-4.746-1.24-1.225-.834-1.977-2.018-2.255-3.551l3.258-.496c.203.85.62 1.492 1.251 1.928.632.428 1.455.643 2.469.643 1.105 0 1.988-.23 2.649-.688.662-.466.992-1.033.992-1.702 0-.541-.203-.996-.609-1.364-.398-.369-1.01-.647-1.837-.835l-2.931-.642c-1.616-.368-2.811-.954-3.585-1.759-.766-.804-1.15-1.822-1.15-3.055 0-1.022.286-1.916.857-2.683.571-.766 1.36-1.364 2.367-1.792 1.008-.436 2.161-.654 3.461-.654 1.872 0 3.345.406 4.419 1.218 1.075.804 1.785 1.882 2.131 3.235Zm15.816 2.807v10.281h-3.371v-23.087h3.326v8.59h.214a4.98 4.98 0 0 1 1.86-2.221c.834-.548 1.924-.823 3.269-.823 1.187 0 2.224.244 3.111.733.895.488 1.586 1.217 2.074 2.187.497.962.745 2.164.745 3.607v11.014h-3.371v-10.608c0-1.27-.327-2.255-.981-2.953-.654-.707-1.563-1.06-2.728-1.06-.796 0-1.51.169-2.142.507a3.654 3.654 0 0 0-1.476 1.488c-.354.647-.53 1.428-.53 2.345Zm20.764 10.664c-1.097 0-2.089-.203-2.976-.609a5.015 5.015 0 0 1-2.108-1.792c-.511-.782-.766-1.74-.766-2.875 0-.977.188-1.781.563-2.412a4.16 4.16 0 0 1 1.522-1.499 7.9 7.9 0 0 1 2.142-.834 21.331 21.331 0 0 1 2.412-.429l2.526-.293c.646-.083 1.116-.214 1.409-.394.293-.181.439-.474.439-.88v-.079c0-.984-.278-1.747-.834-2.288-.548-.541-1.368-.812-2.457-.812-1.135 0-2.029.252-2.683.756-.647.496-1.094 1.048-1.342 1.657l-3.167-.722c.375-1.052.924-1.901 1.645-2.547a6.673 6.673 0 0 1 2.514-1.421 9.836 9.836 0 0 1 2.988-.451c.691 0 1.424.083 2.198.248.781.158 1.51.451 2.187.88.684.428 1.244 1.04 1.679 1.837.436.789.654 1.815.654 3.078v11.498h-3.291v-2.367h-.136c-.218.435-.545.864-.98 1.285-.436.421-.996.77-1.68 1.048-.684.278-1.503.417-2.458.417Zm.733-2.705c.932 0 1.729-.184 2.39-.553.669-.368 1.176-.849 1.522-1.443.353-.601.53-1.243.53-1.927v-2.232c-.121.12-.354.233-.699.338-.338.098-.725.184-1.161.259-.436.068-.861.132-1.274.192-.414.052-.759.097-1.037.135a8.402 8.402 0 0 0-1.793.417c-.533.196-.962.477-1.285.846-.315.36-.473.841-.473 1.443 0 .834.308 1.465.924 1.893.616.421 1.402.632 2.356.632Zm26.494-14.993-6.279 17.315h-3.607l-6.29-17.315h3.618l4.385 13.324h.181l4.374-13.324h3.618Zm10.042 17.664c-1.706 0-3.176-.364-4.408-1.093-1.225-.737-2.172-1.77-2.841-3.1-.661-1.338-.992-2.905-.992-4.701 0-1.774.331-3.337.992-4.69.669-1.352 1.601-2.408 2.796-3.167 1.202-.759 2.608-1.139 4.216-1.139a8.49 8.49 0 0 1 2.841.485c.917.323 1.739.83 2.468 1.522.729.691 1.304 1.589 1.725 2.694.421 1.097.631 2.431.631 4.002v1.195h-13.764v-2.525h10.461c0-.887-.18-1.672-.541-2.356a4.085 4.085 0 0 0-1.521-1.635c-.647-.398-1.406-.597-2.278-.597-.947 0-1.773.233-2.48.699a4.683 4.683 0 0 0-1.623 1.803 5.206 5.206 0 0 0-.564 2.401v1.973c0 1.157.203 2.142.609 2.954.414.811.988 1.431 1.725 1.86.736.421 1.597.631 2.581.631.639 0 1.222-.09 1.748-.271.526-.187.98-.466 1.364-.834.383-.368.676-.823.879-1.364l3.19.575a5.781 5.781 0 0 1-1.375 2.469c-.654.699-1.477 1.244-2.469 1.634-.984.384-2.108.575-3.37.575Zm27.032 0c-1.706 0-3.175-.364-4.408-1.093-1.225-.737-2.172-1.77-2.84-3.1-.662-1.338-.992-2.905-.992-4.701 0-1.774.33-3.337.992-4.69.668-1.352 1.6-2.408 2.795-3.167 1.203-.759 2.608-1.139 4.216-1.139a8.49 8.49 0 0 1 2.841.485 6.87 6.87 0 0 1 2.469 1.522c.729.691 1.304 1.589 1.725 2.694.42 1.097.631 2.431.631 4.002v1.195h-13.764v-2.525h10.461c0-.887-.18-1.672-.541-2.356a4.088 4.088 0 0 0-1.522-1.635c-.646-.398-1.405-.597-2.277-.597-.947 0-1.774.233-2.48.699a4.693 4.693 0 0 0-1.624 1.803 5.217 5.217 0 0 0-.563 2.401v1.973c0 1.157.203 2.142.609 2.954.413.811.988 1.431 1.724 1.86.737.421 1.597.631 2.582.631a5.34 5.34 0 0 0 1.747-.271 3.763 3.763 0 0 0 1.364-.834c.383-.368.677-.823.879-1.364l3.191.575a5.783 5.783 0 0 1-1.376 2.469c-.653.699-1.476 1.244-2.468 1.634-.985.384-2.108.575-3.371.575Zm13.426-17.664 3.822 6.741 3.855-6.741h3.686l-5.4 8.657 5.445 8.658h-3.686l-3.9-6.471-3.89 6.471h-3.697l5.388-8.658-5.32-8.657h3.697Zm14.824 23.808v-23.808h3.292v2.807h.281c.196-.361.478-.778.846-1.252.368-.473.879-.886 1.533-1.24.654-.36 1.518-.541 2.593-.541 1.398 0 2.645.353 3.742 1.06 1.098.706 1.958 1.725 2.582 3.055.631 1.33.947 2.931.947 4.802 0 1.871-.312 3.476-.936 4.814-.624 1.33-1.48 2.356-2.57 3.077-1.09.714-2.334 1.071-3.731 1.071-1.053 0-1.913-.177-2.582-.53-.661-.353-1.18-.766-1.556-1.24a9.45 9.45 0 0 1-.868-1.262h-.202v9.187h-3.371Zm3.303-15.151c0 1.218.176 2.285.53 3.202.353.917.864 1.634 1.533 2.153.669.511 1.488.766 2.457.766 1.007 0 1.849-.266 2.525-.8.677-.541 1.188-1.274 1.534-2.198.353-.924.529-1.965.529-3.123 0-1.142-.172-2.168-.518-3.077-.338-.91-.849-1.627-1.533-2.153-.677-.526-1.522-.789-2.537-.789-.977 0-1.803.251-2.48.755-.669.503-1.176 1.206-1.522 2.108-.345.902-.518 1.954-.518 3.156Zm19.66-14.429v23.087h-3.371v-23.087h3.371Zm4.534 23.087v-17.315h3.371v17.315h-3.371Zm1.703-19.987c-.587 0-1.09-.195-1.511-.586-.413-.398-.62-.872-.62-1.421 0-.556.207-1.029.62-1.42a2.121 2.121 0 0 1 1.511-.597c.586 0 1.086.199 1.499.597.421.391.631.864.631 1.42 0 .549-.21 1.023-.631 1.421a2.101 2.101 0 0 1-1.499.586Zm13.496 20.336c-1.676 0-3.119-.379-4.329-1.138-1.202-.767-2.127-1.823-2.773-3.168-.646-1.345-.969-2.886-.969-4.622 0-1.758.33-3.31.992-4.656.661-1.352 1.593-2.408 2.795-3.167 1.203-.759 2.619-1.139 4.25-1.139 1.315 0 2.488.244 3.517.733 1.03.481 1.86 1.157 2.492 2.029.638.872 1.018 1.89 1.138 3.055h-3.28c-.181-.812-.594-1.511-1.24-2.097-.639-.586-1.496-.879-2.57-.879-.94 0-1.763.248-2.469.744-.699.489-1.244 1.187-1.635 2.097-.391.902-.586 1.969-.586 3.201 0 1.263.192 2.353.575 3.269.383.917.924 1.627 1.623 2.131.707.504 1.537.755 2.492.755.638 0 1.217-.116 1.736-.349a3.561 3.561 0 0 0 1.319-1.026c.36-.443.612-.977.755-1.601h3.28c-.12 1.12-.485 2.12-1.093 2.999-.609.879-1.424 1.571-2.446 2.074-1.015.504-2.206.755-3.574.755Zm10.718-.349v-17.315h3.37v17.315h-3.37Zm1.702-19.987c-.586 0-1.09-.195-1.511-.586-.413-.398-.62-.872-.62-1.421 0-.556.207-1.029.62-1.42a2.123 2.123 0 0 1 1.511-.597c.586 0 1.086.199 1.499.597.421.391.632.864.632 1.42 0 .549-.211 1.023-.632 1.421a2.101 2.101 0 0 1-1.499.586Zm14.286 2.672v2.705h-9.458v-2.705h9.458Zm-6.922-4.149h3.371v16.38c0 .654.097 1.146.293 1.477.195.323.447.544.755.665a3.05 3.05 0 0 0 1.026.169c.27 0 .507-.019.71-.057.203-.037.361-.067.473-.09l.609 2.785a5.65 5.65 0 0 1-.834.225c-.361.083-.812.128-1.353.135a5.93 5.93 0 0 1-2.48-.473 4.265 4.265 0 0 1-1.86-1.533c-.473-.692-.71-1.56-.71-2.604v-17.079Zm22.805 21.464-5.095-17.315h3.483l3.393 12.716h.169l3.405-12.716h3.483l3.382 12.659h.169l3.371-12.659h3.483l-5.084 17.315h-3.438l-3.518-12.502h-.259l-3.517 12.502h-3.427Zm22.442 0v-17.315h3.37v17.315h-3.37Zm1.702-19.987c-.586 0-1.09-.195-1.511-.586-.413-.398-.62-.872-.62-1.421 0-.556.207-1.029.62-1.42a2.123 2.123 0 0 1 1.511-.597c.586 0 1.086.199 1.499.597.421.391.631.864.631 1.42 0 .549-.21 1.023-.631 1.421a2.101 2.101 0 0 1-1.499.586Zm12.685 20.325c-1.398 0-2.646-.357-3.743-1.071-1.09-.721-1.946-1.747-2.57-3.077-.616-1.338-.925-2.943-.925-4.814s.312-3.472.936-4.802c.631-1.33 1.496-2.349 2.593-3.055 1.097-.707 2.341-1.06 3.731-1.06 1.075 0 1.939.181 2.593.541.661.354 1.172.767 1.533 1.24.368.474.654.891.857 1.252h.203v-8.579h3.37v23.087h-3.291v-2.694h-.282a8.931 8.931 0 0 1-.879 1.262c-.376.474-.895.887-1.556 1.24s-1.518.53-2.57.53Zm.744-2.875c.969 0 1.788-.255 2.457-.766.677-.519 1.188-1.236 1.533-2.153.353-.917.53-1.984.53-3.202 0-1.202-.173-2.254-.518-3.156-.346-.902-.853-1.605-1.522-2.108-.669-.504-1.496-.755-2.48-.755-1.015 0-1.86.263-2.537.789-.676.526-1.187 1.243-1.533 2.153-.338.909-.507 1.935-.507 3.077 0 1.158.173 2.199.518 3.123.346.924.857 1.657 1.534 2.198.683.534 1.525.8 2.525.8Zm20.728-14.778v2.705h-9.458v-2.705h9.458Zm-6.922-4.149h3.371v16.38c0 .654.097 1.146.293 1.477.195.323.447.544.755.665a3.05 3.05 0 0 0 1.026.169c.27 0 .507-.019.71-.057.203-.037.361-.067.474-.09l.608 2.785a5.65 5.65 0 0 1-.834.225c-.361.083-.812.128-1.353.135a5.933 5.933 0 0 1-2.48-.473 4.265 4.265 0 0 1-1.86-1.533c-.473-.692-.71-1.56-.71-2.604v-17.079Zm14.393 11.183v10.281h-3.371v-23.087h3.326v8.59h.214a4.98 4.98 0 0 1 1.86-2.221c.834-.548 1.924-.823 3.269-.823 1.187 0 2.225.244 3.111.733.895.488 1.586 1.217 2.075 2.187.496.962.744 2.164.744 3.607v11.014h-3.371v-10.608c0-1.27-.327-2.255-.981-2.953-.654-.707-1.563-1.06-2.728-1.06-.796 0-1.51.169-2.142.507a3.654 3.654 0 0 0-1.476 1.488c-.354.647-.53 1.428-.53 2.345Zm29.166 10.664c-1.098 0-2.09-.203-2.976-.609a5.003 5.003 0 0 1-2.108-1.792c-.511-.782-.767-1.74-.767-2.875 0-.977.188-1.781.564-2.412a4.157 4.157 0 0 1 1.521-1.499 7.9 7.9 0 0 1 2.142-.834 21.349 21.349 0 0 1 2.413-.429l2.525-.293c.646-.083 1.116-.214 1.409-.394.293-.181.44-.474.44-.88v-.079c0-.984-.278-1.747-.835-2.288-.548-.541-1.367-.812-2.457-.812-1.135 0-2.029.252-2.683.756-.646.496-1.093 1.048-1.341 1.657l-3.168-.722c.376-1.052.924-1.901 1.646-2.547a6.673 6.673 0 0 1 2.514-1.421 9.824 9.824 0 0 1 2.987-.451c.691 0 1.424.083 2.198.248a6.42 6.42 0 0 1 2.187.88c.684.428 1.244 1.04 1.68 1.837.436.789.654 1.815.654 3.078v11.498h-3.292v-2.367h-.135c-.218.435-.545.864-.981 1.285-.436.421-.996.77-1.68 1.048-.684.278-1.503.417-2.457.417Zm.732-2.705c.932 0 1.729-.184 2.39-.553.669-.368 1.176-.849 1.522-1.443.353-.601.53-1.243.53-1.927v-2.232c-.12.12-.353.233-.699.338-.338.098-.725.184-1.161.259-.436.068-.861.132-1.274.192-.413.052-.759.097-1.037.135a8.393 8.393 0 0 0-1.792.417c-.534.196-.962.477-1.286.846-.315.36-.473.841-.473 1.443 0 .834.308 1.465.924 1.893.617.421 1.402.632 2.356.632Zm15.673-7.959v10.281h-3.371v-17.315h3.235v2.818h.214a4.962 4.962 0 0 1 1.872-2.21c.857-.556 1.935-.834 3.235-.834 1.18 0 2.213.248 3.1.744.887.489 1.575 1.218 2.063 2.187.489.97.733 2.168.733 3.596v11.014h-3.371v-10.608c0-1.255-.327-2.236-.981-2.942-.653-.714-1.551-1.071-2.694-1.071-.781 0-1.476.169-2.085.507-.601.338-1.079.834-1.432 1.488-.346.647-.518 1.428-.518 2.345Zm22.083 10.619c-1.398 0-2.645-.357-3.742-1.071-1.09-.721-1.947-1.747-2.571-3.077-.616-1.338-.924-2.943-.924-4.814s.312-3.472.936-4.802c.631-1.33 1.495-2.349 2.592-3.055 1.098-.707 2.341-1.06 3.732-1.06 1.074 0 1.939.181 2.592.541.662.354 1.173.767 1.534 1.24.368.474.653.891.856 1.252h.203v-8.579h3.371v23.087h-3.292v-2.694h-.282a8.931 8.931 0 0 1-.879 1.262c-.376.474-.894.887-1.556 1.24-.661.353-1.518.53-2.57.53Zm.744-2.875c.97 0 1.789-.255 2.458-.766.676-.519 1.187-1.236 1.533-2.153.353-.917.53-1.984.53-3.202 0-1.202-.173-2.254-.519-3.156-.346-.902-.853-1.605-1.522-2.108-.669-.504-1.495-.755-2.48-.755-1.014 0-1.86.263-2.536.789-.677.526-1.188 1.243-1.533 2.153-.339.909-.508 1.935-.508 3.077 0 1.158.173 2.199.519 3.123.346.924.857 1.657 1.533 2.198.684.534 1.526.8 2.525.8Zm24.422-7.744v10.281h-3.38v-23.087h3.33v8.59h.21a5.032 5.032 0 0 1 1.86-2.221c.84-.548 1.93-.823 3.27-.823 1.19 0 2.23.244 3.11.733.9.488 1.59 1.217 2.08 2.187.5.962.74 2.164.74 3.607v11.014h-3.37v-10.608c0-1.27-.32-2.255-.98-2.953-.65-.707-1.56-1.06-2.73-1.06-.79 0-1.51.169-2.14.507-.62.338-1.11.834-1.47 1.488-.36.647-.53 1.428-.53 2.345Zm23.18 10.63c-1.7 0-3.17-.364-4.4-1.093-1.23-.737-2.18-1.77-2.84-3.1-.67-1.338-1-2.905-1-4.701 0-1.774.33-3.337 1-4.69.66-1.352 1.6-2.408 2.79-3.167 1.2-.759 2.61-1.139 4.22-1.139.97 0 1.92.162 2.84.485.91.323 1.74.83 2.47 1.522.73.691 1.3 1.589 1.72 2.694.42 1.097.63 2.431.63 4.002v1.195h-13.76v-2.525h10.46c0-.887-.18-1.672-.54-2.356a4.104 4.104 0 0 0-1.52-1.635c-.65-.398-1.41-.597-2.28-.597-.95 0-1.77.233-2.48.699a4.644 4.644 0 0 0-1.62 1.803 5.161 5.161 0 0 0-.57 2.401v1.973c0 1.157.21 2.142.61 2.954.41.811.99 1.431 1.73 1.86.73.421 1.59.631 2.58.631.64 0 1.22-.09 1.74-.271a3.73 3.73 0 0 0 1.37-.834c.38-.368.68-.823.88-1.364l3.19.575a5.855 5.855 0 0 1-1.38 2.469c-.65.699-1.47 1.244-2.47 1.634-.98.384-2.1.575-3.37.575Zm11.17-.349v-17.315h3.37v17.315h-3.37Zm1.7-19.987a2.15 2.15 0 0 1-1.51-.586c-.41-.398-.62-.872-.62-1.421 0-.556.21-1.029.62-1.42a2.13 2.13 0 0 1 1.51-.597c.59 0 1.09.199 1.5.597.42.391.64.864.64 1.42 0 .549-.22 1.023-.64 1.421-.41.391-.91.586-1.5.586Zm13.47 26.841c-1.38 0-2.56-.181-3.55-.541-.99-.361-1.79-.838-2.42-1.432-.62-.594-1.09-1.244-1.39-1.95l2.89-1.195c.21.331.48.68.81 1.048.35.376.82.695 1.4.958.6.264 1.36.395 2.29.395 1.28 0 2.33-.312 3.17-.936.83-.616 1.25-1.6 1.25-2.953v-3.405h-.21c-.21.369-.5.778-.88 1.229-.38.451-.9.842-1.56 1.173-.66.33-1.52.496-2.58.496-1.37 0-2.6-.32-3.7-.959-1.09-.646-1.95-1.597-2.59-2.852-.63-1.262-.95-2.814-.95-4.655 0-1.842.31-3.42.94-4.735.63-1.315 1.49-2.322 2.59-3.021 1.1-.707 2.34-1.06 3.73-1.06 1.08 0 1.94.181 2.61.541.66.354 1.17.767 1.54 1.24.38.474.67.891.87 1.252h.25v-2.807h3.3v17.698c0 1.488-.35 2.709-1.04 3.664-.69.954-1.62 1.661-2.8 2.119-1.18.459-2.5.688-3.97.688Zm-.04-9.909c.97 0 1.79-.226 2.46-.676.68-.459 1.19-1.113 1.53-1.962.36-.857.53-1.883.53-3.077 0-1.165-.17-2.191-.51-3.078-.35-.887-.86-1.578-1.53-2.074-.67-.504-1.49-.755-2.48-.755-1.01 0-1.86.263-2.53.789-.68.518-1.19 1.225-1.54 2.119-.33.894-.5 1.894-.5 2.999 0 1.134.17 2.13.52 2.987.34.857.85 1.525 1.53 2.006.68.481 1.52.722 2.52.722Zm15.74-7.226v10.281h-3.37v-23.087h3.33v8.59h.21a5.032 5.032 0 0 1 1.86-2.221c.83-.548 1.92-.823 3.27-.823 1.19 0 2.22.244 3.11.733.89.488 1.59 1.217 2.07 2.187.5.962.75 2.164.75 3.607v11.014h-3.37v-10.608c0-1.27-.33-2.255-.98-2.953-.66-.707-1.57-1.06-2.73-1.06-.8 0-1.51.169-2.14.507-.63.338-1.12.834-1.48 1.488-.35.647-.53 1.428-.53 2.345Zm23.81-7.034v2.705h-9.46v-2.705h9.46Zm-6.92-4.149h3.37v16.38c0 .654.1 1.146.29 1.477.2.323.45.544.76.665.31.112.65.169 1.02.169.27 0 .51-.019.71-.057.21-.037.36-.067.48-.09l.6 2.785c-.19.075-.47.15-.83.225-.36.083-.81.128-1.35.135a5.9 5.9 0 0 1-2.48-.473 4.22 4.22 0 0 1-1.86-1.533c-.48-.692-.71-1.56-.71-2.604v-17.079Z"/><path fill="#E2E8F0" d="M1107.88 352.212H322.735v2.116h785.145v-2.116Z" mask="url(#path-12-inside-2_722_1585)"/><path fill="#3F3F46" d="M338.421 422.685c-.135-1.143-.684-2.029-1.646-2.661-.961-.631-2.141-.947-3.539-.947-1.022 0-1.917.166-2.683.496-.759.331-1.353.786-1.781 1.365a3.267 3.267 0 0 0-.632 1.972c0 .617.147 1.146.44 1.59.301.436.684.8 1.15 1.093.466.286.954.523 1.465.71.511.181.981.327 1.41.44l2.344.631c.601.158 1.27.376 2.007.654a9.252 9.252 0 0 1 2.13 1.139 5.787 5.787 0 0 1 1.691 1.826c.444.744.665 1.657.665 2.739 0 1.248-.326 2.375-.98 3.382-.647 1.007-1.594 1.808-2.841 2.401-1.24.594-2.747.891-4.52.891-1.654 0-3.085-.267-4.295-.801-1.203-.533-2.15-1.277-2.841-2.232-.684-.954-1.071-2.063-1.161-3.325h2.886c.075.872.368 1.593.879 2.164.518.564 1.172.985 1.961 1.263.797.27 1.654.406 2.571.406 1.067 0 2.025-.173 2.874-.519.849-.353 1.522-.842 2.018-1.465.496-.632.744-1.368.744-2.21 0-.766-.214-1.39-.643-1.871-.428-.481-.992-.872-1.691-1.173a17.92 17.92 0 0 0-2.265-.789l-2.841-.811c-1.804-.519-3.232-1.259-4.284-2.221-1.052-.962-1.578-2.221-1.578-3.776 0-1.293.349-2.42 1.048-3.382.707-.97 1.654-1.721 2.841-2.255 1.195-.541 2.529-.812 4.002-.812 1.488 0 2.811.267 3.968.801 1.157.526 2.074 1.247 2.751 2.164a5.395 5.395 0 0 1 1.082 3.123h-2.706Zm14.517 17.676c-1.668 0-3.108-.369-4.318-1.105-1.202-.744-2.13-1.781-2.784-3.111-.646-1.338-.969-2.894-.969-4.667 0-1.774.323-3.337.969-4.69.654-1.36 1.563-2.42 2.728-3.179 1.173-.766 2.54-1.15 4.103-1.15.902 0 1.793.151 2.672.451.879.301 1.68.789 2.401 1.466.722.669 1.297 1.555 1.725 2.66.428 1.105.643 2.465.643 4.081v1.127H346.76v-2.299h10.642c0-.977-.195-1.849-.586-2.616a4.423 4.423 0 0 0-1.646-1.815c-.706-.443-1.541-.665-2.503-.665-1.059 0-1.976.263-2.75.789a5.189 5.189 0 0 0-1.77 2.029 5.97 5.97 0 0 0-.62 2.683v1.534c0 1.307.225 2.416.676 3.325.459.902 1.094 1.589 1.906 2.063.811.466 1.754.699 2.829.699a5.77 5.77 0 0 0 1.894-.293 4.067 4.067 0 0 0 1.477-.902c.413-.406.732-.909.958-1.511l2.57.722a5.706 5.706 0 0 1-1.364 2.3c-.639.653-1.428 1.164-2.367 1.533-.94.36-1.996.541-3.168.541Zm18.747-17.676v2.254h-8.973v-2.254h8.973Zm-6.358-4.149h2.66v16.504c0 .751.109 1.315.327 1.691.226.368.511.616.857.744.353.12.725.18 1.116.18.293 0 .534-.015.721-.045l.451-.09.541 2.39c-.18.067-.432.135-.755.203-.323.075-.733.112-1.229.112a5.354 5.354 0 0 1-2.209-.484 4.387 4.387 0 0 1-1.781-1.477c-.466-.661-.699-1.496-.699-2.503v-17.225Zm24.383 21.87c-1.097 0-2.093-.207-2.987-.62a5.131 5.131 0 0 1-2.131-1.815c-.526-.797-.789-1.759-.789-2.886 0-.992.196-1.796.586-2.412a4.143 4.143 0 0 1 1.567-1.466 8.256 8.256 0 0 1 2.165-.789c.796-.18 1.597-.323 2.401-.428 1.052-.136 1.905-.237 2.559-.305.661-.075 1.142-.199 1.443-.372.308-.173.462-.473.462-.902v-.09c0-1.112-.304-1.976-.913-2.592-.601-.617-1.514-.925-2.739-.925-1.271 0-2.266.278-2.988.834-.721.556-1.229 1.15-1.522 1.781l-2.525-.901c.451-1.053 1.052-1.872 1.804-2.458a6.758 6.758 0 0 1 2.48-1.24 10.32 10.32 0 0 1 2.66-.361c.556 0 1.195.068 1.917.203a6.14 6.14 0 0 1 2.108.801c.684.405 1.251 1.018 1.702 1.837.451.819.676 1.917.676 3.292V440h-2.66v-2.345h-.135c-.181.376-.481.778-.902 1.206-.421.429-.981.793-1.68 1.094-.699.301-1.552.451-2.559.451Zm.406-2.39c1.052 0 1.939-.207 2.66-.62.729-.413 1.278-.947 1.646-1.601a4.077 4.077 0 0 0 .564-2.063v-2.435c-.113.136-.361.26-.744.372-.376.106-.812.199-1.308.282-.488.075-.965.143-1.431.203-.459.053-.831.098-1.116.135-.692.091-1.338.237-1.939.44-.594.195-1.075.492-1.443.891-.361.39-.541.924-.541 1.6 0 .925.342 1.624 1.025 2.097.692.466 1.567.699 2.627.699Zm15.047-8.432V440h-2.661v-17.315h2.57v2.705h.226a4.948 4.948 0 0 1 1.849-2.119c.826-.541 1.893-.812 3.201-.812 1.172 0 2.198.241 3.078.722.879.473 1.563 1.195 2.051 2.164.489.962.733 2.18.733 3.653V440h-2.66v-10.822c0-1.36-.354-2.42-1.06-3.179-.706-.767-1.676-1.15-2.908-1.15-.85 0-1.609.184-2.278.553-.661.368-1.183.905-1.567 1.612-.383.706-.574 1.563-.574 2.57Zm32.096 10.777c-1.668 0-3.107-.369-4.317-1.105-1.203-.744-2.131-1.781-2.785-3.111-.646-1.338-.969-2.894-.969-4.667 0-1.774.323-3.337.969-4.69.654-1.36 1.564-2.42 2.728-3.179 1.173-.766 2.541-1.15 4.104-1.15.902 0 1.792.151 2.671.451a6.62 6.62 0 0 1 2.402 1.466c.721.669 1.296 1.555 1.724 2.66.429 1.105.643 2.465.643 4.081v1.127h-13.347v-2.299h10.641c0-.977-.195-1.849-.586-2.616a4.423 4.423 0 0 0-1.646-1.815c-.706-.443-1.54-.665-2.502-.665-1.06 0-1.977.263-2.751.789a5.205 5.205 0 0 0-1.77 2.029 5.97 5.97 0 0 0-.62 2.683v1.534c0 1.307.226 2.416.677 3.325.458.902 1.093 1.589 1.905 2.063.811.466 1.755.699 2.829.699.699 0 1.331-.098 1.894-.293a4.06 4.06 0 0 0 1.477-.902c.413-.406.733-.909.958-1.511l2.57.722a5.694 5.694 0 0 1-1.364 2.3c-.638.653-1.428 1.164-2.367 1.533-.939.36-1.995.541-3.168.541Zm12.736-17.676 4.148 7.079 4.149-7.079h3.066l-5.591 8.657 5.591 8.658h-3.066l-4.149-6.719-4.148 6.719h-3.066l5.501-8.658-5.501-8.657h3.066Zm15.159 23.808v-23.808h2.57v2.75h.316c.195-.3.466-.683.812-1.149.353-.474.856-.895 1.51-1.263.662-.376 1.556-.564 2.683-.564 1.458 0 2.743.365 3.855 1.094 1.113.729 1.981 1.762 2.605 3.1.623 1.338.935 2.916.935 4.735 0 1.833-.312 3.423-.935 4.768-.624 1.338-1.488 2.375-2.593 3.111-1.105.729-2.379 1.094-3.822 1.094-1.112 0-2.003-.184-2.671-.553-.669-.375-1.184-.8-1.545-1.273-.361-.481-.639-.88-.834-1.195h-.225v9.153h-2.661Zm2.615-15.151c0 1.308.192 2.462.575 3.461.384.992.944 1.77 1.68 2.334.737.556 1.638.834 2.706.834 1.112 0 2.04-.293 2.784-.879.751-.594 1.315-1.391 1.691-2.39.383-1.007.575-2.127.575-3.36 0-1.217-.188-2.314-.564-3.291-.368-.985-.928-1.763-1.68-2.334-.744-.578-1.679-.868-2.806-.868-1.083 0-1.992.275-2.729.823-.736.541-1.292 1.3-1.668 2.277-.376.97-.564 2.101-.564 3.393Zm19.39-14.429V440h-2.661v-23.087h2.661ZM492.032 440v-17.315h2.66V440h-2.66Zm1.352-20.201c-.518 0-.965-.177-1.341-.53a1.704 1.704 0 0 1-.553-1.274c0-.496.185-.92.553-1.274a1.892 1.892 0 0 1 1.341-.529c.519 0 .962.176 1.331.529.375.354.563.778.563 1.274s-.188.921-.563 1.274c-.369.353-.812.53-1.331.53Zm13.215 20.562c-1.623 0-3.021-.384-4.194-1.15-1.172-.767-2.074-1.823-2.705-3.168-.631-1.345-.947-2.882-.947-4.61 0-1.759.323-3.311.969-4.656.654-1.353 1.564-2.409 2.729-3.168 1.172-.766 2.54-1.15 4.103-1.15 1.217 0 2.315.226 3.292.677a6.302 6.302 0 0 1 2.401 1.894c.623.811 1.01 1.758 1.161 2.84h-2.661c-.203-.789-.653-1.488-1.352-2.096-.692-.617-1.624-.925-2.796-.925-1.037 0-1.947.271-2.728.812-.774.533-1.379 1.289-1.815 2.266-.428.969-.643 2.108-.643 3.415 0 1.338.211 2.503.632 3.495.428.992 1.029 1.762 1.803 2.311.782.549 1.699.823 2.751.823.691 0 1.319-.12 1.883-.361a3.881 3.881 0 0 0 1.431-1.037c.391-.451.669-.992.834-1.623h2.661a6.184 6.184 0 0 1-1.116 2.762c-.586.811-1.364 1.458-2.334 1.939-.962.473-2.081.71-3.359.71Zm10.698-.361v-17.315h2.66V440h-2.66Zm1.353-20.201c-.519 0-.966-.177-1.342-.53a1.703 1.703 0 0 1-.552-1.274c0-.496.184-.92.552-1.274a1.893 1.893 0 0 1 1.342-.529c.518 0 .962.176 1.33.529.376.354.564.778.564 1.274s-.188.921-.564 1.274c-.368.353-.812.53-1.33.53Zm13.71 2.886v2.254h-8.973v-2.254h8.973Zm-6.358-4.149h2.661v16.504c0 .751.109 1.315.327 1.691.225.368.511.616.857.744.353.12.725.18 1.116.18.293 0 .533-.015.721-.045l.451-.09.541 2.39c-.18.067-.432.135-.755.203-.323.075-.733.112-1.229.112a5.359 5.359 0 0 1-2.21-.484 4.4 4.4 0 0 1-1.781-1.477c-.466-.661-.699-1.496-.699-2.503v-17.225ZM549.213 440l-5.275-17.315h2.795l3.743 13.257h.18l3.698-13.257h2.841l3.652 13.212h.18l3.743-13.212h2.796L562.29 440h-2.615l-3.788-13.302h-.271L551.829 440h-2.616Zm21.87 0v-17.315h2.66V440h-2.66Zm1.353-20.201c-.519 0-.966-.177-1.342-.53a1.703 1.703 0 0 1-.552-1.274c0-.496.184-.92.552-1.274a1.893 1.893 0 0 1 1.342-.529c.518 0 .961.176 1.33.529.376.354.563.778.563 1.274s-.187.921-.563 1.274c-.369.353-.812.53-1.33.53Zm12.718 20.562c-1.443 0-2.717-.365-3.821-1.094-1.105-.736-1.969-1.773-2.593-3.111-.624-1.345-.936-2.935-.936-4.768 0-1.819.312-3.397.936-4.735.624-1.338 1.492-2.371 2.604-3.1 1.112-.729 2.397-1.094 3.855-1.094 1.128 0 2.018.188 2.672.564.661.368 1.165.789 1.511 1.263.353.466.627.849.822 1.149h.226v-8.522h2.66V440h-2.57v-2.66h-.316c-.195.315-.473.714-.834 1.195-.36.473-.875.898-1.544 1.273-.669.369-1.56.553-2.672.553Zm.361-2.39c1.067 0 1.969-.278 2.705-.834.737-.564 1.297-1.342 1.68-2.334.383-.999.575-2.153.575-3.461 0-1.292-.188-2.423-.564-3.393-.375-.977-.932-1.736-1.668-2.277-.737-.548-1.646-.823-2.728-.823-1.127 0-2.067.29-2.818.868-.744.571-1.304 1.349-1.68 2.334-.368.977-.552 2.074-.552 3.291 0 1.233.188 2.353.563 3.36.384.999.947 1.796 1.691 2.39.752.586 1.684.879 2.796.879Zm20.347-15.286v2.254h-8.973v-2.254h8.973Zm-6.357-4.149h2.66v16.504c0 .751.109 1.315.327 1.691.225.368.511.616.857.744.353.12.725.18 1.116.18.293 0 .533-.015.721-.045l.451-.09.541 2.39c-.18.067-.432.135-.755.203-.323.075-.733.112-1.229.112a5.354 5.354 0 0 1-2.209-.484 4.397 4.397 0 0 1-1.782-1.477c-.465-.661-.698-1.496-.698-2.503v-17.225Zm13.392 11.048V440h-2.661v-23.087h2.661v8.477h.225a4.9 4.9 0 0 1 1.826-2.13c.82-.534 1.909-.801 3.27-.801 1.18 0 2.213.237 3.1.711.886.466 1.574 1.183 2.063 2.153.496.962.744 2.187.744 3.675V440h-2.661v-10.822c0-1.375-.357-2.439-1.071-3.19-.706-.759-1.687-1.139-2.942-1.139-.872 0-1.653.184-2.345.553a4.028 4.028 0 0 0-1.623 1.612c-.391.706-.586 1.563-.586 2.57Zm30.118 10.822c-1.097 0-2.093-.207-2.987-.62a5.131 5.131 0 0 1-2.131-1.815c-.526-.797-.789-1.759-.789-2.886 0-.992.196-1.796.586-2.412a4.136 4.136 0 0 1 1.567-1.466 8.256 8.256 0 0 1 2.165-.789c.796-.18 1.597-.323 2.401-.428 1.052-.136 1.905-.237 2.559-.305.661-.075 1.142-.199 1.443-.372.308-.173.462-.473.462-.902v-.09c0-1.112-.304-1.976-.913-2.592-.601-.617-1.515-.925-2.74-.925-1.27 0-2.265.278-2.987.834-.721.556-1.229 1.15-1.522 1.781l-2.525-.901c.451-1.053 1.052-1.872 1.804-2.458a6.758 6.758 0 0 1 2.48-1.24 10.32 10.32 0 0 1 2.66-.361c.556 0 1.195.068 1.917.203a6.14 6.14 0 0 1 2.108.801c.684.405 1.251 1.018 1.702 1.837.451.819.676 1.917.676 3.292V440h-2.66v-2.345h-.135c-.181.376-.481.778-.902 1.206-.421.429-.981.793-1.68 1.094-.699.301-1.552.451-2.559.451Zm.406-2.39c1.052 0 1.939-.207 2.66-.62.729-.413 1.278-.947 1.646-1.601a4.077 4.077 0 0 0 .564-2.063v-2.435c-.113.136-.361.26-.744.372-.376.106-.812.199-1.308.282-.488.075-.965.143-1.431.203-.459.053-.831.098-1.116.135-.692.091-1.338.237-1.939.44-.594.195-1.075.492-1.443.891-.361.39-.541.924-.541 1.6 0 .925.342 1.624 1.025 2.097.692.466 1.567.699 2.627.699Zm15.047-8.432V440h-2.661v-17.315h2.57v2.705h.226a4.948 4.948 0 0 1 1.849-2.119c.826-.541 1.893-.812 3.201-.812 1.172 0 2.198.241 3.078.722.879.473 1.563 1.195 2.051 2.164.489.962.733 2.18.733 3.653V440h-2.66v-10.822c0-1.36-.354-2.42-1.06-3.179-.707-.767-1.676-1.15-2.909-1.15-.849 0-1.608.184-2.277.553-.661.368-1.183.905-1.567 1.612-.383.706-.574 1.563-.574 2.57Zm22.447 10.777c-1.443 0-2.717-.365-3.822-1.094-1.105-.736-1.969-1.773-2.593-3.111-.623-1.345-.935-2.935-.935-4.768 0-1.819.312-3.397.935-4.735.624-1.338 1.492-2.371 2.604-3.1 1.113-.729 2.398-1.094 3.856-1.094 1.127 0 2.018.188 2.671.564.662.368 1.165.789 1.511 1.263.353.466.628.849.823 1.149h.225v-8.522h2.661V440h-2.57v-2.66h-.316c-.195.315-.474.714-.834 1.195-.361.473-.876.898-1.545 1.273-.669.369-1.559.553-2.671.553Zm.36-2.39c1.068 0 1.969-.278 2.706-.834.736-.564 1.296-1.342 1.68-2.334.383-.999.574-2.153.574-3.461 0-1.292-.187-2.423-.563-3.393-.376-.977-.932-1.736-1.669-2.277-.736-.548-1.645-.823-2.728-.823-1.127 0-2.066.29-2.818.868-.744.571-1.304 1.349-1.679 2.334-.369.977-.553 2.074-.553 3.291 0 1.233.188 2.353.564 3.36.383.999.947 1.796 1.691 2.39.751.586 1.683.879 2.795.879Zm24.406-8.387V440h-2.66v-23.087h2.66v8.477h.226a4.893 4.893 0 0 1 1.826-2.13c.819-.534 1.909-.801 3.269-.801 1.18 0 2.213.237 3.1.711.887.466 1.575 1.183 2.063 2.153.496.962.744 2.187.744 3.675V440h-2.66v-10.822c0-1.375-.357-2.439-1.071-3.19-.707-.759-1.687-1.139-2.942-1.139-.872 0-1.654.184-2.345.553a4.036 4.036 0 0 0-1.624 1.612c-.39.706-.586 1.563-.586 2.57Zm23.355 10.777c-1.669 0-3.108-.369-4.318-1.105-1.202-.744-2.13-1.781-2.784-3.111-.646-1.338-.97-2.894-.97-4.667 0-1.774.324-3.337.97-4.69.654-1.36 1.563-2.42 2.728-3.179 1.172-.766 2.54-1.15 4.103-1.15.902 0 1.793.151 2.672.451.879.301 1.68.789 2.401 1.466.722.669 1.297 1.555 1.725 2.66.428 1.105.642 2.465.642 4.081v1.127h-13.347v-2.299H733.5c0-.977-.195-1.849-.586-2.616a4.43 4.43 0 0 0-1.646-1.815c-.707-.443-1.541-.665-2.503-.665-1.059 0-1.976.263-2.75.789a5.189 5.189 0 0 0-1.77 2.029 5.97 5.97 0 0 0-.62 2.683v1.534c0 1.307.225 2.416.676 3.325.459.902 1.094 1.589 1.905 2.063.812.466 1.755.699 2.83.699a5.77 5.77 0 0 0 1.894-.293 4.055 4.055 0 0 0 1.476-.902c.414-.406.733-.909.959-1.511l2.57.722a5.706 5.706 0 0 1-1.364 2.3c-.639.653-1.428 1.164-2.367 1.533-.94.36-1.996.541-3.168.541Zm11.216-.361v-17.315h2.661V440h-2.661Zm1.353-20.201c-.518 0-.966-.177-1.341-.53a1.7 1.7 0 0 1-.553-1.274c0-.496.184-.92.553-1.274a1.89 1.89 0 0 1 1.341-.529c.519 0 .962.176 1.33.529.376.354.564.778.564 1.274s-.188.921-.564 1.274c-.368.353-.811.53-1.33.53Zm13.17 27.055c-1.285 0-2.39-.165-3.315-.496-.924-.323-1.694-.752-2.31-1.285a7.038 7.038 0 0 1-1.455-1.691l2.12-1.488c.24.315.545.676.913 1.082.368.413.872.77 1.51 1.071.647.308 1.492.462 2.537.462 1.398 0 2.551-.338 3.461-1.014.909-.677 1.364-1.736 1.364-3.179v-3.518h-.226a14.1 14.1 0 0 1-.834 1.173c-.353.458-.864.868-1.533 1.229-.662.353-1.556.529-2.683.529-1.398 0-2.653-.33-3.765-.992-1.105-.661-1.981-1.623-2.627-2.885-.639-1.263-.958-2.796-.958-4.6 0-1.773.312-3.318.936-4.633.623-1.323 1.491-2.345 2.604-3.066 1.112-.729 2.397-1.094 3.855-1.094 1.127 0 2.022.188 2.683.564.669.368 1.18.789 1.533 1.263.361.466.639.849.834 1.149h.271v-2.75h2.57v17.811c0 1.488-.338 2.698-1.015 3.63-.668.939-1.57 1.627-2.705 2.063-1.127.443-2.382.665-3.765.665Zm-.09-9.514c1.067 0 1.969-.245 2.705-.733.737-.489 1.296-1.191 1.68-2.108.383-.917.575-2.014.575-3.292 0-1.247-.188-2.348-.564-3.303-.376-.954-.932-1.702-1.668-2.243-.737-.541-1.646-.812-2.728-.812-1.128 0-2.067.286-2.819.857-.744.571-1.304 1.338-1.679 2.3-.369.962-.553 2.029-.553 3.201 0 1.203.188 2.266.564 3.19.383.917.947 1.639 1.691 2.165.751.518 1.683.778 2.796.778Zm15.105-7.756V440h-2.66v-23.087h2.66v8.477h.226a4.893 4.893 0 0 1 1.826-2.13c.819-.534 1.909-.801 3.269-.801 1.18 0 2.213.237 3.1.711.887.466 1.575 1.183 2.063 2.153.496.962.744 2.187.744 3.675V440h-2.66v-10.822c0-1.375-.357-2.439-1.071-3.19-.707-.759-1.687-1.139-2.943-1.139-.871 0-1.653.184-2.344.553a4.036 4.036 0 0 0-1.624 1.612c-.39.706-.586 1.563-.586 2.57Zm23.625-6.899v2.254h-8.973v-2.254h8.973Zm-6.357-4.149h2.66v16.504c0 .751.109 1.315.327 1.691.225.368.511.616.857.744.353.12.725.18 1.116.18.293 0 .533-.015.721-.045l.451-.09.541 2.39c-.18.067-.432.135-.755.203-.323.075-.733.112-1.229.112a5.354 5.354 0 0 1-2.209-.484 4.397 4.397 0 0 1-1.782-1.477c-.466-.661-.698-1.496-.698-2.503v-17.225Zm26.322 21.825c-1.563 0-2.935-.372-4.115-1.116-1.172-.744-2.089-1.785-2.75-3.123-.654-1.338-.981-2.901-.981-4.689 0-1.804.327-3.379.981-4.724.661-1.345 1.578-2.39 2.75-3.134 1.18-.744 2.552-1.116 4.115-1.116 1.563 0 2.931.372 4.103 1.116 1.18.744 2.097 1.789 2.751 3.134.661 1.345.992 2.92.992 4.724 0 1.788-.331 3.351-.992 4.689-.654 1.338-1.571 2.379-2.751 3.123-1.172.744-2.54 1.116-4.103 1.116Zm0-2.39c1.187 0 2.164-.304 2.931-.913.766-.609 1.334-1.409 1.702-2.401.368-.992.552-2.067.552-3.224 0-1.158-.184-2.236-.552-3.236-.368-.999-.936-1.807-1.702-2.423-.767-.617-1.744-.925-2.931-.925-1.188 0-2.165.308-2.931.925-.767.616-1.334 1.424-1.702 2.423-.369 1-.553 2.078-.553 3.236 0 1.157.184 2.232.553 3.224.368.992.935 1.792 1.702 2.401.766.609 1.743.913 2.931.913Zm14.567-8.387V440h-2.66v-17.315h2.57v2.705h.225a4.954 4.954 0 0 1 1.849-2.119c.827-.541 1.894-.812 3.202-.812 1.172 0 2.198.241 3.077.722.879.473 1.563 1.195 2.052 2.164.488.962.733 2.18.733 3.653V440h-2.661v-10.822c0-1.36-.353-2.42-1.059-3.179-.707-.767-1.676-1.15-2.909-1.15-.849 0-1.608.184-2.277.553-.661.368-1.184.905-1.567 1.612-.383.706-.575 1.563-.575 2.57ZM852.784 440v-17.315h2.661V440h-2.661Zm1.353-20.201c-.519 0-.966-.177-1.342-.53a1.703 1.703 0 0 1-.552-1.274c0-.496.184-.92.552-1.274a1.893 1.893 0 0 1 1.342-.529c.518 0 .962.176 1.33.529.376.354.564.778.564 1.274s-.188.921-.564 1.274c-.368.353-.812.53-1.33.53Zm6.18 20.201v-17.315h2.57v2.705h.226c.361-.924.943-1.642 1.747-2.153.804-.518 1.77-.778 2.897-.778 1.143 0 2.093.26 2.852.778.767.511 1.364 1.229 1.793 2.153h.18a5.052 5.052 0 0 1 1.995-2.13c.887-.534 1.951-.801 3.191-.801 1.548 0 2.814.485 3.799 1.455.984.962 1.476 2.461 1.476 4.497V440h-2.66v-11.589c0-1.277-.349-2.19-1.048-2.739-.699-.548-1.522-.823-2.469-.823-1.218 0-2.161.368-2.83 1.105-.668.729-1.003 1.653-1.003 2.773V440h-2.705v-11.859c0-.985-.32-1.777-.959-2.379-.638-.608-1.461-.913-2.468-.913a3.64 3.64 0 0 0-1.939.553 4.163 4.163 0 0 0-1.443 1.533c-.361.646-.541 1.394-.541 2.243V440h-2.661Zm32.686.406c-1.097 0-2.093-.207-2.987-.62a5.125 5.125 0 0 1-2.131-1.815c-.526-.797-.789-1.759-.789-2.886 0-.992.195-1.796.586-2.412a4.136 4.136 0 0 1 1.567-1.466 8.243 8.243 0 0 1 2.165-.789c.796-.18 1.597-.323 2.401-.428 1.052-.136 1.905-.237 2.559-.305.661-.075 1.142-.199 1.443-.372.308-.173.462-.473.462-.902v-.09c0-1.112-.305-1.976-.913-2.592-.602-.617-1.515-.925-2.74-.925-1.27 0-2.265.278-2.987.834-.721.556-1.229 1.15-1.522 1.781l-2.525-.901c.451-1.053 1.052-1.872 1.804-2.458a6.75 6.75 0 0 1 2.48-1.24c.902-.24 1.788-.361 2.66-.361.556 0 1.195.068 1.917.203a6.14 6.14 0 0 1 2.108.801c.684.405 1.251 1.018 1.702 1.837.451.819.676 1.917.676 3.292V440h-2.66v-2.345h-.135c-.181.376-.481.778-.902 1.206-.421.429-.981.793-1.68 1.094-.699.301-1.552.451-2.559.451Zm.406-2.39c1.052 0 1.939-.207 2.66-.62.729-.413 1.278-.947 1.646-1.601a4.077 4.077 0 0 0 .564-2.063v-2.435c-.113.136-.361.26-.744.372-.376.106-.812.199-1.308.282-.488.075-.966.143-1.432.203-.458.053-.83.098-1.116.135-.691.091-1.337.237-1.938.44-.594.195-1.075.492-1.443.891-.361.39-.542.924-.542 1.6 0 .925.342 1.624 1.026 2.097.692.466 1.567.699 2.627.699Zm19.375 8.838c-1.285 0-2.39-.165-3.314-.496-.924-.323-1.695-.752-2.311-1.285a7.033 7.033 0 0 1-1.454-1.691l2.119-1.488c.241.315.545.676.913 1.082.368.413.872.77 1.511 1.071.646.308 1.492.462 2.536.462 1.398 0 2.552-.338 3.461-1.014.909-.677 1.364-1.736 1.364-3.179v-3.518h-.225a14.39 14.39 0 0 1-.835 1.173c-.353.458-.864.868-1.533 1.229-.661.353-1.555.529-2.683.529-1.398 0-2.653-.33-3.765-.992-1.105-.661-1.98-1.623-2.626-2.885-.639-1.263-.959-2.796-.959-4.6 0-1.773.312-3.318.936-4.633.624-1.323 1.492-2.345 2.604-3.066 1.112-.729 2.397-1.094 3.855-1.094 1.128 0 2.022.188 2.683.564.669.368 1.18.789 1.533 1.263.361.466.639.849.835 1.149h.27v-2.75h2.57v17.811c0 1.488-.338 2.698-1.014 3.63-.669.939-1.571 1.627-2.706 2.063-1.127.443-2.382.665-3.765.665Zm-.09-9.514c1.067 0 1.969-.245 2.706-.733.736-.489 1.296-1.191 1.679-2.108s.575-2.014.575-3.292c0-1.247-.188-2.348-.564-3.303-.375-.954-.931-1.702-1.668-2.243-.736-.541-1.646-.812-2.728-.812-1.127 0-2.067.286-2.818.857-.744.571-1.304 1.338-1.68 2.3-.368.962-.552 2.029-.552 3.201 0 1.203.188 2.266.563 3.19.384.917.947 1.639 1.691 2.165.752.518 1.684.778 2.796.778Zm19.705 3.021c-1.668 0-3.108-.369-4.317-1.105-1.203-.744-2.131-1.781-2.785-3.111-.646-1.338-.969-2.894-.969-4.667 0-1.774.323-3.337.969-4.69.654-1.36 1.563-2.42 2.728-3.179 1.173-.766 2.54-1.15 4.103-1.15.902 0 1.793.151 2.672.451.879.301 1.68.789 2.401 1.466.722.669 1.297 1.555 1.725 2.66.428 1.105.643 2.465.643 4.081v1.127h-13.348v-2.299h10.642c0-.977-.195-1.849-.586-2.616a4.423 4.423 0 0 0-1.646-1.815c-.706-.443-1.541-.665-2.503-.665-1.059 0-1.976.263-2.75.789a5.189 5.189 0 0 0-1.77 2.029 5.97 5.97 0 0 0-.62 2.683v1.534c0 1.307.226 2.416.676 3.325.459.902 1.094 1.589 1.906 2.063.811.466 1.754.699 2.829.699a5.77 5.77 0 0 0 1.894-.293 4.067 4.067 0 0 0 1.477-.902c.413-.406.732-.909.958-1.511l2.57.722a5.694 5.694 0 0 1-1.364 2.3c-.639.653-1.428 1.164-2.367 1.533-.94.36-1.996.541-3.168.541Zm27.404 0c-1.668 0-3.107-.369-4.317-1.105-1.203-.744-2.131-1.781-2.784-3.111-.647-1.338-.97-2.894-.97-4.667 0-1.774.323-3.337.97-4.69.653-1.36 1.563-2.42 2.728-3.179 1.172-.766 2.54-1.15 4.103-1.15.902 0 1.792.151 2.672.451a6.624 6.624 0 0 1 2.401 1.466c.721.669 1.296 1.555 1.724 2.66.429 1.105.643 2.465.643 4.081v1.127h-13.347v-2.299h10.642c0-.977-.196-1.849-.587-2.616a4.423 4.423 0 0 0-1.646-1.815c-.706-.443-1.54-.665-2.502-.665-1.06 0-1.977.263-2.751.789a5.205 5.205 0 0 0-1.77 2.029 5.97 5.97 0 0 0-.62 2.683v1.534c0 1.307.226 2.416.677 3.325.458.902 1.093 1.589 1.905 2.063.812.466 1.755.699 2.829.699.699 0 1.331-.098 1.894-.293a4.06 4.06 0 0 0 1.477-.902c.413-.406.733-.909.958-1.511l2.57.722a5.694 5.694 0 0 1-1.364 2.3c-.638.653-1.427 1.164-2.367 1.533-.939.36-1.995.541-3.168.541Zm13.877-23.448V440h-2.66v-23.087h2.66Zm12.133 23.448c-1.668 0-3.108-.369-4.318-1.105-1.202-.744-2.13-1.781-2.784-3.111-.646-1.338-.969-2.894-.969-4.667 0-1.774.323-3.337.969-4.69.654-1.36 1.563-2.42 2.728-3.179 1.172-.766 2.54-1.15 4.103-1.15.902 0 1.793.151 2.672.451.879.301 1.68.789 2.401 1.466.722.669 1.297 1.555 1.725 2.66.428 1.105.642 2.465.642 4.081v1.127h-13.347v-2.299h10.642c0-.977-.195-1.849-.586-2.616a4.423 4.423 0 0 0-1.646-1.815c-.706-.443-1.541-.665-2.503-.665-1.059 0-1.976.263-2.75.789a5.189 5.189 0 0 0-1.77 2.029 5.97 5.97 0 0 0-.62 2.683v1.534c0 1.307.225 2.416.676 3.325.459.902 1.094 1.589 1.905 2.063.812.466 1.755.699 2.83.699a5.77 5.77 0 0 0 1.894-.293 4.067 4.067 0 0 0 1.477-.902c.413-.406.732-.909.958-1.511l2.57.722a5.706 5.706 0 0 1-1.364 2.3c-.639.653-1.428 1.164-2.367 1.533-.94.36-1.996.541-3.168.541Zm11.216-.361v-17.315h2.571v2.705h.225c.365-.924.945-1.642 1.745-2.153.81-.518 1.77-.778 2.9-.778 1.14 0 2.09.26 2.85.778.77.511 1.37 1.229 1.79 2.153h.18a5.076 5.076 0 0 1 2-2.13c.89-.534 1.95-.801 3.19-.801 1.55 0 2.81.485 3.8 1.455.98.962 1.48 2.461 1.48 4.497V440h-2.66v-11.589c0-1.277-.35-2.19-1.05-2.739-.7-.548-1.53-.823-2.47-.823-1.22 0-2.16.368-2.83 1.105-.67.729-1 1.653-1 2.773V440h-2.71v-11.859c0-.985-.32-1.777-.96-2.379-.64-.608-1.46-.913-2.47-.913-.69 0-1.33.184-1.94.553-.59.368-1.07.879-1.44 1.533-.36.646-.54 1.394-.54 2.243V440h-2.661Zm34.851.361c-1.67 0-3.11-.369-4.32-1.105-1.2-.744-2.13-1.781-2.78-3.111-.65-1.338-.97-2.894-.97-4.667 0-1.774.32-3.337.97-4.69.65-1.36 1.56-2.42 2.73-3.179 1.17-.766 2.54-1.15 4.1-1.15.9 0 1.79.151 2.67.451.88.301 1.68.789 2.4 1.466.72.669 1.3 1.555 1.73 2.66.43 1.105.64 2.465.64 4.081v1.127h-13.35v-2.299h10.64c0-.977-.19-1.849-.58-2.616a4.439 4.439 0 0 0-1.65-1.815c-.7-.443-1.54-.665-2.5-.665-1.06 0-1.98.263-2.75.789a5.142 5.142 0 0 0-1.77 2.029 6.01 6.01 0 0 0-.62 2.683v1.534c0 1.307.22 2.416.68 3.325.45.902 1.09 1.589 1.9 2.063.81.466 1.75.699 2.83.699.7 0 1.33-.098 1.89-.293a4.055 4.055 0 0 0 1.48-.902 4.2 4.2 0 0 0 .96-1.511l2.57.722a5.696 5.696 0 0 1-1.37 2.3c-.63.653-1.42 1.164-2.36 1.533-.94.36-2 .541-3.17.541Zm13.88-10.777V440h-2.66v-17.315h2.57v2.705h.22a4.957 4.957 0 0 1 1.85-2.119c.83-.541 1.89-.812 3.2-.812 1.17 0 2.2.241 3.08.722.88.473 1.56 1.195 2.05 2.164.49.962.73 2.18.73 3.653V440h-2.66v-10.822c0-1.36-.35-2.42-1.06-3.179-.7-.767-1.67-1.15-2.9-1.15-.85 0-1.61.184-2.28.553-.66.368-1.19.905-1.57 1.612-.38.706-.57 1.563-.57 2.57Zm23.44-6.899v2.254h-8.98v-2.254h8.98Zm-6.36-4.149h2.66v16.504c0 .751.11 1.315.33 1.691.22.368.51.616.85.744.36.12.73.18 1.12.18.29 0 .53-.015.72-.045l.45-.09.54 2.39c-.18.067-.43.135-.75.203-.33.075-.74.112-1.23.112-.75 0-1.49-.161-2.21-.484a4.327 4.327 0 0 1-1.78-1.477c-.47-.661-.7-1.496-.7-2.503v-17.225Zm22.31 8.027-2.39.676a4.505 4.505 0 0 0-.66-1.161 3.312 3.312 0 0 0-1.17-.947c-.5-.248-1.14-.372-1.91-.372-1.06 0-1.94.244-2.65.733-.7.481-1.05 1.093-1.05 1.837 0 .662.24 1.184.72 1.567.49.383 1.24.703 2.26.958l2.57.632c1.55.375 2.7.95 3.46 1.724.76.767 1.14 1.755 1.14 2.965 0 .992-.29 1.879-.86 2.661-.56.781-1.35 1.397-2.37 1.848-1.01.451-2.19.677-3.54.677-1.76 0-3.22-.384-4.38-1.15-1.16-.767-1.89-1.886-2.2-3.359l2.53-.632c.24.932.69 1.631 1.36 2.097.68.466 1.56.699 2.65.699 1.24 0 2.22-.263 2.95-.789.74-.534 1.11-1.173 1.11-1.917 0-.601-.21-1.104-.63-1.51-.42-.413-1.07-.722-1.94-.924l-2.89-.677c-1.58-.376-2.75-.958-3.49-1.747-.74-.797-1.11-1.793-1.11-2.987 0-.977.28-1.842.83-2.593.55-.752 1.31-1.342 2.26-1.77.96-.428 2.05-.643 3.27-.643 1.71 0 3.06.376 4.04 1.128.98.751 1.68 1.743 2.09 2.976Zm20.78-3.878v2.254h-8.97v-2.254h8.97Zm-6.36-4.149h2.66v16.504c0 .751.11 1.315.33 1.691.23.368.51.616.86.744.35.12.72.18 1.11.18.3 0 .54-.015.72-.045l.46-.09.54 2.39c-.18.067-.44.135-.76.203-.32.075-.73.112-1.23.112-.75 0-1.49-.161-2.21-.484a4.457 4.457 0 0 1-1.78-1.477c-.46-.661-.7-1.496-.7-2.503v-17.225Zm17.21 21.825c-1.56 0-2.93-.372-4.11-1.116-1.18-.744-2.09-1.785-2.75-3.123-.66-1.338-.98-2.901-.98-4.689 0-1.804.32-3.379.98-4.724.66-1.345 1.57-2.39 2.75-3.134 1.18-.744 2.55-1.116 4.11-1.116 1.56 0 2.93.372 4.1 1.116 1.18.744 2.1 1.789 2.76 3.134.66 1.345.99 2.92.99 4.724 0 1.788-.33 3.351-.99 4.689-.66 1.338-1.58 2.379-2.76 3.123-1.17.744-2.54 1.116-4.1 1.116Zm0-2.39c1.19 0 2.17-.304 2.93-.913.77-.609 1.34-1.409 1.7-2.401.37-.992.56-2.067.56-3.224 0-1.158-.19-2.236-.56-3.236-.36-.999-.93-1.807-1.7-2.423-.76-.617-1.74-.925-2.93-.925-1.19 0-2.16.308-2.93.925-.77.616-1.33 1.424-1.7 2.423-.37 1-.55 2.078-.55 3.236 0 1.157.18 2.232.55 3.224.37.992.93 1.792 1.7 2.401.77.609 1.74.913 2.93.913Zm20.84 2.029v-17.315h2.57v2.615h.18c.31-.857.88-1.552 1.71-2.085.83-.534 1.76-.801 2.8-.801.19 0 .44.004.73.012.29.007.51.018.66.033v2.706a7.004 7.004 0 0 0-.62-.102 6.106 6.106 0 0 0-1-.079c-.84 0-1.59.177-2.25.53-.66.346-1.18.827-1.56 1.443-.38.609-.56 1.304-.56 2.086V440h-2.66Zm18.54.361c-1.67 0-3.11-.369-4.32-1.105-1.2-.744-2.13-1.781-2.78-3.111-.65-1.338-.97-2.894-.97-4.667 0-1.774.32-3.337.97-4.69.65-1.36 1.56-2.42 2.73-3.179 1.17-.766 2.54-1.15 4.1-1.15.9 0 1.79.151 2.67.451.88.301 1.68.789 2.4 1.466.72.669 1.3 1.555 1.73 2.66.43 1.105.64 2.465.64 4.081v1.127h-13.35v-2.299h10.64c0-.977-.19-1.849-.58-2.616a4.372 4.372 0 0 0-1.65-1.815c-.7-.443-1.54-.665-2.5-.665-1.06 0-1.98.263-2.75.789a5.142 5.142 0 0 0-1.77 2.029 6.01 6.01 0 0 0-.62 2.683v1.534c0 1.307.23 2.416.68 3.325.45.902 1.09 1.589 1.9 2.063.81.466 1.76.699 2.83.699.7 0 1.33-.098 1.89-.293a3.973 3.973 0 0 0 1.48-.902 4.2 4.2 0 0 0 .96-1.511l2.57.722a5.788 5.788 0 0 1-1.36 2.3c-.64.653-1.43 1.164-2.37 1.533-.94.36-2 .541-3.17.541Zm17.76 0c-1.45 0-2.72-.365-3.83-1.094-1.1-.736-1.97-1.773-2.59-3.111-.62-1.345-.93-2.935-.93-4.768 0-1.819.31-3.397.93-4.735.62-1.338 1.49-2.371 2.61-3.1 1.11-.729 2.39-1.094 3.85-1.094 1.13 0 2.02.188 2.67.564.66.368 1.17.789 1.51 1.263.36.466.63.849.83 1.149h.22v-8.522h2.66V440h-2.57v-2.66h-.31c-.2.315-.48.714-.84 1.195-.36.473-.87.898-1.54 1.273-.67.369-1.56.553-2.67.553Zm.36-2.39c1.06 0 1.97-.278 2.7-.834.74-.564 1.3-1.342 1.68-2.334.38-.999.58-2.153.58-3.461 0-1.292-.19-2.423-.57-3.393-.37-.977-.93-1.736-1.67-2.277-.73-.548-1.64-.823-2.72-.823-1.13 0-2.07.29-2.82.868-.75.571-1.31 1.349-1.68 2.334-.37.977-.55 2.074-.55 3.291 0 1.233.18 2.353.56 3.36.38.999.95 1.796 1.69 2.39.75.586 1.68.879 2.8.879Zm23.73-5.05v-10.236h2.66V440h-2.66v-2.931h-.18c-.41.879-1.04 1.627-1.9 2.243-.86.609-1.94.913-3.25.913-1.08 0-2.04-.236-2.88-.71-.84-.481-1.5-1.202-1.99-2.164-.48-.97-.72-2.191-.72-3.664v-11.002h2.66v10.822c0 1.262.36 2.269 1.06 3.021.72.751 1.63 1.127 2.73 1.127.66 0 1.34-.169 2.02-.507.69-.338 1.27-.857 1.74-1.556.47-.699.71-1.589.71-2.671Zm14.56 7.44c-1.62 0-3.02-.384-4.19-1.15-1.17-.767-2.07-1.823-2.71-3.168-.63-1.345-.94-2.882-.94-4.61 0-1.759.32-3.311.97-4.656.65-1.353 1.56-2.409 2.72-3.168 1.18-.766 2.54-1.15 4.11-1.15 1.22 0 2.31.226 3.29.677.98.451 1.78 1.082 2.4 1.894.62.811 1.01 1.758 1.16 2.84h-2.66c-.2-.789-.65-1.488-1.35-2.096-.69-.617-1.62-.925-2.8-.925-1.03 0-1.94.271-2.73.812-.77.533-1.37 1.289-1.81 2.266-.43.969-.64 2.108-.64 3.415 0 1.338.21 2.503.63 3.495.43.992 1.03 1.762 1.8 2.311.78.549 1.7.823 2.75.823.69 0 1.32-.12 1.89-.361.56-.24 1.04-.586 1.43-1.037.39-.451.67-.992.83-1.623h2.66a6.198 6.198 0 0 1-1.11 2.762c-.59.811-1.37 1.458-2.34 1.939-.96.473-2.08.71-3.36.71Zm17.96 0c-1.67 0-3.11-.369-4.32-1.105-1.2-.744-2.13-1.781-2.78-3.111-.65-1.338-.97-2.894-.97-4.667 0-1.774.32-3.337.97-4.69.65-1.36 1.56-2.42 2.73-3.179 1.17-.766 2.54-1.15 4.1-1.15.9 0 1.79.151 2.67.451.88.301 1.68.789 2.4 1.466.72.669 1.3 1.555 1.73 2.66.43 1.105.64 2.465.64 4.081v1.127h-13.35v-2.299h10.64c0-.977-.19-1.849-.58-2.616a4.372 4.372 0 0 0-1.65-1.815c-.7-.443-1.54-.665-2.5-.665-1.06 0-1.98.263-2.75.789a5.142 5.142 0 0 0-1.77 2.029 6.01 6.01 0 0 0-.62 2.683v1.534c0 1.307.23 2.416.68 3.325.45.902 1.09 1.589 1.9 2.063.81.466 1.76.699 2.83.699.7 0 1.33-.098 1.89-.293a3.973 3.973 0 0 0 1.48-.902 4.2 4.2 0 0 0 .96-1.511l2.57.722a5.788 5.788 0 0 1-1.36 2.3c-.64.653-1.43 1.164-2.37 1.533-.94.36-2 .541-3.17.541Zm-902.435 36.552V500h-2.66v-23.087h2.66Zm9.968 23.493c-1.097 0-2.093-.207-2.987-.62a5.128 5.128 0 0 1-2.13-1.815c-.527-.797-.79-1.759-.79-2.886 0-.992.196-1.796.587-2.412a4.129 4.129 0 0 1 1.567-1.466 8.236 8.236 0 0 1 2.164-.789c.797-.18 1.597-.323 2.401-.428 1.052-.136 1.905-.237 2.559-.305.661-.075 1.142-.199 1.443-.372.308-.173.462-.473.462-.902v-.09c0-1.112-.304-1.976-.913-2.592-.601-.617-1.514-.925-2.739-.925-1.27 0-2.266.278-2.988.834-.721.556-1.228 1.15-1.521 1.781l-2.526-.901c.451-1.053 1.053-1.872 1.804-2.458a6.758 6.758 0 0 1 2.48-1.24c.902-.24 1.789-.361 2.661-.361.556 0 1.194.068 1.916.203a6.133 6.133 0 0 1 2.108.801c.684.405 1.251 1.018 1.702 1.837.451.819.677 1.917.677 3.292V500h-2.661v-2.345h-.135c-.181.376-.481.778-.902 1.206-.421.429-.981.793-1.68 1.094-.699.301-1.552.451-2.559.451Zm.406-2.39c1.052 0 1.939-.207 2.661-.62.729-.413 1.277-.947 1.645-1.601a4.077 4.077 0 0 0 .564-2.063v-2.435c-.113.136-.361.26-.744.372-.376.106-.812.199-1.308.282-.488.075-.965.143-1.431.203-.459.053-.831.098-1.116.135-.692.091-1.338.237-1.939.44-.594.195-1.075.492-1.443.891-.361.39-.541.924-.541 1.6 0 .925.342 1.624 1.026 2.097.691.466 1.567.699 2.626.699Zm13.48 8.477c-.451 0-.853-.037-1.206-.113-.354-.067-.598-.135-.733-.202l.676-2.345c.647.165 1.218.225 1.714.18.496-.045.935-.267 1.319-.665.39-.391.747-1.026 1.071-1.905l.496-1.353-6.403-17.405h2.885l4.78 13.798h.181l4.779-13.798h2.886l-7.35 19.84c-.331.894-.74 1.635-1.229 2.221a4.596 4.596 0 0 1-1.702 1.319c-.639.285-1.36.428-2.164.428Zm22.371-6.132c-1.563 0-2.935-.372-4.115-1.116-1.172-.744-2.089-1.785-2.75-3.123-.654-1.338-.981-2.901-.981-4.689 0-1.804.327-3.379.981-4.724.661-1.345 1.578-2.39 2.75-3.134 1.18-.744 2.552-1.116 4.115-1.116 1.563 0 2.931.372 4.103 1.116 1.18.744 2.097 1.789 2.751 3.134.661 1.345.992 2.92.992 4.724 0 1.788-.331 3.351-.992 4.689-.654 1.338-1.571 2.379-2.751 3.123-1.172.744-2.54 1.116-4.103 1.116Zm0-2.39c1.187 0 2.164-.304 2.931-.913.766-.609 1.334-1.409 1.702-2.401.368-.992.552-2.067.552-3.224 0-1.158-.184-2.236-.552-3.236-.368-.999-.936-1.807-1.702-2.423-.767-.617-1.744-.925-2.931-.925-1.188 0-2.165.308-2.931.925-.767.616-1.334 1.424-1.702 2.423-.369 1-.553 2.078-.553 3.236 0 1.157.184 2.232.553 3.224.368.992.935 1.792 1.702 2.401.766.609 1.743.913 2.931.913Zm22.819-5.05v-10.236h2.66V500h-2.66v-2.931h-.18c-.406.879-1.037 1.627-1.894 2.243-.857.609-1.939.913-3.247.913-1.082 0-2.044-.236-2.886-.71-.841-.481-1.503-1.202-1.984-2.164-.481-.97-.721-2.191-.721-3.664v-11.002h2.66v10.822c0 1.262.354 2.269 1.06 3.021.714.751 1.623 1.127 2.728 1.127.661 0 1.334-.169 2.018-.507.691-.338 1.27-.857 1.736-1.556.473-.699.71-1.589.71-2.671Zm15.063-10.236v2.254h-8.973v-2.254h8.973Zm-6.357-4.149h2.66v16.504c0 .751.109 1.315.327 1.691.225.368.511.616.857.744.353.12.725.18 1.116.18.293 0 .533-.015.721-.045l.451-.09.541 2.39c-.18.067-.432.135-.755.203-.323.075-.733.112-1.229.112a5.354 5.354 0 0 1-2.209-.484 4.397 4.397 0 0 1-1.782-1.477c-.465-.661-.698-1.496-.698-2.503v-17.225Zm31.552 8.027-2.389.676a4.445 4.445 0 0 0-.666-1.161c-.285-.383-.676-.699-1.172-.947-.496-.248-1.131-.372-1.905-.372-1.06 0-1.943.244-2.649.733-.699.481-1.049 1.093-1.049 1.837 0 .662.241 1.184.722 1.567s1.232.703 2.254.958l2.571.632c1.548.375 2.701.95 3.46 1.724.76.767 1.139 1.755 1.139 2.965a4.4 4.4 0 0 1-.857 2.661c-.563.781-1.352 1.397-2.367 1.848-1.015.451-2.194.677-3.54.677-1.766 0-3.227-.384-4.385-1.15-1.157-.767-1.89-1.886-2.198-3.359l2.525-.632c.241.932.695 1.631 1.364 2.097.676.466 1.56.699 2.649.699 1.24 0 2.225-.263 2.954-.789.736-.534 1.104-1.173 1.104-1.917 0-.601-.21-1.104-.631-1.51-.421-.413-1.067-.722-1.939-.924l-2.886-.677c-1.585-.376-2.75-.958-3.494-1.747-.737-.797-1.105-1.793-1.105-2.987 0-.977.274-1.842.823-2.593.556-.752 1.311-1.342 2.266-1.77.962-.428 2.051-.643 3.269-.643 1.713 0 3.059.376 4.036 1.128.984.751 1.683 1.743 2.096 2.976Zm6.981 3.021V500h-2.66v-23.087h2.66v8.477h.226a4.886 4.886 0 0 1 1.826-2.13c.819-.534 1.909-.801 3.269-.801 1.18 0 2.213.237 3.1.711.887.466 1.574 1.183 2.063 2.153.496.962.744 2.187.744 3.675V500h-2.66v-10.822c0-1.375-.357-2.439-1.071-3.19-.707-.759-1.688-1.139-2.943-1.139-.871 0-1.653.184-2.344.553a4.036 4.036 0 0 0-1.624 1.612c-.39.706-.586 1.563-.586 2.57ZM460.473 500v-17.315h2.66V500h-2.66Zm1.353-20.201c-.519 0-.966-.177-1.342-.53a1.703 1.703 0 0 1-.552-1.274c0-.496.184-.92.552-1.274a1.893 1.893 0 0 1 1.342-.529c.518 0 .962.176 1.33.529.376.354.564.778.564 1.274s-.188.921-.564 1.274c-.368.353-.812.53-1.33.53Zm13.891 2.886v2.254h-9.334v-2.254h9.334ZM469.179 500v-19.705c0-.992.233-1.819.698-2.48a4.337 4.337 0 0 1 1.815-1.488 5.734 5.734 0 0 1 2.356-.496c.654 0 1.188.053 1.601.158a6.2 6.2 0 0 1 .925.293l-.767 2.299a13.507 13.507 0 0 0-.564-.169c-.233-.067-.541-.101-.924-.101-.879 0-1.514.222-1.905.665-.383.443-.575 1.094-.575 1.95V500h-2.66Zm17.797-17.315v2.254h-8.974v-2.254h8.974Zm-6.358-4.149h2.66v16.504c0 .751.109 1.315.327 1.691.226.368.511.616.857.744.353.12.725.18 1.116.18.293 0 .533-.015.721-.045l.451-.09.541 2.39c-.18.067-.432.135-.755.203-.323.075-.733.112-1.229.112a5.354 5.354 0 0 1-2.209-.484 4.387 4.387 0 0 1-1.781-1.477c-.466-.661-.699-1.496-.699-2.503v-17.225Zm22.314 8.027-2.389.676a4.445 4.445 0 0 0-.666-1.161c-.285-.383-.676-.699-1.172-.947-.496-.248-1.131-.372-1.905-.372-1.06 0-1.943.244-2.649.733-.699.481-1.049 1.093-1.049 1.837 0 .662.241 1.184.722 1.567s1.232.703 2.255.958l2.57.632c1.548.375 2.701.95 3.461 1.724.759.767 1.138 1.755 1.138 2.965 0 .992-.285 1.879-.857 2.661-.563.781-1.352 1.397-2.367 1.848-1.015.451-2.194.677-3.54.677-1.766 0-3.227-.384-4.385-1.15-1.157-.767-1.89-1.886-2.198-3.359l2.525-.632c.241.932.695 1.631 1.364 2.097.676.466 1.56.699 2.649.699 1.24 0 2.225-.263 2.954-.789.736-.534 1.104-1.173 1.104-1.917 0-.601-.21-1.104-.631-1.51-.421-.413-1.067-.722-1.939-.924l-2.886-.677c-1.585-.376-2.75-.958-3.494-1.747-.737-.797-1.105-1.793-1.105-2.987 0-.977.274-1.842.823-2.593.556-.752 1.311-1.342 2.266-1.77.962-.428 2.052-.643 3.269-.643 1.713 0 3.059.376 4.036 1.128.984.751 1.683 1.743 2.096 2.976Zm18.344 13.843c-1.097 0-2.093-.207-2.987-.62a5.131 5.131 0 0 1-2.131-1.815c-.526-.797-.789-1.759-.789-2.886 0-.992.196-1.796.586-2.412a4.143 4.143 0 0 1 1.567-1.466 8.256 8.256 0 0 1 2.165-.789c.796-.18 1.597-.323 2.401-.428 1.052-.136 1.905-.237 2.559-.305.661-.075 1.142-.199 1.443-.372.308-.173.462-.473.462-.902v-.09c0-1.112-.304-1.976-.913-2.592-.601-.617-1.514-.925-2.739-.925-1.271 0-2.266.278-2.988.834-.721.556-1.228 1.15-1.522 1.781l-2.525-.901c.451-1.053 1.052-1.872 1.804-2.458a6.758 6.758 0 0 1 2.48-1.24 10.32 10.32 0 0 1 2.66-.361c.557 0 1.195.068 1.917.203a6.14 6.14 0 0 1 2.108.801c.684.405 1.251 1.018 1.702 1.837.451.819.676 1.917.676 3.292V500h-2.66v-2.345h-.135c-.181.376-.481.778-.902 1.206-.421.429-.981.793-1.68 1.094-.699.301-1.552.451-2.559.451Zm.406-2.39c1.052 0 1.939-.207 2.661-.62.728-.413 1.277-.947 1.645-1.601a4.077 4.077 0 0 0 .564-2.063v-2.435c-.113.136-.361.26-.744.372-.376.106-.812.199-1.308.282-.488.075-.965.143-1.431.203-.459.053-.831.098-1.116.135-.692.091-1.338.237-1.939.44-.594.195-1.075.492-1.443.891-.361.39-.541.924-.541 1.6 0 .925.342 1.624 1.026 2.097.691.466 1.566.699 2.626.699Zm15.047-8.432V500h-2.661v-17.315h2.57v2.705h.226a4.948 4.948 0 0 1 1.849-2.119c.826-.541 1.893-.812 3.201-.812 1.173 0 2.198.241 3.078.722.879.473 1.563 1.195 2.051 2.164.489.962.733 2.18.733 3.653V500h-2.66v-10.822c0-1.36-.354-2.42-1.06-3.179-.706-.767-1.676-1.15-2.908-1.15-.85 0-1.609.184-2.278.553-.661.368-1.183.905-1.566 1.612-.384.706-.575 1.563-.575 2.57Zm22.447 10.777c-1.443 0-2.717-.365-3.822-1.094-1.104-.736-1.969-1.773-2.593-3.111-.623-1.345-.935-2.935-.935-4.768 0-1.819.312-3.397.935-4.735.624-1.338 1.492-2.371 2.605-3.1 1.112-.729 2.397-1.094 3.855-1.094 1.127 0 2.018.188 2.672.564.661.368 1.164.789 1.51 1.263.353.466.628.849.823 1.149h.225v-8.522h2.661V500h-2.57v-2.66h-.316c-.195.315-.473.714-.834 1.195-.361.473-.876.898-1.545 1.273-.668.369-1.559.553-2.671.553Zm.361-2.39c1.067 0 1.969-.278 2.705-.834.737-.564 1.296-1.342 1.68-2.334.383-.999.575-2.153.575-3.461 0-1.292-.188-2.423-.564-3.393-.376-.977-.932-1.736-1.668-2.277-.737-.548-1.646-.823-2.728-.823-1.128 0-2.067.29-2.819.868-.744.571-1.304 1.349-1.679 2.334-.369.977-.553 2.074-.553 3.291 0 1.233.188 2.353.564 3.36.383.999.947 1.796 1.691 2.39.751.586 1.683.879 2.796.879ZM581.282 500v-17.315h2.66V500h-2.66Zm1.353-20.201c-.519 0-.966-.177-1.342-.53a1.703 1.703 0 0 1-.552-1.274c0-.496.184-.92.552-1.274a1.893 1.893 0 0 1 1.342-.529c.518 0 .962.176 1.33.529.376.354.564.778.564 1.274s-.188.921-.564 1.274c-.368.353-.812.53-1.33.53Zm6.18 20.201v-17.315h2.57v2.705h.226c.36-.924.943-1.642 1.747-2.153.804-.518 1.77-.778 2.897-.778 1.143 0 2.093.26 2.852.778.767.511 1.364 1.229 1.793 2.153h.18a5.04 5.04 0 0 1 1.995-2.13c.887-.534 1.951-.801 3.191-.801 1.548 0 2.814.485 3.798 1.455.985.962 1.477 2.461 1.477 4.497V500h-2.66v-11.589c0-1.277-.35-2.19-1.049-2.739-.698-.548-1.521-.823-2.468-.823-1.218 0-2.161.368-2.83 1.105-.669.729-1.003 1.653-1.003 2.773V500h-2.706v-11.859c0-.985-.319-1.777-.958-2.379-.639-.608-1.462-.913-2.469-.913-.691 0-1.337.184-1.938.553a4.163 4.163 0 0 0-1.443 1.533c-.361.646-.542 1.394-.542 2.243V500h-2.66Zm27.59 6.493v-23.808h2.571v2.75h.315c.196-.3.466-.683.812-1.149.353-.474.857-.895 1.511-1.263.661-.376 1.555-.564 2.683-.564 1.457 0 2.743.365 3.855 1.094 1.112.729 1.98 1.762 2.604 3.1.624 1.338.936 2.916.936 4.735 0 1.833-.312 3.423-.936 4.768-.624 1.338-1.488 2.375-2.593 3.111-1.105.729-2.378 1.094-3.821 1.094-1.113 0-2.003-.184-2.672-.553-.669-.375-1.184-.8-1.544-1.273-.361-.481-.639-.88-.835-1.195h-.225v9.153h-2.661Zm2.616-15.151c0 1.308.191 2.462.575 3.461.383.992.943 1.77 1.679 2.334.737.556 1.639.834 2.706.834 1.112 0 2.04-.293 2.784-.879.752-.594 1.315-1.391 1.691-2.39.384-1.007.575-2.127.575-3.36 0-1.217-.188-2.314-.563-3.291-.369-.985-.929-1.763-1.68-2.334-.744-.578-1.68-.868-2.807-.868-1.082 0-1.992.275-2.728.823-.737.541-1.293 1.3-1.669 2.277-.375.97-.563 2.101-.563 3.393ZM635.75 500v-17.315h2.57v2.615h.18c.316-.857.887-1.552 1.714-2.085.827-.534 1.758-.801 2.796-.801.195 0 .439.004.732.012.293.007.515.018.665.033v2.706a7.455 7.455 0 0 0-.62-.102 6.161 6.161 0 0 0-1.003-.079c-.842 0-1.593.177-2.254.53a3.999 3.999 0 0 0-1.556 1.443c-.376.609-.564 1.304-.564 2.086V500h-2.66Zm18.318.361c-1.563 0-2.934-.372-4.114-1.116-1.173-.744-2.09-1.785-2.751-3.123-.654-1.338-.981-2.901-.981-4.689 0-1.804.327-3.379.981-4.724.661-1.345 1.578-2.39 2.751-3.134 1.18-.744 2.551-1.116 4.114-1.116 1.563 0 2.931.372 4.104 1.116 1.18.744 2.096 1.789 2.75 3.134.662 1.345.992 2.92.992 4.724 0 1.788-.33 3.351-.992 4.689-.654 1.338-1.57 2.379-2.75 3.123-1.173.744-2.541 1.116-4.104 1.116Zm0-2.39c1.188 0 2.165-.304 2.931-.913.767-.609 1.334-1.409 1.702-2.401.369-.992.553-2.067.553-3.224 0-1.158-.184-2.236-.553-3.236-.368-.999-.935-1.807-1.702-2.423-.766-.617-1.743-.925-2.931-.925-1.187 0-2.164.308-2.931.925-.766.616-1.334 1.424-1.702 2.423-.368 1-.552 2.078-.552 3.236 0 1.157.184 2.232.552 3.224.368.992.936 1.792 1.702 2.401.767.609 1.744.913 2.931.913Zm25.446-15.286L673.111 500h-2.705l-6.403-17.315h2.885l4.78 13.798h.18l4.78-13.798h2.886Zm10.151 17.676c-1.668 0-3.107-.369-4.317-1.105-1.203-.744-2.131-1.781-2.785-3.111-.646-1.338-.969-2.894-.969-4.667 0-1.774.323-3.337.969-4.69.654-1.36 1.564-2.42 2.728-3.179 1.173-.766 2.541-1.15 4.104-1.15.902 0 1.792.151 2.671.451a6.62 6.62 0 0 1 2.402 1.466c.721.669 1.296 1.555 1.724 2.66.429 1.105.643 2.465.643 4.081v1.127h-13.347v-2.299h10.641c0-.977-.195-1.849-.586-2.616a4.423 4.423 0 0 0-1.646-1.815c-.706-.443-1.54-.665-2.502-.665-1.06 0-1.977.263-2.751.789a5.205 5.205 0 0 0-1.77 2.029 5.97 5.97 0 0 0-.62 2.683v1.534c0 1.307.226 2.416.677 3.325.458.902 1.093 1.589 1.905 2.063.811.466 1.755.699 2.829.699a5.77 5.77 0 0 0 1.894-.293 4.06 4.06 0 0 0 1.477-.902c.413-.406.733-.909.958-1.511l2.57.722a5.694 5.694 0 0 1-1.364 2.3c-.639.653-1.428 1.164-2.367 1.533-.939.36-1.995.541-3.168.541Zm39.083-16.233h-2.795c-.166-.804-.455-1.511-.868-2.12a5.806 5.806 0 0 0-1.488-1.533 6.336 6.336 0 0 0-1.928-.947 7.71 7.71 0 0 0-2.209-.315c-1.398 0-2.665.353-3.799 1.059-1.128.707-2.026 1.748-2.695 3.123-.661 1.375-.992 3.062-.992 5.062 0 1.999.331 3.686.992 5.061.669 1.375 1.567 2.416 2.695 3.123 1.134.706 2.401 1.059 3.799 1.059a7.71 7.71 0 0 0 2.209-.315 6.5 6.5 0 0 0 1.928-.936 5.958 5.958 0 0 0 1.488-1.544 5.946 5.946 0 0 0 .868-2.12h2.795c-.21 1.18-.593 2.236-1.149 3.168a8.673 8.673 0 0 1-2.075 2.379 9.07 9.07 0 0 1-2.784 1.476 10.356 10.356 0 0 1-3.28.508c-1.969 0-3.721-.481-5.254-1.443-1.533-.962-2.739-2.33-3.618-4.104-.88-1.773-1.319-3.878-1.319-6.312 0-2.435.439-4.54 1.319-6.313.879-1.774 2.085-3.142 3.618-4.104 1.533-.962 3.285-1.443 5.254-1.443 1.164 0 2.258.17 3.28.508a8.93 8.93 0 0 1 2.784 1.488 8.508 8.508 0 0 1 2.075 2.367c.556.924.939 1.98 1.149 3.168ZM733.266 500v-23.087h2.796v20.607h10.732V500h-13.528Zm30.482-17.315c-.135-1.143-.684-2.029-1.646-2.661-.962-.631-2.142-.947-3.54-.947-1.022 0-1.916.166-2.683.496-.759.331-1.352.786-1.781 1.365a3.272 3.272 0 0 0-.631 1.972c0 .617.147 1.146.44 1.59.3.436.684.8 1.15 1.093.465.286.954.523 1.465.71.511.181.981.327 1.409.44l2.345.631c.601.158 1.27.376 2.006.654a9.258 9.258 0 0 1 2.131 1.139 5.787 5.787 0 0 1 1.691 1.826c.443.744.665 1.657.665 2.739 0 1.248-.327 2.375-.981 3.382-.646 1.007-1.593 1.808-2.84 2.401-1.24.594-2.747.891-4.521.891-1.653 0-3.085-.267-4.295-.801-1.202-.533-2.149-1.277-2.841-2.232-.683-.954-1.071-2.063-1.161-3.325h2.886c.075.872.368 1.593.879 2.164.519.564 1.173.985 1.962 1.263.797.27 1.653.406 2.57.406 1.067 0 2.026-.173 2.875-.519.849-.353 1.522-.842 2.018-1.465.496-.632.744-1.368.744-2.21 0-.766-.215-1.39-.643-1.871-.428-.481-.992-.872-1.691-1.173-.699-.3-1.454-.563-2.266-.789l-2.841-.811c-1.803-.519-3.231-1.259-4.283-2.221-1.052-.962-1.578-2.221-1.578-3.776 0-1.293.349-2.42 1.048-3.382.706-.97 1.653-1.721 2.841-2.255 1.195-.541 2.529-.812 4.002-.812 1.488 0 2.81.267 3.968.801 1.157.526 2.074 1.247 2.75 2.164a5.388 5.388 0 0 1 1.082 3.123h-2.705Zm9.196 17.495a1.954 1.954 0 0 1-1.432-.597 1.954 1.954 0 0 1-.597-1.432c0-.556.199-1.033.597-1.431a1.951 1.951 0 0 1 1.432-.598 1.95 1.95 0 0 1 1.431.598c.399.398.598.875.598 1.431 0 .368-.094.707-.282 1.015-.18.308-.424.556-.733.744-.3.18-.638.27-1.014.27Z"/><circle cx="340.724" cy="616.901" r="17.988" fill="#F1F5F9"/><rect width="713.193" height="42.326" x="398.922" y="595.738" fill="#F1F5F9" rx="8.465"/><path fill="#F1F5F9" d="M1107.88 668.75H322.735v2.117h785.145v-2.117Z" mask="url(#path-17-inside-3_722_1585)"/><circle cx="340.724" cy="768.217" r="17.988" fill="#F1F5F9"/><rect width="713.193" height="42.326" x="398.922" y="747.054" fill="#F1F5F9" rx="8.465"/><path fill="#F1F5F9" d="M1107.88 820.066H322.735v2.116h785.145v-2.116Z" mask="url(#path-21-inside-4_722_1585)"/><circle cx="340.724" cy="919.532" r="17.988" fill="#F1F5F9"/><rect width="713.193" height="42.326" x="398.922" y="898.369" fill="#F1F5F9" rx="8.465"/><path fill="#E2E8F0" d="M296.282 267.712c0-9.935 8.053-17.989 17.988-17.989h887.79l-2.12 2.116H314.27c-8.766 0-15.872 7.107-15.872 15.873h-2.116ZM1201 956.567H297.34 1201Zm-904.718 0V267.712c0-9.935 8.053-17.989 17.988-17.989v2.116c-8.766 0-15.872 7.107-15.872 15.873v688.855h-2.116Zm905.778-706.844v706.844h-2.12V251.839l2.12-2.116Z" mask="url(#path-10-inside-1_722_1585)"/></g></g></g></g><defs><clipPath id="clip0_722_1585"><path fill="#fff" d="M0 0h1201v952.335H0z"/></clipPath><clipPath id="clip1_722_1585"><path fill="#fff" d="M85.71 120.629c0-14.026 11.37-25.396 25.396-25.396H1201v857.102H85.71V120.629Z"/></clipPath><clipPath id="clip2_722_1585"><path fill="#fff" d="M85.71 171.42H1201v780.915H85.71z"/></clipPath><filter id="filter0_dd_722_1585" width="1157.62" height="899.428" x="64.547" y="95.233" color-interpolation-filters="sRGB" filterUnits="userSpaceOnUse"><feFlood flood-opacity="0" result="BackgroundImageFix"/><feColorMatrix in="SourceAlpha" result="hardAlpha" values="0 0 0 0 0 0 0 0 0 0 0 0 0 0 0 0 0 0 127 0"/><feMorphology in="SourceAlpha" radius="5.291" result="effect1_dropShadow_722_1585"/><feOffset dy="10.582"/><feGaussianBlur stdDeviation="5.291"/><feColorMatrix values="0 0 0 0 0 0 0 0 0 0 0 0 0 0 0 0 0 0 0.04 0"/><feBlend in2="BackgroundImageFix" result="effect1_dropShadow_722_1585"/><feColorMatrix in="SourceAlpha" result="hardAlpha" values="0 0 0 0 0 0 0 0 0 0 0 0 0 0 0 0 0 0 127 0"/><feMorphology in="SourceAlpha" radius="5.291" result="effect2_dropShadow_722_1585"/><feOffset dy="21.163"/><feGaussianBlur stdDeviation="13.227"/><feColorMatrix values="0 0 0 0 0 0 0 0 0 0 0 0 0 0 0 0 0 0 0.1 0"/><feBlend in2="effect1_dropShadow_722_1585" result="effect2_dropShadow_722_1585"/><feBlend in="SourceGraphic" in2="effect2_dropShadow_722_1585" result="shape"/></filter></defs></svg>