<svg width="20" height="20" viewBox="0 0 20 20" fill="none" xmlns="http://www.w3.org/2000/svg">
<path d="M1.6 3.2C2.48366 3.2 3.2 2.48366 3.2 1.6C3.2 0.716345 2.48366 0 1.6 0C0.716344 0 0 0.716345 0 1.6C0 2.48366 0.716344 3.2 1.6 3.2Z" fill="white"/>
<path d="M8.8 1.6C8.8 2.48366 8.08366 3.2 7.2 3.2C6.31634 3.2 5.6 2.48366 5.6 1.6C5.6 0.716345 6.31634 0 7.2 0C8.08366 0 8.8 0.716345 8.8 1.6Z" fill="white"/>
<path d="M12.8 3.2C13.6837 3.2 14.4 2.48366 14.4 1.6C14.4 0.716345 13.6837 0 12.8 0C11.9163 0 11.2 0.716345 11.2 1.6C11.2 2.48366 11.9163 3.2 12.8 3.2Z" fill="white"/>
<path d="M20 1.6C20 2.48366 19.2837 3.2 18.4 3.2C17.5163 3.2 16.8 2.48366 16.8 1.6C16.8 0.716345 17.5163 0 18.4 0C19.2837 0 20 0.716345 20 1.6Z" fill="white"/>
<path d="M3.2 7.2C3.2 8.08366 2.48366 8.8 1.6 8.8C0.716344 8.8 0 8.08366 0 7.2C0 6.31635 0.716344 5.6 1.6 5.6C2.48366 5.6 3.2 6.31635 3.2 7.2Z" fill="white"/>
<path d="M7.2 8.8C8.08366 8.8 8.8 8.08366 8.8 7.2C8.8 6.31635 8.08366 5.6 7.2 5.6C6.31634 5.6 5.6 6.31635 5.6 7.2C5.6 8.08366 6.31634 8.8 7.2 8.8Z" fill="white"/>
<path d="M14.4 7.2C14.4 8.08366 13.6837 8.8 12.8 8.8C11.9163 8.8 11.2 8.08366 11.2 7.2C11.2 6.31635 11.9163 5.6 12.8 5.6C13.6837 5.6 14.4 6.31635 14.4 7.2Z" fill="white"/>
<path d="M18.4 8.8C19.2837 8.8 20 8.08366 20 7.2C20 6.31635 19.2837 5.6 18.4 5.6C17.5163 5.6 16.8 6.31635 16.8 7.2C16.8 8.08366 17.5163 8.8 18.4 8.8Z" fill="white"/>
<path d="M1.6 14.4C2.48366 14.4 3.2 13.6837 3.2 12.8C3.2 11.9163 2.48366 11.2 1.6 11.2C0.716344 11.2 0 11.9163 0 12.8C0 13.6837 0.716344 14.4 1.6 14.4Z" fill="white"/>
<path d="M8.8 12.8C8.8 13.6837 8.08366 14.4 7.2 14.4C6.31634 14.4 5.6 13.6837 5.6 12.8C5.6 11.9163 6.31634 11.2 7.2 11.2C8.08366 11.2 8.8 11.9163 8.8 12.8Z" fill="white"/>
<path d="M3.2 18.4C3.2 19.2837 2.48366 20 1.6 20C0.716344 20 0 19.2837 0 18.4C0 17.5163 0.716344 16.8 1.6 16.8C2.48366 16.8 3.2 17.5163 3.2 18.4Z" fill="white"/>
<path d="M7.2 20C8.08366 20 8.8 19.2837 8.8 18.4C8.8 17.5163 8.08366 16.8 7.2 16.8C6.31634 16.8 5.6 17.5163 5.6 18.4C5.6 19.2837 6.31634 20 7.2 20Z" fill="white"/>
</svg>
