<svg width="1728" height="500" viewBox="0 0 1728 500" fill="none" xmlns="http://www.w3.org/2000/svg">
<g clip-path="url(#clip0_1492_1732)">
<path d="M776.204 1L433.31 498.999M510.277 1L2.0012 185.788M421.632 1L2.0012 123.061M332.997 1L2.0001 81.2358M598.923 1L2.0002 290.313M244.352 1L2.0001 51.3566M67.0629 1L2 11.5164M155.708 1L2 28.9453M1485.35 1L1728 51.4479M864.848 1L864.255 498.999M1573.99 1L1728 29.0113M1662.63 1L1728 11.5688M1396.7 1L1728 81.3582M1308.06 1L1728 123.229M1130.77 1L1728 290.794M1219.42 1L1728 186.06M953.493 1L1295.21 498.999M687.559 1L2.36792 498.999M1042.13 1L1726.15 498.999L2.3693 499M1728 68.9632H2.00119M1728 23.3867H2.00119M1728 32.6792H2.00119M1728 43.189H2.00119M1728 7.68984H2.00119M1728 15.1097H2.00119M1728 367.167H2.00119M1728 84.9946H2.00119M1728 55.1758H2.00119M1728 1H2.00119M1728 103.866H2.00119M1728 126.411H2.00119M1728 288.361H2.00119M1728 153.815H2.00119M1728 187.836H2.00119M1728 231.198H2.00119" stroke="url(#paint0_linear_1492_1732)" stroke-width="0.466844" stroke-linecap="round" stroke-linejoin="round"/>
</g>
<defs>
<linearGradient id="paint0_linear_1492_1732" x1="864.733" y1="1.03007" x2="867.419" y2="519.636" gradientUnits="userSpaceOnUse">
<stop stop-color="#7958AD" stop-opacity="0"/>
<stop offset="1" stop-color="#685E79"/>
</linearGradient>
<clipPath id="clip0_1492_1732">
<rect width="3228.69" height="499.473" fill="white" transform="translate(-749.846)"/>
</clipPath>
</defs>
</svg>
