<svg viewBox="0 0 74 32" fill="currentColor" xmlns="http://www.w3.org/2000/svg">
<path fill-rule="evenodd" clip-rule="evenodd" d="M1.85488 3.70977C2.87931 3.70977 3.70977 2.87931 3.70977 1.85488C3.70977 0.83046 2.87931 0 1.85488 0C0.83046 0 0 0.83046 0 1.85488C0 2.87931 0.83046 3.70977 1.85488 3.70977ZM7.41954 3.70977C8.44396 3.70977 9.27442 2.87931 9.27442 1.85488C9.27442 0.83046 8.44396 0 7.41954 0C6.39511 0 5.56465 0.83046 5.56465 1.85488C5.56465 2.87931 6.39511 3.70977 7.41954 3.70977ZM3.70977 7.41954C3.70977 8.44396 2.87931 9.27442 1.85488 9.27442C0.83046 9.27442 0 8.44396 0 7.41954C0 6.39511 0.83046 5.56465 1.85488 5.56465C2.87931 5.56465 3.70977 6.39511 3.70977 7.41954ZM7.41954 9.27442C8.44396 9.27442 9.27442 8.44396 9.27442 7.41954C9.27442 6.39511 8.44396 5.56465 7.41954 5.56465C6.39511 5.56465 5.56465 6.39511 5.56465 7.41954C5.56465 8.44396 6.39511 9.27442 7.41954 9.27442ZM14.8391 7.41954C14.8391 8.44396 14.0086 9.27442 12.9842 9.27442C11.9598 9.27442 11.1293 8.44396 11.1293 7.41954C11.1293 6.39511 11.9598 5.56465 12.9842 5.56465C14.0086 5.56465 14.8391 6.39511 14.8391 7.41954ZM18.5488 9.27442C19.5733 9.27442 20.4037 8.44396 20.4037 7.41954C20.4037 6.39511 19.5733 5.56465 18.5488 5.56465C17.5244 5.56465 16.694 6.39511 16.694 7.41954C16.694 8.44396 17.5244 9.27442 18.5488 9.27442ZM3.70977 12.9842C3.70977 14.0086 2.87931 14.8391 1.85488 14.8391C0.83046 14.8391 0 14.0086 0 12.9842C0 11.9598 0.83046 11.1293 1.85488 11.1293C2.87931 11.1293 3.70977 11.9598 3.70977 12.9842ZM7.41954 14.8391C8.44396 14.8391 9.27442 14.0086 9.27442 12.9842C9.27442 11.9598 8.44396 11.1293 7.41954 11.1293C6.39511 11.1293 5.56465 11.9598 5.56465 12.9842C5.56465 14.0086 6.39511 14.8391 7.41954 14.8391ZM14.8391 12.9842C14.8391 14.0086 14.0086 14.8391 12.9842 14.8391C11.9598 14.8391 11.1293 14.0086 11.1293 12.9842C11.1293 11.9598 11.9598 11.1293 12.9842 11.1293C14.0086 11.1293 14.8391 11.9598 14.8391 12.9842ZM18.5488 14.8391C19.5733 14.8391 20.4037 14.0086 20.4037 12.9842C20.4037 11.9598 19.5733 11.1293 18.5488 11.1293C17.5244 11.1293 16.694 11.9598 16.694 12.9842C16.694 14.0086 17.5244 14.8391 18.5488 14.8391ZM3.70977 18.5488C3.70977 19.5733 2.87931 20.4037 1.85488 20.4037C0.83046 20.4037 0 19.5733 0 18.5488C0 17.5244 0.83046 16.694 1.85488 16.694C2.87931 16.694 3.70977 17.5244 3.70977 18.5488ZM7.41954 20.4037C8.44396 20.4037 9.27442 19.5733 9.27442 18.5488C9.27442 17.5244 8.44396 16.694 7.41954 16.694C6.39511 16.694 5.56465 17.5244 5.56465 18.5488C5.56465 19.5733 6.39511 20.4037 7.41954 20.4037ZM14.8391 18.5488C14.8391 19.5733 14.0086 20.4037 12.9842 20.4037C11.9598 20.4037 11.1293 19.5733 11.1293 18.5488C11.1293 17.5244 11.9598 16.694 12.9842 16.694C14.0086 16.694 14.8391 17.5244 14.8391 18.5488ZM18.5488 20.4037C19.5733 20.4037 20.4037 19.5733 20.4037 18.5488C20.4037 17.5244 19.5733 16.694 18.5488 16.694C17.5244 16.694 16.694 17.5244 16.694 18.5488C16.694 19.5733 17.5244 20.4037 18.5488 20.4037ZM3.70977 24.1135C3.70977 25.1379 2.87931 25.9684 1.85488 25.9684C0.83046 25.9684 0 25.1379 0 24.1135C0 23.0891 0.83046 22.2586 1.85488 22.2586C2.87931 22.2586 3.70977 23.0891 3.70977 24.1135ZM7.41954 25.9684C8.44396 25.9684 9.27442 25.1379 9.27442 24.1135C9.27442 23.0891 8.44396 22.2586 7.41954 22.2586C6.39511 22.2586 5.56465 23.0891 5.56465 24.1135C5.56465 25.1379 6.39511 25.9684 7.41954 25.9684ZM14.8391 24.1135C14.8391 25.1379 14.0086 25.9684 12.9842 25.9684C11.9598 25.9684 11.1293 25.1379 11.1293 24.1135C11.1293 23.0891 11.9598 22.2586 12.9842 22.2586C14.0086 22.2586 14.8391 23.0891 14.8391 24.1135ZM18.5488 25.9684C19.5733 25.9684 20.4037 25.1379 20.4037 24.1135C20.4037 23.0891 19.5733 22.2586 18.5488 22.2586C17.5244 22.2586 16.694 23.0891 16.694 24.1135C16.694 25.1379 17.5244 25.9684 18.5488 25.9684Z"/>
<path d="M28.5689 18.4963V26H25.5508V13.1937H28.4355V15.3697H28.5856C28.8802 14.6527 29.3499 14.083 29.9946 13.6606C30.6449 13.2381 31.4481 13.0269 32.4042 13.0269C33.2879 13.0269 34.0577 13.2159 34.7136 13.5939C35.3751 13.9718 35.8864 14.5193 36.2477 15.2364C36.6146 15.9534 36.7952 16.8232 36.7896 17.846V26H33.7715V18.3129C33.7715 17.4569 33.5492 16.7871 33.1045 16.3035C32.6654 15.82 32.0568 15.5782 31.2786 15.5782C30.7506 15.5782 30.2809 15.6949 29.8696 15.9284C29.4638 16.1562 29.1442 16.487 28.9108 16.9205C28.6829 17.3541 28.5689 17.8793 28.5689 18.4963ZM39.3883 26V13.1937H42.3147V15.3281H42.4481C42.6816 14.5888 43.0818 14.0191 43.6487 13.6189C44.2212 13.2131 44.8743 13.0103 45.608 13.0103C45.7748 13.0103 45.961 13.0186 46.1666 13.0353C46.3778 13.0464 46.5529 13.0658 46.6919 13.0936V15.87C46.564 15.8255 46.3612 15.7866 46.0832 15.7533C45.8109 15.7144 45.5469 15.6949 45.2912 15.6949C44.7409 15.6949 44.2462 15.8144 43.8071 16.0534C43.3736 16.2869 43.0317 16.612 42.7816 17.0289C42.5315 17.4458 42.4064 17.9266 42.4064 18.4713V26H39.3883ZM51.6833 26.2585C50.8718 26.2585 50.1409 26.1139 49.4906 25.8249C48.8458 25.5303 48.3345 25.0968 47.9565 24.5243C47.5841 23.9518 47.3979 23.2459 47.3979 22.4066C47.3979 21.684 47.5313 21.0865 47.7981 20.614C48.0649 20.1416 48.429 19.7636 48.8903 19.4801C49.3516 19.1966 49.8713 18.9826 50.4494 18.8381C51.033 18.6881 51.6361 18.5797 52.2586 18.513C53.009 18.4352 53.6176 18.3657 54.0845 18.3045C54.5514 18.2378 54.8905 18.1378 55.1017 18.0044C55.3185 17.8654 55.4269 17.6514 55.4269 17.3624V17.3124C55.4269 16.6843 55.2407 16.1979 54.8682 15.8533C54.4958 15.5087 53.9595 15.3364 53.2591 15.3364C52.5199 15.3364 51.9335 15.4976 51.4999 15.82C51.0719 16.1424 50.7829 16.5231 50.6328 16.9622L47.8148 16.562C48.0371 15.7838 48.4039 15.1335 48.9153 14.611C49.4267 14.083 50.052 13.6884 50.7912 13.4271C51.5305 13.1603 52.3476 13.0269 53.2424 13.0269C53.8594 13.0269 54.4736 13.0992 55.085 13.2437C55.6964 13.3882 56.255 13.6272 56.7608 13.9607C57.2667 14.2887 57.6724 14.7361 57.9781 15.3031C58.2894 15.87 58.445 16.5787 58.445 17.4291V26H55.5436V24.2408H55.4435C55.2601 24.5965 55.0016 24.93 54.6681 25.2413C54.3402 25.547 53.9261 25.7943 53.4259 25.9833C52.9312 26.1667 52.3503 26.2585 51.6833 26.2585ZM52.4671 24.0407C53.0729 24.0407 53.5982 23.9212 54.0428 23.6822C54.4875 23.4376 54.8293 23.1152 55.0683 22.715C55.3129 22.3148 55.4352 21.8785 55.4352 21.4061V19.897C55.3407 19.9748 55.1795 20.0471 54.9516 20.1138C54.7293 20.1805 54.4792 20.2388 54.2012 20.2888C53.9233 20.3389 53.6482 20.3833 53.3758 20.4222C53.1035 20.4612 52.8673 20.4945 52.6672 20.5223C52.2169 20.5834 51.814 20.6835 51.4582 20.8224C51.1025 20.9614 50.8218 21.1559 50.6161 21.4061C50.4105 21.6506 50.3077 21.9675 50.3077 22.3565C50.3077 22.9124 50.5105 23.332 50.9163 23.6155C51.3221 23.899 51.839 24.0407 52.4671 24.0407ZM62.4276 30.8024C62.0163 30.8024 61.6356 30.769 61.2854 30.7023C60.9408 30.6412 60.6657 30.5689 60.46 30.4855L61.1604 28.1344C61.5995 28.2622 61.9913 28.3234 62.3359 28.3178C62.6805 28.3123 62.9835 28.2039 63.2447 27.9927C63.5115 27.787 63.7366 27.4424 63.92 26.9588L64.1785 26.2668L59.5346 13.1937H62.7361L65.6876 22.8651H65.821L68.7808 13.1937H71.9907L66.8632 27.5508C66.6242 28.2289 66.3073 28.8097 65.9127 29.2933C65.5181 29.7824 65.0345 30.1548 64.462 30.4105C63.895 30.6718 63.2169 30.8024 62.4276 30.8024Z"/>
</svg>
