<svg viewBox="0 0 297 444" fill="none" xmlns="http://www.w3.org/2000/svg">
<g filter="url(#filter0_dd_1391_1547)">
<rect x="5" y="1" width="70" height="70" rx="35" fill="white"/>
<path d="M26.9073 30.3203H57.2755V52.7666H26.9073V30.3203Z" fill="white"/>
<path d="M20.457 35.4727V54.5156H58.543V16.4297H20.457V35.4727ZM51.1482 33.9492C52.0604 34.1609 52.8895 34.638 53.5309 35.3203C53.8839 35.6879 54.1909 36.0972 54.4449 36.5391C54.4449 36.5878 52.7996 37.6999 51.7972 38.3215C51.7606 38.3459 51.6144 38.1874 51.4529 37.9467C51.2699 37.631 51.0099 37.3667 50.6971 37.1786C50.3844 36.9906 50.0291 36.8848 49.6644 36.8712C48.5096 36.792 47.7662 37.3983 47.7723 38.3946C47.7627 38.6427 47.8195 38.8888 47.9368 39.1076C48.1897 39.6347 48.662 39.9485 50.1427 40.5884C52.8697 41.7614 54.0366 42.5353 54.7618 43.6352C55.5723 44.854 55.752 46.8223 55.2036 48.2787C54.5942 49.863 53.1012 50.9386 50.9898 51.2951C50.0254 51.4055 49.051 51.3953 48.0891 51.2646C46.615 51.0216 45.257 50.3138 44.2135 49.2445C43.8631 48.8576 43.1806 47.8491 43.2233 47.7759C43.3345 47.6934 43.4516 47.619 43.5737 47.5535L44.9844 46.7735L46.0782 46.1398L46.3067 46.478C46.6924 47.0296 47.1832 47.4997 47.7509 47.8612C48.9697 48.5011 50.6333 48.4127 51.4559 47.6723C51.7321 47.401 51.9045 47.0415 51.9429 46.6562C51.9813 46.2709 51.8834 45.8844 51.6662 45.5639C51.3615 45.1404 50.7521 44.7839 49.0489 44.0405C47.0837 43.1934 46.2366 42.6694 45.4627 41.8345C44.9796 41.2836 44.6229 40.6336 44.4177 39.9302C44.2646 39.1266 44.2419 38.3036 44.3506 37.4927C44.7559 35.5945 46.1787 34.2691 48.2567 33.8761C49.219 33.757 50.1938 33.7837 51.1482 33.9553V33.9492ZM42.2087 35.5458V37.1058H37.2636V51.1915H33.7566V37.1027H28.7994V35.5793C28.7839 35.0539 28.7961 34.5281 28.8359 34.0041C28.8603 33.9766 31.8828 33.9766 35.5391 33.9766H42.1904L42.2087 35.5458Z" fill="#007ACC"/>
</g>
<g filter="url(#filter1_dd_1391_1547)">
<rect x="173" y="41" width="112" height="112" rx="56" fill="white"/>
<path d="M202.024 125.869L196.133 59.7922H260.867L254.97 125.859L228.461 133.208L202.024 125.869V125.869Z" fill="#1572B6"/>
<path d="M228.501 127.591L249.922 121.652L254.962 65.1946H228.501V127.591Z" fill="#33A9DC"/>
<path d="M228.501 89.1342H239.224L239.965 80.8355H228.501V72.7314H248.822L248.628 74.9059L246.635 97.2383H228.501V89.1342Z" fill="white"/>
<path d="M228.549 110.181L228.513 110.192L219.488 107.755L218.911 101.291H210.777L211.912 114.016L228.512 118.623L228.549 118.613V110.181V110.181Z" fill="#EBEBEB"/>
<path d="M238.535 96.8955L237.559 107.748L228.521 110.188V118.62L245.134 114.015L245.256 112.646L246.666 96.8955H238.535Z" fill="white"/>
<path d="M228.528 72.7314V80.8355H208.953L208.791 79.0145L208.422 74.9059L208.228 72.7314H228.528V72.7314ZM228.501 89.1354V97.2395H219.589L219.427 95.4184L219.057 91.3098L218.864 89.1354H228.501V89.1354Z" fill="#EBEBEB"/>
</g>
<g filter="url(#filter2_dd_1391_1547)">
<rect x="40" y="105" width="92" height="92" rx="46" fill="white"/>
<path d="M66.3287 172.821L61.9515 123.727H110.048L105.666 172.813L85.9707 178.273L66.3287 172.821Z" fill="#E44D26"/>
<path d="M86 174.1L101.915 169.687L105.66 127.741H86V174.1Z" fill="#F16529"/>
<path d="M86 145.949H78.0322L77.4819 139.783H86V133.762H70.9014L71.0458 135.377L72.5254 151.97H86V145.949ZM86 161.587L85.9733 161.594L79.2677 159.783L78.8394 154.981H72.7945L73.638 164.435L85.9724 167.859L86 167.852V161.587Z" fill="#EBEBEB"/>
<path d="M85.979 145.949V151.97H93.3933L92.6946 159.779L85.979 161.592V167.856L98.3231 164.435L98.4136 163.418L99.8285 147.566L99.9751 145.949H98.3528H85.979ZM85.979 133.762V139.783H100.523L100.644 138.43L100.919 135.377L101.063 133.762H85.979Z" fill="white"/>
</g>
<g filter="url(#filter3_dd_1391_1547)">
<rect x="173" y="244" width="70" height="70" rx="35" fill="white"/>
<path d="M208 284.344C210.951 284.344 213.344 281.951 213.344 279C213.344 276.049 210.951 273.656 208 273.656C205.049 273.656 202.656 276.049 202.656 279C202.656 281.951 205.049 284.344 208 284.344Z" fill="#61DAFB"/>
<path d="M228.297 270.187C227.266 269.812 226.188 269.438 225.062 269.109C225.344 267.984 225.578 266.859 225.766 265.781C226.75 259.594 225.672 255.234 222.672 253.547C221.781 253.031 220.797 252.797 219.672 252.797C216.391 252.797 212.219 255.234 208 259.312C203.781 255.234 199.609 252.797 196.328 252.797C195.203 252.797 194.219 253.031 193.328 253.547C190.328 255.281 189.25 259.641 190.234 265.781C190.422 266.859 190.656 267.984 190.938 269.109C189.813 269.438 188.734 269.766 187.703 270.187C181.844 272.437 178.656 275.531 178.656 279C178.656 282.469 181.891 285.563 187.703 287.813C188.734 288.188 189.813 288.563 190.938 288.891C190.656 290.016 190.422 291.141 190.234 292.219C189.25 298.406 190.328 302.766 193.328 304.453C194.219 304.969 195.203 305.203 196.328 305.203C199.656 305.203 203.828 302.766 208 298.688C212.219 302.766 216.391 305.203 219.672 305.203C220.797 305.203 221.781 304.969 222.672 304.453C225.672 302.719 226.75 298.359 225.766 292.219C225.578 291.141 225.344 290.016 225.062 288.891C226.188 288.563 227.266 288.234 228.297 287.813C234.156 285.563 237.344 282.469 237.344 279C237.344 275.531 234.156 272.437 228.297 270.187V270.187ZM221.359 255.891C223.281 257.016 223.938 260.484 223.141 265.406C223 266.391 222.766 267.422 222.484 268.5C220.047 267.937 217.469 267.562 214.75 267.328C213.156 265.078 211.516 263.063 209.875 261.234C213.344 257.812 216.859 255.469 219.719 255.469C220.328 255.469 220.891 255.609 221.359 255.891V255.891ZM216.109 283.688C215.266 285.188 214.281 286.687 213.25 288.188C211.516 288.328 209.781 288.375 208 288.375C206.172 288.375 204.437 288.328 202.75 288.188C201.719 286.687 200.781 285.188 199.937 283.688C199.047 282.141 198.203 280.547 197.453 279C198.203 277.453 199.047 275.859 199.937 274.313C200.781 272.813 201.766 271.313 202.797 269.813C204.531 269.672 206.266 269.625 208.047 269.625C209.875 269.625 211.609 269.672 213.297 269.813C214.328 271.313 215.266 272.813 216.109 274.313C217 275.859 217.844 277.453 218.594 279C217.797 280.547 217 282.094 216.109 283.688ZM220 282.141C220.703 283.781 221.266 285.375 221.781 286.969C220.187 287.344 218.5 287.625 216.719 287.859C217.281 286.969 217.891 286.031 218.406 285.047C218.969 284.063 219.484 283.078 220 282.141ZM208 294.844C206.875 293.625 205.797 292.313 204.766 290.953C205.844 291 206.922 291.047 208 291.047C209.078 291.047 210.156 291 211.234 290.953C210.203 292.313 209.125 293.625 208 294.844ZM199.281 287.813C197.5 287.578 195.812 287.297 194.219 286.922C194.734 285.375 195.297 283.734 196 282.094C196.516 283.031 197.031 284.016 197.594 284.953C198.156 285.984 198.719 286.875 199.281 287.813V287.813ZM196 275.859C195.297 274.219 194.734 272.625 194.219 271.031C195.812 270.656 197.5 270.375 199.281 270.141C198.719 271.031 198.109 271.969 197.594 272.953C197.031 273.937 196.516 274.922 196 275.859V275.859ZM208 263.156C209.125 264.375 210.203 265.687 211.234 267.047C210.156 267 209.078 266.953 208 266.953C206.922 266.953 205.844 267 204.766 267.047C205.797 265.687 206.875 264.375 208 263.156ZM218.406 273L216.719 270.187C218.5 270.422 220.187 270.703 221.781 271.078C221.266 272.625 220.703 274.266 220 275.906C219.484 274.922 218.969 273.937 218.406 273ZM192.859 265.406C192.063 260.484 192.719 257.016 194.641 255.891C195.109 255.609 195.672 255.469 196.281 255.469C199.094 255.469 202.609 257.766 206.125 261.234C204.484 263.016 202.844 265.078 201.25 267.328C198.531 267.562 195.953 267.984 193.516 268.5C193.234 267.422 193.047 266.391 192.859 265.406V265.406ZM181.281 279C181.281 276.797 183.953 274.453 188.641 272.719C189.578 272.344 190.609 272.016 191.641 271.734C192.391 274.078 193.328 276.562 194.453 279.047C193.328 281.531 192.344 283.969 191.641 286.312C185.172 284.438 181.281 281.625 181.281 279ZM194.641 302.109C192.719 300.984 192.063 297.516 192.859 292.594C193 291.609 193.234 290.578 193.516 289.5C195.953 290.063 198.531 290.438 201.25 290.672C202.844 292.922 204.484 294.938 206.125 296.766C202.656 300.188 199.141 302.531 196.281 302.531C195.672 302.531 195.109 302.391 194.641 302.109ZM223.141 292.594C223.938 297.516 223.281 300.984 221.359 302.109C220.891 302.391 220.328 302.531 219.719 302.531C216.906 302.531 213.391 300.234 209.875 296.766C211.516 294.984 213.156 292.922 214.75 290.672C217.469 290.438 220.047 290.016 222.484 289.5C222.766 290.578 222.953 291.609 223.141 292.594V292.594ZM227.359 285.281C226.422 285.656 225.391 285.984 224.359 286.266C223.609 283.922 222.672 281.438 221.547 278.953C222.672 276.469 223.656 274.031 224.359 271.688C230.828 273.563 234.719 276.375 234.719 279C234.719 281.203 232 283.547 227.359 285.281Z" fill="#61DAFB"/>
</g>
<g filter="url(#filter4_dd_1391_1547)">
<rect x="53" y="343" width="92" height="92" rx="46" fill="white"/>
<path d="M72.594 362.594H125.406V415.406H72.594V362.594Z" fill="#F0DB4F"/>
<path d="M121.084 402.811C120.697 400.401 119.126 398.377 114.472 396.49C112.856 395.748 111.053 395.216 110.516 393.99C110.326 393.277 110.3 392.876 110.421 392.444C110.767 391.044 112.439 390.607 113.764 391.009C114.618 391.295 115.426 391.952 115.913 393.002C118.192 391.526 118.187 391.536 119.779 390.521C119.196 389.618 118.885 389.201 118.504 388.815C117.133 387.284 115.265 386.495 112.279 386.556L110.723 386.757C109.232 387.134 107.811 387.916 106.978 388.965C104.478 391.802 105.191 396.767 108.233 398.81C111.23 401.059 115.632 401.571 116.195 403.675C116.742 406.25 114.302 407.083 111.877 406.787C110.09 406.415 109.096 405.507 108.022 403.856C106.044 405 106.044 405 104.011 406.17C104.493 407.224 105 407.701 105.808 408.614C109.633 412.495 119.207 412.304 120.924 406.431C120.993 406.229 121.456 404.884 121.084 402.811V402.811ZM101.304 386.867H96.3646L96.3443 399.638C96.3443 402.354 96.4848 404.844 96.0431 405.607C95.3204 407.108 93.4477 406.922 92.5943 406.631C91.7256 406.204 91.2839 405.597 90.7722 404.739C90.6317 404.492 90.5262 404.301 90.4908 404.287L86.4745 406.746C87.1424 408.117 88.1262 409.307 89.3863 410.079C91.2687 411.209 93.7987 411.556 96.4447 410.948C98.1668 410.446 99.6527 409.407 100.431 407.826C101.555 405.752 101.314 403.243 101.304 400.467C101.329 395.938 101.304 391.41 101.304 386.867V386.867Z" fill="#323330"/>
</g>
<defs>
<filter id="filter0_dd_1391_1547" x="0" y="0" width="80" height="80" filterUnits="userSpaceOnUse" color-interpolation-filters="sRGB">
<feFlood flood-opacity="0" result="BackgroundImageFix"/>
<feColorMatrix in="SourceAlpha" type="matrix" values="0 0 0 0 0 0 0 0 0 0 0 0 0 0 0 0 0 0 127 0" result="hardAlpha"/>
<feMorphology radius="1" operator="erode" in="SourceAlpha" result="effect1_dropShadow_1391_1547"/>
<feOffset dy="2"/>
<feGaussianBlur stdDeviation="2"/>
<feColorMatrix type="matrix" values="0 0 0 0 0 0 0 0 0 0 0 0 0 0 0 0 0 0 0.06 0"/>
<feBlend mode="normal" in2="BackgroundImageFix" result="effect1_dropShadow_1391_1547"/>
<feColorMatrix in="SourceAlpha" type="matrix" values="0 0 0 0 0 0 0 0 0 0 0 0 0 0 0 0 0 0 127 0" result="hardAlpha"/>
<feMorphology radius="1" operator="erode" in="SourceAlpha" result="effect2_dropShadow_1391_1547"/>
<feOffset dy="4"/>
<feGaussianBlur stdDeviation="3"/>
<feColorMatrix type="matrix" values="0 0 0 0 0 0 0 0 0 0 0 0 0 0 0 0 0 0 0.1 0"/>
<feBlend mode="normal" in2="effect1_dropShadow_1391_1547" result="effect2_dropShadow_1391_1547"/>
<feBlend mode="normal" in="SourceGraphic" in2="effect2_dropShadow_1391_1547" result="shape"/>
</filter>
<filter id="filter1_dd_1391_1547" x="161" y="39" width="136" height="136" filterUnits="userSpaceOnUse" color-interpolation-filters="sRGB">
<feFlood flood-opacity="0" result="BackgroundImageFix"/>
<feColorMatrix in="SourceAlpha" type="matrix" values="0 0 0 0 0 0 0 0 0 0 0 0 0 0 0 0 0 0 127 0" result="hardAlpha"/>
<feMorphology radius="2" operator="erode" in="SourceAlpha" result="effect1_dropShadow_1391_1547"/>
<feOffset dy="4"/>
<feGaussianBlur stdDeviation="3"/>
<feColorMatrix type="matrix" values="0 0 0 0 0 0 0 0 0 0 0 0 0 0 0 0 0 0 0.05 0"/>
<feBlend mode="normal" in2="BackgroundImageFix" result="effect1_dropShadow_1391_1547"/>
<feColorMatrix in="SourceAlpha" type="matrix" values="0 0 0 0 0 0 0 0 0 0 0 0 0 0 0 0 0 0 127 0" result="hardAlpha"/>
<feMorphology radius="3" operator="erode" in="SourceAlpha" result="effect2_dropShadow_1391_1547"/>
<feOffset dy="10"/>
<feGaussianBlur stdDeviation="7.5"/>
<feColorMatrix type="matrix" values="0 0 0 0 0 0 0 0 0 0 0 0 0 0 0 0 0 0 0.1 0"/>
<feBlend mode="normal" in2="effect1_dropShadow_1391_1547" result="effect2_dropShadow_1391_1547"/>
<feBlend mode="normal" in="SourceGraphic" in2="effect2_dropShadow_1391_1547" result="shape"/>
</filter>
<filter id="filter2_dd_1391_1547" x="20" y="105" width="132" height="132" filterUnits="userSpaceOnUse" color-interpolation-filters="sRGB">
<feFlood flood-opacity="0" result="BackgroundImageFix"/>
<feColorMatrix in="SourceAlpha" type="matrix" values="0 0 0 0 0 0 0 0 0 0 0 0 0 0 0 0 0 0 127 0" result="hardAlpha"/>
<feMorphology radius="5" operator="erode" in="SourceAlpha" result="effect1_dropShadow_1391_1547"/>
<feOffset dy="10"/>
<feGaussianBlur stdDeviation="5"/>
<feColorMatrix type="matrix" values="0 0 0 0 0 0 0 0 0 0 0 0 0 0 0 0 0 0 0.04 0"/>
<feBlend mode="normal" in2="BackgroundImageFix" result="effect1_dropShadow_1391_1547"/>
<feColorMatrix in="SourceAlpha" type="matrix" values="0 0 0 0 0 0 0 0 0 0 0 0 0 0 0 0 0 0 127 0" result="hardAlpha"/>
<feMorphology radius="5" operator="erode" in="SourceAlpha" result="effect2_dropShadow_1391_1547"/>
<feOffset dy="20"/>
<feGaussianBlur stdDeviation="12.5"/>
<feColorMatrix type="matrix" values="0 0 0 0 0 0 0 0 0 0 0 0 0 0 0 0 0 0 0.1 0"/>
<feBlend mode="normal" in2="effect1_dropShadow_1391_1547" result="effect2_dropShadow_1391_1547"/>
<feBlend mode="normal" in="SourceGraphic" in2="effect2_dropShadow_1391_1547" result="shape"/>
</filter>
<filter id="filter3_dd_1391_1547" x="168" y="243" width="80" height="80" filterUnits="userSpaceOnUse" color-interpolation-filters="sRGB">
<feFlood flood-opacity="0" result="BackgroundImageFix"/>
<feColorMatrix in="SourceAlpha" type="matrix" values="0 0 0 0 0 0 0 0 0 0 0 0 0 0 0 0 0 0 127 0" result="hardAlpha"/>
<feMorphology radius="1" operator="erode" in="SourceAlpha" result="effect1_dropShadow_1391_1547"/>
<feOffset dy="2"/>
<feGaussianBlur stdDeviation="2"/>
<feColorMatrix type="matrix" values="0 0 0 0 0 0 0 0 0 0 0 0 0 0 0 0 0 0 0.06 0"/>
<feBlend mode="normal" in2="BackgroundImageFix" result="effect1_dropShadow_1391_1547"/>
<feColorMatrix in="SourceAlpha" type="matrix" values="0 0 0 0 0 0 0 0 0 0 0 0 0 0 0 0 0 0 127 0" result="hardAlpha"/>
<feMorphology radius="1" operator="erode" in="SourceAlpha" result="effect2_dropShadow_1391_1547"/>
<feOffset dy="4"/>
<feGaussianBlur stdDeviation="3"/>
<feColorMatrix type="matrix" values="0 0 0 0 0 0 0 0 0 0 0 0 0 0 0 0 0 0 0.1 0"/>
<feBlend mode="normal" in2="effect1_dropShadow_1391_1547" result="effect2_dropShadow_1391_1547"/>
<feBlend mode="normal" in="SourceGraphic" in2="effect2_dropShadow_1391_1547" result="shape"/>
</filter>
<filter id="filter4_dd_1391_1547" x="48" y="342" width="102" height="102" filterUnits="userSpaceOnUse" color-interpolation-filters="sRGB">
<feFlood flood-opacity="0" result="BackgroundImageFix"/>
<feColorMatrix in="SourceAlpha" type="matrix" values="0 0 0 0 0 0 0 0 0 0 0 0 0 0 0 0 0 0 127 0" result="hardAlpha"/>
<feMorphology radius="1" operator="erode" in="SourceAlpha" result="effect1_dropShadow_1391_1547"/>
<feOffset dy="2"/>
<feGaussianBlur stdDeviation="2"/>
<feColorMatrix type="matrix" values="0 0 0 0 0 0 0 0 0 0 0 0 0 0 0 0 0 0 0.06 0"/>
<feBlend mode="normal" in2="BackgroundImageFix" result="effect1_dropShadow_1391_1547"/>
<feColorMatrix in="SourceAlpha" type="matrix" values="0 0 0 0 0 0 0 0 0 0 0 0 0 0 0 0 0 0 127 0" result="hardAlpha"/>
<feMorphology radius="1" operator="erode" in="SourceAlpha" result="effect2_dropShadow_1391_1547"/>
<feOffset dy="4"/>
<feGaussianBlur stdDeviation="3"/>
<feColorMatrix type="matrix" values="0 0 0 0 0 0 0 0 0 0 0 0 0 0 0 0 0 0 0.1 0"/>
<feBlend mode="normal" in2="effect1_dropShadow_1391_1547" result="effect2_dropShadow_1391_1547"/>
<feBlend mode="normal" in="SourceGraphic" in2="effect2_dropShadow_1391_1547" result="shape"/>
</filter>
</defs>
</svg>
