<svg width="6904" height="3452" viewBox="0 0 6904 3452" fill="none" xmlns="http://www.w3.org/2000/svg">
<path d="M0 3452H6904V-2.19345e-05H0V3452Z" fill="#F7985A"/>
<path d="M6904 1210.01V3452H0V783.383C29.1349 771.55 58.4628 760.338 87.4041 748.753C119.37 780.925 145.481 817.185 194.734 824.725C208.887 826.892 220.583 846.817 232.872 859.148C244.264 870.595 252.894 886.391 266.287 893.985C317.653 923.12 367.015 952.669 368.066 1016.14C397.603 995.792 425.438 977.427 452.363 957.82C477.674 939.4 503.15 920.897 526.513 900.158C548.15 880.992 564.996 856 587.931 838.905C604.307 826.685 631.357 813.015 646.132 818.897C660.727 824.683 673.168 854.011 673.763 873.412C675.391 926.296 702.965 968.093 731.893 1005.55C745.577 1023.26 784.833 1020.2 811.717 1028.99C851.429 1041.95 896.291 1049.39 898.197 1106.78C898.666 1120.6 910.237 1134.08 916.784 1147.68C946.497 1209.53 974.07 1272.55 1006.76 1332.79C1027.92 1371.78 1056.46 1406.8 1082.08 1443.34C1083.91 1445.96 1088.68 1446.89 1092.3 1447.89C1176.65 1471.26 1261.26 1493.65 1345.18 1518.48C1362.22 1523.53 1378.02 1535.96 1391.86 1547.95C1459.75 1606.74 1516.38 1680.72 1610.1 1703.92C1625.51 1707.75 1642.49 1715.75 1652.98 1727.15C1698.91 1776.94 1765.91 1774.67 1822.5 1797.43C1838.25 1803.75 1860.38 1795.19 1879.37 1792.18C1907.8 1787.65 1935.95 1778.46 1964.38 1777.77C1993.72 1777.08 2013.44 1792.02 2013.87 1826.61C2014.09 1843.34 2018.41 1863.17 2028.2 1876.01C2050.31 1905.01 2078.05 1929.64 2101.49 1957.71C2105.15 1962.09 2108.65 1965.85 2112.03 1969.01V2229.67L876.808 1964.11V2307.32H2841.16V2138.14C2847.38 2139.49 2853.41 2140.97 2859.07 2142.63C2892.78 2152.52 2924.96 2153.85 2962.26 2151.44C2989.14 2149.7 3016.88 2150.82 3044.13 2149.96C3060.6 2149.44 3078.26 2149.02 3092.99 2146.09C3152.49 2134.34 3214.96 2129.73 3278.5 2124.58C3323.52 2120.92 3366.09 2107.31 3405.8 2095.45C3439.7 2085.34 3471.88 2076.72 3513.68 2074.13C3547.47 2072.03 3580.43 2065.46 3612.2 2059.26C3632.77 2055.22 3648.17 2053.86 3669.13 2059.81C3718.77 2073.92 3734.93 2070.65 3775.45 2050.13C3802.24 2036.54 3837.46 2026.42 3867.4 2014.01C3892.59 2003.57 3916.23 1992.32 3939.41 1980.95C3969.57 1966.18 3999.43 1951.24 4027.82 1935.79C4049.11 1924.19 4066.66 1911.18 4088.37 1899.76C4097.47 1894.98 4112.55 1890.22 4125.72 1889.72C4175.83 1887.82 4226.27 1887.66 4276.57 1886.79C4278.42 1886.77 4280.45 1886.79 4282.52 1886.82C4288.43 1886.89 4294.62 1886.97 4297.52 1885.66C4328.31 1871.7 4360.1 1857.98 4387.15 1842.61C4402.53 1833.85 4407.67 1821.59 4420.85 1811.87C4441.44 1796.7 4476.07 1794.85 4502.9 1807.87C4524.99 1818.58 4541.66 1831.56 4563.27 1842.51C4595.08 1858.64 4629.24 1873.81 4662.24 1889.47C4680.22 1897.99 4701.39 1905.7 4714.99 1915.5C4751.47 1941.81 4796.19 1963.99 4851.36 1982.75C4858.55 1985.19 4865.54 1987.76 4872.44 1990.46C4898.77 1977.72 4932.3 1967.92 4960.99 1956.01C4986.18 1945.57 5009.82 1934.32 5033 1922.96C5063.16 1908.18 5093.03 1893.24 5121.41 1877.79C5142.71 1866.19 5160.26 1853.19 5181.96 1841.77C5191.06 1836.99 5206.14 1832.23 5219.31 1831.73C5252.72 1830.46 5286.27 1829.96 5319.84 1829.52C5366.59 1806.79 5413.63 1784.97 5460.59 1762.88C5462.96 1761.76 5465.54 1759.91 5467.83 1760.27C5483.05 1762.56 5496.97 1761.22 5510.1 1757.41C5511.45 1756.21 5512.89 1755.02 5514.45 1753.88C5522.36 1748.04 5532.35 1744.19 5543.19 1742.38C5564.09 1729.77 5583.89 1712.76 5605.12 1697.17C5658.92 1657.73 5723.31 1640.56 5786.26 1624.12C5787.75 1621.74 5790.09 1619.64 5790.63 1616.96C5816.95 1487.47 5853.98 1446.62 5967.82 1425.72C5997.75 1420.22 6028.57 1422.04 6058.43 1416.11C6068.89 1414.02 6079.95 1400.81 6086.69 1389.07C6098.5 1368.51 6107.42 1345.33 6117.11 1322.94C6134.74 1282.22 6158.17 1243.48 6168.23 1200C6189.38 1108.6 6202.76 1014.46 6221.08 921.974C6224.04 907.02 6233.91 891.169 6244.21 882.055C6275.79 854.053 6308.14 826.768 6342.35 804.261C6354.83 796.059 6374.93 796.584 6388.85 802.673C6422.89 817.544 6449.07 857.546 6491.87 846.085C6502.42 843.269 6516.26 859.383 6528.59 866.77C6558.63 884.762 6587.37 908.884 6619.03 919.282C6669.31 935.81 6702 970.91 6717.36 1031.03C6727.26 1069.78 6734.59 1109.54 6743.11 1149.02C6746.02 1149.23 6749.61 1149.09 6753.2 1148.94C6760.94 1148.61 6768.68 1148.29 6769.86 1151.59C6789.61 1207.16 6832.92 1186.77 6865.49 1197.93C6878.25 1202.29 6891.09 1206.29 6904 1210.01" fill="#D56C31"/>
<path d="M4758.29 2495.15C4686.97 2491.18 4614.91 2487.03 4540.87 2482.33C4352.81 2470.4 4199.18 2465.45 4025.07 2456.19C3984.53 2454.05 3949.63 2455.13 3936.44 2457.34C3919.25 2460.23 3887.03 2459.78 3833.39 2454.37C3747.6 2445.56 3651.46 2436.19 3583.15 2426.51C3493.44 2413.96 3408.41 2406.29 3312.1 2398.55C3261.12 2394.42 3208.59 2389.21 3157.1 2384.92C3109.41 2380.97 3061.54 2377.35 3014.78 2373.95C3014.22 2373.9 3013.65 2373.87 3013.09 2373.83L3696.4 2619.42L3157.89 3081.95L0 2603.54V1139.16C41.4229 1143.83 77.9883 1160.44 104.914 1188C115.462 1198.67 124.204 1209.65 134.475 1220.54C232.913 1324.56 318.66 1350.57 572.701 1370.22C664.123 1377.29 767.863 1385.72 836.502 1429.4C963.785 1510.36 1091.45 1591.48 1230.1 1669.5C1319.73 1719.99 1434.86 1763.42 1527.87 1813.18C1599.85 1851.67 1641.66 1863.28 1737.07 1847.28C1794.98 1837.62 1844.83 1838.02 1899.08 1860.49C1916 1867.53 1938.96 1872.53 1960.43 1877.16C2130.55 1913.37 2307.62 1941.53 2440.44 2009.88C2487.4 2034.02 2573.2 2047.52 2644.25 2062.58C2774.79 2090.06 2907.19 2115.5 3039.49 2140.9C3085.63 2149.86 3133.06 2157.65 3180.53 2163.82C3231.78 2170.3 3284.62 2172.61 3335.27 2179.88C3430.93 2193.79 3515.96 2201.45 3608.76 2184.88C3679.42 2172.26 3776.03 2177.23 3862.54 2179.3C3916.63 2180.53 3947.15 2196.77 3961.29 2222.77C3972.13 2242.72 4004.18 2268.59 4043.7 2280.35C4213.41 2331.16 4360.9 2394.03 4545.55 2438.12C4561.4 2441.89 4577.13 2445.77 4592.71 2449.76C4648.86 2463.84 4703.86 2479.23 4758.29 2495.15" fill="#A04A1D"/>
<path d="M6904 1628.1V2633.45H2266.42V2530.08C2287.07 2527.55 2311.67 2524.88 2340.8 2521.55C2436.85 2510.69 2526.34 2485.23 2615.25 2463.29C2715.92 2438.47 2807.62 2393.56 2912.08 2386.71C3140.53 2371.81 3327.76 2295.29 3570 2303.16C3696.88 2307.29 3828.71 2284.71 3954.02 2291.47C4109.21 2299.85 4198.97 2258.77 4294.74 2218.97C4323.6 2206.97 4320.84 2179.51 4347.43 2165.09C4404.13 2134.33 4467.29 2105.61 4534.67 2079.97C4559.91 2070.34 4608.02 2065.26 4639.05 2069.29C4701.6 2077.4 4759.22 2093.58 4819.56 2105.69C4891.55 2120.15 4963.78 2134.45 5036.88 2147.61C5073.4 2154.19 5115.27 2165.12 5149.32 2161.86C5272.65 2150.07 5408.62 2154.14 5506.09 2103.83C5521.89 2095.65 5570.46 2102.17 5603.38 2100.14C5693.33 2094.62 5801.8 2100.76 5868.5 2079.17C5974.71 2044.8 6047.94 1989.17 6144.27 1947.09C6304.17 1877.18 6403.07 1766.84 6675.45 1768.2C6692.79 1768.31 6713.89 1755.15 6727.42 1746.24C6785.35 1708.05 6842.46 1669.59 6904 1628.1" fill="#852D1A"/>
<path d="M2093.83 1751.06C2061.56 1800.26 2070.44 1857.3 2058.76 1910.19C2044.69 1973.99 2029.1 2037.49 2016.34 2101.55C2013.15 2117.46 2018.41 2135.03 2019.52 2151.88C2019.75 2155.43 2019.92 2159.67 2018.32 2162.6C2001.59 2193.01 1986.65 2222.85 2014.81 2255.73C2016.96 2258.26 2007.57 2276.95 1999.98 2280.52C1947.43 2305.19 1888.7 2316.07 1835.55 2298.24C1748.42 2269 1665.33 2227.59 1581.04 2190.16C1574.02 2187.04 1568.58 2175.75 1566.37 2167.23C1559.93 2142.55 1555.51 2117.32 1549.92 2090.45C1581.54 2081.89 1585.3 2056 1582.77 2025.1C1581.44 2008.72 1584.45 1991.78 1587.04 1975.33C1595.69 1920.38 1589.49 1870.38 1548.48 1827.67C1504.11 1781.43 1485.67 1722.4 1474.98 1672.99C1508.8 1628.38 1536.21 1593.86 1561.73 1557.97C1577.07 1536.4 1590.21 1513.15 1602.93 1489.86C1615.49 1466.82 1627.3 1443.24 1637.55 1419.09C1649.16 1391.74 1657.33 1366.16 1683.84 1344.39C1717.08 1317.09 1748.41 1296.71 1791.7 1291.42C1819.49 1288.04 1842.73 1293.82 1847.76 1320.51C1854.91 1358.38 1881.66 1370.03 1912.95 1380.52C1926.45 1385.05 1939.68 1394.39 1949.59 1404.83C1972.17 1428.53 1989.53 1458.12 2014.66 1478.28C2052.05 1508.25 2059.21 1547.17 2060.1 1589.76C2060.95 1632.08 2052.06 1675.52 2090.13 1709.78C2097.97 1716.82 2100.03 1741.62 2093.83 1751.06M6697.54 2074.87C6685.6 2080.84 6675.48 2087.08 6663.8 2093.2C6551.87 2151.55 6461.36 2162.76 6199.47 2160.74C6105.21 2160.03 5998.22 2159.45 5923.3 2182.45C5784.38 2225.06 5645.04 2267.74 5494.82 2307.92C5397.7 2333.94 5275.25 2354.2 5174.76 2379.57C5096.99 2399.2 5052.97 2404 4957.14 2388.91C4912.93 2381.98 4872.83 2378.86 4830.71 2382.5C4817.43 2383.65 4803.94 2385.47 4790.04 2388.05C4771.99 2391.42 4747.96 2393.22 4725.5 2394.89C4547.61 2407.67 4363.51 2415.14 4220.28 2449.7C4169.64 2461.93 4080.44 2465.45 4006.18 2470.76C3869.71 2480.39 3731.56 2488.66 3593.53 2496.93C3545.36 2499.87 3496.02 2502.02 3446.81 2503.18C3422.67 2503.69 3398.27 2503.67 3373.92 2503.64C3344.71 2503.6 3315.52 2503.57 3286.86 2504.47C3187.52 2507.71 3099.74 2507.71 3006.65 2492.4C2959.72 2484.69 2900.34 2481.09 2839.84 2478.51C2817.47 2418.15 2795.73 2359.79 2766.36 2307.22C2757.29 2291 2747.5 2275.31 2736.73 2260.31C2744.6 2238.35 2757.87 2218.3 2757.95 2198.19C2758.26 2118.35 2741.07 2041.75 2703.61 1970.47C2662.85 1892.91 2615.15 1819.16 2591.43 1732.85C2578.91 1687.32 2554.42 1644.92 2533.77 1601.87C2521.31 1575.88 2505.65 1551.44 2491.71 1526.16C2461.41 1471.15 2436.42 1413.46 2367.15 1391.69C2345.36 1384.85 2317.02 1375.61 2308.92 1338.91C2299.81 1297.66 2278.69 1257.29 2255.21 1221.51C2231.7 1185.71 2198.81 1156.05 2169.22 1122.77C2196.84 1107.4 2196.84 1107.4 2193.17 1051.02C2189.58 995.999 2181.57 985.905 2127.01 973.533C2083.43 963.647 2039.75 953.912 1995.68 946.608C1918.1 933.725 1841.24 912.295 1761.58 918.191C1698.89 922.844 1636.07 928.16 1574 937.729C1549.17 941.567 1513.65 945.006 1522.95 988.611C1523.67 992.022 1516.39 996.993 1513.11 1001.43C1473.4 1055.08 1430.8 1106.9 1394.77 1162.95C1344.4 1241.28 1327.87 1331.96 1311.95 1422.07C1310.24 1431.83 1309.73 1443.43 1313.36 1452.27C1332.62 1499.34 1321.8 1545.41 1310.23 1591.32C1303.68 1617.34 1297.44 1641.88 1325.6 1649.5C1305.78 1671.06 1275.53 1689.59 1268.29 1714.73C1251.93 1771.57 1246.31 1831.59 1237.57 1890.48C1233.45 1918.36 1194.27 1963.93 1168.98 1975.87C1143.41 1987.94 1099.12 1979.98 1102.54 2029.44C1102.69 2031.65 1095.76 2034.5 1091.99 2036.82C1071.86 2049.23 1049.27 2058.95 1032.13 2074.64C1014.56 2090.72 997.656 2091.61 976.721 2087.53C901.495 2072.87 825.995 2059.67 750.92 2044.32C737.872 2041.65 723.746 2033.63 714.757 2023.82C687.678 1994.25 655.811 1980.69 615.602 1981.17C597.581 1981.39 578.46 1975.98 561.558 1968.97C520.548 1951.95 470.977 1963.03 446.799 1998.21C433.377 2017.69 416.408 2026.38 392.782 2023.02C344.786 2016.19 296.9 2006.87 248.627 2004C162.976 1998.89 100.426 1957.39 54.6938 1888.18C37.0054 1861.4 24.2746 1831.36 9.33497 1802.77C8.29937 1800.78 6.57283 1798.06 7.20713 1796.5C15.6452 1775.34 8.98923 1758.24 0 1741.88V2541.51H634.41V3084.71H4830.71V2661.99C4872.83 2662.64 4912.91 2662.09 4957.14 2660.77C5052.97 2658.05 5096.99 2658.98 5174.76 2662.5C5275.25 2667.1 5397.7 2670.76 5494.82 2675.51C5645.04 2682.76 5784.38 2690.52 5923.3 2698.22C5998.22 2702.38 6105.21 2702.31 6199.61 2702.17C6461.36 2701.8 6551.87 2703.81 6663.8 2714.46C6675.48 2715.54 6685.6 2716.68 6697.54 2717.76C6729.11 2720.65 6769.99 2722.15 6814.66 2722.15H6904V2060.86C6826.48 2043.39 6749.49 2048.64 6697.54 2074.87" fill="#431213"/>
<path d="M5606.34 2195.02C5606.34 2177.94 5606.34 2160.87 5606.34 2143.8C5606.35 1938.23 5606.34 1732.66 5606.37 1527.08C5606.38 1483.97 5620.99 1462.94 5649.36 1464.96C5679.88 1467.13 5691.2 1489.32 5690.8 1532.22C5689.45 1680.46 5689.77 1828.72 5689.46 1976.96C5689.42 1994.62 5689.46 2012.3 5689.46 2029.96C5692.6 2030.52 5695.74 2031.07 5698.88 2031.64C5704.43 2008 5713.99 1984.51 5714.79 1960.71C5717.05 1894.51 5715.89 1828.18 5715.66 1761.9C5715.55 1731.83 5723.73 1718.59 5745.01 1719.95C5770.03 1721.57 5774.66 1739.38 5775.04 1760.46C5776.48 1836.85 5778.4 1913.31 5759.03 1988.13C5749.53 2024.82 5734.9 2058.32 5699.71 2079.17C5693.56 2082.8 5689.92 2095.27 5689.81 2103.72C5688.99 2167.37 5689.46 2231.06 5689.28 2294.72C5689.2 2323.36 5675.38 2337.47 5648.94 2336.8C5621.03 2336.08 5606.46 2321.26 5606.32 2293.41C5606.3 2289.77 5605.94 2286.09 5606.37 2282.5C5610.04 2250.83 5604.76 2229.4 5568.52 2214.9C5520.92 2195.87 5493.11 2150.57 5488.8 2101.59C5482.25 2026.85 5485.21 1951.17 5486.36 1875.91C5486.65 1857.07 5490.35 1833.66 5517.84 1832.78C5547.2 1831.85 5558.37 1852.79 5559.6 1876.89C5561.78 1919.41 5559.25 1962.16 5560.56 2004.76C5562 2051.68 5563.12 2098.87 5569.35 2145.27C5571.86 2164.03 5587.52 2181.02 5597.21 2198.8C5600.25 2197.54 5603.3 2196.27 5606.34 2195.02" fill="#431213"/>
<path d="M6904 2001.39V3452H0V2189.84C46.8366 2172.25 92.9419 2178.67 124.34 2207.32C131.783 2214.04 138.106 2221.09 145.384 2227.98C215.17 2293.7 271.591 2306.32 434.842 2304.06C493.608 2303.24 560.315 2302.59 607.027 2328.5C693.631 2376.49 780.497 2424.57 874.143 2469.84C934.706 2499.14 1011.03 2521.98 1073.68 2550.53C1122.16 2572.64 1149.6 2578.06 1209.35 2561.07C1245.62 2550.78 1277.42 2547.96 1313.53 2560.09C1324.78 2563.88 1339.76 2565.91 1353.76 2567.78C1464.66 2582.18 1579.44 2590.6 1668.72 2629.55C1700.29 2643.29 1755.91 2647.27 1802.21 2653.26C1887.28 2664.12 1973.4 2673.42 2059.46 2682.73C2089.48 2686.04 2120.23 2688.47 2150.93 2689.77C2165.99 2690.35 2181.22 2690.32 2196.42 2690.3C2214.62 2690.25 2232.79 2690.21 2250.65 2691.23C2312.56 2694.87 2367.3 2694.87 2425.32 2677.62C2469.53 2664.52 2531.46 2661.92 2586.75 2657.94C2621.31 2655.44 2641.86 2664.75 2652.64 2681.83C2657.4 2689.41 2666.82 2697.92 2678.96 2704.84C2687.8 2709.89 2698.08 2714.1 2709.05 2716.49C2718.38 2718.53 2727.62 2720.65 2736.79 2722.83C2836.29 2729.57 2939.35 2737.24 3016.73 2760.19C3139.21 2796.58 3254.7 2796.58 3385.39 2788.88C3422.93 2786.74 3461.14 2786.83 3499.42 2786.91C3531.64 2786.99 3563.91 2787.06 3595.87 2785.81C3660.6 2783.07 3725.51 2777.96 3788.9 2770.96C3970.5 2751.31 4152.27 2731.66 4331.83 2708.77C4342.26 2707.4 4352.92 2706.12 4363.71 2704.84C4454.02 2694.09 4554.02 2684.65 4613.54 2658.72C4801.98 2576.55 5044.21 2558.77 5278.26 2528.37C5307.82 2524.43 5339.43 2520.17 5363.17 2512.14C5439.36 2486.5 5506.49 2492.48 5583.03 2514.17C5709.12 2550.05 5767.02 2538.6 5869.37 2491.97C6001.58 2431.67 6162.68 2383.5 6290.47 2321.65C6488.13 2226.15 6671.43 2124.68 6854.22 2023.37C6869.84 2014.71 6886.51 2007.46 6904 2001.39" fill="#250D0F"/>
<path d="M4295.07 798.406C4295.07 1025.29 4111.17 1209.19 3884.29 1209.19C3657.42 1209.19 3473.5 1025.29 3473.5 798.406C3473.5 571.541 3657.42 387.618 3884.29 387.618C4111.17 387.618 4295.07 571.541 4295.07 798.406Z" fill="#F9B68A"/>
</svg>
