<svg fill="none" viewBox="0 0 493 155" xmlns="http://www.w3.org/2000/svg"><filter id="a" color-interpolation-filters="sRGB" filterUnits="userSpaceOnUse" height="34.149" width="45.376" x="224.243" y="59.839"><feFlood flood-opacity="0" result="BackgroundImageFix"/><feColorMatrix in="SourceAlpha" result="hardAlpha" values="0 0 0 0 0 0 0 0 0 0 0 0 0 0 0 0 0 0 127 0"/><feOffset dy="1"/><feGaussianBlur stdDeviation="1"/><feColorMatrix values="0 0 0 0 0 0 0 0 0 0 0 0 0 0 0 0 0 0 0.06 0"/><feBlend in2="BackgroundImageFix" result="effect1_dropShadow_1473_1661"/><feColorMatrix in="SourceAlpha" result="hardAlpha" values="0 0 0 0 0 0 0 0 0 0 0 0 0 0 0 0 0 0 127 0"/><feOffset dy="1"/><feGaussianBlur stdDeviation="1.5"/><feColorMatrix values="0 0 0 0 0 0 0 0 0 0 0 0 0 0 0 0 0 0 0.1 0"/><feBlend in2="effect1_dropShadow_1473_1661" result="effect2_dropShadow_1473_1661"/><feBlend in="SourceGraphic" in2="effect2_dropShadow_1473_1661" result="shape"/></filter><filter id="b" color-interpolation-filters="sRGB" filterUnits="userSpaceOnUse" height="26.5" width="29.061" x="101.469" y="41"><feFlood flood-opacity="0" result="BackgroundImageFix"/><feColorMatrix in="SourceAlpha" result="hardAlpha" values="0 0 0 0 0 0 0 0 0 0 0 0 0 0 0 0 0 0 127 0"/><feOffset dy="1"/><feGaussianBlur stdDeviation="1"/><feColorMatrix values="0 0 0 0 0 0 0 0 0 0 0 0 0 0 0 0 0 0 0.05 0"/><feBlend in2="BackgroundImageFix" result="effect1_dropShadow_1473_1661"/><feBlend in="SourceGraphic" in2="effect1_dropShadow_1473_1661" result="shape"/></filter><filter id="c" color-interpolation-filters="sRGB" filterUnits="userSpaceOnUse" height="26.5" width="29.061" x="433.469" y="41"><feFlood flood-opacity="0" result="BackgroundImageFix"/><feColorMatrix in="SourceAlpha" result="hardAlpha" values="0 0 0 0 0 0 0 0 0 0 0 0 0 0 0 0 0 0 127 0"/><feOffset dy="1"/><feGaussianBlur stdDeviation="1"/><feColorMatrix values="0 0 0 0 0 0 0 0 0 0 0 0 0 0 0 0 0 0 0.05 0"/><feBlend in2="BackgroundImageFix" result="effect1_dropShadow_1473_1661"/><feBlend in="SourceGraphic" in2="effect1_dropShadow_1473_1661" result="shape"/></filter><circle cx="246.5" cy="75.5" fill="#34d399" r="38.5"/><g filter="url(#a)"><path clip-rule="evenodd" d="M265.795 62.663a2.818 2.818 0 0 1 0 3.98l-22.521 22.521a2.816 2.816 0 0 1-3.98 0l-11.261-11.26a2.818 2.818 0 0 1 2.001-4.77 2.815 2.815 0 0 1 1.98.79l9.27 9.27 20.53-20.53a2.816 2.816 0 0 1 3.981 0z" fill="#fff" fill-rule="evenodd"/></g><rect fill="#e2e8f0" height="155" rx="16" width="161"/><g fill="#94a3b8"><rect height="8" rx="4" width="81" x="56" y="87"/><rect height="8" rx="4" width="81" x="56" y="103"/><rect height="8" rx="4" width="81" x="56" y="119"/><rect height="47" rx="8" width="52" x="85" y="29"/></g><circle cx="105.5" cy="49.5" fill="#cbd5e1" opacity=".74" r="10.5"/><g filter="url(#b)"><path d="M113.402 43.5c1.155-2 4.041-2 5.196 0l9.526 16.5c1.155 2-.288 4.5-2.598 4.5h-19.052c-2.31 0-3.753-2.5-2.598-4.5z" fill="#cbd5e1"/></g><rect fill="#e2e8f0" height="155" rx="16" width="161" x="332"/><rect fill="#94a3b8" height="8" rx="4" width="81" x="388" y="87"/><rect fill="#94a3b8" height="8" rx="4" width="81" x="388" y="103"/><rect fill="#94a3b8" height="8" rx="4" width="81" x="388" y="119"/><rect fill="#94a3b8" height="47" rx="8" width="52" x="417" y="29"/><circle cx="437.5" cy="49.5" fill="#cbd5e1" opacity=".74" r="10.5"/><g filter="url(#c)"><path d="M445.402 43.5c1.155-2 4.041-2 5.196 0l9.526 16.5c1.155 2-.288 4.5-2.598 4.5h-19.052c-2.31 0-3.753-2.5-2.598-4.5z" fill="#cbd5e1"/></g></svg>
