<svg xmlns="http://www.w3.org/2000/svg" width="1201" height="953" fill="none" viewBox="0 0 1201 953"><g clip-path="url(#a)"><path fill="#F1F5F9" d="M0 0h1201v952.335H0z"/><g filter="url(#b)"><g clip-path="url(#c)"><path fill="#fff" d="M85.71 120.629c0-14.026 11.37-25.396 25.396-25.396H1201v857.102H85.71V120.629Z"/><circle cx="123.803" cy="133.327" r="12.698" fill="#F1F5F9"/><circle cx="166.129" cy="133.327" r="12.698" fill="#F1F5F9"/><circle cx="208.455" cy="133.327" r="12.698" fill="#F1F5F9"/><path fill="#94A3B8" fill-rule="evenodd" d="M302.904 121.093a1.55 1.55 0 0 1-.018 2.193l-8.67 8.522h19.989a1.55 1.55 0 1 1 0 3.102h-19.974l8.651 8.454a1.552 1.552 0 0 1-2.167 2.219l-11.374-11.115a1.55 1.55 0 0 1-.003-2.215l11.373-11.179a1.55 1.55 0 0 1 2.193.019Z" clip-rule="evenodd"/><path fill="#E2E8F0" fill-rule="evenodd" d="M362.469 121.093a1.55 1.55 0 0 0 .019 2.193l8.67 8.522h-19.99a1.551 1.551 0 0 0 0 3.102h19.974l-8.651 8.454a1.552 1.552 0 0 0 2.168 2.219l11.373-11.115a1.552 1.552 0 0 0 .003-2.215l-11.373-11.179a1.55 1.55 0 0 0-2.193.019Z" clip-rule="evenodd"/><path fill="#94A3B8" d="M413.29 133.327c0-5.395 4.373-9.768 9.767-9.768a9.746 9.746 0 0 1 7.378 3.366l-4.448 4.448h10.745v-10.744l-4.221 4.221a12.667 12.667 0 0 0-9.454-4.221c-7.013 0-12.698 5.685-12.698 12.698 0 7.013 5.685 12.698 12.698 12.698 5.037 0 9.385-2.933 11.437-7.177a1.465 1.465 0 1 0-2.638-1.275 9.768 9.768 0 0 1-8.799 5.521c-5.394 0-9.767-4.373-9.767-9.767Z"/><path fill="#F1F5F9" d="M647.587 133.327c0-16.364 13.265-29.629 29.629-29.629H1201v59.257H677.216c-16.364 0-29.629-13.265-29.629-29.628Z"/><path fill="#94A3B8" fill-rule="evenodd" d="M681.045 122.745a5.039 5.039 0 0 0-5.039 5.039v2.015h-1.008a2.016 2.016 0 0 0-2.015 2.016v10.078c0 1.113.902 2.015 2.015 2.015h12.094a2.015 2.015 0 0 0 2.015-2.015v-10.078a2.016 2.016 0 0 0-2.015-2.016h-1.008v-2.015a5.039 5.039 0 0 0-5.039-5.039Zm3.023 7.054v-2.015a3.022 3.022 0 1 0-6.046 0v2.015h6.046Z" clip-rule="evenodd"/><g clip-path="url(#d)"><circle cx="340.724" cy="302.026" r="17.988" fill="#34D399"/><path fill="#27272A" d="M401.459 313.526v-23.087h14.474v2.998h-10.991v7.035h10.236v2.987h-10.236v7.068h11.126v2.999h-14.609Zm27.097-17.316v2.706h-9.785v-2.706h9.785Zm-7.102 17.316v-19.322c0-1.082.237-1.98.71-2.694a4.351 4.351 0 0 1 1.883-1.612 6 6 0 0 1 2.548-.541c.676 0 1.255.056 1.736.169.481.105.838.203 1.07.293l-.789 2.728c-.157-.045-.36-.098-.608-.158a3.454 3.454 0 0 0-.902-.102c-.819 0-1.406.203-1.759.609-.345.406-.518.992-.518 1.759v18.871h-3.371Zm18.82-17.316v2.706h-9.785v-2.706h9.785Zm-7.102 17.316v-19.322c0-1.082.237-1.98.71-2.694a4.351 4.351 0 0 1 1.883-1.612 6.003 6.003 0 0 1 2.548-.541c.676 0 1.255.056 1.736.169.481.105.838.203 1.071.293l-.789 2.728a16.136 16.136 0 0 0-.609-.158 3.454 3.454 0 0 0-.902-.102c-.819 0-1.405.203-1.759.609-.345.406-.518.992-.518 1.759v18.871h-3.371Zm10.58 0V296.21h3.37v17.316h-3.37Zm1.702-19.987c-.586 0-1.09-.196-1.51-.586-.414-.399-.62-.872-.62-1.421 0-.556.206-1.029.62-1.42a2.12 2.12 0 0 1 1.51-.598c.586 0 1.086.2 1.499.598.421.391.632.864.632 1.42 0 .549-.211 1.022-.632 1.421-.413.39-.913.586-1.499.586Zm13.497 20.336c-1.676 0-3.119-.379-4.329-1.138-1.203-.767-2.127-1.823-2.773-3.168-.647-1.345-.97-2.886-.97-4.622 0-1.759.331-3.311.992-4.656.662-1.353 1.593-2.408 2.796-3.167 1.202-.759 2.619-1.139 4.25-1.139 1.315 0 2.487.244 3.517.733 1.029.481 1.86 1.157 2.491 2.029.639.872 1.019 1.89 1.139 3.055h-3.281c-.18-.812-.593-1.511-1.24-2.097-.638-.586-1.495-.879-2.57-.879-.939 0-1.762.248-2.469.744-.699.488-1.243 1.187-1.634 2.097-.391.901-.586 1.969-.586 3.201 0 1.263.191 2.352.575 3.269.383.917.924 1.627 1.623 2.131.706.503 1.537.755 2.491.755.639 0 1.218-.116 1.736-.349a3.553 3.553 0 0 0 1.319-1.026c.361-.444.613-.977.755-1.601h3.281c-.12 1.12-.485 2.119-1.094 2.999-.608.879-1.424 1.57-2.446 2.074-1.014.503-2.206.755-3.573.755Zm10.717-.349V296.21h3.371v17.316h-3.371Zm1.702-19.987a2.145 2.145 0 0 1-1.51-.586c-.413-.399-.62-.872-.62-1.421 0-.556.207-1.029.62-1.42a2.122 2.122 0 0 1 1.51-.598c.587 0 1.086.2 1.5.598.421.391.631.864.631 1.42 0 .549-.21 1.022-.631 1.421-.414.39-.913.586-1.5.586Zm13.666 20.336c-1.706 0-3.175-.364-4.408-1.093-1.225-.737-2.172-1.77-2.84-3.1-.662-1.338-.992-2.905-.992-4.701 0-1.774.33-3.337.992-4.69.668-1.353 1.6-2.408 2.795-3.167 1.203-.759 2.608-1.139 4.216-1.139a8.49 8.49 0 0 1 2.841.485 6.87 6.87 0 0 1 2.469 1.522c.729.691 1.304 1.589 1.725 2.694.42 1.097.631 2.431.631 4.002v1.195h-13.764v-2.526h10.461c0-.886-.18-1.672-.541-2.356a4.091 4.091 0 0 0-1.522-1.634c-.646-.398-1.405-.598-2.277-.598-.947 0-1.774.233-2.48.699a4.692 4.692 0 0 0-1.623 1.804 5.203 5.203 0 0 0-.564 2.401v1.973c0 1.157.203 2.142.609 2.953.413.812.988 1.432 1.724 1.86.737.421 1.597.632 2.582.632a5.34 5.34 0 0 0 1.747-.271 3.776 3.776 0 0 0 1.364-.834c.383-.368.677-.823.879-1.364l3.191.575a5.783 5.783 0 0 1-1.376 2.469c-.653.699-1.476 1.243-2.468 1.634-.985.383-2.108.575-3.371.575Zm14.539-10.63v10.281h-3.37V296.21h3.235v2.819h.214a4.95 4.95 0 0 1 1.872-2.21c.856-.556 1.935-.834 3.235-.834 1.18 0 2.213.248 3.1.744.887.489 1.574 1.217 2.063 2.187.488.969.733 2.168.733 3.596v11.014h-3.371v-10.608c0-1.255-.327-2.236-.981-2.942-.654-.714-1.552-1.071-2.694-1.071-.782 0-1.477.169-2.085.507-.602.338-1.079.834-1.432 1.488-.346.646-.519 1.428-.519 2.345Zm23.685-7.035v2.706h-9.458v-2.706h9.458Zm-6.922-4.148h3.371v16.38c0 .653.097 1.146.293 1.476.195.323.447.545.755.665.316.113.658.17 1.026.17.27 0 .507-.019.71-.057.203-.037.361-.068.474-.09l.608 2.784a5.508 5.508 0 0 1-.834.226 6.62 6.62 0 0 1-1.353.135 5.949 5.949 0 0 1-2.48-.473 4.265 4.265 0 0 1-1.86-1.533c-.473-.692-.71-1.56-.71-2.605v-17.078Zm14.393-1.623v23.087h-3.371v-23.087h3.371Zm6.665 29.58c-.504 0-.962-.042-1.375-.124-.414-.075-.722-.158-.925-.248l.812-2.762c.616.165 1.165.237 1.646.214a1.97 1.97 0 0 0 1.274-.541c.375-.338.706-.891.992-1.657l.417-1.15-6.336-17.541h3.608l4.385 13.438h.18l4.385-13.438h3.619l-7.136 19.627c-.331.901-.751 1.664-1.262 2.288a4.895 4.895 0 0 1-1.827 1.42c-.706.316-1.525.474-2.457.474Zm31.713-6.144c-1.706 0-3.175-.364-4.407-1.093-1.225-.737-2.172-1.77-2.841-3.1-.661-1.338-.992-2.905-.992-4.701 0-1.774.331-3.337.992-4.69.669-1.353 1.601-2.408 2.796-3.167 1.202-.759 2.607-1.139 4.216-1.139a8.48 8.48 0 0 1 2.84.485 6.87 6.87 0 0 1 2.469 1.522c.729.691 1.304 1.589 1.725 2.694.421 1.097.631 2.431.631 4.002v1.195h-13.764v-2.526h10.461c0-.886-.18-1.672-.541-2.356a4.091 4.091 0 0 0-1.522-1.634c-.646-.398-1.405-.598-2.277-.598-.947 0-1.773.233-2.48.699a4.692 4.692 0 0 0-1.623 1.804 5.203 5.203 0 0 0-.564 2.401v1.973c0 1.157.203 2.142.609 2.953.413.812.988 1.432 1.725 1.86.736.421 1.597.632 2.581.632a5.34 5.34 0 0 0 1.747-.271 3.78 3.78 0 0 0 1.365-.834c.383-.368.676-.823.879-1.364l3.19.575a5.781 5.781 0 0 1-1.375 2.469c-.654.699-1.477 1.243-2.469 1.634-.985.383-2.108.575-3.371.575Zm14.54-10.63v10.281h-3.371V296.21h3.235v2.819h.215a4.948 4.948 0 0 1 1.871-2.21c.857-.556 1.935-.834 3.235-.834 1.18 0 2.213.248 3.1.744.887.489 1.575 1.217 2.063 2.187.489.969.733 2.168.733 3.596v11.014h-3.371v-10.608c0-1.255-.327-2.236-.98-2.942-.654-.714-1.552-1.071-2.695-1.071-.781 0-1.476.169-2.085.507-.601.338-1.079.834-1.432 1.488-.346.646-.518 1.428-.518 2.345Zm22.895 10.63c-1.676 0-3.119-.379-4.329-1.138-1.202-.767-2.127-1.823-2.773-3.168-.646-1.345-.97-2.886-.97-4.622 0-1.759.331-3.311.992-4.656.662-1.353 1.594-2.408 2.796-3.167 1.203-.759 2.619-1.139 4.25-1.139 1.315 0 2.488.244 3.517.733 1.03.481 1.86 1.157 2.492 2.029.638.872 1.018 1.89 1.138 3.055h-3.28c-.181-.812-.594-1.511-1.24-2.097-.639-.586-1.496-.879-2.571-.879-.939 0-1.762.248-2.468.744-.699.488-1.244 1.187-1.635 2.097-.391.901-.586 1.969-.586 3.201 0 1.263.192 2.352.575 3.269.383.917.924 1.627 1.623 2.131.707.503 1.537.755 2.491.755.639 0 1.218-.116 1.736-.349a3.545 3.545 0 0 0 1.319-1.026c.361-.444.613-.977.756-1.601h3.28c-.12 1.12-.485 2.119-1.093 2.999-.609.879-1.425 1.57-2.447 2.074-1.014.503-2.205.755-3.573.755Zm18.011 0c-1.623 0-3.04-.372-4.25-1.116-1.21-.744-2.149-1.785-2.818-3.123-.669-1.337-1.003-2.9-1.003-4.689 0-1.796.334-3.367 1.003-4.712.669-1.345 1.608-2.39 2.818-3.134 1.21-.744 2.627-1.116 4.25-1.116 1.623 0 3.04.372 4.25 1.116 1.21.744 2.149 1.789 2.818 3.134s1.004 2.916 1.004 4.712c0 1.789-.335 3.352-1.004 4.689-.669 1.338-1.608 2.379-2.818 3.123-1.21.744-2.627 1.116-4.25 1.116Zm.011-2.829c1.053 0 1.924-.278 2.616-.835.691-.556 1.202-1.296 1.533-2.22.338-.925.507-1.943.507-3.055 0-1.105-.169-2.12-.507-3.044-.331-.932-.842-1.68-1.533-2.243-.692-.564-1.563-.846-2.616-.846-1.059 0-1.939.282-2.637.846-.692.563-1.207 1.311-1.545 2.243-.33.924-.496 1.939-.496 3.044 0 1.112.166 2.13.496 3.055.338.924.853 1.664 1.545 2.22.698.557 1.578.835 2.637.835Zm18.305 2.818c-1.398 0-2.646-.357-3.743-1.071-1.09-.722-1.946-1.747-2.57-3.078-.616-1.337-.924-2.942-.924-4.813 0-1.871.311-3.472.935-4.802.632-1.331 1.496-2.349 2.593-3.055 1.097-.707 2.341-1.06 3.731-1.06 1.075 0 1.939.18 2.593.541.661.353 1.173.767 1.533 1.24.368.474.654.891.857 1.251h.203v-8.578h3.37v23.087h-3.291v-2.695h-.282c-.203.369-.496.79-.879 1.263-.376.473-.895.887-1.556 1.24s-1.518.53-2.57.53Zm.744-2.875c.969 0 1.788-.255 2.457-.766.677-.519 1.188-1.237 1.533-2.153.354-.917.53-1.984.53-3.202 0-1.202-.173-2.255-.518-3.156-.346-.902-.853-1.605-1.522-2.108-.669-.504-1.496-.756-2.48-.756-1.015 0-1.86.263-2.537.789-.676.526-1.187 1.244-1.533 2.154-.338.909-.507 1.935-.507 3.077 0 1.157.173 2.198.519 3.123.345.924.856 1.657 1.533 2.198.684.533 1.525.8 2.525.8Zm20.108 2.886c-1.706 0-3.175-.364-4.408-1.093-1.225-.737-2.172-1.77-2.841-3.1-.661-1.338-.992-2.905-.992-4.701 0-1.774.331-3.337.992-4.69.669-1.353 1.601-2.408 2.796-3.167 1.203-.759 2.608-1.139 4.216-1.139a8.49 8.49 0 0 1 2.841.485 6.87 6.87 0 0 1 2.469 1.522c.729.691 1.304 1.589 1.724 2.694.421 1.097.632 2.431.632 4.002v1.195h-13.765v-2.526h10.462c0-.886-.181-1.672-.541-2.356a4.091 4.091 0 0 0-1.522-1.634c-.647-.398-1.406-.598-2.277-.598-.947 0-1.774.233-2.48.699a4.703 4.703 0 0 0-1.624 1.804 5.214 5.214 0 0 0-.563 2.401v1.973c0 1.157.203 2.142.608 2.953.414.812.989 1.432 1.725 1.86.737.421 1.597.632 2.582.632.638 0 1.221-.09 1.747-.271a3.776 3.776 0 0 0 1.364-.834c.383-.368.676-.823.879-1.364l3.191.575a5.783 5.783 0 0 1-1.376 2.469c-.654.699-1.477 1.243-2.469 1.634-.984.383-2.108.575-3.37.575Zm19.57-.349V296.21h3.37v17.316h-3.37Zm1.702-19.987c-.586 0-1.09-.196-1.511-.586-.413-.399-.62-.872-.62-1.421 0-.556.207-1.029.62-1.42a2.124 2.124 0 0 1 1.511-.598c.586 0 1.086.2 1.499.598.421.391.631.864.631 1.42 0 .549-.21 1.022-.631 1.421-.413.39-.913.586-1.499.586Zm6.203 19.987V296.21h3.235v2.819h.214c.361-.955.951-1.699 1.77-2.232.819-.541 1.8-.812 2.942-.812 1.158 0 2.127.271 2.909.812.789.541 1.371 1.285 1.747 2.232h.18c.414-.925 1.071-1.661 1.973-2.21.902-.556 1.977-.834 3.224-.834 1.571 0 2.852.492 3.844 1.477 1 .984 1.5 2.469 1.5 4.453v11.611h-3.371V302.23c0-1.172-.319-2.021-.958-2.547-.639-.527-1.402-.79-2.289-.79-1.097 0-1.95.339-2.559 1.015-.608.669-.913 1.529-.913 2.581v11.037h-3.359v-11.51c0-.939-.293-1.695-.879-2.266-.586-.571-1.349-.857-2.289-.857-.638 0-1.228.169-1.77.508-.533.33-.965.793-1.296 1.386-.323.594-.485 1.282-.485 2.063v10.676h-3.37Zm33.094.383c-1.097 0-2.089-.203-2.976-.609a5.016 5.016 0 0 1-2.108-1.792c-.511-.782-.766-1.74-.766-2.875 0-.977.187-1.781.563-2.412a4.17 4.17 0 0 1 1.522-1.5 7.965 7.965 0 0 1 2.142-.834 21.33 21.33 0 0 1 2.412-.428l2.525-.293c.647-.083 1.116-.214 1.41-.395.293-.18.439-.473.439-.879v-.079c0-.984-.278-1.747-.834-2.288-.549-.541-1.368-.812-2.458-.812-1.134 0-2.029.252-2.682.755-.647.496-1.094 1.049-1.342 1.657l-3.168-.721c.376-1.052.925-1.901 1.646-2.548a6.671 6.671 0 0 1 2.514-1.42 9.803 9.803 0 0 1 2.987-.451c.692 0 1.425.083 2.199.248.781.158 1.51.451 2.187.879.683.429 1.243 1.041 1.679 1.838.436.789.654 1.815.654 3.077v11.499h-3.292v-2.368h-.135c-.218.436-.545.865-.981 1.285-.436.421-.995.771-1.679 1.049-.684.278-1.503.417-2.458.417Zm.733-2.706c.932 0 1.728-.184 2.39-.552.669-.368 1.176-.849 1.522-1.443a3.744 3.744 0 0 0 .529-1.928v-2.232c-.12.121-.353.233-.698.339-.339.097-.726.184-1.162.259-.435.068-.86.131-1.273.192-.414.052-.759.097-1.038.135a8.288 8.288 0 0 0-1.792.417c-.534.195-.962.477-1.285.845-.316.361-.473.842-.473 1.443 0 .834.308 1.466.924 1.894.616.421 1.401.631 2.356.631Zm19.561 9.177c-1.375 0-2.559-.181-3.551-.542-.984-.36-1.788-.837-2.412-1.431-.624-.594-1.09-1.244-1.398-1.95l2.897-1.195c.203.33.474.68.812 1.048.345.376.811.695 1.398.958.593.263 1.356.395 2.288.395 1.278 0 2.334-.312 3.168-.936.834-.616 1.251-1.601 1.251-2.953v-3.405h-.214a7.718 7.718 0 0 1-.879 1.229c-.376.451-.895.842-1.556 1.172-.661.331-1.522.496-2.582.496-1.367 0-2.6-.319-3.697-.958-1.09-.646-1.954-1.597-2.593-2.852-.631-1.262-.947-2.814-.947-4.656 0-1.841.312-3.419.936-4.734.631-1.315 1.495-2.322 2.593-3.021 1.097-.707 2.341-1.06 3.731-1.06 1.075 0 1.943.18 2.604.541.661.353 1.176.767 1.544 1.24.376.474.665.891.868 1.251h.248v-2.807h3.303v17.699c0 1.488-.345 2.709-1.037 3.664-.691.954-1.627 1.66-2.807 2.119-1.172.458-2.495.688-3.968.688Zm-.034-9.909c.97 0 1.789-.226 2.458-.677.676-.458 1.187-1.112 1.533-1.961.353-.857.53-1.883.53-3.078 0-1.165-.173-2.19-.519-3.077-.345-.887-.853-1.578-1.522-2.074-.668-.504-1.495-.756-2.48-.756-1.014 0-1.86.263-2.536.789-.676.519-1.187 1.225-1.533 2.12-.338.894-.507 1.894-.507 2.998 0 1.135.172 2.131.518 2.988.346.856.857 1.525 1.533 2.006.684.481 1.526.722 2.525.722Zm19.829 3.404c-1.706 0-3.175-.364-4.407-1.093-1.225-.737-2.172-1.77-2.841-3.1-.661-1.338-.992-2.905-.992-4.701 0-1.774.331-3.337.992-4.69.669-1.353 1.601-2.408 2.796-3.167 1.202-.759 2.607-1.139 4.216-1.139a8.48 8.48 0 0 1 2.84.485 6.87 6.87 0 0 1 2.469 1.522c.729.691 1.304 1.589 1.725 2.694.421 1.097.631 2.431.631 4.002v1.195h-13.764v-2.526h10.461c0-.886-.18-1.672-.541-2.356a4.091 4.091 0 0 0-1.522-1.634c-.646-.398-1.405-.598-2.277-.598-.947 0-1.773.233-2.48.699a4.692 4.692 0 0 0-1.623 1.804 5.203 5.203 0 0 0-.564 2.401v1.973c0 1.157.203 2.142.609 2.953.413.812.988 1.432 1.725 1.86.736.421 1.597.632 2.581.632.639 0 1.221-.09 1.748-.271.526-.188.98-.466 1.364-.834.383-.368.676-.823.879-1.364l3.19.575a5.781 5.781 0 0 1-1.375 2.469c-.654.699-1.477 1.243-2.469 1.634-.984.383-2.108.575-3.371.575Zm24.144-13.437-3.055.541a3.6 3.6 0 0 0-.609-1.116c-.27-.353-.638-.643-1.104-.868-.466-.226-1.049-.338-1.748-.338-.954 0-1.751.214-2.389.642-.639.421-.959.966-.959 1.635 0 .578.215 1.044.643 1.398.428.353 1.12.642 2.074.868l2.751.631c1.593.368 2.78.936 3.562 1.702.782.767 1.172 1.762 1.172 2.987 0 1.038-.3 1.962-.901 2.774-.594.804-1.425 1.435-2.492 1.893-1.059.459-2.288.688-3.686.688-1.939 0-3.521-.413-4.746-1.24-1.225-.834-1.976-2.018-2.254-3.551l3.257-.496c.203.849.62 1.492 1.252 1.928.631.428 1.454.642 2.468.642 1.105 0 1.988-.229 2.65-.687.661-.466.992-1.034.992-1.703a1.77 1.77 0 0 0-.609-1.364c-.398-.368-1.011-.646-1.838-.834l-2.931-.642c-1.615-.369-2.81-.955-3.584-1.759-.767-.804-1.15-1.822-1.15-3.055 0-1.022.285-1.916.857-2.683.571-.766 1.36-1.364 2.367-1.792 1.007-.436 2.16-.654 3.461-.654 1.871 0 3.344.406 4.419 1.217 1.074.805 1.784 1.883 2.13 3.236Z"/><path fill="#E2E8F0" d="M1107.88 352.212H322.735v2.116h785.145v-2.116Z" mask="url(#path-12-inside-2_652_1552)"/><path fill="#3F3F46" d="M345.275 428.457c0 2.434-.439 4.539-1.319 6.312-.879 1.774-2.085 3.142-3.618 4.104-1.533.962-3.284 1.443-5.253 1.443-1.969 0-3.721-.481-5.254-1.443-1.533-.962-2.739-2.33-3.618-4.104-.88-1.773-1.319-3.878-1.319-6.312 0-2.435.439-4.54 1.319-6.313.879-1.774 2.085-3.142 3.618-4.104 1.533-.962 3.285-1.443 5.254-1.443 1.969 0 3.72.481 5.253 1.443 1.533.962 2.739 2.33 3.618 4.104.88 1.773 1.319 3.878 1.319 6.313Zm-2.705 0c0-2-.335-3.687-1.004-5.062-.661-1.375-1.559-2.416-2.694-3.123-1.127-.706-2.39-1.059-3.787-1.059-1.398 0-2.665.353-3.799 1.059-1.128.707-2.026 1.748-2.695 3.123-.661 1.375-.992 3.062-.992 5.062 0 1.999.331 3.686.992 5.061.669 1.375 1.567 2.416 2.695 3.123 1.134.706 2.401 1.059 3.799 1.059 1.397 0 2.66-.353 3.787-1.059 1.135-.707 2.033-1.748 2.694-3.123.669-1.375 1.004-3.062 1.004-5.061Zm7.045 18.036v-23.808h2.571v2.75h.315c.196-.3.466-.683.812-1.149.353-.474.857-.895 1.51-1.263.662-.376 1.556-.564 2.683-.564 1.458 0 2.743.365 3.856 1.094 1.112.729 1.98 1.762 2.604 3.1.623 1.338.935 2.916.935 4.735 0 1.833-.312 3.423-.935 4.768-.624 1.338-1.488 2.375-2.593 3.111-1.105.729-2.379 1.094-3.822 1.094-1.112 0-2.002-.184-2.671-.553-.669-.375-1.184-.8-1.545-1.273-.36-.481-.638-.88-.834-1.195h-.225v9.153h-2.661Zm2.616-15.151c0 1.308.191 2.462.575 3.461.383.992.943 1.77 1.679 2.334.737.556 1.639.834 2.706.834 1.112 0 2.04-.293 2.784-.879.752-.594 1.315-1.391 1.691-2.39.383-1.007.575-2.127.575-3.36 0-1.217-.188-2.314-.564-3.291-.368-.985-.928-1.763-1.679-2.334-.744-.578-1.68-.868-2.807-.868-1.082 0-1.992.275-2.728.823-.737.541-1.293 1.3-1.669 2.277-.375.97-.563 2.101-.563 3.393Zm24.259-8.657v2.254h-8.973v-2.254h8.973Zm-6.358-4.149h2.66v16.504c0 .751.109 1.315.327 1.691.226.368.511.616.857.744.353.12.725.18 1.116.18.293 0 .534-.015.722-.045l.45-.09.542 2.39a5.604 5.604 0 0 1-.756.203c-.323.075-.732.112-1.228.112a5.359 5.359 0 0 1-2.21-.484 4.387 4.387 0 0 1-1.781-1.477c-.466-.661-.699-1.496-.699-2.503v-17.225ZM380.492 440v-17.315h2.66V440h-2.66Zm1.353-20.201c-.519 0-.966-.177-1.342-.53a1.703 1.703 0 0 1-.552-1.274c0-.496.184-.92.552-1.274a1.893 1.893 0 0 1 1.342-.529c.518 0 .962.176 1.33.529.376.354.563.778.563 1.274s-.187.921-.563 1.274c-.368.353-.812.53-1.33.53Zm6.18 20.201v-17.315h2.57v2.705h.226c.36-.924.943-1.642 1.747-2.153.804-.518 1.77-.778 2.897-.778 1.142 0 2.093.26 2.852.778.767.511 1.364 1.229 1.792 2.153h.181a5.04 5.04 0 0 1 1.995-2.13c.887-.534 1.95-.801 3.19-.801 1.549 0 2.815.485 3.799 1.455.985.962 1.477 2.461 1.477 4.497V440h-2.66v-11.589c0-1.277-.35-2.19-1.049-2.739-.699-.548-1.522-.823-2.468-.823-1.218 0-2.161.368-2.83 1.105-.669.729-1.003 1.653-1.003 2.773V440h-2.706v-11.859c0-.985-.319-1.777-.958-2.379-.639-.608-1.462-.913-2.469-.913-.691 0-1.337.184-1.939.553a4.18 4.18 0 0 0-1.443 1.533c-.36.646-.541 1.394-.541 2.243V440h-2.66Zm27.59 0v-17.315h2.661V440h-2.661Zm1.353-20.201c-.518 0-.966-.177-1.341-.53a1.7 1.7 0 0 1-.553-1.274c0-.496.184-.92.553-1.274a1.89 1.89 0 0 1 1.341-.529c.519 0 .962.176 1.33.529.376.354.564.778.564 1.274s-.188.921-.564 1.274c-.368.353-.811.53-1.33.53ZM422.652 440v-2.029l9.83-12.626v-.18h-9.514v-2.48h12.941v2.119l-9.559 12.536v.18h9.875V440h-13.573Zm24.434.361c-1.668 0-3.107-.369-4.317-1.105-1.202-.744-2.131-1.781-2.784-3.111-.647-1.338-.97-2.894-.97-4.667 0-1.774.323-3.337.97-4.69.653-1.36 1.563-2.42 2.728-3.179 1.172-.766 2.54-1.15 4.103-1.15.902 0 1.792.151 2.672.451a6.624 6.624 0 0 1 2.401 1.466c.721.669 1.296 1.555 1.724 2.66.429 1.105.643 2.465.643 4.081v1.127h-13.347v-2.299h10.642c0-.977-.196-1.849-.587-2.616a4.427 4.427 0 0 0-1.645-1.815c-.707-.443-1.541-.665-2.503-.665-1.06 0-1.977.263-2.751.789a5.205 5.205 0 0 0-1.77 2.029 5.97 5.97 0 0 0-.62 2.683v1.534c0 1.307.226 2.416.677 3.325.458.902 1.093 1.589 1.905 2.063.812.466 1.755.699 2.829.699.699 0 1.331-.098 1.894-.293a4.06 4.06 0 0 0 1.477-.902c.413-.406.733-.909.958-1.511l2.57.722a5.694 5.694 0 0 1-1.364 2.3c-.638.653-1.427 1.164-2.367 1.533-.939.36-1.995.541-3.168.541Zm17.755 0c-1.443 0-2.716-.365-3.821-1.094-1.105-.736-1.969-1.773-2.593-3.111-.624-1.345-.936-2.935-.936-4.768 0-1.819.312-3.397.936-4.735.624-1.338 1.492-2.371 2.604-3.1 1.112-.729 2.397-1.094 3.855-1.094 1.128 0 2.018.188 2.672.564.661.368 1.165.789 1.511 1.263.353.466.627.849.823 1.149h.225v-8.522h2.66V440h-2.57v-2.66h-.315c-.196.315-.474.714-.835 1.195-.36.473-.875.898-1.544 1.273-.669.369-1.559.553-2.672.553Zm.361-2.39c1.067 0 1.969-.278 2.706-.834.736-.564 1.296-1.342 1.679-2.334.383-.999.575-2.153.575-3.461 0-1.292-.188-2.423-.564-3.393-.375-.977-.931-1.736-1.668-2.277-.736-.548-1.646-.823-2.728-.823-1.127 0-2.067.29-2.818.868-.744.571-1.304 1.349-1.68 2.334-.368.977-.552 2.074-.552 3.291 0 1.233.188 2.353.563 3.36.384.999.947 1.796 1.691 2.39.752.586 1.684.879 2.796.879ZM486.947 440v-17.315h2.661V440h-2.661Zm1.353-20.201c-.518 0-.965-.177-1.341-.53a1.7 1.7 0 0 1-.553-1.274c0-.496.184-.92.553-1.274a1.892 1.892 0 0 1 1.341-.529c.519 0 .962.176 1.33.529.376.354.564.778.564 1.274s-.188.921-.564 1.274c-.368.353-.811.53-1.33.53ZM494.481 440v-17.315h2.57v2.705h.225c.361-.924.943-1.642 1.748-2.153.804-.518 1.769-.778 2.897-.778 1.142 0 2.093.26 2.852.778.766.511 1.364 1.229 1.792 2.153h.181a5.04 5.04 0 0 1 1.995-2.13c.887-.534 1.95-.801 3.19-.801 1.548 0 2.815.485 3.799 1.455.985.962 1.477 2.461 1.477 4.497V440h-2.661v-11.589c0-1.277-.349-2.19-1.048-2.739-.699-.548-1.522-.823-2.469-.823-1.217 0-2.16.368-2.829 1.105-.669.729-1.004 1.653-1.004 2.773V440h-2.705v-11.859c0-.985-.319-1.777-.958-2.379-.639-.608-1.462-.913-2.469-.913-.691 0-1.338.184-1.939.553a4.163 4.163 0 0 0-1.443 1.533c-.361.646-.541 1.394-.541 2.243V440h-2.66Zm32.685.406c-1.097 0-2.093-.207-2.987-.62a5.137 5.137 0 0 1-2.131-1.815c-.526-.797-.789-1.759-.789-2.886 0-.992.196-1.796.587-2.412a4.129 4.129 0 0 1 1.567-1.466 8.236 8.236 0 0 1 2.164-.789c.797-.18 1.597-.323 2.401-.428 1.052-.136 1.905-.237 2.559-.305.661-.075 1.142-.199 1.443-.372.308-.173.462-.473.462-.902v-.09c0-1.112-.304-1.976-.913-2.592-.601-.617-1.514-.925-2.739-.925-1.27 0-2.266.278-2.988.834-.721.556-1.228 1.15-1.521 1.781l-2.526-.901c.451-1.053 1.053-1.872 1.804-2.458a6.758 6.758 0 0 1 2.48-1.24 10.32 10.32 0 0 1 2.66-.361c.557 0 1.195.068 1.917.203a6.133 6.133 0 0 1 2.108.801c.684.405 1.251 1.018 1.702 1.837.451.819.677 1.917.677 3.292V440h-2.661v-2.345h-.135c-.181.376-.481.778-.902 1.206-.421.429-.981.793-1.68 1.094-.699.301-1.552.451-2.559.451Zm.406-2.39c1.052 0 1.939-.207 2.661-.62.729-.413 1.277-.947 1.645-1.601a4.077 4.077 0 0 0 .564-2.063v-2.435c-.113.136-.361.26-.744.372-.376.106-.812.199-1.308.282-.488.075-.965.143-1.431.203-.459.053-.831.098-1.116.135-.692.091-1.338.237-1.939.44-.594.195-1.075.492-1.443.891-.361.39-.541.924-.541 1.6 0 .925.342 1.624 1.026 2.097.691.466 1.567.699 2.626.699Zm19.375 8.838c-1.285 0-2.389-.165-3.314-.496-.924-.323-1.694-.752-2.311-1.285a7.055 7.055 0 0 1-1.454-1.691l2.119-1.488c.241.315.545.676.914 1.082.368.413.871.77 1.51 1.071.646.308 1.492.462 2.536.462 1.398 0 2.552-.338 3.461-1.014.91-.677 1.364-1.736 1.364-3.179v-3.518h-.225c-.196.316-.474.707-.834 1.173-.354.458-.865.868-1.533 1.229-.662.353-1.556.529-2.683.529-1.398 0-2.653-.33-3.766-.992-1.104-.661-1.98-1.623-2.626-2.885-.639-1.263-.958-2.796-.958-4.6 0-1.773.312-3.318.935-4.633.624-1.323 1.492-2.345 2.604-3.066 1.113-.729 2.398-1.094 3.856-1.094 1.127 0 2.021.188 2.683.564.668.368 1.18.789 1.533 1.263.36.466.639.849.834 1.149h.27v-2.75h2.571v17.811c0 1.488-.338 2.698-1.015 3.63-.669.939-1.571 1.627-2.705 2.063-1.128.443-2.383.665-3.766.665Zm-.09-9.514c1.067 0 1.969-.245 2.706-.733.736-.489 1.296-1.191 1.679-2.108.384-.917.575-2.014.575-3.292 0-1.247-.187-2.348-.563-3.303-.376-.954-.932-1.702-1.669-2.243-.736-.541-1.645-.812-2.728-.812-1.127 0-2.066.286-2.818.857-.744.571-1.304 1.338-1.68 2.3-.368.962-.552 2.029-.552 3.201 0 1.203.188 2.266.564 3.19.383.917.947 1.639 1.691 2.165.751.518 1.683.778 2.795.778Zm19.705 3.021c-1.668 0-3.107-.369-4.317-1.105-1.203-.744-2.131-1.781-2.785-3.111-.646-1.338-.969-2.894-.969-4.667 0-1.774.323-3.337.969-4.69.654-1.36 1.564-2.42 2.728-3.179 1.173-.766 2.541-1.15 4.104-1.15.902 0 1.792.151 2.671.451a6.62 6.62 0 0 1 2.402 1.466c.721.669 1.296 1.555 1.724 2.66.429 1.105.643 2.465.643 4.081v1.127h-13.347v-2.299h10.641c0-.977-.195-1.849-.586-2.616a4.423 4.423 0 0 0-1.646-1.815c-.706-.443-1.54-.665-2.502-.665-1.06 0-1.977.263-2.751.789a5.205 5.205 0 0 0-1.77 2.029 5.97 5.97 0 0 0-.62 2.683v1.534c0 1.307.226 2.416.677 3.325.458.902 1.093 1.589 1.905 2.063.811.466 1.755.699 2.829.699.699 0 1.331-.098 1.894-.293a4.06 4.06 0 0 0 1.477-.902c.413-.406.733-.909.958-1.511l2.57.722a5.694 5.694 0 0 1-1.364 2.3c-.638.653-1.428 1.164-2.367 1.533-.939.36-1.995.541-3.168.541Zm23.482-13.798-2.39.676a4.441 4.441 0 0 0-.665-1.161c-.286-.383-.677-.699-1.173-.947s-1.131-.372-1.905-.372c-1.059 0-1.942.244-2.649.733-.699.481-1.048 1.093-1.048 1.837 0 .662.24 1.184.721 1.567s1.233.703 2.255.958l2.57.632c1.548.375 2.702.95 3.461 1.724.759.767 1.138 1.755 1.138 2.965 0 .992-.285 1.879-.856 2.661-.564.781-1.353 1.397-2.368 1.848-1.014.451-2.194.677-3.539.677-1.766 0-3.228-.384-4.385-1.15-1.158-.767-1.891-1.886-2.199-3.359l2.525-.632c.241.932.696 1.631 1.364 2.097.677.466 1.56.699 2.65.699 1.24 0 2.224-.263 2.953-.789.737-.534 1.105-1.173 1.105-1.917 0-.601-.211-1.104-.631-1.51-.421-.413-1.068-.722-1.939-.924l-2.886-.677c-1.586-.376-2.751-.958-3.495-1.747-.736-.797-1.105-1.793-1.105-2.987 0-.977.275-1.842.823-2.593.556-.752 1.312-1.342 2.266-1.77.962-.428 2.052-.643 3.269-.643 1.714 0 3.059.376 4.036 1.128.985.751 1.683 1.743 2.097 2.976Zm15.909-9.65V440h-2.661v-23.087h2.661Zm11.907 23.448c-1.563 0-2.935-.372-4.115-1.116-1.172-.744-2.089-1.785-2.751-3.123-.653-1.338-.98-2.901-.98-4.689 0-1.804.327-3.379.98-4.724.662-1.345 1.579-2.39 2.751-3.134 1.18-.744 2.552-1.116 4.115-1.116 1.563 0 2.931.372 4.103 1.116 1.18.744 2.097 1.789 2.751 3.134.661 1.345.992 2.92.992 4.724 0 1.788-.331 3.351-.992 4.689-.654 1.338-1.571 2.379-2.751 3.123-1.172.744-2.54 1.116-4.103 1.116Zm0-2.39c1.187 0 2.164-.304 2.931-.913.766-.609 1.334-1.409 1.702-2.401.368-.992.552-2.067.552-3.224 0-1.158-.184-2.236-.552-3.236-.368-.999-.936-1.807-1.702-2.423-.767-.617-1.744-.925-2.931-.925-1.188 0-2.165.308-2.931.925-.767.616-1.334 1.424-1.702 2.423-.369 1-.553 2.078-.553 3.236 0 1.157.184 2.232.553 3.224.368.992.935 1.792 1.702 2.401.766.609 1.743.913 2.931.913Zm17.002 2.435c-1.097 0-2.093-.207-2.987-.62a5.125 5.125 0 0 1-2.131-1.815c-.526-.797-.789-1.759-.789-2.886 0-.992.195-1.796.586-2.412a4.136 4.136 0 0 1 1.567-1.466 8.243 8.243 0 0 1 2.165-.789c.796-.18 1.597-.323 2.401-.428 1.052-.136 1.905-.237 2.559-.305.661-.075 1.142-.199 1.443-.372.308-.173.462-.473.462-.902v-.09c0-1.112-.305-1.976-.913-2.592-.602-.617-1.515-.925-2.74-.925-1.27 0-2.265.278-2.987.834-.721.556-1.229 1.15-1.522 1.781l-2.525-.901c.451-1.053 1.052-1.872 1.804-2.458a6.75 6.75 0 0 1 2.48-1.24c.902-.24 1.788-.361 2.66-.361.556 0 1.195.068 1.917.203a6.14 6.14 0 0 1 2.108.801c.683.405 1.251 1.018 1.702 1.837.451.819.676 1.917.676 3.292V440h-2.66v-2.345h-.135c-.181.376-.481.778-.902 1.206-.421.429-.981.793-1.68 1.094-.699.301-1.552.451-2.559.451Zm.406-2.39c1.052 0 1.939-.207 2.66-.62.729-.413 1.278-.947 1.646-1.601a4.077 4.077 0 0 0 .564-2.063v-2.435c-.113.136-.361.26-.744.372-.376.106-.812.199-1.308.282-.488.075-.966.143-1.432.203-.458.053-.83.098-1.116.135a10.24 10.24 0 0 0-1.939.44c-.593.195-1.074.492-1.442.891-.361.39-.542.924-.542 1.6 0 .925.342 1.624 1.026 2.097.692.466 1.567.699 2.627.699Zm18.924 2.345c-1.443 0-2.717-.365-3.821-1.094-1.105-.736-1.969-1.773-2.593-3.111-.624-1.345-.936-2.935-.936-4.768 0-1.819.312-3.397.936-4.735.624-1.338 1.492-2.371 2.604-3.1 1.112-.729 2.397-1.094 3.855-1.094 1.128 0 2.018.188 2.672.564.661.368 1.165.789 1.511 1.263.353.466.627.849.823 1.149h.225v-8.522h2.66V440h-2.57v-2.66h-.315c-.196.315-.474.714-.835 1.195-.36.473-.875.898-1.544 1.273-.669.369-1.559.553-2.672.553Zm.361-2.39c1.067 0 1.969-.278 2.705-.834.737-.564 1.297-1.342 1.68-2.334.383-.999.575-2.153.575-3.461 0-1.292-.188-2.423-.564-3.393-.375-.977-.931-1.736-1.668-2.277-.736-.548-1.646-.823-2.728-.823-1.127 0-2.067.29-2.818.868-.744.571-1.304 1.349-1.68 2.334-.368.977-.552 2.074-.552 3.291 0 1.233.188 2.353.563 3.36.384.999.947 1.796 1.691 2.39.752.586 1.684.879 2.796.879Zm29.456-15.286v2.254h-9.334v-2.254h9.334ZM677.471 440v-19.705c0-.992.233-1.819.699-2.48a4.337 4.337 0 0 1 1.815-1.488 5.73 5.73 0 0 1 2.356-.496c.654 0 1.187.053 1.6.158a6.2 6.2 0 0 1 .925.293l-.767 2.299a13.854 13.854 0 0 0-.563-.169c-.233-.067-.541-.101-.925-.101-.879 0-1.514.222-1.905.665-.383.443-.575 1.094-.575 1.95V440h-2.66Zm14.866.406c-1.097 0-2.093-.207-2.987-.62a5.125 5.125 0 0 1-2.131-1.815c-.526-.797-.789-1.759-.789-2.886 0-.992.195-1.796.586-2.412a4.136 4.136 0 0 1 1.567-1.466 8.249 8.249 0 0 1 2.164-.789c.797-.18 1.597-.323 2.402-.428 1.052-.136 1.905-.237 2.559-.305.661-.075 1.142-.199 1.442-.372.309-.173.463-.473.463-.902v-.09c0-1.112-.305-1.976-.913-2.592-.602-.617-1.515-.925-2.74-.925-1.27 0-2.266.278-2.987.834-.722.556-1.229 1.15-1.522 1.781l-2.525-.901c.451-1.053 1.052-1.872 1.804-2.458a6.75 6.75 0 0 1 2.48-1.24 10.31 10.31 0 0 1 2.66-.361c.556 0 1.195.068 1.916.203a6.133 6.133 0 0 1 2.108.801c.684.405 1.252 1.018 1.703 1.837.451.819.676 1.917.676 3.292V440h-2.66v-2.345h-.136c-.18.376-.481.778-.901 1.206-.421.429-.981.793-1.68 1.094-.699.301-1.552.451-2.559.451Zm.406-2.39c1.052 0 1.939-.207 2.66-.62.729-.413 1.278-.947 1.646-1.601a4.077 4.077 0 0 0 .564-2.063v-2.435c-.113.136-.361.26-.744.372-.376.106-.812.199-1.308.282-.489.075-.966.143-1.432.203-.458.053-.83.098-1.116.135a10.24 10.24 0 0 0-1.939.44c-.593.195-1.074.492-1.443.891-.36.39-.541.924-.541 1.6 0 .925.342 1.624 1.026 2.097.692.466 1.567.699 2.627.699Zm24.651-11.453-2.39.676a4.441 4.441 0 0 0-.665-1.161c-.286-.383-.677-.699-1.173-.947s-1.131-.372-1.905-.372c-1.059 0-1.942.244-2.649.733-.699.481-1.048 1.093-1.048 1.837 0 .662.24 1.184.721 1.567s1.233.703 2.255.958l2.57.632c1.548.375 2.702.95 3.461 1.724.759.767 1.138 1.755 1.138 2.965 0 .992-.285 1.879-.856 2.661-.564.781-1.353 1.397-2.368 1.848-1.014.451-2.194.677-3.539.677-1.766 0-3.228-.384-4.385-1.15-1.158-.767-1.891-1.886-2.199-3.359l2.525-.632c.241.932.696 1.631 1.364 2.097.677.466 1.56.699 2.65.699 1.24 0 2.224-.263 2.953-.789.737-.534 1.105-1.173 1.105-1.917 0-.601-.211-1.104-.631-1.51-.421-.413-1.068-.722-1.939-.924l-2.886-.677c-1.586-.376-2.751-.958-3.495-1.747-.736-.797-1.105-1.793-1.105-2.987 0-.977.275-1.842.823-2.593.556-.752 1.312-1.342 2.266-1.77.962-.428 2.052-.643 3.269-.643 1.714 0 3.059.376 4.036 1.128.985.751 1.683 1.743 2.097 2.976Zm11.85-3.878v2.254h-8.973v-2.254h8.973Zm-6.357-4.149h2.66v16.504c0 .751.109 1.315.327 1.691.225.368.511.616.857.744.353.12.725.18 1.116.18.293 0 .533-.015.721-.045l.451-.09.541 2.39c-.18.067-.432.135-.755.203-.323.075-.733.112-1.229.112a5.354 5.354 0 0 1-2.209-.484 4.397 4.397 0 0 1-1.782-1.477c-.466-.661-.698-1.496-.698-2.503v-17.225Zm17.433 21.825c-1.668 0-3.108-.369-4.317-1.105-1.203-.744-2.131-1.781-2.785-3.111-.646-1.338-.969-2.894-.969-4.667 0-1.774.323-3.337.969-4.69.654-1.36 1.563-2.42 2.728-3.179 1.173-.766 2.54-1.15 4.104-1.15.901 0 1.792.151 2.671.451.879.301 1.68.789 2.401 1.466.722.669 1.297 1.555 1.725 2.66.428 1.105.643 2.465.643 4.081v1.127h-13.347v-2.299h10.641c0-.977-.195-1.849-.586-2.616a4.423 4.423 0 0 0-1.646-1.815c-.706-.443-1.541-.665-2.502-.665-1.06 0-1.977.263-2.751.789a5.189 5.189 0 0 0-1.77 2.029 5.97 5.97 0 0 0-.62 2.683v1.534c0 1.307.226 2.416.676 3.325.459.902 1.094 1.589 1.906 2.063.811.466 1.754.699 2.829.699a5.77 5.77 0 0 0 1.894-.293 4.067 4.067 0 0 0 1.477-.902c.413-.406.732-.909.958-1.511l2.57.722a5.694 5.694 0 0 1-1.364 2.3c-.639.653-1.428 1.164-2.367 1.533-.94.36-1.996.541-3.168.541Zm11.217-.361v-17.315h2.57v2.615h.18c.316-.857.887-1.552 1.714-2.085.826-.534 1.758-.801 2.795-.801.196 0 .44.004.733.012.293.007.515.018.665.033v2.706a7.535 7.535 0 0 0-.62-.102 6.161 6.161 0 0 0-1.003-.079c-.842 0-1.593.177-2.255.53a3.996 3.996 0 0 0-1.555 1.443c-.376.609-.564 1.304-.564 2.086V440h-2.66Zm25.834.406c-1.097 0-2.093-.207-2.987-.62a5.131 5.131 0 0 1-2.131-1.815c-.526-.797-.789-1.759-.789-2.886 0-.992.196-1.796.586-2.412a4.143 4.143 0 0 1 1.567-1.466 8.256 8.256 0 0 1 2.165-.789c.796-.18 1.597-.323 2.401-.428 1.052-.136 1.905-.237 2.559-.305.661-.075 1.142-.199 1.443-.372.308-.173.462-.473.462-.902v-.09c0-1.112-.304-1.976-.913-2.592-.601-.617-1.514-.925-2.739-.925-1.271 0-2.266.278-2.988.834-.721.556-1.228 1.15-1.522 1.781l-2.525-.901c.451-1.053 1.052-1.872 1.804-2.458a6.758 6.758 0 0 1 2.48-1.24 10.32 10.32 0 0 1 2.66-.361c.557 0 1.195.068 1.917.203a6.14 6.14 0 0 1 2.108.801c.684.405 1.251 1.018 1.702 1.837.451.819.676 1.917.676 3.292V440h-2.66v-2.345h-.135c-.181.376-.481.778-.902 1.206-.421.429-.981.793-1.68 1.094-.699.301-1.552.451-2.559.451Zm.406-2.39c1.052 0 1.939-.207 2.661-.62.728-.413 1.277-.947 1.645-1.601a4.077 4.077 0 0 0 .564-2.063v-2.435c-.113.136-.361.26-.744.372-.376.106-.812.199-1.308.282-.488.075-.965.143-1.431.203-.459.053-.831.098-1.116.135-.692.091-1.338.237-1.939.44-.594.195-1.075.492-1.443.891-.361.39-.541.924-.541 1.6 0 .925.342 1.624 1.026 2.097.691.466 1.566.699 2.626.699Zm15.047-8.432V440h-2.661v-17.315h2.57v2.705h.226a4.948 4.948 0 0 1 1.849-2.119c.826-.541 1.894-.812 3.201-.812 1.173 0 2.198.241 3.078.722.879.473 1.563 1.195 2.051 2.164.489.962.733 2.18.733 3.653V440h-2.66v-10.822c0-1.36-.354-2.42-1.06-3.179-.706-.767-1.676-1.15-2.908-1.15-.85 0-1.609.184-2.278.553-.661.368-1.183.905-1.566 1.612-.384.706-.575 1.563-.575 2.57Zm22.447 10.777c-1.443 0-2.717-.365-3.822-1.094-1.104-.736-1.969-1.773-2.593-3.111-.623-1.345-.935-2.935-.935-4.768 0-1.819.312-3.397.935-4.735.624-1.338 1.492-2.371 2.605-3.1 1.112-.729 2.397-1.094 3.855-1.094 1.127 0 2.018.188 2.672.564.661.368 1.164.789 1.51 1.263.353.466.628.849.823 1.149h.225v-8.522h2.661V440h-2.57v-2.66h-.316c-.195.315-.473.714-.834 1.195-.361.473-.876.898-1.545 1.273-.668.369-1.559.553-2.671.553Zm.361-2.39c1.067 0 1.969-.278 2.705-.834.737-.564 1.296-1.342 1.68-2.334.383-.999.575-2.153.575-3.461 0-1.292-.188-2.423-.564-3.393-.376-.977-.932-1.736-1.668-2.277-.737-.548-1.646-.823-2.728-.823-1.128 0-2.067.29-2.819.868-.744.571-1.304 1.349-1.679 2.334-.369.977-.553 2.074-.553 3.291 0 1.233.188 2.353.564 3.36.383.999.947 1.796 1.691 2.39.751.586 1.683.879 2.796.879Zm28.779 2.39c-1.623 0-3.021-.384-4.193-1.15-1.173-.767-2.075-1.823-2.706-3.168-.631-1.345-.947-2.882-.947-4.61 0-1.759.323-3.311.97-4.656.654-1.353 1.563-2.409 2.728-3.168 1.172-.766 2.54-1.15 4.103-1.15 1.218 0 2.315.226 3.292.677a6.302 6.302 0 0 1 2.401 1.894c.624.811 1.011 1.758 1.161 2.84h-2.66c-.203-.789-.654-1.488-1.353-2.096-.691-.617-1.623-.925-2.796-.925-1.037 0-1.946.271-2.728.812-.774.533-1.379 1.289-1.815 2.266-.428.969-.642 2.108-.642 3.415 0 1.338.21 2.503.631 3.495.428.992 1.03 1.762 1.804 2.311.781.549 1.698.823 2.75.823.692 0 1.319-.12 1.883-.361a3.873 3.873 0 0 0 1.431-1.037c.391-.451.669-.992.835-1.623h2.66a6.161 6.161 0 0 1-1.116 2.762c-.586.811-1.364 1.458-2.333 1.939-.962.473-2.082.71-3.36.71Zm17.732 0c-1.563 0-2.934-.372-4.114-1.116-1.172-.744-2.089-1.785-2.751-3.123-.654-1.338-.98-2.901-.98-4.689 0-1.804.326-3.379.98-4.724.662-1.345 1.579-2.39 2.751-3.134 1.18-.744 2.551-1.116 4.114-1.116 1.564 0 2.931.372 4.104 1.116 1.18.744 2.097 1.789 2.75 3.134.662 1.345.992 2.92.992 4.724 0 1.788-.33 3.351-.992 4.689-.653 1.338-1.57 2.379-2.75 3.123-1.173.744-2.54 1.116-4.104 1.116Zm0-2.39c1.188 0 2.165-.304 2.931-.913.767-.609 1.334-1.409 1.703-2.401.368-.992.552-2.067.552-3.224 0-1.158-.184-2.236-.552-3.236-.369-.999-.936-1.807-1.703-2.423-.766-.617-1.743-.925-2.931-.925-1.187 0-2.164.308-2.93.925-.767.616-1.334 1.424-1.703 2.423-.368 1-.552 2.078-.552 3.236 0 1.157.184 2.232.552 3.224.369.992.936 1.792 1.703 2.401.766.609 1.743.913 2.93.913Zm14.568-8.387V440h-2.661v-17.315h2.571v2.705h.225a4.948 4.948 0 0 1 1.849-2.119c.827-.541 1.894-.812 3.201-.812 1.173 0 2.199.241 3.078.722.879.473 1.563 1.195 2.052 2.164.488.962.732 2.18.732 3.653V440h-2.66v-10.822c0-1.36-.353-2.42-1.06-3.179-.706-.767-1.676-1.15-2.908-1.15-.849 0-1.608.184-2.277.553-.662.368-1.184.905-1.567 1.612-.383.706-.575 1.563-.575 2.57Zm28.174-3.021-2.39.676a4.441 4.441 0 0 0-.665-1.161c-.286-.383-.677-.699-1.173-.947s-1.131-.372-1.905-.372c-1.059 0-1.942.244-2.649.733-.699.481-1.048 1.093-1.048 1.837 0 .662.24 1.184.721 1.567s1.233.703 2.255.958l2.57.632c1.548.375 2.702.95 3.461 1.724.759.767 1.138 1.755 1.138 2.965 0 .992-.285 1.879-.856 2.661-.564.781-1.353 1.397-2.368 1.848-1.014.451-2.194.677-3.539.677-1.766 0-3.228-.384-4.386-1.15-1.157-.767-1.89-1.886-2.198-3.359l2.525-.632c.241.932.696 1.631 1.364 2.097.677.466 1.56.699 2.65.699 1.24 0 2.224-.263 2.953-.789.737-.534 1.105-1.173 1.105-1.917 0-.601-.211-1.104-.631-1.51-.421-.413-1.068-.722-1.939-.924l-2.886-.677c-1.586-.376-2.751-.958-3.495-1.747-.736-.797-1.105-1.793-1.105-2.987 0-.977.275-1.842.823-2.593.556-.752 1.312-1.342 2.266-1.77.962-.428 2.052-.643 3.269-.643 1.714 0 3.059.376 4.036 1.128.984.751 1.683 1.743 2.097 2.976Zm15.232 6.358v-10.236h2.661V440h-2.661v-2.931h-.18c-.406.879-1.037 1.627-1.894 2.243-.857.609-1.939.913-3.247.913-1.082 0-2.044-.236-2.885-.71-.842-.481-1.503-1.202-1.984-2.164-.481-.97-.722-2.191-.722-3.664v-11.002h2.66v10.822c0 1.262.354 2.269 1.06 3.021.714.751 1.623 1.127 2.728 1.127.662 0 1.334-.169 2.018-.507.691-.338 1.27-.857 1.736-1.556.474-.699.71-1.589.71-2.671ZM927.65 440v-17.315h2.571v2.705h.225c.361-.924.943-1.642 1.747-2.153.804-.518 1.77-.778 2.897-.778 1.143 0 2.093.26 2.853.778.766.511 1.364 1.229 1.792 2.153h.18a5.048 5.048 0 0 1 1.996-2.13c.886-.534 1.95-.801 3.19-.801 1.548 0 2.814.485 3.799 1.455.984.962 1.477 2.461 1.477 4.497V440h-2.661v-11.589c0-1.277-.349-2.19-1.048-2.739-.699-.548-1.522-.823-2.469-.823-1.218 0-2.161.368-2.83 1.105-.668.729-1.003 1.653-1.003 2.773V440h-2.705v-11.859c0-.985-.32-1.777-.959-2.379-.638-.608-1.461-.913-2.468-.913a3.64 3.64 0 0 0-1.939.553 4.163 4.163 0 0 0-1.443 1.533c-.361.646-.541 1.394-.541 2.243V440h-2.661Zm34.851.361c-1.669 0-3.108-.369-4.318-1.105-1.202-.744-2.131-1.781-2.784-3.111-.647-1.338-.97-2.894-.97-4.667 0-1.774.323-3.337.97-4.69.653-1.36 1.563-2.42 2.728-3.179 1.172-.766 2.54-1.15 4.103-1.15.902 0 1.792.151 2.672.451a6.624 6.624 0 0 1 2.401 1.466c.721.669 1.296 1.555 1.725 2.66.428 1.105.642 2.465.642 4.081v1.127h-13.347v-2.299h10.642c0-.977-.196-1.849-.587-2.616a4.42 4.42 0 0 0-1.645-1.815c-.707-.443-1.541-.665-2.503-.665-1.06 0-1.977.263-2.751.789a5.194 5.194 0 0 0-1.769 2.029 5.956 5.956 0 0 0-.62 2.683v1.534c0 1.307.225 2.416.676 3.325.458.902 1.093 1.589 1.905 2.063.812.466 1.755.699 2.83.699.698 0 1.33-.098 1.893-.293a4.05 4.05 0 0 0 1.477-.902c.413-.406.733-.909.958-1.511l2.571.722a5.717 5.717 0 0 1-1.364 2.3c-.639.653-1.428 1.164-2.368 1.533-.939.36-1.995.541-3.167.541Zm22.805-23.448V440h-2.661v-23.087h2.661Zm12.132 23.448c-1.668 0-3.107-.369-4.317-1.105-1.203-.744-2.131-1.781-2.785-3.111-.646-1.338-.969-2.894-.969-4.667 0-1.774.323-3.337.969-4.69.654-1.36 1.563-2.42 2.728-3.179 1.173-.766 2.54-1.15 4.104-1.15.901 0 1.792.151 2.671.451a6.591 6.591 0 0 1 2.401 1.466c.72.669 1.3 1.555 1.73 2.66.42 1.105.64 2.465.64 4.081v1.127h-13.349v-2.299h10.639c0-.977-.19-1.849-.58-2.616a4.508 4.508 0 0 0-1.65-1.815c-.706-.443-1.54-.665-2.502-.665-1.06 0-1.977.263-2.751.789a5.189 5.189 0 0 0-1.77 2.029 5.97 5.97 0 0 0-.62 2.683v1.534c0 1.307.226 2.416.676 3.325.459.902 1.094 1.589 1.906 2.063.811.466 1.754.699 2.829.699a5.77 5.77 0 0 0 1.894-.293 4.038 4.038 0 0 0 1.478-.902 4.2 4.2 0 0 0 .96-1.511l2.57.722a5.696 5.696 0 0 1-1.37 2.3c-.64.653-1.42 1.164-2.36 1.533-.944.36-2 .541-3.172.541Zm23.482-13.798-2.39.676a4.273 4.273 0 0 0-.67-1.161c-.28-.383-.67-.699-1.17-.947-.49-.248-1.13-.372-1.9-.372-1.06 0-1.95.244-2.65.733-.7.481-1.05 1.093-1.05 1.837 0 .662.24 1.184.72 1.567s1.23.703 2.26.958l2.57.632c1.54.375 2.7.95 3.46 1.724.76.767 1.14 1.755 1.14 2.965 0 .992-.29 1.879-.86 2.661-.57.781-1.35 1.397-2.37 1.848-1.01.451-2.19.677-3.54.677-1.76 0-3.23-.384-4.38-1.15-1.16-.767-1.89-1.886-2.2-3.359l2.52-.632c.24.932.7 1.631 1.37 2.097.67.466 1.56.699 2.65.699 1.24 0 2.22-.263 2.95-.789.74-.534 1.1-1.173 1.1-1.917 0-.601-.21-1.104-.63-1.51-.42-.413-1.06-.722-1.94-.924l-2.88-.677c-1.59-.376-2.75-.958-3.5-1.747-.73-.797-1.1-1.793-1.1-2.987 0-.977.27-1.842.82-2.593.56-.752 1.31-1.342 2.27-1.77.96-.428 2.05-.643 3.27-.643 1.71 0 3.06.376 4.03 1.128.99.751 1.69 1.743 2.1 2.976Zm16.58 0-2.39.676a4.505 4.505 0 0 0-.66-1.161 3.312 3.312 0 0 0-1.17-.947c-.5-.248-1.13-.372-1.91-.372-1.06 0-1.94.244-2.65.733-.7.481-1.05 1.093-1.05 1.837 0 .662.25 1.184.73 1.567s1.23.703 2.25.958l2.57.632c1.55.375 2.7.95 3.46 1.724.76.767 1.14 1.755 1.14 2.965 0 .992-.29 1.879-.86 2.661-.56.781-1.35 1.397-2.36 1.848-1.02.451-2.2.677-3.54.677-1.77 0-3.23-.384-4.39-1.15-1.16-.767-1.89-1.886-2.2-3.359l2.53-.632c.24.932.69 1.631 1.36 2.097.68.466 1.56.699 2.65.699 1.24 0 2.23-.263 2.96-.789.73-.534 1.1-1.173 1.1-1.917 0-.601-.21-1.104-.63-1.51-.42-.413-1.07-.722-1.94-.924l-2.89-.677c-1.58-.376-2.75-.958-3.49-1.747-.74-.797-1.11-1.793-1.11-2.987 0-.977.28-1.842.83-2.593.55-.752 1.31-1.342 2.26-1.77.97-.428 2.05-.643 3.27-.643 1.72 0 3.06.376 4.04 1.128.98.751 1.68 1.743 2.09 2.976Zm20.29 13.798c-1.63 0-3.02-.384-4.2-1.15-1.17-.767-2.07-1.823-2.7-3.168-.63-1.345-.95-2.882-.95-4.61 0-1.759.32-3.311.97-4.656.65-1.353 1.56-2.409 2.73-3.168 1.17-.766 2.54-1.15 4.1-1.15 1.22 0 2.32.226 3.29.677a6.355 6.355 0 0 1 2.41 1.894c.62.811 1.01 1.758 1.16 2.84h-2.66c-.21-.789-.66-1.488-1.36-2.096-.69-.617-1.62-.925-2.79-.925-1.04 0-1.95.271-2.73.812-.77.533-1.38 1.289-1.82 2.266-.42.969-.64 2.108-.64 3.415 0 1.338.21 2.503.63 3.495.43.992 1.03 1.762 1.81 2.311.78.549 1.7.823 2.75.823.69 0 1.32-.12 1.88-.361.56-.24 1.04-.586 1.43-1.037.39-.451.67-.992.84-1.623h2.66a6.213 6.213 0 0 1-1.12 2.762c-.59.811-1.36 1.458-2.33 1.939-.97.473-2.08.71-3.36.71Zm17.96 0c-1.67 0-3.11-.369-4.32-1.105-1.2-.744-2.13-1.781-2.79-3.111-.64-1.338-.97-2.894-.97-4.667 0-1.774.33-3.337.97-4.69.66-1.36 1.57-2.42 2.73-3.179 1.17-.766 2.54-1.15 4.1-1.15.91 0 1.8.151 2.68.451.88.301 1.68.789 2.4 1.466.72.669 1.29 1.555 1.72 2.66.43 1.105.64 2.465.64 4.081v1.127h-13.34v-2.299h10.64c0-.977-.2-1.849-.59-2.616a4.416 4.416 0 0 0-1.64-1.815c-.71-.443-1.54-.665-2.51-.665-1.05 0-1.97.263-2.75.789a5.303 5.303 0 0 0-1.77 2.029 6.01 6.01 0 0 0-.62 2.683v1.534c0 1.307.23 2.416.68 3.325.46.902 1.09 1.589 1.91 2.063.81.466 1.75.699 2.83.699.69 0 1.33-.098 1.89-.293a4.14 4.14 0 0 0 1.48-.902c.41-.406.73-.909.95-1.511l2.57.722a5.674 5.674 0 0 1-1.36 2.3c-.64.653-1.43 1.164-2.37 1.533-.94.36-1.99.541-3.16.541Zm13.87-23.448V440h-2.66v-23.087h2.66Zm7.54 0V440h-2.67v-23.087h2.67Zm15.78 16.008v-10.236h2.66V440h-2.66v-2.931h-.18c-.41.879-1.04 1.627-1.89 2.243-.86.609-1.94.913-3.25.913-1.08 0-2.04-.236-2.89-.71-.84-.481-1.5-1.202-1.98-2.164-.48-.97-.72-2.191-.72-3.664v-11.002h2.66v10.822c0 1.262.35 2.269 1.06 3.021.71.751 1.62 1.127 2.73 1.127.66 0 1.33-.169 2.01-.507.7-.338 1.27-.857 1.74-1.556.47-.699.71-1.589.71-2.671Zm10.19-16.008V440h-2.66v-23.087h2.66Zm9.97 23.493c-1.1 0-2.09-.207-2.99-.62a5.178 5.178 0 0 1-2.13-1.815c-.52-.797-.79-1.759-.79-2.886 0-.992.2-1.796.59-2.412.39-.624.91-1.113 1.57-1.466a8.156 8.156 0 0 1 2.16-.789c.8-.18 1.6-.323 2.4-.428 1.06-.136 1.91-.237 2.56-.305.66-.075 1.14-.199 1.45-.372.3-.173.46-.473.46-.902v-.09c0-1.112-.31-1.976-.92-2.592-.6-.617-1.51-.925-2.73-.925-1.27 0-2.27.278-2.99.834-.72.556-1.23 1.15-1.52 1.781l-2.53-.901c.45-1.053 1.05-1.872 1.8-2.458a6.796 6.796 0 0 1 2.48-1.24c.91-.24 1.79-.361 2.66-.361.56 0 1.2.068 1.92.203.73.128 1.43.395 2.11.801.68.405 1.25 1.018 1.7 1.837.45.819.68 1.917.68 3.292V440h-2.66v-2.345h-.14c-.18.376-.48.778-.9 1.206-.42.429-.98.793-1.68 1.094-.7.301-1.55.451-2.56.451Zm.41-2.39c1.05 0 1.94-.207 2.66-.62.73-.413 1.28-.947 1.64-1.601.38-.654.57-1.341.57-2.063v-2.435c-.12.136-.36.26-.75.372-.37.106-.81.199-1.3.282-.49.075-.97.143-1.44.203-.45.053-.83.098-1.11.135-.69.091-1.34.237-1.94.44-.59.195-1.08.492-1.44.891-.36.39-.54.924-.54 1.6 0 .925.34 1.624 1.02 2.097.69.466 1.57.699 2.63.699Zm12.38 1.984v-17.315h2.57v2.615h.18c.32-.857.89-1.552 1.72-2.085.82-.534 1.76-.801 2.79-.801.2 0 .44.004.74.012.29.007.51.018.66.033v2.706c-.09-.023-.3-.057-.62-.102a6.106 6.106 0 0 0-1-.079c-.84 0-1.6.177-2.26.53-.65.346-1.17.827-1.55 1.443-.38.609-.57 1.304-.57 2.086V440h-2.66Zm27.28.361c-1.44 0-2.72-.365-3.82-1.094-1.1-.736-1.97-1.773-2.59-3.111-.63-1.345-.94-2.935-.94-4.768 0-1.819.31-3.397.94-4.735.62-1.338 1.49-2.371 2.6-3.1 1.11-.729 2.4-1.094 3.86-1.094 1.12 0 2.01.188 2.67.564.66.368 1.16.789 1.51 1.263.35.466.63.849.82 1.149h.23v-8.522h2.66V440h-2.57v-2.66h-.32c-.19.315-.47.714-.83 1.195-.36.473-.88.898-1.55 1.273-.67.369-1.56.553-2.67.553Zm.36-2.39c1.07 0 1.97-.278 2.71-.834.73-.564 1.29-1.342 1.68-2.334.38-.999.57-2.153.57-3.461 0-1.292-.19-2.423-.56-3.393-.38-.977-.93-1.736-1.67-2.277-.74-.548-1.65-.823-2.73-.823-1.13 0-2.06.29-2.82.868-.74.571-1.3 1.349-1.68 2.334-.36.977-.55 2.074-.55 3.291 0 1.233.19 2.353.57 3.36.38.999.94 1.796 1.69 2.39.75.586 1.68.879 2.79.879Zm17.91 2.435c-1.09 0-2.09-.207-2.98-.62-.9-.421-1.61-1.026-2.13-1.815-.53-.797-.79-1.759-.79-2.886 0-.992.19-1.796.58-2.412.39-.624.92-1.113 1.57-1.466a8.226 8.226 0 0 1 2.17-.789c.79-.18 1.59-.323 2.4-.428 1.05-.136 1.9-.237 2.56-.305.66-.075 1.14-.199 1.44-.372.31-.173.46-.473.46-.902v-.09c0-1.112-.3-1.976-.91-2.592-.6-.617-1.52-.925-2.74-.925-1.27 0-2.27.278-2.99.834-.72.556-1.23 1.15-1.52 1.781l-2.53-.901c.45-1.053 1.06-1.872 1.81-2.458a6.72 6.72 0 0 1 2.48-1.24c.9-.24 1.79-.361 2.66-.361.55 0 1.19.068 1.91.203a6.09 6.09 0 0 1 2.11.801c.69.405 1.25 1.018 1.7 1.837.46.819.68 1.917.68 3.292V440h-2.66v-2.345h-.13c-.19.376-.49.778-.91 1.206-.42.429-.98.793-1.68 1.094-.7.301-1.55.451-2.56.451Zm.41-2.39c1.05 0 1.94-.207 2.66-.62.73-.413 1.28-.947 1.65-1.601.37-.654.56-1.341.56-2.063v-2.435c-.11.136-.36.26-.74.372-.38.106-.82.199-1.31.282-.49.075-.97.143-1.43.203-.46.053-.83.098-1.12.135-.69.091-1.34.237-1.94.44-.59.195-1.07.492-1.44.891-.36.39-.54.924-.54 1.6 0 .925.34 1.624 1.02 2.097.7.466 1.57.699 2.63.699Zm19.92-15.331v2.254h-8.98v-2.254h8.98Zm-6.36-4.149h2.66v16.504c0 .751.11 1.315.33 1.691.22.368.51.616.85.744.36.12.73.18 1.12.18.29 0 .53-.015.72-.045l.45-.09.54 2.39c-.18.067-.43.135-.75.203-.33.075-.74.112-1.23.112-.75 0-1.49-.161-2.21-.484a4.391 4.391 0 0 1-1.78-1.477c-.47-.661-.7-1.496-.7-2.503v-17.225Zm15.45 21.87c-1.09 0-2.09-.207-2.98-.62-.9-.421-1.61-1.026-2.13-1.815-.53-.797-.79-1.759-.79-2.886 0-.992.19-1.796.58-2.412.39-.624.92-1.113 1.57-1.466a8.286 8.286 0 0 1 2.16-.789c.8-.18 1.6-.323 2.41-.428 1.05-.136 1.9-.237 2.55-.305.67-.075 1.15-.199 1.45-.372.31-.173.46-.473.46-.902v-.09c0-1.112-.3-1.976-.91-2.592-.6-.617-1.52-.925-2.74-.925-1.27 0-2.27.278-2.99.834-.72.556-1.23 1.15-1.52 1.781l-2.53-.901c.45-1.053 1.06-1.872 1.81-2.458a6.72 6.72 0 0 1 2.48-1.24c.9-.24 1.79-.361 2.66-.361.55 0 1.19.068 1.91.203a6.09 6.09 0 0 1 2.11.801c.69.405 1.25 1.018 1.7 1.837.45.819.68 1.917.68 3.292V440h-2.66v-2.345h-.14c-.18.376-.48.778-.9 1.206-.42.429-.98.793-1.68 1.094-.7.301-1.55.451-2.56.451Zm.41-2.39c1.05 0 1.94-.207 2.66-.62.73-.413 1.28-.947 1.65-1.601.37-.654.56-1.341.56-2.063v-2.435c-.11.136-.36.26-.74.372-.38.106-.82.199-1.31.282-.49.075-.97.143-1.43.203-.46.053-.83.098-1.12.135-.69.091-1.34.237-1.94.44-.59.195-1.07.492-1.44.891-.36.39-.54.924-.54 1.6 0 .925.34 1.624 1.02 2.097.69.466 1.57.699 2.63.699Zm14.33 2.164c-.56 0-1.04-.199-1.44-.597a1.98 1.98 0 0 1-.59-1.432c0-.556.2-1.033.59-1.431.4-.399.88-.598 1.44-.598.55 0 1.03.199 1.43.598.4.398.59.875.59 1.431 0 .368-.09.707-.28 1.015-.18.308-.42.556-.73.744-.3.18-.64.27-1.01.27Z"/><circle cx="340.724" cy="616.901" r="17.988" fill="#F1F5F9"/><rect width="713.193" height="42.326" x="398.922" y="595.738" fill="#F1F5F9" rx="8.465"/><path fill="#F1F5F9" d="M1107.88 668.75H322.735v2.117h785.145v-2.117Z" mask="url(#path-17-inside-3_652_1552)"/><circle cx="340.724" cy="768.217" r="17.988" fill="#F1F5F9"/><rect width="713.193" height="42.326" x="398.922" y="747.053" fill="#F1F5F9" rx="8.465"/><path fill="#F1F5F9" d="M1107.88 820.066H322.735v2.116h785.145v-2.116Z" mask="url(#path-21-inside-4_652_1552)"/><circle cx="340.724" cy="919.532" r="17.988" fill="#F1F5F9"/><rect width="713.193" height="42.326" x="398.922" y="898.369" fill="#F1F5F9" rx="8.465"/><path fill="#E2E8F0" d="M296.282 267.712c0-9.935 8.053-17.989 17.988-17.989h887.79l-2.12 2.116H314.27c-8.766 0-15.872 7.107-15.872 15.873h-2.116ZM1201 956.567H297.34 1201Zm-904.718 0V267.712c0-9.935 8.053-17.989 17.988-17.989v2.116c-8.766 0-15.872 7.107-15.872 15.873v688.855h-2.116Zm905.778-706.844v706.844h-2.12V251.839l2.12-2.116Z" mask="url(#path-10-inside-1_652_1552)"/></g></g></g></g><defs><clipPath id="a"><path fill="#fff" d="M0 0h1201v952.335H0z"/></clipPath><clipPath id="c"><path fill="#fff" d="M85.71 120.629c0-14.026 11.37-25.396 25.396-25.396H1201v857.102H85.71V120.629Z"/></clipPath><clipPath id="d"><path fill="#fff" d="M0 0h1115.29v780.915H0z" transform="translate(85.71 171.42)"/></clipPath><filter id="b" width="1157.62" height="899.427" x="64.547" y="95.233" color-interpolation-filters="sRGB" filterUnits="userSpaceOnUse"><feFlood flood-opacity="0" result="BackgroundImageFix"/><feColorMatrix in="SourceAlpha" result="hardAlpha" values="0 0 0 0 0 0 0 0 0 0 0 0 0 0 0 0 0 0 127 0"/><feMorphology in="SourceAlpha" radius="5.291" result="effect1_dropShadow_652_1552"/><feOffset dy="10.582"/><feGaussianBlur stdDeviation="5.291"/><feColorMatrix values="0 0 0 0 0 0 0 0 0 0 0 0 0 0 0 0 0 0 0.04 0"/><feBlend in2="BackgroundImageFix" result="effect1_dropShadow_652_1552"/><feColorMatrix in="SourceAlpha" result="hardAlpha" values="0 0 0 0 0 0 0 0 0 0 0 0 0 0 0 0 0 0 127 0"/><feMorphology in="SourceAlpha" radius="5.291" result="effect2_dropShadow_652_1552"/><feOffset dy="21.163"/><feGaussianBlur stdDeviation="13.227"/><feColorMatrix values="0 0 0 0 0 0 0 0 0 0 0 0 0 0 0 0 0 0 0.1 0"/><feBlend in2="effect1_dropShadow_652_1552" result="effect2_dropShadow_652_1552"/><feBlend in="SourceGraphic" in2="effect2_dropShadow_652_1552" result="shape"/></filter></defs></svg>