<svg width="1201" height="953" viewBox="0 0 1201 953" fill="none" xmlns="http://www.w3.org/2000/svg">
<g clip-path="url(#clip0_652_1552)">
<rect width="1201" height="952.335" fill="#F1F5F9"/>
<g filter="url(#filter0_dd_652_1552)">
<g clip-path="url(#clip1_652_1552)">
<path d="M85.71 120.629C85.71 106.603 97.08 95.2334 111.106 95.2334H1201V952.335H85.71V120.629Z" fill="white"/>
<circle cx="123.803" cy="133.327" r="12.6978" fill="#F1F5F9"/>
<circle cx="166.129" cy="133.327" r="12.6978" fill="#F1F5F9"/>
<circle cx="208.455" cy="133.327" r="12.6978" fill="#F1F5F9"/>
<path fill-rule="evenodd" clip-rule="evenodd" d="M302.904 121.093C303.505 121.703 303.496 122.685 302.886 123.286L294.216 131.808H314.205C315.062 131.808 315.756 132.502 315.756 133.359C315.756 134.216 315.062 134.91 314.205 134.91H294.231L302.882 143.364C303.495 143.963 303.506 144.945 302.908 145.558C302.309 146.17 301.327 146.181 300.715 145.583L289.341 134.468C289.043 134.177 288.875 133.778 288.875 133.361C288.874 132.945 289.041 132.545 289.338 132.253L300.711 121.074C301.322 120.473 302.304 120.482 302.904 121.093Z" fill="#94A3B8"/>
<path fill-rule="evenodd" clip-rule="evenodd" d="M362.469 121.093C361.869 121.703 361.877 122.685 362.488 123.286L371.158 131.808H351.168C350.312 131.808 349.617 132.502 349.617 133.359C349.617 134.216 350.312 134.91 351.168 134.91H371.142L362.491 143.364C361.879 143.963 361.867 144.945 362.466 145.558C363.065 146.17 364.046 146.181 364.659 145.583L376.032 134.468C376.33 134.177 376.498 133.778 376.499 133.361C376.5 132.945 376.333 132.545 376.035 132.253L364.662 121.074C364.051 120.473 363.069 120.482 362.469 121.093Z" fill="#E2E8F0"/>
<path d="M413.29 133.327C413.29 127.932 417.663 123.559 423.057 123.559C426.002 123.559 428.643 124.862 430.435 126.925L425.987 131.373H436.732V120.629L432.511 124.85C430.187 122.26 426.813 120.629 423.057 120.629C416.044 120.629 410.359 126.314 410.359 133.327C410.359 140.34 416.044 146.025 423.057 146.025C428.094 146.025 432.442 143.092 434.494 138.848C434.847 138.12 434.542 137.244 433.813 136.891C433.085 136.539 432.209 136.844 431.856 137.573C430.275 140.843 426.927 143.094 423.057 143.094C417.663 143.094 413.29 138.721 413.29 133.327Z" fill="#94A3B8"/>
<path d="M647.587 133.327C647.587 116.963 660.852 103.698 677.216 103.698H1201V162.955H677.216C660.852 162.955 647.587 149.69 647.587 133.327V133.327Z" fill="#F1F5F9"/>
<path fill-rule="evenodd" clip-rule="evenodd" d="M681.045 122.745C678.262 122.745 676.006 125.001 676.006 127.784V129.799H674.998C673.885 129.799 672.983 130.702 672.983 131.815V141.893C672.983 143.006 673.885 143.908 674.998 143.908H687.092C688.205 143.908 689.107 143.006 689.107 141.893V131.815C689.107 130.702 688.205 129.799 687.092 129.799H686.084V127.784C686.084 125.001 683.828 122.745 681.045 122.745ZM684.068 129.799V127.784C684.068 126.114 682.715 124.761 681.045 124.761C679.375 124.761 678.022 126.114 678.022 127.784V129.799H684.068Z" fill="#94A3B8"/>
<g clip-path="url(#clip2_652_1552)">
<circle cx="340.724" cy="302.026" r="17.9885" fill="#34D399"/>
<path d="M401.459 313.526V290.439H415.933V293.437H404.942V300.472H415.178V303.459H404.942V310.527H416.068V313.526H401.459ZM428.556 296.21V298.916H418.771V296.21H428.556ZM421.454 313.526V294.204C421.454 293.122 421.691 292.224 422.164 291.51C422.638 290.788 423.265 290.251 424.047 289.898C424.828 289.537 425.678 289.357 426.595 289.357C427.271 289.357 427.85 289.413 428.331 289.526C428.812 289.631 429.169 289.729 429.401 289.819L428.612 292.547C428.455 292.502 428.252 292.449 428.004 292.389C427.756 292.321 427.455 292.287 427.102 292.287C426.283 292.287 425.696 292.49 425.343 292.896C424.998 293.302 424.825 293.888 424.825 294.655V313.526H421.454ZM440.274 296.21V298.916H430.489V296.21H440.274ZM433.172 313.526V294.204C433.172 293.122 433.409 292.224 433.882 291.51C434.356 290.788 434.983 290.251 435.765 289.898C436.547 289.537 437.396 289.357 438.313 289.357C438.989 289.357 439.568 289.413 440.049 289.526C440.53 289.631 440.887 289.729 441.12 289.819L440.331 292.547C440.173 292.502 439.97 292.449 439.722 292.389C439.474 292.321 439.173 292.287 438.82 292.287C438.001 292.287 437.415 292.49 437.061 292.896C436.716 293.302 436.543 293.888 436.543 294.655V313.526H433.172ZM443.752 313.526V296.21H447.122V313.526H443.752ZM445.454 293.539C444.868 293.539 444.364 293.343 443.944 292.953C443.53 292.554 443.324 292.081 443.324 291.532C443.324 290.976 443.53 290.503 443.944 290.112C444.364 289.714 444.868 289.514 445.454 289.514C446.04 289.514 446.54 289.714 446.953 290.112C447.374 290.503 447.585 290.976 447.585 291.532C447.585 292.081 447.374 292.554 446.953 292.953C446.54 293.343 446.04 293.539 445.454 293.539ZM458.951 313.875C457.275 313.875 455.832 313.496 454.622 312.737C453.419 311.97 452.495 310.914 451.849 309.569C451.202 308.224 450.879 306.683 450.879 304.947C450.879 303.188 451.21 301.636 451.871 300.291C452.533 298.938 453.464 297.883 454.667 297.124C455.869 296.365 457.286 295.985 458.917 295.985C460.232 295.985 461.404 296.229 462.434 296.718C463.463 297.199 464.294 297.875 464.925 298.747C465.564 299.619 465.944 300.637 466.064 301.802H462.783C462.603 300.99 462.19 300.291 461.543 299.705C460.905 299.119 460.048 298.826 458.973 298.826C458.034 298.826 457.211 299.074 456.504 299.57C455.805 300.058 455.261 300.757 454.87 301.667C454.479 302.568 454.284 303.636 454.284 304.868C454.284 306.131 454.475 307.22 454.859 308.137C455.242 309.054 455.783 309.764 456.482 310.268C457.188 310.771 458.019 311.023 458.973 311.023C459.612 311.023 460.191 310.907 460.709 310.674C461.235 310.433 461.675 310.091 462.028 309.648C462.389 309.204 462.641 308.671 462.783 308.047H466.064C465.944 309.167 465.579 310.166 464.97 311.046C464.362 311.925 463.546 312.616 462.524 313.12C461.51 313.623 460.318 313.875 458.951 313.875ZM469.668 313.526V296.21H473.039V313.526H469.668ZM471.37 293.539C470.784 293.539 470.281 293.343 469.86 292.953C469.447 292.554 469.24 292.081 469.24 291.532C469.24 290.976 469.447 290.503 469.86 290.112C470.281 289.714 470.784 289.514 471.37 289.514C471.957 289.514 472.456 289.714 472.87 290.112C473.291 290.503 473.501 290.976 473.501 291.532C473.501 292.081 473.291 292.554 472.87 292.953C472.456 293.343 471.957 293.539 471.37 293.539ZM485.036 313.875C483.33 313.875 481.861 313.511 480.628 312.782C479.403 312.045 478.456 311.012 477.788 309.682C477.126 308.344 476.796 306.777 476.796 304.981C476.796 303.207 477.126 301.644 477.788 300.291C478.456 298.938 479.388 297.883 480.583 297.124C481.786 296.365 483.191 295.985 484.799 295.985C485.776 295.985 486.723 296.147 487.64 296.47C488.557 296.793 489.38 297.3 490.109 297.992C490.838 298.683 491.413 299.581 491.834 300.686C492.254 301.783 492.465 303.117 492.465 304.688V305.883H478.701V303.357H489.162C489.162 302.471 488.982 301.685 488.621 301.001C488.26 300.31 487.753 299.765 487.099 299.367C486.453 298.969 485.694 298.769 484.822 298.769C483.875 298.769 483.048 299.002 482.342 299.468C481.643 299.927 481.102 300.528 480.719 301.272C480.343 302.008 480.155 302.809 480.155 303.673V305.646C480.155 306.803 480.358 307.788 480.764 308.599C481.177 309.411 481.752 310.031 482.488 310.459C483.225 310.88 484.085 311.091 485.07 311.091C485.709 311.091 486.291 311.001 486.817 310.82C487.343 310.632 487.798 310.354 488.181 309.986C488.564 309.618 488.858 309.163 489.06 308.622L492.251 309.197C491.995 310.136 491.537 310.959 490.875 311.666C490.222 312.365 489.399 312.909 488.407 313.3C487.422 313.683 486.299 313.875 485.036 313.875ZM499.575 303.245V313.526H496.205V296.21H499.44V299.029H499.654C500.053 298.112 500.676 297.375 501.526 296.819C502.382 296.263 503.461 295.985 504.761 295.985C505.941 295.985 506.974 296.233 507.861 296.729C508.748 297.218 509.435 297.946 509.924 298.916C510.412 299.885 510.657 301.084 510.657 302.512V313.526H507.286V302.918C507.286 301.663 506.959 300.682 506.305 299.976C505.651 299.262 504.753 298.905 503.611 298.905C502.829 298.905 502.134 299.074 501.526 299.412C500.924 299.75 500.447 300.246 500.094 300.9C499.748 301.546 499.575 302.328 499.575 303.245ZM523.26 296.21V298.916H513.802V296.21H523.26ZM516.338 292.062H519.709V308.442C519.709 309.095 519.806 309.588 520.002 309.918C520.197 310.241 520.449 310.463 520.757 310.583C521.073 310.696 521.415 310.753 521.783 310.753C522.053 310.753 522.29 310.734 522.493 310.696C522.696 310.659 522.854 310.628 522.967 310.606L523.575 313.39C523.38 313.466 523.102 313.541 522.741 313.616C522.38 313.698 521.929 313.744 521.388 313.751C520.502 313.766 519.675 313.608 518.908 313.278C518.142 312.947 517.522 312.436 517.048 311.745C516.575 311.053 516.338 310.185 516.338 309.14V292.062ZM530.731 290.439V313.526H527.36V290.439H530.731ZM537.396 320.019C536.892 320.019 536.434 319.977 536.021 319.895C535.607 319.82 535.299 319.737 535.096 319.647L535.908 316.885C536.524 317.05 537.073 317.122 537.554 317.099C538.035 317.077 538.459 316.896 538.828 316.558C539.203 316.22 539.534 315.667 539.82 314.901L540.237 313.751L533.901 296.21H537.509L541.894 309.648H542.074L546.459 296.21H550.078L542.942 315.837C542.611 316.738 542.191 317.501 541.68 318.125C541.169 318.756 540.56 319.23 539.853 319.545C539.147 319.861 538.328 320.019 537.396 320.019ZM569.109 313.875C567.403 313.875 565.934 313.511 564.702 312.782C563.477 312.045 562.53 311.012 561.861 309.682C561.2 308.344 560.869 306.777 560.869 304.981C560.869 303.207 561.2 301.644 561.861 300.291C562.53 298.938 563.462 297.883 564.657 297.124C565.859 296.365 567.264 295.985 568.873 295.985C569.85 295.985 570.797 296.147 571.713 296.47C572.63 296.793 573.453 297.3 574.182 297.992C574.911 298.683 575.486 299.581 575.907 300.686C576.328 301.783 576.538 303.117 576.538 304.688V305.883H562.774V303.357H573.235C573.235 302.471 573.055 301.685 572.694 301.001C572.333 300.31 571.826 299.765 571.172 299.367C570.526 298.969 569.767 298.769 568.895 298.769C567.948 298.769 567.122 299.002 566.415 299.468C565.716 299.927 565.175 300.528 564.792 301.272C564.416 302.008 564.228 302.809 564.228 303.673V305.646C564.228 306.803 564.431 307.788 564.837 308.599C565.25 309.411 565.825 310.031 566.562 310.459C567.298 310.88 568.159 311.091 569.143 311.091C569.782 311.091 570.364 311.001 570.89 310.82C571.417 310.632 571.871 310.354 572.255 309.986C572.638 309.618 572.931 309.163 573.134 308.622L576.324 309.197C576.069 310.136 575.61 310.959 574.949 311.666C574.295 312.365 573.472 312.909 572.48 313.3C571.495 313.683 570.372 313.875 569.109 313.875ZM583.649 303.245V313.526H580.278V296.21H583.513V299.029H583.728C584.126 298.112 584.75 297.375 585.599 296.819C586.456 296.263 587.534 295.985 588.834 295.985C590.014 295.985 591.047 296.233 591.934 296.729C592.821 297.218 593.509 297.946 593.997 298.916C594.486 299.885 594.73 301.084 594.73 302.512V313.526H591.359V302.918C591.359 301.663 591.032 300.682 590.379 299.976C589.725 299.262 588.827 298.905 587.684 298.905C586.903 298.905 586.208 299.074 585.599 299.412C584.998 299.75 584.52 300.246 584.167 300.9C583.821 301.546 583.649 302.328 583.649 303.245ZM606.544 313.875C604.868 313.875 603.425 313.496 602.215 312.737C601.013 311.97 600.088 310.914 599.442 309.569C598.796 308.224 598.472 306.683 598.472 304.947C598.472 303.188 598.803 301.636 599.464 300.291C600.126 298.938 601.058 297.883 602.26 297.124C603.463 296.365 604.879 295.985 606.51 295.985C607.825 295.985 608.998 296.229 610.027 296.718C611.057 297.199 611.887 297.875 612.519 298.747C613.157 299.619 613.537 300.637 613.657 301.802H610.377C610.196 300.99 609.783 300.291 609.137 299.705C608.498 299.119 607.641 298.826 606.566 298.826C605.627 298.826 604.804 299.074 604.098 299.57C603.399 300.058 602.854 300.757 602.463 301.667C602.072 302.568 601.877 303.636 601.877 304.868C601.877 306.131 602.069 307.22 602.452 308.137C602.835 309.054 603.376 309.764 604.075 310.268C604.782 310.771 605.612 311.023 606.566 311.023C607.205 311.023 607.784 310.907 608.302 310.674C608.829 310.433 609.268 310.091 609.621 309.648C609.982 309.204 610.234 308.671 610.377 308.047H613.657C613.537 309.167 613.172 310.166 612.564 311.046C611.955 311.925 611.139 312.616 610.117 313.12C609.103 313.623 607.912 313.875 606.544 313.875ZM624.555 313.875C622.932 313.875 621.515 313.503 620.305 312.759C619.095 312.015 618.156 310.974 617.487 309.636C616.818 308.299 616.484 306.736 616.484 304.947C616.484 303.151 616.818 301.58 617.487 300.235C618.156 298.89 619.095 297.845 620.305 297.101C621.515 296.357 622.932 295.985 624.555 295.985C626.178 295.985 627.595 296.357 628.805 297.101C630.015 297.845 630.954 298.89 631.623 300.235C632.292 301.58 632.627 303.151 632.627 304.947C632.627 306.736 632.292 308.299 631.623 309.636C630.954 310.974 630.015 312.015 628.805 312.759C627.595 313.503 626.178 313.875 624.555 313.875ZM624.566 311.046C625.619 311.046 626.49 310.768 627.182 310.211C627.873 309.655 628.384 308.915 628.715 307.991C629.053 307.066 629.222 306.048 629.222 304.936C629.222 303.831 629.053 302.816 628.715 301.892C628.384 300.96 627.873 300.212 627.182 299.649C626.49 299.085 625.619 298.803 624.566 298.803C623.507 298.803 622.627 299.085 621.929 299.649C621.237 300.212 620.722 300.96 620.384 301.892C620.054 302.816 619.888 303.831 619.888 304.936C619.888 306.048 620.054 307.066 620.384 307.991C620.722 308.915 621.237 309.655 621.929 310.211C622.627 310.768 623.507 311.046 624.566 311.046ZM642.871 313.864C641.473 313.864 640.225 313.507 639.128 312.793C638.038 312.071 637.182 311.046 636.558 309.715C635.942 308.378 635.634 306.773 635.634 304.902C635.634 303.031 635.945 301.43 636.569 300.1C637.201 298.769 638.065 297.751 639.162 297.045C640.259 296.338 641.503 295.985 642.893 295.985C643.968 295.985 644.832 296.165 645.486 296.526C646.147 296.879 646.659 297.293 647.019 297.766C647.387 298.24 647.673 298.657 647.876 299.017H648.079V290.439H651.449V313.526H648.158V310.831H647.876C647.673 311.2 647.38 311.621 646.997 312.094C646.621 312.567 646.102 312.981 645.441 313.334C644.78 313.687 643.923 313.864 642.871 313.864ZM643.615 310.989C644.584 310.989 645.403 310.734 646.072 310.223C646.749 309.704 647.26 308.986 647.605 308.07C647.959 307.153 648.135 306.086 648.135 304.868C648.135 303.666 647.962 302.613 647.617 301.712C647.271 300.81 646.764 300.107 646.095 299.604C645.426 299.1 644.599 298.848 643.615 298.848C642.6 298.848 641.755 299.111 641.078 299.637C640.402 300.163 639.891 300.881 639.545 301.791C639.207 302.7 639.038 303.726 639.038 304.868C639.038 306.025 639.211 307.066 639.557 307.991C639.902 308.915 640.413 309.648 641.09 310.189C641.774 310.722 642.615 310.989 643.615 310.989ZM663.723 313.875C662.017 313.875 660.548 313.511 659.315 312.782C658.09 312.045 657.143 311.012 656.474 309.682C655.813 308.344 655.482 306.777 655.482 304.981C655.482 303.207 655.813 301.644 656.474 300.291C657.143 298.938 658.075 297.883 659.27 297.124C660.473 296.365 661.878 295.985 663.486 295.985C664.463 295.985 665.41 296.147 666.327 296.47C667.244 296.793 668.067 297.3 668.796 297.992C669.525 298.683 670.1 299.581 670.52 300.686C670.941 301.783 671.152 303.117 671.152 304.688V305.883H657.387V303.357H667.849C667.849 302.471 667.668 301.685 667.308 301.001C666.947 300.31 666.44 299.765 665.786 299.367C665.139 298.969 664.38 298.769 663.509 298.769C662.562 298.769 661.735 299.002 661.029 299.468C660.33 299.927 659.789 300.528 659.405 301.272C659.03 302.008 658.842 302.809 658.842 303.673V305.646C658.842 306.803 659.045 307.788 659.45 308.599C659.864 309.411 660.439 310.031 661.175 310.459C661.912 310.88 662.772 311.091 663.757 311.091C664.395 311.091 664.978 311.001 665.504 310.82C666.03 310.632 666.485 310.354 666.868 309.986C667.251 309.618 667.544 309.163 667.747 308.622L670.938 309.197C670.682 310.136 670.224 310.959 669.562 311.666C668.908 312.365 668.085 312.909 667.093 313.3C666.109 313.683 664.985 313.875 663.723 313.875ZM683.293 313.526V296.21H686.663V313.526H683.293ZM684.995 293.539C684.409 293.539 683.905 293.343 683.484 292.953C683.071 292.554 682.864 292.081 682.864 291.532C682.864 290.976 683.071 290.503 683.484 290.112C683.905 289.714 684.409 289.514 684.995 289.514C685.581 289.514 686.081 289.714 686.494 290.112C686.915 290.503 687.125 290.976 687.125 291.532C687.125 292.081 686.915 292.554 686.494 292.953C686.081 293.343 685.581 293.539 684.995 293.539ZM691.198 313.526V296.21H694.433V299.029H694.647C695.008 298.074 695.598 297.33 696.417 296.797C697.236 296.256 698.217 295.985 699.359 295.985C700.517 295.985 701.486 296.256 702.268 296.797C703.057 297.338 703.639 298.082 704.015 299.029H704.195C704.609 298.104 705.266 297.368 706.168 296.819C707.07 296.263 708.145 295.985 709.392 295.985C710.963 295.985 712.244 296.477 713.236 297.462C714.236 298.446 714.736 299.931 714.736 301.915V313.526H711.365V302.23C711.365 301.058 711.046 300.209 710.407 299.683C709.768 299.156 709.005 298.893 708.118 298.893C707.021 298.893 706.168 299.232 705.559 299.908C704.951 300.577 704.646 301.437 704.646 302.489V313.526H701.287V302.016C701.287 301.077 700.994 300.321 700.408 299.75C699.822 299.179 699.059 298.893 698.119 298.893C697.481 298.893 696.891 299.062 696.349 299.401C695.816 299.731 695.384 300.194 695.053 300.787C694.73 301.381 694.568 302.069 694.568 302.85V313.526H691.198ZM724.292 313.909C723.195 313.909 722.203 313.706 721.316 313.3C720.429 312.887 719.727 312.289 719.208 311.508C718.697 310.726 718.442 309.768 718.442 308.633C718.442 307.656 718.629 306.852 719.005 306.221C719.381 305.59 719.888 305.09 720.527 304.721C721.166 304.353 721.88 304.075 722.669 303.887C723.458 303.699 724.262 303.557 725.081 303.459C726.118 303.339 726.96 303.241 727.606 303.166C728.253 303.083 728.722 302.952 729.016 302.771C729.309 302.591 729.455 302.298 729.455 301.892V301.813C729.455 300.829 729.177 300.066 728.621 299.525C728.072 298.984 727.253 298.713 726.163 298.713C725.029 298.713 724.134 298.965 723.481 299.468C722.834 299.964 722.387 300.517 722.139 301.125L718.971 300.404C719.347 299.352 719.896 298.503 720.617 297.856C721.346 297.202 722.184 296.729 723.131 296.436C724.078 296.135 725.074 295.985 726.118 295.985C726.81 295.985 727.543 296.068 728.317 296.233C729.098 296.391 729.827 296.684 730.504 297.112C731.187 297.541 731.747 298.153 732.183 298.95C732.619 299.739 732.837 300.765 732.837 302.027V313.526H729.545V311.158H729.41C729.192 311.594 728.865 312.023 728.429 312.443C727.993 312.864 727.434 313.214 726.75 313.492C726.066 313.77 725.247 313.909 724.292 313.909ZM725.025 311.203C725.957 311.203 726.753 311.019 727.415 310.651C728.084 310.283 728.591 309.802 728.937 309.208C729.29 308.607 729.466 307.964 729.466 307.28V305.048C729.346 305.169 729.113 305.281 728.768 305.387C728.429 305.484 728.042 305.571 727.606 305.646C727.171 305.714 726.746 305.777 726.333 305.838C725.919 305.89 725.574 305.935 725.295 305.973C724.642 306.055 724.044 306.194 723.503 306.39C722.969 306.585 722.541 306.867 722.218 307.235C721.902 307.596 721.745 308.077 721.745 308.678C721.745 309.512 722.053 310.144 722.669 310.572C723.285 310.993 724.07 311.203 725.025 311.203ZM744.586 320.38C743.211 320.38 742.027 320.199 741.035 319.838C740.051 319.478 739.247 319.001 738.623 318.407C737.999 317.813 737.533 317.163 737.225 316.457L740.122 315.262C740.325 315.592 740.596 315.942 740.934 316.31C741.279 316.686 741.745 317.005 742.332 317.268C742.925 317.531 743.688 317.663 744.62 317.663C745.898 317.663 746.954 317.351 747.788 316.727C748.622 316.111 749.039 315.126 749.039 313.774V310.369H748.825C748.622 310.737 748.329 311.147 747.946 311.598C747.57 312.049 747.051 312.44 746.39 312.77C745.729 313.101 744.868 313.266 743.808 313.266C742.441 313.266 741.208 312.947 740.111 312.308C739.021 311.662 738.157 310.711 737.518 309.456C736.887 308.194 736.571 306.642 736.571 304.8C736.571 302.959 736.883 301.381 737.507 300.066C738.138 298.751 739.002 297.744 740.1 297.045C741.197 296.338 742.441 295.985 743.831 295.985C744.906 295.985 745.774 296.165 746.435 296.526C747.096 296.879 747.611 297.293 747.979 297.766C748.355 298.24 748.644 298.657 748.847 299.017H749.095V296.21H752.398V313.909C752.398 315.397 752.053 316.618 751.361 317.573C750.67 318.527 749.734 319.233 748.554 319.692C747.382 320.15 746.059 320.38 744.586 320.38ZM744.552 310.471C745.522 310.471 746.341 310.245 747.01 309.794C747.686 309.336 748.197 308.682 748.543 307.833C748.896 306.976 749.073 305.95 749.073 304.755C749.073 303.59 748.9 302.565 748.554 301.678C748.209 300.791 747.701 300.1 747.032 299.604C746.364 299.1 745.537 298.848 744.552 298.848C743.538 298.848 742.692 299.111 742.016 299.637C741.34 300.156 740.829 300.862 740.483 301.757C740.145 302.651 739.976 303.651 739.976 304.755C739.976 305.89 740.148 306.886 740.494 307.743C740.84 308.599 741.351 309.268 742.027 309.749C742.711 310.23 743.553 310.471 744.552 310.471ZM764.381 313.875C762.675 313.875 761.206 313.511 759.974 312.782C758.749 312.045 757.802 311.012 757.133 309.682C756.472 308.344 756.141 306.777 756.141 304.981C756.141 303.207 756.472 301.644 757.133 300.291C757.802 298.938 758.734 297.883 759.929 297.124C761.131 296.365 762.536 295.985 764.145 295.985C765.122 295.985 766.069 296.147 766.985 296.47C767.902 296.793 768.725 297.3 769.454 297.992C770.183 298.683 770.758 299.581 771.179 300.686C771.6 301.783 771.81 303.117 771.81 304.688V305.883H758.046V303.357H768.507C768.507 302.471 768.327 301.685 767.966 301.001C767.605 300.31 767.098 299.765 766.444 299.367C765.798 298.969 765.039 298.769 764.167 298.769C763.22 298.769 762.394 299.002 761.687 299.468C760.988 299.927 760.447 300.528 760.064 301.272C759.688 302.008 759.5 302.809 759.5 303.673V305.646C759.5 306.803 759.703 307.788 760.109 308.599C760.522 309.411 761.097 310.031 761.834 310.459C762.57 310.88 763.431 311.091 764.415 311.091C765.054 311.091 765.636 311.001 766.163 310.82C766.689 310.632 767.143 310.354 767.527 309.986C767.91 309.618 768.203 309.163 768.406 308.622L771.596 309.197C771.341 310.136 770.882 310.959 770.221 311.666C769.567 312.365 768.744 312.909 767.752 313.3C766.768 313.683 765.644 313.875 764.381 313.875ZM788.525 300.438L785.47 300.979C785.342 300.588 785.14 300.216 784.861 299.863C784.591 299.51 784.223 299.22 783.757 298.995C783.291 298.769 782.708 298.657 782.009 298.657C781.055 298.657 780.258 298.871 779.62 299.299C778.981 299.72 778.661 300.265 778.661 300.934C778.661 301.512 778.876 301.978 779.304 302.332C779.732 302.685 780.424 302.974 781.378 303.2L784.129 303.831C785.722 304.199 786.909 304.767 787.691 305.533C788.473 306.3 788.863 307.295 788.863 308.52C788.863 309.558 788.563 310.482 787.962 311.294C787.368 312.098 786.537 312.729 785.47 313.187C784.411 313.646 783.182 313.875 781.784 313.875C779.845 313.875 778.263 313.462 777.038 312.635C775.813 311.801 775.062 310.617 774.784 309.084L778.041 308.588C778.244 309.437 778.661 310.08 779.293 310.516C779.924 310.944 780.747 311.158 781.761 311.158C782.866 311.158 783.749 310.929 784.411 310.471C785.072 310.005 785.403 309.437 785.403 308.768C785.403 308.227 785.2 307.773 784.794 307.404C784.396 307.036 783.783 306.758 782.956 306.57L780.025 305.928C778.41 305.559 777.215 304.973 776.441 304.169C775.674 303.365 775.291 302.347 775.291 301.114C775.291 300.092 775.576 299.198 776.148 298.431C776.719 297.665 777.508 297.067 778.515 296.639C779.522 296.203 780.675 295.985 781.976 295.985C783.847 295.985 785.32 296.391 786.395 297.202C787.469 298.007 788.179 299.085 788.525 300.438Z" fill="#27272A"/>
<path d="M1107.88 352.212H322.735V354.328H1107.88V352.212Z" fill="#E2E8F0" mask="url(#path-12-inside-2_652_1552)"/>
<path d="M345.275 428.457C345.275 430.891 344.836 432.996 343.956 434.769C343.077 436.543 341.871 437.911 340.338 438.873C338.805 439.835 337.054 440.316 335.085 440.316C333.116 440.316 331.364 439.835 329.831 438.873C328.298 437.911 327.092 436.543 326.213 434.769C325.333 432.996 324.894 430.891 324.894 428.457C324.894 426.022 325.333 423.917 326.213 422.144C327.092 420.37 328.298 419.002 329.831 418.04C331.364 417.078 333.116 416.597 335.085 416.597C337.054 416.597 338.805 417.078 340.338 418.04C341.871 419.002 343.077 420.37 343.956 422.144C344.836 423.917 345.275 426.022 345.275 428.457ZM342.57 428.457C342.57 426.457 342.235 424.77 341.566 423.395C340.905 422.02 340.007 420.979 338.872 420.272C337.745 419.566 336.482 419.213 335.085 419.213C333.687 419.213 332.42 419.566 331.286 420.272C330.158 420.979 329.26 422.02 328.591 423.395C327.93 424.77 327.599 426.457 327.599 428.457C327.599 430.456 327.93 432.143 328.591 433.518C329.26 434.893 330.158 435.934 331.286 436.641C332.42 437.347 333.687 437.7 335.085 437.7C336.482 437.7 337.745 437.347 338.872 436.641C340.007 435.934 340.905 434.893 341.566 433.518C342.235 432.143 342.57 430.456 342.57 428.457ZM349.615 446.493V422.685H352.186V425.435H352.501C352.697 425.135 352.967 424.752 353.313 424.286C353.666 423.812 354.17 423.391 354.823 423.023C355.485 422.647 356.379 422.459 357.506 422.459C358.964 422.459 360.249 422.824 361.362 423.553C362.474 424.282 363.342 425.315 363.966 426.653C364.589 427.991 364.901 429.569 364.901 431.388C364.901 433.221 364.589 434.811 363.966 436.156C363.342 437.494 362.478 438.531 361.373 439.267C360.268 439.996 358.994 440.361 357.551 440.361C356.439 440.361 355.549 440.177 354.88 439.808C354.211 439.433 353.696 439.008 353.335 438.535C352.975 438.054 352.697 437.655 352.501 437.34H352.276V446.493H349.615ZM352.231 431.342C352.231 432.65 352.422 433.804 352.806 434.803C353.189 435.795 353.749 436.573 354.485 437.137C355.222 437.693 356.124 437.971 357.191 437.971C358.303 437.971 359.231 437.678 359.975 437.092C360.727 436.498 361.29 435.701 361.666 434.702C362.049 433.695 362.241 432.575 362.241 431.342C362.241 430.125 362.053 429.028 361.677 428.051C361.309 427.066 360.749 426.288 359.998 425.717C359.254 425.139 358.318 424.849 357.191 424.849C356.109 424.849 355.199 425.124 354.463 425.672C353.726 426.213 353.17 426.972 352.794 427.949C352.419 428.919 352.231 430.05 352.231 431.342ZM376.49 422.685V424.939H367.517V422.685H376.49ZM370.132 418.536H372.792V435.04C372.792 435.791 372.901 436.355 373.119 436.731C373.345 437.099 373.63 437.347 373.976 437.475C374.329 437.595 374.701 437.655 375.092 437.655C375.385 437.655 375.626 437.64 375.814 437.61C376.001 437.573 376.152 437.543 376.264 437.52L376.806 439.91C376.625 439.977 376.373 440.045 376.05 440.113C375.727 440.188 375.318 440.225 374.822 440.225C374.07 440.225 373.334 440.064 372.612 439.741C371.898 439.418 371.304 438.925 370.831 438.264C370.365 437.603 370.132 436.768 370.132 435.761V418.536ZM380.492 440V422.685H383.152V440H380.492ZM381.845 419.799C381.326 419.799 380.879 419.622 380.503 419.269C380.135 418.916 379.951 418.491 379.951 417.995C379.951 417.499 380.135 417.075 380.503 416.721C380.879 416.368 381.326 416.192 381.845 416.192C382.363 416.192 382.807 416.368 383.175 416.721C383.551 417.075 383.738 417.499 383.738 417.995C383.738 418.491 383.551 418.916 383.175 419.269C382.807 419.622 382.363 419.799 381.845 419.799ZM388.025 440V422.685H390.595V425.39H390.821C391.181 424.466 391.764 423.748 392.568 423.237C393.372 422.719 394.338 422.459 395.465 422.459C396.607 422.459 397.558 422.719 398.317 423.237C399.084 423.748 399.681 424.466 400.109 425.39H400.29C400.733 424.496 401.398 423.786 402.285 423.26C403.172 422.726 404.235 422.459 405.475 422.459C407.024 422.459 408.29 422.944 409.274 423.914C410.259 424.876 410.751 426.375 410.751 428.411V440H408.091V428.411C408.091 427.134 407.741 426.221 407.042 425.672C406.343 425.124 405.52 424.849 404.574 424.849C403.356 424.849 402.413 425.217 401.744 425.954C401.075 426.683 400.741 427.607 400.741 428.727V440H398.035V428.141C398.035 427.156 397.716 426.364 397.077 425.762C396.438 425.154 395.615 424.849 394.608 424.849C393.917 424.849 393.271 425.033 392.669 425.402C392.076 425.77 391.595 426.281 391.226 426.935C390.866 427.581 390.685 428.329 390.685 429.178V440H388.025ZM415.615 440V422.685H418.276V440H415.615ZM416.968 419.799C416.45 419.799 416.002 419.622 415.627 419.269C415.258 418.916 415.074 418.491 415.074 417.995C415.074 417.499 415.258 417.075 415.627 416.721C416.002 416.368 416.45 416.192 416.968 416.192C417.487 416.192 417.93 416.368 418.298 416.721C418.674 417.075 418.862 417.499 418.862 417.995C418.862 418.491 418.674 418.916 418.298 419.269C417.93 419.622 417.487 419.799 416.968 419.799ZM422.652 440V437.971L432.482 425.345V425.165H422.968V422.685H435.909V424.804L426.35 437.34V437.52H436.225V440H422.652ZM447.086 440.361C445.418 440.361 443.979 439.992 442.769 439.256C441.567 438.512 440.638 437.475 439.985 436.145C439.338 434.807 439.015 433.251 439.015 431.478C439.015 429.704 439.338 428.141 439.985 426.788C440.638 425.428 441.548 424.368 442.713 423.609C443.885 422.843 445.253 422.459 446.816 422.459C447.718 422.459 448.608 422.61 449.488 422.91C450.367 423.211 451.167 423.699 451.889 424.376C452.61 425.045 453.185 425.931 453.613 427.036C454.042 428.141 454.256 429.501 454.256 431.117V432.244H440.909V429.945H451.551C451.551 428.968 451.355 428.096 450.964 427.329C450.581 426.563 450.032 425.958 449.319 425.514C448.612 425.071 447.778 424.849 446.816 424.849C445.756 424.849 444.839 425.112 444.065 425.638C443.299 426.157 442.709 426.833 442.295 427.667C441.882 428.502 441.675 429.396 441.675 430.35V431.884C441.675 433.191 441.901 434.3 442.352 435.209C442.81 436.111 443.445 436.798 444.257 437.272C445.069 437.738 446.012 437.971 447.086 437.971C447.785 437.971 448.417 437.873 448.98 437.678C449.551 437.475 450.044 437.174 450.457 436.776C450.87 436.37 451.19 435.867 451.415 435.265L453.985 435.987C453.715 436.859 453.26 437.625 452.621 438.287C451.983 438.94 451.194 439.451 450.254 439.82C449.315 440.18 448.259 440.361 447.086 440.361ZM464.841 440.361C463.398 440.361 462.125 439.996 461.02 439.267C459.915 438.531 459.051 437.494 458.427 436.156C457.803 434.811 457.491 433.221 457.491 431.388C457.491 429.569 457.803 427.991 458.427 426.653C459.051 425.315 459.919 424.282 461.031 423.553C462.143 422.824 463.428 422.459 464.886 422.459C466.014 422.459 466.904 422.647 467.558 423.023C468.219 423.391 468.723 423.812 469.069 424.286C469.422 424.752 469.696 425.135 469.892 425.435H470.117V416.913H472.777V440H470.207V437.34H469.892C469.696 437.655 469.418 438.054 469.057 438.535C468.697 439.008 468.182 439.433 467.513 439.808C466.844 440.177 465.954 440.361 464.841 440.361ZM465.202 437.971C466.269 437.971 467.171 437.693 467.908 437.137C468.644 436.573 469.204 435.795 469.587 434.803C469.97 433.804 470.162 432.65 470.162 431.342C470.162 430.05 469.974 428.919 469.598 427.949C469.223 426.972 468.667 426.213 467.93 425.672C467.194 425.124 466.284 424.849 465.202 424.849C464.075 424.849 463.135 425.139 462.384 425.717C461.64 426.288 461.08 427.066 460.704 428.051C460.336 429.028 460.152 430.125 460.152 431.342C460.152 432.575 460.34 433.695 460.715 434.702C461.099 435.701 461.662 436.498 462.406 437.092C463.158 437.678 464.09 437.971 465.202 437.971ZM486.947 440V422.685H489.608V440H486.947ZM488.3 419.799C487.782 419.799 487.335 419.622 486.959 419.269C486.59 418.916 486.406 418.491 486.406 417.995C486.406 417.499 486.59 417.075 486.959 416.721C487.335 416.368 487.782 416.192 488.3 416.192C488.819 416.192 489.262 416.368 489.63 416.721C490.006 417.075 490.194 417.499 490.194 417.995C490.194 418.491 490.006 418.916 489.63 419.269C489.262 419.622 488.819 419.799 488.3 419.799ZM494.481 440V422.685H497.051V425.39H497.276C497.637 424.466 498.219 423.748 499.024 423.237C499.828 422.719 500.793 422.459 501.921 422.459C503.063 422.459 504.014 422.719 504.773 423.237C505.539 423.748 506.137 424.466 506.565 425.39H506.746C507.189 424.496 507.854 423.786 508.741 423.26C509.628 422.726 510.691 422.459 511.931 422.459C513.479 422.459 514.746 422.944 515.73 423.914C516.715 424.876 517.207 426.375 517.207 428.411V440H514.546V428.411C514.546 427.134 514.197 426.221 513.498 425.672C512.799 425.124 511.976 424.849 511.029 424.849C509.812 424.849 508.869 425.217 508.2 425.954C507.531 426.683 507.196 427.607 507.196 428.727V440H504.491V428.141C504.491 427.156 504.172 426.364 503.533 425.762C502.894 425.154 502.071 424.849 501.064 424.849C500.373 424.849 499.726 425.033 499.125 425.402C498.531 425.77 498.05 426.281 497.682 426.935C497.321 427.581 497.141 428.329 497.141 429.178V440H494.481ZM527.166 440.406C526.069 440.406 525.073 440.199 524.179 439.786C523.285 439.365 522.575 438.76 522.048 437.971C521.522 437.174 521.259 436.212 521.259 435.085C521.259 434.093 521.455 433.289 521.846 432.673C522.236 432.049 522.759 431.56 523.413 431.207C524.066 430.854 524.788 430.591 525.577 430.418C526.374 430.238 527.174 430.095 527.978 429.99C529.03 429.854 529.883 429.753 530.537 429.685C531.198 429.61 531.679 429.486 531.98 429.313C532.288 429.14 532.442 428.84 532.442 428.411V428.321C532.442 427.209 532.138 426.345 531.529 425.729C530.928 425.112 530.015 424.804 528.79 424.804C527.52 424.804 526.524 425.082 525.802 425.638C525.081 426.194 524.574 426.788 524.281 427.419L521.755 426.518C522.206 425.465 522.808 424.646 523.559 424.06C524.318 423.466 525.145 423.053 526.039 422.82C526.941 422.58 527.828 422.459 528.699 422.459C529.256 422.459 529.894 422.527 530.616 422.662C531.345 422.79 532.048 423.057 532.724 423.463C533.408 423.868 533.975 424.481 534.426 425.3C534.877 426.119 535.103 427.217 535.103 428.592V440H532.442V437.655H532.307C532.126 438.031 531.826 438.433 531.405 438.861C530.984 439.29 530.424 439.654 529.725 439.955C529.026 440.256 528.173 440.406 527.166 440.406ZM527.572 438.016C528.624 438.016 529.511 437.809 530.233 437.396C530.962 436.983 531.51 436.449 531.878 435.795C532.254 435.141 532.442 434.454 532.442 433.732V431.297C532.329 431.433 532.081 431.557 531.698 431.669C531.322 431.775 530.886 431.868 530.39 431.951C529.902 432.026 529.425 432.094 528.959 432.154C528.5 432.207 528.128 432.252 527.843 432.289C527.151 432.38 526.505 432.526 525.904 432.729C525.31 432.924 524.829 433.221 524.461 433.62C524.1 434.01 523.92 434.544 523.92 435.22C523.92 436.145 524.262 436.844 524.946 437.317C525.637 437.783 526.513 438.016 527.572 438.016ZM546.947 446.854C545.662 446.854 544.558 446.689 543.633 446.358C542.709 446.035 541.939 445.606 541.322 445.073C540.714 444.547 540.229 443.983 539.868 443.382L541.987 441.894C542.228 442.209 542.532 442.57 542.901 442.976C543.269 443.389 543.772 443.746 544.411 444.047C545.057 444.355 545.903 444.509 546.947 444.509C548.345 444.509 549.499 444.171 550.408 443.495C551.318 442.818 551.772 441.759 551.772 440.316V436.798H551.547C551.351 437.114 551.073 437.505 550.713 437.971C550.359 438.429 549.848 438.839 549.18 439.2C548.518 439.553 547.624 439.729 546.497 439.729C545.099 439.729 543.844 439.399 542.731 438.737C541.627 438.076 540.751 437.114 540.105 435.852C539.466 434.589 539.147 433.056 539.147 431.252C539.147 429.479 539.459 427.934 540.082 426.619C540.706 425.296 541.574 424.274 542.686 423.553C543.799 422.824 545.084 422.459 546.542 422.459C547.669 422.459 548.563 422.647 549.225 423.023C549.893 423.391 550.405 423.812 550.758 424.286C551.118 424.752 551.397 425.135 551.592 425.435H551.862V422.685H554.433V440.496C554.433 441.984 554.095 443.194 553.418 444.126C552.749 445.065 551.847 445.753 550.713 446.189C549.585 446.632 548.33 446.854 546.947 446.854ZM546.857 437.34C547.924 437.34 548.826 437.095 549.563 436.607C550.299 436.118 550.859 435.416 551.242 434.499C551.626 433.582 551.817 432.485 551.817 431.207C551.817 429.96 551.63 428.859 551.254 427.904C550.878 426.95 550.322 426.202 549.585 425.661C548.849 425.12 547.94 424.849 546.857 424.849C545.73 424.849 544.791 425.135 544.039 425.706C543.295 426.277 542.735 427.044 542.359 428.006C541.991 428.968 541.807 430.035 541.807 431.207C541.807 432.41 541.995 433.473 542.371 434.397C542.754 435.314 543.318 436.036 544.062 436.562C544.813 437.08 545.745 437.34 546.857 437.34ZM566.562 440.361C564.894 440.361 563.455 439.992 562.245 439.256C561.042 438.512 560.114 437.475 559.46 436.145C558.814 434.807 558.491 433.251 558.491 431.478C558.491 429.704 558.814 428.141 559.46 426.788C560.114 425.428 561.024 424.368 562.188 423.609C563.361 422.843 564.729 422.459 566.292 422.459C567.194 422.459 568.084 422.61 568.963 422.91C569.843 423.211 570.643 423.699 571.365 424.376C572.086 425.045 572.661 425.931 573.089 427.036C573.518 428.141 573.732 429.501 573.732 431.117V432.244H560.385V429.945H571.026C571.026 428.968 570.831 428.096 570.44 427.329C570.057 426.563 569.508 425.958 568.794 425.514C568.088 425.071 567.254 424.849 566.292 424.849C565.232 424.849 564.315 425.112 563.541 425.638C562.775 426.157 562.185 426.833 561.771 427.667C561.358 428.502 561.151 429.396 561.151 430.35V431.884C561.151 433.191 561.377 434.3 561.828 435.209C562.286 436.111 562.921 436.798 563.733 437.272C564.544 437.738 565.488 437.971 566.562 437.971C567.261 437.971 567.893 437.873 568.456 437.678C569.027 437.475 569.52 437.174 569.933 436.776C570.346 436.37 570.666 435.867 570.891 435.265L573.461 435.987C573.191 436.859 572.736 437.625 572.097 438.287C571.459 438.94 570.669 439.451 569.73 439.82C568.791 440.18 567.735 440.361 566.562 440.361ZM590.044 426.563L587.654 427.239C587.504 426.841 587.282 426.454 586.989 426.078C586.703 425.695 586.312 425.379 585.816 425.131C585.32 424.883 584.685 424.759 583.911 424.759C582.852 424.759 581.969 425.003 581.262 425.492C580.563 425.973 580.214 426.585 580.214 427.329C580.214 427.991 580.454 428.513 580.935 428.896C581.416 429.279 582.168 429.599 583.19 429.854L585.76 430.486C587.308 430.861 588.462 431.436 589.221 432.21C589.98 432.977 590.359 433.965 590.359 435.175C590.359 436.167 590.074 437.054 589.503 437.836C588.939 438.617 588.15 439.233 587.135 439.684C586.121 440.135 584.941 440.361 583.596 440.361C581.83 440.361 580.368 439.977 579.211 439.211C578.053 438.444 577.32 437.325 577.012 435.852L579.537 435.22C579.778 436.152 580.233 436.851 580.901 437.317C581.578 437.783 582.461 438.016 583.551 438.016C584.791 438.016 585.775 437.753 586.504 437.227C587.241 436.693 587.609 436.054 587.609 435.31C587.609 434.709 587.398 434.206 586.978 433.8C586.557 433.387 585.91 433.078 585.039 432.876L582.153 432.199C580.567 431.823 579.402 431.241 578.658 430.452C577.922 429.655 577.553 428.659 577.553 427.465C577.553 426.488 577.828 425.623 578.376 424.872C578.932 424.12 579.688 423.53 580.642 423.102C581.604 422.674 582.694 422.459 583.911 422.459C585.625 422.459 586.97 422.835 587.947 423.587C588.932 424.338 589.63 425.33 590.044 426.563ZM605.953 416.913V440H603.292V416.913H605.953ZM617.86 440.361C616.297 440.361 614.925 439.989 613.745 439.245C612.573 438.501 611.656 437.46 610.994 436.122C610.341 434.784 610.014 433.221 610.014 431.433C610.014 429.629 610.341 428.054 610.994 426.709C611.656 425.364 612.573 424.319 613.745 423.575C614.925 422.831 616.297 422.459 617.86 422.459C619.423 422.459 620.791 422.831 621.963 423.575C623.143 424.319 624.06 425.364 624.714 426.709C625.375 428.054 625.706 429.629 625.706 431.433C625.706 433.221 625.375 434.784 624.714 436.122C624.06 437.46 623.143 438.501 621.963 439.245C620.791 439.989 619.423 440.361 617.86 440.361ZM617.86 437.971C619.047 437.971 620.024 437.667 620.791 437.058C621.557 436.449 622.125 435.649 622.493 434.657C622.861 433.665 623.045 432.59 623.045 431.433C623.045 430.275 622.861 429.197 622.493 428.197C622.125 427.198 621.557 426.39 620.791 425.774C620.024 425.157 619.047 424.849 617.86 424.849C616.672 424.849 615.695 425.157 614.929 425.774C614.162 426.39 613.595 427.198 613.227 428.197C612.858 429.197 612.674 430.275 612.674 431.433C612.674 432.59 612.858 433.665 613.227 434.657C613.595 435.649 614.162 436.449 614.929 437.058C615.695 437.667 616.672 437.971 617.86 437.971ZM634.862 440.406C633.765 440.406 632.769 440.199 631.875 439.786C630.98 439.365 630.27 438.76 629.744 437.971C629.218 437.174 628.955 436.212 628.955 435.085C628.955 434.093 629.15 433.289 629.541 432.673C629.932 432.049 630.454 431.56 631.108 431.207C631.762 430.854 632.483 430.591 633.273 430.418C634.069 430.238 634.87 430.095 635.674 429.99C636.726 429.854 637.579 429.753 638.233 429.685C638.894 429.61 639.375 429.486 639.676 429.313C639.984 429.14 640.138 428.84 640.138 428.411V428.321C640.138 427.209 639.833 426.345 639.225 425.729C638.623 425.112 637.71 424.804 636.485 424.804C635.215 424.804 634.22 425.082 633.498 425.638C632.777 426.194 632.269 426.788 631.976 427.419L629.451 426.518C629.902 425.465 630.503 424.646 631.255 424.06C632.014 423.466 632.84 423.053 633.735 422.82C634.637 422.58 635.523 422.459 636.395 422.459C636.951 422.459 637.59 422.527 638.312 422.662C639.041 422.79 639.743 423.057 640.42 423.463C641.103 423.868 641.671 424.481 642.122 425.3C642.573 426.119 642.798 427.217 642.798 428.592V440H640.138V437.655H640.003C639.822 438.031 639.522 438.433 639.101 438.861C638.68 439.29 638.12 439.654 637.421 439.955C636.722 440.256 635.869 440.406 634.862 440.406ZM635.268 438.016C636.32 438.016 637.207 437.809 637.928 437.396C638.657 436.983 639.206 436.449 639.574 435.795C639.95 435.141 640.138 434.454 640.138 433.732V431.297C640.025 431.433 639.777 431.557 639.394 431.669C639.018 431.775 638.582 431.868 638.086 431.951C637.598 432.026 637.12 432.094 636.654 432.154C636.196 432.207 635.824 432.252 635.538 432.289C634.847 432.38 634.201 432.526 633.599 432.729C633.006 432.924 632.525 433.221 632.157 433.62C631.796 434.01 631.615 434.544 631.615 435.22C631.615 436.145 631.957 436.844 632.641 437.317C633.333 437.783 634.208 438.016 635.268 438.016ZM654.192 440.361C652.749 440.361 651.475 439.996 650.371 439.267C649.266 438.531 648.402 437.494 647.778 436.156C647.154 434.811 646.842 433.221 646.842 431.388C646.842 429.569 647.154 427.991 647.778 426.653C648.402 425.315 649.27 424.282 650.382 423.553C651.494 422.824 652.779 422.459 654.237 422.459C655.365 422.459 656.255 422.647 656.909 423.023C657.57 423.391 658.074 423.812 658.42 424.286C658.773 424.752 659.047 425.135 659.243 425.435H659.468V416.913H662.128V440H659.558V437.34H659.243C659.047 437.655 658.769 438.054 658.408 438.535C658.048 439.008 657.533 439.433 656.864 439.808C656.195 440.177 655.305 440.361 654.192 440.361ZM654.553 437.971C655.62 437.971 656.522 437.693 657.258 437.137C657.995 436.573 658.555 435.795 658.938 434.803C659.321 433.804 659.513 432.65 659.513 431.342C659.513 430.05 659.325 428.919 658.949 427.949C658.574 426.972 658.018 426.213 657.281 425.672C656.545 425.124 655.635 424.849 654.553 424.849C653.426 424.849 652.486 425.139 651.735 425.717C650.991 426.288 650.431 427.066 650.055 428.051C649.687 429.028 649.503 430.125 649.503 431.342C649.503 432.575 649.691 433.695 650.066 434.702C650.45 435.701 651.013 436.498 651.757 437.092C652.509 437.678 653.441 437.971 654.553 437.971ZM684.009 422.685V424.939H674.675V422.685H684.009ZM677.471 440V420.295C677.471 419.303 677.704 418.476 678.17 417.815C678.636 417.154 679.241 416.658 679.985 416.327C680.729 415.996 681.514 415.831 682.341 415.831C682.995 415.831 683.528 415.884 683.941 415.989C684.355 416.094 684.663 416.192 684.866 416.282L684.099 418.581C683.964 418.536 683.776 418.48 683.536 418.412C683.303 418.345 682.995 418.311 682.611 418.311C681.732 418.311 681.097 418.533 680.706 418.976C680.323 419.419 680.131 420.07 680.131 420.926V440H677.471ZM692.337 440.406C691.24 440.406 690.244 440.199 689.35 439.786C688.455 439.365 687.745 438.76 687.219 437.971C686.693 437.174 686.43 436.212 686.43 435.085C686.43 434.093 686.625 433.289 687.016 432.673C687.407 432.049 687.929 431.56 688.583 431.207C689.237 430.854 689.958 430.591 690.747 430.418C691.544 430.238 692.344 430.095 693.149 429.99C694.201 429.854 695.054 429.753 695.708 429.685C696.369 429.61 696.85 429.486 697.15 429.313C697.459 429.14 697.613 428.84 697.613 428.411V428.321C697.613 427.209 697.308 426.345 696.7 425.729C696.098 425.112 695.185 424.804 693.96 424.804C692.69 424.804 691.694 425.082 690.973 425.638C690.251 426.194 689.744 426.788 689.451 427.419L686.926 426.518C687.377 425.465 687.978 424.646 688.73 424.06C689.489 423.466 690.315 423.053 691.21 422.82C692.111 422.58 692.998 422.459 693.87 422.459C694.426 422.459 695.065 422.527 695.786 422.662C696.515 422.79 697.218 423.057 697.894 423.463C698.578 423.868 699.146 424.481 699.597 425.3C700.048 426.119 700.273 427.217 700.273 428.592V440H697.613V437.655H697.477C697.297 438.031 696.996 438.433 696.576 438.861C696.155 439.29 695.595 439.654 694.896 439.955C694.197 440.256 693.344 440.406 692.337 440.406ZM692.743 438.016C693.795 438.016 694.682 437.809 695.403 437.396C696.132 436.983 696.681 436.449 697.049 435.795C697.425 435.141 697.613 434.454 697.613 433.732V431.297C697.5 431.433 697.252 431.557 696.869 431.669C696.493 431.775 696.057 431.868 695.561 431.951C695.072 432.026 694.595 432.094 694.129 432.154C693.671 432.207 693.299 432.252 693.013 432.289C692.322 432.38 691.676 432.526 691.074 432.729C690.481 432.924 690 433.221 689.631 433.62C689.271 434.01 689.09 434.544 689.09 435.22C689.09 436.145 689.432 436.844 690.116 437.317C690.808 437.783 691.683 438.016 692.743 438.016ZM717.394 426.563L715.004 427.239C714.854 426.841 714.632 426.454 714.339 426.078C714.053 425.695 713.662 425.379 713.166 425.131C712.67 424.883 712.035 424.759 711.261 424.759C710.202 424.759 709.319 425.003 708.612 425.492C707.913 425.973 707.564 426.585 707.564 427.329C707.564 427.991 707.804 428.513 708.285 428.896C708.766 429.279 709.518 429.599 710.54 429.854L713.11 430.486C714.658 430.861 715.812 431.436 716.571 432.21C717.33 432.977 717.709 433.965 717.709 435.175C717.709 436.167 717.424 437.054 716.853 437.836C716.289 438.617 715.5 439.233 714.485 439.684C713.471 440.135 712.291 440.361 710.946 440.361C709.18 440.361 707.718 439.977 706.561 439.211C705.403 438.444 704.67 437.325 704.362 435.852L706.887 435.22C707.128 436.152 707.583 436.851 708.251 437.317C708.928 437.783 709.811 438.016 710.901 438.016C712.141 438.016 713.125 437.753 713.854 437.227C714.591 436.693 714.959 436.054 714.959 435.31C714.959 434.709 714.748 434.206 714.328 433.8C713.907 433.387 713.26 433.078 712.389 432.876L709.503 432.199C707.917 431.823 706.752 431.241 706.008 430.452C705.272 429.655 704.903 428.659 704.903 427.465C704.903 426.488 705.178 425.623 705.726 424.872C706.282 424.12 707.038 423.53 707.992 423.102C708.954 422.674 710.044 422.459 711.261 422.459C712.975 422.459 714.32 422.835 715.297 423.587C716.282 424.338 716.98 425.33 717.394 426.563ZM729.244 422.685V424.939H720.271V422.685H729.244ZM722.887 418.536H725.547V435.04C725.547 435.791 725.656 436.355 725.874 436.731C726.099 437.099 726.385 437.347 726.731 437.475C727.084 437.595 727.456 437.655 727.847 437.655C728.14 437.655 728.38 437.64 728.568 437.61C728.756 437.573 728.906 437.543 729.019 437.52L729.56 439.91C729.38 439.977 729.128 440.045 728.805 440.113C728.482 440.188 728.072 440.225 727.576 440.225C726.825 440.225 726.088 440.064 725.367 439.741C724.653 439.418 724.059 438.925 723.585 438.264C723.119 437.603 722.887 436.768 722.887 435.761V418.536ZM740.32 440.361C738.652 440.361 737.212 439.992 736.003 439.256C734.8 438.512 733.872 437.475 733.218 436.145C732.572 434.807 732.249 433.251 732.249 431.478C732.249 429.704 732.572 428.141 733.218 426.788C733.872 425.428 734.781 424.368 735.946 423.609C737.119 422.843 738.486 422.459 740.05 422.459C740.951 422.459 741.842 422.61 742.721 422.91C743.6 423.211 744.401 423.699 745.122 424.376C745.844 425.045 746.419 425.931 746.847 427.036C747.275 428.141 747.49 429.501 747.49 431.117V432.244H734.143V429.945H744.784C744.784 428.968 744.589 428.096 744.198 427.329C743.815 426.563 743.266 425.958 742.552 425.514C741.846 425.071 741.011 424.849 740.05 424.849C738.99 424.849 738.073 425.112 737.299 425.638C736.532 426.157 735.942 426.833 735.529 427.667C735.116 428.502 734.909 429.396 734.909 430.35V431.884C734.909 433.191 735.135 434.3 735.585 435.209C736.044 436.111 736.679 436.798 737.491 437.272C738.302 437.738 739.245 437.971 740.32 437.971C741.019 437.971 741.65 437.873 742.214 437.678C742.785 437.475 743.277 437.174 743.691 436.776C744.104 436.37 744.423 435.867 744.649 435.265L747.219 435.987C746.949 436.859 746.494 437.625 745.855 438.287C745.216 438.94 744.427 439.451 743.488 439.82C742.548 440.18 741.492 440.361 740.32 440.361ZM751.537 440V422.685H754.107V425.3H754.287C754.603 424.443 755.174 423.748 756.001 423.215C756.827 422.681 757.759 422.414 758.796 422.414C758.992 422.414 759.236 422.418 759.529 422.426C759.822 422.433 760.044 422.444 760.194 422.459V425.165C760.104 425.142 759.897 425.108 759.574 425.063C759.259 425.011 758.924 424.984 758.571 424.984C757.729 424.984 756.978 425.161 756.316 425.514C755.662 425.86 755.144 426.341 754.761 426.957C754.385 427.566 754.197 428.261 754.197 429.043V440H751.537ZM777.371 440.406C776.274 440.406 775.278 440.199 774.384 439.786C773.49 439.365 772.779 438.76 772.253 437.971C771.727 437.174 771.464 436.212 771.464 435.085C771.464 434.093 771.66 433.289 772.05 432.673C772.441 432.049 772.964 431.56 773.617 431.207C774.271 430.854 774.993 430.591 775.782 430.418C776.578 430.238 777.379 430.095 778.183 429.99C779.235 429.854 780.088 429.753 780.742 429.685C781.403 429.61 781.884 429.486 782.185 429.313C782.493 429.14 782.647 428.84 782.647 428.411V428.321C782.647 427.209 782.343 426.345 781.734 425.729C781.133 425.112 780.22 424.804 778.995 424.804C777.724 424.804 776.729 425.082 776.007 425.638C775.286 426.194 774.779 426.788 774.485 427.419L771.96 426.518C772.411 425.465 773.012 424.646 773.764 424.06C774.523 423.466 775.35 423.053 776.244 422.82C777.146 422.58 778.033 422.459 778.904 422.459C779.461 422.459 780.099 422.527 780.821 422.662C781.55 422.79 782.252 423.057 782.929 423.463C783.613 423.868 784.18 424.481 784.631 425.3C785.082 426.119 785.307 427.217 785.307 428.592V440H782.647V437.655H782.512C782.331 438.031 782.031 438.433 781.61 438.861C781.189 439.29 780.629 439.654 779.93 439.955C779.231 440.256 778.378 440.406 777.371 440.406ZM777.777 438.016C778.829 438.016 779.716 437.809 780.438 437.396C781.166 436.983 781.715 436.449 782.083 435.795C782.459 435.141 782.647 434.454 782.647 433.732V431.297C782.534 431.433 782.286 431.557 781.903 431.669C781.527 431.775 781.091 431.868 780.595 431.951C780.107 432.026 779.63 432.094 779.164 432.154C778.705 432.207 778.333 432.252 778.048 432.289C777.356 432.38 776.71 432.526 776.109 432.729C775.515 432.924 775.034 433.221 774.666 433.62C774.305 434.01 774.125 434.544 774.125 435.22C774.125 436.145 774.467 436.844 775.151 437.317C775.842 437.783 776.717 438.016 777.777 438.016ZM792.824 429.584V440H790.163V422.685H792.733V425.39H792.959C793.365 424.511 793.981 423.805 794.808 423.271C795.634 422.73 796.702 422.459 798.009 422.459C799.182 422.459 800.207 422.7 801.087 423.181C801.966 423.654 802.65 424.376 803.138 425.345C803.627 426.307 803.871 427.525 803.871 428.998V440H801.211V429.178C801.211 427.818 800.857 426.758 800.151 425.999C799.445 425.232 798.475 424.849 797.243 424.849C796.393 424.849 795.634 425.033 794.965 425.402C794.304 425.77 793.782 426.307 793.399 427.014C793.015 427.72 792.824 428.577 792.824 429.584ZM815.271 440.361C813.828 440.361 812.554 439.996 811.449 439.267C810.345 438.531 809.48 437.494 808.856 436.156C808.233 434.811 807.921 433.221 807.921 431.388C807.921 429.569 808.233 427.991 808.856 426.653C809.48 425.315 810.348 424.282 811.461 423.553C812.573 422.824 813.858 422.459 815.316 422.459C816.443 422.459 817.334 422.647 817.988 423.023C818.649 423.391 819.152 423.812 819.498 424.286C819.851 424.752 820.126 425.135 820.321 425.435H820.546V416.913H823.207V440H820.637V437.34H820.321C820.126 437.655 819.848 438.054 819.487 438.535C819.126 439.008 818.611 439.433 817.942 439.808C817.274 440.177 816.383 440.361 815.271 440.361ZM815.632 437.971C816.699 437.971 817.601 437.693 818.337 437.137C819.074 436.573 819.633 435.795 820.017 434.803C820.4 433.804 820.592 432.65 820.592 431.342C820.592 430.05 820.404 428.919 820.028 427.949C819.652 426.972 819.096 426.213 818.36 425.672C817.623 425.124 816.714 424.849 815.632 424.849C814.504 424.849 813.565 425.139 812.813 425.717C812.069 426.288 811.509 427.066 811.134 428.051C810.765 429.028 810.581 430.125 810.581 431.342C810.581 432.575 810.769 433.695 811.145 434.702C811.528 435.701 812.092 436.498 812.836 437.092C813.587 437.678 814.519 437.971 815.632 437.971ZM844.411 440.361C842.788 440.361 841.39 439.977 840.218 439.211C839.045 438.444 838.143 437.388 837.512 436.043C836.881 434.698 836.565 433.161 836.565 431.433C836.565 429.674 836.888 428.122 837.535 426.777C838.189 425.424 839.098 424.368 840.263 423.609C841.435 422.843 842.803 422.459 844.366 422.459C845.584 422.459 846.681 422.685 847.658 423.136C848.635 423.587 849.435 424.218 850.059 425.03C850.683 425.841 851.07 426.788 851.22 427.87H848.56C848.357 427.081 847.906 426.382 847.207 425.774C846.516 425.157 845.584 424.849 844.411 424.849C843.374 424.849 842.465 425.12 841.683 425.661C840.909 426.194 840.304 426.95 839.868 427.927C839.44 428.896 839.226 430.035 839.226 431.342C839.226 432.68 839.436 433.845 839.857 434.837C840.285 435.829 840.887 436.599 841.661 437.148C842.442 437.697 843.359 437.971 844.411 437.971C845.103 437.971 845.73 437.851 846.294 437.61C846.857 437.37 847.335 437.024 847.725 436.573C848.116 436.122 848.394 435.581 848.56 434.95H851.22C851.07 435.972 850.698 436.892 850.104 437.712C849.518 438.523 848.74 439.17 847.771 439.651C846.809 440.124 845.689 440.361 844.411 440.361ZM862.143 440.361C860.58 440.361 859.209 439.989 858.029 439.245C856.857 438.501 855.94 437.46 855.278 436.122C854.624 434.784 854.298 433.221 854.298 431.433C854.298 429.629 854.624 428.054 855.278 426.709C855.94 425.364 856.857 424.319 858.029 423.575C859.209 422.831 860.58 422.459 862.143 422.459C863.707 422.459 865.074 422.831 866.247 423.575C867.427 424.319 868.344 425.364 868.997 426.709C869.659 428.054 869.989 429.629 869.989 431.433C869.989 433.221 869.659 434.784 868.997 436.122C868.344 437.46 867.427 438.501 866.247 439.245C865.074 439.989 863.707 440.361 862.143 440.361ZM862.143 437.971C863.331 437.971 864.308 437.667 865.074 437.058C865.841 436.449 866.408 435.649 866.777 434.657C867.145 433.665 867.329 432.59 867.329 431.433C867.329 430.275 867.145 429.197 866.777 428.197C866.408 427.198 865.841 426.39 865.074 425.774C864.308 425.157 863.331 424.849 862.143 424.849C860.956 424.849 859.979 425.157 859.213 425.774C858.446 426.39 857.879 427.198 857.51 428.197C857.142 429.197 856.958 430.275 856.958 431.433C856.958 432.59 857.142 433.665 857.51 434.657C857.879 435.649 858.446 436.449 859.213 437.058C859.979 437.667 860.956 437.971 862.143 437.971ZM876.711 429.584V440H874.05V422.685H876.621V425.39H876.846C877.252 424.511 877.868 423.805 878.695 423.271C879.522 422.73 880.589 422.459 881.896 422.459C883.069 422.459 884.095 422.7 884.974 423.181C885.853 423.654 886.537 424.376 887.026 425.345C887.514 426.307 887.758 427.525 887.758 428.998V440H885.098V429.178C885.098 427.818 884.745 426.758 884.038 425.999C883.332 425.232 882.362 424.849 881.13 424.849C880.281 424.849 879.522 425.033 878.853 425.402C878.191 425.77 877.669 426.307 877.286 427.014C876.903 427.72 876.711 428.577 876.711 429.584ZM904.885 426.563L902.495 427.239C902.345 426.841 902.123 426.454 901.83 426.078C901.544 425.695 901.153 425.379 900.657 425.131C900.161 424.883 899.526 424.759 898.752 424.759C897.693 424.759 896.81 425.003 896.103 425.492C895.404 425.973 895.055 426.585 895.055 427.329C895.055 427.991 895.295 428.513 895.776 428.896C896.257 429.279 897.009 429.599 898.031 429.854L900.601 430.486C902.149 430.861 903.303 431.436 904.062 432.21C904.821 432.977 905.2 433.965 905.2 435.175C905.2 436.167 904.915 437.054 904.344 437.836C903.78 438.617 902.991 439.233 901.976 439.684C900.962 440.135 899.782 440.361 898.437 440.361C896.671 440.361 895.209 439.977 894.051 439.211C892.894 438.444 892.161 437.325 891.853 435.852L894.378 435.22C894.619 436.152 895.074 436.851 895.742 437.317C896.419 437.783 897.302 438.016 898.392 438.016C899.632 438.016 900.616 437.753 901.345 437.227C902.082 436.693 902.45 436.054 902.45 435.31C902.45 434.709 902.239 434.206 901.819 433.8C901.398 433.387 900.751 433.078 899.88 432.876L896.994 432.199C895.408 431.823 894.243 431.241 893.499 430.452C892.763 429.655 892.394 428.659 892.394 427.465C892.394 426.488 892.669 425.623 893.217 424.872C893.773 424.12 894.529 423.53 895.483 423.102C896.445 422.674 897.535 422.459 898.752 422.459C900.466 422.459 901.811 422.835 902.788 423.587C903.772 424.338 904.471 425.33 904.885 426.563ZM920.117 432.921V422.685H922.778V440H920.117V437.069H919.937C919.531 437.948 918.9 438.696 918.043 439.312C917.186 439.921 916.104 440.225 914.796 440.225C913.714 440.225 912.752 439.989 911.911 439.515C911.069 439.034 910.408 438.313 909.927 437.351C909.446 436.381 909.205 435.16 909.205 433.687V422.685H911.865V433.507C911.865 434.769 912.219 435.776 912.925 436.528C913.639 437.279 914.548 437.655 915.653 437.655C916.315 437.655 916.987 437.486 917.671 437.148C918.362 436.81 918.941 436.291 919.407 435.592C919.881 434.893 920.117 434.003 920.117 432.921ZM927.65 440V422.685H930.221V425.39H930.446C930.807 424.466 931.389 423.748 932.193 423.237C932.997 422.719 933.963 422.459 935.09 422.459C936.233 422.459 937.183 422.719 937.943 423.237C938.709 423.748 939.307 424.466 939.735 425.39H939.915C940.359 424.496 941.024 423.786 941.911 423.26C942.797 422.726 943.861 422.459 945.101 422.459C946.649 422.459 947.915 422.944 948.9 423.914C949.884 424.876 950.377 426.375 950.377 428.411V440H947.716V428.411C947.716 427.134 947.367 426.221 946.668 425.672C945.969 425.124 945.146 424.849 944.199 424.849C942.981 424.849 942.038 425.217 941.369 425.954C940.701 426.683 940.366 427.607 940.366 428.727V440H937.661V428.141C937.661 427.156 937.341 426.364 936.702 425.762C936.064 425.154 935.241 424.849 934.234 424.849C933.542 424.849 932.896 425.033 932.295 425.402C931.701 425.77 931.22 426.281 930.852 426.935C930.491 427.581 930.311 428.329 930.311 429.178V440H927.65ZM962.501 440.361C960.832 440.361 959.393 439.992 958.183 439.256C956.981 438.512 956.052 437.475 955.399 436.145C954.752 434.807 954.429 433.251 954.429 431.478C954.429 429.704 954.752 428.141 955.399 426.788C956.052 425.428 956.962 424.368 958.127 423.609C959.299 422.843 960.667 422.459 962.23 422.459C963.132 422.459 964.022 422.61 964.902 422.91C965.781 423.211 966.581 423.699 967.303 424.376C968.024 425.045 968.599 425.931 969.028 427.036C969.456 428.141 969.67 429.501 969.67 431.117V432.244H956.323V429.945H966.965C966.965 428.968 966.769 428.096 966.378 427.329C965.995 426.563 965.447 425.958 964.733 425.514C964.026 425.071 963.192 424.849 962.23 424.849C961.17 424.849 960.253 425.112 959.479 425.638C958.713 426.157 958.123 426.833 957.71 427.667C957.296 428.502 957.09 429.396 957.09 430.35V431.884C957.09 433.191 957.315 434.3 957.766 435.209C958.224 436.111 958.859 436.798 959.671 437.272C960.483 437.738 961.426 437.971 962.501 437.971C963.199 437.971 963.831 437.873 964.394 437.678C964.966 437.475 965.458 437.174 965.871 436.776C966.284 436.37 966.604 435.867 966.829 435.265L969.4 435.987C969.129 436.859 968.674 437.625 968.036 438.287C967.397 438.94 966.608 439.451 965.668 439.82C964.729 440.18 963.673 440.361 962.501 440.361ZM985.306 416.913V440H982.645V416.913H985.306ZM997.438 440.361C995.77 440.361 994.331 439.992 993.121 439.256C991.918 438.512 990.99 437.475 990.336 436.145C989.69 434.807 989.367 433.251 989.367 431.478C989.367 429.704 989.69 428.141 990.336 426.788C990.99 425.428 991.899 424.368 993.064 423.609C994.237 422.843 995.604 422.459 997.168 422.459C998.069 422.459 998.96 422.61 999.839 422.91C1000.72 423.211 1001.52 423.699 1002.24 424.376C1002.96 425.045 1003.54 425.931 1003.97 427.036C1004.39 428.141 1004.61 429.501 1004.61 431.117V432.244H991.261V429.945H1001.9C1001.9 428.968 1001.71 428.096 1001.32 427.329C1000.93 426.563 1000.38 425.958 999.67 425.514C998.964 425.071 998.13 424.849 997.168 424.849C996.108 424.849 995.191 425.112 994.417 425.638C993.65 426.157 993.06 426.833 992.647 427.667C992.234 428.502 992.027 429.396 992.027 430.35V431.884C992.027 433.191 992.253 434.3 992.703 435.209C993.162 436.111 993.797 436.798 994.609 437.272C995.42 437.738 996.363 437.971 997.438 437.971C998.137 437.971 998.768 437.873 999.332 437.678C999.903 437.475 1000.4 437.174 1000.81 436.776C1001.22 436.37 1001.54 435.867 1001.77 435.265L1004.34 435.987C1004.07 436.859 1003.61 437.625 1002.97 438.287C1002.33 438.94 1001.55 439.451 1000.61 439.82C999.666 440.18 998.61 440.361 997.438 440.361ZM1020.92 426.563L1018.53 427.239C1018.38 426.841 1018.16 426.454 1017.86 426.078C1017.58 425.695 1017.19 425.379 1016.69 425.131C1016.2 424.883 1015.56 424.759 1014.79 424.759C1013.73 424.759 1012.84 425.003 1012.14 425.492C1011.44 425.973 1011.09 426.585 1011.09 427.329C1011.09 427.991 1011.33 428.513 1011.81 428.896C1012.29 429.279 1013.04 429.599 1014.07 429.854L1016.64 430.486C1018.18 430.861 1019.34 431.436 1020.1 432.21C1020.86 432.977 1021.24 433.965 1021.24 435.175C1021.24 436.167 1020.95 437.054 1020.38 437.836C1019.81 438.617 1019.03 439.233 1018.01 439.684C1017 440.135 1015.82 440.361 1014.47 440.361C1012.71 440.361 1011.24 439.977 1010.09 439.211C1008.93 438.444 1008.2 437.325 1007.89 435.852L1010.41 435.22C1010.65 436.152 1011.11 436.851 1011.78 437.317C1012.45 437.783 1013.34 438.016 1014.43 438.016C1015.67 438.016 1016.65 437.753 1017.38 437.227C1018.12 436.693 1018.48 436.054 1018.48 435.31C1018.48 434.709 1018.27 434.206 1017.85 433.8C1017.43 433.387 1016.79 433.078 1015.91 432.876L1013.03 432.199C1011.44 431.823 1010.28 431.241 1009.53 430.452C1008.8 429.655 1008.43 428.659 1008.43 427.465C1008.43 426.488 1008.7 425.623 1009.25 424.872C1009.81 424.12 1010.56 423.53 1011.52 423.102C1012.48 422.674 1013.57 422.459 1014.79 422.459C1016.5 422.459 1017.85 422.835 1018.82 423.587C1019.81 424.338 1020.51 425.33 1020.92 426.563ZM1037.5 426.563L1035.11 427.239C1034.96 426.841 1034.74 426.454 1034.45 426.078C1034.16 425.695 1033.77 425.379 1033.28 425.131C1032.78 424.883 1032.15 424.759 1031.37 424.759C1030.31 424.759 1029.43 425.003 1028.72 425.492C1028.02 425.973 1027.67 426.585 1027.67 427.329C1027.67 427.991 1027.92 428.513 1028.4 428.896C1028.88 429.279 1029.63 429.599 1030.65 429.854L1033.22 430.486C1034.77 430.861 1035.92 431.436 1036.68 432.21C1037.44 432.977 1037.82 433.965 1037.82 435.175C1037.82 436.167 1037.53 437.054 1036.96 437.836C1036.4 438.617 1035.61 439.233 1034.6 439.684C1033.58 440.135 1032.4 440.361 1031.06 440.361C1029.29 440.361 1027.83 439.977 1026.67 439.211C1025.51 438.444 1024.78 437.325 1024.47 435.852L1027 435.22C1027.24 436.152 1027.69 436.851 1028.36 437.317C1029.04 437.783 1029.92 438.016 1031.01 438.016C1032.25 438.016 1033.24 437.753 1033.97 437.227C1034.7 436.693 1035.07 436.054 1035.07 435.31C1035.07 434.709 1034.86 434.206 1034.44 433.8C1034.02 433.387 1033.37 433.078 1032.5 432.876L1029.61 432.199C1028.03 431.823 1026.86 431.241 1026.12 430.452C1025.38 429.655 1025.01 428.659 1025.01 427.465C1025.01 426.488 1025.29 425.623 1025.84 424.872C1026.39 424.12 1027.15 423.53 1028.1 423.102C1029.07 422.674 1030.15 422.459 1031.37 422.459C1033.09 422.459 1034.43 422.835 1035.41 423.587C1036.39 424.338 1037.09 425.33 1037.5 426.563ZM1057.79 440.361C1056.16 440.361 1054.77 439.977 1053.59 439.211C1052.42 438.444 1051.52 437.388 1050.89 436.043C1050.26 434.698 1049.94 433.161 1049.94 431.433C1049.94 429.674 1050.26 428.122 1050.91 426.777C1051.56 425.424 1052.47 424.368 1053.64 423.609C1054.81 422.843 1056.18 422.459 1057.74 422.459C1058.96 422.459 1060.06 422.685 1061.03 423.136C1062.01 423.587 1062.81 424.218 1063.44 425.03C1064.06 425.841 1064.45 426.788 1064.6 427.87H1061.94C1061.73 427.081 1061.28 426.382 1060.58 425.774C1059.89 425.157 1058.96 424.849 1057.79 424.849C1056.75 424.849 1055.84 425.12 1055.06 425.661C1054.29 426.194 1053.68 426.95 1053.24 427.927C1052.82 428.896 1052.6 430.035 1052.6 431.342C1052.6 432.68 1052.81 433.845 1053.23 434.837C1053.66 435.829 1054.26 436.599 1055.04 437.148C1055.82 437.697 1056.74 437.971 1057.79 437.971C1058.48 437.971 1059.11 437.851 1059.67 437.61C1060.23 437.37 1060.71 437.024 1061.1 436.573C1061.49 436.122 1061.77 435.581 1061.94 434.95H1064.6C1064.45 435.972 1064.07 436.892 1063.48 437.712C1062.89 438.523 1062.12 439.17 1061.15 439.651C1060.18 440.124 1059.07 440.361 1057.79 440.361ZM1075.75 440.361C1074.08 440.361 1072.64 439.992 1071.43 439.256C1070.23 438.512 1069.3 437.475 1068.64 436.145C1068 434.807 1067.67 433.251 1067.67 431.478C1067.67 429.704 1068 428.141 1068.64 426.788C1069.3 425.428 1070.21 424.368 1071.37 423.609C1072.54 422.843 1073.91 422.459 1075.47 422.459C1076.38 422.459 1077.27 422.61 1078.15 422.91C1079.03 423.211 1079.83 423.699 1080.55 424.376C1081.27 425.045 1081.84 425.931 1082.27 427.036C1082.7 428.141 1082.91 429.501 1082.91 431.117V432.244H1069.57V429.945H1080.21C1080.21 428.968 1080.01 428.096 1079.62 427.329C1079.24 426.563 1078.69 425.958 1077.98 425.514C1077.27 425.071 1076.44 424.849 1075.47 424.849C1074.42 424.849 1073.5 425.112 1072.72 425.638C1071.96 426.157 1071.37 426.833 1070.95 427.667C1070.54 428.502 1070.33 429.396 1070.33 430.35V431.884C1070.33 433.191 1070.56 434.3 1071.01 435.209C1071.47 436.111 1072.1 436.798 1072.92 437.272C1073.73 437.738 1074.67 437.971 1075.75 437.971C1076.44 437.971 1077.08 437.873 1077.64 437.678C1078.21 437.475 1078.7 437.174 1079.12 436.776C1079.53 436.37 1079.85 435.867 1080.07 435.265L1082.64 435.987C1082.37 436.859 1081.92 437.625 1081.28 438.287C1080.64 438.94 1079.85 439.451 1078.91 439.82C1077.97 440.18 1076.92 440.361 1075.75 440.361ZM1089.62 416.913V440H1086.96V416.913H1089.62ZM1097.16 416.913V440H1094.49V416.913H1097.16ZM1112.94 432.921V422.685H1115.6V440H1112.94V437.069H1112.76C1112.35 437.948 1111.72 438.696 1110.87 439.312C1110.01 439.921 1108.93 440.225 1107.62 440.225C1106.54 440.225 1105.58 439.989 1104.73 439.515C1103.89 439.034 1103.23 438.313 1102.75 437.351C1102.27 436.381 1102.03 435.16 1102.03 433.687V422.685H1104.69V433.507C1104.69 434.769 1105.04 435.776 1105.75 436.528C1106.46 437.279 1107.37 437.655 1108.48 437.655C1109.14 437.655 1109.81 437.486 1110.49 437.148C1111.19 436.81 1111.76 436.291 1112.23 435.592C1112.7 434.893 1112.94 434.003 1112.94 432.921ZM1123.13 416.913V440H1120.47V416.913H1123.13ZM1133.1 440.406C1132 440.406 1131.01 440.199 1130.11 439.786C1129.22 439.365 1128.51 438.76 1127.98 437.971C1127.46 437.174 1127.19 436.212 1127.19 435.085C1127.19 434.093 1127.39 433.289 1127.78 432.673C1128.17 432.049 1128.69 431.56 1129.35 431.207C1130 430.854 1130.72 430.591 1131.51 430.418C1132.31 430.238 1133.11 430.095 1133.91 429.99C1134.97 429.854 1135.82 429.753 1136.47 429.685C1137.13 429.61 1137.61 429.486 1137.92 429.313C1138.22 429.14 1138.38 428.84 1138.38 428.411V428.321C1138.38 427.209 1138.07 426.345 1137.46 425.729C1136.86 425.112 1135.95 424.804 1134.73 424.804C1133.46 424.804 1132.46 425.082 1131.74 425.638C1131.02 426.194 1130.51 426.788 1130.22 427.419L1127.69 426.518C1128.14 425.465 1128.74 424.646 1129.49 424.06C1130.25 423.466 1131.08 423.053 1131.97 422.82C1132.88 422.58 1133.76 422.459 1134.63 422.459C1135.19 422.459 1135.83 422.527 1136.55 422.662C1137.28 422.79 1137.98 423.057 1138.66 423.463C1139.34 423.868 1139.91 424.481 1140.36 425.3C1140.81 426.119 1141.04 427.217 1141.04 428.592V440H1138.38V437.655H1138.24C1138.06 438.031 1137.76 438.433 1137.34 438.861C1136.92 439.29 1136.36 439.654 1135.66 439.955C1134.96 440.256 1134.11 440.406 1133.1 440.406ZM1133.51 438.016C1134.56 438.016 1135.45 437.809 1136.17 437.396C1136.9 436.983 1137.45 436.449 1137.81 435.795C1138.19 435.141 1138.38 434.454 1138.38 433.732V431.297C1138.26 431.433 1138.02 431.557 1137.63 431.669C1137.26 431.775 1136.82 431.868 1136.33 431.951C1135.84 432.026 1135.36 432.094 1134.89 432.154C1134.44 432.207 1134.06 432.252 1133.78 432.289C1133.09 432.38 1132.44 432.526 1131.84 432.729C1131.25 432.924 1130.76 433.221 1130.4 433.62C1130.04 434.01 1129.86 434.544 1129.86 435.22C1129.86 436.145 1130.2 436.844 1130.88 437.317C1131.57 437.783 1132.45 438.016 1133.51 438.016ZM1145.89 440V422.685H1148.46V425.3H1148.64C1148.96 424.443 1149.53 423.748 1150.36 423.215C1151.18 422.681 1152.12 422.414 1153.15 422.414C1153.35 422.414 1153.59 422.418 1153.89 422.426C1154.18 422.433 1154.4 422.444 1154.55 422.459V425.165C1154.46 425.142 1154.25 425.108 1153.93 425.063C1153.62 425.011 1153.28 424.984 1152.93 424.984C1152.09 424.984 1151.33 425.161 1150.67 425.514C1150.02 425.86 1149.5 426.341 1149.12 426.957C1148.74 427.566 1148.55 428.261 1148.55 429.043V440H1145.89ZM1173.17 440.361C1171.73 440.361 1170.45 439.996 1169.35 439.267C1168.25 438.531 1167.38 437.494 1166.76 436.156C1166.13 434.811 1165.82 433.221 1165.82 431.388C1165.82 429.569 1166.13 427.991 1166.76 426.653C1167.38 425.315 1168.25 424.282 1169.36 423.553C1170.47 422.824 1171.76 422.459 1173.22 422.459C1174.34 422.459 1175.23 422.647 1175.89 423.023C1176.55 423.391 1177.05 423.812 1177.4 424.286C1177.75 424.752 1178.03 425.135 1178.22 425.435H1178.45V416.913H1181.11V440H1178.54V437.34H1178.22C1178.03 437.655 1177.75 438.054 1177.39 438.535C1177.03 439.008 1176.51 439.433 1175.84 439.808C1175.17 440.177 1174.28 440.361 1173.17 440.361ZM1173.53 437.971C1174.6 437.971 1175.5 437.693 1176.24 437.137C1176.97 436.573 1177.53 435.795 1177.92 434.803C1178.3 433.804 1178.49 432.65 1178.49 431.342C1178.49 430.05 1178.3 428.919 1177.93 427.949C1177.55 426.972 1177 426.213 1176.26 425.672C1175.52 425.124 1174.61 424.849 1173.53 424.849C1172.4 424.849 1171.47 425.139 1170.71 425.717C1169.97 426.288 1169.41 427.066 1169.03 428.051C1168.67 429.028 1168.48 430.125 1168.48 431.342C1168.48 432.575 1168.67 433.695 1169.05 434.702C1169.43 435.701 1169.99 436.498 1170.74 437.092C1171.49 437.678 1172.42 437.971 1173.53 437.971ZM1191.44 440.406C1190.35 440.406 1189.35 440.199 1188.46 439.786C1187.56 439.365 1186.85 438.76 1186.33 437.971C1185.8 437.174 1185.54 436.212 1185.54 435.085C1185.54 434.093 1185.73 433.289 1186.12 432.673C1186.51 432.049 1187.04 431.56 1187.69 431.207C1188.34 430.854 1189.07 430.591 1189.86 430.418C1190.65 430.238 1191.45 430.095 1192.26 429.99C1193.31 429.854 1194.16 429.753 1194.82 429.685C1195.48 429.61 1195.96 429.486 1196.26 429.313C1196.57 429.14 1196.72 428.84 1196.72 428.411V428.321C1196.72 427.209 1196.42 426.345 1195.81 425.729C1195.21 425.112 1194.29 424.804 1193.07 424.804C1191.8 424.804 1190.8 425.082 1190.08 425.638C1189.36 426.194 1188.85 426.788 1188.56 427.419L1186.03 426.518C1186.48 425.465 1187.09 424.646 1187.84 424.06C1188.6 423.466 1189.42 423.053 1190.32 422.82C1191.22 422.58 1192.11 422.459 1192.98 422.459C1193.53 422.459 1194.17 422.527 1194.89 422.662C1195.62 422.79 1196.33 423.057 1197 423.463C1197.69 423.868 1198.25 424.481 1198.7 425.3C1199.16 426.119 1199.38 427.217 1199.38 428.592V440H1196.72V437.655H1196.59C1196.4 438.031 1196.1 438.433 1195.68 438.861C1195.26 439.29 1194.7 439.654 1194 439.955C1193.3 440.256 1192.45 440.406 1191.44 440.406ZM1191.85 438.016C1192.9 438.016 1193.79 437.809 1194.51 437.396C1195.24 436.983 1195.79 436.449 1196.16 435.795C1196.53 435.141 1196.72 434.454 1196.72 433.732V431.297C1196.61 431.433 1196.36 431.557 1195.98 431.669C1195.6 431.775 1195.16 431.868 1194.67 431.951C1194.18 432.026 1193.7 432.094 1193.24 432.154C1192.78 432.207 1192.41 432.252 1192.12 432.289C1191.43 432.38 1190.78 432.526 1190.18 432.729C1189.59 432.924 1189.11 433.221 1188.74 433.62C1188.38 434.01 1188.2 434.544 1188.2 435.22C1188.2 436.145 1188.54 436.844 1189.22 437.317C1189.92 437.783 1190.79 438.016 1191.85 438.016ZM1211.77 422.685V424.939H1202.79V422.685H1211.77ZM1205.41 418.536H1208.07V435.04C1208.07 435.791 1208.18 436.355 1208.4 436.731C1208.62 437.099 1208.91 437.347 1209.25 437.475C1209.61 437.595 1209.98 437.655 1210.37 437.655C1210.66 437.655 1210.9 437.64 1211.09 437.61C1211.28 437.573 1211.43 437.543 1211.54 437.52L1212.08 439.91C1211.9 439.977 1211.65 440.045 1211.33 440.113C1211 440.188 1210.59 440.225 1210.1 440.225C1209.35 440.225 1208.61 440.064 1207.89 439.741C1207.18 439.418 1206.58 438.925 1206.11 438.264C1205.64 437.603 1205.41 436.768 1205.41 435.761V418.536ZM1220.86 440.406C1219.77 440.406 1218.77 440.199 1217.88 439.786C1216.98 439.365 1216.27 438.76 1215.75 437.971C1215.22 437.174 1214.96 436.212 1214.96 435.085C1214.96 434.093 1215.15 433.289 1215.54 432.673C1215.93 432.049 1216.46 431.56 1217.11 431.207C1217.76 430.854 1218.49 430.591 1219.27 430.418C1220.07 430.238 1220.87 430.095 1221.68 429.99C1222.73 429.854 1223.58 429.753 1224.23 429.685C1224.9 429.61 1225.38 429.486 1225.68 429.313C1225.99 429.14 1226.14 428.84 1226.14 428.411V428.321C1226.14 427.209 1225.84 426.345 1225.23 425.729C1224.63 425.112 1223.71 424.804 1222.49 424.804C1221.22 424.804 1220.22 425.082 1219.5 425.638C1218.78 426.194 1218.27 426.788 1217.98 427.419L1215.45 426.518C1215.9 425.465 1216.51 424.646 1217.26 424.06C1218.02 423.466 1218.84 423.053 1219.74 422.82C1220.64 422.58 1221.53 422.459 1222.4 422.459C1222.95 422.459 1223.59 422.527 1224.31 422.662C1225.04 422.79 1225.75 423.057 1226.42 423.463C1227.11 423.868 1227.67 424.481 1228.12 425.3C1228.57 426.119 1228.8 427.217 1228.8 428.592V440H1226.14V437.655H1226C1225.82 438.031 1225.52 438.433 1225.1 438.861C1224.68 439.29 1224.12 439.654 1223.42 439.955C1222.72 440.256 1221.87 440.406 1220.86 440.406ZM1221.27 438.016C1222.32 438.016 1223.21 437.809 1223.93 437.396C1224.66 436.983 1225.21 436.449 1225.58 435.795C1225.95 435.141 1226.14 434.454 1226.14 433.732V431.297C1226.03 431.433 1225.78 431.557 1225.4 431.669C1225.02 431.775 1224.58 431.868 1224.09 431.951C1223.6 432.026 1223.12 432.094 1222.66 432.154C1222.2 432.207 1221.83 432.252 1221.54 432.289C1220.85 432.38 1220.2 432.526 1219.6 432.729C1219.01 432.924 1218.53 433.221 1218.16 433.62C1217.8 434.01 1217.62 434.544 1217.62 435.22C1217.62 436.145 1217.96 436.844 1218.64 437.317C1219.33 437.783 1220.21 438.016 1221.27 438.016ZM1235.6 440.18C1235.04 440.18 1234.56 439.981 1234.16 439.583C1233.77 439.185 1233.57 438.707 1233.57 438.151C1233.57 437.595 1233.77 437.118 1234.16 436.72C1234.56 436.321 1235.04 436.122 1235.6 436.122C1236.15 436.122 1236.63 436.321 1237.03 436.72C1237.43 437.118 1237.62 437.595 1237.62 438.151C1237.62 438.519 1237.53 438.858 1237.34 439.166C1237.16 439.474 1236.92 439.722 1236.61 439.91C1236.31 440.09 1235.97 440.18 1235.6 440.18Z" fill="#3F3F46"/>
<circle cx="340.724" cy="616.901" r="17.9885" fill="#F1F5F9"/>
<rect x="398.922" y="595.738" width="713.193" height="42.326" rx="8.4652" fill="#F1F5F9"/>
<path d="M1107.88 668.75H322.735V670.867H1107.88V668.75Z" fill="#F1F5F9" mask="url(#path-17-inside-3_652_1552)"/>
<circle cx="340.724" cy="768.217" r="17.9885" fill="#F1F5F9"/>
<rect x="398.922" y="747.053" width="713.193" height="42.326" rx="8.4652" fill="#F1F5F9"/>
<path d="M1107.88 820.066H322.735V822.182H1107.88V820.066Z" fill="#F1F5F9" mask="url(#path-21-inside-4_652_1552)"/>
<circle cx="340.724" cy="919.532" r="17.9885" fill="#F1F5F9"/>
<rect x="398.922" y="898.369" width="713.193" height="42.326" rx="8.4652" fill="#F1F5F9"/>
<path d="M296.282 267.712C296.282 257.777 304.335 249.723 314.27 249.723H1202.06L1199.94 251.839H314.27C305.504 251.839 298.398 258.946 298.398 267.712L296.282 267.712ZM1201 956.567H297.34H1201ZM296.282 956.567V267.712C296.282 257.777 304.335 249.723 314.27 249.723L314.27 251.839C305.504 251.839 298.398 258.946 298.398 267.712V956.567H296.282ZM1202.06 249.723V956.567H1199.94V251.839L1202.06 249.723Z" fill="#E2E8F0" mask="url(#path-10-inside-1_652_1552)"/>
</g>
</g>
</g>
</g>
<defs>
<filter id="filter0_dd_652_1552" x="64.547" y="95.2334" width="1157.62" height="899.427" filterUnits="userSpaceOnUse" color-interpolation-filters="sRGB">
<feFlood flood-opacity="0" result="BackgroundImageFix"/>
<feColorMatrix in="SourceAlpha" type="matrix" values="0 0 0 0 0 0 0 0 0 0 0 0 0 0 0 0 0 0 127 0" result="hardAlpha"/>
<feMorphology radius="5.29075" operator="erode" in="SourceAlpha" result="effect1_dropShadow_652_1552"/>
<feOffset dy="10.5815"/>
<feGaussianBlur stdDeviation="5.29075"/>
<feColorMatrix type="matrix" values="0 0 0 0 0 0 0 0 0 0 0 0 0 0 0 0 0 0 0.04 0"/>
<feBlend mode="normal" in2="BackgroundImageFix" result="effect1_dropShadow_652_1552"/>
<feColorMatrix in="SourceAlpha" type="matrix" values="0 0 0 0 0 0 0 0 0 0 0 0 0 0 0 0 0 0 127 0" result="hardAlpha"/>
<feMorphology radius="5.29075" operator="erode" in="SourceAlpha" result="effect2_dropShadow_652_1552"/>
<feOffset dy="21.163"/>
<feGaussianBlur stdDeviation="13.2269"/>
<feColorMatrix type="matrix" values="0 0 0 0 0 0 0 0 0 0 0 0 0 0 0 0 0 0 0.1 0"/>
<feBlend mode="normal" in2="effect1_dropShadow_652_1552" result="effect2_dropShadow_652_1552"/>
<feBlend mode="normal" in="SourceGraphic" in2="effect2_dropShadow_652_1552" result="shape"/>
</filter>
<clipPath id="clip0_652_1552">
<rect width="1201" height="952.335" fill="white"/>
</clipPath>
<clipPath id="clip1_652_1552">
<path d="M85.71 120.629C85.71 106.603 97.08 95.2334 111.106 95.2334H1201V952.335H85.71V120.629Z" fill="white"/>
</clipPath>
<clipPath id="clip2_652_1552">
<rect width="1115.29" height="780.915" fill="white" transform="translate(85.71 171.42)"/>
</clipPath>
</defs>
</svg>
