<svg version="1.1" xmlns="http://www.w3.org/2000/svg" viewBox="0 0 1282.2094497680664 293.21409940620885" width="2564.418899536133" height="586.4281988124177">
  <!-- svg-source:excalidraw -->
  
  <defs>
    <style class="style-fonts">
      @font-face {
        font-family: "Virgil";
        src: url("https://excalidraw.com/Virgil.woff2");
      }
      @font-face {
        font-family: "Cascadia";
        src: url("https://excalidraw.com/Cascadia.woff2");
      }
    </style>
  </defs>
  <g stroke-linecap="round"><g transform="translate(43.80859375 132.33519315620885) rotate(0 600.691756836921 -1.8183906639692964)"><path d="M0.52 -0.81 C200.58 -0.32, 998.95 0.05, 1198.95 0.58 M-2.65 -3.71 C198.39 -3.92, 1003.88 -4.43, 1204.03 -4.12" stroke="#1e1e1e" stroke-width="4" fill="none"></path></g><g transform="translate(43.80859375 132.33519315620885) rotate(0 600.691756836921 -1.8183906639692964)"><path d="M-0.33 -18.42 C0.9 -13, 2.83 -10.05, 0.53 -2.75 M1.62 -15.27 C1.44 -8.83, 1.36 -3.84, -0.01 -1.42" stroke="#1e1e1e" stroke-width="4" fill="none"></path></g><g transform="translate(43.80859375 132.33519315620885) rotate(0 600.691756836921 -1.8183906639692964)"><path d="M-0.36 11.58 C1.37 9.51, 3.31 4.96, 0.53 -2.75 M1.59 14.73 C1.89 9.34, 1.82 2.49, -0.01 -1.42" stroke="#1e1e1e" stroke-width="4" fill="none"></path></g><g transform="translate(43.80859375 132.33519315620885) rotate(0 600.691756836921 -1.8183906639692964)"><path d="M1203.16 8.27 C1204.9 6.2, 1206.83 1.65, 1204.04 -6.06 M1205.11 11.42 C1205.41 6.03, 1205.33 -0.82, 1203.51 -4.73" stroke="#1e1e1e" stroke-width="4" fill="none"></path></g><g transform="translate(43.80859375 132.33519315620885) rotate(0 600.691756836921 -1.8183906639692964)"><path d="M1203.17 -21.73 C1204.4 -16.31, 1206.33 -13.36, 1204.04 -6.06 M1205.12 -18.58 C1204.95 -12.14, 1204.87 -7.15, 1203.51 -4.73" stroke="#1e1e1e" stroke-width="4" fill="none"></path></g></g><mask></mask><g stroke-linecap="round" transform="translate(122.43359375 107.52855253120885) rotate(0 142.736328125 20.80859375)"><path d="M13.2 -1.26 L278.99 3.79 L276.22 3.94 L284.71 7.56 L285.99 33.56 L286.76 35.4 L272.09 41.43 L10.04 44.11 L5.67 36.13 L-2.66 31.42 L-1.23 7 L4.33 1.78 L6.54 0.35" stroke="none" stroke-width="0" fill="#fab005"></path><path d="M10.4 0 M10.4 0 C113.49 0.83, 224.37 0.48, 275.07 0 M10.4 0 C72.73 1.07, 135.67 1.84, 275.07 0 M275.07 0 C282.54 -2.54, 285.04 3.66, 285.47 10.4 M275.07 0 C280.03 -0.99, 288.8 0.79, 285.47 10.4 M285.47 10.4 C287.74 19.18, 286.52 25.33, 285.47 31.21 M285.47 10.4 C283.87 20.09, 284.14 27, 285.47 31.21 M285.47 31.21 C281.78 34.98, 280.17 39.05, 275.07 41.62 M285.47 31.21 C290.06 34.13, 283.38 41.24, 275.07 41.62 M275.07 41.62 C209.03 42.76, 147.46 42, 10.4 41.62 M275.07 41.62 C199.31 45.72, 124.38 45.07, 10.4 41.62 M10.4 41.62 C4.85 40.11, 1.12 36.24, 0 31.21 M10.4 41.62 C5.19 42.18, -2.1 41.14, 0 31.21 M0 31.21 C2.6 25.85, 2.75 19.68, 0 10.4 M0 31.21 C1.13 22.77, -0.07 19.29, 0 10.4 M0 10.4 C-1.34 6.39, 4.26 -3.33, 10.4 0 M0 10.4 C1.91 1.91, 3.61 2.36, 10.4 0" stroke="#1e1e1e" stroke-width="4" fill="none"></path></g><g transform="translate(23.46875 62.885974406208845) rotate(0 10.331993103027344 22.5)"><text x="0" y="0" font-family="Virgil, Segoe UI Emoji" font-size="36px" fill="transparent" text-anchor="start" style="white-space: pre;" direction="ltr" dominant-baseline="text-before-edge">F</text></g><g transform="translate(10 67.96214628120885) rotate(0 33.821983337402344 22.5)"><text x="0" y="0" font-family="Virgil, Segoe UI Emoji" font-size="36px" fill="#1e1e1e" text-anchor="start" style="white-space: pre;" direction="ltr" dominant-baseline="text-before-edge">FCP</text></g><g transform="translate(1194.7014541625977 67.96214628120885) rotate(0 38.753997802734375 22.5)"><text x="0" y="0" font-family="Virgil, Segoe UI Emoji" font-size="36px" fill="#1e1e1e" text-anchor="start" style="white-space: pre;" direction="ltr" dominant-baseline="text-before-edge">TTI</text></g><g stroke-linecap="round"><g transform="translate(125.16796875 63.25033995872042) rotate(0 141.65303011834618 0.23988956511018955)"><path d="M-2.25 2.65 C45.25 2.17, 237.91 -2.05, 285.55 -2.17 M1.73 1.62 C48.79 1.36, 235.31 0.98, 283.24 0.28" stroke="#1e1e1e" stroke-width="4" fill="none"></path></g><g transform="translate(125.16796875 63.25033995872042) rotate(0 141.65303011834618 0.23988956511018955)"><path d="M0.33 -12.49 C-4.68 -9.73, -0.21 -0.17, -3.38 2.93 M-2.74 -13.51 C-1.9 -8.85, -3.09 -2.1, -1.88 2.09" stroke="#1e1e1e" stroke-width="4" fill="none"></path></g><g transform="translate(125.16796875 63.25033995872042) rotate(0 141.65303011834618 0.23988956511018955)"><path d="M0.86 17.51 C-4.47 10.65, -0.18 10.61, -3.38 2.93 M-2.2 16.48 C-2 11.25, -3.37 8.09, -1.88 2.09" stroke="#1e1e1e" stroke-width="4" fill="none"></path></g><g transform="translate(125.16796875 63.25033995872042) rotate(0 141.65303011834618 0.23988956511018955)"><path d="M286.2 15.14 C280.91 8.27, 285.25 8.23, 282.11 0.56 M283.13 14.11 C283.38 8.87, 282.07 5.72, 283.61 -0.28" stroke="#1e1e1e" stroke-width="4" fill="none"></path></g><g transform="translate(125.16796875 63.25033995872042) rotate(0 141.65303011834618 0.23988956511018955)"><path d="M285.97 -14.86 C280.92 -12.12, 285.33 -2.55, 282.11 0.56 M282.91 -15.89 C283.7 -11.22, 282.46 -4.47, 283.61 -0.28" stroke="#1e1e1e" stroke-width="4" fill="none"></path></g></g><mask></mask><g transform="translate(210.49901553094378 10) rotate(0 56.321983337402344 22.5)"><text x="0" y="0" font-family="Virgil, Segoe UI Emoji" font-size="36px" fill="#1e1e1e" text-anchor="start" style="white-space: pre;" direction="ltr" dominant-baseline="text-before-edge">80 ms</text></g><g transform="translate(426.2273403330146 238.21409940620885) rotate(0 177.31793212890625 22.5)"><text x="0" y="0" font-family="Virgil, Segoe UI Emoji" font-size="36px" fill="#1e1e1e" text-anchor="start" style="white-space: pre;" direction="ltr" dominant-baseline="text-before-edge">Main thread timeline</text></g><g stroke-linecap="round" transform="translate(522.630859375 107.52855253120885) rotate(0 52.015625 20.80859375)"><path d="M6.43 -1.14 L99.7 -0.73 L103.09 7.46 L100.17 38.93 L100.8 42.46 L95.33 44.24 L2.07 42.4 L1.63 38.42 L-1.53 12.25 L0.43 1.02 L8.24 0.63" stroke="none" stroke-width="0" fill="#fab005"></path><path d="M10.4 0 M10.4 0 C32.32 1.03, 53.12 1.71, 93.63 0 M10.4 0 C26.47 -0.48, 46.14 0.37, 93.63 0 M93.63 0 C99.69 2.39, 104.99 4.52, 104.03 10.4 M93.63 0 C103.4 2.65, 102.48 5.41, 104.03 10.4 M104.03 10.4 C102.2 14.02, 102.63 24.53, 104.03 31.21 M104.03 10.4 C105.81 14.03, 106 20.22, 104.03 31.21 M104.03 31.21 C102.5 36.39, 102.1 38.76, 93.63 41.62 M104.03 31.21 C103.45 39.24, 103.5 38.7, 93.63 41.62 M93.63 41.62 C69.6 44.68, 42.44 44.6, 10.4 41.62 M93.63 41.62 C62.2 42.08, 31.07 40.72, 10.4 41.62 M10.4 41.62 C0.63 41.52, -1.16 41.02, 0 31.21 M10.4 41.62 C0.03 42.91, -4.45 42.49, 0 31.21 M0 31.21 C-2 23.39, 1.87 24.59, 0 10.4 M0 31.21 C1.11 27.52, 0.82 21.45, 0 10.4 M0 10.4 C-2.44 6.92, 2.13 -1.69, 10.4 0 M0 10.4 C-3.12 1.12, 7.04 -2.57, 10.4 0" stroke="#1e1e1e" stroke-width="4" fill="none"></path></g><g stroke-linecap="round"><g transform="translate(526.910193766877 64.24218665619986) rotate(0 50.43718019552534 -0.7519571323692844)"><path d="M-1.69 -2.52 C14.91 -2.6, 80.83 0.61, 97.28 0.8 M2.59 2.28 C20.27 1.2, 85.9 -3.56, 102.56 -3.78" stroke="#1e1e1e" stroke-width="4" fill="none"></path></g><g transform="translate(526.910193766877 64.24218665619986) rotate(0 50.43718019552534 -0.7519571323692844)"><path d="M-3.88 -19.72 C-0.3 -16.74, -2.77 -12.71, -1.85 -5.51 M-1.45 -16.54 C-2.63 -13.26, -2.62 -8.98, -2.2 -1.68" stroke="#1e1e1e" stroke-width="4" fill="none"></path></g><g transform="translate(526.910193766877 64.24218665619986) rotate(0 50.43718019552534 -0.7519571323692844)"><path d="M-4.9 10.26 C-1.37 6.73, -3.62 4.23, -1.85 -5.51 M-2.47 13.45 C-3.54 8.35, -3.24 4.26, -2.2 -1.68" stroke="#1e1e1e" stroke-width="4" fill="none"></path></g><g transform="translate(526.910193766877 64.24218665619986) rotate(0 50.43718019552534 -0.7519571323692844)"><path d="M100.57 8.99 C103.83 5.45, 101.32 2.95, 102.41 -6.77 M103 12.18 C101.6 7.08, 101.55 2.98, 102.05 -2.94" stroke="#1e1e1e" stroke-width="4" fill="none"></path></g><g transform="translate(526.910193766877 64.24218665619986) rotate(0 50.43718019552534 -0.7519571323692844)"><path d="M99.16 -20.98 C103 -17.98, 100.8 -13.95, 102.41 -6.77 M101.59 -17.79 C100.75 -14.5, 101.1 -10.22, 102.05 -2.94" stroke="#1e1e1e" stroke-width="4" fill="none"></path></g></g><mask></mask><g transform="translate(522.5373916625977 10) rotate(0 54.80998229980469 22.5)"><text x="0" y="0" font-family="Virgil, Segoe UI Emoji" font-size="36px" fill="#1e1e1e" text-anchor="start" style="white-space: pre;" direction="ltr" dominant-baseline="text-before-edge">30 ms</text></g><g stroke-linecap="round" transform="translate(768.853515625 106.38792753120885) rotate(0 184.6484375 20.80859375)"><path d="M8.92 3.11 L359.66 -3.69 L363.25 3.37 L365.87 3.79 L366.76 27.46 L363.5 36.56 L355.28 40.03 L9.59 44.7 L1.61 41.45 L1.52 32.22 L-2.13 1.87 L1.07 -1.1 L6.86 1.37" stroke="none" stroke-width="0" fill="#fab005"></path><path d="M10.4 0 M10.4 0 C101.43 -0.61, 190.41 -0.14, 358.89 0 M10.4 0 C86.77 4.17, 163.31 3.53, 358.89 0 M358.89 0 C366.14 0.22, 366.08 5.13, 369.3 10.4 M358.89 0 C363.9 -3.34, 366.31 4.91, 369.3 10.4 M369.3 10.4 C368.16 14.62, 368.42 27.41, 369.3 31.21 M369.3 10.4 C371.18 19.96, 371.18 27.46, 369.3 31.21 M369.3 31.21 C368.02 40.67, 366.01 41.88, 358.89 41.62 M369.3 31.21 C366.22 41.74, 362.27 37.06, 358.89 41.62 M358.89 41.62 C224.36 44.58, 86.72 42.46, 10.4 41.62 M358.89 41.62 C269.5 36.59, 180.28 37.56, 10.4 41.62 M10.4 41.62 C5.75 41.36, -2.02 41.28, 0 31.21 M10.4 41.62 C5.85 39.48, 0.67 36.95, 0 31.21 M0 31.21 C-3.11 22.47, 1.67 16.48, 0 10.4 M0 31.21 C-1.49 26.02, 1.2 18.59, 0 10.4 M0 10.4 C-3.13 0.35, 1.55 -2.3, 10.4 0 M0 10.4 C1.71 4.71, 5.08 -2.98, 10.4 0" stroke="#1e1e1e" stroke-width="4" fill="none"></path></g><g stroke-linecap="round"><g transform="translate(775.1555636316539 63.238444399249204) rotate(0 179.82964855581508 0.2517851245814029)"><path d="M-2.44 -2.3 C57.93 -2.31, 301.03 -1.04, 362.1 -0.75 M1.43 2.62 C61.51 3.08, 299.94 2.54, 360.3 2.47" stroke="#1e1e1e" stroke-width="4" fill="none"></path></g><g transform="translate(775.1555636316539 63.238444399249204) rotate(0 179.82964855581508 0.2517851245814029)"><path d="M-4.85 -16.44 C-3.28 -10.02, -3.13 -6.78, -4.17 -4.75 M-2.73 -16.51 C-2.33 -14.4, -3.44 -10.2, -2.09 -3.09" stroke="#1e1e1e" stroke-width="4" fill="none"></path></g><g transform="translate(775.1555636316539 63.238444399249204) rotate(0 179.82964855581508 0.2517851245814029)"><path d="M-4.97 13.56 C-3.22 11.11, -3.03 5.47, -4.17 -4.75 M-2.85 13.49 C-2.64 7.55, -3.72 3.71, -2.09 -3.09" stroke="#1e1e1e" stroke-width="4" fill="none"></path></g><g transform="translate(775.1555636316539 63.238444399249204) rotate(0 179.82964855581508 0.2517851245814029)"><path d="M357.85 18.33 C359.58 15.88, 359.74 10.24, 358.57 0.02 M359.97 18.26 C360.16 12.33, 359.06 8.48, 360.65 1.68" stroke="#1e1e1e" stroke-width="4" fill="none"></path></g><g transform="translate(775.1555636316539 63.238444399249204) rotate(0 179.82964855581508 0.2517851245814029)"><path d="M357.8 -11.67 C359.4 -5.25, 359.57 -2, 358.57 0.02 M359.92 -11.74 C360.35 -9.63, 359.25 -5.43, 360.65 1.68" stroke="#1e1e1e" stroke-width="4" fill="none"></path></g></g><mask></mask><g transform="translate(895.1712320849299 10) rotate(0 59.81398010253906 22.5)"><text x="0" y="0" font-family="Virgil, Segoe UI Emoji" font-size="36px" fill="#1e1e1e" text-anchor="start" style="white-space: pre;" direction="ltr" dominant-baseline="text-before-edge">100 ms</text></g><g stroke-opacity="0" fill-opacity="0" stroke-linecap="round" transform="translate(948.37890625 107.80394315620885) rotate(0 90.6015625 16.7890625)"><path d="M2.23 1.94 C2.23 1.94, 2.23 1.94, 2.23 1.94 M2.23 1.94 C2.23 1.94, 2.23 1.94, 2.23 1.94 M10.37 16.97 C14.65 13.97, 13.37 13.52, 18.25 7.91 M10.37 16.97 C11.94 14.23, 13.54 13.56, 18.25 7.91 M11.95 39.54 C17.93 27.47, 31.65 21.82, 38.85 8.6 M11.95 39.54 C20.17 30.73, 30.68 20.18, 38.85 8.6 M33.21 39.47 C39.87 31.33, 42.82 24.61, 60.11 8.53 M33.21 39.47 C39.72 31.12, 43.91 24.88, 60.11 8.53 M54.47 39.4 C64.63 28.77, 67.74 20.08, 81.37 8.46 M54.47 39.4 C58.1 31.57, 63.3 27.2, 81.37 8.46 M75.73 39.33 C83.87 27.81, 96.71 20.2, 102.63 8.39 M75.73 39.33 C84.01 26.64, 93.54 15.97, 102.63 8.39 M96.34 40.02 C105.51 31.73, 112.63 16.62, 123.89 8.32 M96.34 40.02 C105.17 31.2, 115.2 17.46, 123.89 8.32 M117.6 39.95 C129.48 28.64, 135.66 19.26, 144.5 9.01 M117.6 39.95 C128.26 27.91, 136.45 18.75, 144.5 9.01 M138.86 39.88 C142.45 35.44, 151.46 24.47, 165.76 8.94 M138.86 39.88 C146.48 30.7, 153.94 21.37, 165.76 8.94 M160.12 39.81 C174.26 28.94, 181.87 18.85, 186.36 9.62 M160.12 39.81 C165.88 32.13, 169.61 24.63, 186.36 9.62 M4.53 32.89 C4.53 32.89, 4.53 32.89, 4.53 32.89 M4.53 32.89 C4.53 32.89, 4.53 32.89, 4.53 32.89 M29.37 33.28 C21.04 30.1, 12.27 21.65, 0.69 8.35 M29.37 33.28 C19.7 24.4, 8.78 16.04, 0.69 8.35 M53.45 33.01 C43.36 21.62, 29.08 14.6, 11.19 -3.73 M53.45 33.01 C40.18 21.96, 28.44 10.57, 11.19 -3.73 M78.29 33.4 C64.95 26.13, 57.8 11.95, 36.03 -3.34 M78.29 33.4 C64.5 21.47, 48.78 12.07, 36.03 -3.34 M102.37 33.14 C86.27 15.84, 66.16 4.57, 60.11 -3.6 M102.37 33.14 C88.94 18.47, 71.89 7.65, 60.11 -3.6 M127.21 33.53 C118.93 21.92, 109.68 16.82, 84.94 -3.21 M127.21 33.53 C114.28 21.61, 99.01 8.5, 84.94 -3.21 M151.29 33.26 C140.07 23.99, 129.85 16.71, 109.02 -3.48 M151.29 33.26 C134.85 19.65, 118.95 2.45, 109.02 -3.48 M173.86 31.68 C162.39 20.12, 151 8.55, 133.86 -3.09 M173.86 31.68 C163.06 23.01, 155.83 14.61, 133.86 -3.09 M186.62 21.58 C173.38 11.37, 166.76 1.53, 157.94 -3.36 M186.62 21.58 C180.75 15.71, 175.08 11.95, 157.94 -3.36" stroke="#e03131" stroke-width="2" fill="none"></path><path d="M8.39 0 M8.39 0 C44.42 -2.19, 76 -4.4, 172.81 0 M8.39 0 C61.69 3.84, 116.23 2.42, 172.81 0 M172.81 0 C176.54 -3.74, 179.01 6.12, 181.2 8.39 M172.81 0 C177.52 1.15, 179.75 -1.23, 181.2 8.39 M181.2 8.39 C182.45 15.05, 180.57 21.19, 181.2 25.18 M181.2 8.39 C179.47 11.13, 179.56 16.67, 181.2 25.18 M181.2 25.18 C178.07 28.36, 181.29 31.4, 172.81 33.58 M181.2 25.18 C179.26 27.93, 174.58 36.11, 172.81 33.58 M172.81 33.58 C141.88 29.22, 108.29 32.92, 8.39 33.58 M172.81 33.58 C115.87 32.59, 56.69 33.85, 8.39 33.58 M8.39 33.58 C0.04 31.37, 1.79 27.97, 0 25.18 M8.39 33.58 C7.16 37.05, -3.44 30.85, 0 25.18 M0 25.18 C-0.03 20.16, 0.69 12.93, 0 8.39 M0 25.18 C0.44 21.64, 1.35 14.83, 0 8.39 M0 8.39 C2.54 1.79, 6.05 1.59, 8.39 0 M0 8.39 C-1.29 1.26, 0.97 -0.82, 8.39 0" stroke="transparent" stroke-width="4" fill="none"></path></g><g stroke-opacity="0" fill-opacity="0" stroke-linecap="round" transform="translate(264.6171875 110.26097440620885) rotate(0 66.4765625 16.607421875)"><path d="M2.21 1.92 C2.21 1.92, 2.21 1.92, 2.21 1.92 M2.21 1.92 C2.21 1.92, 2.21 1.92, 2.21 1.92 M10.35 16.95 C12.15 17.21, 12.83 11.97, 17.57 8.64 M10.35 16.95 C11.62 15.79, 12.95 13.36, 17.57 8.64 M11.93 39.52 C18.6 27.53, 33.77 18.43, 38.83 8.58 M11.93 39.52 C17.98 29.73, 26.46 23.41, 38.83 8.58 M33.19 39.45 C43.94 32.03, 45.93 23.06, 60.09 8.51 M33.19 39.45 C43.82 27.38, 54.13 16.25, 60.09 8.51 M54.45 39.38 C63.83 27.23, 65.7 18.06, 81.35 8.44 M54.45 39.38 C62.65 29.96, 67.78 21.71, 81.35 8.44 M75.71 39.31 C78.43 29.79, 82.97 26.01, 102.61 8.37 M75.71 39.31 C81.55 31.29, 84.39 25.27, 102.61 8.37 M96.97 39.24 C107.36 25.12, 121.26 13.49, 129.77 1.51 M96.97 39.24 C102.4 30.65, 112.5 21.85, 129.77 1.51 M117.57 39.93 C123.94 25.93, 132.15 19.45, 141.19 12.76 M117.57 39.93 C123.02 34.06, 131.51 23.75, 141.19 12.76 M4.69 32.71 C4.69 32.71, 4.69 32.71, 4.69 32.71 M4.69 32.71 C4.69 32.71, 4.69 32.71, 4.69 32.71 M29.53 33.1 C23.48 23.61, 12.2 23.8, 0.09 7.52 M29.53 33.1 C21.53 24.95, 13.06 15.98, 0.09 7.52 M53.61 32.84 C38.46 19.18, 19.4 8.32, 11.34 -3.9 M53.61 32.84 C45.84 22.66, 37.36 17.88, 11.34 -3.9 M78.44 33.23 C61.49 17.05, 51.12 3.17, 36.18 -3.51 M78.44 33.23 C64.47 19.24, 48.59 7.48, 36.18 -3.51 M102.53 32.96 C91.41 22.89, 75.05 9.54, 60.26 -3.78 M102.53 32.96 C87.87 20.08, 72.01 5.32, 60.26 -3.78 M125.85 32.04 C115.49 21.59, 102.16 12.46, 85.1 -3.39 M125.85 32.04 C109.43 17.37, 92.82 2.84, 85.1 -3.39 M138.61 21.93 C127.63 9.14, 120.18 6.46, 109.93 -3 M138.61 21.93 C132.35 16.5, 126.19 11.43, 109.93 -3" stroke="#e03131" stroke-width="2" fill="none"></path><path d="M8.3 0 M8.3 0 C36.13 1.6, 63.2 -0.99, 124.65 0 M8.3 0 C50.18 -1.79, 95.01 0.12, 124.65 0 M124.65 0 C132.81 -0.1, 131.16 1.25, 132.95 8.3 M124.65 0 C132.83 1.66, 131.43 6.85, 132.95 8.3 M132.95 8.3 C130.66 10.23, 132.09 14.89, 132.95 24.91 M132.95 8.3 C131.05 13.52, 133.03 17.2, 132.95 24.91 M132.95 24.91 C136.64 31.2, 129.29 35.06, 124.65 33.21 M132.95 24.91 C135.85 32.01, 126.61 35.93, 124.65 33.21 M124.65 33.21 C87.45 32.23, 52.25 38.37, 8.3 33.21 M124.65 33.21 C81.97 30.99, 40.68 32.09, 8.3 33.21 M8.3 33.21 C1.4 35.72, -1.97 29.61, 0 24.91 M8.3 33.21 C6.54 33.66, -0.49 28.76, 0 24.91 M0 24.91 C-1.24 23, 2.43 13.63, 0 8.3 M0 24.91 C-0.4 19.39, 1.39 12.51, 0 8.3 M0 8.3 C0.07 5.75, 5.78 -3.7, 8.3 0 M0 8.3 C1.24 6.7, 3.56 3.43, 8.3 0" stroke="transparent" stroke-width="4" fill="none"></path></g></svg>