<svg xmlns="http://www.w3.org/2000/svg" width="2564.419" height="586.428" viewBox="0 0 1282.209 293.214"><defs><style>@font-face{font-family:&quot;Virgil&quot;;src:url(https://excalidraw.com/Virgil.woff2)}@font-face{font-family:&quot;Cascadia&quot;;src:url(https://excalidraw.com/Cascadia.woff2)}</style></defs><g stroke-linecap="round"><path fill="none" stroke="#1e1e1e" stroke-width="4" d="M44.329 131.525c200.06.49 998.43.86 1198.43 1.39m-1201.6-4.29c201.04-.21 1006.53-.72 1206.68-.41"/><path fill="none" stroke="#1e1e1e" stroke-width="4" d="M43.479 113.915c1.23 5.42 3.16 8.37.86 15.67m1.09-12.52c-.18 6.44-.26 11.43-1.63 13.85"/><path fill="none" stroke="#1e1e1e" stroke-width="4" d="M43.449 143.915c1.73-2.07 3.67-6.62.89-14.33m1.06 17.48c.3-5.39.23-12.24-1.6-16.15m1203.17 9.69c1.74-2.07 3.67-6.62.88-14.33m1.07 17.48c.3-5.39.22-12.24-1.6-16.15"/><path fill="none" stroke="#1e1e1e" stroke-width="4" d="M1246.979 110.605c1.23 5.42 3.16 8.37.87 15.67m1.08-12.52c-.17 6.44-.25 11.43-1.61 13.85"/></g><g stroke-linecap="round"><path fill="#fab005" stroke-width="0" d="m135.634 106.269 265.79 5.05-2.77.15 8.49 3.62 1.28 26 .77 1.84-14.67 6.03-262.05 2.68-4.37-7.98-8.33-4.71 1.43-24.42 5.56-5.22 2.21-1.43"/><path fill="none" stroke="#1e1e1e" stroke-width="4" d="M132.834 107.529c103.09.83 213.97.48 264.67 0m-264.67 0c62.33 1.07 125.27 1.84 264.67 0m0 0c7.47-2.54 9.97 3.66 10.4 10.4m-10.4-10.4c4.96-.99 13.73.79 10.4 10.4m0 0c2.27 8.78 1.05 14.93 0 20.81m0-20.81c-1.6 9.69-1.33 16.6 0 20.81m0 0c-3.69 3.77-5.3 7.84-10.4 10.41m10.4-10.41c4.59 2.92-2.09 10.03-10.4 10.41m0 0c-66.04 1.14-127.61.38-264.67 0m264.67 0c-75.76 4.1-150.69 3.45-264.67 0m0 0c-5.55-1.51-9.28-5.38-10.4-10.41m10.4 10.41c-5.21.56-12.5-.48-10.4-10.41m0 0c2.6-5.36 2.75-11.53 0-20.81m0 20.81c1.13-8.44-.07-11.92 0-20.81m0 0c-1.34-4.01 4.26-13.73 10.4-10.4m-10.4 10.4c1.91-8.49 3.61-8.04 10.4-10.4"/></g><text fill="transparent" dominant-baseline="text-before-edge" font-family="Virgil, Segoe UI Emoji" font-size="36" style="white-space:pre" transform="translate(23.469 62.886)">F</text><text fill="#1e1e1e" dominant-baseline="text-before-edge" font-family="Virgil, Segoe UI Emoji" font-size="36" style="white-space:pre" transform="translate(10 67.962)">FCP</text><text fill="#1e1e1e" dominant-baseline="text-before-edge" font-family="Virgil, Segoe UI Emoji" font-size="36" style="white-space:pre" transform="translate(1194.701 67.962)">TTI</text><g stroke-linecap="round"><path fill="none" stroke="#1e1e1e" stroke-width="4" d="M122.918 65.9c47.5-.48 240.16-4.7 287.8-4.82m-283.82 3.79c47.06-.26 233.58-.64 281.51-1.34m-282.91-12.77c-5.01 2.76-.54 12.32-3.71 15.42m.64-16.44c.84 4.66-.35 11.41.86 15.6"/><path fill="none" stroke="#1e1e1e" stroke-width="4" d="M126.028 80.76c-5.33-6.86-1.04-6.9-4.24-14.58m1.18 13.55c.2-5.23-1.17-8.39.32-14.39m288.08 13.05c-5.29-6.87-.95-6.91-4.09-14.58m1.02 13.55c.25-5.24-1.06-8.39.48-14.39m2.36-14.58c-5.05 2.74-.64 12.31-3.86 15.42m.8-16.45c.79 4.67-.45 11.42.7 15.61"/></g><text fill="#1e1e1e" dominant-baseline="text-before-edge" font-family="Virgil, Segoe UI Emoji" font-size="36" style="white-space:pre" transform="translate(210.499 10)">80 ms</text><text fill="#1e1e1e" dominant-baseline="text-before-edge" font-family="Virgil, Segoe UI Emoji" font-size="36" style="white-space:pre" transform="translate(426.227 238.214)">Main thread timeline</text><g stroke-linecap="round"><path fill="#fab005" stroke-width="0" d="m529.06 106.389 93.27.41 3.39 8.19-2.92 31.47.63 3.53-5.47 1.78-93.26-1.84-.44-3.98-3.16-26.17 1.96-11.23 7.81-.39"/><path fill="none" stroke="#1e1e1e" stroke-width="4" d="M533.03 107.529c21.92 1.03 42.72 1.71 83.23 0m-83.23 0c16.07-.48 35.74.37 83.23 0m0 0c6.06 2.39 11.36 4.52 10.4 10.4m-10.4-10.4c9.77 2.65 8.85 5.41 10.4 10.4m0 0c-1.83 3.62-1.4 14.13 0 20.81m0-20.81c1.78 3.63 1.97 9.82 0 20.81m0 0c-1.53 5.18-1.93 7.55-10.4 10.41m10.4-10.41c-.58 8.03-.53 7.49-10.4 10.41m0 0c-24.03 3.06-51.19 2.98-83.23 0m83.23 0c-31.43.46-62.56-.9-83.23 0m0 0c-9.77-.1-11.56-.6-10.4-10.41m10.4 10.41c-10.37 1.29-14.85.87-10.4-10.41m0 0c-2-7.82 1.87-6.62 0-20.81m0 20.81c1.11-3.69.82-9.76 0-20.81m0 0c-2.44-3.48 2.13-12.09 10.4-10.4m-10.4 10.4c-3.12-9.28 7.04-12.97 10.4-10.4"/></g><g stroke-linecap="round"><path fill="none" stroke="#1e1e1e" stroke-width="4" d="M525.22 61.722c16.6-.08 82.52 3.13 98.97 3.32m-94.69 1.48c17.68-1.08 83.31-5.84 99.97-6.06m-106.44-15.94c3.58 2.98 1.11 7.01 2.03 14.21m.4-11.03c-1.18 3.28-1.17 7.56-.75 14.86"/><path fill="none" stroke="#1e1e1e" stroke-width="4" d="M522.01 74.502c3.53-3.53 1.28-6.03 3.05-15.77m-.62 18.96c-1.07-5.1-.77-9.19.27-15.13m102.77 10.67c3.26-3.54.75-6.04 1.84-15.76m.59 18.95c-1.4-5.1-1.45-9.2-.95-15.12"/><path fill="none" stroke="#1e1e1e" stroke-width="4" d="M626.07 43.262c3.84 3 1.64 7.03 3.25 14.21m-.82-11.02c-.84 3.29-.49 7.57.46 14.85"/></g><text fill="#1e1e1e" dominant-baseline="text-before-edge" font-family="Virgil, Segoe UI Emoji" font-size="36" style="white-space:pre" transform="translate(522.537 10)">30 ms</text><g stroke-linecap="round"><path fill="#fab005" stroke-width="0" d="m777.774 109.498 350.74-6.8 3.59 7.06 2.62.42.89 23.67-3.26 9.1-8.22 3.47-345.69 4.67-7.98-3.25-.09-9.23-3.65-30.35 3.2-2.97 5.79 2.47"/><path fill="none" stroke="#1e1e1e" stroke-width="4" d="M779.254 106.388c91.03-.61 180.01-.14 348.49 0m-348.49 0c76.37 4.17 152.91 3.53 348.49 0m0 0c7.25.22 7.19 5.13 10.41 10.4m-10.41-10.4c5.01-3.34 7.42 4.91 10.41 10.4m0 0c-1.14 4.22-.88 17.01 0 20.81m0-20.81c1.88 9.56 1.88 17.06 0 20.81m0 0c-1.28 9.46-3.29 10.67-10.41 10.41m10.41-10.41c-3.08 10.53-7.03 5.85-10.41 10.41m0 0c-134.53 2.96-272.17.84-348.49 0m348.49 0c-89.39-5.03-178.61-4.06-348.49 0m0 0c-4.65-.26-12.42-.34-10.4-10.41m10.4 10.41c-4.55-2.14-9.73-4.67-10.4-10.41m0 0c-3.11-8.74 1.67-14.73 0-20.81m0 20.81c-1.49-5.19 1.2-12.62 0-20.81m0 0c-3.13-10.05 1.55-12.7 10.4-10.4m-10.4 10.4c1.71-5.69 5.08-13.38 10.4-10.4"/></g><g stroke-linecap="round"><path fill="none" stroke="#1e1e1e" stroke-width="4" d="M772.716 60.938c60.37-.01 303.47 1.26 364.54 1.55m-360.67 3.37c60.08.46 298.51-.08 358.87-.15m-365.15-18.91c1.57 6.42 1.72 9.66.68 11.69m1.44-11.76c.4 2.11-.71 6.31.64 13.42"/><path fill="none" stroke="#1e1e1e" stroke-width="4" d="M770.186 76.798c1.75-2.45 1.94-8.09.8-18.31m1.32 18.24c.21-5.94-.87-9.78.76-16.58m359.94 21.42c1.73-2.45 1.89-8.09.72-18.31m1.4 18.24c.19-5.93-.91-9.78.68-16.58m-2.85-13.35c1.6 6.42 1.77 9.67.77 11.69m1.35-11.76c.43 2.11-.67 6.31.73 13.42"/></g><text fill="#1e1e1e" dominant-baseline="text-before-edge" font-family="Virgil, Segoe UI Emoji" font-size="36" style="white-space:pre" transform="translate(895.171 10)">100 ms</text><g fill-opacity="0" stroke-linecap="round" stroke-opacity="0"><path fill="none" stroke="#e03131" stroke-width="2" d="M950.609 109.744s0 0 0 0m0 0s0 0 0 0m8.14 15.03c4.28-3 3-3.45 7.88-9.06m-7.88 9.06c1.57-2.74 3.17-3.41 7.88-9.06m-6.3 31.63c5.98-12.07 19.7-17.72 26.9-30.94m-26.9 30.94c8.22-8.81 18.73-19.36 26.9-30.94m-5.64 30.87c6.66-8.14 9.61-14.86 26.9-30.94m-26.9 30.94c6.51-8.35 10.7-14.59 26.9-30.94m-5.64 30.87c10.16-10.63 13.27-19.32 26.9-30.94m-26.9 30.94c3.63-7.83 8.83-12.2 26.9-30.94m-5.64 30.87c8.14-11.52 20.98-19.13 26.9-30.94m-26.9 30.94c8.28-12.69 17.81-23.36 26.9-30.94m-6.29 31.63c9.17-8.29 16.29-23.4 27.55-31.7m-27.55 31.7c8.83-8.82 18.86-22.56 27.55-31.7m-6.29 31.63c11.88-11.31 18.06-20.69 26.9-30.94m-26.9 30.94c10.66-12.04 18.85-21.2 26.9-30.94m-5.64 30.87c3.59-4.44 12.6-15.41 26.9-30.94m-26.9 30.94c7.62-9.18 15.08-18.51 26.9-30.94m-5.64 30.87c14.14-10.87 21.75-20.96 26.24-30.19m-26.24 30.19c5.76-7.68 9.49-15.18 26.24-30.19m-181.83 23.27s0 0 0 0m0 0s0 0 0 0m24.84.39c-8.33-3.18-17.1-11.63-28.68-24.93m28.68 24.93c-9.67-8.88-20.59-17.24-28.68-24.93m52.76 24.66c-10.09-11.39-24.37-18.41-42.26-36.74m42.26 36.74c-13.27-11.05-25.01-22.44-42.26-36.74m67.1 37.13c-13.34-7.27-20.49-21.45-42.26-36.74m42.26 36.74c-13.79-11.93-29.51-21.33-42.26-36.74m66.34 36.48c-16.1-17.3-36.21-28.57-42.26-36.74m42.26 36.74c-13.43-14.67-30.48-25.49-42.26-36.74m67.1 37.13c-8.28-11.61-17.53-16.71-42.27-36.74m42.27 36.74c-12.93-11.92-28.2-25.03-42.27-36.74m66.35 36.47c-11.22-9.27-21.44-16.55-42.27-36.74m42.27 36.74c-16.44-13.61-32.34-30.81-42.27-36.74m64.84 35.16c-11.47-11.56-22.86-23.13-40-34.77m40 34.77c-10.8-8.67-18.03-17.07-40-34.77m52.76 24.67c-13.24-10.21-19.86-20.05-28.68-24.94m28.68 24.94c-5.87-5.87-11.54-9.63-28.68-24.94"/><path fill="none" stroke="transparent" stroke-width="4" d="M956.769 107.804c36.03-2.19 67.61-4.4 164.42 0m-164.42 0c53.3 3.84 107.84 2.42 164.42 0m0 0c3.73-3.74 6.2 6.12 8.39 8.39m-8.39-8.39c4.71 1.15 6.94-1.23 8.39 8.39m0 0c1.25 6.66-.63 12.8 0 16.79m0-16.79c-1.73 2.74-1.64 8.28 0 16.79m0 0c-3.13 3.18.09 6.22-8.39 8.4m8.39-8.4c-1.94 2.75-6.62 10.93-8.39 8.4m0 0c-30.93-4.36-64.52-.66-164.42 0m164.42 0c-56.94-.99-116.12.27-164.42 0m0 0c-8.35-2.21-6.6-5.61-8.39-8.4m8.39 8.4c-1.23 3.47-11.83-2.73-8.39-8.4m0 0c-.03-5.02.69-12.25 0-16.79m0 16.79c.44-3.54 1.35-10.35 0-16.79m0 0c2.54-6.6 6.05-6.8 8.39-8.39m-8.39 8.39c-1.29-7.13.97-9.21 8.39-8.39"/></g><g fill-opacity="0" stroke-linecap="round" stroke-opacity="0"><path fill="none" stroke="#e03131" stroke-width="2" d="M266.827 112.181s0 0 0 0m0 0s0 0 0 0m8.14 15.03c1.8.26 2.48-4.98 7.22-8.31m-7.22 8.31c1.27-1.16 2.6-3.59 7.22-8.31m-5.64 30.88c6.67-11.99 21.84-21.09 26.9-30.94m-26.9 30.94c6.05-9.79 14.53-16.11 26.9-30.94m-5.64 30.87c10.75-7.42 12.74-16.39 26.9-30.94m-26.9 30.94c10.63-12.07 20.94-23.2 26.9-30.94m-5.64 30.87c9.38-12.15 11.25-21.32 26.9-30.94m-26.9 30.94c8.2-9.42 13.33-17.67 26.9-30.94m-5.64 30.87c2.72-9.52 7.26-13.3 26.9-30.94m-26.9 30.94c5.84-8.02 8.68-14.04 26.9-30.94m-5.64 30.87c10.39-14.12 24.29-25.75 32.8-37.73m-32.8 37.73c5.43-8.59 15.53-17.39 32.8-37.73m-12.2 38.42c6.37-14 14.58-20.48 23.62-27.17m-23.62 27.17c5.45-5.87 13.94-16.18 23.62-27.17m-136.5 19.95s0 0 0 0m0 0s0 0 0 0m24.84.39c-6.05-9.49-17.33-9.3-29.44-25.58m29.44 25.58c-8-8.15-16.47-17.12-29.44-25.58m53.52 25.32c-15.15-13.66-34.21-24.52-42.27-36.74m42.27 36.74c-7.77-10.18-16.25-14.96-42.27-36.74m67.1 37.13c-16.95-16.18-27.32-30.06-42.26-36.74m42.26 36.74c-13.97-13.99-29.85-25.75-42.26-36.74m66.35 36.47c-11.12-10.07-27.48-23.42-42.27-36.74m42.27 36.74c-14.66-12.88-30.52-27.64-42.27-36.74m65.59 35.82c-10.36-10.45-23.69-19.58-40.75-35.43m40.75 35.43c-16.42-14.67-33.03-29.2-40.75-35.43m53.51 25.32c-10.98-12.79-18.43-15.47-28.68-24.93m28.68 24.93c-6.26-5.43-12.42-10.5-28.68-24.93"/><path fill="none" stroke="transparent" stroke-width="4" d="M272.917 110.261c27.83 1.6 54.9-.99 116.35 0m-116.35 0c41.88-1.79 86.71.12 116.35 0m0 0c8.16-.1 6.51 1.25 8.3 8.3m-8.3-8.3c8.18 1.66 6.78 6.85 8.3 8.3m0 0c-2.29 1.93-.86 6.59 0 16.61m0-16.61c-1.9 5.22.08 8.9 0 16.61m0 0c3.69 6.29-3.66 10.15-8.3 8.3m8.3-8.3c2.9 7.1-6.34 11.02-8.3 8.3m0 0c-37.2-.98-72.4 5.16-116.35 0m116.35 0c-42.68-2.22-83.97-1.12-116.35 0m0 0c-6.9 2.51-10.27-3.6-8.3-8.3m8.3 8.3c-1.76.45-8.79-4.45-8.3-8.3m0 0c-1.24-1.91 2.43-11.28 0-16.61m0 16.61c-.4-5.52 1.39-12.4 0-16.61m0 0c.07-2.55 5.78-12 8.3-8.3m-8.3 8.3c1.24-1.6 3.56-4.87 8.3-8.3"/></g></svg>