<svg xmlns="http://www.w3.org/2000/svg" width="1201" height="953" fill="none" viewBox="0 0 1201 953"><g clip-path="url(#a)"><path fill="#F1F5F9" d="M0 0h1201v952.335H0z"/><g filter="url(#b)"><g clip-path="url(#c)"><path fill="#fff" d="M85.71 120.629c0-14.026 11.37-25.395 25.396-25.395H1201v857.101H85.71V120.629Z"/><circle cx="123.804" cy="133.327" r="12.698" fill="#F1F5F9"/><circle cx="166.129" cy="133.327" r="12.698" fill="#F1F5F9"/><circle cx="208.456" cy="133.327" r="12.698" fill="#F1F5F9"/><path fill="#94A3B8" fill-rule="evenodd" d="M302.905 121.093a1.55 1.55 0 0 1-.019 2.193l-8.67 8.522h19.99a1.552 1.552 0 0 1 0 3.102h-19.974l8.651 8.455a1.55 1.55 0 0 1-2.168 2.218l-11.373-11.115a1.552 1.552 0 0 1-.003-2.215l11.373-11.179a1.55 1.55 0 0 1 2.193.019Z" clip-rule="evenodd"/><path fill="#E2E8F0" fill-rule="evenodd" d="M362.469 121.093a1.55 1.55 0 0 0 .019 2.193l8.67 8.522h-19.99a1.552 1.552 0 0 0 0 3.102h19.975l-8.652 8.455a1.55 1.55 0 0 0 2.168 2.218l11.373-11.115a1.548 1.548 0 0 0 .004-2.215l-11.374-11.179a1.55 1.55 0 0 0-2.193.019Z" clip-rule="evenodd"/><path fill="#94A3B8" d="M413.29 133.327a9.768 9.768 0 0 1 17.146-6.401l-4.448 4.447h10.744v-10.744l-4.22 4.221a12.667 12.667 0 0 0-9.454-4.221c-7.013 0-12.698 5.685-12.698 12.698 0 7.013 5.685 12.698 12.698 12.698 5.036 0 9.385-2.933 11.437-7.177a1.465 1.465 0 0 0-2.638-1.275 9.768 9.768 0 0 1-8.799 5.521c-5.395 0-9.768-4.373-9.768-9.767Z"/><path fill="#F1F5F9" d="M647.588 133.327c0-16.363 13.265-29.628 29.628-29.628H1201v59.256H677.216c-16.363 0-29.628-13.265-29.628-29.628Z"/><path fill="#94A3B8" fill-rule="evenodd" d="M681.045 122.745a5.039 5.039 0 0 0-5.039 5.039v2.016h-1.007a2.016 2.016 0 0 0-2.016 2.015v10.078c0 1.113.903 2.015 2.016 2.015h12.093a2.015 2.015 0 0 0 2.015-2.015v-10.078a2.015 2.015 0 0 0-2.015-2.015h-1.008v-2.016a5.039 5.039 0 0 0-5.039-5.039Zm3.024 7.055v-2.016a3.023 3.023 0 0 0-6.047 0v2.016h6.047Z" clip-rule="evenodd"/><g clip-path="url(#d)"><circle cx="340.724" cy="302.026" r="17.988" fill="#34D399"/><path fill="#27272A" d="M414.051 296.504c-.121-1.067-.617-1.894-1.488-2.48-.872-.594-1.969-.891-3.292-.891-.947 0-1.766.151-2.458.451-.691.293-1.228.699-1.612 1.218a2.877 2.877 0 0 0-.563 1.747c0 .549.127 1.022.383 1.42.263.399.605.733 1.026 1.004.428.263.887.484 1.375.665.489.173.958.315 1.409.428l2.255.586c.736.181 1.492.425 2.266.733a9.078 9.078 0 0 1 2.153 1.218 5.833 5.833 0 0 1 1.601 1.871c.413.744.62 1.634.62 2.672 0 1.307-.339 2.468-1.015 3.483-.669 1.014-1.642 1.815-2.92 2.401-1.27.586-2.807.879-4.61.879-1.729 0-3.224-.274-4.487-.823-1.262-.548-2.251-1.326-2.965-2.333-.714-1.015-1.108-2.217-1.183-3.607h3.494c.068.834.338 1.529.812 2.085.481.549 1.093.958 1.837 1.229.752.263 1.575.394 2.469.394.985 0 1.86-.154 2.627-.462.774-.316 1.383-.751 1.826-1.308.443-.563.665-1.221.665-1.972 0-.684-.195-1.244-.586-1.68-.383-.436-.906-.797-1.567-1.082a15.269 15.269 0 0 0-2.221-.755l-2.728-.744c-1.849-.504-3.314-1.244-4.396-2.221-1.075-.977-1.612-2.27-1.612-3.878 0-1.33.36-2.491 1.082-3.483.721-.992 1.698-1.763 2.931-2.311 1.232-.556 2.623-.835 4.171-.835 1.563 0 2.942.275 4.137.823 1.202.549 2.149 1.304 2.841 2.266.691.955 1.052 2.052 1.082 3.292h-3.359Zm15.029 17.371c-1.706 0-3.175-.364-4.408-1.093-1.224-.737-2.171-1.77-2.84-3.1-.662-1.338-.992-2.905-.992-4.701 0-1.773.33-3.337.992-4.689.669-1.353 1.6-2.409 2.795-3.168 1.203-.759 2.608-1.139 4.216-1.139a8.49 8.49 0 0 1 2.841.485c.917.323 1.74.831 2.469 1.522.729.691 1.304 1.589 1.725 2.694.421 1.097.631 2.431.631 4.002v1.195h-13.764v-2.525h10.461c0-.887-.18-1.672-.541-2.356a4.094 4.094 0 0 0-1.522-1.635c-.646-.398-1.405-.597-2.277-.597-.947 0-1.774.233-2.48.699a4.683 4.683 0 0 0-1.623 1.803 5.206 5.206 0 0 0-.564 2.401v1.973c0 1.158.203 2.142.609 2.954.413.811.988 1.431 1.725 1.86.736.421 1.597.631 2.581.631.639 0 1.221-.09 1.747-.27a3.765 3.765 0 0 0 1.364-.835c.384-.368.677-.823.88-1.364l3.19.575a5.78 5.78 0 0 1-1.375 2.469c-.654.699-1.477 1.244-2.469 1.635-.985.383-2.108.574-3.371.574Zm11.169-.349v-17.315h3.258v2.75h.18a4.194 4.194 0 0 1 1.668-2.198c.805-.541 1.714-.811 2.728-.811a14.408 14.408 0 0 1 1.432.078v3.225a5.94 5.94 0 0 0-.721-.124 6.842 6.842 0 0 0-1.037-.079c-.797 0-1.507.169-2.131.507a3.77 3.77 0 0 0-1.465 1.386c-.361.587-.542 1.255-.542 2.007v10.574h-3.37Zm27.523-17.315-6.279 17.315h-3.608l-6.29-17.315h3.619l4.385 13.324h.18l4.374-13.324h3.619Zm10.041 17.664c-1.706 0-3.175-.364-4.408-1.093-1.225-.737-2.172-1.77-2.841-3.1-.661-1.338-.992-2.905-.992-4.701 0-1.773.331-3.337.992-4.689.669-1.353 1.601-2.409 2.796-3.168 1.203-.759 2.608-1.139 4.216-1.139a8.49 8.49 0 0 1 2.841.485c.917.323 1.74.831 2.469 1.522.729.691 1.304 1.589 1.725 2.694.42 1.097.631 2.431.631 4.002v1.195h-13.764v-2.525h10.461c0-.887-.181-1.672-.541-2.356a4.094 4.094 0 0 0-1.522-1.635c-.646-.398-1.405-.597-2.277-.597-.947 0-1.774.233-2.48.699a4.693 4.693 0 0 0-1.624 1.803 5.217 5.217 0 0 0-.563 2.401v1.973c0 1.158.203 2.142.609 2.954.413.811.988 1.431 1.724 1.86.737.421 1.597.631 2.582.631.639 0 1.221-.09 1.747-.27a3.765 3.765 0 0 0 1.364-.835c.383-.368.676-.823.879-1.364l3.191.575a5.771 5.771 0 0 1-1.376 2.469c-.654.699-1.476 1.244-2.468 1.635-.985.383-2.108.574-3.371.574Zm19.57-.349v-17.315h3.37v17.315h-3.37Zm1.702-19.987c-.586 0-1.09-.195-1.511-.586-.413-.398-.62-.872-.62-1.42 0-.557.207-1.03.62-1.421a2.123 2.123 0 0 1 1.511-.597c.586 0 1.086.199 1.499.597.421.391.632.864.632 1.421 0 .548-.211 1.022-.632 1.42a2.101 2.101 0 0 1-1.499.586Zm6.203 19.987v-17.315h3.235v2.818h.214c.361-.954.951-1.698 1.77-2.232.819-.541 1.8-.812 2.942-.812 1.158 0 2.127.271 2.909.812.789.541 1.371 1.285 1.747 2.232h.18c.414-.924 1.071-1.661 1.973-2.209.902-.557 1.977-.835 3.224-.835 1.571 0 2.852.493 3.844 1.477 1 .985 1.5 2.469 1.5 4.453v11.611h-3.371v-11.295c0-1.173-.319-2.022-.958-2.548-.639-.526-1.402-.789-2.289-.789-1.097 0-1.95.338-2.558 1.014-.609.669-.914 1.53-.914 2.582v11.036h-3.359v-11.51c0-.939-.293-1.694-.879-2.265-.586-.572-1.349-.857-2.289-.857-.638 0-1.228.169-1.769.507a3.726 3.726 0 0 0-1.297 1.387c-.323.593-.485 1.281-.485 2.063v10.675h-3.37Zm33.094.383c-1.097 0-2.089-.203-2.976-.608a5.018 5.018 0 0 1-2.108-1.793c-.511-.781-.766-1.74-.766-2.874 0-.977.188-1.782.563-2.413a4.16 4.16 0 0 1 1.522-1.499 7.965 7.965 0 0 1 2.142-.834 21.331 21.331 0 0 1 2.412-.429l2.525-.293c.647-.082 1.117-.214 1.41-.394.293-.181.439-.474.439-.88v-.079c0-.984-.278-1.747-.834-2.288-.549-.541-1.368-.812-2.457-.812-1.135 0-2.03.252-2.683.756-.647.496-1.094 1.048-1.342 1.657l-3.168-.722c.376-1.052.925-1.901 1.646-2.547a6.673 6.673 0 0 1 2.514-1.421 9.834 9.834 0 0 1 2.987-.451c.692 0 1.425.083 2.199.248.781.158 1.51.451 2.187.88.684.428 1.243 1.041 1.679 1.837.436.789.654 1.815.654 3.078v11.498h-3.292v-2.367h-.135c-.218.436-.545.864-.981 1.285-.435.421-.995.77-1.679 1.048s-1.503.417-2.458.417Zm.733-2.705c.932 0 1.729-.184 2.39-.553.669-.368 1.176-.849 1.522-1.443.353-.601.53-1.243.53-1.927v-2.232c-.121.12-.354.233-.699.338-.339.098-.726.184-1.162.259-.435.068-.86.132-1.273.192-.414.052-.759.098-1.037.135a8.402 8.402 0 0 0-1.793.417c-.533.196-.962.477-1.285.846-.316.36-.473.841-.473 1.443 0 .834.308 1.465.924 1.894.616.42 1.402.631 2.356.631Zm19.561 9.176c-1.375 0-2.559-.18-3.551-.541-.984-.361-1.788-.838-2.412-1.432-.624-.594-1.09-1.244-1.398-1.95l2.897-1.195c.203.331.474.68.812 1.048.346.376.812.696 1.398.959.593.263 1.356.394 2.288.394 1.278 0 2.334-.312 3.168-.935.834-.617 1.251-1.601 1.251-2.954v-3.404h-.214a7.715 7.715 0 0 1-.879 1.228c-.376.451-.895.842-1.556 1.173-.661.33-1.522.496-2.582.496-1.367 0-2.6-.32-3.697-.958-1.09-.647-1.954-1.597-2.593-2.853-.631-1.262-.947-2.814-.947-4.655 0-1.841.312-3.42.936-4.735.631-1.315 1.495-2.322 2.593-3.021 1.097-.706 2.341-1.06 3.731-1.06 1.075 0 1.943.181 2.604.541.661.354 1.176.767 1.544 1.24.376.474.666.891.868 1.252h.248v-2.807h3.303v17.698c0 1.488-.345 2.71-1.037 3.664-.691.954-1.627 1.661-2.807 2.119-1.172.459-2.495.688-3.968.688Zm-.034-9.909c.97 0 1.789-.225 2.458-.676.676-.459 1.187-1.113 1.533-1.962.353-.857.53-1.882.53-3.077 0-1.165-.173-2.191-.519-3.078-.345-.887-.853-1.578-1.521-2.074-.669-.504-1.496-.755-2.481-.755-1.014 0-1.86.263-2.536.789-.676.518-1.187 1.225-1.533 2.119-.338.894-.507 1.894-.507 2.999 0 1.134.173 2.13.518 2.987.346.857.857 1.526 1.533 2.007.684.481 1.526.721 2.525.721Zm19.83 3.404c-1.706 0-3.176-.364-4.408-1.093-1.225-.737-2.172-1.77-2.841-3.1-.661-1.338-.992-2.905-.992-4.701 0-1.773.331-3.337.992-4.689.669-1.353 1.601-2.409 2.796-3.168 1.202-.759 2.608-1.139 4.216-1.139a8.49 8.49 0 0 1 2.841.485 6.889 6.889 0 0 1 2.468 1.522c.729.691 1.304 1.589 1.725 2.694.421 1.097.631 2.431.631 4.002v1.195h-13.764v-2.525h10.461c0-.887-.18-1.672-.541-2.356a4.087 4.087 0 0 0-1.522-1.635c-.646-.398-1.405-.597-2.277-.597-.947 0-1.773.233-2.48.699a4.683 4.683 0 0 0-1.623 1.803 5.206 5.206 0 0 0-.564 2.401v1.973c0 1.158.203 2.142.609 2.954.413.811.988 1.431 1.725 1.86.736.421 1.597.631 2.581.631.639 0 1.222-.09 1.748-.27.526-.188.98-.466 1.364-.835.383-.368.676-.823.879-1.364l3.19.575a5.77 5.77 0 0 1-1.375 2.469c-.654.699-1.477 1.244-2.469 1.635-.984.383-2.108.574-3.37.574Zm24.143-13.437-3.055.541a3.597 3.597 0 0 0-.608-1.116c-.271-.353-.639-.642-1.105-.868-.466-.225-1.049-.338-1.747-.338-.955 0-1.752.214-2.39.643-.639.42-.959.965-.959 1.634 0 .579.215 1.045.643 1.398.428.353 1.12.643 2.074.868l2.751.631c1.593.369 2.78.936 3.562 1.703.782.766 1.172 1.762 1.172 2.987 0 1.037-.3 1.961-.901 2.773-.594.804-1.425 1.435-2.492 1.894-1.059.458-2.288.687-3.686.687-1.939 0-3.521-.413-4.746-1.24-1.225-.834-1.976-2.017-2.254-3.551l3.257-.496c.203.85.62 1.492 1.252 1.928.631.429 1.454.643 2.469.643 1.104 0 1.987-.23 2.649-.688.661-.466.992-1.033.992-1.702 0-.541-.203-.996-.609-1.364-.398-.368-1.011-.646-1.838-.834l-2.931-.643c-1.615-.368-2.81-.954-3.584-1.759-.767-.804-1.15-1.822-1.15-3.054 0-1.023.285-1.917.857-2.683.571-.767 1.36-1.364 2.367-1.793 1.007-.436 2.161-.654 3.461-.654 1.871 0 3.344.406 4.419 1.218 1.074.804 1.785 1.882 2.13 3.235Zm12.446 13.088v-17.315h3.37v17.315h-3.37Zm1.702-19.987c-.586 0-1.09-.195-1.511-.586-.413-.398-.62-.872-.62-1.42 0-.557.207-1.03.62-1.421a2.123 2.123 0 0 1 1.511-.597c.586 0 1.086.199 1.499.597.421.391.631.864.631 1.421 0 .548-.21 1.022-.631 1.42a2.101 2.101 0 0 1-1.499.586Zm9.573 9.706v10.281h-3.37v-17.315h3.235v2.818h.214a4.952 4.952 0 0 1 1.871-2.209c.857-.557 1.936-.835 3.236-.835 1.18 0 2.213.248 3.1.744.887.489 1.574 1.218 2.063 2.187.488.97.733 2.168.733 3.596v11.014h-3.371v-10.608c0-1.255-.327-2.236-.981-2.942-.654-.714-1.552-1.071-2.694-1.071-.782 0-1.477.169-2.086.507-.601.339-1.078.835-1.431 1.488-.346.647-.519 1.428-.519 2.345Zm27.374 0v10.281h-3.371v-17.315h3.235v2.818h.215a4.946 4.946 0 0 1 1.871-2.209c.857-.557 1.935-.835 3.235-.835 1.18 0 2.213.248 3.1.744.887.489 1.575 1.218 2.063 2.187.489.97.733 2.168.733 3.596v11.014h-3.371v-10.608c0-1.255-.327-2.236-.98-2.942-.654-.714-1.552-1.071-2.695-1.071-.781 0-1.476.169-2.085.507-.601.339-1.079.835-1.432 1.488-.345.647-.518 1.428-.518 2.345Zm23.064 10.63c-1.706 0-3.175-.364-4.408-1.093-1.225-.737-2.172-1.77-2.84-3.1-.662-1.338-.992-2.905-.992-4.701 0-1.773.33-3.337.992-4.689.668-1.353 1.6-2.409 2.795-3.168 1.203-.759 2.608-1.139 4.216-1.139a8.49 8.49 0 0 1 2.841.485c.917.323 1.74.831 2.469 1.522.729.691 1.304 1.589 1.725 2.694.42 1.097.631 2.431.631 4.002v1.195h-13.764v-2.525H680.9c0-.887-.18-1.672-.541-2.356a4.094 4.094 0 0 0-1.522-1.635c-.646-.398-1.405-.597-2.277-.597-.947 0-1.774.233-2.48.699a4.683 4.683 0 0 0-1.623 1.803 5.206 5.206 0 0 0-.564 2.401v1.973c0 1.158.203 2.142.609 2.954.413.811.988 1.431 1.724 1.86.737.421 1.597.631 2.582.631.639 0 1.221-.09 1.747-.27a3.765 3.765 0 0 0 1.364-.835c.383-.368.677-.823.879-1.364l3.191.575a5.771 5.771 0 0 1-1.376 2.469c-.653.699-1.476 1.244-2.468 1.635-.985.383-2.108.574-3.371.574Zm13.426-17.664 3.822 6.741 3.855-6.741h3.686l-5.4 8.657 5.445 8.658h-3.686l-3.9-6.471-3.89 6.471h-3.697l5.388-8.658-5.32-8.657h3.697Zm22.907 0v2.705h-9.458v-2.705h9.458Zm-6.922-4.149h3.371v16.38c0 .654.097 1.146.293 1.477.195.323.447.545.755.665.316.113.658.169 1.026.169a4 4 0 0 0 .71-.056c.203-.038.361-.068.474-.091l.608 2.785a5.65 5.65 0 0 1-.834.225c-.361.083-.812.128-1.353.135a5.933 5.933 0 0 1-2.48-.473 4.265 4.265 0 0 1-1.86-1.533c-.473-.692-.71-1.56-.71-2.604v-17.079Zm20.263 10.247v2.92h-10.236v-2.92h10.236ZM738.2 320.38c-1.375 0-2.559-.18-3.551-.541-.984-.361-1.788-.838-2.412-1.432-.624-.594-1.09-1.244-1.398-1.95l2.897-1.195c.203.331.473.68.812 1.048.345.376.811.696 1.398.959.593.263 1.356.394 2.288.394 1.278 0 2.333-.312 3.168-.935.834-.617 1.251-1.601 1.251-2.954v-3.404h-.214a7.664 7.664 0 0 1-.88 1.228c-.375.451-.894.842-1.555 1.173-.662.33-1.522.496-2.582.496-1.368 0-2.6-.32-3.697-.958-1.09-.647-1.954-1.597-2.593-2.853-.631-1.262-.947-2.814-.947-4.655 0-1.841.312-3.42.936-4.735.631-1.315 1.495-2.322 2.592-3.021 1.098-.706 2.341-1.06 3.732-1.06 1.075 0 1.943.181 2.604.541.661.354 1.176.767 1.544 1.24.376.474.665.891.868 1.252h.248v-2.807h3.303v17.698c0 1.488-.345 2.71-1.037 3.664-.691.954-1.627 1.661-2.807 2.119-1.172.459-2.495.688-3.968.688Zm-.034-9.909c.97 0 1.789-.225 2.458-.676.676-.459 1.187-1.113 1.533-1.962.353-.857.53-1.882.53-3.077 0-1.165-.173-2.191-.519-3.078-.346-.887-.853-1.578-1.522-2.074-.669-.504-1.495-.755-2.48-.755-1.014 0-1.86.263-2.536.789-.676.518-1.188 1.225-1.533 2.119-.338.894-.508 1.894-.508 2.999 0 1.134.173 2.13.519 2.987.346.857.857 1.526 1.533 2.007.684.481 1.526.721 2.525.721Zm19.829 3.404c-1.706 0-3.175-.364-4.407-1.093-1.225-.737-2.172-1.77-2.841-3.1-.661-1.338-.992-2.905-.992-4.701 0-1.773.331-3.337.992-4.689.669-1.353 1.601-2.409 2.796-3.168 1.202-.759 2.607-1.139 4.216-1.139a8.48 8.48 0 0 1 2.84.485c.917.323 1.74.831 2.469 1.522.729.691 1.304 1.589 1.725 2.694.421 1.097.631 2.431.631 4.002v1.195H751.66v-2.525h10.461c0-.887-.18-1.672-.541-2.356a4.094 4.094 0 0 0-1.522-1.635c-.646-.398-1.405-.597-2.277-.597-.947 0-1.773.233-2.48.699a4.683 4.683 0 0 0-1.623 1.803 5.206 5.206 0 0 0-.564 2.401v1.973c0 1.158.203 2.142.609 2.954.413.811.988 1.431 1.725 1.86.736.421 1.597.631 2.581.631.639 0 1.221-.09 1.747-.27a3.756 3.756 0 0 0 1.364-.835c.384-.368.677-.823.88-1.364l3.19.575a5.78 5.78 0 0 1-1.375 2.469c-.654.699-1.477 1.244-2.469 1.635-.985.383-2.108.574-3.371.574Zm14.54-10.63v10.281h-3.371v-17.315h3.235v2.818h.214a4.954 4.954 0 0 1 1.872-2.209c.857-.557 1.935-.835 3.235-.835 1.18 0 2.213.248 3.1.744.887.489 1.575 1.218 2.063 2.187.489.97.733 2.168.733 3.596v11.014h-3.371v-10.608c0-1.255-.327-2.236-.981-2.942-.653-.714-1.551-1.071-2.694-1.071-.781 0-1.476.169-2.085.507-.601.339-1.079.835-1.432 1.488-.346.647-.518 1.428-.518 2.345Zm32.243-7.034v2.705h-9.785v-2.705h9.785Zm-7.102 17.315v-19.322c0-1.082.237-1.98.71-2.694a4.358 4.358 0 0 1 1.883-1.612 5.999 5.999 0 0 1 2.547-.541c.677 0 1.255.056 1.736.169.481.105.838.203 1.071.293l-.789 2.728c-.158-.045-.36-.098-.608-.158a3.5 3.5 0 0 0-.902-.101c-.819 0-1.406.203-1.759.609-.346.405-.518.992-.518 1.758v18.871h-3.371Zm17.191.349c-1.623 0-3.04-.372-4.25-1.116-1.21-.744-2.149-1.784-2.818-3.122-.669-1.338-1.003-2.901-1.003-4.69 0-1.796.334-3.367 1.003-4.712.669-1.345 1.608-2.39 2.818-3.134 1.21-.744 2.627-1.116 4.25-1.116 1.623 0 3.04.372 4.25 1.116 1.21.744 2.149 1.789 2.818 3.134s1.004 2.916 1.004 4.712c0 1.789-.335 3.352-1.004 4.69-.669 1.338-1.608 2.378-2.818 3.122-1.21.744-2.627 1.116-4.25 1.116Zm.011-2.829c1.053 0 1.924-.278 2.616-.834.691-.556 1.202-1.297 1.533-2.221.338-.924.507-1.943.507-3.055 0-1.105-.169-2.119-.507-3.044-.331-.932-.842-1.679-1.533-2.243-.692-.564-1.563-.845-2.616-.845-1.059 0-1.939.281-2.637.845-.692.564-1.207 1.311-1.545 2.243-.331.925-.496 1.939-.496 3.044 0 1.112.165 2.131.496 3.055.338.924.853 1.665 1.545 2.221.698.556 1.578.834 2.637.834Zm11.823 2.48v-17.315h3.258v2.75h.18a4.194 4.194 0 0 1 1.668-2.198c.805-.541 1.714-.811 2.729-.811a14.404 14.404 0 0 1 1.431.078v3.225a5.94 5.94 0 0 0-.721-.124 6.842 6.842 0 0 0-1.037-.079c-.797 0-1.507.169-2.131.507a3.77 3.77 0 0 0-1.465 1.386c-.361.587-.542 1.255-.542 2.007v10.574h-3.37Zm12.183 0v-17.315h3.235v2.818h.215c.36-.954.95-1.698 1.769-2.232.82-.541 1.8-.812 2.943-.812 1.157 0 2.126.271 2.908.812.789.541 1.372 1.285 1.747 2.232h.181c.413-.924 1.071-1.661 1.972-2.209.902-.557 1.977-.835 3.225-.835 1.57 0 2.852.493 3.844 1.477.999.985 1.499 2.469 1.499 4.453v11.611h-3.371v-11.295c0-1.173-.319-2.022-.958-2.548-.639-.526-1.402-.789-2.288-.789-1.098 0-1.951.338-2.559 1.014-.609.669-.913 1.53-.913 2.582v11.036h-3.36v-11.51c0-.939-.293-1.694-.879-2.265-.586-.572-1.349-.857-2.288-.857-.639 0-1.229.169-1.77.507a3.726 3.726 0 0 0-1.297 1.387c-.323.593-.484 1.281-.484 2.063v10.675h-3.371Zm33.094.383c-1.097 0-2.089-.203-2.976-.608a5.024 5.024 0 0 1-2.108-1.793c-.511-.781-.766-1.74-.766-2.874 0-.977.188-1.782.563-2.413a4.167 4.167 0 0 1 1.522-1.499 7.965 7.965 0 0 1 2.142-.834 21.309 21.309 0 0 1 2.413-.429l2.525-.293c.646-.082 1.116-.214 1.409-.394.293-.181.439-.474.439-.88v-.079c0-.984-.278-1.747-.834-2.288-.548-.541-1.368-.812-2.457-.812-1.135 0-2.029.252-2.683.756-.647.496-1.094 1.048-1.342 1.657l-3.167-.722c.375-1.052.924-1.901 1.645-2.547a6.673 6.673 0 0 1 2.514-1.421 9.836 9.836 0 0 1 2.988-.451c.691 0 1.424.083 2.198.248.781.158 1.51.451 2.187.88.684.428 1.244 1.041 1.679 1.837.436.789.654 1.815.654 3.078v11.498h-3.291v-2.367h-.136c-.218.436-.545.864-.98 1.285-.436.421-.996.77-1.68 1.048-.684.278-1.503.417-2.458.417Zm.733-2.705c.932 0 1.729-.184 2.39-.553.669-.368 1.176-.849 1.522-1.443.353-.601.53-1.243.53-1.927v-2.232c-.121.12-.353.233-.699.338-.338.098-.725.184-1.161.259-.436.068-.861.132-1.274.192-.413.052-.759.098-1.037.135a8.402 8.402 0 0 0-1.793.417c-.533.196-.962.477-1.285.846-.315.36-.473.841-.473 1.443 0 .834.308 1.465.924 1.894.616.42 1.402.631 2.356.631Zm20.384-14.993v2.705h-9.458v-2.705h9.458Zm-6.921-4.149h3.37v16.38c0 .654.098 1.146.294 1.477.195.323.447.545.755.665.315.113.657.169 1.026.169a4 4 0 0 0 .71-.056c.203-.038.361-.068.473-.091l.609 2.785a5.65 5.65 0 0 1-.834.225c-.361.083-.812.128-1.353.135a5.93 5.93 0 0 1-2.48-.473 4.265 4.265 0 0 1-1.86-1.533c-.473-.692-.71-1.56-.71-2.604v-17.079Zm23.346 8.376-3.055.541a3.621 3.621 0 0 0-.609-1.116c-.27-.353-.638-.642-1.104-.868-.466-.225-1.049-.338-1.748-.338-.954 0-1.751.214-2.39.643-.638.42-.958.965-.958 1.634 0 .579.214 1.045.643 1.398.428.353 1.12.643 2.074.868l2.751.631c1.593.369 2.78.936 3.562 1.703.781.766 1.172 1.762 1.172 2.987 0 1.037-.3 1.961-.902 2.773-.593.804-1.424 1.435-2.491 1.894-1.06.458-2.288.687-3.686.687-1.939 0-3.521-.413-4.746-1.24-1.225-.834-1.977-2.017-2.255-3.551l3.258-.496c.203.85.62 1.492 1.252 1.928.631.429 1.454.643 2.468.643 1.105 0 1.988-.23 2.649-.688.662-.466.992-1.033.992-1.702 0-.541-.202-.996-.608-1.364-.399-.368-1.011-.646-1.838-.834l-2.931-.643c-1.616-.368-2.81-.954-3.585-1.759-.766-.804-1.149-1.822-1.149-3.054 0-1.023.285-1.917.856-2.683.572-.767 1.361-1.364 2.368-1.793 1.007-.436 2.16-.654 3.46-.654 1.872 0 3.345.406 4.419 1.218 1.075.804 1.785 1.882 2.131 3.235Z"/><path fill="#E2E8F0" d="M1107.88 352.212H322.736v2.117h785.144v-2.117Z" mask="url(#path-12-inside-2_605_313)"/><path fill="#3F3F46" d="M328.327 416.777v23.087h-2.796v-23.087h2.796Zm5.245 23.087v-17.315h2.57v2.706h.225c.361-.925.944-1.643 1.748-2.154.804-.518 1.769-.777 2.897-.777 1.142 0 2.093.259 2.852.777.766.511 1.364 1.229 1.792 2.154h.181a5.036 5.036 0 0 1 1.995-2.131c.887-.534 1.95-.8 3.19-.8 1.548 0 2.815.484 3.799 1.454.985.962 1.477 2.461 1.477 4.498v11.588h-2.661v-11.588c0-1.278-.349-2.191-1.048-2.74-.699-.548-1.522-.823-2.469-.823-1.217 0-2.16.369-2.829 1.105-.669.729-1.003 1.654-1.003 2.773v11.273h-2.706v-11.859c0-.984-.319-1.777-.958-2.378-.639-.609-1.462-.914-2.469-.914a3.65 3.65 0 0 0-1.939.553 4.163 4.163 0 0 0-1.443 1.533c-.361.646-.541 1.394-.541 2.243v10.822h-2.66Zm32.685.406c-1.097 0-2.093-.207-2.987-.62a5.128 5.128 0 0 1-2.13-1.815c-.527-.796-.79-1.758-.79-2.886 0-.992.196-1.796.587-2.412a4.136 4.136 0 0 1 1.567-1.466 8.236 8.236 0 0 1 2.164-.789c.797-.18 1.597-.323 2.401-.428 1.052-.135 1.905-.237 2.559-.304.661-.076 1.142-.2 1.443-.372.308-.173.462-.474.462-.902v-.09c0-1.113-.304-1.977-.913-2.593-.601-.616-1.514-.925-2.739-.925-1.27 0-2.266.278-2.988.835-.721.556-1.228 1.149-1.521 1.781l-2.526-.902c.451-1.052 1.053-1.871 1.804-2.458a6.773 6.773 0 0 1 2.48-1.24 10.32 10.32 0 0 1 2.661-.36c.556 0 1.194.067 1.916.203a6.11 6.11 0 0 1 2.108.8c.684.406 1.251 1.018 1.702 1.837.451.82.677 1.917.677 3.292v11.408h-2.661v-2.345h-.135c-.18.376-.481.778-.902 1.207-.421.428-.981.793-1.68 1.093-.699.301-1.551.451-2.559.451Zm.406-2.39c1.052 0 1.939-.206 2.661-.62.729-.413 1.277-.947 1.646-1.601a4.082 4.082 0 0 0 .563-2.062v-2.435c-.113.135-.361.259-.744.372-.376.105-.811.199-1.307.281-.489.076-.966.143-1.432.203-.459.053-.831.098-1.116.136a10.13 10.13 0 0 0-1.939.439c-.594.196-1.075.492-1.443.891-.361.391-.541.924-.541 1.601 0 .924.342 1.623 1.026 2.096.691.466 1.567.699 2.626.699Zm19.376 8.838c-1.286 0-2.39-.165-3.315-.496-.924-.323-1.694-.751-2.311-1.285a7.055 7.055 0 0 1-1.454-1.691l2.12-1.488c.24.316.544.676.913 1.082.368.414.871.771 1.51 1.071.646.308 1.492.462 2.537.462 1.397 0 2.551-.338 3.46-1.014.91-.677 1.364-1.736 1.364-3.179v-3.517h-.225c-.195.315-.474.706-.834 1.172-.353.459-.865.868-1.533 1.229-.662.353-1.556.53-2.683.53-1.398 0-2.653-.331-3.765-.992-1.105-.662-1.981-1.624-2.627-2.886-.639-1.263-.958-2.796-.958-4.6 0-1.773.312-3.318.935-4.633.624-1.322 1.492-2.344 2.604-3.066 1.113-.729 2.398-1.093 3.856-1.093 1.127 0 2.021.188 2.683.563.669.369 1.18.789 1.533 1.263.361.466.639.849.834 1.15h.271v-2.751h2.57v17.811c0 1.488-.338 2.698-1.015 3.63-.669.94-1.57 1.627-2.705 2.063-1.128.443-2.383.665-3.765.665Zm-.091-9.514c1.068 0 1.969-.244 2.706-.733.736-.488 1.296-1.191 1.68-2.108.383-.917.574-2.014.574-3.292 0-1.247-.187-2.348-.563-3.303-.376-.954-.932-1.702-1.669-2.243-.736-.541-1.645-.812-2.728-.812-1.127 0-2.066.286-2.818.857-.744.571-1.304 1.338-1.679 2.3-.369.962-.553 2.029-.553 3.201 0 1.203.188 2.266.564 3.191.383.916.947 1.638 1.691 2.164.751.519 1.683.778 2.795.778Zm19.705 3.021c-1.668 0-3.107-.368-4.317-1.105-1.203-.744-2.131-1.781-2.784-3.111-.647-1.338-.97-2.893-.97-4.667s.323-3.337.97-4.69c.653-1.36 1.563-2.42 2.728-3.179 1.172-.766 2.54-1.149 4.103-1.149.902 0 1.792.15 2.672.451.879.3 1.679.789 2.401 1.465.721.669 1.296 1.556 1.724 2.66.429 1.105.643 2.465.643 4.081v1.128h-13.347v-2.3h10.642c0-.977-.196-1.849-.587-2.615a4.41 4.41 0 0 0-1.646-1.815c-.706-.444-1.54-.666-2.502-.666-1.06 0-1.977.264-2.751.79a5.198 5.198 0 0 0-1.77 2.029 5.963 5.963 0 0 0-.62 2.683v1.533c0 1.307.226 2.416.677 3.325.458.902 1.093 1.59 1.905 2.063.812.466 1.755.699 2.829.699.699 0 1.331-.098 1.894-.293a4.046 4.046 0 0 0 1.477-.902c.413-.406.733-.909.958-1.51l2.57.721a5.694 5.694 0 0 1-1.364 2.3c-.638.654-1.427 1.165-2.367 1.533-.939.361-1.995.541-3.168.541Zm27.856-17.676v2.255h-9.334v-2.255h9.334Zm-6.539 17.315v-19.705c0-.992.233-1.818.699-2.48a4.337 4.337 0 0 1 1.815-1.488 5.734 5.734 0 0 1 2.356-.496c.654 0 1.188.053 1.601.158.413.105.722.203.925.293l-.767 2.3a12.125 12.125 0 0 0-.564-.169c-.233-.068-.541-.102-.924-.102-.879 0-1.514.222-1.905.665-.383.444-.575 1.094-.575 1.951v19.073h-2.661Zm16.589.361c-1.564 0-2.935-.372-4.115-1.116-1.172-.744-2.089-1.785-2.751-3.123-.653-1.337-.98-2.901-.98-4.689 0-1.804.327-3.378.98-4.723.662-1.346 1.579-2.39 2.751-3.134 1.18-.744 2.551-1.116 4.115-1.116 1.563 0 2.931.372 4.103 1.116 1.18.744 2.097 1.788 2.75 3.134.662 1.345.993 2.919.993 4.723 0 1.788-.331 3.352-.993 4.689-.653 1.338-1.57 2.379-2.75 3.123-1.172.744-2.54 1.116-4.103 1.116Zm0-2.39c1.187 0 2.164-.304 2.931-.913.766-.609 1.333-1.409 1.702-2.401.368-.992.552-2.067.552-3.224 0-1.158-.184-2.236-.552-3.235-.369-1-.936-1.808-1.702-2.424-.767-.616-1.744-.925-2.931-.925-1.188 0-2.165.309-2.931.925-.767.616-1.334 1.424-1.703 2.424-.368.999-.552 2.077-.552 3.235 0 1.157.184 2.232.552 3.224.369.992.936 1.792 1.703 2.401.766.609 1.743.913 2.931.913Zm11.907 2.029v-17.315h2.57v2.615h.18c.316-.856.887-1.552 1.714-2.085.826-.534 1.758-.8 2.795-.8.196 0 .44.003.733.011.293.007.515.019.665.034v2.705a8.22 8.22 0 0 0-.62-.101 6.051 6.051 0 0 0-1.003-.079c-.842 0-1.593.176-2.255.53a3.981 3.981 0 0 0-1.555 1.443c-.376.608-.564 1.303-.564 2.085v10.957h-2.66Zm11.811 0v-17.315h2.57v2.706h.225c.361-.925.944-1.643 1.748-2.154.804-.518 1.77-.777 2.897-.777 1.142 0 2.093.259 2.852.777.766.511 1.364 1.229 1.792 2.154h.181a5.036 5.036 0 0 1 1.995-2.131c.887-.534 1.95-.8 3.19-.8 1.548 0 2.815.484 3.799 1.454.985.962 1.477 2.461 1.477 4.498v11.588h-2.66v-11.588c0-1.278-.35-2.191-1.049-2.74-.699-.548-1.522-.823-2.469-.823-1.217 0-2.16.369-2.829 1.105-.669.729-1.003 1.654-1.003 2.773v11.273h-2.706v-11.859c0-.984-.319-1.777-.958-2.378-.639-.609-1.462-.914-2.469-.914a3.65 3.65 0 0 0-1.939.553 4.172 4.172 0 0 0-1.443 1.533c-.36.646-.541 1.394-.541 2.243v10.822h-2.66Zm32.686.406c-1.098 0-2.093-.207-2.988-.62a5.128 5.128 0 0 1-2.13-1.815c-.526-.796-.789-1.758-.789-2.886 0-.992.195-1.796.586-2.412a4.144 4.144 0 0 1 1.567-1.466 8.249 8.249 0 0 1 2.164-.789c.797-.18 1.597-.323 2.401-.428 1.052-.135 1.905-.237 2.559-.304.661-.076 1.142-.2 1.443-.372.308-.173.462-.474.462-.902v-.09c0-1.113-.304-1.977-.913-2.593-.601-.616-1.514-.925-2.739-.925-1.27 0-2.266.278-2.987.835-.722.556-1.229 1.149-1.522 1.781l-2.525-.902c.45-1.052 1.052-1.871 1.803-2.458a6.773 6.773 0 0 1 2.48-1.24 10.32 10.32 0 0 1 2.661-.36c.556 0 1.195.067 1.916.203a6.11 6.11 0 0 1 2.108.8c.684.406 1.251 1.018 1.702 1.837.451.82.677 1.917.677 3.292v11.408h-2.661v-2.345h-.135c-.18.376-.481.778-.902 1.207-.421.428-.981.793-1.68 1.093-.698.301-1.551.451-2.558.451Zm.405-2.39c1.053 0 1.939-.206 2.661-.62.729-.413 1.277-.947 1.646-1.601a4.082 4.082 0 0 0 .563-2.062v-2.435c-.112.135-.36.259-.744.372-.376.105-.811.199-1.307.281-.489.076-.966.143-1.432.203-.458.053-.83.098-1.116.136-.691.09-1.338.236-1.939.439-.594.196-1.075.492-1.443.891-.361.391-.541.924-.541 1.601 0 .924.342 1.623 1.026 2.096.691.466 1.567.699 2.626.699Zm19.917-15.331v2.255h-8.973v-2.255h8.973Zm-6.358-4.148h2.66v16.503c0 .752.109 1.315.327 1.691.226.368.511.616.857.744.353.12.725.18 1.116.18.293 0 .534-.015.721-.045l.451-.09.541 2.39c-.18.068-.432.135-.755.203-.323.075-.733.113-1.229.113a5.356 5.356 0 0 1-2.209-.485 4.38 4.38 0 0 1-1.781-1.477c-.466-.661-.699-1.495-.699-2.502v-17.225Zm22.315 8.026-2.39.676a4.47 4.47 0 0 0-.665-1.161c-.286-.383-.677-.699-1.173-.947s-1.131-.372-1.905-.372c-1.06 0-1.943.245-2.649.733-.699.481-1.048 1.094-1.048 1.838 0 .661.24 1.183.721 1.566.481.384 1.233.703 2.255.959l2.57.631c1.548.376 2.702.951 3.461 1.725.759.766 1.138 1.754 1.138 2.964 0 .992-.285 1.879-.857 2.661-.563.781-1.352 1.398-2.367 1.849-1.014.451-2.194.676-3.54.676-1.766 0-3.227-.383-4.385-1.15-1.157-.766-1.89-1.886-2.198-3.359l2.525-.631c.241.931.695 1.63 1.364 2.096.677.466 1.56.699 2.649.699 1.24 0 2.225-.263 2.954-.789.736-.533 1.105-1.172 1.105-1.916 0-.601-.211-1.105-.632-1.511-.421-.413-1.067-.721-1.939-.924l-2.885-.677c-1.586-.375-2.751-.958-3.495-1.747-.737-.797-1.105-1.792-1.105-2.987 0-.977.274-1.841.823-2.593.556-.752 1.312-1.341 2.266-1.77.962-.428 2.052-.642 3.269-.642 1.714 0 3.059.375 4.036 1.127.984.751 1.683 1.743 2.097 2.976Zm15.908-9.65v23.087h-2.66v-23.087h2.66Zm4.873 23.087v-17.315h2.661v17.315h-2.661Zm1.353-20.201a1.89 1.89 0 0 1-1.342-.53 1.7 1.7 0 0 1-.552-1.273c0-.496.184-.921.552-1.274a1.89 1.89 0 0 1 1.342-.53c.518 0 .962.176 1.33.53.376.353.564.778.564 1.274s-.188.92-.564 1.273a1.85 1.85 0 0 1-1.33.53Zm8.66 13.888-.045-3.291h.541l7.576-7.711h3.291l-8.071 8.162h-.225l-3.067 2.84Zm-2.48 6.313v-23.087h2.661v23.087h-2.661Zm11.003 0-6.764-8.567 1.894-1.849 8.252 10.416h-3.382Zm12.811.361c-1.668 0-3.107-.368-4.317-1.105-1.203-.744-2.131-1.781-2.785-3.111-.646-1.338-.969-2.893-.969-4.667s.323-3.337.969-4.69c.654-1.36 1.564-2.42 2.728-3.179 1.173-.766 2.541-1.149 4.104-1.149.902 0 1.792.15 2.671.451.88.3 1.68.789 2.402 1.465.721.669 1.296 1.556 1.724 2.66.429 1.105.643 2.465.643 4.081v1.128h-13.347v-2.3h10.641c0-.977-.195-1.849-.586-2.615a4.41 4.41 0 0 0-1.646-1.815c-.706-.444-1.54-.666-2.502-.666-1.06 0-1.977.264-2.751.79a5.198 5.198 0 0 0-1.77 2.029 5.963 5.963 0 0 0-.62 2.683v1.533c0 1.307.226 2.416.677 3.325.458.902 1.093 1.59 1.905 2.063.811.466 1.755.699 2.829.699a5.77 5.77 0 0 0 1.894-.293 4.046 4.046 0 0 0 1.477-.902c.413-.406.733-.909.958-1.51l2.57.721a5.694 5.694 0 0 1-1.364 2.3c-.639.654-1.428 1.165-2.367 1.533-.939.361-1.995.541-3.168.541Zm24.699-.361-6.313-23.087h2.841l4.825 18.804h.225l4.915-18.804h3.157l4.915 18.804h.225l4.825-18.804h2.841l-6.313 23.087h-2.886l-5.095-18.397h-.181l-5.095 18.397h-2.886Zm31.226.361c-1.668 0-3.107-.368-4.317-1.105-1.203-.744-2.131-1.781-2.785-3.111-.646-1.338-.969-2.893-.969-4.667s.323-3.337.969-4.69c.654-1.36 1.563-2.42 2.728-3.179 1.173-.766 2.54-1.149 4.104-1.149.901 0 1.792.15 2.671.451.88.3 1.68.789 2.401 1.465.722.669 1.297 1.556 1.725 2.66.429 1.105.643 2.465.643 4.081v1.128h-13.347v-2.3h10.641c0-.977-.195-1.849-.586-2.615a4.41 4.41 0 0 0-1.646-1.815c-.706-.444-1.54-.666-2.502-.666-1.06 0-1.977.264-2.751.79a5.19 5.19 0 0 0-1.77 2.029 5.963 5.963 0 0 0-.62 2.683v1.533c0 1.307.226 2.416.677 3.325.458.902 1.093 1.59 1.905 2.063.811.466 1.754.699 2.829.699a5.77 5.77 0 0 0 1.894-.293 4.054 4.054 0 0 0 1.477-.902 4.11 4.11 0 0 0 .958-1.51l2.57.721a5.694 5.694 0 0 1-1.364 2.3c-.639.654-1.428 1.165-2.367 1.533-.94.361-1.995.541-3.168.541Zm11.577-.361v-23.087h2.661v8.523h.225c.196-.301.466-.684.812-1.15.353-.474.857-.894 1.511-1.263.661-.375 1.555-.563 2.682-.563 1.458 0 2.744.364 3.856 1.093 1.112.729 1.98 1.762 2.604 3.1.624 1.338.935 2.916.935 4.735 0 1.833-.311 3.423-.935 4.768-.624 1.338-1.488 2.375-2.593 3.112-1.105.729-2.379 1.093-3.821 1.093-1.113 0-2.003-.184-2.672-.552-.669-.376-1.184-.801-1.545-1.274-.36-.481-.638-.88-.834-1.195h-.315v2.66h-2.571Zm2.616-8.657c0 1.307.191 2.461.575 3.46.383.992.943 1.77 1.679 2.334.737.556 1.639.834 2.706.834 1.112 0 2.04-.293 2.784-.879.752-.594 1.315-1.39 1.691-2.39.383-1.007.575-2.127.575-3.359 0-1.218-.188-2.315-.564-3.292-.368-.985-.928-1.762-1.679-2.334-.744-.578-1.68-.868-2.807-.868-1.082 0-1.992.275-2.728.823-.737.541-1.293 1.301-1.669 2.278-.375.969-.563 2.1-.563 3.393Zm17.101 8.657v-23.087h7.801c1.811 0 3.291.327 4.441.981 1.157.646 2.014 1.522 2.57 2.627.556 1.104.835 2.337.835 3.697 0 1.36-.279 2.597-.835 3.709-.548 1.112-1.398 1.999-2.547 2.66-1.15.654-2.623.981-4.419.981h-5.592v-2.48h5.501c1.241 0 2.236-.214 2.988-.642.751-.429 1.296-1.008 1.634-1.736.346-.737.519-1.567.519-2.492 0-.924-.173-1.751-.519-2.48-.338-.729-.886-1.3-1.645-1.713-.759-.421-1.767-.632-3.022-.632h-4.915v20.607h-2.795Zm33.813.406c-1.097 0-2.093-.207-2.987-.62a5.125 5.125 0 0 1-2.131-1.815c-.526-.796-.789-1.758-.789-2.886 0-.992.195-1.796.586-2.412a4.144 4.144 0 0 1 1.567-1.466 8.249 8.249 0 0 1 2.164-.789c.797-.18 1.597-.323 2.401-.428a107.33 107.33 0 0 1 2.559-.304c.662-.076 1.143-.2 1.443-.372.308-.173.463-.474.463-.902v-.09c0-1.113-.305-1.977-.914-2.593-.601-.616-1.514-.925-2.739-.925-1.27 0-2.266.278-2.987.835-.722.556-1.229 1.149-1.522 1.781l-2.525-.902c.451-1.052 1.052-1.871 1.803-2.458a6.777 6.777 0 0 1 2.481-1.24c.901-.24 1.788-.36 2.66-.36.556 0 1.195.067 1.916.203a6.11 6.11 0 0 1 2.108.8c.684.406 1.252 1.018 1.703 1.837.45.82.676 1.917.676 3.292v11.408h-2.66v-2.345h-.136c-.18.376-.481.778-.902 1.207-.42.428-.98.793-1.679 1.093-.699.301-1.552.451-2.559.451Zm.406-2.39c1.052 0 1.939-.206 2.66-.62.729-.413 1.278-.947 1.646-1.601a4.073 4.073 0 0 0 .564-2.062v-2.435c-.113.135-.361.259-.744.372-.376.105-.812.199-1.308.281-.489.076-.966.143-1.432.203-.458.053-.83.098-1.116.136-.691.09-1.338.236-1.939.439-.593.196-1.074.492-1.443.891-.36.391-.541.924-.541 1.601 0 .924.342 1.623 1.026 2.096.691.466 1.567.699 2.627.699Zm15.046-8.432v10.416h-2.66v-17.315h2.57v2.706h.225a4.945 4.945 0 0 1 1.849-2.12c.827-.541 1.894-.811 3.202-.811 1.172 0 2.198.24 3.077.721.879.474 1.563 1.195 2.052 2.164.488.962.733 2.18.733 3.653v11.002h-2.661v-10.822c0-1.36-.353-2.42-1.059-3.179-.707-.766-1.676-1.15-2.909-1.15-.849 0-1.608.185-2.277.553-.661.368-1.184.905-1.567 1.612-.383.706-.575 1.563-.575 2.57Zm22.447 10.777c-1.443 0-2.716-.364-3.821-1.093-1.105-.737-1.969-1.774-2.593-3.112-.624-1.345-.936-2.935-.936-4.768 0-1.819.312-3.397.936-4.735.624-1.338 1.492-2.371 2.604-3.1 1.112-.729 2.397-1.093 3.855-1.093 1.128 0 2.018.188 2.672.563.661.369 1.165.789 1.511 1.263.353.466.627.849.823 1.15h.225v-8.523h2.66v23.087h-2.57v-2.66h-.315c-.196.315-.474.714-.835 1.195-.36.473-.875.898-1.544 1.274-.669.368-1.559.552-2.672.552Zm.361-2.39c1.067 0 1.969-.278 2.706-.834.736-.564 1.296-1.342 1.679-2.334.383-.999.575-2.153.575-3.46 0-1.293-.188-2.424-.564-3.393-.375-.977-.931-1.737-1.668-2.278-.736-.548-1.646-.823-2.728-.823-1.127 0-2.067.29-2.818.868-.744.572-1.304 1.349-1.68 2.334-.368.977-.552 2.074-.552 3.292 0 1.232.188 2.352.563 3.359.384 1 .947 1.796 1.691 2.39.752.586 1.684.879 2.796.879Zm23.053 2.029h-2.931l8.477-23.087h2.886l8.477 23.087h-2.93l-6.899-19.434h-.181l-6.899 19.434Zm1.082-9.018h11.814v2.48h-11.814v-2.48Zm18.2-14.069 6.854 19.435h.271l6.854-19.435h2.931l-8.477 23.087h-2.886l-8.478-23.087h2.931Zm23.302 0v23.087h-2.796v-23.087h2.796Zm5.605 23.087v-23.087h13.843v2.48H821.7v7.801h10.01v2.48H821.7v10.326h-2.796Zm34.233.361c-1.563 0-2.935-.372-4.115-1.116-1.172-.744-2.089-1.785-2.75-3.123-.654-1.337-.981-2.901-.981-4.689 0-1.804.327-3.378.981-4.723.661-1.346 1.578-2.39 2.75-3.134 1.18-.744 2.552-1.116 4.115-1.116 1.563 0 2.931.372 4.103 1.116 1.18.744 2.097 1.788 2.751 3.134.661 1.345.992 2.919.992 4.723 0 1.788-.331 3.352-.992 4.689-.654 1.338-1.571 2.379-2.751 3.123-1.172.744-2.54 1.116-4.103 1.116Zm0-2.39c1.187 0 2.164-.304 2.931-.913.766-.609 1.334-1.409 1.702-2.401.368-.992.552-2.067.552-3.224 0-1.158-.184-2.236-.552-3.235-.368-1-.936-1.808-1.702-2.424-.767-.616-1.744-.925-2.931-.925s-2.164.309-2.931.925c-.767.616-1.334 1.424-1.702 2.424a9.286 9.286 0 0 0-.553 3.235c0 1.157.185 2.232.553 3.224.368.992.935 1.792 1.702 2.401.767.609 1.744.913 2.931.913Zm19.618-15.286v2.255h-9.334v-2.255h9.334Zm-6.539 17.315v-19.705c0-.992.233-1.818.699-2.48a4.337 4.337 0 0 1 1.815-1.488 5.734 5.734 0 0 1 2.356-.496c.654 0 1.188.053 1.601.158.413.105.721.203.924.293l-.766 2.3a12.125 12.125 0 0 0-.564-.169c-.233-.068-.541-.102-.924-.102-.88 0-1.515.222-1.905.665-.384.444-.575 1.094-.575 1.951v19.073h-2.661Zm17.797-17.315v2.255h-8.973v-2.255h8.973Zm-6.357-4.148h2.66v16.503c0 .752.109 1.315.327 1.691.225.368.511.616.857.744.353.12.725.18 1.116.18.293 0 .533-.015.721-.045l.451-.09.541 2.39c-.18.068-.432.135-.755.203-.323.075-.733.113-1.229.113a5.356 5.356 0 0 1-2.209-.485 4.389 4.389 0 0 1-1.782-1.477c-.465-.661-.698-1.495-.698-2.502v-17.225Zm17.433 21.824c-1.668 0-3.107-.368-4.317-1.105-1.203-.744-2.131-1.781-2.785-3.111-.646-1.338-.969-2.893-.969-4.667s.323-3.337.969-4.69c.654-1.36 1.563-2.42 2.728-3.179 1.173-.766 2.54-1.149 4.104-1.149.901 0 1.792.15 2.671.451.88.3 1.68.789 2.401 1.465.722.669 1.297 1.556 1.725 2.66.428 1.105.643 2.465.643 4.081v1.128h-13.347v-2.3h10.641c0-.977-.195-1.849-.586-2.615a4.41 4.41 0 0 0-1.646-1.815c-.706-.444-1.54-.666-2.502-.666-1.06 0-1.977.264-2.751.79a5.182 5.182 0 0 0-1.77 2.029 5.963 5.963 0 0 0-.62 2.683v1.533c0 1.307.226 2.416.676 3.325.459.902 1.094 1.59 1.906 2.063.811.466 1.754.699 2.829.699a5.77 5.77 0 0 0 1.894-.293 4.054 4.054 0 0 0 1.477-.902 4.11 4.11 0 0 0 .958-1.51l2.57.721a5.694 5.694 0 0 1-1.364 2.3c-.639.654-1.428 1.165-2.367 1.533-.94.361-1.996.541-3.168.541Zm13.877-10.777v10.416h-2.66v-17.315h2.57v2.706h.225a4.945 4.945 0 0 1 1.849-2.12c.827-.541 1.894-.811 3.202-.811 1.172 0 2.198.24 3.077.721.879.474 1.563 1.195 2.052 2.164.488.962.732 2.18.732 3.653v11.002h-2.66v-10.822c0-1.36-.353-2.42-1.06-3.179-.706-.766-1.675-1.15-2.908-1.15-.849 0-1.608.185-2.277.553-.661.368-1.184.905-1.567 1.612-.383.706-.575 1.563-.575 2.57Zm24.837 16.909v-23.808h2.57v2.751h.316c.195-.301.466-.684.812-1.15.353-.474.856-.894 1.51-1.263.661-.375 1.556-.563 2.683-.563 1.458 0 2.743.364 3.855 1.093 1.113.729 1.981 1.762 2.604 3.1.624 1.338.936 2.916.936 4.735 0 1.833-.312 3.423-.936 4.768-.623 1.338-1.488 2.375-2.592 3.112-1.105.729-2.379 1.093-3.822 1.093-1.112 0-2.003-.184-2.672-.552-.668-.376-1.183-.801-1.544-1.274-.361-.481-.639-.88-.834-1.195h-.226v9.153h-2.66Zm2.615-15.15c0 1.307.192 2.461.575 3.46.384.992.943 1.77 1.68 2.334.736.556 1.638.834 2.705.834 1.113 0 2.041-.293 2.785-.879.751-.594 1.315-1.39 1.691-2.39.383-1.007.575-2.127.575-3.359 0-1.218-.188-2.315-.564-3.292-.368-.985-.928-1.762-1.68-2.334-.744-.578-1.679-.868-2.807-.868-1.082 0-1.991.275-2.728.823-.736.541-1.292 1.301-1.668 2.278-.376.969-.564 2.1-.564 3.393Zm16.729 8.657v-17.315h2.571v2.615h.18c.316-.856.887-1.552 1.713-2.085.827-.534 1.759-.8 2.796-.8.195 0 .44.003.733.011.293.007.515.019.665.034v2.705a8.22 8.22 0 0 0-.62-.101 6.06 6.06 0 0 0-1.003-.079c-.842 0-1.594.176-2.255.53a3.99 3.99 0 0 0-1.556 1.443c-.375.608-.563 1.303-.563 2.085v10.957h-2.661Zm18.319.361c-1.563 0-2.935-.372-4.115-1.116-1.172-.744-2.089-1.785-2.75-3.123-.654-1.337-.981-2.901-.981-4.689 0-1.804.327-3.378.981-4.723.661-1.346 1.578-2.39 2.75-3.134 1.18-.744 2.552-1.116 4.115-1.116 1.563 0 2.931.372 4.103 1.116 1.18.744 2.097 1.788 2.751 3.134.661 1.345.992 2.919.992 4.723 0 1.788-.331 3.352-.992 4.689-.654 1.338-1.571 2.379-2.751 3.123-1.172.744-2.54 1.116-4.103 1.116Zm0-2.39c1.187 0 2.164-.304 2.931-.913.766-.609 1.334-1.409 1.702-2.401.368-.992.552-2.067.552-3.224 0-1.158-.184-2.236-.552-3.235-.368-1-.936-1.808-1.702-2.424-.767-.616-1.744-.925-2.931-.925-1.188 0-2.165.309-2.931.925-.767.616-1.334 1.424-1.702 2.424-.369.999-.553 2.077-.553 3.235 0 1.157.184 2.232.553 3.224.368.992.935 1.792 1.702 2.401.766.609 1.743.913 2.931.913Zm25.446-15.286-6.403 17.315h-2.706l-6.403-17.315h2.886l4.78 13.798h.18l4.78-13.798h2.886Zm3.508 17.315v-17.315h2.66v17.315h-2.66Zm1.36-20.201c-.52 0-.97-.176-1.35-.53a1.726 1.726 0 0 1-.548-1.273c0-.496.188-.921.548-1.274.38-.354.83-.53 1.35-.53.51 0 .96.176 1.33.53.37.353.56.778.56 1.274s-.19.92-.56 1.273c-.37.354-.82.53-1.33.53Zm12.71 20.562c-1.44 0-2.71-.364-3.82-1.093-1.1-.737-1.97-1.774-2.59-3.112-.62-1.345-.94-2.935-.94-4.768 0-1.819.32-3.397.94-4.735.62-1.338 1.49-2.371 2.6-3.1 1.12-.729 2.4-1.093 3.86-1.093 1.13 0 2.02.188 2.67.563.66.369 1.17.789 1.51 1.263.36.466.63.849.82 1.15h.23v-8.523h2.66v23.087h-2.57v-2.66h-.32c-.19.315-.47.714-.83 1.195-.36.473-.87.898-1.54 1.274-.67.368-1.56.552-2.68.552Zm.37-2.39c1.06 0 1.96-.278 2.7-.834.74-.564 1.3-1.342 1.68-2.334.38-.999.58-2.153.58-3.46 0-1.293-.19-2.424-.57-3.393-.37-.977-.93-1.737-1.67-2.278-.73-.548-1.64-.823-2.72-.823-1.13 0-2.07.29-2.82.868-.75.572-1.31 1.349-1.68 2.334-.37.977-.56 2.074-.56 3.292 0 1.232.19 2.352.57 3.359.38 1 .95 1.796 1.69 2.39.75.586 1.68.879 2.8.879Zm20.07 2.39c-1.67 0-3.11-.368-4.32-1.105-1.2-.744-2.13-1.781-2.78-3.111-.65-1.338-.97-2.893-.97-4.667s.32-3.337.97-4.69c.65-1.36 1.56-2.42 2.73-3.179 1.17-.766 2.54-1.149 4.1-1.149.9 0 1.79.15 2.67.451.88.3 1.68.789 2.4 1.465.73.669 1.3 1.556 1.73 2.66.43 1.105.64 2.465.64 4.081v1.128h-13.35v-2.3h10.65c0-.977-.2-1.849-.59-2.615a4.36 4.36 0 0 0-1.65-1.815c-.7-.444-1.54-.666-2.5-.666-1.06 0-1.97.264-2.75.79a5.135 5.135 0 0 0-1.77 2.029 6.003 6.003 0 0 0-.62 2.683v1.533c0 1.307.23 2.416.68 3.325.46.902 1.09 1.59 1.9 2.063.81.466 1.76.699 2.83.699.7 0 1.33-.098 1.9-.293a4 4 0 0 0 1.47-.902c.42-.406.74-.909.96-1.51l2.57.721a5.674 5.674 0 0 1-1.36 2.3c-.64.654-1.43 1.165-2.37 1.533-.94.361-2 .541-3.17.541Zm20.51-.361v-23.087h2.66v8.523h.22c.2-.301.47-.684.82-1.15.35-.474.85-.894 1.51-1.263.66-.375 1.55-.563 2.68-.563 1.46 0 2.74.364 3.85 1.093 1.12.729 1.98 1.762 2.61 3.1.62 1.338.93 2.916.93 4.735 0 1.833-.31 3.423-.93 4.768-.63 1.338-1.49 2.375-2.59 3.112-1.11.729-2.38 1.093-3.83 1.093-1.11 0-2-.184-2.67-.552-.67-.376-1.18-.801-1.54-1.274-.36-.481-.64-.88-.84-1.195h-.31v2.66h-2.57Zm2.61-8.657c0 1.307.19 2.461.58 3.46.38.992.94 1.77 1.68 2.334.73.556 1.64.834 2.7.834 1.12 0 2.04-.293 2.79-.879.75-.594 1.31-1.39 1.69-2.39.38-1.007.57-2.127.57-3.359 0-1.218-.18-2.315-.56-3.292-.37-.985-.93-1.762-1.68-2.334-.74-.578-1.68-.868-2.81-.868-1.08 0-1.99.275-2.73.823-.73.541-1.29 1.301-1.66 2.278-.38.969-.57 2.1-.57 3.393Zm24 9.018c-1.67 0-3.1-.368-4.31-1.105-1.21-.744-2.14-1.781-2.79-3.111-.65-1.338-.97-2.893-.97-4.667s.32-3.337.97-4.69c.65-1.36 1.56-2.42 2.73-3.179 1.17-.766 2.54-1.149 4.1-1.149.9 0 1.79.15 2.67.451.88.3 1.68.789 2.41 1.465.72.669 1.29 1.556 1.72 2.66.43 1.105.64 2.465.64 4.081v1.128h-13.34v-2.3h10.64c0-.977-.2-1.849-.59-2.615a4.403 4.403 0 0 0-1.64-1.815c-.71-.444-1.55-.666-2.51-.666-1.06 0-1.97.264-2.75.79a5.296 5.296 0 0 0-1.77 2.029 6.003 6.003 0 0 0-.62 2.683v1.533c0 1.307.23 2.416.68 3.325.46.902 1.09 1.59 1.9 2.063.82.466 1.76.699 2.83.699.7 0 1.33-.098 1.9-.293a4 4 0 0 0 1.47-.902c.42-.406.74-.909.96-1.51l2.57.721a5.674 5.674 0 0 1-1.36 2.3c-.64.654-1.43 1.165-2.37 1.533-.94.361-1.99.541-3.17.541Zm18.75-17.676v2.255h-8.97v-2.255h8.97Zm-6.36-4.148h2.66v16.503c0 .752.11 1.315.33 1.691.22.368.51.616.86.744.35.12.72.18 1.11.18.3 0 .54-.015.72-.045l.45-.09.55 2.39c-.18.068-.44.135-.76.203-.32.075-.73.113-1.23.113a5.36 5.36 0 0 1-2.21-.485 4.383 4.383 0 0 1-1.78-1.477c-.47-.661-.7-1.495-.7-2.502v-17.225Zm17.89 4.148v2.255h-8.97v-2.255h8.97Zm-6.36-4.148h2.66v16.503c0 .752.11 1.315.33 1.691.23.368.51.616.86.744.35.12.72.18 1.11.18.3 0 .54-.015.73-.045l.45-.09.54 2.39c-.18.068-.43.135-.76.203-.32.075-.73.113-1.23.113-.75 0-1.48-.162-2.21-.485a4.45 4.45 0 0 1-1.78-1.477c-.46-.661-.7-1.495-.7-2.502v-17.225Zm17.44 21.824c-1.67 0-3.11-.368-4.32-1.105-1.2-.744-2.13-1.781-2.78-3.111-.65-1.338-.97-2.893-.97-4.667s.32-3.337.97-4.69c.65-1.36 1.56-2.42 2.72-3.179 1.18-.766 2.54-1.149 4.11-1.149.9 0 1.79.15 2.67.451.88.3 1.68.789 2.4 1.465.72.669 1.3 1.556 1.72 2.66.43 1.105.65 2.465.65 4.081v1.128h-13.35v-2.3h10.64c0-.977-.19-1.849-.58-2.615a4.496 4.496 0 0 0-1.65-1.815c-.71-.444-1.54-.666-2.5-.666-1.06 0-1.98.264-2.75.79a5.135 5.135 0 0 0-1.77 2.029 5.873 5.873 0 0 0-.62 2.683v1.533c0 1.307.22 2.416.67 3.325.46.902 1.1 1.59 1.91 2.063.81.466 1.75.699 2.83.699.7 0 1.33-.098 1.89-.293a4.125 4.125 0 0 0 1.48-.902c.41-.406.73-.909.96-1.51l2.57.721a5.696 5.696 0 0 1-1.37 2.3c-.64.654-1.43 1.165-2.36 1.533-.94.361-2 .541-3.17.541Zm11.21-.361v-17.315h2.57v2.615h.18c.32-.856.89-1.552 1.72-2.085.82-.534 1.76-.8 2.79-.8.2 0 .44.003.74.011.29.007.51.019.66.034v2.705c-.09-.022-.3-.056-.62-.101a5.997 5.997 0 0 0-1-.079c-.84 0-1.59.176-2.26.53-.65.345-1.17.826-1.55 1.443-.38.608-.57 1.303-.57 2.085v10.957h-2.66Zm27.78.361c-1.63 0-3.02-.383-4.2-1.15-1.17-.766-2.07-1.822-2.7-3.168-.63-1.345-.95-2.882-.95-4.61 0-1.759.32-3.311.97-4.656.66-1.353 1.56-2.409 2.73-3.168 1.17-.766 2.54-1.149 4.1-1.149 1.22 0 2.32.225 3.29.676a6.355 6.355 0 0 1 2.41 1.894c.62.811 1.01 1.758 1.16 2.841h-2.66c-.21-.789-.66-1.488-1.36-2.097-.69-.616-1.62-.925-2.79-.925-1.04 0-1.95.271-2.73.812-.77.534-1.38 1.289-1.82 2.266-.42.969-.64 2.108-.64 3.416 0 1.337.21 2.502.63 3.494.43.992 1.03 1.763 1.81 2.311.78.549 1.7.823 2.75.823.69 0 1.32-.12 1.88-.361.56-.24 1.04-.586 1.43-1.037.39-.451.67-.992.84-1.623h2.66a6.208 6.208 0 0 1-1.12 2.762c-.59.812-1.36 1.458-2.33 1.939-.96.473-2.08.71-3.36.71Zm17.73 0c-1.56 0-2.93-.372-4.11-1.116-1.18-.744-2.09-1.785-2.76-3.123-.65-1.337-.98-2.901-.98-4.689 0-1.804.33-3.378.98-4.723.67-1.346 1.58-2.39 2.76-3.134 1.18-.744 2.55-1.116 4.11-1.116 1.56 0 2.93.372 4.1 1.116 1.18.744 2.1 1.788 2.75 3.134.67 1.345 1 2.919 1 4.723 0 1.788-.33 3.352-1 4.689-.65 1.338-1.57 2.379-2.75 3.123-1.17.744-2.54 1.116-4.1 1.116Zm0-2.39c1.19 0 2.16-.304 2.93-.913s1.33-1.409 1.7-2.401c.37-.992.56-2.067.56-3.224 0-1.158-.19-2.236-.56-3.235-.37-1-.93-1.808-1.7-2.424-.77-.616-1.74-.925-2.93-.925-1.19 0-2.16.309-2.93.925-.77.616-1.33 1.424-1.7 2.424a9.242 9.242 0 0 0-.56 3.235c0 1.157.19 2.232.56 3.224.37.992.93 1.792 1.7 2.401.77.609 1.74.913 2.93.913Zm11.91 2.029v-17.315h2.57v2.706h.22c.36-.925.95-1.643 1.75-2.154.8-.518 1.77-.777 2.9-.777 1.14 0 2.09.259 2.85.777.77.511 1.36 1.229 1.79 2.154h.18a5.073 5.073 0 0 1 2-2.131c.88-.534 1.95-.8 3.19-.8 1.55 0 2.81.484 3.8 1.454.98.962 1.47 2.461 1.47 4.498v11.588h-2.66v-11.588c0-1.278-.35-2.191-1.05-2.74-.69-.548-1.52-.823-2.46-.823-1.22 0-2.16.369-2.83 1.105-.67.729-1.01 1.654-1.01 2.773v11.273h-2.7v-11.859c0-.984-.32-1.777-.96-2.378-.64-.609-1.46-.914-2.47-.914-.69 0-1.34.185-1.94.553-.59.368-1.07.879-1.44 1.533-.36.646-.54 1.394-.54 2.243v10.822h-2.66Zm27.59 6.493v-23.808h2.57v2.751h.31c.2-.301.47-.684.82-1.15.35-.474.85-.894 1.51-1.263.66-.375 1.55-.563 2.68-.563 1.46 0 2.74.364 3.85 1.093 1.12.729 1.98 1.762 2.61 3.1.62 1.338.93 2.916.93 4.735 0 1.833-.31 3.423-.93 4.768-.63 1.338-1.49 2.375-2.59 3.112-1.11.729-2.38 1.093-3.83 1.093-1.11 0-2-.184-2.67-.552-.67-.376-1.18-.801-1.54-1.274-.36-.481-.64-.88-.84-1.195h-.22v9.153h-2.66Zm2.61-15.15c0 1.307.19 2.461.58 3.46.38.992.94 1.77 1.68 2.334.73.556 1.64.834 2.7.834 1.12 0 2.04-.293 2.79-.879.75-.594 1.31-1.39 1.69-2.39.38-1.007.57-2.127.57-3.359 0-1.218-.18-2.315-.56-3.292-.37-.985-.93-1.762-1.68-2.334-.74-.578-1.68-.868-2.81-.868-1.08 0-1.99.275-2.73.823-.73.541-1.29 1.301-1.66 2.278-.38.969-.57 2.1-.57 3.393Zm16.73 8.657v-17.315h2.57v2.615h.18c.32-.856.89-1.552 1.72-2.085.82-.534 1.75-.8 2.79-.8.2 0 .44.003.73.011.3.007.52.019.67.034v2.705c-.09-.022-.3-.056-.62-.101a6.085 6.085 0 0 0-1-.079c-.85 0-1.6.176-2.26.53-.65.345-1.17.826-1.55 1.443-.38.608-.57 1.303-.57 2.085v10.957h-2.66Zm18.55.361c-1.67 0-3.11-.368-4.32-1.105-1.2-.744-2.13-1.781-2.79-3.111-.64-1.338-.97-2.893-.97-4.667s.33-3.337.97-4.69c.66-1.36 1.57-2.42 2.73-3.179 1.17-.766 2.54-1.149 4.11-1.149.9 0 1.79.15 2.67.451.88.3 1.68.789 2.4 1.465.72.669 1.29 1.556 1.72 2.66.43 1.105.65 2.465.65 4.081v1.128h-13.35v-2.3h10.64c0-.977-.2-1.849-.59-2.615a4.403 4.403 0 0 0-1.64-1.815c-.71-.444-1.54-.666-2.5-.666-1.06 0-1.98.264-2.76.79a5.296 5.296 0 0 0-1.77 2.029 6.003 6.003 0 0 0-.62 2.683v1.533c0 1.307.23 2.416.68 3.325.46.902 1.09 1.59 1.91 2.063.81.466 1.75.699 2.83.699.69 0 1.33-.098 1.89-.293a4.125 4.125 0 0 0 1.48-.902c.41-.406.73-.909.95-1.51l2.57.721a5.674 5.674 0 0 1-1.36 2.3c-.64.654-1.43 1.165-2.37 1.533-.94.361-1.99.541-3.16.541Zm23.48-13.798-2.39.676a4.273 4.273 0 0 0-.67-1.161c-.28-.383-.67-.699-1.17-.947-.5-.248-1.13-.372-1.91-.372-1.05 0-1.94.245-2.64.733-.7.481-1.05 1.094-1.05 1.838 0 .661.24 1.183.72 1.566.48.384 1.23.703 2.25.959l2.57.631c1.55.376 2.71.951 3.46 1.725.76.766 1.14 1.754 1.14 2.964 0 .992-.28 1.879-.85 2.661-.57.781-1.36 1.398-2.37 1.849-1.02.451-2.2.676-3.54.676-1.77 0-3.23-.383-4.39-1.15-1.15-.766-1.89-1.886-2.19-3.359l2.52-.631c.24.931.7 1.63 1.36 2.096.68.466 1.56.699 2.65.699 1.24 0 2.23-.263 2.96-.789.73-.533 1.1-1.172 1.1-1.916 0-.601-.21-1.105-.63-1.511-.42-.413-1.07-.721-1.94-.924l-2.88-.677c-1.59-.375-2.75-.958-3.5-1.747-.73-.797-1.1-1.792-1.1-2.987 0-.977.27-1.841.82-2.593.56-.752 1.31-1.341 2.27-1.77.96-.428 2.05-.642 3.26-.642 1.72 0 3.06.375 4.04 1.127.98.751 1.68 1.743 2.1 2.976Zm16.58 0-2.39.676a4.505 4.505 0 0 0-.66-1.161 3.312 3.312 0 0 0-1.17-.947c-.5-.248-1.14-.372-1.91-.372-1.06 0-1.94.245-2.65.733-.7.481-1.05 1.094-1.05 1.838 0 .661.24 1.183.72 1.566.48.384 1.24.703 2.26.959l2.57.631c1.55.376 2.7.951 3.46 1.725.76.766 1.14 1.754 1.14 2.964 0 .992-.29 1.879-.86 2.661-.56.781-1.35 1.398-2.37 1.849-1.01.451-2.19.676-3.54.676-1.76 0-3.22-.383-4.38-1.15-1.16-.766-1.89-1.886-2.2-3.359l2.53-.631c.24.931.69 1.63 1.36 2.096.68.466 1.56.699 2.65.699 1.24 0 2.22-.263 2.95-.789.74-.533 1.11-1.172 1.11-1.916 0-.601-.21-1.105-.63-1.511-.42-.413-1.07-.721-1.94-.924l-2.89-.677c-1.58-.375-2.75-.958-3.49-1.747-.74-.797-1.11-1.792-1.11-2.987 0-.977.28-1.841.82-2.593.56-.752 1.32-1.341 2.27-1.77.96-.428 2.05-.642 3.27-.642 1.71 0 3.06.375 4.04 1.127.98.751 1.68 1.743 2.09 2.976Zm4.32 13.437v-17.315h2.66v17.315h-2.66Zm1.36-20.201c-.52 0-.97-.176-1.35-.53-.36-.353-.55-.777-.55-1.273 0-.496.19-.921.55-1.274.38-.354.83-.53 1.35-.53.51 0 .96.176 1.33.53.37.353.56.778.56 1.274s-.19.92-.56 1.273c-.37.354-.82.53-1.33.53Zm13.21 20.562c-1.56 0-2.93-.372-4.11-1.116-1.18-.744-2.09-1.785-2.75-3.123-.66-1.337-.99-2.901-.99-4.689 0-1.804.33-3.378.99-4.723.66-1.346 1.57-2.39 2.75-3.134 1.18-.744 2.55-1.116 4.11-1.116 1.56 0 2.93.372 4.1 1.116 1.18.744 2.1 1.788 2.75 3.134.67 1.345 1 2.919 1 4.723 0 1.788-.33 3.352-1 4.689-.65 1.338-1.57 2.379-2.75 3.123-1.17.744-2.54 1.116-4.1 1.116Zm0-2.39c1.19 0 2.16-.304 2.93-.913s1.34-1.409 1.7-2.401c.37-.992.56-2.067.56-3.224 0-1.158-.19-2.236-.56-3.235-.36-1-.93-1.808-1.7-2.424-.77-.616-1.74-.925-2.93-.925-1.19 0-2.16.309-2.93.925-.77.616-1.33 1.424-1.7 2.424a9.242 9.242 0 0 0-.56 3.235c0 1.157.19 2.232.56 3.224.37.992.93 1.792 1.7 2.401.77.609 1.74.913 2.93.913Zm14.57-8.387v10.416h-2.66v-17.315h2.57v2.706h.22a4.953 4.953 0 0 1 1.85-2.12c.83-.541 1.9-.811 3.2-.811 1.18 0 2.2.24 3.08.721.88.474 1.56 1.195 2.05 2.164.49.962.74 2.18.74 3.653v11.002h-2.67v-10.822c0-1.36-.35-2.42-1.05-3.179-.71-.766-1.68-1.15-2.91-1.15-.85 0-1.61.185-2.28.553-.66.368-1.18.905-1.57 1.612-.38.706-.57 1.563-.57 2.57Zm32.36-6.899v2.255h-8.97v-2.255h8.97Zm-6.35-4.148h2.66v16.503c0 .752.11 1.315.32 1.691.23.368.52.616.86.744.35.12.73.18 1.12.18.29 0 .53-.015.72-.045l.45-.09.54 2.39c-.18.068-.43.135-.75.203-.33.075-.74.113-1.23.113a5.36 5.36 0 0 1-2.21-.485 4.32 4.32 0 0 1-1.78-1.477c-.47-.661-.7-1.495-.7-2.502v-17.225Zm13.39 11.047v10.416h-2.66v-23.087h2.66v8.478h.22a4.938 4.938 0 0 1 1.83-2.131c.82-.534 1.91-.8 3.27-.8 1.18 0 2.21.236 3.1.71.89.466 1.57 1.183 2.06 2.153.5.962.75 2.187.75 3.675v11.002h-2.66v-10.822c0-1.375-.36-2.438-1.07-3.19-.71-.759-1.69-1.139-2.95-1.139-.87 0-1.65.185-2.34.553-.69.368-1.23.905-1.62 1.612-.4.706-.59 1.563-.59 2.57Zm21.19 10.822c-1.1 0-2.09-.207-2.99-.62a5.178 5.178 0 0 1-2.13-1.815c-.52-.796-.79-1.758-.79-2.886 0-.992.2-1.796.59-2.412.39-.624.91-1.112 1.57-1.466a8.156 8.156 0 0 1 2.16-.789c.8-.18 1.6-.323 2.4-.428 1.05-.135 1.91-.237 2.56-.304.66-.076 1.14-.2 1.44-.372.31-.173.47-.474.47-.902v-.09c0-1.113-.31-1.977-.92-2.593-.6-.616-1.51-.925-2.74-.925-1.27 0-2.26.278-2.98.835-.73.556-1.23 1.149-1.53 1.781l-2.52-.902c.45-1.052 1.05-1.871 1.8-2.458a6.812 6.812 0 0 1 2.48-1.24c.9-.24 1.79-.36 2.66-.36.56 0 1.2.067 1.92.203.73.127 1.43.394 2.11.8.68.406 1.25 1.018 1.7 1.837.45.82.68 1.917.68 3.292v11.408h-2.66v-2.345h-.14c-.18.376-.48.778-.9 1.207-.42.428-.98.793-1.68 1.093-.7.301-1.55.451-2.56.451Zm.41-2.39c1.05 0 1.93-.206 2.66-.62.72-.413 1.27-.947 1.64-1.601a4.04 4.04 0 0 0 .57-2.062v-2.435c-.12.135-.37.259-.75.372-.37.105-.81.199-1.31.281-.49.076-.96.143-1.43.203-.46.053-.83.098-1.11.136-.7.09-1.34.236-1.94.439-.6.196-1.08.492-1.45.891-.36.391-.54.924-.54 1.601 0 .924.34 1.623 1.03 2.096.69.466 1.57.699 2.63.699Zm15.04-8.432v10.416h-2.66v-17.315h2.57v2.706h.23c.4-.88 1.02-1.586 1.85-2.12.82-.541 1.89-.811 3.2-.811 1.17 0 2.2.24 3.07.721.88.474 1.57 1.195 2.06 2.164.49.962.73 2.18.73 3.653v11.002h-2.66v-10.822c0-1.36-.35-2.42-1.06-3.179-.71-.766-1.68-1.15-2.91-1.15-.85 0-1.61.185-2.28.553-.66.368-1.18.905-1.56 1.612-.39.706-.58 1.563-.58 2.57ZM325.531 499.864v-23.087h7.801c1.811 0 3.292.327 4.442.981 1.157.646 2.014 1.522 2.57 2.627.556 1.104.834 2.337.834 3.697 0 1.36-.278 2.597-.834 3.709-.549 1.112-1.398 1.999-2.548 2.66-1.15.654-2.623.981-4.419.981h-5.591v-2.48h5.501c1.24 0 2.236-.214 2.987-.642.752-.429 1.297-1.008 1.635-1.736.346-.737.518-1.567.518-2.492 0-.924-.172-1.751-.518-2.48-.338-.729-.887-1.3-1.646-1.713-.759-.421-1.766-.632-3.021-.632h-4.915v20.607h-2.796Zm38.458-23.087v23.087h-2.706l-12.58-18.127h-.226v18.127h-2.795v-23.087h2.705l12.626 18.172h.225v-18.172h2.751Zm21.376 7.215a8.135 8.135 0 0 0-.981-2.04 6.282 6.282 0 0 0-1.431-1.556 6.036 6.036 0 0 0-1.872-.981 7.468 7.468 0 0 0-2.299-.338c-1.368 0-2.612.353-3.732 1.06-1.119.706-2.01 1.747-2.671 3.122-.662 1.376-.992 3.063-.992 5.062s.334 3.686 1.003 5.061c.669 1.376 1.574 2.416 2.717 3.123 1.142.706 2.427 1.06 3.855 1.06 1.323 0 2.488-.282 3.495-.846a6 6 0 0 0 2.367-2.412c.571-1.045.857-2.274.857-3.687l.856.181h-6.944v-2.48h8.793v2.48c0 1.901-.406 3.555-1.217 4.96a8.414 8.414 0 0 1-3.337 3.269c-1.413.767-3.036 1.15-4.87 1.15-2.044 0-3.84-.481-5.388-1.443-1.541-.962-2.744-2.33-3.608-4.103-.856-1.774-1.285-3.878-1.285-6.313 0-1.826.244-3.468.733-4.926.496-1.466 1.195-2.713 2.097-3.743a9.15 9.15 0 0 1 3.201-2.367c1.233-.549 2.589-.823 4.07-.823 1.217 0 2.352.184 3.404.552a9.16 9.16 0 0 1 2.83 1.544 8.81 8.81 0 0 1 2.085 2.379 9.077 9.077 0 0 1 1.15 3.055h-2.886Zm23.411 16.233c-1.563 0-2.935-.372-4.115-1.116-1.172-.744-2.089-1.785-2.75-3.123-.654-1.337-.981-2.901-.981-4.689 0-1.804.327-3.378.981-4.723.661-1.346 1.578-2.39 2.75-3.134 1.18-.744 2.552-1.116 4.115-1.116 1.563 0 2.931.372 4.103 1.116 1.18.744 2.097 1.788 2.751 3.134.661 1.345.992 2.919.992 4.723 0 1.788-.331 3.352-.992 4.689-.654 1.338-1.571 2.379-2.751 3.123-1.172.744-2.54 1.116-4.103 1.116Zm0-2.39c1.187 0 2.164-.304 2.931-.913.767-.609 1.334-1.409 1.702-2.401.368-.992.553-2.067.553-3.224a9.286 9.286 0 0 0-.553-3.235c-.368-1-.935-1.808-1.702-2.424-.767-.616-1.744-.925-2.931-.925s-2.164.309-2.931.925c-.766.616-1.334 1.424-1.702 2.424a9.286 9.286 0 0 0-.553 3.235c0 1.157.185 2.232.553 3.224.368.992.936 1.792 1.702 2.401.767.609 1.744.913 2.931.913Zm11.907 2.029v-17.315h2.57v2.615h.181c.315-.856.886-1.552 1.713-2.085.827-.534 1.759-.8 2.796-.8.195 0 .439.003.733.011.293.007.514.019.665.034v2.705a8.316 8.316 0 0 0-.62-.101 6.064 6.064 0 0 0-1.004-.079c-.841 0-1.593.176-2.254.53a3.984 3.984 0 0 0-1.556 1.443c-.376.608-.564 1.303-.564 2.085v10.957h-2.66Zm29.938-23.087h2.796v16.504c0 1.473-.271 2.724-.812 3.754-.541 1.029-1.304 1.811-2.288 2.345-.985.533-2.146.8-3.484.8-1.262 0-2.386-.229-3.37-.688-.985-.466-1.759-1.127-2.322-1.984-.564-.857-.846-1.875-.846-3.055h2.751c0 .654.161 1.225.484 1.714a3.34 3.34 0 0 0 1.353 1.127c.571.271 1.221.406 1.95.406.804 0 1.488-.169 2.052-.507.564-.339.992-.835 1.285-1.488.301-.662.451-1.47.451-2.424v-16.504Zm8.398 23.087v-23.087h7.801c1.811 0 3.292.327 4.442.981 1.157.646 2.014 1.522 2.57 2.627.556 1.104.834 2.337.834 3.697 0 1.36-.278 2.597-.834 3.709-.549 1.112-1.398 1.999-2.548 2.66-1.15.654-2.623.981-4.419.981h-5.591v-2.48h5.501c1.24 0 2.236-.214 2.987-.642.752-.429 1.297-1.008 1.635-1.736.346-.737.519-1.567.519-2.492 0-.924-.173-1.751-.519-2.48-.338-.729-.887-1.3-1.646-1.713-.759-.421-1.766-.632-3.021-.632h-4.915v20.607h-2.796Zm20.151 0v-23.087h13.933v2.48h-11.138v7.801h10.417v2.48h-10.417v7.846h11.318v2.48H479.17Zm34.754-15.872a8.135 8.135 0 0 0-.981-2.04 6.282 6.282 0 0 0-1.431-1.556 6.036 6.036 0 0 0-1.872-.981 7.468 7.468 0 0 0-2.299-.338c-1.368 0-2.612.353-3.732 1.06-1.119.706-2.01 1.747-2.671 3.122-.662 1.376-.992 3.063-.992 5.062s.334 3.686 1.003 5.061c.669 1.376 1.574 2.416 2.717 3.123 1.142.706 2.427 1.06 3.855 1.06 1.323 0 2.488-.282 3.495-.846a6 6 0 0 0 2.367-2.412c.571-1.045.857-2.274.857-3.687l.856.181h-6.944v-2.48h8.793v2.48c0 1.901-.406 3.555-1.217 4.96a8.414 8.414 0 0 1-3.337 3.269c-1.413.767-3.036 1.15-4.87 1.15-2.044 0-3.84-.481-5.388-1.443-1.541-.962-2.744-2.33-3.608-4.103-.856-1.774-1.285-3.878-1.285-6.313 0-1.826.244-3.468.733-4.926.496-1.466 1.195-2.713 2.097-3.743a9.15 9.15 0 0 1 3.201-2.367c1.233-.549 2.589-.823 4.07-.823 1.217 0 2.352.184 3.404.552a9.16 9.16 0 0 1 2.83 1.544 8.81 8.81 0 0 1 2.085 2.379 9.077 9.077 0 0 1 1.15 3.055h-2.886Zm11.417 12.716-.181 1.217a24.398 24.398 0 0 1-.586 2.751 51.463 51.463 0 0 1-.8 2.762 82.916 82.916 0 0 1-.688 2.063h-2.029c.098-.481.225-1.116.383-1.905.158-.79.316-1.673.474-2.65.165-.969.3-1.961.406-2.976l.135-1.262h2.886Zm17.78 3.156-5.276-17.315h2.796l3.742 13.257h.181l3.697-13.257h2.841l3.652 13.212h.181l3.742-13.212h2.796l-5.276 17.315h-2.615l-3.788-13.302h-.27l-3.788 13.302h-2.615Zm24.53-10.416v10.416h-2.661v-23.087h2.661v8.478h.225a4.896 4.896 0 0 1 1.826-2.131c.82-.534 1.909-.8 3.27-.8 1.179 0 2.213.236 3.1.71.886.466 1.574 1.183 2.062 2.153.497.962.745 2.187.745 3.675v11.002h-2.661v-10.822c0-1.375-.357-2.438-1.071-3.19-.706-.759-1.687-1.139-2.942-1.139-.872 0-1.653.185-2.345.553a4.028 4.028 0 0 0-1.623 1.612c-.391.706-.586 1.563-.586 2.57Zm16.095 10.416v-17.315h2.66v17.315h-2.66Zm1.352-20.201c-.518 0-.965-.176-1.341-.53a1.702 1.702 0 0 1-.553-1.273c0-.496.185-.921.553-1.274.376-.354.823-.53 1.341-.53.519 0 .962.176 1.331.53.375.353.563.778.563 1.274s-.188.92-.563 1.273c-.369.354-.812.53-1.331.53Zm13.215 20.562c-1.623 0-3.021-.383-4.194-1.15-1.172-.766-2.074-1.822-2.705-3.168-.631-1.345-.947-2.882-.947-4.61 0-1.759.323-3.311.97-4.656.653-1.353 1.563-2.409 2.728-3.168 1.172-.766 2.54-1.149 4.103-1.149 1.217 0 2.315.225 3.292.676a6.302 6.302 0 0 1 2.401 1.894c.623.811 1.011 1.758 1.161 2.841h-2.661c-.202-.789-.653-1.488-1.352-2.097-.692-.616-1.624-.925-2.796-.925-1.037 0-1.946.271-2.728.812-.774.534-1.379 1.289-1.815 2.266-.428.969-.643 2.108-.643 3.416 0 1.337.211 2.502.632 3.494.428.992 1.029 1.763 1.803 2.311.782.549 1.699.823 2.751.823.691 0 1.319-.12 1.883-.361a3.881 3.881 0 0 0 1.431-1.037c.391-.451.669-.992.834-1.623h2.661a6.156 6.156 0 0 1-1.116 2.762c-.586.812-1.364 1.458-2.334 1.939-.962.473-2.081.71-3.359.71Zm13.358-10.777v10.416h-2.66v-23.087h2.66v8.478h.226a4.89 4.89 0 0 1 1.826-2.131c.819-.534 1.909-.8 3.269-.8 1.18 0 2.213.236 3.1.71.887.466 1.575 1.183 2.063 2.153.496.962.744 2.187.744 3.675v11.002h-2.66v-10.822c0-1.375-.357-2.438-1.071-3.19-.707-.759-1.687-1.139-2.942-1.139-.872 0-1.654.185-2.345.553a4.028 4.028 0 0 0-1.623 1.612c-.391.706-.587 1.563-.587 2.57Zm25.023 10.416v-17.315h2.571v2.706h.225c.361-.925.943-1.643 1.747-2.154.805-.518 1.77-.777 2.898-.777 1.142 0 2.093.259 2.852.777.766.511 1.364 1.229 1.792 2.154h.18a5.045 5.045 0 0 1 1.996-2.131c.886-.534 1.95-.8 3.19-.8 1.548 0 2.814.484 3.799 1.454.984.962 1.477 2.461 1.477 4.498v11.588h-2.661v-11.588c0-1.278-.349-2.191-1.048-2.74-.699-.548-1.522-.823-2.469-.823-1.217 0-2.161.369-2.829 1.105-.669.729-1.004 1.654-1.004 2.773v11.273h-2.705v-11.859c0-.984-.32-1.777-.958-2.378-.639-.609-1.462-.914-2.469-.914-.692 0-1.338.185-1.939.553a4.163 4.163 0 0 0-1.443 1.533c-.361.646-.541 1.394-.541 2.243v10.822h-2.661Zm34.851.361c-1.669 0-3.108-.368-4.318-1.105-1.202-.744-2.131-1.781-2.784-3.111-.647-1.338-.97-2.893-.97-4.667s.323-3.337.97-4.69c.653-1.36 1.563-2.42 2.728-3.179 1.172-.766 2.54-1.149 4.103-1.149.902 0 1.792.15 2.672.451.879.3 1.679.789 2.401 1.465.721.669 1.296 1.556 1.725 2.66.428 1.105.642 2.465.642 4.081v1.128h-13.347v-2.3h10.642c0-.977-.196-1.849-.587-2.615a4.408 4.408 0 0 0-1.645-1.815c-.707-.444-1.541-.666-2.503-.666-1.06 0-1.976.264-2.751.79a5.187 5.187 0 0 0-1.769 2.029 5.95 5.95 0 0 0-.62 2.683v1.533c0 1.307.225 2.416.676 3.325.458.902 1.093 1.59 1.905 2.063.812.466 1.755.699 2.83.699.699 0 1.33-.098 1.893-.293a4.037 4.037 0 0 0 1.477-.902c.414-.406.733-.909.958-1.51l2.571.721a5.717 5.717 0 0 1-1.364 2.3c-.639.654-1.428 1.165-2.368 1.533-.939.361-1.995.541-3.167.541Zm16.311.045c-1.097 0-2.093-.207-2.987-.62a5.128 5.128 0 0 1-2.13-1.815c-.526-.796-.79-1.758-.79-2.886 0-.992.196-1.796.587-2.412a4.136 4.136 0 0 1 1.567-1.466 8.236 8.236 0 0 1 2.164-.789c.797-.18 1.597-.323 2.401-.428 1.052-.135 1.905-.237 2.559-.304.661-.076 1.142-.2 1.443-.372.308-.173.462-.474.462-.902v-.09c0-1.113-.304-1.977-.913-2.593-.601-.616-1.514-.925-2.739-.925-1.27 0-2.266.278-2.988.835-.721.556-1.228 1.149-1.521 1.781l-2.526-.902c.451-1.052 1.053-1.871 1.804-2.458a6.773 6.773 0 0 1 2.48-1.24 10.32 10.32 0 0 1 2.661-.36c.556 0 1.195.067 1.916.203a6.11 6.11 0 0 1 2.108.8c.684.406 1.251 1.018 1.702 1.837.451.82.677 1.917.677 3.292v11.408h-2.661v-2.345h-.135c-.18.376-.481.778-.902 1.207-.421.428-.981.793-1.68 1.093-.698.301-1.551.451-2.559.451Zm.406-2.39c1.052 0 1.939-.206 2.661-.62.729-.413 1.277-.947 1.646-1.601a4.082 4.082 0 0 0 .563-2.062v-2.435c-.113.135-.361.259-.744.372-.376.105-.811.199-1.307.281-.489.076-.966.143-1.432.203-.459.053-.831.098-1.116.136a10.13 10.13 0 0 0-1.939.439c-.594.196-1.075.492-1.443.891-.361.391-.541.924-.541 1.601 0 .924.342 1.623 1.026 2.096.691.466 1.567.699 2.626.699Zm15.047-8.432v10.416h-2.661v-17.315h2.571v2.706h.225a4.945 4.945 0 0 1 1.849-2.12c.827-.541 1.894-.811 3.201-.811 1.173 0 2.199.24 3.078.721.879.474 1.563 1.195 2.052 2.164.488.962.732 2.18.732 3.653v11.002h-2.66v-10.822c0-1.36-.353-2.42-1.06-3.179-.706-.766-1.676-1.15-2.908-1.15-.849 0-1.608.185-2.277.553-.662.368-1.184.905-1.567 1.612-.384.706-.575 1.563-.575 2.57Zm28.174-3.021-2.39.676a4.47 4.47 0 0 0-.665-1.161c-.286-.383-.677-.699-1.173-.947s-1.131-.372-1.905-.372c-1.06 0-1.943.245-2.649.733-.699.481-1.048 1.094-1.048 1.838 0 .661.24 1.183.721 1.566.481.384 1.233.703 2.255.959l2.57.631c1.548.376 2.702.951 3.461 1.725.759.766 1.138 1.754 1.138 2.964 0 .992-.285 1.879-.856 2.661-.564.781-1.353 1.398-2.368 1.849-1.014.451-2.194.676-3.539.676-1.767 0-3.228-.383-4.386-1.15-1.157-.766-1.89-1.886-2.198-3.359l2.525-.631c.241.931.695 1.63 1.364 2.096.677.466 1.56.699 2.649.699 1.24 0 2.225-.263 2.954-.789.736-.533 1.105-1.172 1.105-1.916 0-.601-.211-1.105-.632-1.511-.42-.413-1.067-.721-1.939-.924l-2.885-.677c-1.586-.375-2.751-.958-3.495-1.747-.737-.797-1.105-1.792-1.105-2.987 0-.977.275-1.841.823-2.593.556-.752 1.312-1.341 2.266-1.77.962-.428 2.052-.642 3.269-.642 1.714 0 3.059.375 4.036 1.127.984.751 1.683 1.743 2.097 2.976Zm20.959-3.878v2.255h-9.334v-2.255h9.334Zm-6.539 17.315v-19.705c0-.992.233-1.818.699-2.48a4.337 4.337 0 0 1 1.815-1.488 5.734 5.734 0 0 1 2.356-.496c.654 0 1.188.053 1.601.158.413.105.722.203.924.293l-.766 2.3a12.125 12.125 0 0 0-.564-.169c-.233-.068-.541-.102-.924-.102-.879 0-1.514.222-1.905.665-.383.444-.575 1.094-.575 1.951v19.073h-2.661Zm14.867.406c-1.098 0-2.093-.207-2.988-.62a5.128 5.128 0 0 1-2.13-1.815c-.526-.796-.789-1.758-.789-2.886 0-.992.195-1.796.586-2.412a4.144 4.144 0 0 1 1.567-1.466 8.249 8.249 0 0 1 2.164-.789c.797-.18 1.597-.323 2.401-.428 1.052-.135 1.905-.237 2.559-.304.662-.076 1.143-.2 1.443-.372.308-.173.462-.474.462-.902v-.09c0-1.113-.304-1.977-.913-2.593-.601-.616-1.514-.925-2.739-.925-1.27 0-2.266.278-2.987.835-.722.556-1.229 1.149-1.522 1.781l-2.525-.902c.451-1.052 1.052-1.871 1.803-2.458a6.773 6.773 0 0 1 2.48-1.24 10.32 10.32 0 0 1 2.661-.36c.556 0 1.195.067 1.916.203a6.11 6.11 0 0 1 2.108.8c.684.406 1.251 1.018 1.702 1.837.451.82.677 1.917.677 3.292v11.408h-2.661v-2.345h-.135c-.18.376-.481.778-.902 1.207-.421.428-.981.793-1.679 1.093-.699.301-1.552.451-2.559.451Zm.405-2.39c1.053 0 1.939-.206 2.661-.62.729-.413 1.277-.947 1.646-1.601a4.082 4.082 0 0 0 .563-2.062v-2.435c-.112.135-.36.259-.744.372a12.39 12.39 0 0 1-1.307.281c-.489.076-.966.143-1.432.203-.458.053-.83.098-1.116.136-.691.09-1.338.236-1.939.439-.594.196-1.075.492-1.443.891-.361.391-.541.924-.541 1.601 0 .924.342 1.623 1.026 2.096.691.466 1.567.699 2.626.699Zm24.651-11.453-2.389.676a4.445 4.445 0 0 0-.666-1.161c-.285-.383-.676-.699-1.172-.947-.496-.248-1.131-.372-1.905-.372-1.06 0-1.943.245-2.649.733-.699.481-1.049 1.094-1.049 1.838 0 .661.241 1.183.722 1.566.481.384 1.232.703 2.255.959l2.57.631c1.548.376 2.701.951 3.461 1.725.759.766 1.138 1.754 1.138 2.964 0 .992-.285 1.879-.857 2.661-.563.781-1.352 1.398-2.367 1.849-1.015.451-2.194.676-3.54.676-1.766 0-3.227-.383-4.385-1.15-1.157-.766-1.89-1.886-2.198-3.359l2.525-.631c.241.931.695 1.63 1.364 2.096.677.466 1.56.699 2.649.699 1.24 0 2.225-.263 2.954-.789.736-.533 1.105-1.172 1.105-1.916 0-.601-.211-1.105-.632-1.511-.421-.413-1.067-.721-1.939-.924l-2.886-.677c-1.585-.375-2.75-.958-3.494-1.747-.737-.797-1.105-1.792-1.105-2.987 0-.977.274-1.841.823-2.593.556-.752 1.311-1.341 2.266-1.77.962-.428 2.052-.642 3.269-.642 1.713 0 3.059.375 4.036 1.127.984.751 1.683 1.743 2.096 2.976Zm11.851-3.878v2.255h-8.973v-2.255h8.973Zm-6.358-4.148h2.661v16.503c0 .752.109 1.315.327 1.691.225.368.511.616.856.744.353.12.725.18 1.116.18.293 0 .534-.015.722-.045l.451-.09.541 2.39a5.418 5.418 0 0 1-.756.203c-.323.075-.732.113-1.228.113a5.36 5.36 0 0 1-2.21-.485 4.386 4.386 0 0 1-1.781-1.477c-.466-.661-.699-1.495-.699-2.502v-17.225Zm17.434 21.824c-1.669 0-3.108-.368-4.318-1.105-1.202-.744-2.13-1.781-2.784-3.111-.647-1.338-.97-2.893-.97-4.667s.323-3.337.97-4.69c.654-1.36 1.563-2.42 2.728-3.179 1.172-.766 2.54-1.149 4.103-1.149.902 0 1.793.15 2.672.451.879.3 1.68.789 2.401 1.465.721.669 1.296 1.556 1.725 2.66.428 1.105.642 2.465.642 4.081v1.128h-13.347v-2.3h10.642c0-.977-.196-1.849-.586-2.615a4.417 4.417 0 0 0-1.646-1.815c-.707-.444-1.541-.666-2.503-.666-1.059 0-1.976.264-2.75.79a5.182 5.182 0 0 0-1.77 2.029 5.95 5.95 0 0 0-.62 2.683v1.533c0 1.307.225 2.416.676 3.325.459.902 1.094 1.59 1.905 2.063.812.466 1.755.699 2.83.699a5.77 5.77 0 0 0 1.894-.293 4.041 4.041 0 0 0 1.476-.902c.414-.406.733-.909.959-1.51l2.57.721a5.706 5.706 0 0 1-1.364 2.3c-.639.654-1.428 1.165-2.368 1.533-.939.361-1.995.541-3.167.541Zm11.216-.361v-17.315h2.571v2.615h.18c.316-.856.887-1.552 1.713-2.085.827-.534 1.759-.8 2.796-.8.195 0 .44.003.733.011.293.007.515.019.665.034v2.705a8.22 8.22 0 0 0-.62-.101 6.06 6.06 0 0 0-1.003-.079c-.842 0-1.594.176-2.255.53a3.99 3.99 0 0 0-1.556 1.443c-.375.608-.563 1.303-.563 2.085v10.957h-2.661Zm27.278.361c-1.443 0-2.717-.364-3.822-1.093-1.104-.737-1.969-1.774-2.592-3.112-.624-1.345-.936-2.935-.936-4.768 0-1.819.312-3.397.936-4.735.623-1.338 1.491-2.371 2.604-3.1 1.112-.729 2.397-1.093 3.855-1.093 1.127 0 2.018.188 2.672.563.661.369 1.164.789 1.51 1.263.353.466.628.849.823 1.15h.226v-8.523h2.66v23.087h-2.57v-2.66h-.316c-.195.315-.473.714-.834 1.195-.361.473-.876.898-1.544 1.274-.669.368-1.56.552-2.672.552Zm.361-2.39c1.067 0 1.969-.278 2.705-.834.737-.564 1.296-1.342 1.68-2.334.383-.999.575-2.153.575-3.46 0-1.293-.188-2.424-.564-3.393-.376-.977-.932-1.737-1.668-2.278-.737-.548-1.646-.823-2.728-.823-1.128 0-2.067.29-2.819.868-.744.572-1.304 1.349-1.679 2.334-.369.977-.553 2.074-.553 3.292 0 1.232.188 2.352.564 3.359.383 1 .947 1.796 1.691 2.39.751.586 1.683.879 2.796.879Zm19.851 2.39c-1.563 0-2.935-.372-4.114-1.116-1.173-.744-2.09-1.785-2.751-3.123-.654-1.337-.981-2.901-.981-4.689 0-1.804.327-3.378.981-4.723.661-1.346 1.578-2.39 2.751-3.134 1.179-.744 2.551-1.116 4.114-1.116 1.563 0 2.931.372 4.104 1.116 1.179.744 2.096 1.788 2.75 3.134.661 1.345.992 2.919.992 4.723 0 1.788-.331 3.352-.992 4.689-.654 1.338-1.571 2.379-2.75 3.123-1.173.744-2.541 1.116-4.104 1.116Zm0-2.39c1.188 0 2.165-.304 2.931-.913.767-.609 1.334-1.409 1.702-2.401.369-.992.553-2.067.553-3.224 0-1.158-.184-2.236-.553-3.235-.368-1-.935-1.808-1.702-2.424-.766-.616-1.743-.925-2.931-.925-1.187 0-2.164.309-2.931.925-.766.616-1.334 1.424-1.702 2.424-.368.999-.552 2.077-.552 3.235 0 1.157.184 2.232.552 3.224.368.992.936 1.792 1.702 2.401.767.609 1.744.913 2.931.913Zm15.241 2.029-5.276-17.315h2.796l3.743 13.257h.18l3.698-13.257h2.84l3.653 13.212h.18l3.743-13.212h2.795l-5.275 17.315h-2.616l-3.787-13.302h-.271l-3.788 13.302H882.7Zm24.53-10.416v10.416h-2.66v-17.315h2.57v2.706h.225a4.945 4.945 0 0 1 1.849-2.12c.827-.541 1.894-.811 3.202-.811 1.172 0 2.198.24 3.077.721.879.474 1.563 1.195 2.052 2.164.488.962.732 2.18.732 3.653v11.002h-2.66v-10.822c0-1.36-.353-2.42-1.06-3.179-.706-.766-1.676-1.15-2.908-1.15-.849 0-1.608.185-2.277.553-.661.368-1.184.905-1.567 1.612-.383.706-.575 1.563-.575 2.57Zm18.569-12.671v23.087h-2.66v-23.087h2.66Zm11.907 23.448c-1.563 0-2.934-.372-4.114-1.116-1.173-.744-2.09-1.785-2.751-3.123-.654-1.337-.981-2.901-.981-4.689 0-1.804.327-3.378.981-4.723.661-1.346 1.578-2.39 2.751-3.134 1.18-.744 2.551-1.116 4.114-1.116 1.563 0 2.931.372 4.104 1.116 1.18.744 2.096 1.788 2.75 3.134.662 1.345.992 2.919.992 4.723 0 1.788-.33 3.352-.992 4.689-.654 1.338-1.57 2.379-2.75 3.123-1.173.744-2.541 1.116-4.104 1.116Zm0-2.39c1.188 0 2.165-.304 2.931-.913.767-.609 1.334-1.409 1.702-2.401.369-.992.553-2.067.553-3.224 0-1.158-.184-2.236-.553-3.235-.368-1-.935-1.808-1.702-2.424-.766-.616-1.743-.925-2.931-.925-1.187 0-2.164.309-2.931.925-.766.616-1.334 1.424-1.702 2.424-.368.999-.552 2.077-.552 3.235 0 1.157.184 2.232.552 3.224.368.992.936 1.792 1.702 2.401.767.609 1.744.913 2.931.913Zm17.003 2.435c-1.098 0-2.093-.207-2.988-.62a5.128 5.128 0 0 1-2.13-1.815c-.526-.796-.789-1.758-.789-2.886 0-.992.195-1.796.586-2.412a4.144 4.144 0 0 1 1.567-1.466 8.249 8.249 0 0 1 2.164-.789c.797-.18 1.597-.323 2.401-.428 1.052-.135 1.905-.237 2.559-.304.662-.076 1.143-.2 1.443-.372.308-.173.462-.474.462-.902v-.09c0-1.113-.304-1.977-.913-2.593-.601-.616-1.514-.925-2.739-.925-1.27 0-2.266.278-2.987.835-.722.556-1.229 1.149-1.522 1.781l-2.525-.902c.451-1.052 1.052-1.871 1.803-2.458a6.773 6.773 0 0 1 2.48-1.24 10.32 10.32 0 0 1 2.661-.36c.556 0 1.195.067 1.916.203a6.11 6.11 0 0 1 2.108.8c.684.406 1.251 1.018 1.702 1.837.451.82.677 1.917.677 3.292v11.408h-2.661v-2.345h-.135c-.18.376-.481.778-.902 1.207-.421.428-.98.793-1.679 1.093-.699.301-1.552.451-2.559.451Zm.405-2.39c1.053 0 1.939-.206 2.661-.62.729-.413 1.277-.947 1.646-1.601a4.082 4.082 0 0 0 .563-2.062v-2.435c-.112.135-.36.259-.744.372a12.39 12.39 0 0 1-1.307.281c-.489.076-.966.143-1.432.203-.458.053-.83.098-1.116.136-.691.09-1.338.236-1.939.439-.594.196-1.075.492-1.443.891-.361.391-.541.924-.541 1.601 0 .924.342 1.623 1.026 2.096.691.466 1.567.699 2.626.699Zm18.925 2.345c-1.443 0-2.717-.364-3.822-1.093-1.104-.737-1.969-1.774-2.592-3.112-.624-1.345-.936-2.935-.936-4.768 0-1.819.312-3.397.936-4.735.623-1.338 1.491-2.371 2.604-3.1 1.112-.729 2.397-1.093 3.855-1.093 1.127 0 2.018.188 2.672.563.661.369 1.164.789 1.51 1.263.353.466.628.849.823 1.15h.226v-8.523h2.66v23.087h-2.57v-2.66h-.316c-.195.315-.473.714-.834 1.195-.361.473-.876.898-1.544 1.274-.669.368-1.56.552-2.672.552Zm.361-2.39c1.067 0 1.969-.278 2.705-.834.737-.564 1.296-1.342 1.68-2.334.383-.999.575-2.153.575-3.46 0-1.293-.188-2.424-.564-3.393-.376-.977-.932-1.737-1.668-2.278-.737-.548-1.646-.823-2.728-.823-1.128 0-2.067.29-2.819.868-.744.572-1.304 1.349-1.679 2.334-.369.977-.553 2.074-.553 3.292 0 1.232.188 2.352.564 3.359.383 1 .947 1.796 1.691 2.39.751.586 1.683.879 2.796.879Zm25.082-11.408-2.39.676a4.441 4.441 0 0 0-.665-1.161c-.286-.383-.677-.699-1.173-.947s-1.131-.372-1.905-.372c-1.059 0-1.942.245-2.649.733-.699.481-1.048 1.094-1.048 1.838 0 .661.24 1.183.721 1.566.481.384 1.233.703 2.255.959l2.57.631c1.548.376 2.702.951 3.461 1.725.759.766 1.138 1.754 1.138 2.964 0 .992-.285 1.879-.856 2.661-.564.781-1.353 1.398-2.368 1.849-1.014.451-2.194.676-3.539.676-1.766 0-3.228-.383-4.385-1.15-1.158-.766-1.891-1.886-2.199-3.359l2.525-.631c.241.931.696 1.63 1.364 2.096.677.466 1.56.699 2.65.699 1.24 0 2.224-.263 2.953-.789.737-.533 1.105-1.172 1.105-1.916 0-.601-.211-1.105-.631-1.511-.421-.413-1.068-.721-1.939-.924l-2.886-.677c-1.586-.375-2.751-.958-3.495-1.747-.736-.797-1.105-1.792-1.105-2.987 0-.977.275-1.841.823-2.593.556-.752 1.312-1.341 2.266-1.77.962-.428 2.052-.642 3.269-.642 1.714 0 3.059.375 4.036 1.127.985.751 1.683 1.743 2.097 2.976Zm18.348 13.843c-1.1 0-2.1-.207-2.99-.62-.9-.421-1.61-1.026-2.13-1.815-.53-.796-.79-1.758-.79-2.886 0-.992.19-1.796.58-2.412.4-.624.92-1.112 1.57-1.466a8.357 8.357 0 0 1 2.17-.789c.79-.18 1.59-.323 2.4-.428 1.05-.135 1.9-.237 2.56-.304.66-.076 1.14-.2 1.44-.372.31-.173.46-.474.46-.902v-.09c0-1.113-.3-1.977-.91-2.593-.6-.616-1.52-.925-2.74-.925-1.27 0-2.27.278-2.99.835-.72.556-1.23 1.149-1.52 1.781l-2.53-.902c.46-1.052 1.06-1.871 1.81-2.458a6.735 6.735 0 0 1 2.48-1.24c.9-.24 1.79-.36 2.66-.36.55 0 1.19.067 1.92.203.72.127 1.43.394 2.1.8.69.406 1.25 1.018 1.71 1.837.45.82.67 1.917.67 3.292v11.408h-2.66v-2.345h-.13c-.18.376-.48.778-.91 1.207-.42.428-.98.793-1.68 1.093-.69.301-1.55.451-2.55.451Zm.4-2.39c1.05 0 1.94-.206 2.66-.62.73-.413 1.28-.947 1.65-1.601a4.13 4.13 0 0 0 .56-2.062v-2.435c-.11.135-.36.259-.74.372-.38.105-.81.199-1.31.281-.49.076-.97.143-1.43.203-.46.053-.83.098-1.12.136-.69.09-1.34.236-1.94.439-.59.196-1.07.492-1.44.891-.36.391-.54.924-.54 1.601 0 .924.34 1.623 1.02 2.096.7.466 1.57.699 2.63.699Zm15.05-8.432v10.416h-2.66v-17.315h2.57v2.706h.22a5.02 5.02 0 0 1 1.85-2.12c.83-.541 1.9-.811 3.2-.811 1.18 0 2.2.24 3.08.721.88.474 1.56 1.195 2.05 2.164.49.962.74 2.18.74 3.653v11.002h-2.66v-10.822c0-1.36-.36-2.42-1.06-3.179-.71-.766-1.68-1.15-2.91-1.15-.85 0-1.61.185-2.28.553-.66.368-1.18.905-1.57 1.612-.38.706-.57 1.563-.57 2.57Zm22.45 10.777c-1.45 0-2.72-.364-3.83-1.093-1.1-.737-1.97-1.774-2.59-3.112-.62-1.345-.93-2.935-.93-4.768 0-1.819.31-3.397.93-4.735.62-1.338 1.49-2.371 2.6-3.1 1.12-.729 2.4-1.093 3.86-1.093 1.13 0 2.02.188 2.67.563.66.369 1.17.789 1.51 1.263.36.466.63.849.83 1.15h.22v-8.523h2.66v23.087h-2.57v-2.66h-.31c-.2.315-.48.714-.84 1.195-.36.473-.87.898-1.54 1.274-.67.368-1.56.552-2.67.552Zm.36-2.39c1.06 0 1.96-.278 2.7-.834.74-.564 1.3-1.342 1.68-2.334.38-.999.58-2.153.58-3.46 0-1.293-.19-2.424-.57-3.393-.37-.977-.93-1.737-1.67-2.278-.73-.548-1.64-.823-2.72-.823-1.13 0-2.07.29-2.82.868-.75.572-1.31 1.349-1.68 2.334-.37.977-.55 2.074-.55 3.292 0 1.232.18 2.352.56 3.359.38 1 .95 1.796 1.69 2.39.75.586 1.68.879 2.8.879Zm24.4-21.058v23.087h-2.66v-23.087h2.66Zm12.13 23.448c-1.66 0-3.1-.368-4.31-1.105-1.21-.744-2.13-1.781-2.79-3.111-.64-1.338-.97-2.893-.97-4.667s.33-3.337.97-4.69c.66-1.36 1.57-2.42 2.73-3.179 1.17-.766 2.54-1.149 4.1-1.149.91 0 1.8.15 2.68.451.87.3 1.67.789 2.4 1.465.72.669 1.29 1.556 1.72 2.66.43 1.105.64 2.465.64 4.081v1.128h-13.34v-2.3h10.64c0-.977-.2-1.849-.59-2.615a4.403 4.403 0 0 0-1.64-1.815c-.71-.444-1.54-.666-2.51-.666-1.06 0-1.97.264-2.75.79a5.296 5.296 0 0 0-1.77 2.029 6.003 6.003 0 0 0-.62 2.683v1.533c0 1.307.23 2.416.68 3.325.46.902 1.09 1.59 1.9 2.063.82.466 1.76.699 2.83.699.7 0 1.33-.098 1.9-.293a4 4 0 0 0 1.47-.902c.42-.406.74-.909.96-1.51l2.57.721a5.674 5.674 0 0 1-1.36 2.3c-.64.654-1.43 1.165-2.37 1.533-.94.361-1.99.541-3.17.541Zm23.49-13.798-2.39.676a4.55 4.55 0 0 0-.67-1.161c-.28-.383-.68-.699-1.17-.947-.5-.248-1.13-.372-1.91-.372-1.06 0-1.94.245-2.65.733-.69.481-1.04 1.094-1.04 1.838 0 .661.24 1.183.72 1.566.48.384 1.23.703 2.25.959l2.57.631c1.55.376 2.7.951 3.46 1.725.76.766 1.14 1.754 1.14 2.964 0 .992-.28 1.879-.86 2.661-.56.781-1.35 1.398-2.36 1.849-1.02.451-2.2.676-3.54.676-1.77 0-3.23-.383-4.39-1.15-1.15-.766-1.89-1.886-2.2-3.359l2.53-.631c.24.931.69 1.63 1.36 2.096.68.466 1.56.699 2.65.699 1.24 0 2.23-.263 2.96-.789.73-.533 1.1-1.172 1.1-1.916 0-.601-.21-1.105-.63-1.511-.42-.413-1.07-.721-1.94-.924l-2.89-.677c-1.58-.375-2.75-.958-3.49-1.747-.74-.797-1.1-1.792-1.1-2.987 0-.977.27-1.841.82-2.593.55-.752 1.31-1.341 2.26-1.77.97-.428 2.06-.642 3.27-.642 1.72 0 3.06.375 4.04 1.127.98.751 1.68 1.743 2.1 2.976Zm16.58 0-2.39.676a4.505 4.505 0 0 0-.66-1.161c-.29-.383-.68-.699-1.18-.947-.49-.248-1.13-.372-1.9-.372-1.06 0-1.94.245-2.65.733-.7.481-1.05 1.094-1.05 1.838 0 .661.24 1.183.72 1.566.48.384 1.23.703 2.26.959l2.57.631c1.55.376 2.7.951 3.46 1.725.76.766 1.14 1.754 1.14 2.964 0 .992-.29 1.879-.86 2.661-.56.781-1.35 1.398-2.37 1.849-1.01.451-2.19.676-3.54.676-1.76 0-3.23-.383-4.38-1.15-1.16-.766-1.89-1.886-2.2-3.359l2.52-.631c.25.931.7 1.63 1.37 2.096.67.466 1.56.699 2.65.699 1.24 0 2.22-.263 2.95-.789.74-.533 1.11-1.172 1.11-1.916 0-.601-.21-1.105-.64-1.511-.42-.413-1.06-.721-1.93-.924l-2.89-.677c-1.59-.375-2.75-.958-3.49-1.747-.74-.797-1.11-1.792-1.11-2.987 0-.977.27-1.841.82-2.593.56-.752 1.31-1.341 2.27-1.77.96-.428 2.05-.642 3.27-.642 1.71 0 3.06.375 4.03 1.127.99.751 1.69 1.743 2.1 2.976Zm19.79 13.798c-1.45 0-2.72-.364-3.82-1.093-1.11-.737-1.97-1.774-2.6-3.112-.62-1.345-.93-2.935-.93-4.768 0-1.819.31-3.397.93-4.735.63-1.338 1.5-2.371 2.61-3.1 1.11-.729 2.39-1.093 3.85-1.093 1.13 0 2.02.188 2.67.563.67.369 1.17.789 1.51 1.263.36.466.63.849.83 1.15h.22v-8.523h2.66v23.087h-2.57v-2.66h-.31c-.2.315-.48.714-.84 1.195-.36.473-.87.898-1.54 1.274-.67.368-1.56.552-2.67.552Zm.36-2.39c1.07 0 1.97-.278 2.7-.834.74-.564 1.3-1.342 1.68-2.334.39-.999.58-2.153.58-3.46 0-1.293-.19-2.424-.57-3.393-.37-.977-.93-1.737-1.66-2.278-.74-.548-1.65-.823-2.73-.823-1.13 0-2.07.29-2.82.868-.74.572-1.3 1.349-1.68 2.334-.37.977-.55 2.074-.55 3.292 0 1.232.19 2.352.56 3.359.39 1 .95 1.796 1.69 2.39.75.586 1.69.879 2.8.879Zm17.91 2.435c-1.1 0-2.09-.207-2.99-.62a5.178 5.178 0 0 1-2.13-1.815c-.52-.796-.79-1.758-.79-2.886 0-.992.2-1.796.59-2.412.39-.624.91-1.112 1.57-1.466a8.156 8.156 0 0 1 2.16-.789c.8-.18 1.6-.323 2.4-.428 1.05-.135 1.91-.237 2.56-.304.66-.076 1.14-.2 1.44-.372.31-.173.47-.474.47-.902v-.09c0-1.113-.31-1.977-.92-2.593-.6-.616-1.51-.925-2.74-.925-1.27 0-2.26.278-2.98.835-.72.556-1.23 1.149-1.52 1.781l-2.53-.902c.45-1.052 1.05-1.871 1.8-2.458a6.812 6.812 0 0 1 2.48-1.24c.91-.24 1.79-.36 2.66-.36.56 0 1.2.067 1.92.203.73.127 1.43.394 2.11.8.68.406 1.25 1.018 1.7 1.837.45.82.68 1.917.68 3.292v11.408h-2.66v-2.345h-.14c-.18.376-.48.778-.9 1.207-.42.428-.98.793-1.68 1.093-.7.301-1.55.451-2.56.451Zm.41-2.39c1.05 0 1.94-.206 2.66-.62.73-.413 1.27-.947 1.64-1.601a4.04 4.04 0 0 0 .57-2.062v-2.435c-.12.135-.36.259-.75.372-.37.105-.81.199-1.3.281-.49.076-.97.143-1.44.203-.46.053-.83.098-1.11.136-.69.09-1.34.236-1.94.439-.6.196-1.08.492-1.44.891-.37.391-.55.924-.55 1.601 0 .924.35 1.623 1.03 2.096.69.466 1.57.699 2.63.699Zm19.91-15.331v2.255h-8.97v-2.255h8.97Zm-6.35-4.148h2.66v16.503c0 .752.1 1.315.32 1.691.23.368.51.616.86.744.35.12.72.18 1.12.18.29 0 .53-.015.72-.045l.45-.09.54 2.39c-.18.068-.43.135-.76.203-.32.075-.73.113-1.23.113-.75 0-1.48-.162-2.2-.485a4.411 4.411 0 0 1-1.79-1.477c-.46-.661-.69-1.495-.69-2.502v-17.225Zm15.45 21.869c-1.1 0-2.09-.207-2.99-.62a5.178 5.178 0 0 1-2.13-1.815c-.52-.796-.79-1.758-.79-2.886 0-.992.2-1.796.59-2.412.39-.624.91-1.112 1.57-1.466a8.156 8.156 0 0 1 2.16-.789c.8-.18 1.6-.323 2.4-.428 1.05-.135 1.91-.237 2.56-.304.66-.076 1.14-.2 1.44-.372.31-.173.47-.474.47-.902v-.09c0-1.113-.31-1.977-.92-2.593-.6-.616-1.51-.925-2.74-.925-1.27 0-2.26.278-2.98.835-.72.556-1.23 1.149-1.53 1.781l-2.52-.902c.45-1.052 1.05-1.871 1.8-2.458a6.812 6.812 0 0 1 2.48-1.24c.91-.24 1.79-.36 2.66-.36.56 0 1.2.067 1.92.203.73.127 1.43.394 2.11.8.68.406 1.25 1.018 1.7 1.837.45.82.68 1.917.68 3.292v11.408h-2.66v-2.345h-.14c-.18.376-.48.778-.9 1.207-.42.428-.98.793-1.68 1.093-.7.301-1.55.451-2.56.451Zm.41-2.39c1.05 0 1.94-.206 2.66-.62.73-.413 1.27-.947 1.64-1.601a4.04 4.04 0 0 0 .57-2.062v-2.435c-.12.135-.36.259-.75.372-.37.105-.81.199-1.31.281-.48.076-.96.143-1.43.203-.46.053-.83.098-1.11.136-.69.09-1.34.236-1.94.439-.6.196-1.08.492-1.44.891-.37.391-.55.924-.55 1.601 0 .924.35 1.623 1.03 2.096.69.466 1.57.699 2.63.699Zm28.34 2.345c-1.62 0-3.02-.383-4.19-1.15-1.17-.766-2.07-1.822-2.7-3.168-.64-1.345-.95-2.882-.95-4.61 0-1.759.32-3.311.97-4.656.65-1.353 1.56-2.409 2.73-3.168 1.17-.766 2.54-1.149 4.1-1.149 1.22 0 2.31.225 3.29.676.98.451 1.78 1.082 2.4 1.894.63.811 1.01 1.758 1.16 2.841h-2.66c-.2-.789-.65-1.488-1.35-2.097-.69-.616-1.62-.925-2.8-.925-1.03 0-1.94.271-2.72.812-.78.534-1.38 1.289-1.82 2.266-.43.969-.64 2.108-.64 3.416 0 1.337.21 2.502.63 3.494.43.992 1.03 1.763 1.8 2.311.79.549 1.7.823 2.75.823.7 0 1.32-.12 1.89-.361.56-.24 1.04-.586 1.43-1.037.39-.451.67-.992.83-1.623h2.66a6.193 6.193 0 0 1-1.11 2.762c-.59.812-1.37 1.458-2.34 1.939-.96.473-2.08.71-3.36.71Zm17.74 0c-1.57 0-2.94-.372-4.12-1.116-1.17-.744-2.09-1.785-2.75-3.123-.65-1.337-.98-2.901-.98-4.689 0-1.804.33-3.378.98-4.723.66-1.346 1.58-2.39 2.75-3.134 1.18-.744 2.55-1.116 4.12-1.116 1.56 0 2.93.372 4.1 1.116 1.18.744 2.1 1.788 2.75 3.134.66 1.345.99 2.919.99 4.723 0 1.788-.33 3.352-.99 4.689-.65 1.338-1.57 2.379-2.75 3.123-1.17.744-2.54 1.116-4.1 1.116Zm0-2.39c1.18 0 2.16-.304 2.93-.913.76-.609 1.33-1.409 1.7-2.401.37-.992.55-2.067.55-3.224 0-1.158-.18-2.236-.55-3.235-.37-1-.94-1.808-1.7-2.424-.77-.616-1.75-.925-2.93-.925-1.19 0-2.17.309-2.93.925-.77.616-1.34 1.424-1.71 2.424a9.474 9.474 0 0 0-.55 3.235c0 1.157.19 2.232.55 3.224.37.992.94 1.792 1.71 2.401.76.609 1.74.913 2.93.913Zm14.56-8.387v10.416h-2.66v-17.315h2.57v2.706h.23a4.953 4.953 0 0 1 1.85-2.12c.83-.541 1.89-.811 3.2-.811 1.17 0 2.2.24 3.08.721.88.474 1.56 1.195 2.05 2.164.49.962.73 2.18.73 3.653v11.002h-2.66v-10.822c0-1.36-.35-2.42-1.06-3.179-.7-.766-1.67-1.15-2.91-1.15-.85 0-1.6.185-2.27.553-.66.368-1.19.905-1.57 1.612-.38.706-.58 1.563-.58 2.57Zm28.18-3.021-2.39.676a4.273 4.273 0 0 0-.67-1.161c-.28-.383-.67-.699-1.17-.947-.49-.248-1.13-.372-1.9-.372-1.06 0-1.95.245-2.65.733-.7.481-1.05 1.094-1.05 1.838 0 .661.24 1.183.72 1.566.48.384 1.23.703 2.25.959l2.57.631c1.55.376 2.71.951 3.47 1.725.75.766 1.13 1.754 1.13 2.964 0 .992-.28 1.879-.85 2.661-.57.781-1.36 1.398-2.37 1.849-1.01.451-2.19.676-3.54.676-1.77 0-3.23-.383-4.38-1.15-1.16-.766-1.89-1.886-2.2-3.359l2.52-.631c.24.931.7 1.63 1.37 2.096.67.466 1.56.699 2.65.699 1.24 0 2.22-.263 2.95-.789.74-.533 1.1-1.172 1.1-1.916 0-.601-.21-1.105-.63-1.511-.42-.413-1.07-.721-1.94-.924l-2.88-.677c-1.59-.375-2.75-.958-3.5-1.747-.73-.797-1.1-1.792-1.1-2.987 0-.977.27-1.841.82-2.593.56-.752 1.31-1.341 2.27-1.77.96-.428 2.05-.642 3.27-.642 1.71 0 3.05.375 4.03 1.127.99.751 1.69 1.743 2.1 2.976Zm15.23 6.358v-10.236h2.66v17.315h-2.66v-2.931h-.18c-.41.88-1.04 1.627-1.89 2.244-.86.608-1.94.913-3.25.913-1.08 0-2.04-.237-2.89-.71-.84-.481-1.5-1.203-1.98-2.165-.48-.969-.72-2.191-.72-3.664v-11.002h2.66v10.822c0 1.263.35 2.27 1.06 3.021.71.752 1.62 1.127 2.73 1.127.66 0 1.33-.169 2.01-.507.7-.338 1.27-.857 1.74-1.555.47-.699.71-1.59.71-2.672Zm7.53 7.079v-17.315h2.57v2.706h.23c.36-.925.94-1.643 1.75-2.154.8-.518 1.77-.777 2.89-.777 1.15 0 2.1.259 2.86.777.76.511 1.36 1.229 1.79 2.154h.18c.44-.895 1.11-1.605 1.99-2.131.89-.534 1.95-.8 3.19-.8 1.55 0 2.82.484 3.8 1.454.99.962 1.48 2.461 1.48 4.498v11.588h-2.66v-11.588c0-1.278-.35-2.191-1.05-2.74-.7-.548-1.52-.823-2.47-.823-1.21 0-2.16.369-2.83 1.105-.67.729-1 1.654-1 2.773v11.273h-2.71v-11.859c0-.984-.32-1.777-.95-2.378-.64-.609-1.47-.914-2.47-.914-.69 0-1.34.185-1.94.553-.6.368-1.08.879-1.44 1.533-.37.646-.55 1.394-.55 2.243v10.822h-2.66Zm27.59 6.493v-23.808h2.57v2.751h.32c.2-.301.47-.684.81-1.15.36-.474.86-.894 1.51-1.263.66-.375 1.56-.563 2.69-.563 1.45 0 2.74.364 3.85 1.093 1.11.729 1.98 1.762 2.6 3.1.63 1.338.94 2.916.94 4.735 0 1.833-.31 3.423-.94 4.768-.62 1.338-1.48 2.375-2.59 3.112-1.1.729-2.38 1.093-3.82 1.093-1.11 0-2-.184-2.67-.552-.67-.376-1.18-.801-1.55-1.274-.36-.481-.63-.88-.83-1.195h-.23v9.153h-2.66Zm2.62-15.15c0 1.307.19 2.461.57 3.46.39.992.95 1.77 1.68 2.334.74.556 1.64.834 2.71.834 1.11 0 2.04-.293 2.78-.879.76-.594 1.32-1.39 1.7-2.39.38-1.007.57-2.127.57-3.359 0-1.218-.19-2.315-.56-3.292-.37-.985-.93-1.762-1.68-2.334-.75-.578-1.68-.868-2.81-.868-1.08 0-1.99.275-2.73.823-.73.541-1.29 1.301-1.67 2.278-.37.969-.56 2.1-.56 3.393Zm24.26-8.658v2.255h-8.97v-2.255h8.97Zm-6.36-4.148h2.66v16.503c0 .752.11 1.315.33 1.691.22.368.51.616.86.744.35.12.72.18 1.11.18.29 0 .53-.015.72-.045l.45-.09.54 2.39c-.18.068-.43.135-.75.203-.32.075-.73.113-1.23.113a5.36 5.36 0 0 1-2.21-.485 4.383 4.383 0 0 1-1.78-1.477c-.47-.661-.7-1.495-.7-2.502v-17.225Zm10.36 21.463v-17.315h2.66v17.315h-2.66Zm1.35-20.201c-.51 0-.96-.176-1.34-.53a1.691 1.691 0 0 1-.55-1.273c0-.496.18-.921.55-1.274.38-.354.83-.53 1.34-.53.52 0 .97.176 1.33.53.38.353.57.778.57 1.274s-.19.92-.57 1.273c-.36.354-.81.53-1.33.53Zm13.22 20.562c-1.56 0-2.94-.372-4.12-1.116-1.17-.744-2.09-1.785-2.75-3.123-.65-1.337-.98-2.901-.98-4.689 0-1.804.33-3.378.98-4.723.66-1.346 1.58-2.39 2.75-3.134 1.18-.744 2.56-1.116 4.12-1.116s2.93.372 4.1 1.116c1.18.744 2.1 1.788 2.75 3.134.66 1.345.99 2.919.99 4.723 0 1.788-.33 3.352-.99 4.689-.65 1.338-1.57 2.379-2.75 3.123-1.17.744-2.54 1.116-4.1 1.116Zm0-2.39c1.19 0 2.16-.304 2.93-.913s1.33-1.409 1.7-2.401c.37-.992.55-2.067.55-3.224 0-1.158-.18-2.236-.55-3.235-.37-1-.93-1.808-1.7-2.424-.77-.616-1.74-.925-2.93-.925-1.19 0-2.17.309-2.93.925-.77.616-1.34 1.424-1.7 2.424a9.242 9.242 0 0 0-.56 3.235c0 1.157.19 2.232.56 3.224.36.992.93 1.792 1.7 2.401.76.609 1.74.913 2.93.913Zm14.57-8.387v10.416h-2.66v-17.315h2.57v2.706h.22a4.953 4.953 0 0 1 1.85-2.12c.83-.541 1.89-.811 3.2-.811 1.17 0 2.2.24 3.08.721.88.474 1.56 1.195 2.05 2.164.49.962.73 2.18.73 3.653v11.002h-2.66v-10.822c0-1.36-.35-2.42-1.06-3.179-.7-.766-1.67-1.15-2.91-1.15-.84 0-1.6.185-2.27.553-.66.368-1.19.905-1.57 1.612-.38.706-.57 1.563-.57 2.57Z"/><circle cx="340.724" cy="616.901" r="17.988" fill="#F1F5F9"/><rect width="713.193" height="42.326" x="398.922" y="595.738" fill="#F1F5F9" rx="8.465"/><path fill="#F1F5F9" d="M1107.88 668.751H322.736v2.116h785.144v-2.116Z" mask="url(#path-17-inside-3_605_313)"/><circle cx="340.724" cy="768.217" r="17.988" fill="#F1F5F9"/><rect width="713.193" height="42.326" x="398.922" y="747.054" fill="#F1F5F9" rx="8.465"/><path fill="#F1F5F9" d="M1107.88 820.066H322.736v2.116h785.144v-2.116Z" mask="url(#path-21-inside-4_605_313)"/><circle cx="340.724" cy="919.532" r="17.988" fill="#F1F5F9"/><rect width="713.193" height="42.326" x="398.922" y="898.369" fill="#F1F5F9" rx="8.465"/><path fill="#E2E8F0" d="M296.282 267.712c0-9.935 8.054-17.989 17.988-17.989h887.79l-2.12 2.117H314.27c-8.766 0-15.872 7.106-15.872 15.872h-2.116ZM1201 956.567H297.34 1201Zm-904.718 0V267.712c0-9.935 8.054-17.989 17.988-17.989v2.117c-8.766 0-15.872 7.106-15.872 15.872v688.855h-2.116Zm905.778-706.844v706.844h-2.12V251.84l2.12-2.117Z" mask="url(#path-10-inside-1_605_313)"/></g></g></g></g><defs><clipPath id="a"><path fill="#fff" d="M0 0h1201v952.335H0z"/></clipPath><clipPath id="c"><path fill="#fff" d="M85.71 120.629c0-14.026 11.37-25.395 25.396-25.395H1201v857.101H85.71V120.629Z"/></clipPath><clipPath id="d"><path fill="#fff" d="M0 0h1115.29v780.915H0z" transform="translate(85.71 171.42)"/></clipPath><filter id="b" width="1157.62" height="899.427" x="64.547" y="95.234" color-interpolation-filters="sRGB" filterUnits="userSpaceOnUse"><feFlood flood-opacity="0" result="BackgroundImageFix"/><feColorMatrix in="SourceAlpha" result="hardAlpha" values="0 0 0 0 0 0 0 0 0 0 0 0 0 0 0 0 0 0 127 0"/><feMorphology in="SourceAlpha" radius="5.291" result="effect1_dropShadow_605_313"/><feOffset dy="10.582"/><feGaussianBlur stdDeviation="5.291"/><feColorMatrix values="0 0 0 0 0 0 0 0 0 0 0 0 0 0 0 0 0 0 0.04 0"/><feBlend in2="BackgroundImageFix" result="effect1_dropShadow_605_313"/><feColorMatrix in="SourceAlpha" result="hardAlpha" values="0 0 0 0 0 0 0 0 0 0 0 0 0 0 0 0 0 0 127 0"/><feMorphology in="SourceAlpha" radius="5.291" result="effect2_dropShadow_605_313"/><feOffset dy="21.163"/><feGaussianBlur stdDeviation="13.227"/><feColorMatrix values="0 0 0 0 0 0 0 0 0 0 0 0 0 0 0 0 0 0 0.1 0"/><feBlend in2="effect1_dropShadow_605_313" result="effect2_dropShadow_605_313"/><feBlend in="SourceGraphic" in2="effect2_dropShadow_605_313" result="shape"/></filter></defs></svg>