<svg fill="none" width="57" height="64" viewBox="0 0 57 64" xmlns="http://www.w3.org/2000/svg" xmlns:xlink="http://www.w3.org/1999/xlink"><clipPath id="a"><path d="m.379639 0h56v64h-56z"/></clipPath><g clip-path="url(#a)"><path d="m.935486.5 5.027504 56.4415 22.55901 6.29 22.622-6.313 5.0315-56.4185zm44.795514 12.931-1.6735 18.8025.005.1015-.007.2335v-.002l-1.189 13.147-.131 1.168-14.18 3.922v.0005l-.011.0095-14.1555-3.944-.9585-10.8695h6.9415l.4925 5.527 7.693 2.085-.002.004v-.001l7.7215-2.1145.816-9.0005h-16.1415l-.1385-1.5215-.3155-3.5645-.1655-1.914h17.3745l.632-7h-26.463l-.1385-1.5205-.315-3.5655-.166-1.914h34.6405z" fill="#8c80a1"/></g></svg>
