<svg width="68" height="64" fill="none" viewBox="0 0 68 64" xmlns="http://www.w3.org/2000/svg" xmlns:xlink="http://www.w3.org/1999/xlink"><clipPath id="a"><path d="m0 0h67.0476v64h-67.0476z"/></clipPath><g clip-path="url(#a)"><path d="m0-.213257v64.213157h67.3379v-64.213157zm35.6185 54.716357c-.9939 1.9259-2.8912 3.1911-5.0897 3.8019-3.3782.7397-6.6093.318-9.013-1.0577-1.6086-.9411-2.8648-2.3898-3.7176-4.0588l5.1285-2.9949c.0447.018.1793.2502.3593.5502.654 1.0448 1.218 1.7846 2.3266 2.3039 1.0893.3545 3.4806.581 4.4039-1.2467.5641-.9298.3847-3.9186.3847-7.2253-.0006-5.1961.0247-10.3707.0247-15.5077h6.3077c0 5.6507.0323 11.0025 0 16.5166.0135 3.3802.3211 6.3936-1.1151 8.9185zm26.167-1.6994c-2.1926 7.1518-14.4168 7.384-19.3018 2.659-1.0321-1.1122-1.6791-1.6932-2.2948-2.977 2.596-1.4239 2.596-1.4239 5.1219-2.8176 1.3721 2.0111 2.6408 3.1171 4.9233 3.5697 3.0964.3606 6.2117-.6539 5.513-3.7901-.7181-2.5613-6.3405-3.1845-10.1669-5.9235-3.8846-2.4879-4.795-8.5332-1.6026-11.9874 1.0639-1.2776 2.8782-2.231 4.782-2.6892l1.9868-.2451c3.8145-.0734 6.1988.8872 7.9491 2.7509.4869.4706.8845.9781 1.6279 2.078-2.032 1.2349-2.0255 1.2231-4.9361 3.0201-.6217-1.2771-1.6533-2.0785-2.7436-2.4268-1.6926-.489-3.827.0426-4.2698 1.7481-.1535.5256-.1217 1.0146.1223 1.8828.6858 1.4913 2.9871 2.1396 5.0514 3.0442 5.9424 2.2983 7.9491 4.7626 8.4426 7.6958.4751 2.5254-.1148 4.1636-.2047 4.4081z" fill="#8c80a1"/></g></svg>
