<svg width="58" height="64" fill="none" viewBox="0 0 58 64" xmlns="http://www.w3.org/2000/svg" xmlns:xlink="http://www.w3.org/1999/xlink"><clipPath id="a"><path d="m.52507 0h56.5333v64h-56.5333z"/></clipPath><g clip-path="url(#a)" opacity=".9"><path d="m55.7133 14.0448-23.5429-13.656012c-1.4832-.8448-3.4261-.8448-4.9211 0l-23.7269 13.656012c-1.53013.8805-2.570664 2.5355-2.570664 4.3056v27.2757c0 1.7702 1.062404 3.4256 2.593064 4.311l6.25547 3.5669c3.00103 1.4784 3.83253 1.4784 5.19783 1.4784 4.4448 0 6.7531-2.6875 6.7531-7.3749v-26.928c.0005-.3803.2379-.9462-.136-.9462h-2.9984c-.3797 0-1.1317.5659-1.1317.9456v26.928c0 2.0779-1.9286 4.1456-5.4411 2.3893l-6.46506-3.7402c-.22507-.1227-.36054-.3696-.36054-.6299v-27.2757c0-.2571.24694-.5152.4752-.6469l23.6683-13.63258c.1162-.06173.2457-.09401.3773-.09401s.2611.03228.3773.09401l23.447 13.62938c.2245.1349.1888.385.1888.6501v27.2757c0 .2603.049.5136-.1723.639l-23.5376 13.6405c-.2016.121-.464.121-.6853 0l-6.0358-3.5995c-.1818-.1056-.401-.1434-.576-.0458-1.6773.9509-1.9888 1.0773-3.5621 1.6229-.3877.1349-.9595.3691.2176 1.0288l7.8923 4.6688c.7534.4353 1.6082.6645 2.4784.6645.8735.0014 1.732-.2278 2.4885-.6645l23.4539-13.6437c1.5312-.8918 2.305-2.5408 2.305-4.311v-27.2757c-.0005-1.7701-.7744-3.4208-2.3056-4.3056zm-18.6405 27.2592c-6.2544 0-7.6315-1.7253-8.0907-4.8352-.0544-.3349-.3381-.7355-.6794-.7355h-3.056c-.3782 0-.6827.4587-.6827.8352 0 3.9819 2.1653 8.8064 12.5088 8.8064 7.4869 0 11.7803-2.9093 11.7803-8.0581 0-5.1051-3.4491-6.4448-10.7104-7.4059-7.3398-.9701-8.0854-1.4602-8.0854-3.1797 0-1.4176.6315-3.3083 6.0662-3.3083 4.8554 0 6.6453 1.0422 7.3818 4.3152.0635.3078.3446.5286.6619.5286h3.0688c.1888 0 .3685-.0763.5008-.2112.1285-.1451.1957-.327.1792-.5222-.4763-5.6368-4.2203-8.2634-11.7931-8.2634-6.737 0-10.7552 2.8448-10.7552 7.6133 0 5.1723 3.9984 6.6016 10.4651 7.2411 7.736.7584 8.3376 1.889 8.3376 3.4106 0 2.6432-2.1216 3.7691-7.0976 3.7691z" fill="#8c80a1"/></g></svg>
