<svg width="74" height="64" fill="none" viewBox="0 0 74 64" xmlns="http://www.w3.org/2000/svg" xmlns:xlink="http://www.w3.org/1999/xlink"><clipPath id="a"><path d="m.857056 0h73.1429v64h-73.1429z"/></clipPath><clipPath id="b"><path d="m.857056-4.57141h73.1429v73.1429h-73.1429z"/></clipPath><g clip-path="url(#a)"><g clip-path="url(#b)" fill="#8c80a1"><path d="m37.4286 38.5144c3.5977 0 6.5143-2.9166 6.5143-6.5143 0-3.5978-2.9166-6.5143-6.5143-6.5143s-6.5143 2.9165-6.5143 6.5143c0 3.5977 2.9166 6.5143 6.5143 6.5143z"/><path d="m62.1714 21.2572c-1.2571-.4572-2.5714-.9143-3.9429-1.3143.3429-1.3714.6286-2.7429.8572-4.0571 1.2-7.5429-.1143-12.85718-3.7714-14.914325-1.0858-.628571-2.2858-.9142851-3.6572-.9142851-4 0-9.0857 2.9714301-14.2286 7.9428601-5.1428-4.97143-10.2285-7.9428601-14.2285-7.9428601-1.3715 0-2.5715.2857141-3.6572.9142851-3.6571 2.114285-4.9714 7.428575-3.7714 14.914325.2286 1.3142.5143 2.6857.8571 4.0571-1.3714.4-2.6857.8-3.9428 1.3143-7.14288 2.7428-11.0286 6.5143-11.0286 10.7428 0 4.2286 3.94286 8.0001 11.0286 10.7429 1.2571.4572 2.5714.9143 3.9428 1.3143-.3428 1.3714-.6285 2.7428-.8571 4.0571-1.2 7.5429.1143 12.8572 3.7714 14.9143 1.0857.6286 2.2857.9143 3.6572.9143 4.0571 0 9.1428-2.9714 14.2285-7.9428 5.1429 4.9714 10.2286 7.9428 14.2286 7.9428 1.3714 0 2.5714-.2857 3.6572-.9143 3.6571-2.1143 4.9714-7.4286 3.7714-14.9143-.2286-1.3143-.5143-2.6857-.8572-4.0571 1.3715-.4 2.6858-.8 3.9429-1.3143 7.1429-2.7428 11.0286-6.5143 11.0286-10.7429 0-4.2285-3.8857-8-11.0286-10.7428zm-8.4572-17.42858c2.3429 1.37143 3.1429 5.6 2.1715 11.59998-.1714 1.2-.4572 2.4572-.8 3.7714-2.9715-.6857-6.1143-1.1428-9.4286-1.4285-1.9429-2.7429-3.9429-5.2-5.9429-7.4286 4.2286-4.17142 8.5143-7.02857 12-7.02857.7429 0 1.4286.17143 2 .51429zm-6.3999 33.88568c-1.0286 1.8286-2.2286 3.6572-3.4858 5.4857-2.1143.1715-4.2285.2286-6.4.2286-2.2285 0-4.3428-.0571-6.4-.2286-1.2571-1.8285-2.4-3.6571-3.4285-5.4857-1.0858-1.8857-2.1143-3.8285-3.0286-5.7143.9143-1.8857 1.9428-3.8285 3.0286-5.7142 1.0285-1.8286 2.2285-3.6572 3.4857-5.4858 2.1143-.1714 4.2285-.2285 6.4-.2285 2.2285 0 4.3428.0571 6.4.2285 1.2571 1.8286 2.4 3.6572 3.4286 5.4858 1.0857 1.8857 2.1142 3.8285 3.0285 5.7142-.9714 1.8858-1.9428 3.7715-3.0285 5.7143zm4.7428-1.8857c.8571 2 1.5429 3.9429 2.1714 5.8857-1.9428.4572-4 .8-6.1714 1.0858.6857-1.0858 1.4286-2.2286 2.0571-3.4286.6858-1.2 1.3143-2.4 1.9429-3.5429zm-14.6286 15.4857c-1.3714-1.4857-2.6857-3.0857-3.9428-4.7428 1.3143.0571 2.6285.1143 3.9428.1143s2.6286-.0572 3.9429-.1143c-1.2572 1.6571-2.5714 3.2571-3.9429 4.7428zm-10.6285-8.5714c-2.1715-.2857-4.2286-.6286-6.1715-1.0857.6286-1.8857 1.3143-3.8857 2.1715-5.8857.6285 1.1428 1.2571 2.3428 1.9428 3.4857.6857 1.2571 1.3714 2.3429 2.0572 3.4857zm-4-14.5714c-.8572-2-1.5429-3.9429-2.1715-5.8857 1.9429-.4572 4-.8 6.1715-1.0858-.6858 1.0858-1.4286 2.2286-2.0572 3.4286-.6857 1.2-1.3143 2.4-1.9428 3.5429zm14.6285-15.4857c1.3715 1.4857 2.6857 3.0857 3.9429 4.7428-1.3143-.0571-2.6286-.1143-3.9429-.1143s-2.6285.0572-3.9428.1143c1.2571-1.6571 2.5714-3.2571 3.9428-4.7428zm12.6857 12-2.0571-3.4286c2.1714.2857 4.2286.6286 6.1714 1.0857-.6285 1.8857-1.3143 3.8857-2.1714 5.8857-.6286-1.2-1.2571-2.4-1.9429-3.5428zm-31.1428-9.2572c-.9714-5.99998-.1714-10.22855 2.1714-11.59998.5714-.34286 1.2572-.51429 2-.51429 3.4286 0 7.7143 2.8 12 7.02857-2 2.1714-4 4.6857-5.9428 7.4286-3.3143.2857-6.4572.8-9.4286 1.4285-.3429-1.3142-.5714-2.5714-.8-3.7714zm-14.1143 16.5714c0-2.6857 3.25715-5.5428 8.9714-7.6571 1.1429-.4571 2.4-.8571 3.6572-1.2.9143 2.8571 2.0571 5.8857 3.4285 8.9143-1.3714 3.0286-2.5714 6-3.4285 8.8571-7.88574-2.2857-12.6286-5.7143-12.6286-8.9143zm16.2857 28.1715c-2.3428-1.3714-3.1428-5.6-2.1714-11.6.1714-1.2.4571-2.4572.8-3.7714 2.9714.6857 6.1143 1.1428 9.4286 1.4285 1.9428 2.7429 3.9428 5.2 5.9428 7.4286-4.2286 4.1714-8.5143 7.0286-12 7.0286-.7428 0-1.4286-.1715-2-.5143zm34.7429-11.6c.9714 6 .1714 10.2286-2.1715 11.6-.5714.3428-1.2571.5143-2 .5143-3.4285 0-7.7142-2.8-12-7.0286 2-2.1714 4-4.6857 5.9429-7.4286 3.3143-.2857 6.4571-.8 9.4286-1.4285.3428 1.3142.5714 2.5714.8 3.7714zm5.1428-8.9143c-1.1428.4571-2.4.8571-3.6571 1.2-.9143-2.8572-2.0572-5.8857-3.4286-8.9143 1.3714-3.0286 2.5714-6 3.4286-8.8571 7.8857 2.2857 12.6286 5.7142 12.6286 8.9142 0 2.6858-3.3143 5.5429-8.9715 7.6572z"/></g></g></svg>
