<svg width="65" height="64" fill="none" viewBox="0 0 65 64" xmlns="http://www.w3.org/2000/svg" xmlns:xlink="http://www.w3.org/1999/xlink"><clipPath id="a"><path d="m.535858 0h64v64h-64z"/></clipPath><g clip-path="url(#a)"><path d="m-.104767 31.4374v32.2581h64.516167v-64.516118h-64.516167zm51.989667-2.5806c1.5452.3586 2.9497 1.1668 4.0361 2.3226.5982.6227 1.1181 1.316 1.5484 2.0645 0 .0826-2.7871 1.9664-4.4851 3.0194-.062.0412-.3097-.2271-.5833-.6349-.3099-.5349-.7504-.9825-1.2802-1.3011s-1.1317-.4978-1.7494-.5208c-1.9562-.1342-3.2155.8929-3.2052 2.5806-.0162.4202.08.8371.2787 1.2078.4284.8929 1.2284 1.4245 3.7368 2.5083 4.6193 1.9871 6.5961 3.2981 7.8245 5.1613 1.3729 2.0646 1.6774 5.3988.7484 7.8658-1.0323 2.6839-3.5613 4.5059-7.1381 5.1097-1.6336.1871-3.2842.1698-4.9135-.0516-2.4866-.4034-4.7805-1.5873-6.5497-3.3806-.5936-.6555-1.7497-2.3639-1.6774-2.4878.1884-.1398.3868-.2658.5935-.3768l2.3742-1.3625 1.8529-1.0736.3871.5729c.6533.9345 1.4847 1.7308 2.4465 2.3432 2.0645 1.0839 4.8825.9342 6.2761-.32.4679-.4595.7598-1.0687.8248-1.7213.0651-.6526-.1007-1.3073-.4687-1.8503-.5161-.7174-1.5484-1.3213-4.4335-2.5806-3.3291-1.4348-4.7639-2.3226-6.0749-3.7368-.8184-.9332-1.4226-2.0342-1.7703-3.2258-.2593-1.3613-.2977-2.7555-.1135-4.129.6864-3.2155 3.0967-5.4607 6.6167-6.1265 1.6302-.2017 3.2814-.1564 4.8981.1342zm-15.1432 2.7045v2.6426h-8.3768v23.8606h-5.9406v-23.8658h-8.3975v-2.5806c-.0225-.8884.0016-1.7774.0723-2.6632.031-.0413 5.1613-.062 11.3548-.0516h11.2568z" fill="#8c80a1"/></g></svg>
