<svg xmlns="http://www.w3.org/2000/svg" width="460" height="671" fill="none" viewBox="0 0 460 671"><g filter="url(#a)"><rect width="183" height="369" x="262" fill="#FAFAFA" rx="36"/><rect width="167" height="353" x="270" y="8" fill="#fff" rx="29"/></g><g clip-path="url(#b)"><rect width="119.688" height="113.703" x="293.747" y="15.713" fill="#ECFDF5" rx="4.256"/><path fill="#6EE7B7" d="M376.691 80.816a3.192 3.192 0 0 1 4.866 0l39.171 46.135c1.761 2.074.287 5.258-2.433 5.258h-78.342c-2.719 0-4.193-3.184-2.433-5.258l39.171-46.135Z"/><g filter="url(#c)"><path fill="#A7F3D0" d="M328.994 73.221a3.191 3.191 0 0 1 5.043 0l42.085 54.239c1.627 2.097.133 5.148-2.521 5.148H289.43c-2.654 0-4.149-3.051-2.521-5.148l42.085-54.239Z"/></g><circle cx="392.157" cy="36.193" r="9.309" fill="#6EE7B7"/></g><g clip-path="url(#d)"><rect width="119.688" height="113.703" x="293.747" y="150.694" fill="#F5F3FF" rx="4.256"/><path fill="#C4B5FD" d="M376.691 215.797a3.192 3.192 0 0 1 4.866 0l39.171 46.135c1.761 2.074.287 5.258-2.433 5.258h-78.342c-2.719 0-4.193-3.184-2.433-5.258l39.171-46.135Z"/><g filter="url(#e)"><path fill="#DDD6FE" d="M328.994 208.202a3.191 3.191 0 0 1 5.043 0l42.085 54.238c1.627 2.097.133 5.149-2.521 5.149H289.43c-2.654 0-4.149-3.052-2.521-5.149l42.085-54.238Z"/></g><circle cx="392.157" cy="171.174" r="9.309" fill="#C4B5FD"/></g><g clip-path="url(#f)"><rect width="119.688" height="113.703" x="293.747" y="285.675" fill="#ECFEFF" rx="4.256"/><path fill="#67E8F9" d="M376.691 350.778a3.192 3.192 0 0 1 4.866 0l39.171 46.135c1.761 2.074.287 5.258-2.433 5.258h-78.342c-2.719 0-4.193-3.184-2.433-5.258l39.171-46.135Z"/><g filter="url(#g)"><path fill="#A5F3FC" d="M328.994 343.183a3.191 3.191 0 0 1 5.043 0l42.085 54.238c1.627 2.097.133 5.149-2.521 5.149H289.43c-2.654 0-4.149-3.052-2.521-5.149l42.085-54.238Z"/></g><circle cx="392.157" cy="306.155" r="9.309" fill="#67E8F9"/></g><rect width="119.688" height="113.703" x="294" y="420.378" fill="#F4F4F5" rx="4.256"/><rect width="119.688" height="113.703" x="293" y="555" fill="#F4F4F5" rx="4.256"/><path fill="#52525B" d="M1.918 521.5v-17.455H4.55v15.188h7.91v2.267H1.917Zm17.152.29c-.83 0-1.58-.154-2.25-.46a3.794 3.794 0 0 1-1.594-1.356c-.387-.59-.58-1.315-.58-2.173 0-.739.142-1.346.426-1.824a3.143 3.143 0 0 1 1.151-1.133 5.989 5.989 0 0 1 1.62-.631c.596-.142 1.204-.25 1.823-.324l1.91-.221c.488-.063.843-.162 1.065-.299.221-.136.332-.358.332-.664v-.06c0-.744-.21-1.321-.63-1.73-.415-.409-1.035-.614-1.859-.614-.858 0-1.534.19-2.028.571-.489.375-.827.793-1.014 1.253l-2.395-.545c.284-.796.699-1.438 1.244-1.927a5.041 5.041 0 0 1 1.9-1.073 7.397 7.397 0 0 1 2.26-.341c.522 0 1.076.062 1.661.187a4.863 4.863 0 0 1 1.654.665c.517.324.94.787 1.27 1.389.33.597.494 1.372.494 2.327v8.693h-2.49v-1.79h-.102c-.165.33-.412.654-.742.972-.33.318-.752.582-1.27.792-.517.211-1.136.316-1.857.316Zm.554-2.046c.704 0 1.306-.139 1.806-.417.506-.279.89-.642 1.151-1.091.267-.455.4-.941.4-1.458v-1.687c-.09.091-.267.176-.528.256a8.485 8.485 0 0 1-.878.196c-.33.051-.65.099-.963.145a63.64 63.64 0 0 0-.784.102 6.272 6.272 0 0 0-1.355.315 2.333 2.333 0 0 0-.972.639c-.238.273-.358.637-.358 1.091 0 .631.233 1.108.7 1.432.465.318 1.059.477 1.78.477Zm9.027 1.756v-1.747l7.091-9.009v-.119h-6.86v-2.216h10.04v1.858l-6.819 8.898v.119h7.057v2.216H28.65Zm15.126 4.909c-.38 0-.727-.031-1.04-.094a3.238 3.238 0 0 1-.699-.187l.614-2.088c.466.125.88.179 1.244.162.364-.017.685-.154.963-.409.285-.256.535-.674.75-1.253l.316-.87-4.79-13.261h2.727l3.316 10.159h.136l3.315-10.159h2.736l-5.395 14.838c-.25.682-.568 1.259-.954 1.73a3.692 3.692 0 0 1-1.381 1.074c-.534.239-1.154.358-1.858.358Zm19.696-13.389v2.207h-7.739v-2.207h7.739Zm5.945-8.975V521.5h-2.549v-17.455h2.549Zm8.942 17.719c-1.227 0-2.298-.281-3.213-.844-.915-.562-1.625-1.349-2.13-2.36-.506-1.012-.76-2.194-.76-3.546 0-1.358.254-2.545.76-3.562.505-1.017 1.215-1.807 2.13-2.37.915-.562 1.986-.843 3.213-.843s2.298.281 3.213.843c.915.563 1.625 1.353 2.13 2.37.507 1.017.76 2.204.76 3.562 0 1.352-.253 2.534-.76 3.546-.505 1.011-1.215 1.798-2.13 2.36-.915.563-1.986.844-3.213.844Zm.009-2.139c.795 0 1.454-.21 1.977-.631.523-.42.909-.98 1.159-1.679.256-.699.383-1.468.383-2.309 0-.836-.127-1.603-.383-2.301-.25-.705-.636-1.27-1.16-1.696-.522-.427-1.18-.64-1.976-.64-.802 0-1.466.213-1.995.64-.522.426-.912.991-1.167 1.696a6.78 6.78 0 0 0-.375 2.301c0 .841.125 1.61.375 2.309.255.699.645 1.259 1.167 1.679.529.421 1.194.631 1.995.631Zm12.748 2.165c-.83 0-1.58-.154-2.25-.46a3.795 3.795 0 0 1-1.594-1.356c-.387-.59-.58-1.315-.58-2.173 0-.739.142-1.346.426-1.824a3.142 3.142 0 0 1 1.15-1.133 5.988 5.988 0 0 1 1.62-.631c.597-.142 1.205-.25 1.824-.324l1.91-.221c.488-.063.843-.162 1.064-.299.222-.136.333-.358.333-.664v-.06c0-.744-.21-1.321-.63-1.73-.416-.409-1.035-.614-1.859-.614-.858 0-1.534.19-2.028.571-.489.375-.827.793-1.014 1.253l-2.395-.545c.284-.796.699-1.438 1.244-1.927a5.04 5.04 0 0 1 1.9-1.073 7.398 7.398 0 0 1 2.26-.341c.522 0 1.076.062 1.661.187a4.85 4.85 0 0 1 1.653.665c.517.324.94.787 1.27 1.389.33.597.495 1.372.495 2.327v8.693h-2.489v-1.79h-.102c-.165.33-.412.654-.742.972-.33.318-.752.582-1.27.792-.517.211-1.136.316-1.858.316Zm.553-2.046c.705 0 1.307-.139 1.807-.417.506-.279.89-.642 1.15-1.091.268-.455.401-.941.401-1.458v-1.687c-.09.091-.267.176-.528.256a8.485 8.485 0 0 1-.878.196c-.33.051-.65.099-.963.145a63.64 63.64 0 0 0-.784.102 6.272 6.272 0 0 0-1.355.315 2.333 2.333 0 0 0-.972.639c-.238.273-.358.637-.358 1.091 0 .631.233 1.108.7 1.432.465.318 1.059.477 1.78.477Zm14.201 2.012c-1.056 0-2-.27-2.829-.81-.824-.545-1.472-1.321-1.943-2.327-.466-1.011-.699-2.224-.699-3.639 0-1.415.236-2.625.707-3.631.478-1.005 1.131-1.775 1.96-2.309.83-.534 1.77-.801 2.821-.801.813 0 1.466.136 1.961.409.5.267.886.579 1.159.937.278.358.494.674.648.946h.153v-6.486h2.548V521.5h-2.488v-2.037h-.213a6.805 6.805 0 0 1-.665.955c-.284.358-.676.67-1.176.937-.5.267-1.148.401-1.944.401Zm.563-2.174c.733 0 1.352-.193 1.858-.579.511-.392.898-.935 1.159-1.628.267-.693.401-1.5.401-2.42 0-.91-.131-1.705-.392-2.387-.262-.682-.645-1.213-1.151-1.594-.506-.38-1.131-.571-1.875-.571-.767 0-1.406.199-1.918.597-.511.398-.897.94-1.159 1.628-.255.687-.383 1.463-.383 2.327 0 .875.13 1.661.392 2.36.261.699.647 1.253 1.159 1.662.517.404 1.153.605 1.909.605Zm22.023-11.173v2.046h-7.151v-2.046h7.151Zm-5.233-3.136h2.548v12.383c0 .495.074.867.222 1.117.147.244.338.412.571.503.238.085.497.127.775.127.205 0 .384-.014.537-.042l.358-.068.46 2.105a4.28 4.28 0 0 1-.63.17 4.917 4.917 0 0 1-1.023.102 4.473 4.473 0 0 1-1.875-.358 3.211 3.211 0 0 1-1.406-1.159c-.358-.522-.537-1.179-.537-1.968v-12.912Zm10.881 8.454v7.773h-2.548v-17.455h2.514v6.495h.162a3.766 3.766 0 0 1 1.406-1.679c.631-.415 1.455-.622 2.472-.622.898 0 1.682.184 2.352.554.676.369 1.199.92 1.568 1.653.375.727.563 1.636.563 2.727v8.327h-2.549v-8.02c0-.96-.247-1.704-.741-2.233-.494-.534-1.182-.801-2.063-.801a3.37 3.37 0 0 0-1.619.384c-.471.255-.844.63-1.116 1.125-.267.488-.401 1.079-.401 1.772Zm17.531 8.037c-1.289 0-2.4-.275-3.332-.826-.926-.557-1.642-1.339-2.148-2.344-.5-1.012-.75-2.196-.75-3.554 0-1.341.25-2.523.75-3.546.506-1.022 1.21-1.821 2.114-2.395.909-.573 1.971-.86 3.187-.86.739 0 1.455.122 2.148.366a5.206 5.206 0 0 1 1.867 1.151c.551.522.985 1.201 1.304 2.037.318.829.477 1.838.477 3.025v.904h-10.406v-1.91h7.909c0-.67-.137-1.264-.409-1.781a3.11 3.11 0 0 0-1.151-1.236c-.489-.301-1.062-.451-1.722-.451-.715 0-1.34.176-1.875.528a3.551 3.551 0 0 0-1.227 1.364 3.938 3.938 0 0 0-.426 1.815v1.492c0 .875.153 1.619.46 2.233.313.613.747 1.082 1.304 1.406.557.318 1.208.477 1.952.477.483 0 .923-.068 1.321-.204a2.871 2.871 0 0 0 1.031-.631c.29-.279.512-.622.665-1.031l2.412.434a4.369 4.369 0 0 1-1.04 1.867c-.494.528-1.116.94-1.866 1.236-.745.289-1.594.434-2.549.434Zm18.254-10.159-2.31.409a2.733 2.733 0 0 0-.46-.844 2.288 2.288 0 0 0-.835-.656c-.352-.17-.793-.255-1.321-.255-.722 0-1.324.161-1.807.485-.483.318-.724.73-.724 1.236 0 .438.161.79.485 1.057.324.267.847.486 1.569.656l2.079.477c1.205.279 2.102.708 2.693 1.287.591.58.887 1.333.887 2.259 0 .784-.228 1.483-.682 2.096-.449.608-1.077 1.086-1.884 1.432-.801.347-1.73.52-2.787.52-1.466 0-2.662-.312-3.588-.937-.926-.631-1.494-1.526-1.704-2.685l2.463-.375c.153.642.469 1.128.946 1.457.477.324 1.099.486 1.866.486.836 0 1.503-.173 2.003-.52.5-.352.75-.781.75-1.287 0-.409-.153-.752-.46-1.031-.301-.278-.764-.488-1.389-.631l-2.216-.485c-1.222-.279-2.125-.722-2.71-1.33-.58-.608-.87-1.378-.87-2.31 0-.772.216-1.448.648-2.028.432-.579 1.028-1.031 1.79-1.355.761-.33 1.633-.494 2.616-.494 1.415 0 2.529.306 3.341.92.813.608 1.35 1.423 1.611 2.446Zm8.699 10.159c-1.289 0-2.4-.275-3.332-.826-.926-.557-1.642-1.339-2.148-2.344-.5-1.012-.75-2.196-.75-3.554 0-1.341.25-2.523.75-3.546.506-1.022 1.211-1.821 2.114-2.395.909-.573 1.972-.86 3.188-.86a6.42 6.42 0 0 1 2.147.366 5.197 5.197 0 0 1 1.867 1.151c.551.522.986 1.201 1.304 2.037.318.829.477 1.838.477 3.025v.904H173.8v-1.91h7.909c0-.67-.137-1.264-.409-1.781a3.11 3.11 0 0 0-1.151-1.236c-.488-.301-1.062-.451-1.721-.451-.716 0-1.341.176-1.875.528a3.546 3.546 0 0 0-1.228 1.364 3.938 3.938 0 0 0-.426 1.815v1.492c0 .875.154 1.619.46 2.233a3.34 3.34 0 0 0 1.304 1.406c.557.318 1.208.477 1.952.477.483 0 .923-.068 1.321-.204a2.863 2.863 0 0 0 1.031-.631c.29-.279.512-.622.665-1.031l2.412.434a4.369 4.369 0 0 1-1.04 1.867c-.494.528-1.116.94-1.866 1.236-.745.289-1.594.434-2.549.434ZM7.943 540.409v2.046H.545v-2.046h7.398ZM2.573 553.5v-14.608c0-.818.18-1.497.538-2.037a3.296 3.296 0 0 1 1.423-1.219 4.551 4.551 0 0 1 1.926-.409c.512 0 .95.043 1.313.128.363.08.633.154.81.222l-.597 2.062a11.6 11.6 0 0 0-.46-.119 2.627 2.627 0 0 0-.682-.077c-.62 0-1.063.154-1.33.46-.261.307-.392.75-.392 1.33V553.5H2.574Zm12.998.264c-1.227 0-2.298-.281-3.213-.844-.915-.562-1.625-1.349-2.13-2.36-.506-1.012-.76-2.194-.76-3.546 0-1.358.254-2.545.76-3.562.505-1.017 1.215-1.807 2.13-2.37.915-.562 1.986-.843 3.213-.843s2.298.281 3.213.843c.915.563 1.625 1.353 2.13 2.37.506 1.017.76 2.204.76 3.562 0 1.352-.253 2.534-.76 3.546-.505 1.011-1.215 1.798-2.13 2.36-.915.563-1.986.844-3.213.844Zm.008-2.139c.796 0 1.455-.21 1.978-.631.523-.42.909-.98 1.159-1.679.256-.699.383-1.468.383-2.309 0-.836-.127-1.603-.383-2.301-.25-.705-.637-1.27-1.16-1.696-.522-.427-1.181-.64-1.977-.64-.8 0-1.465.213-1.994.64-.523.426-.912.991-1.167 1.696a6.78 6.78 0 0 0-.375 2.301c0 .841.125 1.61.375 2.309.255.699.645 1.259 1.167 1.679.529.421 1.193.631 1.994.631Zm8.939 1.875v-13.091h2.463v2.08h.136a3.16 3.16 0 0 1 1.262-1.662 3.61 3.61 0 0 1 2.062-.614 11.32 11.32 0 0 1 1.082.06v2.437a4.845 4.845 0 0 0-.545-.094 5.307 5.307 0 0 0-.784-.059c-.602 0-1.14.128-1.61.383a2.85 2.85 0 0 0-1.518 2.566v7.994h-2.548Zm21.792-13.091v2.046h-7.397v-2.046h7.397ZM40.941 553.5v-14.608c0-.818.179-1.497.537-2.037a3.295 3.295 0 0 1 1.423-1.219 4.55 4.55 0 0 1 1.926-.409c.512 0 .95.043 1.313.128.364.08.633.154.81.222l-.597 2.062c-.12-.034-.273-.074-.46-.119a2.628 2.628 0 0 0-.682-.077c-.62 0-1.063.154-1.33.46-.261.307-.392.75-.392 1.33V553.5h-2.548Zm11.41.29c-.83 0-1.58-.154-2.25-.46a3.795 3.795 0 0 1-1.594-1.356c-.386-.59-.58-1.315-.58-2.173 0-.739.143-1.346.427-1.824a3.142 3.142 0 0 1 1.15-1.133 5.988 5.988 0 0 1 1.62-.631 16.14 16.14 0 0 1 1.823-.324l1.91-.221c.488-.063.843-.162 1.065-.299.222-.136.332-.358.332-.664v-.06c0-.744-.21-1.321-.63-1.73-.415-.409-1.035-.614-1.858-.614-.858 0-1.535.19-2.029.571-.488.375-.827.793-1.014 1.253l-2.395-.545c.284-.796.699-1.438 1.244-1.927a5.042 5.042 0 0 1 1.901-1.073 7.398 7.398 0 0 1 2.258-.341 7.98 7.98 0 0 1 1.663.187c.59.119 1.142.341 1.653.665.517.324.94.787 1.27 1.389.33.597.494 1.372.494 2.327v8.693h-2.489v-1.79h-.102a3.62 3.62 0 0 1-.741.972c-.33.318-.753.582-1.27.792-.517.211-1.137.316-1.858.316Zm.554-2.046c.704 0 1.307-.139 1.807-.417.505-.279.889-.642 1.15-1.091.267-.455.4-.941.4-1.458v-1.687c-.09.091-.266.176-.528.256a8.481 8.481 0 0 1-.878.196c-.329.051-.65.099-.962.145a64.13 64.13 0 0 0-.785.102 6.272 6.272 0 0 0-1.355.315 2.333 2.333 0 0 0-.971.639c-.239.273-.358.637-.358 1.091 0 .631.233 1.108.699 1.432.465.318 1.06.477 1.78.477Zm19.11-8.139-2.31.409a2.74 2.74 0 0 0-.46-.844 2.282 2.282 0 0 0-.835-.656c-.352-.17-.793-.255-1.321-.255-.722 0-1.324.161-1.807.485-.483.318-.724.73-.724 1.236 0 .438.161.79.485 1.057.324.267.847.486 1.569.656l2.08.477c1.204.279 2.101.708 2.692 1.287.591.58.887 1.333.887 2.259 0 .784-.228 1.483-.682 2.096-.45.608-1.077 1.086-1.884 1.432-.8.347-1.73.52-2.787.52-1.466 0-2.662-.312-3.588-.937-.926-.631-1.494-1.526-1.704-2.685l2.463-.375c.153.642.469 1.128.946 1.457.477.324 1.1.486 1.866.486.836 0 1.503-.173 2.003-.52.5-.352.75-.781.75-1.287 0-.409-.153-.752-.46-1.031-.301-.278-.764-.488-1.39-.631l-2.215-.485c-1.222-.279-2.125-.722-2.71-1.33-.58-.608-.87-1.378-.87-2.31 0-.772.216-1.448.648-2.028.432-.579 1.028-1.031 1.79-1.355.761-.33 1.633-.494 2.616-.494 1.415 0 2.529.306 3.341.92.813.608 1.35 1.423 1.61 2.446Zm9.168-3.196v2.046h-7.15v-2.046h7.15Zm-5.233-3.136h2.55v12.383c0 .495.073.867.221 1.117.148.244.338.412.571.503.239.085.497.127.776.127.204 0 .383-.014.537-.042l.358-.068.46 2.105a4.298 4.298 0 0 1-.63.17 4.911 4.911 0 0 1-1.023.102 4.476 4.476 0 0 1-1.876-.358 3.214 3.214 0 0 1-1.406-1.159c-.358-.522-.537-1.179-.537-1.968v-12.912Zm13.554 16.491c-1.29 0-2.401-.275-3.333-.826-.926-.557-1.642-1.339-2.148-2.344-.5-1.012-.75-2.196-.75-3.554 0-1.341.25-2.523.75-3.546.506-1.022 1.21-1.821 2.114-2.395.91-.573 1.972-.86 3.188-.86a6.42 6.42 0 0 1 2.147.366 5.195 5.195 0 0 1 1.867 1.151c.55.522.986 1.201 1.304 2.037.318.829.477 1.838.477 3.025v.904H84.714v-1.91h7.909c0-.67-.136-1.264-.41-1.781a3.104 3.104 0 0 0-1.15-1.236c-.488-.301-1.062-.451-1.721-.451-.716 0-1.341.176-1.875.528a3.547 3.547 0 0 0-1.228 1.364 3.938 3.938 0 0 0-.426 1.815v1.492c0 .875.154 1.619.46 2.233a3.332 3.332 0 0 0 1.304 1.406c.557.318 1.208.477 1.952.477.483 0 .923-.068 1.321-.204a2.872 2.872 0 0 0 1.031-.631c.29-.279.512-.622.665-1.031l2.412.434a4.37 4.37 0 0 1-1.04 1.867c-.494.528-1.116.94-1.866 1.236-.745.289-1.594.434-2.548.434Zm8.443-.264v-13.091h2.464v2.08h.136a3.164 3.164 0 0 1 1.261-1.662 3.612 3.612 0 0 1 2.063-.614 11.301 11.301 0 0 1 1.082.06v2.437a4.838 4.838 0 0 0-.545-.094 5.316 5.316 0 0 0-.784-.059c-.603 0-1.14.128-1.611.383a2.851 2.851 0 0 0-1.517 2.566v7.994h-2.549Zm18.111-17.455V553.5h-2.548v-17.455h2.548Zm8.943 17.719c-1.228 0-2.299-.281-3.213-.844-.915-.562-1.625-1.349-2.131-2.36-.506-1.012-.759-2.194-.759-3.546 0-1.358.253-2.545.759-3.562s1.216-1.807 2.131-2.37c.914-.562 1.985-.843 3.213-.843 1.227 0 2.298.281 3.213.843.915.563 1.625 1.353 2.13 2.37.506 1.017.759 2.204.759 3.562 0 1.352-.253 2.534-.759 3.546-.505 1.011-1.215 1.798-2.13 2.36-.915.563-1.986.844-3.213.844Zm.008-2.139c.796 0 1.455-.21 1.978-.631.522-.42.909-.98 1.159-1.679.255-.699.383-1.468.383-2.309a6.66 6.66 0 0 0-.383-2.301c-.25-.705-.637-1.27-1.159-1.696-.523-.427-1.182-.64-1.978-.64-.801 0-1.466.213-1.994.64-.523.426-.912.991-1.168 1.696a6.78 6.78 0 0 0-.375 2.301c0 .841.125 1.61.375 2.309.256.699.645 1.259 1.168 1.679.528.421 1.193.631 1.994.631Zm12.748 2.165c-.829 0-1.579-.154-2.25-.46a3.798 3.798 0 0 1-1.594-1.356c-.386-.59-.579-1.315-.579-2.173 0-.739.142-1.346.426-1.824a3.142 3.142 0 0 1 1.151-1.133 5.97 5.97 0 0 1 1.619-.631c.596-.142 1.204-.25 1.824-.324l1.909-.221c.488-.063.844-.162 1.065-.299.222-.136.333-.358.333-.664v-.06c0-.744-.211-1.321-.631-1.73-.415-.409-1.034-.614-1.858-.614-.858 0-1.534.19-2.029.571-.488.375-.826.793-1.014 1.253l-2.395-.545c.284-.796.699-1.438 1.245-1.927a5.037 5.037 0 0 1 1.9-1.073 7.4 7.4 0 0 1 2.259-.341 7.97 7.97 0 0 1 1.662.187 4.85 4.85 0 0 1 1.653.665c.517.324.94.787 1.27 1.389.33.597.494 1.372.494 2.327v8.693h-2.488v-1.79h-.103a3.61 3.61 0 0 1-.741.972c-.33.318-.753.582-1.27.792-.517.211-1.136.316-1.858.316Zm.554-2.046c.705 0 1.307-.139 1.807-.417.506-.279.889-.642 1.15-1.091.268-.455.401-.941.401-1.458v-1.687c-.091.091-.267.176-.528.256a8.537 8.537 0 0 1-.878.196c-.33.051-.651.099-.963.145-.313.039-.574.073-.784.102a6.26 6.26 0 0 0-1.355.315 2.328 2.328 0 0 0-.972.639c-.239.273-.358.637-.358 1.091 0 .631.233 1.108.699 1.432.466.318 1.059.477 1.781.477Zm14.201 2.012c-1.057 0-2-.27-2.829-.81-.824-.545-1.472-1.321-1.944-2.327-.466-1.011-.699-2.224-.699-3.639 0-1.415.236-2.625.708-3.631.477-1.005 1.131-1.775 1.96-2.309.83-.534 1.77-.801 2.821-.801.813 0 1.466.136 1.96.409.5.267.887.579 1.159.937.279.358.495.674.648.946h.154v-6.486h2.548V553.5h-2.489v-2.037h-.213a6.721 6.721 0 0 1-.665.955c-.284.358-.676.67-1.176.937-.5.267-1.147.401-1.943.401Zm.563-2.174c.733 0 1.352-.193 1.858-.579.511-.392.897-.935 1.159-1.628.267-.693.4-1.5.4-2.42 0-.91-.13-1.705-.392-2.387-.261-.682-.645-1.213-1.15-1.594-.506-.38-1.131-.571-1.875-.571-.767 0-1.407.199-1.918.597-.511.398-.898.94-1.159 1.628-.256.687-.384 1.463-.384 2.327 0 .875.131 1.661.392 2.36.262.699.648 1.253 1.159 1.662.518.404 1.154.605 1.91.605ZM7.824 572.409v2.046H.674v-2.046h7.15Zm-5.233-3.136h2.548v12.383c0 .495.074.867.222 1.117.148.244.338.412.57.503.24.085.498.127.776.127.205 0 .384-.014.537-.042l.358-.068.46 2.105a4.294 4.294 0 0 1-.63.17 4.912 4.912 0 0 1-1.023.102 4.477 4.477 0 0 1-1.875-.358 3.214 3.214 0 0 1-1.406-1.159c-.358-.522-.537-1.179-.537-1.968v-12.912Zm8.052 16.227v-13.091h2.548V585.5h-2.548Zm1.287-15.111a1.62 1.62 0 0 1-1.142-.443 1.44 1.44 0 0 1-.47-1.074c0-.42.157-.778.47-1.074a1.603 1.603 0 0 1 1.142-.451c.443 0 .82.15 1.133.451.318.296.477.654.477 1.074 0 .415-.159.773-.477 1.074a1.59 1.59 0 0 1-1.133.443Zm4.69 15.111v-13.091h2.445v2.131h.162a3.384 3.384 0 0 1 1.338-1.688c.62-.409 1.361-.613 2.225-.613.875 0 1.608.204 2.199.613.596.409 1.037.972 1.32 1.688h.137a3.686 3.686 0 0 1 1.491-1.671c.682-.42 1.495-.63 2.438-.63 1.188 0 2.156.372 2.906 1.116.756.744 1.134 1.867 1.134 3.367v8.778h-2.549v-8.54c0-.886-.241-1.528-.724-1.926-.483-.398-1.06-.596-1.73-.596-.83 0-1.474.255-1.935.767-.46.505-.69 1.156-.69 1.951v8.344h-2.54v-8.702c0-.71-.221-1.281-.665-1.713-.443-.432-1.02-.647-1.73-.647-.483 0-.929.127-1.338.383-.403.25-.73.599-.98 1.048-.244.449-.366.969-.366 1.56v8.071h-2.549Zm26.852.264c-1.29 0-2.4-.275-3.332-.826-.926-.557-1.642-1.339-2.148-2.344-.5-1.012-.75-2.196-.75-3.554 0-1.341.25-2.523.75-3.546.506-1.022 1.21-1.821 2.114-2.395.909-.573 1.971-.86 3.187-.86.739 0 1.455.122 2.148.366a5.195 5.195 0 0 1 1.866 1.151c.552.522.986 1.201 1.304 2.037.319.829.478 1.838.478 3.025v.904H38.682v-1.91h7.91c0-.67-.137-1.264-.41-1.781a3.104 3.104 0 0 0-1.15-1.236c-.489-.301-1.063-.451-1.722-.451-.716 0-1.34.176-1.875.528a3.547 3.547 0 0 0-1.227 1.364 3.937 3.937 0 0 0-.426 1.815v1.492c0 .875.153 1.619.46 2.233a3.332 3.332 0 0 0 1.304 1.406c.557.318 1.208.477 1.952.477.483 0 .923-.068 1.32-.204a2.872 2.872 0 0 0 1.032-.631 2.75 2.75 0 0 0 .665-1.031l2.412.434a4.37 4.37 0 0 1-1.04 1.867c-.494.528-1.116.94-1.866 1.236-.745.289-1.594.434-2.549.434Zm18.254-10.159-2.31.409a2.742 2.742 0 0 0-.46-.844 2.283 2.283 0 0 0-.835-.656c-.352-.17-.793-.255-1.321-.255-.722 0-1.324.161-1.807.485-.483.318-.724.73-.724 1.236 0 .438.161.79.485 1.057.324.267.847.486 1.568.656l2.08.477c1.204.279 2.102.708 2.693 1.287.591.58.886 1.333.886 2.259 0 .784-.227 1.483-.681 2.096-.45.608-1.077 1.086-1.884 1.432-.8.347-1.73.52-2.787.52-1.466 0-2.662-.312-3.588-.937-.926-.631-1.494-1.526-1.704-2.685l2.463-.375c.153.642.469 1.128.946 1.457.477.324 1.1.486 1.866.486.835 0 1.503-.173 2.003-.52.5-.352.75-.781.75-1.287 0-.409-.153-.752-.46-1.031-.301-.278-.764-.488-1.39-.631l-2.215-.485c-1.222-.279-2.125-.722-2.71-1.33-.58-.608-.87-1.378-.87-2.31 0-.772.216-1.448.648-2.028.432-.579 1.028-1.031 1.79-1.355.761-.33 1.633-.494 2.616-.494 1.415 0 2.529.306 3.341.92.813.608 1.35 1.423 1.61 2.446Z"/><path stroke="#18181B" stroke-linecap="round" stroke-width="4" d="M233 420h-24"/><path fill="#18181B" d="M223 420a2 2 0 1 0-4 0h4Zm-4 0v124.5h4V420h-4Z"/><path stroke="#18181B" stroke-linecap="round" stroke-width="4" d="M209 669h24"/><path fill="#18181B" d="M219 669a2 2 0 1 0 4 0h-4Zm4 0V544.5h-4V669h4Z"/><path fill="#52525B" d="m101.443 176.045 4.858 14.216h.196l4.858-14.216h2.847L107.92 193.5h-3.042l-6.281-17.455h2.846Zm15.075 17.455v-13.091h2.548V193.5h-2.548Zm1.287-15.111c-.443 0-.824-.148-1.142-.443a1.44 1.44 0 0 1-.469-1.074c0-.42.156-.778.469-1.074a1.603 1.603 0 0 1 1.142-.451c.443 0 .821.15 1.133.451.318.296.477.654.477 1.074 0 .415-.159.773-.477 1.074a1.59 1.59 0 0 1-1.133.443Zm10.331 15.375c-1.289 0-2.4-.275-3.332-.826-.926-.557-1.642-1.339-2.148-2.344-.5-1.012-.75-2.196-.75-3.554 0-1.341.25-2.523.75-3.546.506-1.022 1.21-1.821 2.114-2.395.909-.573 1.971-.86 3.187-.86.739 0 1.455.122 2.148.366a5.206 5.206 0 0 1 1.867 1.151c.551.522.985 1.201 1.304 2.037.318.829.477 1.838.477 3.025v.904h-10.406v-1.91h7.909c0-.67-.137-1.264-.409-1.781a3.11 3.11 0 0 0-1.151-1.236c-.489-.301-1.062-.451-1.722-.451-.715 0-1.34.176-1.875.528a3.551 3.551 0 0 0-1.227 1.364 3.938 3.938 0 0 0-.426 1.815v1.492c0 .875.153 1.619.46 2.233.313.613.747 1.082 1.304 1.406.557.318 1.208.477 1.952.477.483 0 .923-.068 1.321-.204a2.871 2.871 0 0 0 1.031-.631c.29-.279.512-.622.665-1.031l2.412.434a4.369 4.369 0 0 1-1.04 1.867c-.494.528-1.116.94-1.866 1.236-.745.289-1.594.434-2.549.434Zm11.259-.264-3.852-13.091h2.633l2.565 9.614h.128l2.574-9.614h2.634l2.557 9.571h.127l2.549-9.571h2.633l-3.844 13.091H147.5l-2.659-9.452h-.196l-2.659 9.452h-2.591Zm16.967 4.909v-18h2.488v2.122h.213c.148-.272.361-.588.639-.946.279-.358.665-.67 1.16-.937.494-.273 1.147-.409 1.96-.409 1.057 0 2 .267 2.829.801.83.534 1.48 1.304 1.952 2.309.477 1.006.716 2.216.716 3.631 0 1.415-.236 2.628-.707 3.639-.472 1.006-1.12 1.782-1.944 2.327-.824.54-1.764.81-2.821.81-.795 0-1.446-.134-1.951-.401-.5-.267-.892-.579-1.177-.937a7.186 7.186 0 0 1-.656-.955h-.153v6.946h-2.548Zm2.497-11.454c0 .92.133 1.727.4 2.42.267.693.654 1.236 1.159 1.628.506.386 1.125.579 1.858.579.762 0 1.398-.201 1.909-.605.512-.409.898-.963 1.159-1.662.268-.699.401-1.485.401-2.36 0-.864-.131-1.64-.392-2.327-.256-.688-.642-1.23-1.159-1.628-.511-.398-1.151-.597-1.918-.597-.738 0-1.363.191-1.875.571-.505.381-.889.912-1.15 1.594-.262.682-.392 1.477-.392 2.387Zm17.829 6.809c-1.227 0-2.298-.281-3.213-.844-.915-.562-1.625-1.349-2.131-2.36-.505-1.012-.758-2.194-.758-3.546 0-1.358.253-2.545.758-3.562.506-1.017 1.216-1.807 2.131-2.37.915-.562 1.986-.843 3.213-.843s2.299.281 3.213.843c.915.563 1.625 1.353 2.131 2.37.506 1.017.758 2.204.758 3.562 0 1.352-.252 2.534-.758 3.546-.506 1.011-1.216 1.798-2.131 2.36-.914.563-1.986.844-3.213.844Zm.009-2.139c.795 0 1.454-.21 1.977-.631.523-.42.909-.98 1.159-1.679.256-.699.384-1.468.384-2.309 0-.836-.128-1.603-.384-2.301-.25-.705-.636-1.27-1.159-1.696-.523-.427-1.182-.64-1.977-.64-.801 0-1.466.213-1.995.64-.522.426-.912.991-1.167 1.696a6.78 6.78 0 0 0-.375 2.301c0 .841.125 1.61.375 2.309.255.699.645 1.259 1.167 1.679.529.421 1.194.631 1.995.631Zm8.938 1.875v-13.091h2.463v2.08h.136a3.16 3.16 0 0 1 1.262-1.662 3.61 3.61 0 0 1 2.062-.614 11.338 11.338 0 0 1 1.083.06v2.437a4.867 4.867 0 0 0-.546-.094 5.305 5.305 0 0 0-.784-.059c-.602 0-1.139.128-1.611.383a2.851 2.851 0 0 0-1.517 2.566v7.994h-2.548Zm16.095-13.091v2.046h-7.15v-2.046h7.15Zm-5.233-3.136h2.548v12.383c0 .495.074.867.222 1.117.148.244.338.412.571.503.239.085.497.127.776.127.204 0 .383-.014.537-.042l.358-.068.46 2.105a4.3 4.3 0 0 1-.631.17 4.917 4.917 0 0 1-1.023.102 4.48 4.48 0 0 1-1.875-.358 3.217 3.217 0 0 1-1.406-1.159c-.358-.522-.537-1.179-.537-1.968v-12.912Z"/><path stroke="#18181B" stroke-linecap="round" stroke-width="4" d="M233 8h-24"/><path fill="#18181B" d="M223 8a2 2 0 1 0-4 0h4Zm-4 0v176.5h4V8h-4Z"/><path stroke="#18181B" stroke-linecap="round" stroke-width="4" d="M209 361h24"/><path fill="#18181B" d="M219 361a2 2 0 1 0 4 0h-4Zm4 0V184.5h-4V361h4Z"/><defs><filter id="a" width="183" height="371" x="262" y="-2" color-interpolation-filters="sRGB" filterUnits="userSpaceOnUse"><feFlood flood-opacity="0" result="BackgroundImageFix"/><feBlend in="SourceGraphic" in2="BackgroundImageFix" result="shape"/><feColorMatrix in="SourceAlpha" result="hardAlpha" values="0 0 0 0 0 0 0 0 0 0 0 0 0 0 0 0 0 0 127 0"/><feOffset dy="-2"/><feGaussianBlur stdDeviation="3"/><feComposite in2="hardAlpha" k2="-1" k3="1" operator="arithmetic"/><feColorMatrix values="0 0 0 0 0.0392157 0 0 0 0 0.145098 0 0 0 0 0.25098 0 0 0 0.35 0"/><feBlend in2="shape" result="effect1_innerShadow_546_574"/></filter><filter id="c" width="103.332" height="73.388" x="279.849" y="70.922" color-interpolation-filters="sRGB" filterUnits="userSpaceOnUse"><feFlood flood-opacity="0" result="BackgroundImageFix"/><feColorMatrix in="SourceAlpha" result="hardAlpha" values="0 0 0 0 0 0 0 0 0 0 0 0 0 0 0 0 0 0 127 0"/><feMorphology in="SourceAlpha" radius="1.064" result="effect1_dropShadow_546_574"/><feOffset dy="2.128"/><feGaussianBlur stdDeviation="1.596"/><feColorMatrix values="0 0 0 0 0 0 0 0 0 0 0 0 0 0 0 0 0 0 0.05 0"/><feBlend in2="BackgroundImageFix" result="effect1_dropShadow_546_574"/><feColorMatrix in="SourceAlpha" result="hardAlpha" values="0 0 0 0 0 0 0 0 0 0 0 0 0 0 0 0 0 0 127 0"/><feMorphology in="SourceAlpha" radius="1.596" result="effect2_dropShadow_546_574"/><feOffset dy="5.319"/><feGaussianBlur stdDeviation="3.99"/><feColorMatrix values="0 0 0 0 0 0 0 0 0 0 0 0 0 0 0 0 0 0 0.1 0"/><feBlend in2="effect1_dropShadow_546_574" result="effect2_dropShadow_546_574"/><feBlend in="SourceGraphic" in2="effect2_dropShadow_546_574" result="shape"/></filter><filter id="e" width="103.332" height="73.388" x="279.849" y="205.903" color-interpolation-filters="sRGB" filterUnits="userSpaceOnUse"><feFlood flood-opacity="0" result="BackgroundImageFix"/><feColorMatrix in="SourceAlpha" result="hardAlpha" values="0 0 0 0 0 0 0 0 0 0 0 0 0 0 0 0 0 0 127 0"/><feMorphology in="SourceAlpha" radius="1.064" result="effect1_dropShadow_546_574"/><feOffset dy="2.128"/><feGaussianBlur stdDeviation="1.596"/><feColorMatrix values="0 0 0 0 0 0 0 0 0 0 0 0 0 0 0 0 0 0 0.05 0"/><feBlend in2="BackgroundImageFix" result="effect1_dropShadow_546_574"/><feColorMatrix in="SourceAlpha" result="hardAlpha" values="0 0 0 0 0 0 0 0 0 0 0 0 0 0 0 0 0 0 127 0"/><feMorphology in="SourceAlpha" radius="1.596" result="effect2_dropShadow_546_574"/><feOffset dy="5.319"/><feGaussianBlur stdDeviation="3.99"/><feColorMatrix values="0 0 0 0 0 0 0 0 0 0 0 0 0 0 0 0 0 0 0.1 0"/><feBlend in2="effect1_dropShadow_546_574" result="effect2_dropShadow_546_574"/><feBlend in="SourceGraphic" in2="effect2_dropShadow_546_574" result="shape"/></filter><filter id="g" width="103.332" height="73.388" x="279.849" y="340.884" color-interpolation-filters="sRGB" filterUnits="userSpaceOnUse"><feFlood flood-opacity="0" result="BackgroundImageFix"/><feColorMatrix in="SourceAlpha" result="hardAlpha" values="0 0 0 0 0 0 0 0 0 0 0 0 0 0 0 0 0 0 127 0"/><feMorphology in="SourceAlpha" radius="1.064" result="effect1_dropShadow_546_574"/><feOffset dy="2.128"/><feGaussianBlur stdDeviation="1.596"/><feColorMatrix values="0 0 0 0 0 0 0 0 0 0 0 0 0 0 0 0 0 0 0.05 0"/><feBlend in2="BackgroundImageFix" result="effect1_dropShadow_546_574"/><feColorMatrix in="SourceAlpha" result="hardAlpha" values="0 0 0 0 0 0 0 0 0 0 0 0 0 0 0 0 0 0 127 0"/><feMorphology in="SourceAlpha" radius="1.596" result="effect2_dropShadow_546_574"/><feOffset dy="5.319"/><feGaussianBlur stdDeviation="3.99"/><feColorMatrix values="0 0 0 0 0 0 0 0 0 0 0 0 0 0 0 0 0 0 0.1 0"/><feBlend in2="effect1_dropShadow_546_574" result="effect2_dropShadow_546_574"/><feBlend in="SourceGraphic" in2="effect2_dropShadow_546_574" result="shape"/></filter><clipPath id="b"><rect width="119.688" height="113.703" x="293.747" y="15.713" fill="#fff" rx="4.256"/></clipPath><clipPath id="d"><rect width="119.688" height="113.703" x="293.747" y="150.694" fill="#fff" rx="4.256"/></clipPath><clipPath id="f"><rect width="119.688" height="113.703" x="293.747" y="285.675" fill="#fff" rx="4.256"/></clipPath></defs></svg>