<svg xmlns="http://www.w3.org/2000/svg" width="249" height="671" fill="none" viewBox="0 0 249 671"><g filter="url(#a)"><rect width="183" height="369" x="51" fill="#3F3F46" rx="36"/><rect width="167" height="353" x="59" y="8" fill="#27272A" rx="29"/></g><g clip-path="url(#b)"><rect width="119.688" height="113.703" x="82.747" y="15.713" fill="#022C22" rx="4.256"/><path fill="#6EE7B7" d="M165.691 80.816a3.192 3.192 0 0 1 4.866 0l39.171 46.135c1.761 2.074.287 5.258-2.433 5.258h-78.342c-2.719 0-4.193-3.184-2.433-5.258l39.171-46.135Z"/><g filter="url(#c)"><path fill="#A7F3D0" d="M117.994 73.221a3.191 3.191 0 0 1 5.043 0l42.085 54.239c1.627 2.097.133 5.148-2.521 5.148h-84.17c-2.655 0-4.15-3.051-2.522-5.148l42.085-54.239Z"/></g><circle cx="181.157" cy="36.193" r="9.309" fill="#6EE7B7"/></g><rect width="118.688" height="112.703" x="83.247" y="16.213" stroke="#047857" rx="3.756"/><g clip-path="url(#d)"><rect width="119.688" height="113.703" x="82.747" y="150.694" fill="#271646" rx="4.256"/><path fill="#C4B5FD" d="M165.691 215.797a3.192 3.192 0 0 1 4.866 0l39.171 46.135c1.761 2.074.287 5.258-2.433 5.258h-78.342c-2.719 0-4.193-3.184-2.433-5.258l39.171-46.135Z"/><g filter="url(#e)"><path fill="#DDD6FE" d="M117.994 208.202a3.191 3.191 0 0 1 5.043 0l42.085 54.238c1.627 2.097.133 5.149-2.521 5.149h-84.17c-2.655 0-4.15-3.052-2.522-5.149l42.085-54.238Z"/></g><circle cx="181.157" cy="171.174" r="9.309" fill="#C4B5FD"/></g><rect width="118.688" height="112.703" x="83.247" y="151.194" stroke="#6D28D9" rx="3.756"/><g clip-path="url(#f)"><rect width="119.688" height="113.703" x="82.747" y="285.675" fill="#083344" rx="4.256"/><path fill="#67E8F9" d="M165.691 350.778a3.192 3.192 0 0 1 4.866 0l39.171 46.135c1.761 2.074.287 5.258-2.433 5.258h-78.342c-2.719 0-4.193-3.184-2.433-5.258l39.171-46.135Z"/><g filter="url(#g)"><path fill="#A5F3FC" d="M117.994 343.183a3.191 3.191 0 0 1 5.043 0l42.085 54.238c1.627 2.097.133 5.149-2.521 5.149h-84.17c-2.655 0-4.15-3.052-2.522-5.149l42.085-54.238Z"/></g><circle cx="181.157" cy="306.155" r="9.309" fill="#67E8F9"/></g><rect width="118.688" height="112.703" x="83.247" y="286.175" stroke="#0E7490" rx="3.756"/><path stroke="#F4F4F5" stroke-linecap="round" stroke-width="2.128" d="M16.383 16H3.617"/><path fill="#F4F4F5" d="M11.064 16a1.064 1.064 0 1 0-2.128 0h2.128Zm-2.128 0v130.053h2.128V16H8.936Zm7.67 139.789-9.453 3.231v.13l9.453 3.23v1.893L5 160.096v-2.023l11.606-4.176v1.892ZM5 165.813h8.704v1.694H5v-1.694Zm10.048.856c0-.295.098-.548.294-.76a.96.96 0 0 1 .714-.311c.28 0 .518.104.714.311.2.212.3.465.3.76 0 .294-.1.546-.3.753a.938.938 0 0 1-.714.318.95.95 0 0 1-.714-.318 1.056 1.056 0 0 1-.294-.753Zm-10.224 6.87c0-.858.184-1.597.55-2.216.37-.616.89-1.092 1.558-1.428.673-.333 1.46-.499 2.364-.499.891 0 1.677.166 2.357.499a3.87 3.87 0 0 1 1.592 1.405c.382.605.573 1.311.573 2.12 0 .491-.081.967-.244 1.428a3.463 3.463 0 0 1-.765 1.241c-.347.366-.799.655-1.354.867-.552.211-1.222.317-2.012.317h-.6v-6.919h1.269v5.259c.445 0 .84-.091 1.184-.272.348-.182.622-.437.822-.765.2-.325.3-.707.3-1.145 0-.476-.117-.892-.351-1.247a2.364 2.364 0 0 0-.907-.816 2.616 2.616 0 0 0-1.207-.283h-.992c-.582 0-1.076.102-1.485.306-.408.208-.72.497-.935.867-.211.37-.317.803-.317 1.298 0 .321.045.614.136.878.095.264.234.493.42.686.185.192.413.34.685.442l-.289 1.603a2.893 2.893 0 0 1-1.24-.691 3.35 3.35 0 0 1-.823-1.241c-.192-.495-.289-1.06-.289-1.694ZM5 181.025l8.704-2.562v1.751l-6.392 1.706v.085l6.392 1.712v1.751l-6.364 1.7v.085l6.364 1.694v1.751L5 188.143v-1.729l6.285-1.768v-.13L5 182.748v-1.723Zm-3.264 11.281h11.968v1.655h-1.41v.142c.18.098.39.24.628.425.239.185.446.442.624.771.181.328.272.763.272 1.303 0 .703-.178 1.33-.533 1.881-.355.552-.867.985-1.536 1.298-.668.318-1.473.476-2.414.476-.94 0-1.747-.157-2.42-.47-.668-.314-1.184-.744-1.547-1.292-.359-.548-.538-1.173-.538-1.876 0-.529.089-.962.266-1.298a2.47 2.47 0 0 1 .624-.782c.238-.189.45-.334.634-.436v-.102H1.736v-1.695Zm7.616 1.661c-.612 0-1.148.089-1.61.266-.46.178-.82.435-1.082.771-.256.336-.385.748-.385 1.235 0 .507.134.93.402 1.27.272.34.64.597 1.106.77.464.178.987.267 1.57.267.574 0 1.09-.087 1.546-.261.458-.17.818-.427 1.083-.771.264-.34.397-.765.397-1.275 0-.491-.127-.906-.38-1.246-.253-.337-.607-.592-1.06-.766-.453-.173-.982-.26-1.587-.26Zm-4.528 11.855c0-.816.187-1.528.561-2.136a3.777 3.777 0 0 1 1.57-1.417c.673-.336 1.458-.504 2.358-.504.902 0 1.692.168 2.368.504a3.77 3.77 0 0 1 1.576 1.417c.374.608.56 1.32.56 2.136 0 .816-.186 1.528-.56 2.137-.374.608-.9 1.08-1.576 1.416-.676.337-1.465.505-2.368.505-.9 0-1.685-.168-2.358-.505a3.782 3.782 0 0 1-1.57-1.416c-.374-.609-.56-1.321-.56-2.137Zm1.423.006c0 .529.14.967.42 1.315.279.347.65.604 1.116.77.464.17.976.255 1.535.255.556 0 1.066-.085 1.53-.255a2.494 2.494 0 0 0 1.128-.77c.283-.348.425-.786.425-1.315 0-.533-.142-.975-.425-1.326a2.53 2.53 0 0 0-1.128-.777 4.52 4.52 0 0 0-1.53-.249c-.559 0-1.07.083-1.535.249-.465.17-.837.429-1.117.777-.28.351-.42.793-.42 1.326ZM5 211.771h8.704v1.638h-1.382v.091c.468.158.837.438 1.105.838.272.405.408.862.408 1.372a7.309 7.309 0 0 1-.04.719h-1.62c.018-.068.04-.188.062-.362.026-.174.04-.348.04-.522 0-.4-.086-.757-.256-1.071a1.895 1.895 0 0 0-1.705-1.008H5v-1.695Zm8.704 10.702h-1.36v-4.754h1.36v4.754Zm2.086-3.479v1.694H7.556c-.329 0-.576.049-.743.148a.766.766 0 0 0-.334.379 1.526 1.526 0 0 0-.085.516c0 .136.01.255.028.357l.046.238-1.4.306a2.846 2.846 0 0 1-.113-.419 3.323 3.323 0 0 1-.068-.68 2.983 2.983 0 0 1 .238-1.247 2.14 2.14 0 0 1 .77-.935c.348-.238.784-.357 1.31-.357h8.585Z"/><path stroke="#F4F4F5" stroke-linecap="round" stroke-width="2.128" d="M3.617 361h12.766"/><path fill="#F4F4F5" d="M8.936 361a1.064 1.064 0 1 0 2.128 0H8.936Zm2.128 0V230.947H8.936V361h2.128Z"/><path stroke="#F4F4F5" stroke-linecap="round" stroke-width="2.128" d="M16.383 423H3.617"/><path fill="#F4F4F5" d="M11.064 423a1.064 1.064 0 1 0-2.128 0h2.128Zm-2.128 0v67.553h2.128V423H8.936ZM5 499.275h11.606v1.751H6.507v5.259H5v-7.01Zm-.193 11.405c0-.552.102-1.05.306-1.496.208-.446.508-.799.901-1.06.393-.257.875-.385 1.445-.385.492 0 .896.094 1.213.283.318.189.569.444.754.765.185.321.325.68.42 1.077.094.397.165.801.215 1.213l.147 1.269c.042.325.108.561.198.708.091.148.238.221.442.221h.04c.495 0 .878-.139 1.15-.419.272-.276.409-.687.409-1.235 0-.571-.127-1.02-.38-1.349-.25-.325-.527-.55-.833-.674l.362-1.593c.53.189.956.465 1.281.828.329.366.567.787.714 1.263.151.476.227.977.227 1.502 0 .348-.042.716-.125 1.105-.08.393-.226.759-.442 1.099a2.445 2.445 0 0 1-.923.845c-.397.219-.913.329-1.548.329H5v-1.655h1.19v-.068a2.423 2.423 0 0 1-.646-.493 2.62 2.62 0 0 1-.527-.845c-.14-.343-.21-.755-.21-1.235Zm1.36.368c0 .469.093.869.278 1.202.185.336.427.591.725.765.303.177.626.266.97.266h1.122c-.06-.06-.118-.177-.17-.351a5.478 5.478 0 0 1-.13-.584 71.53 71.53 0 0 1-.097-.64l-.068-.522a4.21 4.21 0 0 0-.21-.901 1.552 1.552 0 0 0-.425-.646c-.181-.158-.423-.238-.725-.238-.42 0-.737.155-.952.465-.212.31-.318.705-.318 1.184ZM5 517.051h1.162l5.99 4.715h.08v-4.562h1.473v6.676h-1.236l-5.916-4.534h-.08v4.693H5v-6.988Zm-3.264 10.058c0-.253.02-.484.062-.692.038-.208.08-.362.125-.464l1.388.408a2.73 2.73 0 0 0-.107.827.99.99 0 0 0 .272.64c.17.189.447.356.833.499l.578.21 8.818-3.185v1.813l-6.756 2.205v.09l6.755 2.205v1.819l-9.866-3.587a3.93 3.93 0 0 1-1.15-.635 2.466 2.466 0 0 1-.714-.918c-.159-.355-.238-.767-.238-1.235Zm8.903 13.096H9.17v-5.146h1.468v5.146Zm5.967 3.953H5v-1.695h11.606v1.695Zm-11.782 5.946c0-.816.187-1.528.561-2.136a3.777 3.777 0 0 1 1.57-1.417c.673-.336 1.458-.505 2.358-.505.902 0 1.692.169 2.368.505a3.77 3.77 0 0 1 1.576 1.417c.374.608.56 1.32.56 2.136 0 .816-.186 1.528-.56 2.136a3.77 3.77 0 0 1-1.576 1.417c-.676.336-1.465.505-2.368.505-.9 0-1.685-.169-2.358-.505a3.777 3.777 0 0 1-1.57-1.417c-.374-.608-.56-1.32-.56-2.136Zm1.423.006c0 .529.14.967.42 1.314.279.348.65.605 1.116.771.464.17.976.255 1.535.255.556 0 1.066-.085 1.53-.255a2.488 2.488 0 0 0 1.128-.771c.283-.347.425-.785.425-1.314 0-.533-.142-.975-.425-1.326a2.53 2.53 0 0 0-1.128-.777 4.52 4.52 0 0 0-1.53-.249c-.559 0-1.07.083-1.535.249-.465.17-.837.429-1.117.777-.28.351-.42.793-.42 1.326Zm-1.44 8.476c0-.551.102-1.05.306-1.496.208-.446.508-.799.901-1.06.393-.257.875-.385 1.445-.385.492 0 .896.094 1.213.283.318.189.569.444.754.765.185.321.325.68.42 1.077.094.397.165.801.215 1.213l.147 1.269c.041.325.108.561.198.709.091.147.238.221.442.221h.04c.495 0 .878-.14 1.15-.42.272-.276.409-.687.409-1.235 0-.571-.127-1.02-.38-1.349-.25-.325-.527-.55-.833-.674l.362-1.593c.53.189.956.465 1.281.828.329.366.567.787.714 1.263.151.476.227.977.227 1.502 0 .348-.042.716-.125 1.105-.08.393-.226.76-.442 1.1a2.45 2.45 0 0 1-.923.844c-.397.219-.913.329-1.548.329H5v-1.655h1.19v-.068a2.423 2.423 0 0 1-.646-.493 2.625 2.625 0 0 1-.527-.844c-.14-.344-.21-.756-.21-1.236Zm1.36.368c0 .469.093.869.278 1.202.185.336.427.591.725.765.303.178.626.266.97.266h1.122c-.06-.06-.118-.177-.17-.351a5.476 5.476 0 0 1-.13-.584 66.15 66.15 0 0 1-.097-.64l-.068-.521a4.205 4.205 0 0 0-.21-.902 1.552 1.552 0 0 0-.425-.646c-.181-.158-.423-.238-.725-.238-.42 0-.737.155-.952.465-.212.31-.318.705-.318 1.184Zm-1.337 9.443c0-.703.18-1.33.538-1.881.363-.548.879-.979 1.547-1.292.673-.31 1.48-.465 2.42-.465.941 0 1.746.157 2.414.47.67.318 1.181.752 1.536 1.304a3.39 3.39 0 0 1 .533 1.876c0 .54-.09.974-.272 1.303a2.338 2.338 0 0 1-.623.771 5.26 5.26 0 0 1-.63.43v.102h4.313v1.695H5v-1.655h1.354v-.142a4.455 4.455 0 0 1-.634-.442 2.45 2.45 0 0 1-.624-.782c-.177-.332-.266-.763-.266-1.292Zm1.445.374c0 .488.129.899.385 1.236.261.34.622.597 1.083.77.46.178.997.267 1.61.267.604 0 1.133-.087 1.586-.261.453-.174.807-.429 1.06-.765s.38-.752.38-1.247c0-.51-.133-.935-.397-1.275-.265-.34-.625-.597-1.083-.771a4.415 4.415 0 0 0-1.547-.255c-.582 0-1.105.087-1.57.261-.464.174-.833.431-1.105.771-.268.344-.402.767-.402 1.269Zm-1.45 10.109c0-.858.183-1.596.549-2.216.37-.616.89-1.092 1.558-1.428.673-.333 1.46-.499 2.364-.499.891 0 1.677.166 2.357.499.68.336 1.21.805 1.592 1.405.382.605.573 1.311.573 2.12 0 .491-.081.967-.244 1.428a3.464 3.464 0 0 1-.765 1.241c-.347.366-.799.655-1.354.867-.552.212-1.223.317-2.012.317h-.6v-6.919h1.269v5.259c.445 0 .84-.091 1.184-.272.348-.181.622-.436.822-.765.2-.325.3-.707.3-1.145 0-.476-.117-.892-.351-1.247a2.364 2.364 0 0 0-.907-.816 2.616 2.616 0 0 0-1.207-.283h-.992c-.582 0-1.076.102-1.485.306-.408.208-.72.497-.935.867-.211.37-.317.803-.317 1.298 0 .321.045.614.136.878a1.818 1.818 0 0 0 1.105 1.128l-.289 1.604a2.906 2.906 0 0 1-1.24-.692 3.342 3.342 0 0 1-.823-1.241c-.192-.495-.289-1.06-.289-1.694Zm.005 8.873c0-.703.18-1.33.538-1.882.363-.547.879-.978 1.547-1.292.673-.309 1.48-.464 2.42-.464.941 0 1.746.156 2.414.47.67.317 1.181.752 1.536 1.303.355.552.533 1.177.533 1.876 0 .54-.09.975-.272 1.304-.178.332-.385.589-.623.77a5.283 5.283 0 0 1-.63.431v.102h4.313v1.695L5 592.065v-1.654h1.354v-.142a4.456 4.456 0 0 1-.634-.442 2.462 2.462 0 0 1-.624-.782c-.177-.332-.266-.763-.266-1.292Zm1.445.374c0 .487.129.899.385 1.235.261.34.622.597 1.083.771.46.178.997.266 1.61.266.604 0 1.133-.086 1.586-.26.453-.174.807-.429 1.06-.765.253-.337.38-.752.38-1.247 0-.51-.133-.935-.397-1.275-.265-.34-.625-.597-1.083-.771a4.415 4.415 0 0 0-1.547-.255c-.582 0-1.105.087-1.57.261-.464.174-.833.43-1.105.771-.268.343-.402.766-.402 1.269Z"/><path stroke="#F4F4F5" stroke-linecap="round" stroke-width="2.128" d="M3.617 669h12.766"/><path fill="#F4F4F5" d="M8.936 669a1.064 1.064 0 1 0 2.128 0H8.936Zm2.128 0v-67.553H8.936V669h2.128Z"/><rect width="119.688" height="113.703" x="83" y="420.378" fill="#27272A" rx="4.256"/><rect width="119.688" height="113.703" x="82" y="555" fill="#27272A" rx="4.256"/><defs><filter id="a" width="183" height="371" x="51" y="-2" color-interpolation-filters="sRGB" filterUnits="userSpaceOnUse"><feFlood flood-opacity="0" result="BackgroundImageFix"/><feBlend in="SourceGraphic" in2="BackgroundImageFix" result="shape"/><feColorMatrix in="SourceAlpha" result="hardAlpha" values="0 0 0 0 0 0 0 0 0 0 0 0 0 0 0 0 0 0 127 0"/><feOffset dy="-2"/><feGaussianBlur stdDeviation="3"/><feComposite in2="hardAlpha" k2="-1" k3="1" operator="arithmetic"/><feColorMatrix values="0 0 0 0 1 0 0 0 0 1 0 0 0 0 1 0 0 0 0.35 0"/><feBlend in2="shape" result="effect1_innerShadow_546_574"/></filter><filter id="c" width="103.332" height="73.388" x="68.849" y="70.922" color-interpolation-filters="sRGB" filterUnits="userSpaceOnUse"><feFlood flood-opacity="0" result="BackgroundImageFix"/><feColorMatrix in="SourceAlpha" result="hardAlpha" values="0 0 0 0 0 0 0 0 0 0 0 0 0 0 0 0 0 0 127 0"/><feMorphology in="SourceAlpha" radius="1.064" result="effect1_dropShadow_546_574"/><feOffset dy="2.128"/><feGaussianBlur stdDeviation="1.596"/><feColorMatrix values="0 0 0 0 0 0 0 0 0 0 0 0 0 0 0 0 0 0 0.05 0"/><feBlend in2="BackgroundImageFix" result="effect1_dropShadow_546_574"/><feColorMatrix in="SourceAlpha" result="hardAlpha" values="0 0 0 0 0 0 0 0 0 0 0 0 0 0 0 0 0 0 127 0"/><feMorphology in="SourceAlpha" radius="1.596" result="effect2_dropShadow_546_574"/><feOffset dy="5.319"/><feGaussianBlur stdDeviation="3.99"/><feColorMatrix values="0 0 0 0 0 0 0 0 0 0 0 0 0 0 0 0 0 0 0.1 0"/><feBlend in2="effect1_dropShadow_546_574" result="effect2_dropShadow_546_574"/><feBlend in="SourceGraphic" in2="effect2_dropShadow_546_574" result="shape"/></filter><filter id="e" width="103.332" height="73.388" x="68.849" y="205.903" color-interpolation-filters="sRGB" filterUnits="userSpaceOnUse"><feFlood flood-opacity="0" result="BackgroundImageFix"/><feColorMatrix in="SourceAlpha" result="hardAlpha" values="0 0 0 0 0 0 0 0 0 0 0 0 0 0 0 0 0 0 127 0"/><feMorphology in="SourceAlpha" radius="1.064" result="effect1_dropShadow_546_574"/><feOffset dy="2.128"/><feGaussianBlur stdDeviation="1.596"/><feColorMatrix values="0 0 0 0 0 0 0 0 0 0 0 0 0 0 0 0 0 0 0.05 0"/><feBlend in2="BackgroundImageFix" result="effect1_dropShadow_546_574"/><feColorMatrix in="SourceAlpha" result="hardAlpha" values="0 0 0 0 0 0 0 0 0 0 0 0 0 0 0 0 0 0 127 0"/><feMorphology in="SourceAlpha" radius="1.596" result="effect2_dropShadow_546_574"/><feOffset dy="5.319"/><feGaussianBlur stdDeviation="3.99"/><feColorMatrix values="0 0 0 0 0 0 0 0 0 0 0 0 0 0 0 0 0 0 0.1 0"/><feBlend in2="effect1_dropShadow_546_574" result="effect2_dropShadow_546_574"/><feBlend in="SourceGraphic" in2="effect2_dropShadow_546_574" result="shape"/></filter><filter id="g" width="103.332" height="73.388" x="68.849" y="340.884" color-interpolation-filters="sRGB" filterUnits="userSpaceOnUse"><feFlood flood-opacity="0" result="BackgroundImageFix"/><feColorMatrix in="SourceAlpha" result="hardAlpha" values="0 0 0 0 0 0 0 0 0 0 0 0 0 0 0 0 0 0 127 0"/><feMorphology in="SourceAlpha" radius="1.064" result="effect1_dropShadow_546_574"/><feOffset dy="2.128"/><feGaussianBlur stdDeviation="1.596"/><feColorMatrix values="0 0 0 0 0 0 0 0 0 0 0 0 0 0 0 0 0 0 0.05 0"/><feBlend in2="BackgroundImageFix" result="effect1_dropShadow_546_574"/><feColorMatrix in="SourceAlpha" result="hardAlpha" values="0 0 0 0 0 0 0 0 0 0 0 0 0 0 0 0 0 0 127 0"/><feMorphology in="SourceAlpha" radius="1.596" result="effect2_dropShadow_546_574"/><feOffset dy="5.319"/><feGaussianBlur stdDeviation="3.99"/><feColorMatrix values="0 0 0 0 0 0 0 0 0 0 0 0 0 0 0 0 0 0 0.1 0"/><feBlend in2="effect1_dropShadow_546_574" result="effect2_dropShadow_546_574"/><feBlend in="SourceGraphic" in2="effect2_dropShadow_546_574" result="shape"/></filter><clipPath id="b"><rect width="119.688" height="113.703" x="82.747" y="15.713" fill="#fff" rx="4.256"/></clipPath><clipPath id="d"><rect width="119.688" height="113.703" x="82.747" y="150.694" fill="#fff" rx="4.256"/></clipPath><clipPath id="f"><rect width="119.688" height="113.703" x="82.747" y="285.675" fill="#fff" rx="4.256"/></clipPath></defs></svg>