<svg width="249" height="671" viewBox="0 0 249 671" fill="none" xmlns="http://www.w3.org/2000/svg">
<g filter="url(#filter0_i_546_574)">
<rect x="51" width="183" height="369" rx="36" fill="#3F3F46"/>
<rect x="59" y="8" width="167" height="353" rx="29" fill="#27272A"/>
</g>
<g clip-path="url(#clip0_546_574)">
<rect x="82.7473" y="15.713" width="119.688" height="113.703" rx="4.25556" fill="#022C22"/>
<path d="M165.691 80.8161C166.966 79.3148 169.283 79.3148 170.557 80.816L209.728 126.951C211.489 129.025 210.015 132.209 207.295 132.209H128.953C126.234 132.209 124.76 129.025 126.52 126.951L165.691 80.8161Z" fill="#6EE7B7"/>
<g filter="url(#filter1_dd_546_574)">
<path d="M117.994 73.2211C119.272 71.5743 121.759 71.5743 123.037 73.2211L165.122 127.46C166.749 129.557 165.255 132.608 162.601 132.608H78.4302C75.776 132.608 74.2815 129.557 75.9086 127.46L117.994 73.2211Z" fill="#A7F3D0"/>
</g>
<circle cx="181.157" cy="36.1928" r="9.30903" fill="#6EE7B7"/>
</g>
<rect x="83.2473" y="16.213" width="118.688" height="112.703" rx="3.75556" stroke="#047857"/>
<g clip-path="url(#clip1_546_574)">
<rect x="82.7473" y="150.694" width="119.688" height="113.703" rx="4.25556" fill="#2E1065"/>
<path d="M165.691 215.797C166.966 214.296 169.283 214.296 170.557 215.797L209.728 261.932C211.489 264.006 210.015 267.19 207.295 267.19H128.953C126.234 267.19 124.76 264.006 126.52 261.932L165.691 215.797Z" fill="#C4B5FD"/>
<g filter="url(#filter2_dd_546_574)">
<path d="M117.994 208.202C119.272 206.555 121.759 206.555 123.037 208.202L165.122 262.44C166.749 264.537 165.255 267.589 162.601 267.589H78.4302C75.776 267.589 74.2815 264.537 75.9086 262.44L117.994 208.202Z" fill="#DDD6FE"/>
</g>
<circle cx="181.157" cy="171.174" r="9.30903" fill="#C4B5FD"/>
</g>
<rect x="83.2473" y="151.194" width="118.688" height="112.703" rx="3.75556" stroke="#6D28D9"/>
<g clip-path="url(#clip2_546_574)">
<rect x="82.7473" y="285.675" width="119.688" height="113.703" rx="4.25556" fill="#083344"/>
<path d="M165.691 350.778C166.966 349.277 169.283 349.277 170.557 350.778L209.728 396.913C211.489 398.987 210.015 402.171 207.295 402.171H128.953C126.234 402.171 124.76 398.987 126.52 396.913L165.691 350.778Z" fill="#67E8F9"/>
<g filter="url(#filter3_dd_546_574)">
<path d="M117.994 343.183C119.272 341.536 121.759 341.536 123.037 343.183L165.122 397.421C166.749 399.518 165.255 402.57 162.601 402.57H78.4302C75.776 402.57 74.2815 399.518 75.9086 397.421L117.994 343.183Z" fill="#A5F3FC"/>
</g>
<circle cx="181.157" cy="306.155" r="9.30903" fill="#67E8F9"/>
</g>
<rect x="83.2473" y="286.175" width="118.688" height="112.703" rx="3.75556" stroke="#0E7490"/>
<path d="M16.3833 16L3.61663 16" stroke="#F4F4F5" stroke-width="2.12778" stroke-linecap="round"/>
<path d="M11.0639 16C11.0639 15.4124 10.5876 14.9361 10 14.9361C9.41243 14.9361 8.93611 15.4124 8.93611 16L11.0639 16ZM8.93611 16L8.93611 146.053L11.0639 146.053L11.0639 16L8.93611 16Z" fill="#F4F4F5"/>
<path d="M16.6061 155.789L7.15347 159.02L7.15347 159.15L16.6061 162.38L16.6061 164.273L5 160.096L5 158.073L16.6061 153.897L16.6061 155.789ZM5 165.813L13.7045 165.813L13.7045 167.507L5 167.507L5 165.813ZM15.0476 166.669C15.0476 166.374 15.1459 166.121 15.3423 165.909C15.5426 165.702 15.7806 165.598 16.0564 165.598C16.3359 165.598 16.5739 165.702 16.7704 165.909C16.9706 166.121 17.0708 166.374 17.0708 166.669C17.0708 166.963 16.9706 167.215 16.7704 167.422C16.5739 167.634 16.3359 167.74 16.0564 167.74C15.7806 167.74 15.5426 167.634 15.3423 167.422C15.1459 167.215 15.0476 166.963 15.0476 166.669ZM4.82432 173.539C4.82432 172.681 5.00756 171.942 5.37402 171.323C5.74427 170.707 6.26375 170.231 6.93245 169.895C7.60494 169.562 8.39266 169.396 9.2956 169.396C10.1872 169.396 10.973 169.562 11.6531 169.895C12.3331 170.231 12.8639 170.699 13.2455 171.3C13.6271 171.905 13.8179 172.611 13.8179 173.42C13.8179 173.911 13.7367 174.387 13.5742 174.848C13.4118 175.309 13.1567 175.722 12.8092 176.089C12.4616 176.455 12.0101 176.744 11.4547 176.956C10.9031 177.167 10.2326 177.273 9.44295 177.273L8.84224 177.273L8.84224 170.354L10.1117 170.354L10.1117 175.613C10.5575 175.613 10.9523 175.522 11.2961 175.341C11.6436 175.159 11.9175 174.904 12.1178 174.576C12.318 174.251 12.4181 173.869 12.4181 173.431C12.4181 172.955 12.301 172.539 12.0668 172.184C11.8363 171.833 11.5341 171.561 11.1601 171.368C10.7898 171.179 10.3874 171.085 9.95298 171.085L8.96125 171.085C8.37943 171.085 7.88451 171.187 7.47649 171.391C7.06846 171.599 6.75678 171.888 6.54143 172.258C6.32986 172.628 6.22408 173.061 6.22408 173.556C6.22408 173.877 6.26941 174.17 6.36008 174.434C6.45454 174.698 6.59432 174.927 6.77944 175.12C6.96457 175.312 7.19314 175.46 7.46515 175.562L7.17614 177.165C6.70388 177.037 6.29019 176.807 5.93506 176.474C5.5837 176.145 5.3098 175.732 5.11334 175.233C4.92066 174.738 4.82432 174.173 4.82432 173.539ZM5 181.025L13.7045 178.463L13.7045 180.214L7.31214 181.92L7.31214 182.005L13.7045 183.717L13.7045 185.468L7.34048 187.168L7.34048 187.253L13.7045 188.947L13.7045 190.698L5 188.143L5 186.414L11.2847 184.646L11.2847 184.516L5 182.748L5 181.025ZM1.73579 192.306L13.7045 192.306L13.7045 193.961L12.2935 193.961L12.2935 194.103C12.4748 194.201 12.6845 194.343 12.9225 194.528C13.1605 194.713 13.3683 194.97 13.5459 195.299C13.7272 195.627 13.8179 196.062 13.8179 196.602C13.8179 197.305 13.6403 197.932 13.2852 198.483C12.9301 199.035 12.4181 199.468 11.7494 199.781C11.0807 200.099 10.276 200.257 9.33527 200.257C8.39454 200.257 7.58794 200.1 6.91545 199.787C6.24674 199.473 5.73104 199.043 5.36835 198.495C5.00944 197.947 4.82999 197.322 4.82999 196.619C4.82999 196.09 4.91877 195.657 5.09634 195.321C5.2739 194.989 5.4817 194.728 5.71971 194.539C5.95773 194.35 6.16929 194.205 6.35442 194.103L6.35442 194.001L1.73579 194.001L1.73579 192.306ZM9.35227 193.967C8.74023 193.967 8.20376 194.056 7.74284 194.233C7.28192 194.411 6.92112 194.668 6.66044 195.004C6.40353 195.34 6.27508 195.752 6.27508 196.239C6.27508 196.746 6.4092 197.169 6.67744 197.509C6.94945 197.849 7.31781 198.106 7.78251 198.279C8.2472 198.457 8.77046 198.546 9.35227 198.546C9.92653 198.546 10.4422 198.459 10.8994 198.285C11.3565 198.115 11.7173 197.858 11.9818 197.514C12.2462 197.174 12.3785 196.749 12.3785 196.239C12.3785 195.748 12.2519 195.333 11.9988 194.993C11.7456 194.656 11.3924 194.401 10.939 194.227C10.4857 194.054 9.95675 193.967 9.35227 193.967ZM4.82432 205.822C4.82432 205.006 5.01133 204.294 5.38536 203.686C5.75938 203.077 6.28263 202.605 6.95512 202.269C7.62761 201.933 8.41343 201.765 9.3126 201.765C10.2155 201.765 11.0052 201.933 11.6814 202.269C12.3577 202.605 12.8828 203.077 13.2569 203.686C13.6309 204.294 13.8179 205.006 13.8179 205.822C13.8179 206.638 13.6309 207.35 13.2569 207.959C12.8828 208.567 12.3577 209.039 11.6814 209.375C11.0052 209.712 10.2155 209.88 9.3126 209.88C8.41343 209.88 7.62761 209.712 6.95512 209.375C6.28263 209.039 5.75938 208.567 5.38536 207.959C5.01133 207.35 4.82432 206.638 4.82432 205.822ZM6.24674 205.828C6.24674 206.357 6.38653 206.795 6.6661 207.143C6.94568 207.49 7.31781 207.747 7.78251 207.913C8.2472 208.083 8.75912 208.168 9.31827 208.168C9.87364 208.168 10.3837 208.083 10.8484 207.913C11.3168 207.747 11.6928 207.49 11.9761 207.143C12.2595 206.795 12.4011 206.357 12.4011 205.828C12.4011 205.295 12.2595 204.853 11.9761 204.502C11.6928 204.154 11.3168 203.895 10.8484 203.725C10.3837 203.559 9.87364 203.476 9.31827 203.476C8.75912 203.476 8.2472 203.559 7.78251 203.725C7.31781 203.895 6.94568 204.154 6.6661 204.502C6.38653 204.853 6.24674 205.295 6.24674 205.828ZM5 211.771L13.7045 211.771L13.7045 213.409L12.3218 213.409L12.3218 213.5C12.7903 213.658 13.1586 213.938 13.4269 214.338C13.6989 214.743 13.8349 215.2 13.8349 215.71C13.8349 215.816 13.8311 215.94 13.8236 216.084C13.816 216.231 13.8066 216.346 13.7952 216.429L12.1744 216.429C12.1933 216.361 12.2141 216.241 12.2368 216.067C12.2632 215.893 12.2765 215.719 12.2765 215.545C12.2765 215.145 12.1914 214.788 12.0214 214.474C11.8552 214.165 11.6229 213.919 11.3244 213.738C11.0297 213.556 10.6935 213.466 10.3157 213.466L5 213.466L5 211.771ZM13.7045 222.473L12.3445 222.473L12.3445 217.719L13.7045 217.719L13.7045 222.473ZM15.79 218.994L15.79 220.688L7.55582 220.688C7.22714 220.688 6.97968 220.737 6.81344 220.836C6.65099 220.934 6.53954 221.06 6.47909 221.215C6.42242 221.374 6.39408 221.546 6.39408 221.731C6.39408 221.867 6.40353 221.986 6.42242 222.088C6.44131 222.19 6.45642 222.269 6.46776 222.326L5.068 222.632C5.03022 222.534 4.99244 222.394 4.95466 222.213C4.9131 222.031 4.89043 221.805 4.88666 221.533C4.8791 221.087 4.95844 220.671 5.12467 220.286C5.2909 219.901 5.54781 219.589 5.89539 219.351C6.24296 219.113 6.67933 218.994 7.20447 218.994L15.79 218.994Z" fill="#F4F4F5"/>
<path d="M3.6167 361L16.3834 361" stroke="#F4F4F5" stroke-width="2.12778" stroke-linecap="round"/>
<path d="M8.93611 361C8.93611 361.588 9.41243 362.064 10 362.064C10.5876 362.064 11.0639 361.588 11.0639 361L8.93611 361ZM11.0639 361L11.0639 230.947L8.93611 230.947L8.93611 361L11.0639 361Z" fill="#F4F4F5"/>
<path d="M16.3833 423L3.61663 423" stroke="#F4F4F5" stroke-width="2.12778" stroke-linecap="round"/>
<path d="M11.0639 423C11.0639 422.412 10.5876 421.936 10 421.936C9.41243 421.936 8.93611 422.412 8.93611 423L11.0639 423ZM8.93611 423L8.93611 490.553L11.0639 490.553L11.0639 423L8.93611 423Z" fill="#F4F4F5"/>
<path d="M5 499.275L16.6061 499.275L16.6061 501.026L6.50743 501.026L6.50743 506.285L5 506.285L5 499.275ZM4.80732 510.68C4.80732 510.128 4.90933 509.63 5.11334 509.184C5.32113 508.738 5.62148 508.385 6.0144 508.124C6.40731 507.867 6.88901 507.739 7.45949 507.739C7.95063 507.739 8.35488 507.833 8.67223 508.022C8.98958 508.211 9.24082 508.466 9.42594 508.787C9.61107 509.108 9.75085 509.467 9.8453 509.864C9.93975 510.261 10.0115 510.665 10.0607 511.077C10.1211 511.598 10.1702 512.021 10.208 512.346C10.2496 512.671 10.3157 512.907 10.4063 513.054C10.497 513.202 10.6444 513.275 10.8484 513.275L10.888 513.275C11.383 513.275 11.7664 513.136 12.0384 512.856C12.3105 512.58 12.4465 512.169 12.4465 511.621C12.4465 511.05 12.3199 510.601 12.0668 510.272C11.8174 509.947 11.5397 509.722 11.2337 509.598L11.5964 508.005C12.1253 508.194 12.5523 508.47 12.8772 508.833C13.2058 509.199 13.4439 509.62 13.5912 510.096C13.7423 510.572 13.8179 511.073 13.8179 511.598C13.8179 511.946 13.7763 512.314 13.6932 512.703C13.6139 513.096 13.4665 513.462 13.2512 513.802C13.0358 514.146 12.7279 514.428 12.3275 514.647C11.9308 514.866 11.4151 514.976 10.7804 514.976L5 514.976L5 513.321L6.19007 513.321L6.19007 513.253C5.97095 513.143 5.7556 512.979 5.54403 512.76C5.33246 512.541 5.15679 512.259 5.017 511.915C4.87721 511.572 4.80732 511.16 4.80732 510.68ZM6.16741 511.048C6.16741 511.517 6.25997 511.917 6.44509 512.25C6.63021 512.586 6.87201 512.841 7.17047 513.015C7.47271 513.192 7.79573 513.281 8.13953 513.281L9.2616 513.281C9.20115 513.221 9.14448 513.104 9.09159 512.93C9.04248 512.76 8.99903 512.565 8.96125 512.346C8.92725 512.127 8.89513 511.913 8.86491 511.706C8.83846 511.498 8.8158 511.324 8.7969 511.184C8.75535 510.856 8.68545 510.555 8.58723 510.283C8.489 510.015 8.34732 509.8 8.1622 509.637C7.98085 509.479 7.73906 509.399 7.43682 509.399C7.01746 509.399 6.70011 509.554 6.48476 509.864C6.27319 510.174 6.16741 510.569 6.16741 511.048ZM5 517.051L6.16174 517.051L12.1518 521.766L12.2311 521.766L12.2311 517.204L13.7045 517.204L13.7045 523.88L12.4691 523.88L6.55276 519.346L6.47343 519.346L6.47342 524.039L5 524.039L5 517.051ZM1.73579 527.109C1.73579 526.856 1.75657 526.625 1.79813 526.417C1.83591 526.209 1.87747 526.055 1.92281 525.953L3.31123 526.361C3.22811 526.67 3.19222 526.946 3.20355 527.188C3.21489 527.43 3.30556 527.643 3.47557 527.828C3.64558 528.017 3.92326 528.184 4.30862 528.327L4.88666 528.537L13.7045 525.352L13.7045 527.165L6.94945 529.37L6.94945 529.46L13.7045 531.665L13.7045 533.484L3.83826 529.897C3.3849 529.731 3.00143 529.519 2.68785 529.262C2.3705 529.005 2.13248 528.699 1.97381 528.344C1.81513 527.989 1.73579 527.577 1.73579 527.109ZM10.6387 540.205L9.17093 540.205L9.17093 535.059L10.6387 535.059L10.6387 540.205ZM16.6061 544.158L5 544.158L5 542.463L16.6061 542.463L16.6061 544.158ZM4.82432 550.104C4.82432 549.288 5.01133 548.576 5.38536 547.968C5.75938 547.359 6.28263 546.887 6.95512 546.551C7.62761 546.215 8.41343 546.046 9.3126 546.046C10.2155 546.046 11.0052 546.215 11.6814 546.551C12.3577 546.887 12.8828 547.359 13.2569 547.968C13.6309 548.576 13.8179 549.288 13.8179 550.104C13.8179 550.92 13.6309 551.632 13.2569 552.24C12.8828 552.849 12.3577 553.321 11.6814 553.657C11.0052 553.993 10.2155 554.162 9.3126 554.162C8.41343 554.162 7.62761 553.993 6.95512 553.657C6.28263 553.321 5.75938 552.849 5.38536 552.24C5.01133 551.632 4.82432 550.92 4.82432 550.104ZM6.24674 550.11C6.24674 550.639 6.38653 551.077 6.6661 551.424C6.94568 551.772 7.31781 552.029 7.78251 552.195C8.2472 552.365 8.75912 552.45 9.31827 552.45C9.87364 552.45 10.3837 552.365 10.8484 552.195C11.3168 552.029 11.6928 551.772 11.9761 551.424C12.2595 551.077 12.4011 550.639 12.4011 550.11C12.4011 549.577 12.2595 549.135 11.9761 548.784C11.6928 548.436 11.3168 548.177 10.8484 548.007C10.3837 547.841 9.87364 547.758 9.31827 547.758C8.75912 547.758 8.2472 547.841 7.78251 548.007C7.31781 548.177 6.94568 548.436 6.6661 548.784C6.38653 549.135 6.24674 549.577 6.24674 550.11ZM4.80732 558.586C4.80732 558.035 4.90933 557.536 5.11334 557.09C5.32113 556.644 5.62148 556.291 6.01439 556.03C6.40731 555.773 6.88901 555.645 7.45949 555.645C7.95063 555.645 8.35488 555.739 8.67223 555.928C8.98958 556.117 9.24082 556.372 9.42594 556.693C9.61107 557.014 9.75085 557.373 9.8453 557.77C9.93975 558.167 10.0115 558.571 10.0606 558.983C10.1211 559.504 10.1702 559.927 10.208 560.252C10.2495 560.577 10.3157 560.813 10.4063 560.961C10.497 561.108 10.6444 561.182 10.8484 561.182L10.888 561.182C11.383 561.182 11.7664 561.042 12.0384 560.762C12.3105 560.486 12.4465 560.075 12.4465 559.527C12.4465 558.956 12.3199 558.507 12.0668 558.178C11.8174 557.853 11.5397 557.628 11.2337 557.504L11.5964 555.911C12.1253 556.1 12.5523 556.376 12.8772 556.739C13.2058 557.105 13.4439 557.526 13.5912 558.002C13.7423 558.478 13.8179 558.979 13.8179 559.504C13.8179 559.852 13.7763 560.22 13.6932 560.609C13.6139 561.002 13.4665 561.369 13.2512 561.709C13.0358 562.052 12.7279 562.334 12.3275 562.553C11.9308 562.772 11.4151 562.882 10.7804 562.882L5 562.882L5 561.227L6.19007 561.227L6.19007 561.159C5.97095 561.049 5.7556 560.885 5.54403 560.666C5.33246 560.447 5.15678 560.165 5.017 559.822C4.87721 559.478 4.80732 559.066 4.80732 558.586ZM6.1674 558.954C6.1674 559.423 6.25997 559.823 6.44509 560.156C6.63021 560.492 6.872 560.747 7.17047 560.921C7.47271 561.099 7.79573 561.187 8.13953 561.187L9.2616 561.187C9.20115 561.127 9.14448 561.01 9.09159 560.836C9.04247 560.666 8.99903 560.471 8.96125 560.252C8.92724 560.033 8.89513 559.82 8.86491 559.612C8.83846 559.404 8.81579 559.23 8.7969 559.091C8.75534 558.762 8.68545 558.461 8.58722 558.189C8.48899 557.921 8.34732 557.706 8.1622 557.543C7.98085 557.385 7.73906 557.305 7.43682 557.305C7.01746 557.305 6.7001 557.46 6.48476 557.77C6.27319 558.08 6.1674 558.475 6.1674 558.954ZM4.82999 568.397C4.82999 567.694 5.00944 567.067 5.36835 566.516C5.73104 565.968 6.24674 565.537 6.91545 565.224C7.58794 564.914 8.39454 564.759 9.33527 564.759C10.276 564.759 11.0807 564.916 11.7494 565.229C12.4181 565.547 12.9301 565.981 13.2852 566.533C13.6403 567.084 13.8179 567.71 13.8179 568.409C13.8179 568.949 13.7272 569.383 13.5459 569.712C13.3683 570.044 13.1605 570.301 12.9225 570.483C12.6845 570.668 12.4748 570.811 12.2935 570.913L12.2935 571.015L16.6061 571.015L16.6061 572.71L5 572.71L5 571.055L6.35442 571.055L6.35442 570.913C6.16929 570.811 5.95772 570.664 5.71971 570.471C5.48169 570.282 5.2739 570.022 5.09634 569.689C4.91877 569.357 4.82999 568.926 4.82999 568.397ZM6.27508 568.771C6.27508 569.259 6.40353 569.67 6.66043 570.007C6.92112 570.347 7.28192 570.604 7.74284 570.777C8.20375 570.955 8.74023 571.044 9.35227 571.044C9.95675 571.044 10.4857 570.957 10.939 570.783C11.3924 570.609 11.7456 570.354 11.9988 570.018C12.2519 569.682 12.3785 569.266 12.3785 568.771C12.3785 568.261 12.2462 567.836 11.9818 567.496C11.7173 567.156 11.3565 566.899 10.8994 566.725C10.4422 566.555 9.92653 566.47 9.35227 566.47C8.77046 566.47 8.2472 566.557 7.78251 566.731C7.31781 566.905 6.94945 567.162 6.67744 567.502C6.4092 567.846 6.27508 568.269 6.27508 568.771ZM4.82432 578.88C4.82432 578.022 5.00755 577.284 5.37402 576.664C5.74427 576.048 6.26374 575.572 6.93245 575.236C7.60494 574.903 8.39265 574.737 9.2956 574.737C10.1872 574.737 10.973 574.903 11.6531 575.236C12.3331 575.572 12.8639 576.041 13.2455 576.641C13.6271 577.246 13.8179 577.952 13.8179 578.761C13.8179 579.252 13.7367 579.728 13.5742 580.189C13.4117 580.65 13.1567 581.063 12.8092 581.43C12.4616 581.796 12.0101 582.085 11.4547 582.297C10.9031 582.509 10.2325 582.614 9.44294 582.614L8.84224 582.614L8.84224 575.695L10.1117 575.695L10.1117 580.954C10.5575 580.954 10.9523 580.863 11.2961 580.682C11.6436 580.501 11.9175 580.246 12.1178 579.917C12.318 579.592 12.4181 579.21 12.4181 578.772C12.4181 578.296 12.301 577.88 12.0668 577.525C11.8363 577.174 11.5341 576.902 11.1601 576.709C10.7898 576.52 10.3874 576.426 9.95297 576.426L8.96125 576.426C8.37943 576.426 7.88451 576.528 7.47649 576.732C7.06846 576.94 6.75677 577.229 6.54143 577.599C6.32986 577.969 6.22407 578.402 6.22407 578.897C6.22407 579.218 6.26941 579.511 6.36008 579.775C6.45453 580.04 6.59432 580.268 6.77944 580.461C6.96456 580.654 7.19313 580.801 7.46515 580.903L7.17613 582.507C6.70388 582.378 6.29019 582.148 5.93506 581.815C5.5837 581.487 5.30979 581.073 5.11334 580.574C4.92066 580.079 4.82432 579.514 4.82432 578.88ZM4.82999 587.753C4.82999 587.05 5.00944 586.423 5.36835 585.871C5.73104 585.324 6.24674 584.893 6.91545 584.579C7.58794 584.27 8.39454 584.115 9.33527 584.115C10.276 584.115 11.0807 584.271 11.7494 584.585C12.4181 584.902 12.9301 585.337 13.2852 585.888C13.6403 586.44 13.8179 587.065 13.8179 587.764C13.8179 588.304 13.7272 588.739 13.5459 589.068C13.3683 589.4 13.1605 589.657 12.9225 589.838C12.6845 590.023 12.4748 590.167 12.2935 590.269L12.2935 590.371L16.6061 590.371L16.6061 592.066L5 592.065L5 590.411L6.35441 590.411L6.35441 590.269C6.16929 590.167 5.95772 590.02 5.71971 589.827C5.48169 589.638 5.2739 589.377 5.09634 589.045C4.91877 588.713 4.82999 588.282 4.82999 587.753ZM6.27508 588.127C6.27508 588.614 6.40353 589.026 6.66043 589.362C6.92112 589.702 7.28192 589.959 7.74284 590.133C8.20375 590.311 8.74023 590.399 9.35227 590.399C9.95675 590.399 10.4857 590.313 10.939 590.139C11.3924 589.965 11.7456 589.71 11.9988 589.374C12.2519 589.037 12.3785 588.622 12.3785 588.127C12.3785 587.617 12.2462 587.192 11.9818 586.852C11.7173 586.512 11.3565 586.255 10.8994 586.081C10.4422 585.911 9.92653 585.826 9.35227 585.826C8.77046 585.826 8.2472 585.913 7.7825 586.087C7.31781 586.261 6.94945 586.517 6.67743 586.858C6.4092 587.201 6.27508 587.624 6.27508 588.127Z" fill="#F4F4F5"/>
<path d="M3.6167 669L16.3834 669" stroke="#F4F4F5" stroke-width="2.12778" stroke-linecap="round"/>
<path d="M8.93611 669C8.93611 669.588 9.41243 670.064 10 670.064C10.5876 670.064 11.0639 669.588 11.0639 669L8.93611 669ZM11.0639 669L11.0639 601.447L8.93611 601.447L8.93611 669L11.0639 669Z" fill="#F4F4F5"/>
<rect x="83" y="420.378" width="119.688" height="113.703" rx="4.25556" fill="#27272A"/>
<rect x="82" y="555" width="119.688" height="113.703" rx="4.25556" fill="#27272A"/>
<defs>
<filter id="filter0_i_546_574" x="51" y="-2" width="183" height="371" filterUnits="userSpaceOnUse" color-interpolation-filters="sRGB">
<feFlood flood-opacity="0" result="BackgroundImageFix"/>
<feBlend mode="normal" in="SourceGraphic" in2="BackgroundImageFix" result="shape"/>
<feColorMatrix in="SourceAlpha" type="matrix" values="0 0 0 0 0 0 0 0 0 0 0 0 0 0 0 0 0 0 127 0" result="hardAlpha"/>
<feOffset dy="-2"/>
<feGaussianBlur stdDeviation="3"/>
<feComposite in2="hardAlpha" operator="arithmetic" k2="-1" k3="1"/>
<feColorMatrix type="matrix" values="0 0 0 0 1 0 0 0 0 1 0 0 0 0 1 0 0 0 0.35 0"/>
<feBlend mode="normal" in2="shape" result="effect1_innerShadow_546_574"/>
</filter>
<filter id="filter1_dd_546_574" x="68.8493" y="70.9221" width="103.332" height="73.3884" filterUnits="userSpaceOnUse" color-interpolation-filters="sRGB">
<feFlood flood-opacity="0" result="BackgroundImageFix"/>
<feColorMatrix in="SourceAlpha" type="matrix" values="0 0 0 0 0 0 0 0 0 0 0 0 0 0 0 0 0 0 127 0" result="hardAlpha"/>
<feMorphology radius="1.06389" operator="erode" in="SourceAlpha" result="effect1_dropShadow_546_574"/>
<feOffset dy="2.12778"/>
<feGaussianBlur stdDeviation="1.59583"/>
<feColorMatrix type="matrix" values="0 0 0 0 0 0 0 0 0 0 0 0 0 0 0 0 0 0 0.05 0"/>
<feBlend mode="normal" in2="BackgroundImageFix" result="effect1_dropShadow_546_574"/>
<feColorMatrix in="SourceAlpha" type="matrix" values="0 0 0 0 0 0 0 0 0 0 0 0 0 0 0 0 0 0 127 0" result="hardAlpha"/>
<feMorphology radius="1.59583" operator="erode" in="SourceAlpha" result="effect2_dropShadow_546_574"/>
<feOffset dy="5.31945"/>
<feGaussianBlur stdDeviation="3.98958"/>
<feColorMatrix type="matrix" values="0 0 0 0 0 0 0 0 0 0 0 0 0 0 0 0 0 0 0.1 0"/>
<feBlend mode="normal" in2="effect1_dropShadow_546_574" result="effect2_dropShadow_546_574"/>
<feBlend mode="normal" in="SourceGraphic" in2="effect2_dropShadow_546_574" result="shape"/>
</filter>
<filter id="filter2_dd_546_574" x="68.8493" y="205.903" width="103.332" height="73.3884" filterUnits="userSpaceOnUse" color-interpolation-filters="sRGB">
<feFlood flood-opacity="0" result="BackgroundImageFix"/>
<feColorMatrix in="SourceAlpha" type="matrix" values="0 0 0 0 0 0 0 0 0 0 0 0 0 0 0 0 0 0 127 0" result="hardAlpha"/>
<feMorphology radius="1.06389" operator="erode" in="SourceAlpha" result="effect1_dropShadow_546_574"/>
<feOffset dy="2.12778"/>
<feGaussianBlur stdDeviation="1.59583"/>
<feColorMatrix type="matrix" values="0 0 0 0 0 0 0 0 0 0 0 0 0 0 0 0 0 0 0.05 0"/>
<feBlend mode="normal" in2="BackgroundImageFix" result="effect1_dropShadow_546_574"/>
<feColorMatrix in="SourceAlpha" type="matrix" values="0 0 0 0 0 0 0 0 0 0 0 0 0 0 0 0 0 0 127 0" result="hardAlpha"/>
<feMorphology radius="1.59583" operator="erode" in="SourceAlpha" result="effect2_dropShadow_546_574"/>
<feOffset dy="5.31945"/>
<feGaussianBlur stdDeviation="3.98958"/>
<feColorMatrix type="matrix" values="0 0 0 0 0 0 0 0 0 0 0 0 0 0 0 0 0 0 0.1 0"/>
<feBlend mode="normal" in2="effect1_dropShadow_546_574" result="effect2_dropShadow_546_574"/>
<feBlend mode="normal" in="SourceGraphic" in2="effect2_dropShadow_546_574" result="shape"/>
</filter>
<filter id="filter3_dd_546_574" x="68.8493" y="340.884" width="103.332" height="73.3884" filterUnits="userSpaceOnUse" color-interpolation-filters="sRGB">
<feFlood flood-opacity="0" result="BackgroundImageFix"/>
<feColorMatrix in="SourceAlpha" type="matrix" values="0 0 0 0 0 0 0 0 0 0 0 0 0 0 0 0 0 0 127 0" result="hardAlpha"/>
<feMorphology radius="1.06389" operator="erode" in="SourceAlpha" result="effect1_dropShadow_546_574"/>
<feOffset dy="2.12778"/>
<feGaussianBlur stdDeviation="1.59583"/>
<feColorMatrix type="matrix" values="0 0 0 0 0 0 0 0 0 0 0 0 0 0 0 0 0 0 0.05 0"/>
<feBlend mode="normal" in2="BackgroundImageFix" result="effect1_dropShadow_546_574"/>
<feColorMatrix in="SourceAlpha" type="matrix" values="0 0 0 0 0 0 0 0 0 0 0 0 0 0 0 0 0 0 127 0" result="hardAlpha"/>
<feMorphology radius="1.59583" operator="erode" in="SourceAlpha" result="effect2_dropShadow_546_574"/>
<feOffset dy="5.31945"/>
<feGaussianBlur stdDeviation="3.98958"/>
<feColorMatrix type="matrix" values="0 0 0 0 0 0 0 0 0 0 0 0 0 0 0 0 0 0 0.1 0"/>
<feBlend mode="normal" in2="effect1_dropShadow_546_574" result="effect2_dropShadow_546_574"/>
<feBlend mode="normal" in="SourceGraphic" in2="effect2_dropShadow_546_574" result="shape"/>
</filter>
<clipPath id="clip0_546_574">
<rect x="82.7473" y="15.713" width="119.688" height="113.703" rx="4.25556" fill="white"/>
</clipPath>
<clipPath id="clip1_546_574">
<rect x="82.7473" y="150.694" width="119.688" height="113.703" rx="4.25556" fill="white"/>
</clipPath>
<clipPath id="clip2_546_574">
<rect x="82.7473" y="285.675" width="119.688" height="113.703" rx="4.25556" fill="white"/>
</clipPath>
</defs>
</svg>
