<svg width="589" height="344" viewBox="0 0 589 344" fill="none" xmlns="http://www.w3.org/2000/svg">
<g clip-path="url(#clip0_1605_1062)">
<rect width="589" height="344" fill="#0EA5E9"/>
<rect x="81" y="69" width="427" height="304" rx="8" fill="#BFDBFE"/>
<circle cx="93.5" cy="81.5" r="2.5" fill="white"/>
<circle cx="100.5" cy="81.5" r="2.5" fill="white"/>
<circle cx="107.5" cy="81.5" r="2.5" fill="white"/>
<g filter="url(#filter0_d_1605_1062)">
<rect x="49" y="241.821" width="494.875" height="41.2396" rx="8" transform="rotate(-13.9975 49 241.821)" fill="white"/>
</g>
<rect x="65.5747" y="237.689" width="5.25597" height="23.6519" transform="rotate(-13.9975 65.5747 237.689)" fill="#60A5FA"/>
<rect x="136.973" y="219.891" width="5.25597" height="23.6519" transform="rotate(-13.9975 136.973 219.891)" fill="#60A5FA"/>
<rect x="208.372" y="202.093" width="5.25597" height="23.6519" transform="rotate(-13.9975 208.372 202.093)" fill="#60A5FA"/>
<rect x="279.771" y="184.294" width="5.25597" height="23.6519" transform="rotate(-13.9975 279.771 184.294)" fill="#60A5FA"/>
<rect x="351.169" y="166.496" width="5.25597" height="23.6519" transform="rotate(-13.9975 351.169 166.496)" fill="#60A5FA"/>
<rect x="422.568" y="148.698" width="5.25597" height="23.6519" transform="rotate(-13.9975 422.568 148.698)" fill="#60A5FA"/>
<rect x="101.274" y="228.79" width="5.25597" height="23.6519" transform="rotate(-13.9975 101.274 228.79)" fill="#60A5FA"/>
<rect x="172.673" y="210.992" width="5.25597" height="23.6519" transform="rotate(-13.9975 172.673 210.992)" fill="#60A5FA"/>
<rect x="244.071" y="193.193" width="5.25597" height="23.6519" transform="rotate(-13.9975 244.071 193.193)" fill="#60A5FA"/>
<rect x="315.47" y="175.395" width="5.25597" height="23.6519" transform="rotate(-13.9975 315.47 175.395)" fill="#60A5FA"/>
<rect x="386.868" y="157.597" width="5.25597" height="23.6519" transform="rotate(-13.9975 386.868 157.597)" fill="#60A5FA"/>
<rect x="458.267" y="139.798" width="5.25597" height="23.6519" transform="rotate(-13.9975 458.267 139.798)" fill="#60A5FA"/>
<rect x="493.966" y="130.899" width="5.25597" height="23.6519" transform="rotate(-13.9975 493.966 130.899)" fill="#60A5FA"/>
<rect x="83.4243" y="233.24" width="5.25597" height="14.4539" transform="rotate(-13.9975 83.4243 233.24)" fill="#60A5FA"/>
<rect x="154.823" y="215.441" width="5.25597" height="14.4539" transform="rotate(-13.9975 154.823 215.441)" fill="#60A5FA"/>
<rect x="226.222" y="197.643" width="5.25597" height="14.4539" transform="rotate(-13.9975 226.222 197.643)" fill="#60A5FA"/>
<rect x="297.62" y="179.845" width="5.25597" height="14.4539" transform="rotate(-13.9975 297.62 179.845)" fill="#60A5FA"/>
<rect x="369.019" y="162.046" width="5.25597" height="14.4539" transform="rotate(-13.9975 369.019 162.046)" fill="#60A5FA"/>
<rect x="440.417" y="144.248" width="5.25597" height="14.4539" transform="rotate(-13.9975 440.417 144.248)" fill="#60A5FA"/>
<rect x="119.124" y="224.341" width="5.25597" height="14.4539" transform="rotate(-13.9975 119.124 224.341)" fill="#60A5FA"/>
<rect x="190.522" y="206.542" width="5.25597" height="14.4539" transform="rotate(-13.9975 190.522 206.542)" fill="#60A5FA"/>
<rect x="261.921" y="188.744" width="5.25597" height="14.4539" transform="rotate(-13.9975 261.921 188.744)" fill="#60A5FA"/>
<rect x="333.32" y="170.946" width="5.25597" height="14.4539" transform="rotate(-13.9975 333.32 170.946)" fill="#60A5FA"/>
<rect x="404.718" y="153.147" width="5.25597" height="14.4539" transform="rotate(-13.9975 404.718 153.147)" fill="#60A5FA"/>
<rect x="476.117" y="135.349" width="5.25597" height="14.4539" transform="rotate(-13.9975 476.117 135.349)" fill="#60A5FA"/>
<rect x="511.816" y="126.45" width="5.25597" height="14.4539" transform="rotate(-13.9975 511.816 126.45)" fill="#60A5FA"/>
</g>
<defs>
<filter id="filter0_d_1605_1062" x="48.0676" y="122.503" width="492.02" height="161.58" filterUnits="userSpaceOnUse" color-interpolation-filters="sRGB">
<feFlood flood-opacity="0" result="BackgroundImageFix"/>
<feColorMatrix in="SourceAlpha" type="matrix" values="0 0 0 0 0 0 0 0 0 0 0 0 0 0 0 0 0 0 127 0" result="hardAlpha"/>
<feOffset dy="1.31399"/>
<feGaussianBlur stdDeviation="1.31399"/>
<feColorMatrix type="matrix" values="0 0 0 0 0 0 0 0 0 0 0 0 0 0 0 0 0 0 0.05 0"/>
<feBlend mode="normal" in2="BackgroundImageFix" result="effect1_dropShadow_1605_1062"/>
<feBlend mode="normal" in="SourceGraphic" in2="effect1_dropShadow_1605_1062" result="shape"/>
</filter>
<clipPath id="clip0_1605_1062">
<rect width="589" height="344" fill="white"/>
</clipPath>
</defs>
</svg>
