<svg xmlns="http://www.w3.org/2000/svg" width="1201" height="953" fill="none" viewBox="0 0 1201 953"><g clip-path="url(#a)"><path fill="#F1F5F9" d="M0 0h1201v952.335H0z"/><g filter="url(#b)"><g clip-path="url(#c)"><path fill="#fff" d="M85.71 120.629c0-14.026 11.37-25.396 25.396-25.396H1201v857.102H85.71V120.629Z"/><circle cx="123.803" cy="133.327" r="12.698" fill="#F1F5F9"/><circle cx="166.129" cy="133.327" r="12.698" fill="#F1F5F9"/><circle cx="208.455" cy="133.327" r="12.698" fill="#F1F5F9"/><path fill="#94A3B8" fill-rule="evenodd" d="M302.904 121.093a1.55 1.55 0 0 1-.018 2.193l-8.67 8.522h19.989a1.55 1.55 0 1 1 0 3.102h-19.974l8.651 8.454a1.552 1.552 0 0 1-2.167 2.219l-11.374-11.115a1.55 1.55 0 0 1-.003-2.215l11.373-11.179a1.55 1.55 0 0 1 2.193.019Z" clip-rule="evenodd"/><path fill="#E2E8F0" fill-rule="evenodd" d="M362.469 121.093a1.55 1.55 0 0 0 .019 2.193l8.67 8.522h-19.99a1.551 1.551 0 0 0 0 3.102h19.974l-8.651 8.454a1.552 1.552 0 0 0 2.168 2.219l11.373-11.115a1.552 1.552 0 0 0 .003-2.215l-11.373-11.179a1.55 1.55 0 0 0-2.193.019Z" clip-rule="evenodd"/><path fill="#94A3B8" d="M413.29 133.327c0-5.395 4.373-9.768 9.767-9.768a9.746 9.746 0 0 1 7.378 3.366l-4.448 4.448h10.745v-10.744l-4.221 4.221a12.667 12.667 0 0 0-9.454-4.221c-7.013 0-12.698 5.685-12.698 12.698 0 7.013 5.685 12.698 12.698 12.698 5.037 0 9.385-2.933 11.437-7.177a1.465 1.465 0 1 0-2.638-1.275 9.768 9.768 0 0 1-8.799 5.521c-5.394 0-9.767-4.373-9.767-9.767Z"/><path fill="#F1F5F9" d="M647.587 133.327c0-16.363 13.265-29.628 29.629-29.628H1201v59.256H677.216c-16.364 0-29.629-13.265-29.629-29.628Z"/><path fill="#94A3B8" fill-rule="evenodd" d="M681.045 122.746a5.039 5.039 0 0 0-5.039 5.038v2.016h-1.008a2.015 2.015 0 0 0-2.015 2.015v10.078c0 1.113.902 2.016 2.015 2.016h12.094a2.016 2.016 0 0 0 2.015-2.016v-10.078a2.015 2.015 0 0 0-2.015-2.015h-1.008v-2.016a5.039 5.039 0 0 0-5.039-5.038Zm3.023 7.054v-2.016a3.023 3.023 0 0 0-6.046 0v2.016h6.046Z" clip-rule="evenodd"/><g clip-path="url(#d)"><circle cx="340.724" cy="302.026" r="17.988" fill="#34D399"/><path fill="#27272A" d="M416.305 290.439h3.495v15.185c0 1.615-.38 3.047-1.139 4.295-.759 1.24-1.826 2.217-3.201 2.931-1.376.706-2.988 1.059-4.836 1.059-1.842 0-3.45-.353-4.825-1.059-1.375-.714-2.443-1.691-3.202-2.931-.759-1.248-1.138-2.68-1.138-4.295v-15.185h3.483v14.903c0 1.044.229 1.973.688 2.784a4.991 4.991 0 0 0 1.972 1.917c.85.458 1.857.687 3.022.687 1.172 0 2.183-.229 3.032-.687.857-.466 1.511-1.105 1.962-1.917.458-.811.687-1.74.687-2.784v-14.903Zm21.264 9.999-3.055.541a3.621 3.621 0 0 0-.609-1.116c-.271-.353-.639-.642-1.105-.868-.466-.225-1.048-.338-1.747-.338-.954 0-1.751.214-2.39.642-.639.421-.958.966-.958 1.635 0 .579.214 1.045.642 1.398.429.353 1.12.642 2.075.868l2.75.631c1.593.368 2.781.936 3.562 1.702.782.767 1.173 1.763 1.173 2.988a4.541 4.541 0 0 1-.902 2.773c-.594.804-1.424 1.435-2.491 1.894-1.06.458-2.289.687-3.687.687-1.938 0-3.52-.413-4.745-1.24-1.225-.834-1.977-2.018-2.255-3.551l3.258-.496c.203.85.62 1.492 1.251 1.928.631.428 1.454.643 2.469.643 1.105 0 1.988-.23 2.649-.688.661-.466.992-1.033.992-1.702 0-.541-.203-.996-.609-1.364-.398-.369-1.01-.647-1.837-.835l-2.931-.642c-1.616-.368-2.811-.954-3.585-1.759-.766-.804-1.15-1.822-1.15-3.055 0-1.022.286-1.916.857-2.683.571-.766 1.36-1.364 2.367-1.792 1.007-.436 2.161-.654 3.461-.654 1.871 0 3.344.406 4.419 1.218 1.075.804 1.785 1.882 2.131 3.235Zm11.507 13.437c-1.706 0-3.176-.364-4.408-1.093-1.225-.737-2.172-1.77-2.841-3.1-.661-1.338-.992-2.905-.992-4.701 0-1.774.331-3.337.992-4.69.669-1.352 1.601-2.408 2.796-3.167 1.202-.759 2.608-1.139 4.216-1.139a8.49 8.49 0 0 1 2.841.485c.916.323 1.739.83 2.468 1.522.729.691 1.304 1.589 1.725 2.694.421 1.097.631 2.431.631 4.002v1.195H442.74v-2.525h10.461c0-.887-.18-1.672-.541-2.356a4.08 4.08 0 0 0-1.522-1.635c-.646-.398-1.405-.597-2.277-.597-.947 0-1.773.233-2.48.699a4.683 4.683 0 0 0-1.623 1.803 5.206 5.206 0 0 0-.564 2.401v1.973c0 1.157.203 2.142.609 2.954.413.811.988 1.431 1.725 1.86.736.421 1.597.631 2.581.631.639 0 1.222-.09 1.748-.271.526-.187.98-.466 1.364-.834.383-.368.676-.823.879-1.364l3.19.575a5.781 5.781 0 0 1-1.375 2.469c-.654.699-1.477 1.244-2.469 1.634-.984.384-2.108.575-3.37.575Zm34.382-17.664-6.279 17.315h-3.607l-6.291-17.315h3.619l4.385 13.324h.18l4.374-13.324h3.619Zm3.168 17.315v-17.315h3.37v17.315h-3.37Zm1.702-19.987c-.586 0-1.09-.195-1.511-.586-.413-.398-.62-.872-.62-1.421 0-.556.207-1.029.62-1.42a2.123 2.123 0 0 1 1.511-.597c.586 0 1.086.199 1.499.597.421.391.631.864.631 1.42 0 .549-.21 1.023-.631 1.421a2.101 2.101 0 0 1-1.499.586Zm12.685 20.325c-1.398 0-2.646-.357-3.743-1.071-1.09-.721-1.946-1.747-2.57-3.077-.616-1.338-.925-2.943-.925-4.814s.312-3.472.936-4.802c.631-1.33 1.496-2.349 2.593-3.055 1.097-.707 2.341-1.06 3.731-1.06 1.075 0 1.939.181 2.593.541.661.354 1.172.767 1.533 1.24.368.474.654.891.857 1.252h.203v-8.579h3.37v23.087H506.3v-2.694h-.282a8.865 8.865 0 0 1-.88 1.262c-.375.474-.894.887-1.555 1.24-.662.353-1.518.53-2.57.53Zm.744-2.875c.969 0 1.788-.255 2.457-.766.676-.519 1.188-1.236 1.533-2.153.353-.917.53-1.984.53-3.202 0-1.202-.173-2.254-.519-3.156-.345-.902-.853-1.605-1.521-2.108-.669-.504-1.496-.755-2.48-.755-1.015 0-1.86.263-2.537.789-.676.526-1.187 1.243-1.533 2.153-.338.909-.507 1.935-.507 3.077 0 1.158.173 2.199.518 3.123.346.924.857 1.657 1.533 2.198.684.534 1.526.8 2.526.8Zm20.108 2.886c-1.706 0-3.176-.364-4.408-1.093-1.225-.737-2.172-1.77-2.841-3.1-.661-1.338-.992-2.905-.992-4.701 0-1.774.331-3.337.992-4.69.669-1.352 1.601-2.408 2.796-3.167 1.202-.759 2.608-1.139 4.216-1.139a8.49 8.49 0 0 1 2.841.485c.917.323 1.739.83 2.468 1.522.729.691 1.304 1.589 1.725 2.694.421 1.097.631 2.431.631 4.002v1.195h-13.764v-2.525h10.462c0-.887-.181-1.672-.542-2.356a4.085 4.085 0 0 0-1.521-1.635c-.647-.398-1.406-.597-2.278-.597-.946 0-1.773.233-2.48.699a4.69 4.69 0 0 0-1.623 1.803 5.206 5.206 0 0 0-.564 2.401v1.973c0 1.157.203 2.142.609 2.954.414.811.988 1.431 1.725 1.86.736.421 1.597.631 2.581.631.639 0 1.222-.09 1.748-.271a3.763 3.763 0 0 0 1.364-.834c.383-.368.676-.823.879-1.364l3.19.575a5.781 5.781 0 0 1-1.375 2.469c-.654.699-1.477 1.244-2.469 1.634-.984.384-2.108.575-3.37.575Zm18.462 0c-1.623 0-3.04-.372-4.25-1.116-1.21-.744-2.149-1.785-2.818-3.122-.669-1.338-1.004-2.901-1.004-4.69 0-1.796.335-3.367 1.004-4.712.669-1.345 1.608-2.39 2.818-3.134 1.21-.744 2.627-1.116 4.25-1.116 1.623 0 3.04.372 4.25 1.116 1.21.744 2.149 1.789 2.818 3.134s1.003 2.916 1.003 4.712c0 1.789-.334 3.352-1.003 4.69-.669 1.337-1.608 2.378-2.818 3.122-1.21.744-2.627 1.116-4.25 1.116Zm.011-2.829c1.052 0 1.924-.278 2.615-.834.692-.556 1.203-1.297 1.534-2.221.338-.924.507-1.943.507-3.055 0-1.105-.169-2.119-.507-3.044-.331-.932-.842-1.679-1.534-2.243-.691-.564-1.563-.846-2.615-.846-1.06 0-1.939.282-2.638.846-.691.564-1.206 1.311-1.544 2.243-.331.925-.496 1.939-.496 3.044 0 1.112.165 2.131.496 3.055.338.924.853 1.665 1.544 2.221.699.556 1.578.834 2.638.834Zm28.464-14.835v2.705h-9.785v-2.705h9.785Zm-7.102 17.315v-19.322c0-1.082.237-1.98.71-2.694a4.351 4.351 0 0 1 1.883-1.612 6.003 6.003 0 0 1 2.548-.541c.676 0 1.255.056 1.736.169.481.105.838.203 1.071.293l-.789 2.728a16.136 16.136 0 0 0-.609-.158 3.5 3.5 0 0 0-.902-.101c-.819 0-1.405.203-1.759.608-.345.406-.518.992-.518 1.759v18.871H561.7Zm17.191.349c-1.623 0-3.039-.372-4.249-1.116-1.21-.744-2.15-1.785-2.819-3.122-.669-1.338-1.003-2.901-1.003-4.69 0-1.796.334-3.367 1.003-4.712.669-1.345 1.609-2.39 2.819-3.134 1.21-.744 2.626-1.116 4.249-1.116 1.624 0 3.04.372 4.25 1.116 1.21.744 2.15 1.789 2.819 3.134.668 1.345 1.003 2.916 1.003 4.712 0 1.789-.335 3.352-1.003 4.69-.669 1.337-1.609 2.378-2.819 3.122-1.21.744-2.626 1.116-4.25 1.116Zm.012-2.829c1.052 0 1.924-.278 2.615-.834.691-.556 1.202-1.297 1.533-2.221.338-.924.507-1.943.507-3.055 0-1.105-.169-2.119-.507-3.044-.331-.932-.842-1.679-1.533-2.243-.691-.564-1.563-.846-2.615-.846-1.06 0-1.939.282-2.638.846-.692.564-1.206 1.311-1.545 2.243-.33.925-.496 1.939-.496 3.044 0 1.112.166 2.131.496 3.055.339.924.853 1.665 1.545 2.221.699.556 1.578.834 2.638.834Zm11.822 2.48v-17.315h3.258v2.75h.18a4.187 4.187 0 0 1 1.669-2.198c.804-.541 1.713-.812 2.728-.812a14.522 14.522 0 0 1 1.432.079v3.224a6.178 6.178 0 0 0-.722-.124 6.963 6.963 0 0 0-1.037-.079c-.797 0-1.507.17-2.131.508a3.77 3.77 0 0 0-1.465 1.386c-.361.587-.541 1.255-.541 2.007v10.574h-3.371Zm12.183 0v-17.315h3.236v2.818h.214c.361-.955.951-1.699 1.77-2.232.819-.541 1.8-.812 2.942-.812 1.157 0 2.127.271 2.908.812.789.541 1.372 1.285 1.748 2.232h.18c.413-.924 1.071-1.661 1.973-2.21.902-.556 1.976-.834 3.224-.834 1.571 0 2.852.492 3.844 1.477.999.984 1.499 2.469 1.499 4.453v11.611h-3.37V302.23c0-1.172-.32-2.021-.959-2.547-.638-.526-1.401-.789-2.288-.789-1.097 0-1.95.338-2.559 1.014-.609.669-.913 1.53-.913 2.582v11.036h-3.359v-11.51c0-.939-.293-1.694-.88-2.266-.586-.571-1.349-.856-2.288-.856-.639 0-1.229.169-1.77.507a3.72 3.72 0 0 0-1.296 1.386c-.323.594-.485 1.282-.485 2.063v10.676h-3.371Zm33.095.383c-1.097 0-2.089-.203-2.976-.609a5.003 5.003 0 0 1-2.108-1.792c-.511-.782-.767-1.74-.767-2.875 0-.977.188-1.781.564-2.412a4.16 4.16 0 0 1 1.522-1.499 7.88 7.88 0 0 1 2.141-.834c.79-.188 1.594-.331 2.413-.429l2.525-.293c.646-.083 1.116-.214 1.409-.394.293-.181.44-.474.44-.88v-.079c0-.984-.278-1.747-.834-2.288-.549-.541-1.368-.812-2.458-.812-1.135 0-2.029.252-2.683.756-.646.496-1.093 1.048-1.341 1.657l-3.168-.722c.376-1.052.924-1.901 1.646-2.547a6.673 6.673 0 0 1 2.514-1.421 9.83 9.83 0 0 1 2.987-.451c.691 0 1.424.083 2.198.248a6.42 6.42 0 0 1 2.187.88c.684.428 1.244 1.04 1.68 1.837.436.789.654 1.815.654 3.078v11.498h-3.292v-2.367h-.135c-.218.435-.545.864-.981 1.285-.436.421-.996.77-1.68 1.048-.684.278-1.503.417-2.457.417Zm.733-2.705c.931 0 1.728-.184 2.389-.553.669-.368 1.177-.849 1.522-1.443.353-.601.53-1.243.53-1.927v-2.232c-.12.12-.353.233-.699.338-.338.098-.725.184-1.161.259-.436.068-.86.132-1.274.192-.413.052-.759.097-1.037.135a8.393 8.393 0 0 0-1.792.417c-.534.196-.962.477-1.285.846-.316.36-.474.841-.474 1.443 0 .834.308 1.465.924 1.893.617.421 1.402.632 2.357.632Zm20.384-14.993v2.705h-9.458v-2.705h9.458Zm-6.922-4.149h3.371v16.38c0 .654.097 1.146.293 1.477.195.323.447.544.755.665a3.05 3.05 0 0 0 1.026.169c.271 0 .507-.019.71-.057.203-.037.361-.067.474-.09l.608 2.785a5.65 5.65 0 0 1-.834.225c-.361.083-.811.128-1.353.135a5.933 5.933 0 0 1-2.48-.473 4.265 4.265 0 0 1-1.86-1.533c-.473-.692-.71-1.56-.71-2.604v-17.079Zm23.346 8.376-3.055.541a3.597 3.597 0 0 0-.608-1.116c-.271-.353-.639-.642-1.105-.868-.466-.225-1.048-.338-1.747-.338-.955 0-1.751.214-2.39.642-.639.421-.958.966-.958 1.635 0 .579.214 1.045.642 1.398.429.353 1.12.642 2.074.868l2.751.631c1.593.368 2.781.936 3.562 1.702.782.767 1.173 1.763 1.173 2.988a4.541 4.541 0 0 1-.902 2.773c-.594.804-1.424 1.435-2.492 1.894-1.059.458-2.288.687-3.686.687-1.939 0-3.521-.413-4.746-1.24-1.225-.834-1.976-2.018-2.254-3.551l3.258-.496c.202.85.62 1.492 1.251 1.928.631.428 1.454.643 2.469.643 1.104 0 1.987-.23 2.649-.688.661-.466.992-1.033.992-1.702 0-.541-.203-.996-.609-1.364-.398-.369-1.011-.647-1.837-.835l-2.931-.642c-1.616-.368-2.811-.954-3.585-1.759-.767-.804-1.15-1.822-1.15-3.055 0-1.022.286-1.916.857-2.683.571-.766 1.36-1.364 2.367-1.792 1.007-.436 2.161-.654 3.461-.654 1.871 0 3.344.406 4.419 1.218 1.074.804 1.785 1.882 2.13 3.235Zm20.686-4.227v2.705h-9.785v-2.705h9.785Zm-7.102 17.315v-19.322c0-1.082.237-1.98.71-2.694a4.351 4.351 0 0 1 1.883-1.612 6.003 6.003 0 0 1 2.548-.541c.676 0 1.255.056 1.736.169.481.105.838.203 1.071.293l-.789 2.728a16.136 16.136 0 0 0-.609-.158 3.5 3.5 0 0 0-.902-.101c-.819 0-1.405.203-1.759.608-.345.406-.518.992-.518 1.759v18.871h-3.371Zm17.191.349c-1.623 0-3.04-.372-4.249-1.116-1.21-.744-2.15-1.785-2.819-3.122-.669-1.338-1.003-2.901-1.003-4.69 0-1.796.334-3.367 1.003-4.712.669-1.345 1.609-2.39 2.819-3.134 1.209-.744 2.626-1.116 4.249-1.116 1.624 0 3.04.372 4.25 1.116 1.21.744 2.15 1.789 2.819 3.134.668 1.345 1.003 2.916 1.003 4.712 0 1.789-.335 3.352-1.003 4.69-.669 1.337-1.609 2.378-2.819 3.122-1.21.744-2.626 1.116-4.25 1.116Zm.012-2.829c1.052 0 1.924-.278 2.615-.834.691-.556 1.202-1.297 1.533-2.221.338-.924.507-1.943.507-3.055 0-1.105-.169-2.119-.507-3.044-.331-.932-.842-1.679-1.533-2.243-.691-.564-1.563-.846-2.615-.846-1.06 0-1.939.282-2.638.846-.692.564-1.206 1.311-1.545 2.243-.33.925-.496 1.939-.496 3.044 0 1.112.166 2.131.496 3.055.339.924.853 1.665 1.545 2.221.699.556 1.578.834 2.638.834Zm11.822 2.48v-17.315h3.258v2.75h.18a4.187 4.187 0 0 1 1.669-2.198c.804-.541 1.713-.812 2.728-.812a14.522 14.522 0 0 1 1.431.079v3.224a6.11 6.11 0 0 0-.721-.124 6.963 6.963 0 0 0-1.037-.079c-.797 0-1.507.17-2.131.508a3.77 3.77 0 0 0-1.465 1.386c-.361.587-.541 1.255-.541 2.007v10.574h-3.371Zm25.623.383c-1.097 0-2.089-.203-2.976-.609a5.015 5.015 0 0 1-2.108-1.792c-.511-.782-.766-1.74-.766-2.875 0-.977.188-1.781.563-2.412a4.16 4.16 0 0 1 1.522-1.499 7.9 7.9 0 0 1 2.142-.834 21.309 21.309 0 0 1 2.413-.429l2.525-.293c.646-.083 1.116-.214 1.409-.394.293-.181.439-.474.439-.88v-.079c0-.984-.278-1.747-.834-2.288-.548-.541-1.368-.812-2.457-.812-1.135 0-2.029.252-2.683.756-.647.496-1.094 1.048-1.342 1.657l-3.167-.722c.375-1.052.924-1.901 1.645-2.547a6.673 6.673 0 0 1 2.514-1.421 9.836 9.836 0 0 1 2.988-.451c.691 0 1.424.083 2.198.248.781.158 1.51.451 2.187.88.684.428 1.244 1.04 1.679 1.837.436.789.654 1.815.654 3.078v11.498h-3.291v-2.367h-.136c-.218.435-.545.864-.98 1.285-.436.421-.996.77-1.68 1.048-.684.278-1.503.417-2.458.417Zm.733-2.705c.932 0 1.729-.184 2.39-.553.669-.368 1.176-.849 1.522-1.443.353-.601.53-1.243.53-1.927v-2.232c-.121.12-.354.233-.699.338-.338.098-.725.184-1.161.259-.436.068-.861.132-1.274.192-.414.052-.759.097-1.037.135a8.402 8.402 0 0 0-1.793.417c-.533.196-.962.477-1.285.846-.315.36-.473.841-.473 1.443 0 .834.308 1.465.924 1.893.616.421 1.402.632 2.356.632Zm15.672-7.959v10.281h-3.37v-17.315h3.235v2.818h.214a4.956 4.956 0 0 1 1.872-2.21c.856-.556 1.935-.834 3.235-.834 1.18 0 2.213.248 3.1.744.887.489 1.574 1.218 2.063 2.187.488.97.733 2.168.733 3.596v11.014h-3.371v-10.608c0-1.255-.327-2.236-.981-2.942-.654-.714-1.552-1.071-2.694-1.071-.782 0-1.477.169-2.085.507-.602.338-1.079.834-1.432 1.488-.346.647-.519 1.428-.519 2.345Zm15.602 10.281v-17.315h3.371v17.315h-3.371Zm1.702-19.987a2.141 2.141 0 0 1-1.51-.586c-.414-.398-.62-.872-.62-1.421 0-.556.206-1.029.62-1.42a2.12 2.12 0 0 1 1.51-.597c.586 0 1.086.199 1.5.597.42.391.631.864.631 1.42 0 .549-.211 1.023-.631 1.421a2.105 2.105 0 0 1-1.5.586Zm6.203 19.987v-17.315h3.235v2.818h.215c.36-.955.95-1.699 1.77-2.232.819-.541 1.799-.812 2.942-.812 1.157 0 2.127.271 2.908.812.789.541 1.372 1.285 1.747 2.232h.181c.413-.924 1.071-1.661 1.973-2.21.901-.556 1.976-.834 3.224-.834 1.57 0 2.852.492 3.844 1.477.999.984 1.499 2.469 1.499 4.453v11.611h-3.371V302.23c0-1.172-.319-2.021-.958-2.547-.639-.526-1.401-.789-2.288-.789-1.097 0-1.95.338-2.559 1.014-.609.669-.913 1.53-.913 2.582v11.036h-3.36v-11.51c0-.939-.293-1.694-.879-2.266-.586-.571-1.349-.856-2.288-.856-.639 0-1.229.169-1.77.507a3.73 3.73 0 0 0-1.297 1.386c-.323.594-.484 1.282-.484 2.063v10.676h-3.371Zm33.095.383c-1.098 0-2.09-.203-2.976-.609a5.011 5.011 0 0 1-2.109-1.792c-.511-.782-.766-1.74-.766-2.875 0-.977.188-1.781.564-2.412a4.157 4.157 0 0 1 1.521-1.499 7.9 7.9 0 0 1 2.142-.834 21.349 21.349 0 0 1 2.413-.429l2.525-.293c.646-.083 1.116-.214 1.409-.394.293-.181.44-.474.44-.88v-.079c0-.984-.279-1.747-.835-2.288-.548-.541-1.367-.812-2.457-.812-1.135 0-2.029.252-2.683.756-.646.496-1.094 1.048-1.342 1.657l-3.167-.722c.376-1.052.924-1.901 1.646-2.547a6.677 6.677 0 0 1 2.513-1.421 9.836 9.836 0 0 1 2.988-.451c.691 0 1.424.083 2.198.248a6.42 6.42 0 0 1 2.187.88c.684.428 1.244 1.04 1.68 1.837.435.789.653 1.815.653 3.078v11.498h-3.291v-2.367h-.136c-.217.435-.544.864-.98 1.285-.436.421-.996.77-1.68 1.048-.684.278-1.503.417-2.457.417Zm.732-2.705c.932 0 1.729-.184 2.39-.553.669-.368 1.176-.849 1.522-1.443.353-.601.53-1.243.53-1.927v-2.232c-.12.12-.353.233-.699.338-.338.098-.725.184-1.161.259-.436.068-.861.132-1.274.192-.413.052-.759.097-1.037.135a8.416 8.416 0 0 0-1.793.417c-.533.196-.961.477-1.285.846-.315.36-.473.841-.473 1.443 0 .834.308 1.465.924 1.893.617.421 1.402.632 2.356.632Zm20.385-14.993v2.705h-9.458v-2.705h9.458Zm-6.922-4.149h3.371v16.38c0 .654.097 1.146.293 1.477.195.323.447.544.755.665a3.05 3.05 0 0 0 1.026.169c.27 0 .507-.019.71-.057.203-.037.361-.067.473-.09l.609 2.785a5.65 5.65 0 0 1-.834.225c-.361.083-.812.128-1.353.135a5.93 5.93 0 0 1-2.48-.473 4.265 4.265 0 0 1-1.86-1.533c-.473-.692-.71-1.56-.71-2.604v-17.079Zm17.927 21.813c-1.706 0-3.175-.364-4.408-1.093-1.225-.737-2.172-1.77-2.841-3.1-.661-1.338-.992-2.905-.992-4.701 0-1.774.331-3.337.992-4.69.669-1.352 1.601-2.408 2.796-3.167 1.202-.759 2.608-1.139 4.216-1.139a8.49 8.49 0 0 1 2.841.485 6.87 6.87 0 0 1 2.469 1.522c.729.691 1.303 1.589 1.724 2.694.421 1.097.632 2.431.632 4.002v1.195h-13.765v-2.525h10.462c0-.887-.181-1.672-.541-2.356a4.095 4.095 0 0 0-1.522-1.635c-.647-.398-1.406-.597-2.277-.597-.947 0-1.774.233-2.48.699a4.685 4.685 0 0 0-1.624 1.803 5.205 5.205 0 0 0-.563 2.401v1.973c0 1.157.202 2.142.608 2.954.414.811.989 1.431 1.725 1.86.737.421 1.597.631 2.582.631.638 0 1.221-.09 1.747-.271a3.763 3.763 0 0 0 1.364-.834c.383-.368.676-.823.879-1.364l3.19.575a5.781 5.781 0 0 1-1.375 2.469c-.654.699-1.477 1.244-2.469 1.634-.984.384-2.108.575-3.37.575Zm17.65-.011c-1.398 0-2.645-.357-3.742-1.071-1.09-.721-1.947-1.747-2.571-3.077-.616-1.338-.924-2.943-.924-4.814s.312-3.472.936-4.802c.631-1.33 1.495-2.349 2.592-3.055 1.098-.707 2.341-1.06 3.732-1.06 1.074 0 1.939.181 2.593.541.661.354 1.172.767 1.533 1.24.368.474.654.891.856 1.252h.203v-8.579h3.371v23.087h-3.292v-2.694h-.282a8.848 8.848 0 0 1-.879 1.262c-.376.474-.894.887-1.556 1.24-.661.353-1.518.53-2.57.53Zm.744-2.875c.97 0 1.789-.255 2.458-.766.676-.519 1.187-1.236 1.533-2.153.353-.917.53-1.984.53-3.202 0-1.202-.173-2.254-.519-3.156-.346-.902-.853-1.605-1.522-2.108-.669-.504-1.495-.755-2.48-.755-1.014 0-1.86.263-2.536.789-.676.526-1.188 1.243-1.533 2.153-.338.909-.508 1.935-.508 3.077 0 1.158.173 2.199.519 3.123.346.924.857 1.657 1.533 2.198.684.534 1.526.8 2.525.8Zm28.34 2.886c-1.676 0-3.118-.379-4.328-1.138-1.203-.767-2.127-1.823-2.774-3.168-.646-1.345-.969-2.886-.969-4.622 0-1.758.331-3.31.992-4.656.661-1.352 1.593-2.408 2.796-3.167 1.202-.759 2.619-1.139 4.25-1.139 1.315 0 2.487.244 3.517.733 1.029.481 1.86 1.157 2.491 2.029.639.872 1.018 1.89 1.139 3.055h-3.281c-.18-.812-.594-1.511-1.24-2.097-.639-.586-1.495-.879-2.57-.879-.94 0-1.762.248-2.469.744-.699.489-1.244 1.187-1.634 2.097-.391.902-.587 1.969-.587 3.201 0 1.263.192 2.353.575 3.269.384.917.925 1.627 1.624 2.131.706.504 1.536.755 2.491.755a4.19 4.19 0 0 0 1.736-.349 3.553 3.553 0 0 0 1.319-1.026c.361-.443.612-.977.755-1.601h3.281c-.121 1.12-.485 2.12-1.094 2.999-.609.879-1.424 1.571-2.446 2.074-1.015.504-2.206.755-3.574.755Zm18.012 0c-1.624 0-3.04-.372-4.25-1.116-1.21-.744-2.15-1.785-2.818-3.122-.669-1.338-1.004-2.901-1.004-4.69 0-1.796.335-3.367 1.004-4.712.668-1.345 1.608-2.39 2.818-3.134 1.21-.744 2.626-1.116 4.25-1.116 1.623 0 3.04.372 4.25 1.116 1.209.744 2.149 1.789 2.818 3.134s1.003 2.916 1.003 4.712c0 1.789-.334 3.352-1.003 4.69-.669 1.337-1.609 2.378-2.818 3.122-1.21.744-2.627 1.116-4.25 1.116Zm.011-2.829c1.052 0 1.924-.278 2.615-.834.692-.556 1.203-1.297 1.533-2.221.339-.924.508-1.943.508-3.055 0-1.105-.169-2.119-.508-3.044-.33-.932-.841-1.679-1.533-2.243-.691-.564-1.563-.846-2.615-.846-1.06 0-1.939.282-2.638.846-.691.564-1.206 1.311-1.544 2.243-.331.925-.496 1.939-.496 3.044 0 1.112.165 2.131.496 3.055.338.924.853 1.665 1.544 2.221.699.556 1.578.834 2.638.834Zm15.193-7.801v10.281h-3.371v-17.315h3.236v2.818h.214a4.953 4.953 0 0 1 1.871-2.21c.857-.556 1.935-.834 3.235-.834 1.18 0 2.214.248 3.101.744.886.489 1.574 1.218 2.062 2.187.489.97.733 2.168.733 3.596v11.014h-3.37v-10.608c0-1.255-.327-2.236-.981-2.942-.654-.714-1.552-1.071-2.694-1.071-.782 0-1.477.169-2.086.507-.601.338-1.078.834-1.431 1.488-.346.647-.519 1.428-.519 2.345Zm23.684-7.034v2.705h-9.458v-2.705h9.458Zm-6.921-4.149h3.37v16.38c0 .654.098 1.146.293 1.477.196.323.448.544.756.665.315.112.657.169 1.026.169.27 0 .507-.019.71-.057.203-.037.36-.067.473-.09l.609 2.785a5.65 5.65 0 0 1-.834.225c-.361.083-.812.128-1.353.135a5.93 5.93 0 0 1-2.48-.473 4.254 4.254 0 0 1-1.86-1.533c-.474-.692-.71-1.56-.71-2.604v-17.079Zm17.926 21.813c-1.705 0-3.175-.364-4.407-1.093-1.225-.737-2.172-1.77-2.841-3.1-.661-1.338-.992-2.905-.992-4.701 0-1.774.331-3.337.992-4.69.669-1.352 1.601-2.408 2.796-3.167 1.202-.759 2.607-1.139 4.216-1.139a8.49 8.49 0 0 1 2.841.485c.916.323 1.739.83 2.468 1.522.729.691 1.304 1.589 1.725 2.694.421 1.097.631 2.431.631 4.002v1.195h-13.764v-2.525h10.461c0-.887-.18-1.672-.541-2.356a4.08 4.08 0 0 0-1.522-1.635c-.646-.398-1.405-.597-2.277-.597-.947 0-1.773.233-2.48.699a4.683 4.683 0 0 0-1.623 1.803 5.206 5.206 0 0 0-.564 2.401v1.973c0 1.157.203 2.142.609 2.954.413.811.988 1.431 1.725 1.86.736.421 1.597.631 2.581.631.639 0 1.222-.09 1.748-.271.526-.187.98-.466 1.364-.834.383-.368.676-.823.879-1.364l3.19.575a5.781 5.781 0 0 1-1.375 2.469c-.654.699-1.477 1.244-2.469 1.634-.984.384-2.108.575-3.371.575Zm14.54-10.63v10.281h-3.371v-17.315h3.235v2.818h.215a4.953 4.953 0 0 1 1.871-2.21c.857-.556 1.935-.834 3.235-.834 1.18 0 2.213.248 3.1.744.887.489 1.575 1.218 2.063 2.187.489.97.733 2.168.733 3.596v11.014h-3.371v-10.608c0-1.255-.327-2.236-.98-2.942-.654-.714-1.552-1.071-2.695-1.071-.781 0-1.476.169-2.085.507-.601.338-1.079.834-1.432 1.488-.345.647-.518 1.428-.518 2.345Zm23.684-7.034v2.705h-9.458v-2.705h9.458Zm-6.921-4.149h3.37v16.38c0 .654.098 1.146.293 1.477.196.323.447.544.755.665a3.05 3.05 0 0 0 1.026.169c.271 0 .508-.019.711-.057.202-.037.36-.067.473-.09l.605 2.785c-.192.075-.47.15-.83.225-.361.083-.812.128-1.353.135a5.927 5.927 0 0 1-2.48-.473 4.254 4.254 0 0 1-1.86-1.533c-.474-.692-.71-1.56-.71-2.604v-17.079Z"/><path fill="#E2E8F0" d="M1107.88 352.212H322.735v2.116h785.145v-2.116Z" mask="url(#path-12-inside-2_706_317)"/><path fill="#3F3F46" d="M325.796 440v-23.087h2.795v20.607h10.732V440h-13.527Zm22.591.406c-1.098 0-2.093-.207-2.988-.62a5.128 5.128 0 0 1-2.13-1.815c-.526-.797-.789-1.759-.789-2.886 0-.992.195-1.796.586-2.412a4.136 4.136 0 0 1 1.567-1.466 8.249 8.249 0 0 1 2.164-.789c.797-.18 1.597-.323 2.401-.428 1.052-.136 1.905-.237 2.559-.305.662-.075 1.142-.199 1.443-.372.308-.173.462-.473.462-.902v-.09c0-1.112-.304-1.976-.913-2.592-.601-.617-1.514-.925-2.739-.925-1.27 0-2.266.278-2.987.834-.722.556-1.229 1.15-1.522 1.781l-2.525-.901c.451-1.053 1.052-1.872 1.803-2.458a6.758 6.758 0 0 1 2.48-1.24c.902-.24 1.789-.361 2.661-.361.556 0 1.195.068 1.916.203a6.133 6.133 0 0 1 2.108.801c.684.405 1.251 1.018 1.702 1.837.451.819.677 1.917.677 3.292V440h-2.661v-2.345h-.135c-.18.376-.481.778-.902 1.206-.421.429-.981.793-1.679 1.094-.699.301-1.552.451-2.559.451Zm.405-2.39c1.053 0 1.939-.207 2.661-.62.729-.413 1.277-.947 1.646-1.601a4.085 4.085 0 0 0 .563-2.063v-2.435c-.112.136-.36.26-.744.372-.375.106-.811.199-1.307.282-.489.075-.966.143-1.432.203-.458.053-.83.098-1.116.135-.691.091-1.338.237-1.939.44-.594.195-1.075.492-1.443.891-.361.39-.541.924-.541 1.6 0 .925.342 1.624 1.026 2.097.691.466 1.567.699 2.626.699ZM361.179 440v-17.315h2.57v2.615h.18c.316-.857.887-1.552 1.714-2.085.826-.534 1.758-.801 2.795-.801.196 0 .44.004.733.012.293.007.515.018.665.033v2.706a7.535 7.535 0 0 0-.62-.102 6.17 6.17 0 0 0-1.003-.079c-.842 0-1.593.177-2.255.53a3.996 3.996 0 0 0-1.555 1.443c-.376.609-.564 1.304-.564 2.086V440h-2.66Zm18.273 6.854c-1.285 0-2.39-.165-3.314-.496-.925-.323-1.695-.752-2.311-1.285a7.038 7.038 0 0 1-1.455-1.691l2.12-1.488c.24.315.545.676.913 1.082.368.413.872.77 1.51 1.071.647.308 1.492.462 2.537.462 1.398 0 2.551-.338 3.461-1.014.909-.677 1.364-1.736 1.364-3.179v-3.518h-.226a14.1 14.1 0 0 1-.834 1.173c-.353.458-.864.868-1.533 1.229-.661.353-1.556.529-2.683.529-1.398 0-2.653-.33-3.765-.992-1.105-.661-1.98-1.623-2.627-2.885-.639-1.263-.958-2.796-.958-4.6 0-1.773.312-3.318.936-4.633.623-1.323 1.491-2.345 2.604-3.066 1.112-.729 2.397-1.094 3.855-1.094 1.127 0 2.022.188 2.683.564.669.368 1.18.789 1.533 1.263.361.466.639.849.834 1.149h.271v-2.75h2.57v17.811c0 1.488-.338 2.698-1.014 3.63-.669.939-1.571 1.627-2.706 2.063-1.127.443-2.382.665-3.765.665Zm-.09-9.514c1.067 0 1.969-.245 2.705-.733.737-.489 1.297-1.191 1.68-2.108s.575-2.014.575-3.292c0-1.247-.188-2.348-.564-3.303-.376-.954-.932-1.702-1.668-2.243-.737-.541-1.646-.812-2.728-.812-1.128 0-2.067.286-2.819.857-.744.571-1.303 1.338-1.679 2.3-.368.962-.553 2.029-.553 3.201 0 1.203.188 2.266.564 3.19.383.917.947 1.639 1.691 2.165.752.518 1.683.778 2.796.778Zm19.705 3.021c-1.669 0-3.108-.369-4.318-1.105-1.202-.744-2.13-1.781-2.784-3.111-.647-1.338-.97-2.894-.97-4.667 0-1.774.323-3.337.97-4.69.654-1.36 1.563-2.42 2.728-3.179 1.172-.766 2.54-1.15 4.103-1.15.902 0 1.793.151 2.672.451.879.301 1.68.789 2.401 1.466.721.669 1.296 1.555 1.725 2.66.428 1.105.642 2.465.642 4.081v1.127h-13.347v-2.299h10.642c0-.977-.196-1.849-.586-2.616a4.43 4.43 0 0 0-1.646-1.815c-.707-.443-1.541-.665-2.503-.665-1.059 0-1.976.263-2.75.789a5.189 5.189 0 0 0-1.77 2.029 5.956 5.956 0 0 0-.62 2.683v1.534c0 1.307.225 2.416.676 3.325.459.902 1.094 1.589 1.905 2.063.812.466 1.755.699 2.83.699a5.77 5.77 0 0 0 1.894-.293 4.055 4.055 0 0 0 1.476-.902c.414-.406.733-.909.959-1.511l2.57.722a5.706 5.706 0 0 1-1.364 2.3c-.639.653-1.428 1.164-2.368 1.533-.939.36-1.995.541-3.167.541Zm36.287-16.233a8.158 8.158 0 0 0-.981-2.041 6.295 6.295 0 0 0-1.431-1.555 6 6 0 0 0-1.871-.981 7.444 7.444 0 0 0-2.3-.338c-1.368 0-2.612.353-3.731 1.059-1.12.707-2.011 1.748-2.672 3.123-.662 1.375-.992 3.062-.992 5.062 0 1.999.334 3.686 1.003 5.061.669 1.375 1.575 2.416 2.717 3.123 1.142.706 2.427 1.059 3.855 1.059 1.323 0 2.488-.281 3.495-.845a5.996 5.996 0 0 0 2.367-2.413c.571-1.044.857-2.273.857-3.686l.857.181h-6.945v-2.48h8.793v2.48c0 1.901-.405 3.554-1.217 4.96a8.414 8.414 0 0 1-3.337 3.269c-1.413.766-3.036 1.15-4.87 1.15-2.044 0-3.84-.481-5.388-1.443-1.541-.962-2.743-2.33-3.608-4.104-.856-1.773-1.285-3.878-1.285-6.312 0-1.827.245-3.469.733-4.927.496-1.465 1.195-2.713 2.097-3.742a9.174 9.174 0 0 1 3.201-2.368c1.233-.548 2.589-.823 4.07-.823 1.217 0 2.352.185 3.404.553a9.14 9.14 0 0 1 2.83 1.544 8.794 8.794 0 0 1 2.085 2.379c.556.917.94 1.935 1.15 3.055h-2.886Zm10.605-7.215V440h-2.795v-23.087h2.795ZM451.565 440v-23.087h13.843v2.48H454.36v7.801h10.011v2.48H454.36V440h-2.795Zm30.535-13.437-2.39.676a4.441 4.441 0 0 0-.665-1.161c-.285-.383-.676-.699-1.172-.947-.496-.248-1.131-.372-1.905-.372-1.06 0-1.943.244-2.649.733-.699.481-1.049 1.093-1.049 1.837 0 .662.241 1.184.722 1.567s1.232.703 2.254.958l2.57.632c1.549.375 2.702.95 3.461 1.724.759.767 1.139 1.755 1.139 2.965a4.4 4.4 0 0 1-.857 2.661c-.564.781-1.353 1.397-2.367 1.848-1.015.451-2.195.677-3.54.677-1.766 0-3.228-.384-4.385-1.15-1.157-.767-1.89-1.886-2.198-3.359l2.525-.632c.24.932.695 1.631 1.364 2.097.676.466 1.559.699 2.649.699 1.24 0 2.224-.263 2.953-.789.737-.534 1.105-1.173 1.105-1.917 0-.601-.21-1.104-.631-1.51-.421-.413-1.067-.722-1.939-.924l-2.886-.677c-1.586-.376-2.751-.958-3.495-1.747-.736-.797-1.104-1.793-1.104-2.987 0-.977.274-1.842.823-2.593.556-.752 1.311-1.342 2.266-1.77.961-.428 2.051-.643 3.269-.643 1.713 0 3.058.376 4.035 1.128.985.751 1.684 1.743 2.097 2.976Zm18.344 13.843c-1.097 0-2.093-.207-2.987-.62a5.125 5.125 0 0 1-2.131-1.815c-.526-.797-.789-1.759-.789-2.886 0-.992.195-1.796.586-2.412a4.136 4.136 0 0 1 1.567-1.466 8.249 8.249 0 0 1 2.164-.789c.797-.18 1.597-.323 2.402-.428 1.052-.136 1.905-.237 2.559-.305.661-.075 1.142-.199 1.442-.372.309-.173.463-.473.463-.902v-.09c0-1.112-.305-1.976-.913-2.592-.602-.617-1.515-.925-2.74-.925-1.27 0-2.266.278-2.987.834-.722.556-1.229 1.15-1.522 1.781l-2.525-.901c.451-1.053 1.052-1.872 1.804-2.458a6.75 6.75 0 0 1 2.48-1.24 10.31 10.31 0 0 1 2.66-.361c.556 0 1.195.068 1.916.203a6.133 6.133 0 0 1 2.108.801c.684.405 1.252 1.018 1.703 1.837.451.819.676 1.917.676 3.292V440h-2.66v-2.345h-.136c-.18.376-.481.778-.901 1.206-.421.429-.981.793-1.68 1.094-.699.301-1.552.451-2.559.451Zm.406-2.39c1.052 0 1.939-.207 2.66-.62.729-.413 1.278-.947 1.646-1.601a4.077 4.077 0 0 0 .564-2.063v-2.435c-.113.136-.361.26-.744.372-.376.106-.812.199-1.308.282-.488.075-.966.143-1.432.203-.458.053-.83.098-1.116.135a10.24 10.24 0 0 0-1.939.44c-.593.195-1.074.492-1.443.891-.36.39-.541.924-.541 1.6 0 .925.342 1.624 1.026 2.097.692.466 1.567.699 2.627.699ZM513.236 440v-17.315h2.57v2.615h.18c.316-.857.887-1.552 1.714-2.085.827-.534 1.759-.801 2.796-.801.195 0 .439.004.732.012.293.007.515.018.665.033v2.706a7.455 7.455 0 0 0-.62-.102 6.161 6.161 0 0 0-1.003-.079c-.842 0-1.593.177-2.254.53a3.999 3.999 0 0 0-1.556 1.443c-.376.609-.564 1.304-.564 2.086V440h-2.66Zm18.544.361c-1.669 0-3.108-.369-4.318-1.105-1.202-.744-2.13-1.781-2.784-3.111-.646-1.338-.97-2.894-.97-4.667 0-1.774.324-3.337.97-4.69.654-1.36 1.563-2.42 2.728-3.179 1.172-.766 2.54-1.15 4.103-1.15.902 0 1.793.151 2.672.451.879.301 1.68.789 2.401 1.466.722.669 1.296 1.555 1.725 2.66.428 1.105.642 2.465.642 4.081v1.127h-13.347v-2.299h10.642c0-.977-.196-1.849-.586-2.616a4.43 4.43 0 0 0-1.646-1.815c-.707-.443-1.541-.665-2.503-.665-1.059 0-1.976.263-2.75.789a5.189 5.189 0 0 0-1.77 2.029 5.956 5.956 0 0 0-.62 2.683v1.534c0 1.307.225 2.416.676 3.325.459.902 1.094 1.589 1.905 2.063.812.466 1.755.699 2.83.699a5.77 5.77 0 0 0 1.894-.293 4.055 4.055 0 0 0 1.476-.902c.414-.406.733-.909.959-1.511l2.57.722a5.706 5.706 0 0 1-1.364 2.3c-.639.653-1.428 1.164-2.368 1.533-.939.36-1.995.541-3.167.541Zm20.144-.361v-17.315h2.661V440h-2.661Zm1.353-20.201c-.518 0-.965-.177-1.341-.53a1.704 1.704 0 0 1-.553-1.274c0-.496.185-.92.553-1.274a1.892 1.892 0 0 1 1.341-.529c.519 0 .962.176 1.33.529.376.354.564.778.564 1.274s-.188.921-.564 1.274c-.368.353-.811.53-1.33.53Zm8.841 9.785V440h-2.66v-17.315h2.57v2.705h.225a4.948 4.948 0 0 1 1.849-2.119c.827-.541 1.894-.812 3.202-.812 1.172 0 2.198.241 3.077.722.879.473 1.563 1.195 2.052 2.164.488.962.732 2.18.732 3.653V440h-2.66v-10.822c0-1.36-.353-2.42-1.06-3.179-.706-.767-1.676-1.15-2.908-1.15-.849 0-1.608.184-2.277.553-.661.368-1.184.905-1.567 1.612-.383.706-.575 1.563-.575 2.57Zm23.169 10.777c-1.669 0-3.108-.369-4.318-1.105-1.202-.744-2.13-1.781-2.784-3.111-.647-1.338-.97-2.894-.97-4.667 0-1.774.323-3.337.97-4.69.654-1.36 1.563-2.42 2.728-3.179 1.172-.766 2.54-1.15 4.103-1.15.902 0 1.792.151 2.672.451a6.624 6.624 0 0 1 2.401 1.466c.721.669 1.296 1.555 1.725 2.66.428 1.105.642 2.465.642 4.081v1.127h-13.347v-2.299h10.642c0-.977-.196-1.849-.586-2.616a4.43 4.43 0 0 0-1.646-1.815c-.707-.443-1.541-.665-2.503-.665-1.06 0-1.976.263-2.751.789a5.194 5.194 0 0 0-1.769 2.029 5.956 5.956 0 0 0-.62 2.683v1.534c0 1.307.225 2.416.676 3.325.458.902 1.093 1.589 1.905 2.063.812.466 1.755.699 2.83.699.699 0 1.33-.098 1.893-.293a4.05 4.05 0 0 0 1.477-.902 4.08 4.08 0 0 0 .958-1.511l2.571.722a5.717 5.717 0 0 1-1.364 2.3c-.639.653-1.428 1.164-2.368 1.533-.939.36-1.995.541-3.167.541Zm18.927-17.676v2.254h-9.334v-2.254h9.334ZM597.676 440v-19.705c0-.992.233-1.819.698-2.48a4.337 4.337 0 0 1 1.815-1.488 5.734 5.734 0 0 1 2.356-.496c.654 0 1.188.053 1.601.158a6.2 6.2 0 0 1 .925.293l-.767 2.299a13.507 13.507 0 0 0-.564-.169c-.233-.067-.541-.101-.924-.101-.879 0-1.514.222-1.905.665-.383.443-.575 1.094-.575 1.95V440h-2.66Zm17.977-17.315v2.254h-9.334v-2.254h9.334ZM609.115 440v-19.705c0-.992.233-1.819.699-2.48a4.337 4.337 0 0 1 1.815-1.488 5.73 5.73 0 0 1 2.356-.496c.653 0 1.187.053 1.6.158a6.2 6.2 0 0 1 .925.293l-.767 2.299a13.854 13.854 0 0 0-.563-.169c-.233-.067-.542-.101-.925-.101-.879 0-1.514.222-1.905.665-.383.443-.575 1.094-.575 1.95V440h-2.66Zm10.267 0v-17.315h2.66V440h-2.66Zm1.352-20.201c-.518 0-.965-.177-1.341-.53a1.704 1.704 0 0 1-.553-1.274c0-.496.185-.92.553-1.274a1.892 1.892 0 0 1 1.341-.529c.519 0 .962.176 1.33.529.376.354.564.778.564 1.274s-.188.921-.564 1.274c-.368.353-.811.53-1.33.53Zm13.215 20.562c-1.623 0-3.021-.384-4.194-1.15-1.172-.767-2.074-1.823-2.705-3.168-.631-1.345-.947-2.882-.947-4.61 0-1.759.323-3.311.969-4.656.654-1.353 1.564-2.409 2.729-3.168 1.172-.766 2.54-1.15 4.103-1.15 1.217 0 2.315.226 3.292.677a6.302 6.302 0 0 1 2.401 1.894c.623.811 1.01 1.758 1.161 2.84h-2.661c-.203-.789-.653-1.488-1.352-2.096-.692-.617-1.624-.925-2.796-.925-1.037 0-1.947.271-2.728.812-.774.533-1.379 1.289-1.815 2.266-.428.969-.643 2.108-.643 3.415 0 1.338.211 2.503.632 3.495.428.992 1.029 1.762 1.803 2.311.782.549 1.699.823 2.751.823.691 0 1.319-.12 1.883-.361a3.881 3.881 0 0 0 1.431-1.037c.391-.451.669-.992.834-1.623h2.661a6.184 6.184 0 0 1-1.116 2.762c-.586.811-1.364 1.458-2.334 1.939-.962.473-2.081.71-3.359.71Zm10.698-.361v-17.315h2.66V440h-2.66ZM646 419.799c-.519 0-.966-.177-1.342-.53a1.703 1.703 0 0 1-.552-1.274c0-.496.184-.92.552-1.274a1.893 1.893 0 0 1 1.342-.529c.518 0 .962.176 1.33.529.376.354.564.778.564 1.274s-.188.921-.564 1.274c-.368.353-.812.53-1.33.53Zm13.44 20.562c-1.669 0-3.108-.369-4.318-1.105-1.202-.744-2.13-1.781-2.784-3.111-.646-1.338-.97-2.894-.97-4.667 0-1.774.324-3.337.97-4.69.654-1.36 1.563-2.42 2.728-3.179 1.172-.766 2.54-1.15 4.103-1.15.902 0 1.793.151 2.672.451.879.301 1.68.789 2.401 1.466.722.669 1.296 1.555 1.725 2.66.428 1.105.642 2.465.642 4.081v1.127h-13.347v-2.299h10.642c0-.977-.196-1.849-.586-2.616a4.43 4.43 0 0 0-1.646-1.815c-.707-.443-1.541-.665-2.503-.665-1.059 0-1.976.263-2.75.789a5.189 5.189 0 0 0-1.77 2.029 5.956 5.956 0 0 0-.62 2.683v1.534c0 1.307.225 2.416.676 3.325.459.902 1.094 1.589 1.905 2.063.812.466 1.755.699 2.83.699a5.77 5.77 0 0 0 1.894-.293 4.055 4.055 0 0 0 1.476-.902c.414-.406.733-.909.959-1.511l2.57.722a5.706 5.706 0 0 1-1.364 2.3c-.639.653-1.428 1.164-2.368 1.533-.939.36-1.995.541-3.167.541Zm13.877-10.777V440h-2.661v-17.315h2.571v2.705h.225a4.948 4.948 0 0 1 1.849-2.119c.826-.541 1.894-.812 3.201-.812 1.173 0 2.198.241 3.078.722.879.473 1.563 1.195 2.051 2.164.489.962.733 2.18.733 3.653V440h-2.66v-10.822c0-1.36-.353-2.42-1.06-3.179-.706-.767-1.676-1.15-2.908-1.15-.85 0-1.609.184-2.277.553-.662.368-1.184.905-1.567 1.612-.384.706-.575 1.563-.575 2.57Zm23.439-6.899v2.254h-8.973v-2.254h8.973Zm-6.358-4.149h2.66v16.504c0 .751.109 1.315.327 1.691.226.368.511.616.857.744.353.12.725.18 1.116.18.293 0 .534-.015.722-.045l.45-.09.542 2.39a5.604 5.604 0 0 1-.756.203c-.323.075-.732.112-1.228.112a5.359 5.359 0 0 1-2.21-.484 4.387 4.387 0 0 1-1.781-1.477c-.466-.661-.699-1.496-.699-2.503v-17.225Zm26.999 4.149v2.254h-9.334v-2.254h9.334ZM710.858 440v-19.705c0-.992.233-1.819.699-2.48a4.337 4.337 0 0 1 1.815-1.488 5.734 5.734 0 0 1 2.356-.496c.654 0 1.188.053 1.601.158.413.105.721.203.924.293l-.766 2.299a13.507 13.507 0 0 0-.564-.169c-.233-.067-.541-.101-.924-.101-.88 0-1.515.222-1.905.665-.384.443-.575 1.094-.575 1.95V440h-2.661Zm16.588.361c-1.563 0-2.934-.372-4.114-1.116-1.173-.744-2.089-1.785-2.751-3.123-.654-1.338-.981-2.901-.981-4.689 0-1.804.327-3.379.981-4.724.662-1.345 1.578-2.39 2.751-3.134 1.18-.744 2.551-1.116 4.114-1.116 1.564 0 2.931.372 4.104 1.116 1.18.744 2.097 1.789 2.75 3.134.662 1.345.992 2.92.992 4.724 0 1.788-.33 3.351-.992 4.689-.653 1.338-1.57 2.379-2.75 3.123-1.173.744-2.54 1.116-4.104 1.116Zm0-2.39c1.188 0 2.165-.304 2.931-.913.767-.609 1.334-1.409 1.703-2.401.368-.992.552-2.067.552-3.224 0-1.158-.184-2.236-.552-3.236-.369-.999-.936-1.807-1.703-2.423-.766-.617-1.743-.925-2.931-.925-1.187 0-2.164.308-2.931.925-.766.616-1.334 1.424-1.702 2.423-.368 1-.552 2.078-.552 3.236 0 1.157.184 2.232.552 3.224.368.992.936 1.792 1.702 2.401.767.609 1.744.913 2.931.913ZM739.353 440v-17.315h2.571v2.615h.18c.316-.857.887-1.552 1.713-2.085.827-.534 1.759-.801 2.796-.801.196 0 .44.004.733.012.293.007.515.018.665.033v2.706a7.535 7.535 0 0 0-.62-.102 6.17 6.17 0 0 0-1.003-.079c-.842 0-1.594.177-2.255.53a4.006 4.006 0 0 0-1.556 1.443c-.375.609-.563 1.304-.563 2.086V440h-2.661Zm27.278.361c-1.443 0-2.717-.365-3.822-1.094-1.104-.736-1.969-1.773-2.592-3.111-.624-1.345-.936-2.935-.936-4.768 0-1.819.312-3.397.936-4.735.623-1.338 1.492-2.371 2.604-3.1 1.112-.729 2.397-1.094 3.855-1.094 1.127 0 2.018.188 2.672.564.661.368 1.165.789 1.51 1.263.354.466.628.849.823 1.149h.226v-8.522h2.66V440h-2.57v-2.66h-.316c-.195.315-.473.714-.834 1.195-.361.473-.875.898-1.544 1.273-.669.369-1.56.553-2.672.553Zm.361-2.39c1.067 0 1.969-.278 2.705-.834.737-.564 1.297-1.342 1.68-2.334.383-.999.575-2.153.575-3.461 0-1.292-.188-2.423-.564-3.393-.376-.977-.932-1.736-1.668-2.277-.737-.548-1.646-.823-2.728-.823-1.128 0-2.067.29-2.818.868-.744.571-1.304 1.349-1.68 2.334-.368.977-.553 2.074-.553 3.291 0 1.233.188 2.353.564 3.36.383.999.947 1.796 1.691 2.39.752.586 1.683.879 2.796.879Zm20.077 2.39c-1.669 0-3.108-.369-4.318-1.105-1.202-.744-2.13-1.781-2.784-3.111-.646-1.338-.97-2.894-.97-4.667 0-1.774.324-3.337.97-4.69.654-1.36 1.563-2.42 2.728-3.179 1.172-.766 2.54-1.15 4.103-1.15.902 0 1.793.151 2.672.451.879.301 1.68.789 2.401 1.466.722.669 1.296 1.555 1.725 2.66.428 1.105.642 2.465.642 4.081v1.127h-13.347v-2.299h10.642c0-.977-.196-1.849-.586-2.616a4.43 4.43 0 0 0-1.646-1.815c-.707-.443-1.541-.665-2.503-.665-1.059 0-1.976.263-2.75.789a5.189 5.189 0 0 0-1.77 2.029 5.956 5.956 0 0 0-.62 2.683v1.534c0 1.307.225 2.416.676 3.325.459.902 1.094 1.589 1.905 2.063.812.466 1.755.699 2.83.699a5.77 5.77 0 0 0 1.894-.293 4.055 4.055 0 0 0 1.476-.902c.414-.406.733-.909.959-1.511l2.57.722a5.706 5.706 0 0 1-1.364 2.3c-.639.653-1.428 1.164-2.368 1.533-.939.36-1.995.541-3.167.541Zm13.877-23.448V440h-2.661v-23.087h2.661ZM805.818 440v-17.315h2.661V440h-2.661Zm1.353-20.201c-.518 0-.966-.177-1.341-.53a1.7 1.7 0 0 1-.553-1.274c0-.496.184-.92.553-1.274a1.89 1.89 0 0 1 1.341-.529c.519 0 .962.176 1.33.529.376.354.564.778.564 1.274s-.188.921-.564 1.274c-.368.353-.811.53-1.33.53Zm20.339 2.886L821.107 440h-2.705l-6.403-17.315h2.886l4.779 13.798h.181l4.779-13.798h2.886Zm10.152 17.676c-1.669 0-3.108-.369-4.318-1.105-1.202-.744-2.131-1.781-2.784-3.111-.647-1.338-.97-2.894-.97-4.667 0-1.774.323-3.337.97-4.69.653-1.36 1.563-2.42 2.728-3.179 1.172-.766 2.54-1.15 4.103-1.15.902 0 1.792.151 2.672.451a6.624 6.624 0 0 1 2.401 1.466c.721.669 1.296 1.555 1.725 2.66.428 1.105.642 2.465.642 4.081v1.127h-13.347v-2.299h10.642c0-.977-.196-1.849-.587-2.616a4.42 4.42 0 0 0-1.645-1.815c-.707-.443-1.541-.665-2.503-.665-1.06 0-1.976.263-2.751.789a5.194 5.194 0 0 0-1.769 2.029 5.956 5.956 0 0 0-.62 2.683v1.534c0 1.307.225 2.416.676 3.325.458.902 1.093 1.589 1.905 2.063.812.466 1.755.699 2.83.699.699 0 1.33-.098 1.893-.293a4.05 4.05 0 0 0 1.477-.902 4.08 4.08 0 0 0 .958-1.511l2.571.722a5.717 5.717 0 0 1-1.364 2.3c-.639.653-1.428 1.164-2.368 1.533-.939.36-1.995.541-3.167.541Zm11.216-.361v-17.315h2.57v2.615h.181c.315-.857.887-1.552 1.713-2.085.827-.534 1.759-.801 2.796-.801.195 0 .44.004.733.012.293.007.514.018.665.033v2.706a7.535 7.535 0 0 0-.62-.102 6.174 6.174 0 0 0-1.004-.079c-.841 0-1.593.177-2.254.53a3.999 3.999 0 0 0-1.556 1.443c-.376.609-.563 1.304-.563 2.086V440h-2.661Zm11.811 0v-17.315h2.661V440h-2.661Zm1.353-20.201a1.89 1.89 0 0 1-1.341-.53 1.7 1.7 0 0 1-.553-1.274c0-.496.184-.92.553-1.274a1.889 1.889 0 0 1 1.341-.529c.519 0 .962.176 1.33.529.376.354.564.778.564 1.274s-.188.921-.564 1.274c-.368.353-.811.53-1.33.53Zm8.841 9.785V440h-2.661v-17.315h2.571v2.705h.225a4.948 4.948 0 0 1 1.849-2.119c.827-.541 1.894-.812 3.201-.812 1.173 0 2.199.241 3.078.722.879.473 1.563 1.195 2.052 2.164.488.962.732 2.18.732 3.653V440h-2.66v-10.822c0-1.36-.353-2.42-1.06-3.179-.706-.767-1.676-1.15-2.908-1.15-.849 0-1.608.184-2.277.553-.662.368-1.184.905-1.567 1.612-.384.706-.575 1.563-.575 2.57Zm22.898 17.27c-1.285 0-2.39-.165-3.314-.496-.925-.323-1.695-.752-2.311-1.285a7.01 7.01 0 0 1-1.454-1.691l2.119-1.488c.24.315.545.676.913 1.082.368.413.872.77 1.51 1.071.647.308 1.492.462 2.537.462 1.398 0 2.551-.338 3.461-1.014.909-.677 1.364-1.736 1.364-3.179v-3.518h-.226a14.1 14.1 0 0 1-.834 1.173c-.353.458-.864.868-1.533 1.229-.661.353-1.556.529-2.683.529-1.398 0-2.653-.33-3.765-.992-1.105-.661-1.98-1.623-2.627-2.885-.639-1.263-.958-2.796-.958-4.6 0-1.773.312-3.318.936-4.633.623-1.323 1.491-2.345 2.604-3.066 1.112-.729 2.397-1.094 3.855-1.094 1.127 0 2.022.188 2.683.564.669.368 1.18.789 1.533 1.263.361.466.639.849.834 1.149h.271v-2.75h2.57v17.811c0 1.488-.338 2.698-1.014 3.63-.669.939-1.571 1.627-2.706 2.063-1.127.443-2.382.665-3.765.665Zm-.09-9.514c1.067 0 1.969-.245 2.705-.733.737-.489 1.297-1.191 1.68-2.108s.575-2.014.575-3.292c0-1.247-.188-2.348-.564-3.303-.376-.954-.932-1.702-1.668-2.243-.737-.541-1.646-.812-2.728-.812-1.128 0-2.067.286-2.819.857-.744.571-1.303 1.338-1.679 2.3-.368.962-.553 2.029-.553 3.201 0 1.203.188 2.266.564 3.19.383.917.947 1.639 1.691 2.165.752.518 1.683.778 2.796.778Zm26.469 3.066c-1.098 0-2.093-.207-2.988-.62a5.128 5.128 0 0 1-2.13-1.815c-.526-.797-.789-1.759-.789-2.886 0-.992.195-1.796.586-2.412a4.129 4.129 0 0 1 1.567-1.466 8.236 8.236 0 0 1 2.164-.789c.797-.18 1.597-.323 2.401-.428 1.052-.136 1.905-.237 2.559-.305.661-.075 1.142-.199 1.443-.372.308-.173.462-.473.462-.902v-.09c0-1.112-.304-1.976-.913-2.592-.601-.617-1.514-.925-2.739-.925-1.27 0-2.266.278-2.988.834-.721.556-1.228 1.15-1.521 1.781l-2.525-.901c.45-1.053 1.052-1.872 1.803-2.458a6.758 6.758 0 0 1 2.48-1.24c.902-.24 1.789-.361 2.661-.361.556 0 1.195.068 1.916.203a6.133 6.133 0 0 1 2.108.801c.684.405 1.251 1.018 1.702 1.837.451.819.677 1.917.677 3.292V440h-2.661v-2.345h-.135c-.18.376-.481.778-.902 1.206-.421.429-.981.793-1.68 1.094-.698.301-1.551.451-2.558.451Zm.405-2.39c1.052 0 1.939-.207 2.661-.62.729-.413 1.277-.947 1.646-1.601a4.085 4.085 0 0 0 .563-2.063v-2.435c-.112.136-.361.26-.744.372-.376.106-.811.199-1.307.282-.489.075-.966.143-1.432.203-.459.053-.831.098-1.116.135-.692.091-1.338.237-1.939.44-.594.195-1.075.492-1.443.891-.361.39-.541.924-.541 1.6 0 .925.342 1.624 1.026 2.097.691.466 1.567.699 2.626.699Zm15.047-8.432V440h-2.661v-17.315h2.571v2.705h.225a4.948 4.948 0 0 1 1.849-2.119c.827-.541 1.894-.812 3.201-.812 1.173 0 2.199.241 3.078.722.879.473 1.563 1.195 2.052 2.164.488.962.732 2.18.732 3.653V440h-2.66v-10.822c0-1.36-.353-2.42-1.06-3.179-.706-.767-1.676-1.15-2.908-1.15-.849 0-1.608.184-2.277.553-.662.368-1.184.905-1.567 1.612-.384.706-.575 1.563-.575 2.57ZM951.521 440v-17.315h2.66V440h-2.66Zm1.352-20.201c-.518 0-.965-.177-1.341-.53a1.703 1.703 0 0 1-.552-1.274c0-.496.184-.92.552-1.274a1.892 1.892 0 0 1 1.341-.529c.519 0 .962.176 1.331.529.375.354.563.778.563 1.274s-.188.921-.563 1.274c-.369.353-.812.53-1.331.53ZM959.054 440v-17.315h2.57v2.705h.226c.36-.924.943-1.642 1.747-2.153.804-.518 1.77-.778 2.897-.778 1.142 0 2.093.26 2.852.778.767.511 1.364 1.229 1.792 2.153h.181a5.04 5.04 0 0 1 1.995-2.13c.887-.534 1.95-.801 3.19-.801 1.548 0 2.815.485 3.799 1.455.985.962 1.477 2.461 1.477 4.497V440h-2.66v-11.589c0-1.277-.35-2.19-1.049-2.739-.699-.548-1.522-.823-2.469-.823-1.217 0-2.16.368-2.829 1.105-.669.729-1.003 1.653-1.003 2.773V440h-2.706v-11.859c0-.985-.319-1.777-.958-2.379-.639-.608-1.462-.913-2.469-.913-.691 0-1.337.184-1.939.553a4.18 4.18 0 0 0-1.443 1.533c-.36.646-.541 1.394-.541 2.243V440h-2.66Zm32.686.406c-1.098 0-2.093-.207-2.988-.62a5.128 5.128 0 0 1-2.13-1.815c-.526-.797-.789-1.759-.789-2.886 0-.992.195-1.796.586-2.412a4.136 4.136 0 0 1 1.567-1.466 8.249 8.249 0 0 1 2.164-.789c.797-.18 1.597-.323 2.401-.428 1.052-.136 1.905-.237 2.559-.305.662-.075 1.143-.199 1.443-.372.308-.173.462-.473.462-.902v-.09c0-1.112-.304-1.976-.913-2.592-.601-.617-1.514-.925-2.739-.925-1.27 0-2.266.278-2.987.834-.722.556-1.229 1.15-1.522 1.781l-2.525-.901c.451-1.053 1.052-1.872 1.803-2.458a6.758 6.758 0 0 1 2.48-1.24c.902-.24 1.789-.361 2.661-.361.556 0 1.195.068 1.916.203a6.133 6.133 0 0 1 2.108.801c.684.405 1.251 1.018 1.702 1.837.451.819.677 1.917.677 3.292V440h-2.661v-2.345h-.135c-.18.376-.481.778-.902 1.206-.421.429-.98.793-1.679 1.094-.699.301-1.552.451-2.559.451Zm.405-2.39c1.053 0 1.939-.207 2.661-.62.729-.413 1.277-.947 1.646-1.601a4.085 4.085 0 0 0 .563-2.063v-2.435c-.112.136-.36.26-.744.372-.375.106-.811.199-1.307.282-.489.075-.966.143-1.432.203-.458.053-.83.098-1.116.135-.691.091-1.338.237-1.939.44-.594.195-1.075.492-1.443.891-.361.39-.541.924-.541 1.6 0 .925.342 1.624 1.026 2.097.691.466 1.567.699 2.626.699Zm19.915-15.331v2.254h-8.97v-2.254h8.97Zm-6.36-4.149h2.66v16.504c0 .751.11 1.315.33 1.691.23.368.51.616.86.744.35.12.72.18 1.11.18.3 0 .54-.015.73-.045l.45-.09.54 2.39c-.18.067-.43.135-.76.203-.32.075-.73.112-1.23.112-.75 0-1.48-.161-2.21-.484a4.457 4.457 0 0 1-1.78-1.477c-.46-.661-.7-1.496-.7-2.503v-17.225Zm17.44 21.825c-1.67 0-3.11-.369-4.32-1.105-1.2-.744-2.13-1.781-2.78-3.111-.65-1.338-.97-2.894-.97-4.667 0-1.774.32-3.337.97-4.69.65-1.36 1.56-2.42 2.72-3.179 1.18-.766 2.54-1.15 4.11-1.15.9 0 1.79.151 2.67.451.88.301 1.68.789 2.4 1.466.72.669 1.3 1.555 1.72 2.66.43 1.105.65 2.465.65 4.081v1.127h-13.35v-2.299h10.64c0-.977-.19-1.849-.58-2.616a4.508 4.508 0 0 0-1.65-1.815c-.71-.443-1.54-.665-2.5-.665-1.06 0-1.98.263-2.75.789a5.142 5.142 0 0 0-1.77 2.029 5.879 5.879 0 0 0-.62 2.683v1.534c0 1.307.22 2.416.67 3.325.46.902 1.1 1.589 1.91 2.063.81.466 1.75.699 2.83.699.7 0 1.33-.098 1.89-.293a4.14 4.14 0 0 0 1.48-.902 4.2 4.2 0 0 0 .96-1.511l2.57.722a5.696 5.696 0 0 1-1.37 2.3c-.64.653-1.43 1.164-2.36 1.533-.94.36-2 .541-3.17.541Zm17.75 0c-1.44 0-2.71-.365-3.82-1.094-1.1-.736-1.97-1.773-2.59-3.111-.63-1.345-.94-2.935-.94-4.768 0-1.819.31-3.397.94-4.735.62-1.338 1.49-2.371 2.6-3.1 1.11-.729 2.4-1.094 3.86-1.094 1.12 0 2.02.188 2.67.564.66.368 1.16.789 1.51 1.263.35.466.63.849.82 1.149h.23v-8.522h2.66V440h-2.57v-2.66h-.32c-.19.315-.47.714-.83 1.195-.36.473-.88.898-1.55 1.273-.66.369-1.56.553-2.67.553Zm.36-2.39c1.07 0 1.97-.278 2.71-.834.74-.564 1.29-1.342 1.68-2.334.38-.999.57-2.153.57-3.461 0-1.292-.18-2.423-.56-3.393-.38-.977-.93-1.736-1.67-2.277-.74-.548-1.64-.823-2.73-.823-1.12 0-2.06.29-2.82.868-.74.571-1.3 1.349-1.67 2.334-.37.977-.56 2.074-.56 3.291 0 1.233.19 2.353.57 3.36.38.999.94 1.796 1.69 2.39.75.586 1.68.879 2.79.879Zm28.78 2.39c-1.62 0-3.02-.384-4.19-1.15-1.17-.767-2.07-1.823-2.71-3.168-.63-1.345-.94-2.882-.94-4.61 0-1.759.32-3.311.97-4.656.65-1.353 1.56-2.409 2.72-3.168 1.18-.766 2.54-1.15 4.11-1.15 1.22 0 2.31.226 3.29.677.98.451 1.78 1.082 2.4 1.894.62.811 1.01 1.758 1.16 2.84h-2.66c-.2-.789-.65-1.488-1.35-2.096-.69-.617-1.62-.925-2.8-.925-1.03 0-1.94.271-2.73.812-.77.533-1.37 1.289-1.81 2.266-.43.969-.64 2.108-.64 3.415 0 1.338.21 2.503.63 3.495.43.992 1.03 1.762 1.8 2.311.78.549 1.7.823 2.75.823.69 0 1.32-.12 1.89-.361.56-.24 1.04-.586 1.43-1.037.39-.451.67-.992.83-1.623h2.66a6.198 6.198 0 0 1-1.11 2.762c-.59.811-1.37 1.458-2.34 1.939-.96.473-2.08.71-3.36.71Zm17.74 0c-1.57 0-2.94-.372-4.12-1.116-1.17-.744-2.09-1.785-2.75-3.123-.65-1.338-.98-2.901-.98-4.689 0-1.804.33-3.379.98-4.724.66-1.345 1.58-2.39 2.75-3.134 1.18-.744 2.55-1.116 4.12-1.116 1.56 0 2.93.372 4.1 1.116 1.18.744 2.1 1.789 2.75 3.134.66 1.345.99 2.92.99 4.724 0 1.788-.33 3.351-.99 4.689-.65 1.338-1.57 2.379-2.75 3.123-1.17.744-2.54 1.116-4.1 1.116Zm0-2.39c1.18 0 2.16-.304 2.93-.913.76-.609 1.33-1.409 1.7-2.401.37-.992.55-2.067.55-3.224 0-1.158-.18-2.236-.55-3.236-.37-.999-.94-1.807-1.7-2.423-.77-.617-1.75-.925-2.93-.925-1.19 0-2.17.308-2.94.925-.76.616-1.33 1.424-1.7 2.423-.37 1-.55 2.078-.55 3.236 0 1.157.18 2.232.55 3.224.37.992.94 1.792 1.7 2.401.77.609 1.75.913 2.94.913Zm14.56-8.387V440h-2.66v-17.315h2.57v2.705h.23a4.892 4.892 0 0 1 1.85-2.119c.82-.541 1.89-.812 3.2-.812 1.17 0 2.2.241 3.08.722.87.473 1.56 1.195 2.05 2.164.49.962.73 2.18.73 3.653V440h-2.66v-10.822c0-1.36-.35-2.42-1.06-3.179-.71-.767-1.68-1.15-2.91-1.15-.85 0-1.61.184-2.28.553-.66.368-1.18.905-1.56 1.612-.39.706-.58 1.563-.58 2.57Zm23.44-6.899v2.254h-8.97v-2.254h8.97Zm-6.36-4.149h2.66v16.504c0 .751.11 1.315.33 1.691.23.368.51.616.86.744.35.12.72.18 1.11.18.3 0 .54-.015.73-.045l.45-.09.54 2.39c-.18.067-.43.135-.76.203-.32.075-.73.112-1.23.112-.75 0-1.48-.161-2.21-.484a4.457 4.457 0 0 1-1.78-1.477c-.46-.661-.7-1.496-.7-2.503v-17.225Zm17.44 21.825c-1.67 0-3.11-.369-4.32-1.105-1.2-.744-2.13-1.781-2.78-3.111-.65-1.338-.97-2.894-.97-4.667 0-1.774.32-3.337.97-4.69.65-1.36 1.56-2.42 2.72-3.179 1.18-.766 2.54-1.15 4.11-1.15.9 0 1.79.151 2.67.451.88.301 1.68.789 2.4 1.466.72.669 1.3 1.555 1.72 2.66.43 1.105.65 2.465.65 4.081v1.127h-13.35v-2.299h10.64c0-.977-.19-1.849-.58-2.616a4.508 4.508 0 0 0-1.65-1.815c-.71-.443-1.54-.665-2.5-.665-1.06 0-1.98.263-2.75.789a5.142 5.142 0 0 0-1.77 2.029 5.879 5.879 0 0 0-.62 2.683v1.534c0 1.307.22 2.416.67 3.325.46.902 1.1 1.589 1.91 2.063.81.466 1.75.699 2.83.699.7 0 1.33-.098 1.89-.293a4.14 4.14 0 0 0 1.48-.902 4.2 4.2 0 0 0 .96-1.511l2.57.722a5.696 5.696 0 0 1-1.37 2.3c-.64.653-1.43 1.164-2.37 1.533-.93.36-1.99.541-3.16.541Zm13.87-10.777V440h-2.66v-17.315h2.57v2.705h.23a4.957 4.957 0 0 1 1.85-2.119c.82-.541 1.89-.812 3.2-.812 1.17 0 2.2.241 3.08.722.88.473 1.56 1.195 2.05 2.164.49.962.73 2.18.73 3.653V440h-2.66v-10.822c0-1.36-.35-2.42-1.06-3.179-.7-.767-1.67-1.15-2.91-1.15-.85 0-1.61.184-2.27.553-.67.368-1.19.905-1.57 1.612-.38.706-.58 1.563-.58 2.57Zm23.44-6.899v2.254h-8.97v-2.254h8.97Zm-6.35-4.149h2.66v16.504c0 .751.1 1.315.32 1.691.23.368.51.616.86.744.35.12.72.18 1.12.18.29 0 .53-.015.72-.045l.45-.09.54 2.39c-.18.067-.43.135-.76.203-.32.075-.73.112-1.23.112-.75 0-1.48-.161-2.2-.484a4.42 4.42 0 0 1-1.79-1.477c-.46-.661-.69-1.496-.69-2.503v-17.225Zm12.29 21.644c-.55 0-1.03-.199-1.43-.597a1.94 1.94 0 0 1-.59-1.432c0-.556.19-1.033.59-1.431.4-.399.88-.598 1.43-.598.56 0 1.04.199 1.44.598.39.398.59.875.59 1.431 0 .368-.09.707-.28 1.015-.18.308-.42.556-.73.744-.3.18-.64.27-1.02.27Zm-835.727 43.948h-2.795c-.166-.804-.455-1.511-.868-2.12a5.806 5.806 0 0 0-1.488-1.533 6.336 6.336 0 0 0-1.928-.947 7.71 7.71 0 0 0-2.209-.315c-1.398 0-2.665.353-3.799 1.059-1.128.707-2.026 1.748-2.695 3.123-.661 1.375-.992 3.062-.992 5.062 0 1.999.331 3.686.992 5.061.669 1.375 1.567 2.416 2.695 3.123 1.134.706 2.401 1.059 3.799 1.059a7.71 7.71 0 0 0 2.209-.315 6.5 6.5 0 0 0 1.928-.936 5.958 5.958 0 0 0 1.488-1.544 5.946 5.946 0 0 0 .868-2.12h2.795c-.21 1.18-.593 2.236-1.149 3.168a8.673 8.673 0 0 1-2.075 2.379 9.07 9.07 0 0 1-2.784 1.476 10.356 10.356 0 0 1-3.28.508c-1.969 0-3.721-.481-5.254-1.443-1.533-.962-2.739-2.33-3.618-4.104-.88-1.773-1.319-3.878-1.319-6.312 0-2.435.439-4.54 1.319-6.313.879-1.774 2.085-3.142 3.618-4.104 1.533-.962 3.285-1.443 5.254-1.443 1.164 0 2.258.17 3.28.508a8.93 8.93 0 0 1 2.784 1.488 8.508 8.508 0 0 1 2.075 2.367c.556.924.939 1.98 1.149 3.168Zm11.192 16.233c-1.564 0-2.935-.372-4.115-1.116-1.172-.744-2.089-1.785-2.751-3.123-.653-1.338-.98-2.901-.98-4.689 0-1.804.327-3.379.98-4.724.662-1.345 1.579-2.39 2.751-3.134 1.18-.744 2.551-1.116 4.115-1.116 1.563 0 2.931.372 4.103 1.116 1.18.744 2.097 1.789 2.751 3.134.661 1.345.992 2.92.992 4.724 0 1.788-.331 3.351-.992 4.689-.654 1.338-1.571 2.379-2.751 3.123-1.172.744-2.54 1.116-4.103 1.116Zm0-2.39c1.187 0 2.164-.304 2.931-.913.766-.609 1.334-1.409 1.702-2.401.368-.992.552-2.067.552-3.224 0-1.158-.184-2.236-.552-3.236-.368-.999-.936-1.807-1.702-2.423-.767-.617-1.744-.925-2.931-.925-1.188 0-2.165.308-2.931.925-.767.616-1.334 1.424-1.703 2.423-.368 1-.552 2.078-.552 3.236 0 1.157.184 2.232.552 3.224.369.992.936 1.792 1.703 2.401.766.609 1.743.913 2.931.913Zm14.567-8.387V500h-2.66v-17.315h2.57v2.705h.225a4.948 4.948 0 0 1 1.849-2.119c.827-.541 1.894-.812 3.202-.812 1.172 0 2.198.241 3.077.722.879.473 1.563 1.195 2.052 2.164.488.962.732 2.18.732 3.653V500h-2.66v-10.822c0-1.36-.353-2.42-1.06-3.179-.706-.767-1.676-1.15-2.908-1.15-.849 0-1.608.184-2.277.553-.661.368-1.184.905-1.567 1.612-.383.706-.575 1.563-.575 2.57Zm28.174-3.021-2.39.676a4.441 4.441 0 0 0-.665-1.161c-.286-.383-.677-.699-1.173-.947s-1.131-.372-1.905-.372c-1.059 0-1.942.244-2.649.733-.699.481-1.048 1.093-1.048 1.837 0 .662.24 1.184.721 1.567s1.233.703 2.255.958l2.57.632c1.548.375 2.702.95 3.461 1.724.759.767 1.138 1.755 1.138 2.965 0 .992-.285 1.879-.856 2.661-.564.781-1.353 1.397-2.368 1.848-1.014.451-2.194.677-3.539.677-1.766 0-3.228-.384-4.385-1.15-1.158-.767-1.891-1.886-2.199-3.359l2.525-.632c.241.932.696 1.631 1.364 2.097.677.466 1.56.699 2.65.699 1.24 0 2.224-.263 2.953-.789.737-.534 1.105-1.173 1.105-1.917 0-.601-.211-1.104-.631-1.51-.421-.413-1.068-.722-1.939-.924l-2.886-.677c-1.586-.376-2.751-.958-3.495-1.747-.736-.797-1.105-1.793-1.105-2.987 0-.977.275-1.842.823-2.593.556-.752 1.312-1.342 2.266-1.77.962-.428 2.052-.643 3.269-.643 1.714 0 3.059.376 4.036 1.128.985.751 1.683 1.743 2.097 2.976Zm4.32 13.437v-17.315h2.661V500h-2.661Zm1.353-20.201c-.519 0-.966-.177-1.342-.53a1.703 1.703 0 0 1-.552-1.274c0-.496.184-.92.552-1.274a1.893 1.893 0 0 1 1.342-.529c.518 0 .962.176 1.33.529.376.354.564.778.564 1.274s-.188.921-.564 1.274c-.368.353-.812.53-1.33.53Zm12.719 20.562c-1.443 0-2.717-.365-3.822-1.094-1.105-.736-1.969-1.773-2.593-3.111-.623-1.345-.935-2.935-.935-4.768 0-1.819.312-3.397.935-4.735.624-1.338 1.492-2.371 2.604-3.1 1.113-.729 2.398-1.094 3.856-1.094 1.127 0 2.017.188 2.671.564.662.368 1.165.789 1.511 1.263.353.466.627.849.823 1.149h.225v-8.522h2.661V500h-2.571v-2.66h-.315c-.196.315-.474.714-.834 1.195-.361.473-.876.898-1.545 1.273-.669.369-1.559.553-2.671.553Zm.36-2.39c1.067 0 1.969-.278 2.706-.834.736-.564 1.296-1.342 1.679-2.334.384-.999.575-2.153.575-3.461 0-1.292-.188-2.423-.563-3.393-.376-.977-.932-1.736-1.669-2.277-.736-.548-1.646-.823-2.728-.823-1.127 0-2.066.29-2.818.868-.744.571-1.304 1.349-1.68 2.334-.368.977-.552 2.074-.552 3.291 0 1.233.188 2.353.564 3.36.383.999.947 1.796 1.691 2.39.751.586 1.683.879 2.795.879Zm20.077 2.39c-1.668 0-3.107-.369-4.317-1.105-1.203-.744-2.131-1.781-2.785-3.111-.646-1.338-.969-2.894-.969-4.667 0-1.774.323-3.337.969-4.69.654-1.36 1.564-2.42 2.728-3.179 1.173-.766 2.541-1.15 4.104-1.15.902 0 1.792.151 2.671.451a6.62 6.62 0 0 1 2.402 1.466c.721.669 1.296 1.555 1.724 2.66.429 1.105.643 2.465.643 4.081v1.127h-13.347v-2.299h10.641c0-.977-.195-1.849-.586-2.616a4.423 4.423 0 0 0-1.646-1.815c-.706-.443-1.54-.665-2.502-.665-1.06 0-1.977.263-2.751.789a5.205 5.205 0 0 0-1.77 2.029 5.97 5.97 0 0 0-.62 2.683v1.534c0 1.307.226 2.416.677 3.325.458.902 1.093 1.589 1.905 2.063.811.466 1.755.699 2.829.699.699 0 1.331-.098 1.894-.293a4.06 4.06 0 0 0 1.477-.902c.413-.406.733-.909.958-1.511l2.57.722a5.694 5.694 0 0 1-1.364 2.3c-.638.653-1.428 1.164-2.367 1.533-.939.36-1.995.541-3.168.541Zm11.217-.361v-17.315h2.57v2.615h.18c.316-.857.887-1.552 1.714-2.085.827-.534 1.759-.801 2.796-.801.195 0 .439.004.732.012.293.007.515.018.665.033v2.706a7.455 7.455 0 0 0-.62-.102 6.161 6.161 0 0 0-1.003-.079c-.842 0-1.593.177-2.254.53a3.999 3.999 0 0 0-1.556 1.443c-.376.609-.564 1.304-.564 2.086V500h-2.66Zm31.651-7.079v-10.236h2.661V500h-2.661v-2.931h-.18c-.406.879-1.037 1.627-1.894 2.243-.857.609-1.939.913-3.246.913-1.083 0-2.045-.236-2.886-.71-.842-.481-1.503-1.202-1.984-2.164-.481-.97-.722-2.191-.722-3.664v-11.002h2.661v10.822c0 1.262.353 2.269 1.059 3.021.714.751 1.624 1.127 2.728 1.127.662 0 1.334-.169 2.018-.507.692-.338 1.27-.857 1.736-1.556.474-.699.71-1.589.71-2.671Zm19.798-6.358-2.389.676a4.445 4.445 0 0 0-.666-1.161c-.285-.383-.676-.699-1.172-.947-.496-.248-1.131-.372-1.905-.372-1.06 0-1.943.244-2.649.733-.699.481-1.049 1.093-1.049 1.837 0 .662.241 1.184.722 1.567s1.232.703 2.254.958l2.571.632c1.548.375 2.701.95 3.46 1.724.76.767 1.139 1.755 1.139 2.965a4.4 4.4 0 0 1-.857 2.661c-.563.781-1.352 1.397-2.367 1.848-1.015.451-2.194.677-3.54.677-1.766 0-3.228-.384-4.385-1.15-1.157-.767-1.89-1.886-2.198-3.359l2.525-.632c.241.932.695 1.631 1.364 2.097.676.466 1.559.699 2.649.699 1.24 0 2.225-.263 2.954-.789.736-.534 1.104-1.173 1.104-1.917 0-.601-.21-1.104-.631-1.51-.421-.413-1.067-.722-1.939-.924l-2.886-.677c-1.585-.376-2.75-.958-3.494-1.747-.737-.797-1.105-1.793-1.105-2.987 0-.977.274-1.842.823-2.593.556-.752 1.311-1.342 2.266-1.77.962-.428 2.051-.643 3.269-.643 1.713 0 3.059.376 4.036 1.128.984.751 1.683 1.743 2.096 2.976ZM504.122 500v-17.315h2.66V500h-2.66Zm1.352-20.201c-.518 0-.965-.177-1.341-.53a1.703 1.703 0 0 1-.552-1.274c0-.496.184-.92.552-1.274a1.892 1.892 0 0 1 1.341-.529c.519 0 .962.176 1.331.529.375.354.563.778.563 1.274s-.188.921-.563 1.274c-.369.353-.812.53-1.331.53Zm8.841 9.785V500h-2.66v-17.315h2.57v2.705h.226a4.945 4.945 0 0 1 1.848-2.119c.827-.541 1.894-.812 3.202-.812 1.172 0 2.198.241 3.077.722.88.473 1.563 1.195 2.052 2.164.488.962.733 2.18.733 3.653V500h-2.661v-10.822c0-1.36-.353-2.42-1.059-3.179-.707-.767-1.676-1.15-2.909-1.15-.849 0-1.608.184-2.277.553-.661.368-1.184.905-1.567 1.612-.383.706-.575 1.563-.575 2.57Zm22.898 17.27c-1.285 0-2.39-.165-3.314-.496-.924-.323-1.695-.752-2.311-1.285a7.033 7.033 0 0 1-1.454-1.691l2.119-1.488c.241.315.545.676.913 1.082.369.413.872.77 1.511 1.071.646.308 1.492.462 2.536.462 1.398 0 2.552-.338 3.461-1.014.909-.677 1.364-1.736 1.364-3.179v-3.518h-.225a14.39 14.39 0 0 1-.835 1.173c-.353.458-.864.868-1.533 1.229-.661.353-1.555.529-2.683.529-1.397 0-2.652-.33-3.765-.992-1.104-.661-1.98-1.623-2.626-2.885-.639-1.263-.959-2.796-.959-4.6 0-1.773.312-3.318.936-4.633.624-1.323 1.492-2.345 2.604-3.066 1.112-.729 2.398-1.094 3.856-1.094 1.127 0 2.021.188 2.682.564.669.368 1.18.789 1.534 1.263.36.466.638.849.834 1.149h.27v-2.75h2.571v17.811c0 1.488-.339 2.698-1.015 3.63-.669.939-1.571 1.627-2.706 2.063-1.127.443-2.382.665-3.765.665Zm-.09-9.514c1.067 0 1.969-.245 2.706-.733.736-.489 1.296-1.191 1.679-2.108.384-.917.575-2.014.575-3.292 0-1.247-.188-2.348-.563-3.303-.376-.954-.932-1.702-1.669-2.243-.736-.541-1.646-.812-2.728-.812-1.127 0-2.067.286-2.818.857-.744.571-1.304 1.338-1.68 2.3-.368.962-.552 2.029-.552 3.201 0 1.203.188 2.266.564 3.19.383.917.946 1.639 1.69 2.165.752.518 1.684.778 2.796.778Zm21.734-20.427h3.337l7.846 19.164h.271l7.846-19.164h3.336V500h-2.615v-17.541h-.225L571.438 500h-2.525l-7.215-17.541h-.225V500h-2.616v-23.087ZM587.099 500v-23.087h7.801c1.811 0 3.291.327 4.441.981 1.157.646 2.014 1.522 2.57 2.626.556 1.105.835 2.338.835 3.698 0 1.36-.279 2.596-.835 3.709-.548 1.112-1.397 1.999-2.547 2.66-1.15.654-2.623.981-4.419.981h-5.592v-2.48h5.502c1.24 0 2.235-.214 2.987-.643.751-.428 1.296-1.007 1.634-1.736.346-.736.519-1.567.519-2.491 0-.924-.173-1.751-.519-2.48-.338-.729-.886-1.3-1.645-1.714-.759-.42-1.767-.631-3.022-.631h-4.915V500h-2.795Zm20.15 0v-23.087h13.933v2.48h-11.137v7.801h10.416v2.48h-10.416v7.846h11.318V500h-14.114Zm34.754-15.872a8.156 8.156 0 0 0-.98-2.041 6.318 6.318 0 0 0-1.432-1.555 5.989 5.989 0 0 0-1.871-.981 7.444 7.444 0 0 0-2.3-.338c-1.368 0-2.611.353-3.731 1.059-1.12.707-2.011 1.748-2.672 3.123-.661 1.375-.992 3.062-.992 5.062 0 1.999.334 3.686 1.003 5.061.669 1.375 1.575 2.416 2.717 3.123 1.142.706 2.428 1.059 3.855 1.059 1.323 0 2.488-.281 3.495-.845a5.984 5.984 0 0 0 2.367-2.413c.571-1.044.857-2.273.857-3.686l.857.181h-6.944v-2.48h8.793v2.48c0 1.901-.406 3.554-1.218 4.96a8.408 8.408 0 0 1-3.337 3.269c-1.413.766-3.036 1.15-4.87 1.15-2.044 0-3.84-.481-5.388-1.443-1.541-.962-2.743-2.33-3.607-4.104-.857-1.773-1.285-3.878-1.285-6.312 0-1.827.244-3.469.732-4.927.496-1.465 1.195-2.713 2.097-3.742a9.169 9.169 0 0 1 3.202-2.368c1.232-.548 2.589-.823 4.069-.823 1.218 0 2.352.185 3.404.553a9.14 9.14 0 0 1 2.83 1.544 8.794 8.794 0 0 1 2.085 2.379c.557.917.94 1.935 1.15 3.055h-2.886Zm6.863 11.137v-2.299l10.145-16.053h1.669v3.562h-1.127l-7.666 12.13v.18h13.663v2.48h-16.684ZM659.733 500v-23.087h2.66V500h-2.66Zm18.248-24.169-7.44 27.641h-2.435l7.44-27.641h2.435ZM685.689 500l-6.313-23.087h2.841l4.825 18.803h.225l4.915-18.803h3.156l4.915 18.803h.226l4.825-18.803h2.84L701.832 500h-2.886l-5.096-18.397h-.18L688.575 500h-2.886Zm31.226.361c-1.669 0-3.108-.369-4.318-1.105-1.202-.744-2.13-1.781-2.784-3.111-.647-1.338-.97-2.894-.97-4.667 0-1.774.323-3.337.97-4.69.654-1.36 1.563-2.42 2.728-3.179 1.172-.766 2.54-1.15 4.103-1.15.902 0 1.793.151 2.672.451a6.624 6.624 0 0 1 2.401 1.466c.721.669 1.296 1.555 1.725 2.66.428 1.105.642 2.465.642 4.081v1.127h-13.347v-2.299h10.642c0-.977-.196-1.849-.586-2.616a4.43 4.43 0 0 0-1.646-1.815c-.707-.443-1.541-.665-2.503-.665-1.06 0-1.976.263-2.75.789a5.189 5.189 0 0 0-1.77 2.029 5.956 5.956 0 0 0-.62 2.683v1.534c0 1.307.225 2.416.676 3.325.459.902 1.094 1.589 1.905 2.063.812.466 1.755.699 2.83.699a5.77 5.77 0 0 0 1.894-.293 4.055 4.055 0 0 0 1.476-.902 4.08 4.08 0 0 0 .958-1.511l2.571.722a5.717 5.717 0 0 1-1.364 2.3c-.639.653-1.428 1.164-2.368 1.533-.939.36-1.995.541-3.167.541Zm11.577-.361v-23.087h2.66v8.522h.226c.195-.3.466-.683.811-1.149.354-.474.857-.895 1.511-1.263.661-.376 1.556-.564 2.683-.564 1.458 0 2.743.365 3.855 1.094 1.113.729 1.981 1.762 2.604 3.1.624 1.338.936 2.916.936 4.735 0 1.833-.312 3.423-.936 4.768-.623 1.338-1.488 2.375-2.592 3.111-1.105.729-2.379 1.094-3.822 1.094-1.112 0-2.003-.184-2.672-.553-.668-.375-1.183-.8-1.544-1.273-.361-.481-.639-.88-.834-1.195h-.316V500h-2.57Zm2.615-8.658c0 1.308.192 2.462.575 3.461.383.992.943 1.77 1.68 2.334.736.556 1.638.834 2.705.834 1.113 0 2.041-.293 2.785-.879.751-.594 1.315-1.391 1.691-2.39.383-1.007.575-2.127.575-3.36 0-1.217-.188-2.314-.564-3.291-.368-.985-.928-1.763-1.68-2.334-.744-.578-1.679-.868-2.807-.868-1.082 0-1.991.275-2.728.823-.736.541-1.292 1.3-1.668 2.277-.376.97-.564 2.101-.564 3.393Zm17.101-14.429h3.337l7.846 19.164h.271l7.845-19.164h3.337V500h-2.615v-17.541h-.226L760.789 500h-2.525l-7.215-17.541h-.225V500h-2.616v-23.087Zm50.968 5.772L792.773 500h-2.706l-6.403-17.315h2.886l4.78 13.798h.18l4.78-13.798h2.886ZM802.687 500v-17.315h2.661V500h-2.661Zm1.353-20.201c-.518 0-.966-.177-1.341-.53a1.7 1.7 0 0 1-.553-1.274c0-.496.184-.92.553-1.274a1.89 1.89 0 0 1 1.341-.529c.519 0 .962.176 1.33.529.376.354.564.778.564 1.274s-.188.921-.564 1.274c-.368.353-.811.53-1.33.53Zm12.719 20.562c-1.443 0-2.717-.365-3.822-1.094-1.104-.736-1.969-1.773-2.592-3.111-.624-1.345-.936-2.935-.936-4.768 0-1.819.312-3.397.936-4.735.623-1.338 1.491-2.371 2.604-3.1 1.112-.729 2.397-1.094 3.855-1.094 1.127 0 2.018.188 2.672.564.661.368 1.164.789 1.51 1.263.353.466.628.849.823 1.149h.226v-8.522h2.66V500h-2.57v-2.66h-.316c-.195.315-.473.714-.834 1.195-.361.473-.876.898-1.545 1.273-.668.369-1.559.553-2.671.553Zm.361-2.39c1.067 0 1.969-.278 2.705-.834.737-.564 1.296-1.342 1.68-2.334.383-.999.575-2.153.575-3.461 0-1.292-.188-2.423-.564-3.393-.376-.977-.932-1.736-1.668-2.277-.737-.548-1.646-.823-2.728-.823-1.128 0-2.067.29-2.819.868-.744.571-1.304 1.349-1.679 2.334-.369.977-.553 2.074-.553 3.291 0 1.233.188 2.353.564 3.36.383.999.947 1.796 1.691 2.39.751.586 1.683.879 2.796.879Zm20.077 2.39c-1.669 0-3.108-.369-4.318-1.105-1.202-.744-2.131-1.781-2.784-3.111-.647-1.338-.97-2.894-.97-4.667 0-1.774.323-3.337.97-4.69.653-1.36 1.563-2.42 2.728-3.179 1.172-.766 2.54-1.15 4.103-1.15.902 0 1.792.151 2.672.451a6.624 6.624 0 0 1 2.401 1.466c.721.669 1.296 1.555 1.725 2.66.428 1.105.642 2.465.642 4.081v1.127h-13.347v-2.299h10.642c0-.977-.196-1.849-.587-2.616a4.42 4.42 0 0 0-1.645-1.815c-.707-.443-1.541-.665-2.503-.665-1.06 0-1.977.263-2.751.789a5.194 5.194 0 0 0-1.769 2.029 5.956 5.956 0 0 0-.62 2.683v1.534c0 1.307.225 2.416.676 3.325.458.902 1.093 1.589 1.905 2.063.812.466 1.755.699 2.83.699.698 0 1.33-.098 1.893-.293a4.05 4.05 0 0 0 1.477-.902c.413-.406.733-.909.958-1.511l2.571.722a5.717 5.717 0 0 1-1.364 2.3c-.639.653-1.428 1.164-2.368 1.533-.939.36-1.995.541-3.167.541Zm18.25 0c-1.563 0-2.934-.372-4.114-1.116-1.173-.744-2.089-1.785-2.751-3.123-.654-1.338-.981-2.901-.981-4.689 0-1.804.327-3.379.981-4.724.662-1.345 1.578-2.39 2.751-3.134 1.18-.744 2.551-1.116 4.114-1.116 1.564 0 2.931.372 4.104 1.116 1.18.744 2.096 1.789 2.75 3.134.662 1.345.992 2.92.992 4.724 0 1.788-.33 3.351-.992 4.689-.654 1.338-1.57 2.379-2.75 3.123-1.173.744-2.54 1.116-4.104 1.116Zm0-2.39c1.188 0 2.165-.304 2.931-.913.767-.609 1.334-1.409 1.703-2.401.368-.992.552-2.067.552-3.224 0-1.158-.184-2.236-.552-3.236-.369-.999-.936-1.807-1.703-2.423-.766-.617-1.743-.925-2.931-.925-1.187 0-2.164.308-2.931.925-.766.616-1.334 1.424-1.702 2.423-.368 1-.552 2.078-.552 3.236 0 1.157.184 2.232.552 3.224.368.992.936 1.792 1.702 2.401.767.609 1.744.913 2.931.913Zm24.172-11.408-2.39.676a4.441 4.441 0 0 0-.665-1.161c-.285-.383-.676-.699-1.172-.947-.496-.248-1.131-.372-1.905-.372-1.06 0-1.943.244-2.649.733-.699.481-1.049 1.093-1.049 1.837 0 .662.241 1.184.722 1.567s1.232.703 2.254.958l2.571.632c1.548.375 2.701.95 3.46 1.724.759.767 1.139 1.755 1.139 2.965a4.4 4.4 0 0 1-.857 2.661c-.563.781-1.353 1.397-2.367 1.848-1.015.451-2.195.677-3.54.677-1.766 0-3.228-.384-4.385-1.15-1.157-.767-1.89-1.886-2.198-3.359l2.525-.632c.24.932.695 1.631 1.364 2.097.676.466 1.559.699 2.649.699 1.24 0 2.225-.263 2.954-.789.736-.534 1.104-1.173 1.104-1.917 0-.601-.21-1.104-.631-1.51-.421-.413-1.067-.722-1.939-.924l-2.886-.677c-1.585-.376-2.75-.958-3.494-1.747-.737-.797-1.105-1.793-1.105-2.987 0-.977.274-1.842.823-2.593.556-.752 1.311-1.342 2.266-1.77.962-.428 2.051-.643 3.269-.643 1.713 0 3.059.376 4.036 1.128.984.751 1.683 1.743 2.096 2.976Zm20.959-3.878v2.254h-9.333v-2.254h9.333ZM894.04 500v-19.705c0-.992.233-1.819.699-2.48a4.337 4.337 0 0 1 1.815-1.488 5.73 5.73 0 0 1 2.356-.496c.654 0 1.187.053 1.601.158.413.105.721.203.924.293l-.766 2.299a13.99 13.99 0 0 0-.564-.169c-.233-.067-.541-.101-.924-.101-.88 0-1.515.222-1.905.665-.384.443-.575 1.094-.575 1.95V500h-2.661Zm16.588.361c-1.563 0-2.934-.372-4.114-1.116-1.173-.744-2.09-1.785-2.751-3.123-.654-1.338-.981-2.901-.981-4.689 0-1.804.327-3.379.981-4.724.661-1.345 1.578-2.39 2.751-3.134 1.18-.744 2.551-1.116 4.114-1.116 1.563 0 2.931.372 4.104 1.116 1.179.744 2.096 1.789 2.75 3.134.662 1.345.992 2.92.992 4.724 0 1.788-.33 3.351-.992 4.689-.654 1.338-1.571 2.379-2.75 3.123-1.173.744-2.541 1.116-4.104 1.116Zm0-2.39c1.188 0 2.165-.304 2.931-.913.767-.609 1.334-1.409 1.702-2.401.369-.992.553-2.067.553-3.224 0-1.158-.184-2.236-.553-3.236-.368-.999-.935-1.807-1.702-2.423-.766-.617-1.743-.925-2.931-.925-1.187 0-2.164.308-2.931.925-.766.616-1.334 1.424-1.702 2.423-.368 1-.552 2.078-.552 3.236 0 1.157.184 2.232.552 3.224.368.992.936 1.792 1.702 2.401.767.609 1.744.913 2.931.913ZM922.535 500v-17.315h2.571v2.615h.18c.316-.857.887-1.552 1.713-2.085.827-.534 1.759-.801 2.796-.801.195 0 .44.004.733.012.293.007.515.018.665.033v2.706a7.535 7.535 0 0 0-.62-.102 6.17 6.17 0 0 0-1.003-.079c-.842 0-1.594.177-2.255.53a4.006 4.006 0 0 0-1.556 1.443c-.375.609-.563 1.304-.563 2.086V500h-2.661Zm25.835.406c-1.097 0-2.093-.207-2.987-.62a5.125 5.125 0 0 1-2.131-1.815c-.526-.797-.789-1.759-.789-2.886 0-.992.195-1.796.586-2.412a4.136 4.136 0 0 1 1.567-1.466 8.249 8.249 0 0 1 2.164-.789c.797-.18 1.597-.323 2.402-.428 1.052-.136 1.905-.237 2.559-.305.661-.075 1.142-.199 1.442-.372.309-.173.463-.473.463-.902v-.09c0-1.112-.305-1.976-.913-2.592-.602-.617-1.515-.925-2.74-.925-1.27 0-2.266.278-2.987.834-.722.556-1.229 1.15-1.522 1.781l-2.525-.901c.451-1.053 1.052-1.872 1.804-2.458a6.75 6.75 0 0 1 2.48-1.24c.902-.24 1.788-.361 2.66-.361.556 0 1.195.068 1.916.203a6.145 6.145 0 0 1 2.109.801c.683.405 1.251 1.018 1.702 1.837.451.819.676 1.917.676 3.292V500h-2.66v-2.345h-.136c-.18.376-.481.778-.901 1.206-.421.429-.981.793-1.68 1.094-.699.301-1.552.451-2.559.451Zm.406-2.39c1.052 0 1.939-.207 2.66-.62.729-.413 1.278-.947 1.646-1.601a4.077 4.077 0 0 0 .564-2.063v-2.435c-.113.136-.361.26-.744.372-.376.106-.812.199-1.308.282-.488.075-.966.143-1.432.203-.458.053-.83.098-1.116.135a10.24 10.24 0 0 0-1.939.44c-.593.195-1.074.492-1.443.891-.36.39-.541.924-.541 1.6 0 .925.342 1.624 1.026 2.097.692.466 1.567.699 2.627.699Zm15.046-8.432V500h-2.66v-17.315h2.57v2.705h.226a4.945 4.945 0 0 1 1.848-2.119c.827-.541 1.894-.812 3.202-.812 1.172 0 2.198.241 3.077.722.88.473 1.563 1.195 2.052 2.164.488.962.733 2.18.733 3.653V500h-2.661v-10.822c0-1.36-.353-2.42-1.059-3.179-.707-.767-1.676-1.15-2.909-1.15-.849 0-1.608.184-2.277.553-.661.368-1.184.905-1.567 1.612-.383.706-.575 1.563-.575 2.57ZM979.731 500v-17.315h2.661V500h-2.661Zm1.353-20.201c-.519 0-.966-.177-1.342-.53a1.703 1.703 0 0 1-.552-1.274c0-.496.184-.92.552-1.274a1.893 1.893 0 0 1 1.342-.529c.518 0 .962.176 1.33.529.376.354.564.778.564 1.274s-.188.921-.564 1.274c-.368.353-.812.53-1.33.53Zm6.18 20.201v-17.315h2.571v2.705h.225c.361-.924.943-1.642 1.747-2.153.804-.518 1.77-.778 2.897-.778 1.143 0 2.093.26 2.852.778.767.511 1.364 1.229 1.793 2.153h.18a5.08 5.08 0 0 1 1.991-2.13c.89-.534 1.95-.801 3.19-.801 1.55 0 2.82.485 3.8 1.455.99.962 1.48 2.461 1.48 4.497V500h-2.66v-11.589c0-1.277-.35-2.19-1.05-2.739-.7-.548-1.52-.823-2.47-.823-1.21 0-2.16.368-2.83 1.105-.67.729-1 1.653-1 2.773V500h-2.705v-11.859c0-.985-.32-1.777-.959-2.379-.638-.608-1.461-.913-2.468-.913a3.64 3.64 0 0 0-1.939.553 4.163 4.163 0 0 0-1.443 1.533c-.361.646-.541 1.394-.541 2.243V500h-2.661Zm32.686.406c-1.1 0-2.09-.207-2.99-.62a5.178 5.178 0 0 1-2.13-1.815c-.52-.797-.79-1.759-.79-2.886 0-.992.2-1.796.59-2.412.39-.624.91-1.113 1.57-1.466a8.156 8.156 0 0 1 2.16-.789c.8-.18 1.6-.323 2.4-.428 1.05-.136 1.91-.237 2.56-.305.66-.075 1.14-.199 1.44-.372.31-.173.47-.473.47-.902v-.09c0-1.112-.31-1.976-.92-2.592-.6-.617-1.51-.925-2.74-.925-1.27 0-2.26.278-2.98.834-.73.556-1.23 1.15-1.53 1.781l-2.52-.901c.45-1.053 1.05-1.872 1.8-2.458a6.796 6.796 0 0 1 2.48-1.24c.9-.24 1.79-.361 2.66-.361.56 0 1.2.068 1.92.203.73.128 1.43.395 2.11.801.68.405 1.25 1.018 1.7 1.837.45.819.68 1.917.68 3.292V500h-2.66v-2.345h-.14c-.18.376-.48.778-.9 1.206-.42.429-.98.793-1.68 1.094-.7.301-1.55.451-2.56.451Zm.41-2.39c1.05 0 1.93-.207 2.66-.62.73-.413 1.27-.947 1.64-1.601.38-.654.57-1.341.57-2.063v-2.435c-.12.136-.36.26-.75.372-.37.106-.81.199-1.31.282-.48.075-.96.143-1.43.203-.46.053-.83.098-1.11.135-.69.091-1.34.237-1.94.44-.6.195-1.08.492-1.45.891-.36.39-.54.924-.54 1.6 0 .925.35 1.624 1.03 2.097.69.466 1.57.699 2.63.699Zm19.91-15.331v2.254h-8.97v-2.254h8.97Zm-6.36-4.149h2.66v16.504c0 .751.11 1.315.33 1.691.23.368.51.616.86.744.35.12.72.18 1.11.18.3 0 .54-.015.73-.045l.45-.09.54 2.39c-.18.067-.43.135-.76.203-.32.075-.73.112-1.23.112-.75 0-1.48-.161-2.21-.484a4.457 4.457 0 0 1-1.78-1.477c-.46-.661-.7-1.496-.7-2.503v-17.225ZM1044.27 500v-17.315h2.66V500h-2.66Zm1.36-20.201c-.52 0-.97-.177-1.34-.53-.37-.353-.56-.778-.56-1.274s.19-.92.56-1.274c.37-.353.82-.529 1.34-.529.52 0 .96.176 1.33.529.37.354.56.778.56 1.274s-.19.921-.56 1.274c-.37.353-.81.53-1.33.53Zm13.21 20.562c-1.56 0-2.93-.372-4.11-1.116-1.18-.744-2.09-1.785-2.75-3.123-.66-1.338-.98-2.901-.98-4.689 0-1.804.32-3.379.98-4.724.66-1.345 1.57-2.39 2.75-3.134 1.18-.744 2.55-1.116 4.11-1.116 1.56 0 2.93.372 4.1 1.116 1.18.744 2.1 1.789 2.76 3.134.66 1.345.99 2.92.99 4.724 0 1.788-.33 3.351-.99 4.689-.66 1.338-1.58 2.379-2.76 3.123-1.17.744-2.54 1.116-4.1 1.116Zm0-2.39c1.19 0 2.17-.304 2.93-.913.77-.609 1.34-1.409 1.7-2.401.37-.992.56-2.067.56-3.224 0-1.158-.19-2.236-.56-3.236-.36-.999-.93-1.807-1.7-2.423-.76-.617-1.74-.925-2.93-.925-1.19 0-2.16.308-2.93.925-.77.616-1.33 1.424-1.7 2.423-.37 1-.55 2.078-.55 3.236 0 1.157.18 2.232.55 3.224.37.992.93 1.792 1.7 2.401.77.609 1.74.913 2.93.913Zm14.57-8.387V500h-2.66v-17.315h2.57v2.705h.22a5.024 5.024 0 0 1 1.85-2.119c.83-.541 1.9-.812 3.2-.812 1.18 0 2.2.241 3.08.722.88.473 1.57 1.195 2.05 2.164.49.962.74 2.18.74 3.653V500h-2.66v-10.822c0-1.36-.36-2.42-1.06-3.179-.71-.767-1.68-1.15-2.91-1.15-.85 0-1.61.184-2.28.553-.66.368-1.18.905-1.57 1.612-.38.706-.57 1.563-.57 2.57Zm28.17-3.021-2.39.676a4.505 4.505 0 0 0-.66-1.161 3.312 3.312 0 0 0-1.17-.947c-.5-.248-1.14-.372-1.91-.372-1.06 0-1.94.244-2.65.733-.7.481-1.05 1.093-1.05 1.837 0 .662.24 1.184.72 1.567.49.383 1.24.703 2.26.958l2.57.632c1.55.375 2.7.95 3.46 1.724.76.767 1.14 1.755 1.14 2.965 0 .992-.29 1.879-.86 2.661-.56.781-1.35 1.397-2.37 1.848-1.01.451-2.19.677-3.54.677-1.76 0-3.22-.384-4.38-1.15-1.16-.767-1.89-1.886-2.2-3.359l2.53-.632c.24.932.69 1.631 1.36 2.097.68.466 1.56.699 2.65.699 1.24 0 2.22-.263 2.95-.789.74-.534 1.11-1.173 1.11-1.917 0-.601-.21-1.104-.63-1.51-.42-.413-1.07-.722-1.94-.924l-2.89-.677c-1.58-.376-2.75-.958-3.49-1.747-.74-.797-1.11-1.793-1.11-2.987 0-.977.28-1.842.83-2.593.55-.752 1.31-1.342 2.26-1.77.96-.428 2.05-.643 3.27-.643 1.71 0 3.06.376 4.04 1.128.98.751 1.68 1.743 2.09 2.976Zm18.35 13.843c-1.1 0-2.1-.207-2.99-.62-.9-.421-1.61-1.026-2.13-1.815-.53-.797-.79-1.759-.79-2.886 0-.992.19-1.796.59-2.412.39-.624.91-1.113 1.56-1.466a8.357 8.357 0 0 1 2.17-.789c.79-.18 1.59-.323 2.4-.428 1.05-.136 1.9-.237 2.56-.305.66-.075 1.14-.199 1.44-.372.31-.173.46-.473.46-.902v-.09c0-1.112-.3-1.976-.91-2.592-.6-.617-1.52-.925-2.74-.925-1.27 0-2.27.278-2.99.834-.72.556-1.23 1.15-1.52 1.781l-2.52-.901c.45-1.053 1.05-1.872 1.8-2.458a6.72 6.72 0 0 1 2.48-1.24c.9-.24 1.79-.361 2.66-.361.56 0 1.19.068 1.92.203.73.128 1.43.395 2.1.801.69.405 1.26 1.018 1.71 1.837.45.819.67 1.917.67 3.292V500h-2.66v-2.345h-.13c-.18.376-.48.778-.9 1.206-.43.429-.99.793-1.68 1.094-.7.301-1.56.451-2.56.451Zm.4-2.39c1.05 0 1.94-.207 2.66-.62.73-.413 1.28-.947 1.65-1.601.37-.654.56-1.341.56-2.063v-2.435c-.11.136-.36.26-.74.372-.38.106-.81.199-1.31.282-.49.075-.97.143-1.43.203-.46.053-.83.098-1.12.135-.69.091-1.33.237-1.94.44-.59.195-1.07.492-1.44.891-.36.39-.54.924-.54 1.6 0 .925.34 1.624 1.03 2.097.69.466 1.56.699 2.62.699Zm15.05-8.432V500h-2.66v-17.315h2.57v2.705h.22a5.024 5.024 0 0 1 1.85-2.119c.83-.541 1.9-.812 3.2-.812 1.18 0 2.2.241 3.08.722.88.473 1.57 1.195 2.05 2.164.49.962.74 2.18.74 3.653V500h-2.66v-10.822c0-1.36-.36-2.42-1.06-3.179-.71-.767-1.68-1.15-2.91-1.15-.85 0-1.61.184-2.28.553-.66.368-1.18.905-1.57 1.612-.38.706-.57 1.563-.57 2.57Zm22.45 10.777c-1.45 0-2.72-.365-3.83-1.094-1.1-.736-1.96-1.773-2.59-3.111-.62-1.345-.93-2.935-.93-4.768 0-1.819.31-3.397.93-4.735.63-1.338 1.49-2.371 2.61-3.1 1.11-.729 2.39-1.094 3.85-1.094 1.13 0 2.02.188 2.67.564.66.368 1.17.789 1.51 1.263.36.466.63.849.83 1.149h.22v-8.522h2.66V500h-2.57v-2.66h-.31c-.2.315-.48.714-.84 1.195-.36.473-.87.898-1.54 1.273-.67.369-1.56.553-2.67.553Zm.36-2.39c1.06 0 1.97-.278 2.7-.834.74-.564 1.3-1.342 1.68-2.334.39-.999.58-2.153.58-3.461 0-1.292-.19-2.423-.57-3.393-.37-.977-.93-1.736-1.67-2.277-.73-.548-1.64-.823-2.72-.823-1.13 0-2.07.29-2.82.868-.75.571-1.31 1.349-1.68 2.334-.37.977-.55 2.074-.55 3.291 0 1.233.18 2.353.56 3.36.38.999.95 1.796 1.69 2.39.75.586 1.68.879 2.8.879Zm22.1 2.029v-23.087h7.8c1.82 0 3.3.327 4.45.981 1.15.646 2.01 1.522 2.57 2.626.55 1.105.83 2.338.83 3.698 0 1.36-.28 2.596-.83 3.709-.55 1.112-1.4 1.999-2.55 2.66-1.15.654-2.62.981-4.42.981h-5.59v-2.48h5.5c1.24 0 2.23-.214 2.99-.643.75-.428 1.29-1.007 1.63-1.736.35-.736.52-1.567.52-2.491 0-.924-.17-1.751-.52-2.48-.34-.729-.89-1.3-1.65-1.714-.75-.42-1.76-.631-3.02-.631h-4.91V500h-2.8Zm38.46-23.087V500h-2.7l-12.59-18.127h-.22V500h-2.8v-23.087h2.71l12.62 18.172h.23v-18.172h2.75Zm21.38 7.215a8.443 8.443 0 0 0-.98-2.041 6.29 6.29 0 0 0-1.44-1.555 5.876 5.876 0 0 0-1.87-.981 7.422 7.422 0 0 0-2.3-.338c-1.36 0-2.61.353-3.73 1.059-1.12.707-2.01 1.748-2.67 3.123-.66 1.375-.99 3.062-.99 5.062 0 1.999.33 3.686 1 5.061.67 1.375 1.58 2.416 2.72 3.123 1.14.706 2.43 1.059 3.85 1.059 1.33 0 2.49-.281 3.5-.845a6.067 6.067 0 0 0 2.37-2.413c.57-1.044.85-2.273.85-3.686l.86.181h-6.94v-2.48h8.79v2.48c0 1.901-.41 3.554-1.22 4.96a8.396 8.396 0 0 1-3.34 3.269c-1.41.766-3.03 1.15-4.87 1.15-2.04 0-3.84-.481-5.38-1.443-1.55-.962-2.75-2.33-3.61-4.104-.86-1.773-1.29-3.878-1.29-6.312 0-1.827.25-3.469.74-4.927.49-1.465 1.19-2.713 2.09-3.742a9.17 9.17 0 0 1 3.2-2.368c1.24-.548 2.59-.823 4.07-.823 1.22 0 2.36.185 3.41.553 1.06.361 2 .875 2.83 1.544a8.743 8.743 0 0 1 2.08 2.379c.56.917.94 1.935 1.15 3.055h-2.88Z"/><circle cx="340.724" cy="616.901" r="17.988" fill="#F1F5F9"/><rect width="713.193" height="42.326" x="398.922" y="595.738" fill="#F1F5F9" rx="8.465"/><path fill="#F1F5F9" d="M1107.88 668.75H322.735v2.117h785.145v-2.117Z" mask="url(#path-17-inside-3_706_317)"/><circle cx="340.724" cy="768.217" r="17.988" fill="#F1F5F9"/><rect width="713.193" height="42.326" x="398.922" y="747.054" fill="#F1F5F9" rx="8.465"/><path fill="#F1F5F9" d="M1107.88 820.066H322.735v2.116h785.145v-2.116Z" mask="url(#path-21-inside-4_706_317)"/><circle cx="340.724" cy="919.532" r="17.988" fill="#F1F5F9"/><rect width="713.193" height="42.326" x="398.922" y="898.369" fill="#F1F5F9" rx="8.465"/><path fill="#E2E8F0" d="M296.282 267.712c0-9.935 8.053-17.989 17.988-17.989h887.79l-2.12 2.116H314.27c-8.766 0-15.872 7.107-15.872 15.873h-2.116ZM1201 956.567H297.34 1201Zm-904.718 0V267.712c0-9.935 8.053-17.989 17.988-17.989v2.116c-8.766 0-15.872 7.107-15.872 15.873v688.855h-2.116Zm905.778-706.844v706.844h-2.12V251.839l2.12-2.116Z" mask="url(#path-10-inside-1_706_317)"/></g></g></g></g><defs><clipPath id="a"><path fill="#fff" d="M0 0h1201v952.335H0z"/></clipPath><clipPath id="c"><path fill="#fff" d="M85.71 120.629c0-14.026 11.37-25.396 25.396-25.396H1201v857.102H85.71V120.629Z"/></clipPath><clipPath id="d"><path fill="#fff" d="M85.71 171.42H1201v780.915H85.71z"/></clipPath><filter id="b" width="1157.62" height="899.428" x="64.547" y="95.233" color-interpolation-filters="sRGB" filterUnits="userSpaceOnUse"><feFlood flood-opacity="0" result="BackgroundImageFix"/><feColorMatrix in="SourceAlpha" result="hardAlpha" values="0 0 0 0 0 0 0 0 0 0 0 0 0 0 0 0 0 0 127 0"/><feMorphology in="SourceAlpha" radius="5.291" result="effect1_dropShadow_706_317"/><feOffset dy="10.582"/><feGaussianBlur stdDeviation="5.291"/><feColorMatrix values="0 0 0 0 0 0 0 0 0 0 0 0 0 0 0 0 0 0 0.04 0"/><feBlend in2="BackgroundImageFix" result="effect1_dropShadow_706_317"/><feColorMatrix in="SourceAlpha" result="hardAlpha" values="0 0 0 0 0 0 0 0 0 0 0 0 0 0 0 0 0 0 127 0"/><feMorphology in="SourceAlpha" radius="5.291" result="effect2_dropShadow_706_317"/><feOffset dy="21.163"/><feGaussianBlur stdDeviation="13.227"/><feColorMatrix values="0 0 0 0 0 0 0 0 0 0 0 0 0 0 0 0 0 0 0.1 0"/><feBlend in2="effect1_dropShadow_706_317" result="effect2_dropShadow_706_317"/><feBlend in="SourceGraphic" in2="effect2_dropShadow_706_317" result="shape"/></filter></defs></svg>