<svg xmlns="http://www.w3.org/2000/svg" width="447" height="671" fill="none" viewBox="0 0 447 671"><g filter="url(#a)"><rect width="183" height="369" x="249" fill="#FAFAFA" rx="36"/><rect width="167" height="353" x="257" y="8" fill="#fff" rx="29"/></g><g clip-path="url(#b)"><rect width="119.688" height="113.703" x="280.747" y="15.713" fill="#ECFDF5" rx="4.256"/><path fill="#6EE7B7" d="M363.691 80.816a3.192 3.192 0 0 1 4.866 0l39.171 46.135c1.761 2.074.287 5.258-2.433 5.258h-78.342c-2.719 0-4.193-3.184-2.433-5.258l39.171-46.135Z"/><g filter="url(#c)"><path fill="#A7F3D0" d="M315.994 73.221a3.191 3.191 0 0 1 5.043 0l42.085 54.239c1.627 2.097.133 5.148-2.521 5.148H276.43c-2.654 0-4.149-3.051-2.521-5.148l42.085-54.239Z"/></g><circle cx="379.157" cy="36.193" r="9.309" fill="#6EE7B7"/></g><g clip-path="url(#d)"><rect width="119.688" height="113.703" x="280.747" y="150.694" fill="#F5F3FF" rx="4.256"/><path fill="#C4B5FD" d="M363.691 215.797a3.192 3.192 0 0 1 4.866 0l39.171 46.135c1.761 2.074.287 5.258-2.433 5.258h-78.342c-2.719 0-4.193-3.184-2.433-5.258l39.171-46.135Z"/><g filter="url(#e)"><path fill="#DDD6FE" d="M315.994 208.202a3.191 3.191 0 0 1 5.043 0l42.085 54.238c1.627 2.097.133 5.149-2.521 5.149H276.43c-2.654 0-4.149-3.052-2.521-5.149l42.085-54.238Z"/></g><circle cx="379.157" cy="171.174" r="9.309" fill="#C4B5FD"/></g><g clip-path="url(#f)"><rect width="119.688" height="113.703" x="280.747" y="285.675" fill="#ECFEFF" rx="4.256"/><path fill="#67E8F9" d="M363.691 350.778a3.192 3.192 0 0 1 4.866 0l39.171 46.135c1.761 2.074.287 5.258-2.433 5.258h-78.342c-2.719 0-4.193-3.184-2.433-5.258l39.171-46.135Z"/><g filter="url(#g)"><path fill="#A5F3FC" d="M315.994 343.183a3.191 3.191 0 0 1 5.043 0l42.085 54.238c1.627 2.097.133 5.149-2.521 5.149H276.43c-2.654 0-4.149-3.052-2.521-5.149l42.085-54.238Z"/></g><circle cx="379.157" cy="306.155" r="9.309" fill="#67E8F9"/></g><rect width="119.688" height="113.703" x="281" y="420.378" fill="#F4F4F5" rx="4.256"/><rect width="119.688" height="113.703" x="280" y="555" fill="#F4F4F5" rx="4.256"/><path fill="#18181B" d="M2.397 503v-21.818h3.292v18.984h9.886V503H2.397Zm21.44.362c-1.037 0-1.974-.192-2.813-.575a4.738 4.738 0 0 1-1.992-1.694c-.483-.739-.724-1.644-.724-2.717 0-.923.177-1.683.533-2.279a3.928 3.928 0 0 1 1.438-1.417 7.528 7.528 0 0 1 2.024-.789 20.177 20.177 0 0 1 2.28-.404l2.386-.277c.61-.079 1.055-.203 1.332-.373.277-.171.415-.448.415-.831v-.075c0-.93-.263-1.651-.788-2.163-.519-.511-1.293-.767-2.323-.767-1.072 0-1.917.238-2.535.714-.61.469-1.033.991-1.268 1.566l-2.993-.682c.355-.994.873-1.796 1.555-2.407a6.309 6.309 0 0 1 2.376-1.343 9.277 9.277 0 0 1 2.823-.426c.653 0 1.346.078 2.077.235a6.075 6.075 0 0 1 2.067.831c.646.404 1.175.983 1.587 1.736.412.746.618 1.715.618 2.909V503h-3.11v-2.237h-.128c-.206.412-.515.817-.927 1.214-.412.398-.941.728-1.588.991-.646.263-1.42.394-2.322.394Zm.692-2.557c.881 0 1.634-.174 2.259-.522.632-.348 1.111-.802 1.438-1.363.334-.568.5-1.176.5-1.822v-2.109c-.113.113-.333.22-.66.319-.32.093-.685.174-1.097.245-.412.064-.813.125-1.204.181l-.98.128a7.928 7.928 0 0 0-1.694.394c-.504.185-.909.451-1.214.799-.299.341-.448.796-.448 1.364 0 .788.292 1.385.874 1.79.582.398 1.325.596 2.226.596ZM35.814 503v-2.184l8.864-11.261v-.149h-8.576v-2.77h12.55v2.323l-8.523 11.122v.149h8.82V503H35.815Zm18.907 6.136a6.66 6.66 0 0 1-1.3-.117c-.39-.071-.681-.149-.873-.234l.767-2.61c.582.156 1.1.223 1.555.202a1.864 1.864 0 0 0 1.204-.511c.355-.32.668-.842.938-1.566l.394-1.087-5.987-16.577h3.409l4.144 12.699h.17l4.145-12.699h3.42l-6.744 18.548c-.313.852-.71 1.573-1.194 2.163a4.634 4.634 0 0 1-1.725 1.342c-.668.298-1.442.447-2.323.447Zm24.62-16.736v2.759h-9.673V492.4h9.673Zm7.431-11.218V503h-3.185v-21.818h3.185ZM97.95 503.33c-1.534 0-2.873-.351-4.016-1.054-1.144-.704-2.031-1.687-2.664-2.951-.632-1.265-.948-2.742-.948-4.432 0-1.698.316-3.182.948-4.453.633-1.272 1.52-2.259 2.664-2.962 1.143-.703 2.482-1.055 4.016-1.055 1.534 0 2.873.352 4.016 1.055 1.144.703 2.032 1.69 2.664 2.962.632 1.271.948 2.755.948 4.453 0 1.69-.316 3.167-.948 4.432-.632 1.264-1.52 2.247-2.664 2.951-1.143.703-2.482 1.054-4.016 1.054Zm.01-2.674c.995 0 1.819-.263 2.472-.788.654-.526 1.137-1.225 1.449-2.099.32-.873.48-1.836.48-2.887 0-1.044-.16-2.003-.48-2.876-.312-.881-.795-1.588-1.449-2.12-.653-.533-1.477-.799-2.471-.799-1.002 0-1.833.266-2.493.799-.654.532-1.14 1.239-1.46 2.12-.312.873-.468 1.832-.468 2.876 0 1.051.156 2.014.468 2.887.32.874.806 1.573 1.46 2.099.66.525 1.491.788 2.493.788Zm15.936 2.706c-1.037 0-1.975-.192-2.813-.575a4.738 4.738 0 0 1-1.992-1.694c-.483-.739-.725-1.644-.725-2.717 0-.923.178-1.683.533-2.279a3.932 3.932 0 0 1 1.438-1.417 7.534 7.534 0 0 1 2.025-.789 20.135 20.135 0 0 1 2.279-.404l2.387-.277c.61-.079 1.054-.203 1.331-.373.277-.171.416-.448.416-.831v-.075c0-.93-.263-1.651-.788-2.163-.519-.511-1.293-.767-2.323-.767-1.072 0-1.918.238-2.535.714-.611.469-1.034.991-1.268 1.566l-2.994-.682c.355-.994.874-1.796 1.556-2.407a6.306 6.306 0 0 1 2.375-1.343 9.278 9.278 0 0 1 2.823-.426c.654 0 1.346.078 2.078.235a6.08 6.08 0 0 1 2.067.831c.646.404 1.175.983 1.587 1.736.412.746.618 1.715.618 2.909V503h-3.111v-2.237h-.128c-.206.412-.515.817-.927 1.214-.412.398-.941.728-1.587.991s-1.42.394-2.322.394Zm.692-2.557c.881 0 1.634-.174 2.259-.522.632-.348 1.111-.802 1.438-1.363a3.537 3.537 0 0 0 .501-1.822v-2.109c-.114.113-.334.22-.661.319-.32.093-.685.174-1.097.245-.412.064-.814.125-1.204.181-.391.05-.717.093-.98.128a7.924 7.924 0 0 0-1.694.394c-.504.185-.909.451-1.215.799-.298.341-.447.796-.447 1.364 0 .788.291 1.385.874 1.79.582.398 1.324.596 2.226.596Zm17.751 2.515c-1.321 0-2.5-.338-3.537-1.012-1.029-.682-1.839-1.652-2.429-2.909-.582-1.264-.873-2.78-.873-4.549 0-1.768.295-3.281.884-4.538.597-1.257 1.413-2.22 2.45-2.887 1.037-.668 2.213-1.002 3.527-1.002 1.015 0 1.832.171 2.45.512.625.333 1.108.724 1.449 1.172.348.447.618.841.809 1.182h.192v-8.107h3.186V503h-3.111v-2.546h-.267a8.278 8.278 0 0 1-.831 1.193c-.355.447-.845.838-1.47 1.172-.625.334-1.434.501-2.429.501Zm.703-2.717c.917 0 1.691-.241 2.323-.724.639-.491 1.122-1.169 1.449-2.035.334-.867.5-1.875.5-3.026 0-1.136-.163-2.131-.49-2.983-.326-.852-.806-1.516-1.438-1.992-.632-.476-1.413-.714-2.344-.714-.958 0-1.757.249-2.397.746-.639.497-1.122 1.175-1.448 2.035-.32.859-.48 1.829-.48 2.908 0 1.094.164 2.078.49 2.951.327.874.81 1.566 1.449 2.078.646.504 1.442.756 2.386.756ZM9.78 522.636v2.557H.842v-2.557H9.78Zm-6.541-3.92h3.185v15.479c0 .618.092 1.083.277 1.396.185.305.423.515.714.628.298.107.621.16.97.16.255 0 .479-.017.67-.053l.448-.085.575 2.631a5.356 5.356 0 0 1-.788.213 6.24 6.24 0 0 1-1.279.128 5.62 5.62 0 0 1-2.343-.447 4.027 4.027 0 0 1-1.758-1.449c-.448-.654-.671-1.474-.671-2.461v-16.14Zm13.601 10.568V539h-3.185v-21.818h3.143v8.118H17a4.7 4.7 0 0 1 1.758-2.099c.788-.518 1.818-.778 3.09-.778 1.122 0 2.102.231 2.94.693.845.461 1.498 1.15 1.96 2.067.469.909.703 2.045.703 3.409V539h-3.185v-10.025c0-1.2-.31-2.131-.927-2.791-.618-.668-1.477-1.001-2.578-1.001-.753 0-1.428.159-2.024.479-.59.32-1.055.788-1.396 1.406-.334.611-.5 1.35-.5 2.216Zm21.914 10.046c-1.612 0-3-.344-4.165-1.033-1.158-.696-2.053-1.673-2.685-2.93-.625-1.264-.937-2.745-.937-4.442 0-1.676.312-3.154.937-4.432.632-1.279 1.513-2.276 2.642-2.994 1.137-.717 2.465-1.076 3.985-1.076.923 0 1.818.153 2.684.458a6.504 6.504 0 0 1 2.333 1.439c.69.653 1.233 1.502 1.63 2.546.398 1.037.597 2.297.597 3.782v1.129H32.767v-2.386h9.887c0-.838-.17-1.581-.512-2.227a3.873 3.873 0 0 0-1.438-1.545c-.61-.376-1.328-.564-2.152-.564-.895 0-1.676.22-2.344.66a4.434 4.434 0 0 0-1.534 1.705 4.92 4.92 0 0 0-.532 2.269v1.864c0 1.094.191 2.024.575 2.791.39.768.934 1.353 1.63 1.758.696.398 1.509.597 2.44.597.603 0 1.154-.085 1.65-.256.498-.177.928-.44 1.29-.788.362-.348.639-.778.83-1.289l3.016.543a5.455 5.455 0 0 1-1.3 2.333c-.618.661-1.396 1.176-2.333 1.545-.93.362-1.992.543-3.186.543Zm22.817-12.699-2.887.512a3.415 3.415 0 0 0-.575-1.055c-.256-.334-.604-.607-1.044-.82-.44-.213-.99-.32-1.651-.32-.902 0-1.655.203-2.259.607-.604.398-.905.913-.905 1.545 0 .547.202.987.607 1.321.405.334 1.058.607 1.96.82l2.6.597c1.505.348 2.627.884 3.366 1.609.739.724 1.108 1.665 1.108 2.823a4.29 4.29 0 0 1-.852 2.621c-.561.76-1.346 1.356-2.355 1.789-1.001.434-2.162.65-3.483.65-1.833 0-3.328-.39-4.485-1.172-1.158-.788-1.868-1.907-2.131-3.355l3.079-.469c.191.802.586 1.41 1.182 1.822.597.404 1.375.607 2.333.607 1.044 0 1.879-.217 2.504-.65.625-.44.937-.977.937-1.609a1.67 1.67 0 0 0-.575-1.289c-.376-.348-.955-.611-1.736-.788l-2.77-.607c-1.527-.348-2.657-.902-3.388-1.662-.725-.76-1.087-1.723-1.087-2.887 0-.966.27-1.811.81-2.536.54-.724 1.285-1.289 2.237-1.694.952-.412 2.042-.618 3.27-.618 1.77 0 3.161.384 4.177 1.151 1.016.76 1.687 1.779 2.013 3.057Zm10.875 12.699c-1.612 0-3-.344-4.166-1.033-1.157-.696-2.052-1.673-2.684-2.93-.625-1.264-.938-2.745-.938-4.442 0-1.676.313-3.154.938-4.432.632-1.279 1.513-2.276 2.642-2.994 1.136-.717 2.464-1.076 3.984-1.076.923 0 1.818.153 2.685.458a6.504 6.504 0 0 1 2.333 1.439c.689.653 1.232 1.502 1.63 2.546.398 1.037.596 2.297.596 3.782v1.129H66.46v-2.386h9.886c0-.838-.17-1.581-.511-2.227a3.873 3.873 0 0 0-1.439-1.545c-.61-.376-1.328-.564-2.152-.564-.894 0-1.676.22-2.343.66a4.434 4.434 0 0 0-1.534 1.705 4.92 4.92 0 0 0-.533 2.269v1.864c0 1.094.192 2.024.575 2.791.39.768.934 1.353 1.63 1.758.696.398 1.51.597 2.44.597.604 0 1.154-.085 1.651-.256a3.57 3.57 0 0 0 1.29-.788c.361-.348.638-.778.83-1.289l3.015.543a5.455 5.455 0 0 1-1.3 2.333c-.618.661-1.395 1.176-2.333 1.545-.93.362-1.992.543-3.185.543Zm26.282-16.694v2.557H89.48v-2.557h9.247ZM92.016 539v-18.26c0-1.023.224-1.871.671-2.546a4.117 4.117 0 0 1 1.78-1.524 5.689 5.689 0 0 1 2.407-.511c.64 0 1.186.053 1.64.16.455.099.793.192 1.013.277l-.746 2.578a14.9 14.9 0 0 0-.575-.149 3.275 3.275 0 0 0-.853-.096c-.774 0-1.328.192-1.661.575-.327.384-.49.938-.49 1.662V539h-3.186Zm16.247.33c-1.534 0-2.873-.351-4.017-1.054-1.143-.704-2.031-1.687-2.663-2.951-.632-1.265-.948-2.742-.948-4.432 0-1.698.316-3.182.948-4.453.632-1.272 1.52-2.259 2.663-2.962 1.144-.703 2.483-1.055 4.017-1.055 1.534 0 2.872.352 4.016 1.055 1.143.703 2.031 1.69 2.663 2.962.632 1.271.948 2.755.948 4.453 0 1.69-.316 3.167-.948 4.432-.632 1.264-1.52 2.247-2.663 2.951-1.144.703-2.482 1.054-4.016 1.054Zm.01-2.674c.995 0 1.818-.263 2.472-.788.653-.526 1.136-1.225 1.449-2.099.319-.873.479-1.836.479-2.887 0-1.044-.16-2.003-.479-2.876-.313-.881-.796-1.588-1.449-2.12-.654-.533-1.477-.799-2.472-.799-1.001 0-1.832.266-2.493.799-.653.532-1.14 1.239-1.459 2.12-.313.873-.469 1.832-.469 2.876 0 1.051.156 2.014.469 2.887.319.874.806 1.573 1.459 2.099.661.525 1.492.788 2.493.788ZM119.446 539v-16.364h3.079v2.6h.17a3.962 3.962 0 0 1 1.577-2.078c.76-.511 1.619-.767 2.578-.767.199 0 .433.007.703.022.277.014.494.032.65.053v3.047a5.498 5.498 0 0 0-.682-.117 6.458 6.458 0 0 0-.98-.075c-.753 0-1.424.16-2.013.479a3.564 3.564 0 0 0-1.385 1.311c-.341.554-.512 1.186-.512 1.896V539h-3.185ZM9.929 558.636v2.557H.682v-2.557h9.247ZM3.217 575v-18.26c0-1.023.224-1.871.671-2.546a4.117 4.117 0 0 1 1.78-1.524 5.689 5.689 0 0 1 2.407-.511c.64 0 1.186.053 1.64.16.456.099.793.192 1.013.277l-.746 2.578a14.49 14.49 0 0 0-.575-.149 3.274 3.274 0 0 0-.852-.096c-.774 0-1.328.192-1.662.575-.327.384-.49.938-.49 1.662V575H3.217Zm14.263.362c-1.037 0-1.975-.192-2.813-.575a4.738 4.738 0 0 1-1.992-1.694c-.483-.739-.725-1.644-.725-2.717 0-.923.178-1.683.533-2.279a3.928 3.928 0 0 1 1.438-1.417 7.528 7.528 0 0 1 2.024-.789 20.173 20.173 0 0 1 2.28-.404l2.387-.277c.61-.079 1.054-.203 1.331-.373.277-.171.416-.448.416-.831v-.075c0-.93-.263-1.651-.789-2.163-.518-.511-1.292-.767-2.322-.767-1.072 0-1.918.238-2.536.714-.61.469-1.033.991-1.267 1.566l-2.994-.682c.355-.994.874-1.796 1.556-2.407a6.309 6.309 0 0 1 2.375-1.343 9.277 9.277 0 0 1 2.823-.426c.654 0 1.346.078 2.078.235a6.074 6.074 0 0 1 2.067.831c.646.404 1.175.983 1.587 1.736.412.746.618 1.715.618 2.909V575h-3.11v-2.237h-.129c-.206.412-.515.817-.927 1.214-.412.398-.94.728-1.587.991-.646.263-1.42.394-2.322.394Zm.692-2.557c.88 0 1.634-.174 2.259-.522.632-.348 1.111-.802 1.438-1.363.334-.568.5-1.176.5-1.822v-2.109c-.113.113-.333.22-.66.319-.32.093-.685.174-1.097.245-.412.064-.813.125-1.204.181l-.98.128a7.93 7.93 0 0 0-1.694.394c-.504.185-.91.451-1.215.799-.298.341-.447.796-.447 1.364 0 .788.291 1.385.873 1.79.583.398 1.325.596 2.227.596Zm23.888-10.174-2.887.512a3.417 3.417 0 0 0-.576-1.055c-.255-.334-.603-.607-1.044-.82-.44-.213-.99-.32-1.651-.32-.902 0-1.655.203-2.258.607-.604.398-.906.913-.906 1.545 0 .547.202.987.607 1.321.405.334 1.058.607 1.96.82l2.6.597c1.505.348 2.628.884 3.366 1.609.739.724 1.108 1.665 1.108 2.823a4.29 4.29 0 0 1-.852 2.621c-.561.76-1.346 1.356-2.354 1.789-1.002.434-2.163.65-3.484.65-1.833 0-3.328-.39-4.485-1.172-1.158-.788-1.868-1.907-2.13-3.355l3.078-.469c.192.802.586 1.41 1.182 1.822.597.404 1.375.607 2.334.607 1.044 0 1.878-.217 2.503-.65.625-.44.938-.977.938-1.609 0-.511-.192-.941-.576-1.289-.376-.348-.955-.611-1.736-.788l-2.77-.607c-1.527-.348-2.656-.902-3.388-1.662-.724-.76-1.086-1.723-1.086-2.887 0-.966.27-1.811.81-2.536.539-.724 1.285-1.289 2.236-1.694.952-.412 2.042-.618 3.271-.618 1.769 0 3.16.384 4.176 1.151 1.016.76 1.687 1.779 2.014 3.057Zm11.46-3.995v2.557h-8.938v-2.557h8.938Zm-6.541-3.92h3.185v15.479c0 .618.093 1.083.277 1.396.185.305.423.515.714.628.298.107.621.16.97.16.255 0 .479-.017.67-.053l.448-.085.575 2.631a5.36 5.36 0 0 1-.788.213 6.23 6.23 0 0 1-1.278.128 5.62 5.62 0 0 1-2.344-.447 4.027 4.027 0 0 1-1.758-1.449c-.447-.654-.671-1.474-.671-2.461v-16.14ZM63.92 575.33c-1.612 0-3-.344-4.165-1.033-1.158-.696-2.053-1.673-2.685-2.93-.625-1.264-.937-2.745-.937-4.442 0-1.676.312-3.154.937-4.432.632-1.279 1.513-2.276 2.642-2.994 1.137-.717 2.465-1.076 3.985-1.076.923 0 1.818.153 2.684.458a6.504 6.504 0 0 1 2.334 1.439c.688.653 1.232 1.502 1.63 2.546.397 1.037.596 2.297.596 3.782v1.129H57.933v-2.386h9.887c0-.838-.17-1.581-.512-2.227a3.873 3.873 0 0 0-1.438-1.545c-.61-.376-1.328-.564-2.152-.564-.895 0-1.676.22-2.344.66a4.434 4.434 0 0 0-1.534 1.705 4.92 4.92 0 0 0-.533 2.269v1.864c0 1.094.192 2.024.576 2.791.39.768.934 1.353 1.63 1.758.696.398 1.509.597 2.44.597.603 0 1.153-.085 1.65-.256.498-.177.928-.44 1.29-.788.362-.348.639-.778.83-1.289l3.016.543a5.454 5.454 0 0 1-1.3 2.333c-.618.661-1.396 1.176-2.333 1.545-.93.362-1.992.543-3.185.543Zm10.555-.33v-16.364h3.08v2.6h.17a3.959 3.959 0 0 1 1.576-2.078c.76-.511 1.62-.767 2.578-.767.2 0 .434.007.704.022.277.014.493.032.65.053v3.047a5.496 5.496 0 0 0-.682-.117 6.47 6.47 0 0 0-.98-.075c-.753 0-1.424.16-2.014.479a3.567 3.567 0 0 0-1.385 1.311c-.34.554-.511 1.186-.511 1.896V575h-3.186Zm22.639-21.818V575h-3.186v-21.818h3.186Zm11.178 22.148c-1.534 0-2.873-.351-4.016-1.054-1.144-.704-2.032-1.687-2.664-2.951-.632-1.265-.948-2.742-.948-4.432 0-1.698.316-3.182.948-4.453.632-1.272 1.52-2.259 2.664-2.962 1.143-.703 2.482-1.055 4.016-1.055 1.534 0 2.873.352 4.016 1.055 1.144.703 2.031 1.69 2.664 2.962.632 1.271.948 2.755.948 4.453 0 1.69-.316 3.167-.948 4.432-.633 1.264-1.52 2.247-2.664 2.951-1.143.703-2.482 1.054-4.016 1.054Zm.011-2.674c.994 0 1.818-.263 2.471-.788.654-.526 1.137-1.225 1.449-2.099.32-.873.479-1.836.479-2.887 0-1.044-.159-2.003-.479-2.876-.312-.881-.795-1.588-1.449-2.12-.653-.533-1.477-.799-2.471-.799-1.002 0-1.833.266-2.493.799-.654.532-1.14 1.239-1.46 2.12-.312.873-.469 1.832-.469 2.876 0 1.051.157 2.014.469 2.887.32.874.806 1.573 1.46 2.099.66.525 1.491.788 2.493.788Zm15.934 2.706c-1.037 0-1.974-.192-2.812-.575a4.738 4.738 0 0 1-1.992-1.694c-.483-.739-.725-1.644-.725-2.717 0-.923.178-1.683.533-2.279a3.924 3.924 0 0 1 1.438-1.417 7.54 7.54 0 0 1 2.024-.789 20.192 20.192 0 0 1 2.28-.404l2.386-.277c.611-.079 1.055-.203 1.332-.373.277-.171.416-.448.416-.831v-.075c0-.93-.263-1.651-.789-2.163-.518-.511-1.292-.767-2.322-.767-1.073 0-1.918.238-2.536.714-.61.469-1.033.991-1.267 1.566l-2.994-.682c.355-.994.874-1.796 1.555-2.407a6.31 6.31 0 0 1 2.376-1.343 9.278 9.278 0 0 1 2.823-.426c.654 0 1.346.078 2.078.235a6.074 6.074 0 0 1 2.066.831c.647.404 1.176.983 1.588 1.736.412.746.618 1.715.618 2.909V575h-3.111v-2.237h-.128c-.206.412-.515.817-.927 1.214-.412.398-.941.728-1.587.991s-1.421.394-2.323.394Zm.693-2.557c.881 0 1.633-.174 2.258-.522.632-.348 1.112-.802 1.439-1.363.333-.568.5-1.176.5-1.822v-2.109c-.113.113-.333.22-.66.319-.32.093-.686.174-1.098.245-.411.064-.813.125-1.203.181-.391.05-.718.093-.98.128a7.924 7.924 0 0 0-1.694.394c-.505.185-.909.451-1.215.799-.298.341-.447.796-.447 1.364 0 .788.291 1.385.873 1.79.583.398 1.325.596 2.227.596Zm17.751 2.515c-1.321 0-2.5-.338-3.537-1.012-1.03-.682-1.839-1.652-2.429-2.909-.582-1.264-.873-2.78-.873-4.549 0-1.768.294-3.281.884-4.538.596-1.257 1.413-2.22 2.45-2.887 1.037-.668 2.212-1.002 3.526-1.002 1.016 0 1.833.171 2.451.512.625.333 1.108.724 1.449 1.172.348.447.617.841.809 1.182h.192v-8.107h3.185V575h-3.11v-2.546h-.267a8.442 8.442 0 0 1-.831 1.193c-.355.447-.845.838-1.47 1.172-.625.334-1.435.501-2.429.501Zm.703-2.717c.916 0 1.691-.241 2.323-.724.639-.491 1.122-1.169 1.449-2.035.333-.867.5-1.875.5-3.026 0-1.136-.163-2.131-.49-2.983-.327-.852-.806-1.516-1.438-1.992-.632-.476-1.413-.714-2.344-.714-.959 0-1.758.249-2.397.746-.639.497-1.122 1.175-1.449 2.035-.319.859-.479 1.829-.479 2.908 0 1.094.163 2.078.49 2.951.327.874.81 1.566 1.449 2.078.646.504 1.442.756 2.386.756ZM9.78 594.636v2.557H.842v-2.557H9.78Zm-6.541-3.92h3.185v15.479c0 .618.092 1.083.277 1.396.185.305.423.515.714.628.298.107.621.16.97.16.255 0 .479-.017.67-.053l.448-.085.575 2.631a5.356 5.356 0 0 1-.788.213 6.24 6.24 0 0 1-1.279.128 5.62 5.62 0 0 1-2.343-.447 4.027 4.027 0 0 1-1.758-1.449c-.448-.654-.671-1.474-.671-2.461v-16.14ZM13.303 611v-16.364h3.186V611h-3.186Zm1.61-18.888c-.555 0-1.03-.185-1.428-.554-.391-.377-.586-.824-.586-1.343 0-.525.195-.973.586-1.342a2.002 2.002 0 0 1 1.427-.565c.554 0 1.026.188 1.417.565.398.369.597.817.597 1.342 0 .519-.2.966-.597 1.343a1.99 1.99 0 0 1-1.417.554ZM20.773 611v-16.364h3.058v2.664h.202c.341-.902.899-1.605 1.673-2.11.774-.511 1.7-.767 2.78-.767 1.094 0 2.01.256 2.749.767.745.512 1.296 1.215 1.651 2.11h.17c.391-.874 1.013-1.57 1.865-2.088.852-.526 1.868-.789 3.047-.789 1.484 0 2.695.465 3.633 1.396.944.93 1.417 2.333 1.417 4.208V611h-3.186v-10.675c0-1.108-.302-1.91-.905-2.407-.604-.498-1.325-.746-2.163-.746-1.037 0-1.843.319-2.418.959-.576.632-.863 1.445-.863 2.439V611h-3.175v-10.877c0-.888-.277-1.602-.831-2.141-.554-.54-1.275-.81-2.163-.81a3.1 3.1 0 0 0-1.672.479c-.505.313-.913.75-1.225 1.311-.306.561-.459 1.211-.459 1.949V611h-3.185Zm33.566.33c-1.612 0-3-.344-4.165-1.033-1.158-.696-2.053-1.673-2.685-2.93-.625-1.264-.937-2.745-.937-4.442 0-1.676.312-3.154.937-4.432.632-1.279 1.513-2.276 2.642-2.994 1.137-.717 2.465-1.076 3.985-1.076.923 0 1.818.153 2.684.458a6.504 6.504 0 0 1 2.333 1.439c.69.653 1.233 1.502 1.63 2.546.398 1.037.597 2.297.597 3.782v1.129H48.353v-2.386h9.886c0-.838-.17-1.581-.51-2.227a3.874 3.874 0 0 0-1.439-1.545c-.61-.376-1.328-.564-2.152-.564-.895 0-1.676.22-2.344.66a4.434 4.434 0 0 0-1.534 1.705 4.92 4.92 0 0 0-.532 2.269v1.864c0 1.094.191 2.024.575 2.791.39.768.934 1.353 1.63 1.758.696.398 1.509.597 2.44.597.603 0 1.154-.085 1.65-.256.498-.177.927-.44 1.29-.788.362-.348.639-.778.83-1.289l3.016.543a5.455 5.455 0 0 1-1.3 2.333c-.618.661-1.396 1.176-2.333 1.545-.93.362-1.992.543-3.186.543Zm22.817-12.699-2.887.512a3.417 3.417 0 0 0-.575-1.055c-.256-.334-.604-.607-1.044-.82-.44-.213-.99-.32-1.651-.32-.902 0-1.655.203-2.259.607-.604.398-.905.913-.905 1.545 0 .547.202.987.607 1.321.405.334 1.058.607 1.96.82l2.6.597c1.505.348 2.627.884 3.366 1.609.739.724 1.108 1.665 1.108 2.823a4.29 4.29 0 0 1-.852 2.621c-.561.76-1.346 1.356-2.355 1.789-1.001.434-2.162.65-3.483.65-1.833 0-3.328-.39-4.486-1.172-1.157-.788-1.867-1.907-2.13-3.355l3.079-.469c.191.802.586 1.41 1.182 1.822.597.404 1.374.607 2.333.607 1.044 0 1.879-.217 2.504-.65.625-.44.937-.977.937-1.609a1.67 1.67 0 0 0-.575-1.289c-.376-.348-.955-.611-1.737-.788l-2.77-.607c-1.526-.348-2.656-.902-3.387-1.662-.725-.76-1.087-1.723-1.087-2.887 0-.966.27-1.811.81-2.536.54-.724 1.285-1.289 2.237-1.694.952-.412 2.042-.618 3.27-.618 1.77 0 3.161.384 4.177 1.151 1.015.76 1.687 1.779 2.013 3.057Z"/><path stroke="#18181B" stroke-linecap="round" stroke-width="4" d="M226 423h-24"/><path fill="#18181B" d="M216 423a2 2 0 1 0-4 0h4Zm-4 0v123h4V423h-4Z"/><path stroke="#18181B" stroke-linecap="round" stroke-width="4" d="M202 669h24"/><path fill="#18181B" d="M212 669a2 2 0 1 0 4 0h-4Zm4 0V546h-4v123h4ZM4.304 173.682l6.072 17.77h.245l6.073-17.77h3.558L12.401 195.5H8.597L.746 173.682h3.558ZM23.147 195.5v-16.364h3.186V195.5h-3.186Zm1.609-18.888c-.554 0-1.03-.185-1.428-.554-.39-.377-.586-.824-.586-1.343 0-.525.196-.973.586-1.342a2.002 2.002 0 0 1 1.428-.565c.554 0 1.026.188 1.417.565.398.369.596.817.596 1.342 0 .519-.198.966-.596 1.343a1.99 1.99 0 0 1-1.417.554ZM37.67 195.83c-1.612 0-3-.344-4.165-1.033-1.158-.696-2.053-1.673-2.685-2.93-.625-1.264-.937-2.745-.937-4.442 0-1.676.312-3.154.937-4.432.632-1.279 1.513-2.276 2.642-2.994 1.137-.717 2.465-1.076 3.985-1.076.923 0 1.818.153 2.684.458a6.504 6.504 0 0 1 2.334 1.439c.688.653 1.232 1.502 1.63 2.546.397 1.037.596 2.297.596 3.782v1.129H31.683v-2.386h9.887c0-.838-.17-1.581-.512-2.227a3.873 3.873 0 0 0-1.438-1.545c-.61-.376-1.328-.564-2.152-.564-.895 0-1.676.22-2.344.66a4.434 4.434 0 0 0-1.534 1.705 4.92 4.92 0 0 0-.533 2.269v1.864c0 1.094.192 2.024.576 2.791.39.768.934 1.353 1.63 1.758.696.398 1.509.597 2.44.597.603 0 1.153-.085 1.65-.256.498-.177.928-.44 1.29-.788.362-.348.639-.778.83-1.289l3.016.543a5.454 5.454 0 0 1-1.3 2.333c-.618.661-1.396 1.176-2.333 1.545-.93.362-1.992.543-3.186.543Zm14.074-.33-4.816-16.364h3.292l3.207 12.017h.16l3.217-12.017h3.292l3.196 11.964h.16l3.185-11.964h3.292L65.124 195.5h-3.249l-3.324-11.815h-.245L54.982 195.5h-3.238Zm21.208 6.136v-22.5h3.11v2.653h.267a8.9 8.9 0 0 1 .799-1.182c.348-.448.831-.839 1.449-1.172.618-.341 1.434-.512 2.45-.512 1.321 0 2.5.334 3.537 1.002 1.037.667 1.85 1.63 2.44 2.887.596 1.257.895 2.77.895 4.538 0 1.769-.295 3.285-.885 4.549-.59 1.257-1.399 2.227-2.429 2.909-1.03.674-2.205 1.012-3.526 1.012-.994 0-1.807-.167-2.44-.501-.624-.334-1.115-.725-1.47-1.172a8.847 8.847 0 0 1-.82-1.193h-.192v8.682h-3.185Zm3.121-14.318c0 1.151.167 2.159.501 3.026.334.866.817 1.544 1.449 2.035.632.483 1.406.724 2.322.724.952 0 1.748-.252 2.387-.756.639-.512 1.122-1.204 1.449-2.078.333-.873.5-1.857.5-2.951 0-1.079-.163-2.049-.49-2.908-.32-.86-.802-1.538-1.449-2.035-.639-.497-1.438-.746-2.397-.746-.923 0-1.704.238-2.343.714-.632.476-1.112 1.14-1.439 1.992-.326.852-.49 1.847-.49 2.983Zm22.287 8.512c-1.534 0-2.873-.351-4.016-1.054-1.143-.704-2.031-1.687-2.663-2.951-.632-1.265-.949-2.742-.949-4.432 0-1.698.317-3.182.949-4.453.632-1.272 1.52-2.259 2.663-2.962 1.143-.703 2.482-1.055 4.016-1.055 1.534 0 2.873.352 4.017 1.055 1.143.703 2.031 1.69 2.663 2.962.632 1.271.948 2.755.948 4.453 0 1.69-.316 3.167-.948 4.432-.632 1.264-1.52 2.247-2.663 2.951-1.144.703-2.483 1.054-4.017 1.054Zm.01-2.674c.995 0 1.819-.263 2.473-.788.653-.526 1.136-1.225 1.448-2.099.32-.873.48-1.836.48-2.887 0-1.044-.16-2.003-.48-2.876-.312-.881-.795-1.588-1.448-2.12-.654-.533-1.478-.799-2.472-.799-1.001 0-1.832.266-2.493.799-.653.532-1.14 1.239-1.46 2.12-.312.873-.468 1.832-.468 2.876 0 1.051.156 2.014.468 2.887.32.874.807 1.573 1.46 2.099.66.525 1.492.788 2.493.788Zm11.174 2.344v-16.364h3.079v2.6h.17a3.957 3.957 0 0 1 1.577-2.078c.76-.511 1.619-.767 2.578-.767.199 0 .433.007.703.022.277.014.494.032.65.053v3.047a5.498 5.498 0 0 0-.682-.117 6.468 6.468 0 0 0-.98-.075c-.753 0-1.424.16-2.014.479a3.57 3.57 0 0 0-1.385 1.311c-.34.554-.511 1.186-.511 1.896v9.993h-3.185Zm20.119-16.364v2.557h-8.939v-2.557h8.939Zm-6.542-3.92h3.186v15.479c0 .618.092 1.083.277 1.396.184.305.422.515.714.628.298.107.621.16.969.16.256 0 .479-.017.671-.053l.448-.085.575 2.631a5.396 5.396 0 0 1-.788.213 6.241 6.241 0 0 1-1.279.128 5.622 5.622 0 0 1-2.344-.447 4.025 4.025 0 0 1-1.757-1.449c-.448-.654-.672-1.474-.672-2.461v-16.14Z"/><path stroke="#18181B" stroke-linecap="round" stroke-width="4" d="M226 8h-24"/><path fill="#18181B" d="M216 8a2 2 0 1 0-4 0h4Zm-4 0v176.5h4V8h-4Z"/><path stroke="#18181B" stroke-linecap="round" stroke-width="4" d="M202 361h24"/><path fill="#18181B" d="M212 361a2 2 0 1 0 4 0h-4Zm4 0V184.5h-4V361h4Z"/><defs><filter id="a" width="183" height="371" x="249" y="-2" color-interpolation-filters="sRGB" filterUnits="userSpaceOnUse"><feFlood flood-opacity="0" result="BackgroundImageFix"/><feBlend in="SourceGraphic" in2="BackgroundImageFix" result="shape"/><feColorMatrix in="SourceAlpha" result="hardAlpha" values="0 0 0 0 0 0 0 0 0 0 0 0 0 0 0 0 0 0 127 0"/><feOffset dy="-2"/><feGaussianBlur stdDeviation="3"/><feComposite in2="hardAlpha" k2="-1" k3="1" operator="arithmetic"/><feColorMatrix values="0 0 0 0 0.0392157 0 0 0 0 0.145098 0 0 0 0 0.25098 0 0 0 0.35 0"/><feBlend in2="shape" result="effect1_innerShadow_546_574"/></filter><filter id="c" width="103.332" height="73.388" x="266.849" y="70.922" color-interpolation-filters="sRGB" filterUnits="userSpaceOnUse"><feFlood flood-opacity="0" result="BackgroundImageFix"/><feColorMatrix in="SourceAlpha" result="hardAlpha" values="0 0 0 0 0 0 0 0 0 0 0 0 0 0 0 0 0 0 127 0"/><feMorphology in="SourceAlpha" radius="1.064" result="effect1_dropShadow_546_574"/><feOffset dy="2.128"/><feGaussianBlur stdDeviation="1.596"/><feColorMatrix values="0 0 0 0 0 0 0 0 0 0 0 0 0 0 0 0 0 0 0.05 0"/><feBlend in2="BackgroundImageFix" result="effect1_dropShadow_546_574"/><feColorMatrix in="SourceAlpha" result="hardAlpha" values="0 0 0 0 0 0 0 0 0 0 0 0 0 0 0 0 0 0 127 0"/><feMorphology in="SourceAlpha" radius="1.596" result="effect2_dropShadow_546_574"/><feOffset dy="5.319"/><feGaussianBlur stdDeviation="3.99"/><feColorMatrix values="0 0 0 0 0 0 0 0 0 0 0 0 0 0 0 0 0 0 0.1 0"/><feBlend in2="effect1_dropShadow_546_574" result="effect2_dropShadow_546_574"/><feBlend in="SourceGraphic" in2="effect2_dropShadow_546_574" result="shape"/></filter><filter id="e" width="103.332" height="73.388" x="266.849" y="205.903" color-interpolation-filters="sRGB" filterUnits="userSpaceOnUse"><feFlood flood-opacity="0" result="BackgroundImageFix"/><feColorMatrix in="SourceAlpha" result="hardAlpha" values="0 0 0 0 0 0 0 0 0 0 0 0 0 0 0 0 0 0 127 0"/><feMorphology in="SourceAlpha" radius="1.064" result="effect1_dropShadow_546_574"/><feOffset dy="2.128"/><feGaussianBlur stdDeviation="1.596"/><feColorMatrix values="0 0 0 0 0 0 0 0 0 0 0 0 0 0 0 0 0 0 0.05 0"/><feBlend in2="BackgroundImageFix" result="effect1_dropShadow_546_574"/><feColorMatrix in="SourceAlpha" result="hardAlpha" values="0 0 0 0 0 0 0 0 0 0 0 0 0 0 0 0 0 0 127 0"/><feMorphology in="SourceAlpha" radius="1.596" result="effect2_dropShadow_546_574"/><feOffset dy="5.319"/><feGaussianBlur stdDeviation="3.99"/><feColorMatrix values="0 0 0 0 0 0 0 0 0 0 0 0 0 0 0 0 0 0 0.1 0"/><feBlend in2="effect1_dropShadow_546_574" result="effect2_dropShadow_546_574"/><feBlend in="SourceGraphic" in2="effect2_dropShadow_546_574" result="shape"/></filter><filter id="g" width="103.332" height="73.388" x="266.849" y="340.884" color-interpolation-filters="sRGB" filterUnits="userSpaceOnUse"><feFlood flood-opacity="0" result="BackgroundImageFix"/><feColorMatrix in="SourceAlpha" result="hardAlpha" values="0 0 0 0 0 0 0 0 0 0 0 0 0 0 0 0 0 0 127 0"/><feMorphology in="SourceAlpha" radius="1.064" result="effect1_dropShadow_546_574"/><feOffset dy="2.128"/><feGaussianBlur stdDeviation="1.596"/><feColorMatrix values="0 0 0 0 0 0 0 0 0 0 0 0 0 0 0 0 0 0 0.05 0"/><feBlend in2="BackgroundImageFix" result="effect1_dropShadow_546_574"/><feColorMatrix in="SourceAlpha" result="hardAlpha" values="0 0 0 0 0 0 0 0 0 0 0 0 0 0 0 0 0 0 127 0"/><feMorphology in="SourceAlpha" radius="1.596" result="effect2_dropShadow_546_574"/><feOffset dy="5.319"/><feGaussianBlur stdDeviation="3.99"/><feColorMatrix values="0 0 0 0 0 0 0 0 0 0 0 0 0 0 0 0 0 0 0.1 0"/><feBlend in2="effect1_dropShadow_546_574" result="effect2_dropShadow_546_574"/><feBlend in="SourceGraphic" in2="effect2_dropShadow_546_574" result="shape"/></filter><clipPath id="b"><rect width="119.688" height="113.703" x="280.747" y="15.713" fill="#fff" rx="4.256"/></clipPath><clipPath id="d"><rect width="119.688" height="113.703" x="280.747" y="150.694" fill="#fff" rx="4.256"/></clipPath><clipPath id="f"><rect width="119.688" height="113.703" x="280.747" y="285.675" fill="#fff" rx="4.256"/></clipPath></defs></svg>