<svg width="1146" height="542" viewBox="0 0 1146 542" fill="none" xmlns="http://www.w3.org/2000/svg">
<rect y="166" width="1146" height="376" rx="8" fill="#FAFAFA"/>
<path d="M1117.71 344.707C1118.1 344.317 1118.1 343.684 1117.71 343.293L1111.34 336.929C1110.95 336.539 1110.32 336.539 1109.93 336.929C1109.54 337.32 1109.54 337.953 1109.93 338.343L1115.59 344L1109.93 349.657C1109.54 350.047 1109.54 350.681 1109.93 351.071C1110.32 351.462 1110.95 351.462 1111.34 351.071L1117.71 344.707ZM22 345L26.4877 345L26.4877 343L22 343L22 345ZM35.4631 345L44.4385 345L44.4385 343L35.4631 343L35.4631 345ZM53.4139 345L62.3893 345L62.3893 343L53.4139 343L53.4139 345ZM71.3648 345L80.3402 345L80.3402 343L71.3648 343L71.3648 345ZM89.3156 345L98.291 345L98.291 343L89.3156 343L89.3156 345ZM107.266 345L116.242 345L116.242 343L107.266 343L107.266 345ZM125.217 345L134.193 345L134.193 343L125.217 343L125.217 345ZM143.168 345L152.143 345L152.143 343L143.168 343L143.168 345ZM161.119 345L170.094 345L170.094 343L161.119 343L161.119 345ZM179.07 345L188.045 345L188.045 343L179.07 343L179.07 345ZM197.02 345L205.996 345L205.996 343L197.02 343L197.02 345ZM214.971 345L223.947 345L223.947 343L214.971 343L214.971 345ZM232.922 345L241.897 345L241.897 343L232.922 343L232.922 345ZM250.873 345L259.848 345L259.848 343L250.873 343L250.873 345ZM268.824 345L277.799 345L277.799 343L268.824 343L268.824 345ZM286.775 345L295.75 345L295.75 343L286.775 343L286.775 345ZM304.725 345L313.701 345L313.701 343L304.725 343L304.725 345ZM322.676 345L331.652 345L331.652 343L322.676 343L322.676 345ZM340.627 345L349.602 345L349.602 343L340.627 343L340.627 345ZM358.578 345L367.553 345L367.553 343L358.578 343L358.578 345ZM376.529 345L385.504 345L385.504 343L376.529 343L376.529 345ZM394.479 345L403.455 345L403.455 343L394.479 343L394.479 345ZM412.43 345L421.406 345L421.406 343L412.43 343L412.43 345ZM430.381 345L439.356 345L439.356 343L430.381 343L430.381 345ZM448.332 345L457.307 345L457.307 343L448.332 343L448.332 345ZM466.283 345L475.258 345L475.258 343L466.283 343L466.283 345ZM484.233 345L493.209 345L493.209 343L484.233 343L484.233 345ZM502.184 345L511.16 345L511.16 343L502.184 343L502.184 345ZM520.135 345L529.11 345L529.11 343L520.135 343L520.135 345ZM538.086 345L547.061 345L547.061 343L538.086 343L538.086 345ZM556.037 345L565.012 345L565.012 343L556.037 343L556.037 345ZM573.987 345L582.963 345L582.963 343L573.987 343L573.987 345ZM591.938 345L600.914 345L600.914 343L591.938 343L591.938 345ZM609.889 345L618.864 345L618.864 343L609.889 343L609.889 345ZM627.84 345L636.815 345L636.815 343L627.84 343L627.84 345ZM645.791 345L654.766 345L654.766 343L645.791 343L645.791 345ZM663.741 345L672.717 345L672.717 343L663.741 343L663.741 345ZM681.692 345L690.668 345L690.668 343L681.692 343L681.692 345ZM699.643 345L708.618 345L708.618 343L699.643 343L699.643 345ZM717.594 345L726.569 345L726.569 343L717.594 343L717.594 345ZM735.545 345L744.52 345L744.52 343L735.545 343L735.545 345ZM753.495 345L762.471 345L762.471 343L753.495 343L753.495 345ZM771.446 345L780.422 345L780.422 343L771.446 343L771.446 345ZM789.397 345L798.372 345L798.372 343L789.397 343L789.397 345ZM807.348 345L816.323 345L816.323 343L807.348 343L807.348 345ZM825.299 345L834.274 345L834.274 343L825.299 343L825.299 345ZM843.25 345L852.225 345L852.225 343L843.25 343L843.25 345ZM861.2 345L870.176 345L870.176 343L861.2 343L861.2 345ZM879.151 345L888.127 345L888.127 343L879.151 343L879.151 345ZM897.102 345L906.077 345L906.077 343L897.102 343L897.102 345ZM915.053 345L924.028 345L924.028 343L915.053 343L915.053 345ZM933.004 345L941.979 345L941.979 343L933.004 343L933.004 345ZM950.954 345L959.93 345L959.93 343L950.954 343L950.954 345ZM968.905 345L977.881 345L977.881 343L968.905 343L968.905 345ZM986.856 345L995.831 345L995.831 343L986.856 343L986.856 345ZM1004.81 345L1013.78 345L1013.78 343L1004.81 343L1004.81 345ZM1022.76 345L1031.73 345L1031.73 343L1022.76 343L1022.76 345ZM1040.71 345L1049.68 345L1049.68 343L1040.71 343L1040.71 345ZM1058.66 345L1067.63 345L1067.63 343L1058.66 343L1058.66 345ZM1076.61 345L1085.59 345L1085.59 343L1076.61 343L1076.61 345ZM1094.56 345L1103.54 345L1103.54 343L1094.56 343L1094.56 345ZM1112.51 345L1117 345L1117 343L1112.51 343L1112.51 345ZM1118.41 345.414C1119.2 344.633 1119.2 343.367 1118.41 342.586L1105.69 329.858C1104.91 329.077 1103.64 329.077 1102.86 329.858C1102.08 330.639 1102.08 331.905 1102.86 332.686L1114.17 344L1102.86 355.314C1102.08 356.095 1102.08 357.361 1102.86 358.142C1103.64 358.923 1104.91 358.923 1105.69 358.142L1118.41 345.414ZM22 346L26.4877 346L26.4877 342L22 342L22 346ZM35.4631 346L44.4385 346L44.4385 342L35.4631 342L35.4631 346ZM53.4139 346L62.3893 346L62.3893 342L53.4139 342L53.4139 346ZM71.3648 346L80.3402 346L80.3402 342L71.3648 342L71.3648 346ZM89.3156 346L98.291 346L98.291 342L89.3156 342L89.3156 346ZM107.266 346L116.242 346L116.242 342L107.266 342L107.266 346ZM125.217 346L134.193 346L134.193 342L125.217 342L125.217 346ZM143.168 346L152.143 346L152.143 342L143.168 342L143.168 346ZM161.119 346L170.094 346L170.094 342L161.119 342L161.119 346ZM179.07 346L188.045 346L188.045 342L179.07 342L179.07 346ZM197.02 346L205.996 346L205.996 342L197.02 342L197.02 346ZM214.971 346L223.947 346L223.947 342L214.971 342L214.971 346ZM232.922 346L241.897 346L241.897 342L232.922 342L232.922 346ZM250.873 346L259.848 346L259.848 342L250.873 342L250.873 346ZM268.824 346L277.799 346L277.799 342L268.824 342L268.824 346ZM286.775 346L295.75 346L295.75 342L286.775 342L286.775 346ZM304.725 346L313.701 346L313.701 342L304.725 342L304.725 346ZM322.676 346L331.652 346L331.652 342L322.676 342L322.676 346ZM340.627 346L349.602 346L349.602 342L340.627 342L340.627 346ZM358.578 346L367.553 346L367.553 342L358.578 342L358.578 346ZM376.529 346L385.504 346L385.504 342L376.529 342L376.529 346ZM394.479 346L403.455 346L403.455 342L394.479 342L394.479 346ZM412.43 346L421.406 346L421.406 342L412.43 342L412.43 346ZM430.381 346L439.356 346L439.356 342L430.381 342L430.381 346ZM448.332 346L457.307 346L457.307 342L448.332 342L448.332 346ZM466.283 346L475.258 346L475.258 342L466.283 342L466.283 346ZM484.233 346L493.209 346L493.209 342L484.233 342L484.233 346ZM502.184 346L511.16 346L511.16 342L502.184 342L502.184 346ZM520.135 346L529.11 346L529.11 342L520.135 342L520.135 346ZM538.086 346L547.061 346L547.061 342L538.086 342L538.086 346ZM556.037 346L565.012 346L565.012 342L556.037 342L556.037 346ZM573.987 346L582.963 346L582.963 342L573.987 342L573.987 346ZM591.938 346L600.914 346L600.914 342L591.938 342L591.938 346ZM609.889 346L618.864 346L618.864 342L609.889 342L609.889 346ZM627.84 346L636.815 346L636.815 342L627.84 342L627.84 346ZM645.791 346L654.766 346L654.766 342L645.791 342L645.791 346ZM663.741 346L672.717 346L672.717 342L663.741 342L663.741 346ZM681.692 346L690.668 346L690.668 342L681.692 342L681.692 346ZM699.643 346L708.618 346L708.618 342L699.643 342L699.643 346ZM717.594 346L726.569 346L726.569 342L717.594 342L717.594 346ZM735.545 346L744.52 346L744.52 342L735.545 342L735.545 346ZM753.495 346L762.471 346L762.471 342L753.495 342L753.495 346ZM771.446 346L780.422 346L780.422 342L771.446 342L771.446 346ZM789.397 346L798.372 346L798.372 342L789.397 342L789.397 346ZM807.348 346L816.323 346L816.323 342L807.348 342L807.348 346ZM825.299 346L834.274 346L834.274 342L825.299 342L825.299 346ZM843.25 346L852.225 346L852.225 342L843.25 342L843.25 346ZM861.2 346L870.176 346L870.176 342L861.2 342L861.2 346ZM879.151 346L888.127 346L888.127 342L879.151 342L879.151 346ZM897.102 346L906.077 346L906.077 342L897.102 342L897.102 346ZM915.053 346L924.028 346L924.028 342L915.053 342L915.053 346ZM933.004 346L941.979 346L941.979 342L933.004 342L933.004 346ZM950.954 346L959.93 346L959.93 342L950.954 342L950.954 346ZM968.905 346L977.881 346L977.881 342L968.905 342L968.905 346ZM986.856 346L995.831 346L995.831 342L986.856 342L986.856 346ZM1004.81 346L1013.78 346L1013.78 342L1004.81 342L1004.81 346ZM1022.76 346L1031.73 346L1031.73 342L1022.76 342L1022.76 346ZM1040.71 346L1049.68 346L1049.68 342L1040.71 342L1040.71 346ZM1058.66 346L1067.63 346L1067.63 342L1058.66 342L1058.66 346ZM1076.61 346L1085.59 346L1085.59 342L1076.61 342L1076.61 346ZM1094.56 346L1103.54 346L1103.54 342L1094.56 342L1094.56 346ZM1112.51 346L1117 346L1117 342L1112.51 342L1112.51 346Z" fill="#52525B"/>
<rect x="56" y="303" width="365" height="82" rx="8" fill="#E4E4E7"/>
<path d="M163.418 353V335.545H169.81C171.048 335.545 172.074 335.75 172.886 336.159C173.699 336.562 174.307 337.111 174.71 337.804C175.114 338.491 175.315 339.267 175.315 340.131C175.315 340.858 175.182 341.472 174.915 341.972C174.648 342.466 174.29 342.864 173.841 343.165C173.398 343.46 172.909 343.676 172.375 343.812V343.983C172.955 344.011 173.52 344.199 174.071 344.545C174.628 344.886 175.088 345.372 175.452 346.003C175.815 346.634 175.997 347.401 175.997 348.304C175.997 349.196 175.787 349.997 175.366 350.707C174.952 351.412 174.31 351.972 173.44 352.386C172.571 352.795 171.46 353 170.108 353H163.418ZM166.051 350.741H169.852C171.114 350.741 172.017 350.497 172.562 350.009C173.108 349.52 173.381 348.909 173.381 348.176C173.381 347.625 173.241 347.119 172.963 346.659C172.685 346.199 172.287 345.832 171.77 345.56C171.259 345.287 170.651 345.151 169.946 345.151H166.051V350.741ZM166.051 343.097H169.58C170.17 343.097 170.702 342.983 171.173 342.756C171.651 342.528 172.028 342.21 172.307 341.801C172.591 341.386 172.733 340.898 172.733 340.335C172.733 339.614 172.48 339.009 171.974 338.52C171.469 338.031 170.693 337.787 169.648 337.787H166.051V343.097ZM181.464 335.545V353H178.916V335.545H181.464ZM190.407 353.264C189.18 353.264 188.109 352.983 187.194 352.42C186.279 351.858 185.569 351.071 185.063 350.06C184.558 349.048 184.305 347.866 184.305 346.514C184.305 345.156 184.558 343.969 185.063 342.952C185.569 341.935 186.279 341.145 187.194 340.582C188.109 340.02 189.18 339.739 190.407 339.739C191.634 339.739 192.705 340.02 193.62 340.582C194.535 341.145 195.245 341.935 195.751 342.952C196.256 343.969 196.509 345.156 196.509 346.514C196.509 347.866 196.256 349.048 195.751 350.06C195.245 351.071 194.535 351.858 193.62 352.42C192.705 352.983 191.634 353.264 190.407 353.264ZM190.415 351.125C191.211 351.125 191.87 350.915 192.393 350.494C192.915 350.074 193.302 349.514 193.552 348.815C193.808 348.116 193.935 347.347 193.935 346.506C193.935 345.67 193.808 344.903 193.552 344.205C193.302 343.5 192.915 342.935 192.393 342.509C191.87 342.082 191.211 341.869 190.415 341.869C189.614 341.869 188.95 342.082 188.421 342.509C187.898 342.935 187.509 343.5 187.254 344.205C187.004 344.903 186.879 345.67 186.879 346.506C186.879 347.347 187.004 348.116 187.254 348.815C187.509 349.514 187.898 350.074 188.421 350.494C188.95 350.915 189.614 351.125 190.415 351.125ZM204.868 353.264C203.601 353.264 202.51 352.977 201.595 352.403C200.686 351.824 199.987 351.026 199.499 350.009C199.01 348.991 198.766 347.827 198.766 346.514C198.766 345.185 199.016 344.011 199.516 342.994C200.016 341.972 200.72 341.173 201.629 340.599C202.538 340.026 203.609 339.739 204.842 339.739C205.837 339.739 206.723 339.923 207.501 340.293C208.28 340.656 208.908 341.168 209.385 341.827C209.868 342.486 210.155 343.256 210.246 344.136H207.766C207.629 343.523 207.317 342.994 206.828 342.551C206.345 342.108 205.697 341.886 204.885 341.886C204.175 341.886 203.553 342.074 203.018 342.449C202.49 342.818 202.078 343.347 201.783 344.034C201.487 344.716 201.339 345.523 201.339 346.455C201.339 347.409 201.484 348.233 201.774 348.926C202.064 349.619 202.473 350.156 203.001 350.537C203.536 350.918 204.163 351.108 204.885 351.108C205.368 351.108 205.805 351.02 206.197 350.844C206.595 350.662 206.928 350.403 207.195 350.068C207.467 349.733 207.658 349.33 207.766 348.858H210.246C210.155 349.705 209.879 350.46 209.419 351.125C208.959 351.79 208.342 352.312 207.57 352.693C206.803 353.074 205.902 353.264 204.868 353.264ZM215.315 348.56L215.298 345.449H215.741L220.957 339.909H224.008L218.059 346.216H217.658L215.315 348.56ZM212.971 353V335.545H215.519V353H212.971ZM221.238 353L216.55 346.778L218.306 344.997L224.366 353H221.238ZM226.33 353V339.909H228.879V353H226.33ZM227.617 337.889C227.174 337.889 226.793 337.741 226.475 337.446C226.163 337.145 226.006 336.787 226.006 336.372C226.006 335.952 226.163 335.594 226.475 335.298C226.793 334.997 227.174 334.847 227.617 334.847C228.06 334.847 228.438 334.997 228.751 335.298C229.069 335.594 229.228 335.952 229.228 336.372C229.228 336.787 229.069 337.145 228.751 337.446C228.438 337.741 228.06 337.889 227.617 337.889ZM234.855 345.227V353H232.307V339.909H234.753V342.04H234.915C235.216 341.347 235.688 340.79 236.33 340.369C236.977 339.949 237.793 339.739 238.776 339.739C239.668 339.739 240.449 339.926 241.119 340.301C241.79 340.67 242.31 341.222 242.679 341.955C243.048 342.687 243.233 343.594 243.233 344.673V353H240.685V344.98C240.685 344.031 240.438 343.29 239.943 342.756C239.449 342.216 238.77 341.946 237.906 341.946C237.315 341.946 236.79 342.074 236.33 342.33C235.875 342.585 235.514 342.96 235.247 343.455C234.986 343.943 234.855 344.534 234.855 345.227ZM252.139 358.182C251.099 358.182 250.205 358.045 249.455 357.773C248.71 357.5 248.102 357.139 247.631 356.69C247.159 356.241 246.807 355.75 246.574 355.216L248.764 354.312C248.918 354.562 249.122 354.827 249.378 355.105C249.639 355.389 249.991 355.631 250.435 355.83C250.884 356.028 251.46 356.128 252.165 356.128C253.131 356.128 253.929 355.892 254.56 355.42C255.19 354.955 255.506 354.21 255.506 353.188V350.614H255.344C255.19 350.892 254.969 351.202 254.679 351.543C254.395 351.884 254.003 352.179 253.503 352.429C253.003 352.679 252.352 352.804 251.551 352.804C250.517 352.804 249.585 352.562 248.756 352.08C247.932 351.591 247.278 350.872 246.795 349.923C246.318 348.969 246.08 347.795 246.08 346.403C246.08 345.011 246.315 343.818 246.787 342.824C247.264 341.83 247.918 341.068 248.747 340.54C249.577 340.006 250.517 339.739 251.568 339.739C252.381 339.739 253.037 339.875 253.537 340.148C254.037 340.415 254.426 340.727 254.705 341.085C254.989 341.443 255.207 341.759 255.361 342.031H255.548V339.909H258.045V353.29C258.045 354.415 257.784 355.338 257.261 356.06C256.739 356.781 256.031 357.315 255.139 357.662C254.253 358.009 253.253 358.182 252.139 358.182ZM252.114 350.69C252.847 350.69 253.466 350.52 253.972 350.179C254.483 349.832 254.869 349.338 255.131 348.696C255.398 348.048 255.531 347.273 255.531 346.369C255.531 345.489 255.401 344.713 255.139 344.043C254.878 343.372 254.494 342.849 253.989 342.474C253.483 342.094 252.858 341.903 252.114 341.903C251.347 341.903 250.707 342.102 250.196 342.5C249.685 342.892 249.298 343.426 249.037 344.102C248.781 344.778 248.653 345.534 248.653 346.369C248.653 347.227 248.784 347.98 249.045 348.628C249.307 349.276 249.693 349.781 250.205 350.145C250.722 350.509 251.358 350.69 252.114 350.69ZM273.925 339.909V341.955H266.775V339.909H273.925ZM268.692 336.773H271.241V349.156C271.241 349.651 271.315 350.023 271.462 350.273C271.61 350.517 271.8 350.685 272.033 350.776C272.272 350.861 272.531 350.903 272.809 350.903C273.013 350.903 273.192 350.889 273.346 350.861C273.499 350.832 273.619 350.81 273.704 350.793L274.164 352.898C274.016 352.955 273.806 353.011 273.533 353.068C273.261 353.131 272.92 353.165 272.511 353.17C271.84 353.182 271.215 353.062 270.636 352.812C270.056 352.562 269.587 352.176 269.229 351.653C268.871 351.131 268.692 350.474 268.692 349.685V336.773ZM280.554 353.29C279.724 353.29 278.974 353.136 278.304 352.83C277.634 352.517 277.102 352.065 276.71 351.474C276.324 350.884 276.131 350.159 276.131 349.301C276.131 348.562 276.273 347.955 276.557 347.477C276.841 347 277.224 346.622 277.707 346.344C278.19 346.065 278.73 345.855 279.327 345.713C279.923 345.571 280.531 345.463 281.151 345.389C281.935 345.298 282.571 345.224 283.06 345.168C283.548 345.105 283.903 345.006 284.125 344.869C284.347 344.733 284.457 344.511 284.457 344.205V344.145C284.457 343.401 284.247 342.824 283.827 342.415C283.412 342.006 282.793 341.801 281.969 341.801C281.111 341.801 280.435 341.991 279.94 342.372C279.452 342.747 279.114 343.165 278.926 343.625L276.531 343.08C276.815 342.284 277.23 341.642 277.776 341.153C278.327 340.659 278.96 340.301 279.676 340.08C280.392 339.852 281.145 339.739 281.935 339.739C282.457 339.739 283.011 339.801 283.597 339.926C284.188 340.045 284.739 340.267 285.25 340.591C285.767 340.915 286.19 341.378 286.52 341.98C286.849 342.577 287.014 343.352 287.014 344.307V353H284.526V351.21H284.423C284.259 351.54 284.011 351.864 283.682 352.182C283.352 352.5 282.929 352.764 282.412 352.974C281.895 353.185 281.276 353.29 280.554 353.29ZM281.108 351.244C281.813 351.244 282.415 351.105 282.915 350.827C283.42 350.548 283.804 350.185 284.065 349.736C284.332 349.281 284.466 348.795 284.466 348.278V346.591C284.375 346.682 284.199 346.767 283.938 346.847C283.682 346.92 283.389 346.986 283.06 347.043C282.73 347.094 282.409 347.142 282.097 347.188C281.784 347.227 281.523 347.261 281.312 347.29C280.818 347.352 280.366 347.457 279.957 347.605C279.554 347.753 279.23 347.966 278.986 348.244C278.747 348.517 278.628 348.881 278.628 349.335C278.628 349.966 278.861 350.443 279.327 350.767C279.793 351.085 280.386 351.244 281.108 351.244ZM300.218 343.105L297.908 343.514C297.812 343.219 297.658 342.937 297.448 342.67C297.244 342.403 296.965 342.185 296.613 342.014C296.261 341.844 295.82 341.759 295.292 341.759C294.57 341.759 293.968 341.92 293.485 342.244C293.002 342.562 292.761 342.974 292.761 343.48C292.761 343.918 292.923 344.27 293.246 344.537C293.57 344.804 294.093 345.023 294.815 345.193L296.894 345.67C298.099 345.949 298.996 346.378 299.587 346.957C300.178 347.537 300.474 348.29 300.474 349.216C300.474 350 300.246 350.699 299.792 351.312C299.343 351.92 298.715 352.398 297.908 352.744C297.107 353.091 296.178 353.264 295.121 353.264C293.656 353.264 292.46 352.952 291.533 352.327C290.607 351.696 290.039 350.801 289.829 349.642L292.292 349.267C292.445 349.909 292.761 350.395 293.238 350.724C293.715 351.048 294.337 351.21 295.104 351.21C295.94 351.21 296.607 351.037 297.107 350.69C297.607 350.338 297.857 349.909 297.857 349.403C297.857 348.994 297.704 348.651 297.397 348.372C297.096 348.094 296.633 347.884 296.008 347.741L293.792 347.256C292.57 346.977 291.667 346.534 291.082 345.926C290.502 345.318 290.212 344.548 290.212 343.616C290.212 342.844 290.428 342.168 290.86 341.588C291.292 341.009 291.888 340.557 292.65 340.233C293.411 339.903 294.283 339.739 295.266 339.739C296.681 339.739 297.795 340.045 298.607 340.659C299.42 341.267 299.957 342.082 300.218 343.105ZM305.619 348.56L305.602 345.449H306.045L311.261 339.909H314.312L308.364 346.216H307.963L305.619 348.56ZM303.276 353V335.545H305.824V353H303.276ZM311.543 353L306.855 346.778L308.611 344.997L314.67 353H311.543Z" fill="#18181B"/>
<rect x="467" y="303" width="194" height="82" rx="8" fill="#FCEFCF"/>
<path d="M510.213 357.909V339.909H512.702V342.031H512.915C513.063 341.759 513.276 341.443 513.554 341.085C513.832 340.727 514.219 340.415 514.713 340.148C515.207 339.875 515.861 339.739 516.673 339.739C517.73 339.739 518.673 340.006 519.503 340.54C520.332 341.074 520.983 341.844 521.455 342.849C521.932 343.855 522.17 345.065 522.17 346.48C522.17 347.895 521.935 349.108 521.463 350.119C520.991 351.125 520.344 351.901 519.52 352.446C518.696 352.986 517.756 353.256 516.699 353.256C515.903 353.256 515.253 353.122 514.747 352.855C514.247 352.588 513.855 352.276 513.571 351.918C513.287 351.56 513.068 351.241 512.915 350.963H512.761V357.909H510.213ZM512.71 346.455C512.71 347.375 512.844 348.182 513.111 348.875C513.378 349.568 513.764 350.111 514.27 350.503C514.776 350.889 515.395 351.082 516.128 351.082C516.889 351.082 517.526 350.881 518.037 350.477C518.548 350.068 518.935 349.514 519.196 348.815C519.463 348.116 519.597 347.33 519.597 346.455C519.597 345.591 519.466 344.815 519.205 344.128C518.949 343.44 518.563 342.898 518.045 342.5C517.534 342.102 516.895 341.903 516.128 341.903C515.389 341.903 514.764 342.094 514.253 342.474C513.747 342.855 513.364 343.386 513.102 344.068C512.841 344.75 512.71 345.545 512.71 346.455ZM530.54 353.264C529.313 353.264 528.241 352.983 527.327 352.42C526.412 351.858 525.702 351.071 525.196 350.06C524.69 349.048 524.438 347.866 524.438 346.514C524.438 345.156 524.69 343.969 525.196 342.952C525.702 341.935 526.412 341.145 527.327 340.582C528.241 340.02 529.313 339.739 530.54 339.739C531.767 339.739 532.838 340.02 533.753 340.582C534.668 341.145 535.378 341.935 535.884 342.952C536.389 343.969 536.642 345.156 536.642 346.514C536.642 347.866 536.389 349.048 535.884 350.06C535.378 351.071 534.668 351.858 533.753 352.42C532.838 352.983 531.767 353.264 530.54 353.264ZM530.548 351.125C531.344 351.125 532.003 350.915 532.526 350.494C533.048 350.074 533.435 349.514 533.685 348.815C533.94 348.116 534.068 347.347 534.068 346.506C534.068 345.67 533.94 344.903 533.685 344.205C533.435 343.5 533.048 342.935 532.526 342.509C532.003 342.082 531.344 341.869 530.548 341.869C529.747 341.869 529.082 342.082 528.554 342.509C528.031 342.935 527.642 343.5 527.386 344.205C527.136 344.903 527.011 345.67 527.011 346.506C527.011 347.347 527.136 348.116 527.386 348.815C527.642 349.514 528.031 350.074 528.554 350.494C529.082 350.915 529.747 351.125 530.548 351.125ZM539.487 353V339.909H542.035V353H539.487ZM540.773 337.889C540.33 337.889 539.95 337.741 539.631 337.446C539.319 337.145 539.163 336.787 539.163 336.372C539.163 335.952 539.319 335.594 539.631 335.298C539.95 334.997 540.33 334.847 540.773 334.847C541.217 334.847 541.594 334.997 541.907 335.298C542.225 335.594 542.384 335.952 542.384 336.372C542.384 336.787 542.225 337.145 541.907 337.446C541.594 337.741 541.217 337.889 540.773 337.889ZM548.011 345.227V353H545.463V339.909H547.909V342.04H548.071C548.372 341.347 548.844 340.79 549.486 340.369C550.134 339.949 550.949 339.739 551.932 339.739C552.824 339.739 553.605 339.926 554.276 340.301C554.946 340.67 555.466 341.222 555.835 341.955C556.205 342.687 556.389 343.594 556.389 344.673V353H553.841V344.98C553.841 344.031 553.594 343.29 553.099 342.756C552.605 342.216 551.926 341.946 551.062 341.946C550.472 341.946 549.946 342.074 549.486 342.33C549.031 342.585 548.67 342.96 548.403 343.455C548.142 343.943 548.011 344.534 548.011 345.227ZM565.918 339.909V341.955H558.767V339.909H565.918ZM560.685 336.773H563.233V349.156C563.233 349.651 563.307 350.023 563.455 350.273C563.602 350.517 563.793 350.685 564.026 350.776C564.264 350.861 564.523 350.903 564.801 350.903C565.006 350.903 565.185 350.889 565.338 350.861C565.491 350.832 565.611 350.81 565.696 350.793L566.156 352.898C566.009 352.955 565.798 353.011 565.526 353.068C565.253 353.131 564.912 353.165 564.503 353.17C563.832 353.182 563.207 353.062 562.628 352.812C562.048 352.562 561.58 352.176 561.222 351.653C560.864 351.131 560.685 350.474 560.685 349.685V336.773ZM574.238 353.264C572.948 353.264 571.837 352.989 570.906 352.438C569.979 351.881 569.263 351.099 568.758 350.094C568.258 349.082 568.008 347.898 568.008 346.54C568.008 345.199 568.258 344.017 568.758 342.994C569.263 341.972 569.968 341.173 570.871 340.599C571.781 340.026 572.843 339.739 574.059 339.739C574.798 339.739 575.513 339.861 576.207 340.105C576.9 340.349 577.522 340.733 578.073 341.256C578.624 341.778 579.059 342.457 579.377 343.293C579.695 344.122 579.854 345.131 579.854 346.318V347.222H569.448V345.312H577.357C577.357 344.642 577.221 344.048 576.948 343.531C576.675 343.009 576.292 342.597 575.798 342.295C575.309 341.994 574.735 341.844 574.076 341.844C573.36 341.844 572.735 342.02 572.201 342.372C571.673 342.719 571.263 343.173 570.974 343.736C570.69 344.293 570.548 344.898 570.548 345.551V347.043C570.548 347.918 570.701 348.662 571.008 349.276C571.32 349.889 571.755 350.358 572.312 350.682C572.869 351 573.519 351.159 574.263 351.159C574.746 351.159 575.187 351.091 575.585 350.955C575.982 350.812 576.326 350.602 576.616 350.324C576.906 350.045 577.127 349.702 577.281 349.293L579.692 349.727C579.499 350.437 579.153 351.06 578.653 351.594C578.158 352.122 577.536 352.534 576.786 352.83C576.042 353.119 575.192 353.264 574.238 353.264ZM582.682 353V339.909H585.145V341.989H585.281C585.52 341.284 585.94 340.73 586.543 340.327C587.151 339.918 587.838 339.713 588.605 339.713C588.764 339.713 588.952 339.719 589.168 339.73C589.389 339.741 589.562 339.756 589.688 339.773V342.21C589.585 342.182 589.403 342.151 589.142 342.116C588.881 342.077 588.619 342.057 588.358 342.057C587.756 342.057 587.219 342.185 586.747 342.44C586.281 342.69 585.912 343.04 585.639 343.489C585.366 343.932 585.23 344.437 585.23 345.006V353H582.682ZM600.185 347.571V339.909H602.742V353H600.237V350.733H600.1C599.799 351.432 599.316 352.014 598.651 352.48C597.992 352.94 597.171 353.17 596.188 353.17C595.347 353.17 594.603 352.986 593.955 352.616C593.313 352.241 592.808 351.688 592.438 350.955C592.075 350.222 591.893 349.315 591.893 348.236V339.909H594.441V347.929C594.441 348.821 594.688 349.531 595.183 350.06C595.677 350.588 596.319 350.852 597.109 350.852C597.586 350.852 598.06 350.733 598.532 350.494C599.009 350.256 599.404 349.895 599.717 349.412C600.035 348.929 600.191 348.315 600.185 347.571ZM606.166 357.909V339.909H608.655V342.031H608.868C609.016 341.759 609.229 341.443 609.507 341.085C609.786 340.727 610.172 340.415 610.666 340.148C611.161 339.875 611.814 339.739 612.626 339.739C613.683 339.739 614.626 340.006 615.456 340.54C616.286 341.074 616.936 341.844 617.408 342.849C617.885 343.855 618.124 345.065 618.124 346.48C618.124 347.895 617.888 349.108 617.416 350.119C616.945 351.125 616.297 351.901 615.473 352.446C614.649 352.986 613.709 353.256 612.652 353.256C611.857 353.256 611.206 353.122 610.7 352.855C610.2 352.588 609.808 352.276 609.524 351.918C609.24 351.56 609.021 351.241 608.868 350.963H608.714V357.909H606.166ZM608.663 346.455C608.663 347.375 608.797 348.182 609.064 348.875C609.331 349.568 609.717 350.111 610.223 350.503C610.729 350.889 611.348 351.082 612.081 351.082C612.842 351.082 613.479 350.881 613.99 350.477C614.501 350.068 614.888 349.514 615.149 348.815C615.416 348.116 615.55 347.33 615.55 346.455C615.55 345.591 615.419 344.815 615.158 344.128C614.902 343.44 614.516 342.898 613.999 342.5C613.487 342.102 612.848 341.903 612.081 341.903C611.342 341.903 610.717 342.094 610.206 342.474C609.7 342.855 609.317 343.386 609.055 344.068C608.794 344.75 608.663 345.545 608.663 346.455Z" fill="#78350F"/>
<rect x="674" y="303" width="178" height="82" rx="8" fill="#FCEFCF"/>
<path d="M711.713 353V339.909H714.159V342.04H714.321C714.594 341.318 715.04 340.756 715.659 340.352C716.278 339.943 717.02 339.739 717.884 339.739C718.759 339.739 719.491 339.943 720.082 340.352C720.679 340.761 721.119 341.324 721.403 342.04H721.54C721.852 341.341 722.349 340.784 723.031 340.369C723.713 339.949 724.526 339.739 725.469 339.739C726.656 339.739 727.625 340.111 728.375 340.855C729.131 341.599 729.509 342.722 729.509 344.222V353H726.96V344.46C726.96 343.574 726.719 342.932 726.236 342.534C725.753 342.136 725.176 341.938 724.506 341.938C723.676 341.938 723.031 342.193 722.571 342.705C722.111 343.21 721.881 343.861 721.881 344.656V353H719.341V344.298C719.341 343.588 719.119 343.017 718.676 342.585C718.233 342.153 717.656 341.938 716.946 341.938C716.463 341.938 716.017 342.065 715.608 342.321C715.205 342.571 714.878 342.92 714.628 343.369C714.384 343.818 714.261 344.338 714.261 344.929V353H711.713ZM738.438 353.264C737.211 353.264 736.14 352.983 735.225 352.42C734.31 351.858 733.6 351.071 733.094 350.06C732.589 349.048 732.336 347.866 732.336 346.514C732.336 345.156 732.589 343.969 733.094 342.952C733.6 341.935 734.31 341.145 735.225 340.582C736.14 340.02 737.211 339.739 738.438 339.739C739.665 339.739 740.737 340.02 741.651 340.582C742.566 341.145 743.276 341.935 743.782 342.952C744.288 343.969 744.54 345.156 744.54 346.514C744.54 347.866 744.288 349.048 743.782 350.06C743.276 351.071 742.566 351.858 741.651 352.42C740.737 352.983 739.665 353.264 738.438 353.264ZM738.447 351.125C739.242 351.125 739.901 350.915 740.424 350.494C740.947 350.074 741.333 349.514 741.583 348.815C741.839 348.116 741.967 347.347 741.967 346.506C741.967 345.67 741.839 344.903 741.583 344.205C741.333 343.5 740.947 342.935 740.424 342.509C739.901 342.082 739.242 341.869 738.447 341.869C737.646 341.869 736.981 342.082 736.452 342.509C735.93 342.935 735.54 343.5 735.285 344.205C735.035 344.903 734.91 345.67 734.91 346.506C734.91 347.347 735.035 348.116 735.285 348.815C735.54 349.514 735.93 350.074 736.452 350.494C736.981 350.915 737.646 351.125 738.447 351.125ZM755.678 347.571V339.909H758.234V353H755.729V350.733H755.592C755.291 351.432 754.808 352.014 754.143 352.48C753.484 352.94 752.663 353.17 751.68 353.17C750.839 353.17 750.095 352.986 749.447 352.616C748.805 352.241 748.3 351.688 747.93 350.955C747.567 350.222 747.385 349.315 747.385 348.236V339.909H749.933V347.929C749.933 348.821 750.18 349.531 750.675 350.06C751.169 350.588 751.811 350.852 752.601 350.852C753.078 350.852 753.553 350.733 754.024 350.494C754.501 350.256 754.896 349.895 755.209 349.412C755.527 348.929 755.683 348.315 755.678 347.571ZM771.468 343.105L769.158 343.514C769.062 343.219 768.908 342.937 768.698 342.67C768.494 342.403 768.215 342.185 767.863 342.014C767.511 341.844 767.07 341.759 766.542 341.759C765.82 341.759 765.218 341.92 764.735 342.244C764.252 342.562 764.011 342.974 764.011 343.48C764.011 343.918 764.173 344.27 764.496 344.537C764.82 344.804 765.343 345.023 766.065 345.193L768.144 345.67C769.349 345.949 770.246 346.378 770.837 346.957C771.428 347.537 771.724 348.29 771.724 349.216C771.724 350 771.496 350.699 771.042 351.312C770.593 351.92 769.965 352.398 769.158 352.744C768.357 353.091 767.428 353.264 766.371 353.264C764.906 353.264 763.71 352.952 762.783 352.327C761.857 351.696 761.289 350.801 761.079 349.642L763.542 349.267C763.695 349.909 764.011 350.395 764.488 350.724C764.965 351.048 765.587 351.21 766.354 351.21C767.19 351.21 767.857 351.037 768.357 350.69C768.857 350.338 769.107 349.909 769.107 349.403C769.107 348.994 768.954 348.651 768.647 348.372C768.346 348.094 767.883 347.884 767.258 347.741L765.042 347.256C763.82 346.977 762.917 346.534 762.332 345.926C761.752 345.318 761.462 344.548 761.462 343.616C761.462 342.844 761.678 342.168 762.11 341.588C762.542 341.009 763.138 340.557 763.9 340.233C764.661 339.903 765.533 339.739 766.516 339.739C767.931 339.739 769.045 340.045 769.857 340.659C770.67 341.267 771.207 342.082 771.468 343.105ZM780.168 353.264C778.878 353.264 777.767 352.989 776.835 352.438C775.909 351.881 775.193 351.099 774.688 350.094C774.188 349.082 773.938 347.898 773.938 346.54C773.938 345.199 774.188 344.017 774.688 342.994C775.193 341.972 775.898 341.173 776.801 340.599C777.71 340.026 778.773 339.739 779.989 339.739C780.727 339.739 781.443 339.861 782.136 340.105C782.83 340.349 783.452 340.733 784.003 341.256C784.554 341.778 784.989 342.457 785.307 343.293C785.625 344.122 785.784 345.131 785.784 346.318V347.222H775.378V345.312H783.287C783.287 344.642 783.151 344.048 782.878 343.531C782.605 343.009 782.222 342.597 781.727 342.295C781.239 341.994 780.665 341.844 780.006 341.844C779.29 341.844 778.665 342.02 778.131 342.372C777.602 342.719 777.193 343.173 776.903 343.736C776.619 344.293 776.477 344.898 776.477 345.551V347.043C776.477 347.918 776.631 348.662 776.938 349.276C777.25 349.889 777.685 350.358 778.241 350.682C778.798 351 779.449 351.159 780.193 351.159C780.676 351.159 781.116 351.091 781.514 350.955C781.912 350.812 782.256 350.602 782.545 350.324C782.835 350.045 783.057 349.702 783.21 349.293L785.622 349.727C785.429 350.437 785.082 351.06 784.582 351.594C784.088 352.122 783.466 352.534 782.716 352.83C781.972 353.119 781.122 353.264 780.168 353.264ZM796.904 347.571V339.909H799.461V353H796.955V350.733H796.819C796.518 351.432 796.035 352.014 795.37 352.48C794.711 352.94 793.89 353.17 792.907 353.17C792.066 353.17 791.322 352.986 790.674 352.616C790.032 352.241 789.526 351.688 789.157 350.955C788.793 350.222 788.612 349.315 788.612 348.236V339.909H791.16V347.929C791.16 348.821 791.407 349.531 791.901 350.06C792.396 350.588 793.038 350.852 793.827 350.852C794.305 350.852 794.779 350.733 795.251 350.494C795.728 350.256 796.123 349.895 796.435 349.412C796.754 348.929 796.91 348.315 796.904 347.571ZM802.885 357.909V339.909H805.374V342.031H805.587C805.734 341.759 805.947 341.443 806.226 341.085C806.504 340.727 806.891 340.415 807.385 340.148C807.879 339.875 808.533 339.739 809.345 339.739C810.402 339.739 811.345 340.006 812.175 340.54C813.004 341.074 813.655 341.844 814.126 342.849C814.604 343.855 814.842 345.065 814.842 346.48C814.842 347.895 814.607 349.108 814.135 350.119C813.663 351.125 813.016 351.901 812.192 352.446C811.368 352.986 810.428 353.256 809.371 353.256C808.575 353.256 807.925 353.122 807.419 352.855C806.919 352.588 806.527 352.276 806.243 351.918C805.959 351.56 805.74 351.241 805.587 350.963H805.433V357.909H802.885ZM805.382 346.455C805.382 347.375 805.516 348.182 805.783 348.875C806.05 349.568 806.436 350.111 806.942 350.503C807.447 350.889 808.067 351.082 808.8 351.082C809.561 351.082 810.197 350.881 810.709 350.477C811.22 350.068 811.607 349.514 811.868 348.815C812.135 348.116 812.268 347.33 812.268 346.455C812.268 345.591 812.138 344.815 811.876 344.128C811.621 343.44 811.234 342.898 810.717 342.5C810.206 342.102 809.567 341.903 808.8 341.903C808.061 341.903 807.436 342.094 806.925 342.474C806.419 342.855 806.036 343.386 805.774 344.068C805.513 344.75 805.382 345.545 805.382 346.455Z" fill="#78350F"/>
<rect x="865" y="303" width="155" height="82" rx="8" fill="#FCEFCF"/>
<path d="M923.227 353.264C921.96 353.264 920.869 352.977 919.955 352.403C919.045 351.824 918.347 351.026 917.858 350.009C917.369 348.991 917.125 347.827 917.125 346.514C917.125 345.185 917.375 344.011 917.875 342.994C918.375 341.972 919.08 341.173 919.989 340.599C920.898 340.026 921.969 339.739 923.202 339.739C924.196 339.739 925.082 339.923 925.861 340.293C926.639 340.656 927.267 341.168 927.744 341.827C928.227 342.486 928.514 343.256 928.605 344.136H926.125C925.989 343.523 925.676 342.994 925.188 342.551C924.705 342.108 924.057 341.886 923.244 341.886C922.534 341.886 921.912 342.074 921.378 342.449C920.849 342.818 920.438 343.347 920.142 344.034C919.847 344.716 919.699 345.523 919.699 346.455C919.699 347.409 919.844 348.233 920.134 348.926C920.423 349.619 920.832 350.156 921.361 350.537C921.895 350.918 922.523 351.108 923.244 351.108C923.727 351.108 924.165 351.02 924.557 350.844C924.955 350.662 925.287 350.403 925.554 350.068C925.827 349.733 926.017 349.33 926.125 348.858H928.605C928.514 349.705 928.239 350.46 927.778 351.125C927.318 351.79 926.702 352.312 925.929 352.693C925.162 353.074 924.261 353.264 923.227 353.264ZM933.879 335.545V353H931.33V335.545H933.879ZM937.307 353V339.909H939.855V353H937.307ZM938.594 337.889C938.151 337.889 937.77 337.741 937.452 337.446C937.139 337.145 936.983 336.787 936.983 336.372C936.983 335.952 937.139 335.594 937.452 335.298C937.77 334.997 938.151 334.847 938.594 334.847C939.037 334.847 939.415 334.997 939.727 335.298C940.045 335.594 940.205 335.952 940.205 336.372C940.205 336.787 940.045 337.145 939.727 337.446C939.415 337.741 939.037 337.889 938.594 337.889ZM948.798 353.264C947.531 353.264 946.44 352.977 945.525 352.403C944.616 351.824 943.917 351.026 943.428 350.009C942.94 348.991 942.695 347.827 942.695 346.514C942.695 345.185 942.945 344.011 943.445 342.994C943.945 341.972 944.65 341.173 945.559 340.599C946.468 340.026 947.539 339.739 948.772 339.739C949.766 339.739 950.653 339.923 951.431 340.293C952.21 340.656 952.837 341.168 953.315 341.827C953.798 342.486 954.085 343.256 954.175 344.136H951.695C951.559 343.523 951.246 342.994 950.758 342.551C950.275 342.108 949.627 341.886 948.815 341.886C948.104 341.886 947.482 342.074 946.948 342.449C946.42 342.818 946.008 343.347 945.712 344.034C945.417 344.716 945.269 345.523 945.269 346.455C945.269 347.409 945.414 348.233 945.704 348.926C945.994 349.619 946.403 350.156 946.931 350.537C947.465 350.918 948.093 351.108 948.815 351.108C949.298 351.108 949.735 351.02 950.127 350.844C950.525 350.662 950.857 350.403 951.124 350.068C951.397 349.733 951.587 349.33 951.695 348.858H954.175C954.085 349.705 953.809 350.46 953.349 351.125C952.888 351.79 952.272 352.312 951.499 352.693C950.732 353.074 949.832 353.264 948.798 353.264ZM959.244 348.56L959.227 345.449H959.67L964.886 339.909H967.938L961.989 346.216H961.588L959.244 348.56ZM956.901 353V335.545H959.449V353H956.901ZM965.168 353L960.48 346.778L962.236 344.997L968.295 353H965.168Z" fill="#78350F"/>
<g filter="url(#filter0_f_443_2830)">
<circle cx="191.5" cy="92.5" r="27.5" fill="#D1FAE5" fill-opacity="0.95"/>
</g>
<circle cx="191.5" cy="92.5" r="27.5" fill="#D1FAE5" fill-opacity="0.95"/>
<circle cx="191.5" cy="92.5" r="15" fill="white" fill-opacity="0.7" stroke="#34D399" stroke-width="5"/>
<path d="M191.5 120L191.5 303" stroke="#52525B" stroke-width="4" stroke-linecap="round" stroke-dasharray="9 9"/>
<path d="M23.9176 207.545H27.1136L32.6705 221.114H32.875L38.4318 207.545H41.6278V225H39.1222V212.369H38.9602L33.8125 224.974H31.733L26.5852 212.361H26.4233V225H23.9176V207.545ZM49.0618 225.29C48.2322 225.29 47.4822 225.136 46.8118 224.83C46.1413 224.517 45.6101 224.065 45.218 223.474C44.8317 222.884 44.6385 222.159 44.6385 221.301C44.6385 220.562 44.7805 219.955 45.0646 219.477C45.3487 219 45.7322 218.622 46.2152 218.344C46.6982 218.065 47.2379 217.855 47.8345 217.713C48.4311 217.571 49.0391 217.463 49.6584 217.389C50.4425 217.298 51.0788 217.224 51.5675 217.168C52.0561 217.105 52.4112 217.006 52.6328 216.869C52.8544 216.733 52.9652 216.511 52.9652 216.205V216.145C52.9652 215.401 52.755 214.824 52.3345 214.415C51.9197 214.006 51.3004 213.801 50.4766 213.801C49.6186 213.801 48.9425 213.991 48.4482 214.372C47.9595 214.747 47.6214 215.165 47.4339 215.625L45.0391 215.08C45.3232 214.284 45.7379 213.642 46.2834 213.153C46.8345 212.659 47.468 212.301 48.1839 212.08C48.8999 211.852 49.6527 211.739 50.4425 211.739C50.9652 211.739 51.5192 211.801 52.1044 211.926C52.6953 212.045 53.2464 212.267 53.7578 212.591C54.2749 212.915 54.6982 213.378 55.0277 213.98C55.3572 214.577 55.522 215.352 55.522 216.307V225H53.0334V223.21H52.9311C52.7663 223.54 52.5192 223.864 52.1896 224.182C51.8601 224.5 51.4368 224.764 50.9197 224.974C50.4027 225.185 49.7834 225.29 49.0618 225.29ZM49.6158 223.244C50.3203 223.244 50.9226 223.105 51.4226 222.827C51.9283 222.548 52.3118 222.185 52.5732 221.736C52.8402 221.281 52.9737 220.795 52.9737 220.278V218.591C52.8828 218.682 52.7067 218.767 52.4453 218.847C52.1896 218.92 51.897 218.986 51.5675 219.043C51.2379 219.094 50.9169 219.142 50.6044 219.188C50.2919 219.227 50.0305 219.261 49.8203 219.29C49.326 219.352 48.8743 219.457 48.4652 219.605C48.0618 219.753 47.7379 219.966 47.4936 220.244C47.255 220.517 47.1357 220.881 47.1357 221.335C47.1357 221.966 47.3686 222.443 47.8345 222.767C48.3004 223.085 48.8942 223.244 49.6158 223.244ZM58.9162 225V211.909H61.4645V225H58.9162ZM60.2031 209.889C59.7599 209.889 59.3793 209.741 59.0611 209.446C58.7486 209.145 58.5923 208.787 58.5923 208.372C58.5923 207.952 58.7486 207.594 59.0611 207.298C59.3793 206.997 59.7599 206.847 60.2031 206.847C60.6463 206.847 61.0241 206.997 61.3366 207.298C61.6548 207.594 61.8139 207.952 61.8139 208.372C61.8139 208.787 61.6548 209.145 61.3366 209.446C61.0241 209.741 60.6463 209.889 60.2031 209.889ZM67.4411 217.227V225H64.8928V211.909H67.3388V214.04H67.5007C67.8018 213.347 68.2734 212.79 68.9155 212.369C69.5632 211.949 70.3786 211.739 71.3615 211.739C72.2536 211.739 73.0348 211.926 73.7053 212.301C74.3757 212.67 74.8956 213.222 75.2649 213.955C75.6342 214.687 75.8189 215.594 75.8189 216.673V225H73.2706V216.98C73.2706 216.031 73.0234 215.29 72.5291 214.756C72.0348 214.216 71.3558 213.946 70.4922 213.946C69.9013 213.946 69.3757 214.074 68.9155 214.33C68.4609 214.585 68.1001 214.96 67.8331 215.455C67.5717 215.943 67.4411 216.534 67.4411 217.227ZM91.6989 211.909V213.955H84.5483V211.909H91.6989ZM86.4659 208.773H89.0142V221.156C89.0142 221.651 89.0881 222.023 89.2358 222.273C89.3835 222.517 89.5739 222.685 89.8068 222.776C90.0455 222.861 90.304 222.903 90.5824 222.903C90.7869 222.903 90.9659 222.889 91.1193 222.861C91.2727 222.832 91.392 222.81 91.4773 222.793L91.9375 224.898C91.7898 224.955 91.5795 225.011 91.3068 225.068C91.0341 225.131 90.6932 225.165 90.2841 225.17C89.6136 225.182 88.9886 225.062 88.4091 224.812C87.8295 224.562 87.3608 224.176 87.0028 223.653C86.6449 223.131 86.4659 222.474 86.4659 221.685V208.773ZM97.3473 217.227V225H94.799V207.545H97.3132V214.04H97.4751C97.782 213.335 98.2507 212.776 98.8814 212.361C99.5121 211.946 100.336 211.739 101.353 211.739C102.251 211.739 103.035 211.923 103.705 212.293C104.381 212.662 104.904 213.213 105.273 213.946C105.648 214.673 105.836 215.582 105.836 216.673V225H103.288V216.98C103.288 216.02 103.04 215.276 102.546 214.747C102.052 214.213 101.364 213.946 100.484 213.946C99.8814 213.946 99.3416 214.074 98.8643 214.33C98.3928 214.585 98.0206 214.96 97.7479 215.455C97.4808 215.943 97.3473 216.534 97.3473 217.227ZM109.237 225V211.909H111.7V213.989H111.836C112.075 213.284 112.495 212.73 113.097 212.327C113.705 211.918 114.393 211.713 115.16 211.713C115.319 211.713 115.506 211.719 115.722 211.73C115.944 211.741 116.117 211.756 116.242 211.773V214.21C116.14 214.182 115.958 214.151 115.697 214.116C115.435 214.077 115.174 214.057 114.913 214.057C114.31 214.057 113.773 214.185 113.302 214.44C112.836 214.69 112.467 215.04 112.194 215.489C111.921 215.932 111.785 216.437 111.785 217.006V225H109.237ZM123.621 225.264C122.331 225.264 121.22 224.989 120.288 224.438C119.362 223.881 118.646 223.099 118.141 222.094C117.641 221.082 117.391 219.898 117.391 218.54C117.391 217.199 117.641 216.017 118.141 214.994C118.646 213.972 119.351 213.173 120.254 212.599C121.163 212.026 122.226 211.739 123.442 211.739C124.18 211.739 124.896 211.861 125.589 212.105C126.283 212.349 126.905 212.733 127.456 213.256C128.007 213.778 128.442 214.457 128.76 215.293C129.078 216.122 129.237 217.131 129.237 218.318V219.222H118.831V217.312H126.74C126.74 216.642 126.604 216.048 126.331 215.531C126.058 215.009 125.675 214.597 125.18 214.295C124.692 213.994 124.118 213.844 123.459 213.844C122.743 213.844 122.118 214.02 121.584 214.372C121.055 214.719 120.646 215.173 120.357 215.736C120.072 216.293 119.93 216.898 119.93 217.551V219.043C119.93 219.918 120.084 220.662 120.391 221.276C120.703 221.889 121.138 222.358 121.695 222.682C122.251 223 122.902 223.159 123.646 223.159C124.129 223.159 124.57 223.091 124.967 222.955C125.365 222.812 125.709 222.602 125.999 222.324C126.288 222.045 126.51 221.702 126.663 221.293L129.075 221.727C128.882 222.437 128.536 223.06 128.036 223.594C127.541 224.122 126.919 224.534 126.169 224.83C125.425 225.119 124.575 225.264 123.621 225.264ZM135.874 225.29C135.045 225.29 134.295 225.136 133.624 224.83C132.954 224.517 132.423 224.065 132.031 223.474C131.644 222.884 131.451 222.159 131.451 221.301C131.451 220.562 131.593 219.955 131.877 219.477C132.161 219 132.545 218.622 133.028 218.344C133.511 218.065 134.05 217.855 134.647 217.713C135.244 217.571 135.852 217.463 136.471 217.389C137.255 217.298 137.891 217.224 138.38 217.168C138.869 217.105 139.224 217.006 139.445 216.869C139.667 216.733 139.778 216.511 139.778 216.205V216.145C139.778 215.401 139.567 214.824 139.147 214.415C138.732 214.006 138.113 213.801 137.289 213.801C136.431 213.801 135.755 213.991 135.261 214.372C134.772 214.747 134.434 215.165 134.246 215.625L131.852 215.08C132.136 214.284 132.55 213.642 133.096 213.153C133.647 212.659 134.281 212.301 134.996 212.08C135.712 211.852 136.465 211.739 137.255 211.739C137.778 211.739 138.332 211.801 138.917 211.926C139.508 212.045 140.059 212.267 140.57 212.591C141.087 212.915 141.511 213.378 141.84 213.98C142.17 214.577 142.335 215.352 142.335 216.307V225H139.846V223.21H139.744C139.579 223.54 139.332 223.864 139.002 224.182C138.673 224.5 138.249 224.764 137.732 224.974C137.215 225.185 136.596 225.29 135.874 225.29ZM136.428 223.244C137.133 223.244 137.735 223.105 138.235 222.827C138.741 222.548 139.124 222.185 139.386 221.736C139.653 221.281 139.786 220.795 139.786 220.278V218.591C139.695 218.682 139.519 218.767 139.258 218.847C139.002 218.92 138.71 218.986 138.38 219.043C138.05 219.094 137.729 219.142 137.417 219.188C137.104 219.227 136.843 219.261 136.633 219.29C136.138 219.352 135.687 219.457 135.278 219.605C134.874 219.753 134.55 219.966 134.306 220.244C134.067 220.517 133.948 220.881 133.948 221.335C133.948 221.966 134.181 222.443 134.647 222.767C135.113 223.085 135.707 223.244 136.428 223.244ZM150.629 225.256C149.572 225.256 148.629 224.986 147.8 224.446C146.976 223.901 146.328 223.125 145.857 222.119C145.391 221.108 145.158 219.895 145.158 218.48C145.158 217.065 145.393 215.855 145.865 214.849C146.342 213.844 146.996 213.074 147.825 212.54C148.655 212.006 149.595 211.739 150.646 211.739C151.459 211.739 152.112 211.875 152.607 212.148C153.107 212.415 153.493 212.727 153.766 213.085C154.044 213.443 154.26 213.759 154.413 214.031H154.567V207.545H157.115V225H154.626V222.963H154.413C154.26 223.241 154.038 223.56 153.749 223.918C153.464 224.276 153.072 224.588 152.572 224.855C152.072 225.122 151.425 225.256 150.629 225.256ZM151.192 223.082C151.925 223.082 152.544 222.889 153.05 222.503C153.561 222.111 153.947 221.568 154.209 220.875C154.476 220.182 154.609 219.375 154.609 218.455C154.609 217.545 154.479 216.75 154.217 216.068C153.956 215.386 153.572 214.855 153.067 214.474C152.561 214.094 151.936 213.903 151.192 213.903C150.425 213.903 149.786 214.102 149.274 214.5C148.763 214.898 148.376 215.44 148.115 216.128C147.859 216.815 147.732 217.591 147.732 218.455C147.732 219.33 147.862 220.116 148.124 220.815C148.385 221.514 148.771 222.068 149.283 222.477C149.8 222.881 150.436 223.082 151.192 223.082Z" fill="#52525B"/>
<path d="M136.551 8.54545V26H133.918V8.54545H136.551ZM142.73 18.2273V26H140.182V12.9091H142.628V15.0398H142.79C143.091 14.3466 143.563 13.7898 144.205 13.3693C144.852 12.9489 145.668 12.7386 146.651 12.7386C147.543 12.7386 148.324 12.9261 148.994 13.3011C149.665 13.6705 150.185 14.2216 150.554 14.9545C150.923 15.6875 151.108 16.5937 151.108 17.6733V26H148.56V17.9801C148.56 17.0312 148.313 16.2898 147.818 15.7557C147.324 15.2159 146.645 14.946 145.781 14.946C145.19 14.946 144.665 15.0739 144.205 15.3295C143.75 15.5852 143.389 15.9602 143.122 16.4545C142.861 16.9432 142.73 17.5341 142.73 18.2273ZM160.636 12.9091V14.9545H153.486V12.9091H160.636ZM155.403 9.77273H157.952V22.1562C157.952 22.6506 158.026 23.0227 158.173 23.2727C158.321 23.517 158.511 23.6847 158.744 23.7756C158.983 23.8608 159.241 23.9034 159.52 23.9034C159.724 23.9034 159.903 23.8892 160.057 23.8608C160.21 23.8324 160.33 23.8097 160.415 23.7926L160.875 25.8977C160.727 25.9545 160.517 26.0114 160.244 26.0682C159.972 26.1307 159.631 26.1648 159.222 26.1705C158.551 26.1818 157.926 26.0625 157.347 25.8125C156.767 25.5625 156.298 25.1761 155.94 24.6534C155.582 24.1307 155.403 23.4744 155.403 22.6847V9.77273ZM168.957 26.2642C167.667 26.2642 166.556 25.9886 165.624 25.4375C164.698 24.8807 163.982 24.0994 163.477 23.0938C162.977 22.0824 162.727 20.8977 162.727 19.5398C162.727 18.1989 162.977 17.017 163.477 15.9943C163.982 14.9716 164.687 14.1733 165.59 13.5994C166.499 13.0256 167.562 12.7386 168.778 12.7386C169.516 12.7386 170.232 12.8608 170.925 13.1051C171.619 13.3494 172.241 13.733 172.792 14.2557C173.343 14.7784 173.778 15.4574 174.096 16.2926C174.414 17.1222 174.573 18.1307 174.573 19.3182V20.2216H164.167V18.3125H172.076C172.076 17.642 171.94 17.0483 171.667 16.5312C171.394 16.0085 171.011 15.5966 170.516 15.2955C170.028 14.9943 169.454 14.8438 168.795 14.8438C168.079 14.8438 167.454 15.0199 166.92 15.3722C166.391 15.7187 165.982 16.1733 165.692 16.7358C165.408 17.2926 165.266 17.8977 165.266 18.5511V20.0426C165.266 20.9176 165.42 21.6619 165.727 22.2756C166.039 22.8892 166.474 23.358 167.031 23.6818C167.587 24 168.238 24.1591 168.982 24.1591C169.465 24.1591 169.906 24.0909 170.303 23.9545C170.701 23.8125 171.045 23.6023 171.335 23.3239C171.624 23.0455 171.846 22.7017 171.999 22.2926L174.411 22.7273C174.218 23.4375 173.871 24.0597 173.371 24.5938C172.877 25.1222 172.255 25.5341 171.505 25.8295C170.761 26.1193 169.911 26.2642 168.957 26.2642ZM177.401 26V12.9091H179.864V14.9886H180C180.239 14.2841 180.659 13.7301 181.261 13.3267C181.869 12.9176 182.557 12.7131 183.324 12.7131C183.483 12.7131 183.67 12.7187 183.886 12.7301C184.108 12.7415 184.281 12.7557 184.406 12.7727V15.2102C184.304 15.1818 184.122 15.1506 183.861 15.1165C183.599 15.0767 183.338 15.0568 183.077 15.0568C182.474 15.0568 181.938 15.1847 181.466 15.4403C181 15.6903 180.631 16.0398 180.358 16.4886C180.085 16.9318 179.949 17.4375 179.949 18.0057V26H177.401ZM190.304 26.2898C189.474 26.2898 188.724 26.1364 188.054 25.8295C187.384 25.517 186.852 25.0653 186.46 24.4744C186.074 23.8835 185.881 23.1591 185.881 22.3011C185.881 21.5625 186.023 20.9545 186.307 20.4773C186.591 20 186.974 19.6222 187.457 19.3438C187.94 19.0653 188.48 18.8551 189.077 18.7131C189.673 18.571 190.281 18.4631 190.901 18.3892C191.685 18.2983 192.321 18.2244 192.81 18.1676C193.298 18.1051 193.653 18.0057 193.875 17.8693C194.097 17.733 194.207 17.5114 194.207 17.2045V17.1449C194.207 16.4006 193.997 15.8239 193.577 15.4148C193.162 15.0057 192.543 14.8011 191.719 14.8011C190.861 14.8011 190.185 14.9915 189.69 15.3722C189.202 15.7472 188.864 16.1648 188.676 16.625L186.281 16.0795C186.565 15.2841 186.98 14.642 187.526 14.1534C188.077 13.6591 188.71 13.3011 189.426 13.0795C190.142 12.8523 190.895 12.7386 191.685 12.7386C192.207 12.7386 192.761 12.8011 193.347 12.9261C193.938 13.0455 194.489 13.267 195 13.5909C195.517 13.9148 195.94 14.3778 196.27 14.9801C196.599 15.5767 196.764 16.3523 196.764 17.3068V26H194.276V24.2102H194.173C194.009 24.5398 193.761 24.8636 193.432 25.1818C193.102 25.5 192.679 25.7642 192.162 25.9744C191.645 26.1847 191.026 26.2898 190.304 26.2898ZM190.858 24.2443C191.563 24.2443 192.165 24.1051 192.665 23.8267C193.17 23.5483 193.554 23.1847 193.815 22.7358C194.082 22.2812 194.216 21.7955 194.216 21.2784V19.5909C194.125 19.6818 193.949 19.767 193.688 19.8466C193.432 19.9205 193.139 19.9858 192.81 20.0426C192.48 20.0937 192.159 20.142 191.847 20.1875C191.534 20.2273 191.273 20.2614 191.062 20.2898C190.568 20.3523 190.116 20.4574 189.707 20.6051C189.304 20.7528 188.98 20.9659 188.736 21.2443C188.497 21.517 188.378 21.8807 188.378 22.3352C188.378 22.9659 188.611 23.4432 189.077 23.767C189.543 24.0852 190.136 24.2443 190.858 24.2443ZM205.673 26.2642C204.406 26.2642 203.315 25.9773 202.4 25.4034C201.491 24.8239 200.792 24.0256 200.303 23.0085C199.815 21.9915 199.57 20.8267 199.57 19.5142C199.57 18.1847 199.82 17.0114 200.32 15.9943C200.82 14.9716 201.525 14.1733 202.434 13.5994C203.343 13.0256 204.414 12.7386 205.647 12.7386C206.641 12.7386 207.528 12.9233 208.306 13.2926C209.085 13.6562 209.712 14.1676 210.19 14.8267C210.673 15.4858 210.96 16.2557 211.05 17.1364H208.57C208.434 16.5227 208.121 15.9943 207.633 15.5511C207.15 15.108 206.502 14.8864 205.69 14.8864C204.979 14.8864 204.357 15.0739 203.823 15.4489C203.295 15.8182 202.883 16.3466 202.587 17.0341C202.292 17.7159 202.144 18.5227 202.144 19.4545C202.144 20.4091 202.289 21.233 202.579 21.9261C202.869 22.6193 203.278 23.1562 203.806 23.5369C204.34 23.9176 204.968 24.108 205.69 24.108C206.173 24.108 206.61 24.0199 207.002 23.8438C207.4 23.6619 207.732 23.4034 207.999 23.0682C208.272 22.733 208.462 22.3295 208.57 21.858H211.05C210.96 22.7045 210.684 23.4602 210.224 24.125C209.763 24.7898 209.147 25.3125 208.374 25.6932C207.607 26.0739 206.707 26.2642 205.673 26.2642ZM219.886 12.9091V14.9545H212.736V12.9091H219.886ZM214.653 9.77273H217.202V22.1562C217.202 22.6506 217.276 23.0227 217.423 23.2727C217.571 23.517 217.761 23.6847 217.994 23.7756C218.233 23.8608 218.491 23.9034 218.77 23.9034C218.974 23.9034 219.153 23.8892 219.307 23.8608C219.46 23.8324 219.58 23.8097 219.665 23.7926L220.125 25.8977C219.977 25.9545 219.767 26.0114 219.494 26.0682C219.222 26.1307 218.881 26.1648 218.472 26.1705C217.801 26.1818 217.176 26.0625 216.597 25.8125C216.017 25.5625 215.548 25.1761 215.19 24.6534C214.832 24.1307 214.653 23.4744 214.653 22.6847V9.77273ZM222.705 26V12.9091H225.254V26H222.705ZM223.992 10.8892C223.549 10.8892 223.168 10.7415 222.85 10.446C222.538 10.1449 222.381 9.78693 222.381 9.37216C222.381 8.9517 222.538 8.59375 222.85 8.29829C223.168 7.99716 223.549 7.84659 223.992 7.84659C224.435 7.84659 224.813 7.99716 225.126 8.29829C225.444 8.59375 225.603 8.9517 225.603 9.37216C225.603 9.78693 225.444 10.1449 225.126 10.446C224.813 10.7415 224.435 10.8892 223.992 10.8892ZM234.196 26.2642C232.969 26.2642 231.898 25.983 230.983 25.4205C230.068 24.858 229.358 24.071 228.852 23.0597C228.347 22.0483 228.094 20.8665 228.094 19.5142C228.094 18.1562 228.347 16.9687 228.852 15.9517C229.358 14.9347 230.068 14.1449 230.983 13.5824C231.898 13.0199 232.969 12.7386 234.196 12.7386C235.423 12.7386 236.494 13.0199 237.409 13.5824C238.324 14.1449 239.034 14.9347 239.54 15.9517C240.045 16.9687 240.298 18.1562 240.298 19.5142C240.298 20.8665 240.045 22.0483 239.54 23.0597C239.034 24.071 238.324 24.858 237.409 25.4205C236.494 25.983 235.423 26.2642 234.196 26.2642ZM234.205 24.125C235 24.125 235.659 23.9148 236.182 23.4943C236.705 23.0739 237.091 22.5142 237.341 21.8153C237.597 21.1165 237.724 20.3466 237.724 19.5057C237.724 18.6705 237.597 17.9034 237.341 17.2045C237.091 16.5 236.705 15.9347 236.182 15.5085C235.659 15.0824 235 14.8693 234.205 14.8693C233.403 14.8693 232.739 15.0824 232.21 15.5085C231.688 15.9347 231.298 16.5 231.043 17.2045C230.793 17.9034 230.668 18.6705 230.668 19.5057C230.668 20.3466 230.793 21.1165 231.043 21.8153C231.298 22.5142 231.688 23.0739 232.21 23.4943C232.739 23.9148 233.403 24.125 234.205 24.125ZM245.691 18.2273V26H243.143V12.9091H245.589V15.0398H245.751C246.052 14.3466 246.523 13.7898 247.165 13.3693C247.813 12.9489 248.629 12.7386 249.612 12.7386C250.504 12.7386 251.285 12.9261 251.955 13.3011C252.626 13.6705 253.146 14.2216 253.515 14.9545C253.884 15.6875 254.069 16.5937 254.069 17.6733V26H251.521V17.9801C251.521 17.0312 251.273 16.2898 250.779 15.7557C250.285 15.2159 249.606 14.946 248.742 14.946C248.151 14.946 247.626 15.0739 247.165 15.3295C246.711 15.5852 246.35 15.9602 246.083 16.4545C245.822 16.9432 245.691 17.5341 245.691 18.2273Z" fill="#52525B"/>
<path d="M467 447L467 471" stroke="#18181B" stroke-width="4" stroke-linecap="round"/>
<path d="M467 457C465.895 457 465 457.895 465 459C465 460.105 465.895 461 467 461V457ZM467 461H614.5V457H467V461Z" fill="#18181B"/>
<path d="M630.897 470V448.182H638.674C640.371 448.182 641.778 448.491 642.893 449.109C644.008 449.727 644.842 450.572 645.396 451.644C645.95 452.71 646.227 453.91 646.227 455.245C646.227 456.587 645.947 457.795 645.386 458.867C644.832 459.933 643.994 460.778 642.871 461.403C641.756 462.021 640.354 462.33 638.663 462.33H633.315V459.538H638.365C639.438 459.538 640.308 459.354 640.975 458.984C641.643 458.608 642.133 458.097 642.445 457.45C642.758 456.804 642.914 456.069 642.914 455.245C642.914 454.421 642.758 453.69 642.445 453.05C642.133 452.411 641.639 451.911 640.964 451.548C640.297 451.186 639.416 451.005 638.322 451.005H634.189V470H630.897ZM649.831 470V453.636H652.91V456.236H653.08C653.378 455.355 653.904 454.663 654.657 454.158C655.417 453.647 656.276 453.391 657.235 453.391C657.434 453.391 657.668 453.398 657.938 453.413C658.215 453.427 658.432 453.445 658.588 453.466V456.513C658.46 456.477 658.233 456.438 657.906 456.396C657.579 456.346 657.253 456.321 656.926 456.321C656.173 456.321 655.502 456.481 654.912 456.8C654.33 457.113 653.868 457.55 653.528 458.111C653.187 458.665 653.016 459.297 653.016 460.007V470H649.831ZM667.651 470.33C666.117 470.33 664.778 469.979 663.635 469.276C662.491 468.572 661.604 467.589 660.972 466.325C660.339 465.06 660.023 463.583 660.023 461.893C660.023 460.195 660.339 458.711 660.972 457.44C661.604 456.168 662.491 455.181 663.635 454.478C664.778 453.775 666.117 453.423 667.651 453.423C669.185 453.423 670.524 453.775 671.668 454.478C672.811 455.181 673.699 456.168 674.331 457.44C674.963 458.711 675.279 460.195 675.279 461.893C675.279 463.583 674.963 465.06 674.331 466.325C673.699 467.589 672.811 468.572 671.668 469.276C670.524 469.979 669.185 470.33 667.651 470.33ZM667.662 467.656C668.656 467.656 669.48 467.393 670.134 466.868C670.787 466.342 671.27 465.643 671.582 464.769C671.902 463.896 672.062 462.933 672.062 461.882C672.062 460.838 671.902 459.879 671.582 459.006C671.27 458.125 670.787 457.418 670.134 456.886C669.48 456.353 668.656 456.087 667.662 456.087C666.661 456.087 665.83 456.353 665.169 456.886C664.516 457.418 664.029 458.125 663.71 459.006C663.397 459.879 663.241 460.838 663.241 461.882C663.241 462.933 663.397 463.896 663.71 464.769C664.029 465.643 664.516 466.342 665.169 466.868C665.83 467.393 666.661 467.656 667.662 467.656ZM685.727 470.33C684.144 470.33 682.78 469.972 681.637 469.254C680.5 468.53 679.627 467.532 679.016 466.261C678.405 464.989 678.1 463.533 678.1 461.893C678.1 460.231 678.412 458.764 679.037 457.493C679.662 456.214 680.543 455.217 681.679 454.499C682.816 453.782 684.154 453.423 685.695 453.423C686.938 453.423 688.046 453.654 689.019 454.116C689.992 454.57 690.777 455.21 691.374 456.033C691.977 456.857 692.336 457.82 692.45 458.92H689.35C689.179 458.153 688.789 457.493 688.178 456.939C687.574 456.385 686.764 456.108 685.749 456.108C684.861 456.108 684.083 456.342 683.416 456.811C682.755 457.273 682.24 457.933 681.871 458.793C681.502 459.645 681.317 460.653 681.317 461.818C681.317 463.011 681.498 464.041 681.86 464.908C682.222 465.774 682.734 466.445 683.394 466.921C684.062 467.397 684.847 467.635 685.749 467.635C686.352 467.635 686.899 467.525 687.389 467.305C687.887 467.077 688.302 466.754 688.636 466.335C688.977 465.916 689.215 465.412 689.35 464.822H692.45C692.336 465.881 691.992 466.825 691.416 467.656C690.841 468.487 690.07 469.141 689.105 469.616C688.146 470.092 687.02 470.33 685.727 470.33ZM702.909 470.33C701.297 470.33 699.908 469.986 698.743 469.297C697.586 468.601 696.691 467.624 696.059 466.367C695.434 465.103 695.121 463.622 695.121 461.925C695.121 460.249 695.434 458.771 696.059 457.493C696.691 456.214 697.571 455.217 698.701 454.499C699.837 453.782 701.165 453.423 702.685 453.423C703.608 453.423 704.503 453.576 705.37 453.881C706.236 454.187 707.014 454.666 707.703 455.32C708.392 455.973 708.935 456.822 709.333 457.866C709.73 458.903 709.929 460.163 709.929 461.648V462.777H696.922V460.391H706.808C706.808 459.553 706.637 458.81 706.297 458.164C705.956 457.511 705.476 456.996 704.858 456.619C704.248 456.243 703.53 456.055 702.706 456.055C701.811 456.055 701.03 456.275 700.363 456.715C699.702 457.148 699.191 457.717 698.828 458.42C698.473 459.116 698.296 459.872 698.296 460.689V462.553C698.296 463.647 698.488 464.577 698.871 465.344C699.262 466.112 699.805 466.697 700.501 467.102C701.197 467.5 702.01 467.699 702.941 467.699C703.544 467.699 704.095 467.614 704.592 467.443C705.089 467.266 705.519 467.003 705.881 466.655C706.243 466.307 706.52 465.877 706.712 465.366L709.727 465.909C709.485 466.797 709.052 467.575 708.427 468.242C707.809 468.903 707.032 469.418 706.094 469.787C705.164 470.149 704.102 470.33 702.909 470.33ZM725.726 457.631L722.839 458.143C722.718 457.773 722.526 457.422 722.263 457.088C722.008 456.754 721.66 456.481 721.219 456.268C720.779 456.055 720.229 455.948 719.568 455.948C718.666 455.948 717.913 456.151 717.309 456.555C716.706 456.953 716.404 457.468 716.404 458.1C716.404 458.647 716.606 459.087 717.011 459.421C717.416 459.755 718.069 460.028 718.971 460.241L721.571 460.838C723.077 461.186 724.199 461.722 724.937 462.447C725.676 463.171 726.045 464.112 726.045 465.27C726.045 466.25 725.761 467.124 725.193 467.891C724.632 468.651 723.847 469.247 722.839 469.68C721.837 470.114 720.676 470.33 719.355 470.33C717.523 470.33 716.028 469.94 714.87 469.158C713.712 468.37 713.002 467.251 712.739 465.803L715.818 465.334C716.01 466.136 716.404 466.744 717.001 467.156C717.597 467.56 718.375 467.763 719.334 467.763C720.378 467.763 721.212 467.546 721.837 467.113C722.462 466.673 722.775 466.136 722.775 465.504C722.775 464.993 722.583 464.563 722.199 464.215C721.823 463.867 721.244 463.604 720.463 463.427L717.693 462.82C716.166 462.472 715.037 461.918 714.305 461.158C713.581 460.398 713.219 459.435 713.219 458.271C713.219 457.305 713.488 456.46 714.028 455.735C714.568 455.011 715.314 454.446 716.265 454.041C717.217 453.629 718.307 453.423 719.536 453.423C721.305 453.423 722.697 453.807 723.712 454.574C724.728 455.334 725.399 456.353 725.726 457.631ZM741.81 457.631L738.923 458.143C738.802 457.773 738.61 457.422 738.347 457.088C738.092 456.754 737.744 456.481 737.303 456.268C736.863 456.055 736.313 455.948 735.652 455.948C734.75 455.948 733.997 456.151 733.393 456.555C732.79 456.953 732.488 457.468 732.488 458.1C732.488 458.647 732.69 459.087 733.095 459.421C733.5 459.755 734.153 460.028 735.055 460.241L737.655 460.838C739.161 461.186 740.283 461.722 741.021 462.447C741.76 463.171 742.129 464.112 742.129 465.27C742.129 466.25 741.845 467.124 741.277 467.891C740.716 468.651 739.931 469.247 738.923 469.68C737.921 470.114 736.76 470.33 735.439 470.33C733.607 470.33 732.112 469.94 730.954 469.158C729.796 468.37 729.086 467.251 728.823 465.803L731.902 465.334C732.094 466.136 732.488 466.744 733.085 467.156C733.681 467.56 734.459 467.763 735.418 467.763C736.462 467.763 737.296 467.546 737.921 467.113C738.546 466.673 738.859 466.136 738.859 465.504C738.859 464.993 738.667 464.563 738.283 464.215C737.907 463.867 737.328 463.604 736.547 463.427L733.777 462.82C732.25 462.472 731.121 461.918 730.389 461.158C729.665 460.398 729.303 459.435 729.303 458.271C729.303 457.305 729.572 456.46 730.112 455.735C730.652 455.011 731.398 454.446 732.349 454.041C733.301 453.629 734.391 453.423 735.62 453.423C737.388 453.423 738.781 453.807 739.796 454.574C740.812 455.334 741.483 456.353 741.81 457.631ZM745.632 470V453.636H748.817V470H745.632ZM747.24 451.112C746.686 451.112 746.21 450.927 745.813 450.558C745.422 450.181 745.227 449.734 745.227 449.215C745.227 448.69 745.422 448.242 745.813 447.873C746.21 447.496 746.686 447.308 747.24 447.308C747.794 447.308 748.267 447.496 748.657 447.873C749.055 448.242 749.254 448.69 749.254 449.215C749.254 449.734 749.055 450.181 748.657 450.558C748.267 450.927 747.794 451.112 747.24 451.112ZM756.288 460.284V470H753.102V453.636H756.16V456.3H756.362C756.739 455.433 757.328 454.737 758.131 454.212C758.94 453.686 759.96 453.423 761.188 453.423C762.303 453.423 763.28 453.658 764.118 454.126C764.956 454.588 765.606 455.277 766.067 456.193C766.529 457.109 766.76 458.242 766.76 459.592V470H763.575V459.975C763.575 458.789 763.266 457.862 762.648 457.195C762.03 456.52 761.181 456.183 760.102 456.183C759.363 456.183 758.706 456.342 758.131 456.662C757.563 456.982 757.112 457.45 756.778 458.068C756.451 458.679 756.288 459.418 756.288 460.284ZM777.893 476.477C776.593 476.477 775.474 476.307 774.537 475.966C773.607 475.625 772.847 475.174 772.257 474.613C771.668 474.052 771.227 473.438 770.936 472.77L773.674 471.641C773.866 471.953 774.121 472.283 774.441 472.631C774.768 472.987 775.208 473.288 775.762 473.537C776.323 473.786 777.044 473.91 777.925 473.91C779.132 473.91 780.13 473.615 780.918 473.026C781.707 472.443 782.101 471.513 782.101 470.234V467.017H781.898C781.707 467.365 781.43 467.752 781.067 468.178C780.712 468.604 780.222 468.974 779.597 469.286C778.972 469.599 778.159 469.755 777.158 469.755C775.865 469.755 774.7 469.453 773.663 468.849C772.634 468.239 771.817 467.34 771.213 466.154C770.616 464.961 770.318 463.494 770.318 461.754C770.318 460.014 770.613 458.523 771.202 457.28C771.799 456.037 772.616 455.085 773.653 454.425C774.69 453.757 775.865 453.423 777.179 453.423C778.195 453.423 779.015 453.594 779.64 453.935C780.265 454.268 780.751 454.659 781.099 455.107C781.455 455.554 781.728 455.948 781.92 456.289H782.154V453.636H785.276V470.362C785.276 471.768 784.949 472.923 784.295 473.825C783.642 474.727 782.758 475.394 781.643 475.827C780.535 476.261 779.285 476.477 777.893 476.477ZM777.861 467.113C778.777 467.113 779.551 466.9 780.183 466.474C780.822 466.04 781.305 465.423 781.632 464.62C781.966 463.81 782.133 462.841 782.133 461.712C782.133 460.611 781.969 459.641 781.643 458.803C781.316 457.965 780.837 457.312 780.205 456.843C779.572 456.367 778.791 456.129 777.861 456.129C776.902 456.129 776.103 456.378 775.464 456.875C774.825 457.365 774.342 458.033 774.015 458.878C773.695 459.723 773.536 460.668 773.536 461.712C773.536 462.784 773.699 463.725 774.026 464.535C774.352 465.344 774.835 465.977 775.474 466.431C776.121 466.886 776.916 467.113 777.861 467.113ZM805.126 453.636V456.193H796.187V453.636H805.126ZM798.584 449.716H801.77V465.195C801.77 465.813 801.862 466.278 802.047 466.591C802.231 466.896 802.469 467.106 802.76 467.219C803.059 467.326 803.382 467.379 803.73 467.379C803.986 467.379 804.209 467.362 804.401 467.326C804.593 467.29 804.742 467.262 804.849 467.241L805.424 469.872C805.239 469.943 804.976 470.014 804.635 470.085C804.295 470.163 803.868 470.206 803.357 470.213C802.519 470.227 801.738 470.078 801.013 469.766C800.289 469.453 799.703 468.97 799.256 468.317C798.808 467.663 798.584 466.843 798.584 465.856V449.716ZM808.649 470V453.636H811.835V470H808.649ZM810.258 451.112C809.704 451.112 809.228 450.927 808.83 450.558C808.44 450.181 808.244 449.734 808.244 449.215C808.244 448.69 808.44 448.242 808.83 447.873C809.228 447.496 809.704 447.308 810.258 447.308C810.812 447.308 811.284 447.496 811.675 447.873C812.072 448.242 812.271 448.69 812.271 449.215C812.271 449.734 812.072 450.181 811.675 450.558C811.284 450.927 810.812 451.112 810.258 451.112ZM816.12 470V453.636H819.177V456.3H819.38C819.721 455.398 820.278 454.695 821.052 454.19C821.827 453.679 822.753 453.423 823.833 453.423C824.927 453.423 825.843 453.679 826.581 454.19C827.327 454.702 827.878 455.405 828.233 456.3H828.403C828.794 455.426 829.415 454.73 830.268 454.212C831.12 453.686 832.135 453.423 833.314 453.423C834.799 453.423 836.01 453.888 836.947 454.819C837.892 455.749 838.364 457.152 838.364 459.027V470H835.179V459.325C835.179 458.217 834.877 457.415 834.273 456.918C833.67 456.42 832.949 456.172 832.111 456.172C831.074 456.172 830.268 456.491 829.692 457.131C829.117 457.763 828.829 458.576 828.829 459.57V470H825.655V459.123C825.655 458.235 825.378 457.521 824.824 456.982C824.27 456.442 823.549 456.172 822.661 456.172C822.057 456.172 821.5 456.332 820.988 456.651C820.484 456.964 820.076 457.401 819.763 457.962C819.458 458.523 819.305 459.173 819.305 459.911V470H816.12ZM849.686 470.33C848.074 470.33 846.685 469.986 845.521 469.297C844.363 468.601 843.468 467.624 842.836 466.367C842.211 465.103 841.898 463.622 841.898 461.925C841.898 460.249 842.211 458.771 842.836 457.493C843.468 456.214 844.349 455.217 845.478 454.499C846.614 453.782 847.942 453.423 849.462 453.423C850.386 453.423 851.281 453.576 852.147 453.881C853.013 454.187 853.791 454.666 854.48 455.32C855.169 455.973 855.712 456.822 856.11 457.866C856.508 458.903 856.707 460.163 856.707 461.648V462.777H843.699V460.391H853.585C853.585 459.553 853.415 458.81 853.074 458.164C852.733 457.511 852.254 456.996 851.636 456.619C851.025 456.243 850.308 456.055 849.484 456.055C848.589 456.055 847.808 456.275 847.14 456.715C846.479 457.148 845.968 457.717 845.606 458.42C845.251 459.116 845.073 459.872 845.073 460.689V462.553C845.073 463.647 845.265 464.577 845.648 465.344C846.039 466.112 846.582 466.697 847.278 467.102C847.974 467.5 848.788 467.699 849.718 467.699C850.322 467.699 850.872 467.614 851.369 467.443C851.866 467.266 852.296 467.003 852.658 466.655C853.021 466.307 853.298 465.877 853.489 465.366L856.504 465.909C856.263 466.797 855.83 467.575 855.205 468.242C854.587 468.903 853.809 469.418 852.871 469.787C851.941 470.149 850.879 470.33 849.686 470.33Z" fill="#18181B"/>
<path d="M1020 471V447" stroke="#18181B" stroke-width="4" stroke-linecap="round"/>
<path d="M1020 461C1021.1 461 1022 460.105 1022 459C1022 457.895 1021.1 457 1020 457V461ZM1020 457H872.5V461H1020V457Z" fill="#18181B"/>
<defs>
<filter id="filter0_f_443_2830" x="99" y="0" width="185" height="185" filterUnits="userSpaceOnUse" color-interpolation-filters="sRGB">
<feFlood flood-opacity="0" result="BackgroundImageFix"/>
<feBlend mode="normal" in="SourceGraphic" in2="BackgroundImageFix" result="shape"/>
<feGaussianBlur stdDeviation="32.5" result="effect1_foregroundBlur_443_2830"/>
</filter>
</defs>
</svg>
