<svg xmlns="http://www.w3.org/2000/svg" width="311" height="312" fill="none" viewBox="0 0 311 312"><path fill="#232325" d="M309.711 156.641c0 85.524-69.331 154.856-154.856 154.856C69.331 311.497 0 242.165 0 156.641S69.331 1.786 154.855 1.786c85.525 0 154.856 69.33 154.856 154.855Zm-265.829 0c0 61.289 49.685 110.974 110.973 110.974 61.289 0 110.974-49.685 110.974-110.974S216.144 45.667 154.855 45.667c-61.288 0-110.973 49.685-110.973 110.974Z"/><path fill="#A7F3D0" d="M281.381 112.629c11.988-4.119 18.513-17.286 12.668-28.534A154.851 154.851 0 0 0 160.475.691c-12.672-.315-21.638 11.328-20.077 23.907 1.561 12.58 13.104 21.258 25.732 22.362a108.95 108.95 0 0 1 83.864 52.366c6.535 10.861 19.4 17.423 31.387 13.303Z"/></svg>