<svg xmlns="http://www.w3.org/2000/svg" width="207" height="207" fill="none" viewBox="0 0 207 207"><path fill="#F4F4F5" d="M206.142 103.804c0 56.925-46.146 103.071-103.071 103.071C46.147 206.875 0 160.729 0 103.804S46.147.733 103.071.733c56.925 0 103.071 46.146 103.071 103.071Zm-176.934 0c0 40.794 33.07 73.863 73.863 73.863 40.794 0 73.863-33.069 73.863-73.863s-33.069-73.863-73.863-73.863-73.863 33.07-73.863 73.863Z"/><path fill="#A7F3D0" d="M187.286 74.51c7.979-2.742 12.322-11.506 8.432-18.992A103.074 103.074 0 0 0 106.812.004c-8.435-.209-14.403 7.54-13.364 15.913 1.039 8.373 8.722 14.149 17.127 14.884a72.519 72.519 0 0 1 55.82 34.854c4.35 7.23 12.912 11.597 20.891 8.855Z"/></svg>