<svg width="311" height="312" viewBox="0 0 311 312" fill="none" xmlns="http://www.w3.org/2000/svg">
<path d="M309.711 156.641C309.711 242.165 240.38 311.497 154.855 311.497C69.3312 311.497 0 242.165 0 156.641C0 71.1167 69.3312 1.78558 154.855 1.78558C240.38 1.78558 309.711 71.1167 309.711 156.641ZM43.882 156.641C43.882 217.93 93.5665 267.615 154.855 267.615C216.144 267.615 265.829 217.93 265.829 156.641C265.829 95.3521 216.144 45.6675 154.855 45.6675C93.5665 45.6675 43.882 95.3521 43.882 156.641Z" fill="#232325"/>
<path d="M281.381 112.629C293.369 108.51 299.894 95.343 294.049 84.0953C281.342 59.6412 262.266 38.8892 238.655 24.1467C215.045 9.40411 188.025 1.3735 160.475 0.690601C147.803 0.376499 138.837 12.0191 140.398 24.5983V24.5983C141.959 37.1776 153.502 45.8559 166.13 46.9603C183.141 48.4482 199.677 53.9249 214.343 63.0826C229.01 72.2403 241.189 84.6938 249.994 99.3258C256.529 110.187 269.394 116.749 281.381 112.629V112.629Z" fill="#A7F3D0"/>
</svg>
