<svg xmlns="http://www.w3.org/2000/svg" width="1188" height="465" fill="none" viewBox="0 0 1188 465"><path fill="#D4D4D8" d="M1186.71 251.707a1 1 0 0 0 0-1.414l-6.37-6.364a.996.996 0 0 0-1.41 0 1 1 0 0 0 0 1.414l5.66 5.657-5.66 5.657a1 1 0 0 0 0 1.414.994.994 0 0 0 1.41 0l6.37-6.364ZM38 252h4.484v-2H38v2Zm13.453 0h8.969v-2h-8.969v2Zm17.938 0h8.968v-2h-8.968v2Zm17.937 0h8.969v-2h-8.969v2Zm17.938 0h8.968v-2h-8.968v2Zm17.937 0h8.969v-2h-8.969v2Zm17.938 0h8.968v-2h-8.968v2Zm17.937 0h8.969v-2h-8.969v2Zm17.938 0h8.968v-2h-8.968v2Zm17.937 0h8.969v-2h-8.969v2Zm17.938 0h8.968v-2h-8.968v2Zm17.937 0h8.969v-2h-8.969v2Zm17.938 0h8.968v-2h-8.968v2Zm17.937 0h8.969v-2h-8.969v2Zm17.938 0h8.968v-2h-8.968v2Zm17.937 0h8.969v-2h-8.969v2Zm17.938 0h8.968v-2h-8.968v2Zm17.937 0h8.969v-2h-8.969v2Zm17.938 0h8.968v-2h-8.968v2Zm17.937 0h8.969v-2h-8.969v2Zm17.938 0h8.968v-2h-8.968v2Zm17.937 0h8.969v-2h-8.969v2Zm17.938 0h8.968v-2h-8.968v2Zm17.937 0h8.969v-2h-8.969v2Zm17.938 0h8.968v-2h-8.968v2Zm17.937 0h8.969v-2h-8.969v2Zm17.938 0h8.968v-2h-8.968v2Zm17.937 0h8.969v-2h-8.969v2Zm17.938 0h8.968v-2h-8.968v2Zm17.937 0h8.969v-2h-8.969v2Zm17.938 0h8.968v-2h-8.968v2Zm17.937 0h8.969v-2h-8.969v2Zm17.938 0h8.968v-2h-8.968v2Zm17.937 0h8.969v-2h-8.969v2Zm17.938 0h8.968v-2h-8.968v2Zm17.937 0h8.969v-2h-8.969v2Zm17.938 0h8.968v-2h-8.968v2Zm17.937 0h8.969v-2h-8.969v2Zm17.938 0h8.968v-2h-8.968v2Zm17.937 0h8.969v-2h-8.969v2Zm17.938 0h8.968v-2h-8.968v2Zm17.937 0h8.969v-2h-8.969v2Zm17.938 0h8.968v-2h-8.968v2Zm17.937 0h8.969v-2h-8.969v2Zm17.938 0h8.968v-2h-8.968v2Zm17.937 0h8.969v-2h-8.969v2Zm17.938 0h8.968v-2h-8.968v2Zm17.937 0h8.969v-2h-8.969v2Zm17.938 0h8.968v-2h-8.968v2Zm17.937 0h8.969v-2h-8.969v2Zm17.938 0h8.968v-2h-8.968v2Zm17.937 0h8.969v-2h-8.969v2Zm17.938 0h8.968v-2h-8.968v2Zm17.937 0h8.969v-2h-8.969v2Zm17.937 0h8.97v-2h-8.97v2Zm17.94 0h8.97v-2h-8.97v2Zm17.94 0h8.96v-2h-8.96v2Zm17.93 0h8.97v-2h-8.97v2Zm17.94 0h8.97v-2h-8.97v2Zm17.94 0h8.97v-2h-8.97v2Zm17.94 0h8.96v-2h-8.96v2Zm17.93 0h8.97v-2h-8.97v2Zm17.94 0h8.97v-2h-8.97v2Zm17.94 0h8.97v-2h-8.97v2Zm17.94 0h4.48v-2h-4.48v2Zm5.89.414c.79-.781.79-2.047 0-2.828l-12.72-12.728a2.001 2.001 0 0 0-2.83 2.828L1183.17 251l-11.31 11.314a2.001 2.001 0 0 0 2.83 2.828l12.72-12.728ZM38 253h4.484v-4H38v4Zm13.453 0h8.969v-4h-8.969v4Zm17.938 0h8.968v-4h-8.968v4Zm17.937 0h8.969v-4h-8.969v4Zm17.938 0h8.968v-4h-8.968v4Zm17.937 0h8.969v-4h-8.969v4Zm17.938 0h8.968v-4h-8.968v4Zm17.937 0h8.969v-4h-8.969v4Zm17.938 0h8.968v-4h-8.968v4Zm17.937 0h8.969v-4h-8.969v4Zm17.938 0h8.968v-4h-8.968v4Zm17.937 0h8.969v-4h-8.969v4Zm17.938 0h8.968v-4h-8.968v4Zm17.937 0h8.969v-4h-8.969v4Zm17.938 0h8.968v-4h-8.968v4Zm17.937 0h8.969v-4h-8.969v4Zm17.938 0h8.968v-4h-8.968v4Zm17.937 0h8.969v-4h-8.969v4Zm17.938 0h8.968v-4h-8.968v4Zm17.937 0h8.969v-4h-8.969v4Zm17.938 0h8.968v-4h-8.968v4Zm17.937 0h8.969v-4h-8.969v4Zm17.938 0h8.968v-4h-8.968v4Zm17.937 0h8.969v-4h-8.969v4Zm17.938 0h8.968v-4h-8.968v4Zm17.937 0h8.969v-4h-8.969v4Zm17.938 0h8.968v-4h-8.968v4Zm17.937 0h8.969v-4h-8.969v4Zm17.938 0h8.968v-4h-8.968v4Zm17.937 0h8.969v-4h-8.969v4Zm17.938 0h8.968v-4h-8.968v4Zm17.937 0h8.969v-4h-8.969v4Zm17.938 0h8.968v-4h-8.968v4Zm17.937 0h8.969v-4h-8.969v4Zm17.938 0h8.968v-4h-8.968v4Zm17.937 0h8.969v-4h-8.969v4Zm17.938 0h8.968v-4h-8.968v4Zm17.937 0h8.969v-4h-8.969v4Zm17.938 0h8.968v-4h-8.968v4Zm17.937 0h8.969v-4h-8.969v4Zm17.938 0h8.968v-4h-8.968v4Zm17.937 0h8.969v-4h-8.969v4Zm17.938 0h8.968v-4h-8.968v4Zm17.937 0h8.969v-4h-8.969v4Zm17.938 0h8.968v-4h-8.968v4Zm17.937 0h8.969v-4h-8.969v4Zm17.938 0h8.968v-4h-8.968v4Zm17.937 0h8.969v-4h-8.969v4Zm17.938 0h8.968v-4h-8.968v4Zm17.937 0h8.969v-4h-8.969v4Zm17.938 0h8.968v-4h-8.968v4Zm17.937 0h8.969v-4h-8.969v4Zm17.938 0h8.968v-4h-8.968v4Zm17.937 0h8.969v-4h-8.969v4Zm17.937 0h8.97v-4h-8.97v4Zm17.94 0h8.97v-4h-8.97v4Zm17.94 0h8.96v-4h-8.96v4Zm17.93 0h8.97v-4h-8.97v4Zm17.94 0h8.97v-4h-8.97v4Zm17.94 0h8.97v-4h-8.97v4Zm17.94 0h8.96v-4h-8.96v4Zm17.93 0h8.97v-4h-8.97v4Zm17.94 0h8.97v-4h-8.97v4Zm17.94 0h8.97v-4h-8.97v4Zm17.94 0h4.48v-4h-4.48v4Z"/><path fill="#1D2A24" d="M768.5 210.5H1069c4.14 0 7.5 3.358 7.5 7.5v66c0 4.142-3.36 7.5-7.5 7.5H768.5v-81Z"/><path fill="#D1FAE5" d="M816.918 260v-17.455h6.221c1.358 0 2.483.248 3.375.742.892.494 1.56 1.17 2.003 2.028.443.853.665 1.813.665 2.881 0 1.074-.225 2.04-.673 2.898-.444.852-1.114 1.528-2.012 2.028-.892.494-2.014.742-3.366.742h-4.279v-2.233h4.04c.858 0 1.554-.148 2.088-.443a2.79 2.79 0 0 0 1.176-1.228c.25-.517.375-1.105.375-1.764s-.125-1.244-.375-1.756c-.25-.511-.645-.912-1.184-1.201-.534-.29-1.239-.435-2.114-.435h-3.307V260h-2.633Zm15.147 0v-13.091h2.463v2.08h.136a3.164 3.164 0 0 1 1.261-1.662 3.612 3.612 0 0 1 2.063-.614 11.267 11.267 0 0 1 1.082.06v2.437a4.838 4.838 0 0 0-.545-.094 5.316 5.316 0 0 0-.784-.059c-.603 0-1.139.128-1.611.383a2.851 2.851 0 0 0-1.517 2.566V260h-2.548Zm14.384.264c-1.29 0-2.401-.275-3.333-.826-.926-.557-1.642-1.339-2.147-2.344-.5-1.012-.75-2.196-.75-3.554 0-1.341.25-2.523.75-3.546.505-1.022 1.21-1.821 2.113-2.395.909-.573 1.972-.86 3.188-.86.739 0 1.454.122 2.148.366a5.193 5.193 0 0 1 1.866 1.151c.551.522.986 1.201 1.304 2.037.318.829.477 1.838.477 3.025v.904h-10.406v-1.91h7.909c0-.67-.136-1.264-.409-1.781a3.107 3.107 0 0 0-1.15-1.236c-.489-.301-1.063-.451-1.722-.451-.716 0-1.341.176-1.875.528a3.543 3.543 0 0 0-1.227 1.364 3.938 3.938 0 0 0-.426 1.815v1.492c0 .875.153 1.619.46 2.233a3.328 3.328 0 0 0 1.304 1.406c.557.318 1.207.477 1.951.477a4.06 4.06 0 0 0 1.321-.204 2.875 2.875 0 0 0 1.032-.631c.289-.279.511-.622.664-1.031l2.412.434a4.367 4.367 0 0 1-1.039 1.867c-.495.528-1.117.94-1.867 1.236-.744.289-1.594.434-2.548.434Zm18.253-10.159-2.309.409a2.754 2.754 0 0 0-.46-.844 2.283 2.283 0 0 0-.836-.656c-.352-.17-.792-.255-1.321-.255-.721 0-1.324.161-1.807.485-.482.318-.724.73-.724 1.236 0 .438.162.79.486 1.057.324.267.846.486 1.568.656l2.08.477c1.204.279 2.102.708 2.693 1.287.591.58.886 1.333.886 2.259 0 .784-.227 1.483-.682 2.096-.449.608-1.076 1.086-1.883 1.432-.801.347-1.73.52-2.787.52-1.466 0-2.662-.312-3.588-.937-.926-.631-1.495-1.526-1.705-2.685l2.463-.375c.154.642.469 1.128.946 1.457.478.324 1.1.486 1.867.486.835 0 1.503-.173 2.003-.52.5-.352.75-.781.75-1.287 0-.409-.154-.752-.461-1.031-.301-.278-.764-.488-1.389-.631l-2.216-.485c-1.221-.279-2.125-.722-2.71-1.33-.579-.608-.869-1.378-.869-2.31 0-.772.216-1.448.647-2.028.432-.579 1.029-1.031 1.79-1.355.762-.33 1.634-.494 2.617-.494 1.414 0 2.528.306 3.341.92.812.608 1.349 1.423 1.61 2.446Zm8.7 10.159c-1.29 0-2.401-.275-3.332-.826-.927-.557-1.642-1.339-2.148-2.344-.5-1.012-.75-2.196-.75-3.554 0-1.341.25-2.523.75-3.546.506-1.022 1.21-1.821 2.114-2.395.909-.573 1.971-.86 3.187-.86.739 0 1.455.122 2.148.366a5.193 5.193 0 0 1 1.866 1.151c.551.522.986 1.201 1.304 2.037.318.829.477 1.838.477 3.025v.904h-10.406v-1.91h7.909c0-.67-.136-1.264-.409-1.781a3.107 3.107 0 0 0-1.15-1.236c-.489-.301-1.063-.451-1.722-.451-.716 0-1.341.176-1.875.528a3.551 3.551 0 0 0-1.227 1.364 3.938 3.938 0 0 0-.426 1.815v1.492c0 .875.153 1.619.46 2.233a3.328 3.328 0 0 0 1.304 1.406c.557.318 1.207.477 1.952.477.483 0 .923-.068 1.321-.204a2.88 2.88 0 0 0 1.031-.631 2.75 2.75 0 0 0 .665-1.031l2.412.434a4.38 4.38 0 0 1-1.04 1.867c-.495.528-1.117.94-1.867 1.236-.744.289-1.593.434-2.548.434Zm10.992-8.037V260h-2.548v-13.091h2.446v2.131h.162a3.747 3.747 0 0 1 1.415-1.671c.647-.42 1.463-.63 2.446-.63.892 0 1.673.187 2.343.562.671.369 1.191.921 1.56 1.654.369.732.554 1.639.554 2.718V260h-2.548v-8.02c0-.949-.247-1.69-.742-2.224-.494-.54-1.173-.81-2.037-.81-.591 0-1.116.128-1.576.384-.455.255-.816.63-1.083 1.125-.261.488-.392 1.079-.392 1.772Zm17.906-5.318v2.046h-7.15v-2.046h7.15Zm-5.233-3.136h2.549v12.383c0 .495.074.867.221 1.117.148.244.338.412.571.503.239.085.498.127.776.127.204 0 .383-.014.537-.042l.358-.068.46 2.105a4.3 4.3 0 0 1-.631.17 4.9 4.9 0 0 1-1.022.102 4.473 4.473 0 0 1-1.875-.358 3.214 3.214 0 0 1-1.407-1.159c-.358-.522-.537-1.179-.537-1.968v-12.912Zm11.862 16.517c-.83 0-1.58-.154-2.25-.46a3.798 3.798 0 0 1-1.594-1.356c-.386-.59-.579-1.315-.579-2.173 0-.739.142-1.346.426-1.824a3.14 3.14 0 0 1 1.15-1.133 5.989 5.989 0 0 1 1.62-.631c.596-.142 1.204-.25 1.824-.324l1.909-.221c.488-.063.843-.162 1.065-.299.222-.136.332-.358.332-.664v-.06c0-.744-.21-1.321-.63-1.73-.415-.409-1.034-.614-1.858-.614-.858 0-1.534.19-2.029.571-.488.375-.826.793-1.014 1.253l-2.395-.545c.284-.796.699-1.438 1.245-1.927a5.037 5.037 0 0 1 1.9-1.073 7.4 7.4 0 0 1 2.259-.341c.522 0 1.076.062 1.662.187a4.85 4.85 0 0 1 1.653.665c.517.324.94.787 1.27 1.389.329.597.494 1.372.494 2.327V260h-2.488v-1.79h-.103a3.61 3.61 0 0 1-.741.972c-.33.318-.753.582-1.27.792-.517.211-1.136.316-1.858.316Zm.554-2.046c.705 0 1.307-.139 1.807-.417.505-.279.889-.642 1.15-1.091.267-.455.401-.941.401-1.458v-1.687c-.091.091-.267.176-.529.256a8.455 8.455 0 0 1-.877.196c-.33.051-.651.099-.963.145-.313.039-.574.073-.784.102a6.27 6.27 0 0 0-1.356.315 2.331 2.331 0 0 0-.971.639c-.239.273-.358.637-.358 1.091 0 .631.233 1.108.699 1.432.466.318 1.059.477 1.781.477Zm15.411-11.335v2.046h-7.15v-2.046h7.15Zm-5.233-3.136h2.549v12.383c0 .495.073.867.221 1.117.148.244.338.412.571.503.239.085.497.127.776.127.204 0 .383-.014.537-.042l.358-.068.46 2.105a4.3 4.3 0 0 1-.631.17 4.917 4.917 0 0 1-1.023.102 4.48 4.48 0 0 1-1.875-.358 3.217 3.217 0 0 1-1.406-1.159c-.358-.522-.537-1.179-.537-1.968v-12.912ZM927.713 260v-13.091h2.548V260h-2.548ZM929 244.889c-.443 0-.824-.148-1.142-.443a1.44 1.44 0 0 1-.469-1.074c0-.42.156-.778.469-1.074a1.603 1.603 0 0 1 1.142-.451c.443 0 .821.15 1.134.451.318.296.477.654.477 1.074 0 .415-.159.773-.477 1.074a1.594 1.594 0 0 1-1.134.443Zm10.204 15.375c-1.227 0-2.298-.281-3.213-.844-.915-.562-1.625-1.349-2.131-2.36-.506-1.012-.758-2.194-.758-3.546 0-1.358.252-2.545.758-3.562s1.216-1.807 2.131-2.37c.915-.562 1.986-.843 3.213-.843s2.298.281 3.213.843c.915.563 1.625 1.353 2.131 2.37.505 1.017.758 2.204.758 3.562 0 1.352-.253 2.534-.758 3.546-.506 1.011-1.216 1.798-2.131 2.36-.915.563-1.986.844-3.213.844Zm.008-2.139c.796 0 1.455-.21 1.978-.631.522-.42.909-.98 1.159-1.679.255-.699.383-1.468.383-2.309a6.66 6.66 0 0 0-.383-2.301c-.25-.705-.637-1.27-1.159-1.696-.523-.427-1.182-.64-1.978-.64-.801 0-1.466.213-1.994.64-.523.426-.912.991-1.168 1.696a6.78 6.78 0 0 0-.375 2.301c0 .841.125 1.61.375 2.309.256.699.645 1.259 1.168 1.679.528.421 1.193.631 1.994.631Zm11.487-5.898V260h-2.548v-13.091h2.446v2.131h.162a3.745 3.745 0 0 1 1.414-1.671c.648-.42 1.463-.63 2.446-.63.892 0 1.674.187 2.344.562.671.369 1.19.921 1.56 1.654.369.732.554 1.639.554 2.718V260h-2.549v-8.02c0-.949-.247-1.69-.741-2.224-.494-.54-1.173-.81-2.037-.81-.591 0-1.116.128-1.577.384-.454.255-.815.63-1.082 1.125-.261.488-.392 1.079-.392 1.772Zm23.047 8.029c-1.056 0-2-.27-2.829-.81-.824-.545-1.472-1.321-1.943-2.327-.466-1.011-.699-2.224-.699-3.639 0-1.415.236-2.625.707-3.631.478-1.005 1.131-1.775 1.96-2.309.83-.534 1.77-.801 2.821-.801.813 0 1.466.136 1.961.409.5.267.886.579 1.159.937.278.358.494.674.648.946h.153v-6.486h2.548V260h-2.488v-2.037h-.213a6.805 6.805 0 0 1-.665.955c-.284.358-.676.67-1.176.937-.5.267-1.148.401-1.944.401Zm.563-2.174c.733 0 1.352-.193 1.858-.579.511-.392.898-.935 1.159-1.628.267-.693.401-1.5.401-2.42 0-.91-.131-1.705-.392-2.387-.262-.682-.645-1.213-1.151-1.594-.506-.38-1.131-.571-1.875-.571-.767 0-1.406.199-1.918.597-.511.398-.897.94-1.159 1.628-.255.687-.383 1.463-.383 2.327 0 .875.13 1.661.392 2.36.261.699.647 1.253 1.159 1.662.517.404 1.153.605 1.909.605Zm15.202 2.182c-1.289 0-2.4-.275-3.332-.826-.926-.557-1.642-1.339-2.148-2.344-.5-1.012-.75-2.196-.75-3.554 0-1.341.25-2.523.75-3.546.506-1.022 1.21-1.821 2.114-2.395.909-.573 1.971-.86 3.187-.86.739 0 1.455.122 2.148.366a5.206 5.206 0 0 1 1.867 1.151c.551.522.985 1.201 1.304 2.037.318.829.477 1.838.477 3.025v.904h-10.406v-1.91h7.909c0-.67-.137-1.264-.409-1.781a3.11 3.11 0 0 0-1.151-1.236c-.489-.301-1.062-.451-1.722-.451-.715 0-1.34.176-1.875.528a3.551 3.551 0 0 0-1.227 1.364 3.938 3.938 0 0 0-.426 1.815v1.492c0 .875.153 1.619.46 2.233.313.613.747 1.082 1.304 1.406.557.318 1.208.477 1.952.477.483 0 .923-.068 1.321-.204a2.871 2.871 0 0 0 1.031-.631c.29-.279.512-.622.665-1.031l2.412.434a4.369 4.369 0 0 1-1.04 1.867c-.494.528-1.116.94-1.866 1.236-.745.289-1.594.434-2.549.434Zm10.989-17.719V260h-2.545v-17.455h2.545Zm7.24 17.745c-.83 0-1.58-.154-2.25-.46a3.775 3.775 0 0 1-1.59-1.356c-.39-.59-.58-1.315-.58-2.173 0-.739.14-1.346.42-1.824a3.21 3.21 0 0 1 1.15-1.133 6.174 6.174 0 0 1 1.62-.631c.6-.142 1.21-.25 1.83-.324l1.91-.221c.49-.063.84-.162 1.06-.299.22-.136.33-.358.33-.664v-.06c0-.744-.21-1.321-.63-1.73-.41-.409-1.03-.614-1.85-.614-.86 0-1.54.19-2.03.571-.49.375-.83.793-1.02 1.253l-2.39-.545c.28-.796.7-1.438 1.24-1.927a5.076 5.076 0 0 1 1.9-1.073 7.425 7.425 0 0 1 2.26-.341c.52 0 1.08.062 1.66.187.6.119 1.15.341 1.66.665s.94.787 1.27 1.389c.33.597.49 1.372.49 2.327V260h-2.49v-1.79h-.1c-.16.33-.41.654-.74.972-.33.318-.75.582-1.27.792-.52.211-1.14.316-1.86.316Zm.56-2.046c.7 0 1.3-.139 1.8-.417.51-.279.89-.642 1.15-1.091.27-.455.4-.941.4-1.458v-1.687c-.09.091-.26.176-.53.256-.25.073-.54.139-.87.196-.33.051-.65.099-.97.145-.31.039-.57.073-.78.102-.49.062-.95.167-1.36.315-.4.148-.72.361-.97.639-.24.273-.35.637-.35 1.091 0 .631.23 1.108.69 1.432.47.318 1.06.477 1.79.477Zm10.44 6.665c-.38 0-.73-.031-1.04-.094-.31-.056-.55-.119-.7-.187l.61-2.088c.47.125.88.179 1.25.162.36-.017.68-.154.96-.409.28-.256.53-.674.75-1.253l.32-.87-4.79-13.261h2.72l3.32 10.159h.13l3.32-10.159h2.74l-5.4 14.838c-.25.682-.57 1.259-.95 1.73-.39.478-.85.836-1.38 1.074-.54.239-1.16.358-1.86.358Z"/><path stroke="#3F8862" d="M768.5 210.5H1069c4.14 0 7.5 3.358 7.5 7.5v66c0 4.142-3.36 7.5-7.5 7.5H768.5v-81Z"/><path fill="#2A261D" d="M478.5 210.5h290v81h-290z"/><path fill="#FEF3C7" d="M533.418 260v-17.455h6.221c1.358 0 2.483.248 3.375.742.892.494 1.56 1.17 2.003 2.028.443.853.665 1.813.665 2.881 0 1.074-.225 2.04-.673 2.898-.444.852-1.114 1.528-2.012 2.028-.892.494-2.014.742-3.366.742h-4.279v-2.233h4.04c.858 0 1.554-.148 2.088-.443a2.79 2.79 0 0 0 1.176-1.228c.25-.517.375-1.105.375-1.764s-.125-1.244-.375-1.756c-.25-.511-.645-.912-1.184-1.201-.534-.29-1.239-.435-2.114-.435h-3.307V260h-2.633Zm15.147 0v-13.091h2.463v2.08h.136a3.164 3.164 0 0 1 1.261-1.662 3.612 3.612 0 0 1 2.063-.614 11.267 11.267 0 0 1 1.082.06v2.437a4.838 4.838 0 0 0-.545-.094 5.316 5.316 0 0 0-.784-.059c-.603 0-1.139.128-1.611.383a2.851 2.851 0 0 0-1.517 2.566V260h-2.548Zm14.256.264c-1.227 0-2.298-.281-3.213-.844-.915-.562-1.625-1.349-2.131-2.36-.505-1.012-.758-2.194-.758-3.546 0-1.358.253-2.545.758-3.562.506-1.017 1.216-1.807 2.131-2.37.915-.562 1.986-.843 3.213-.843s2.298.281 3.213.843c.915.563 1.625 1.353 2.131 2.37.505 1.017.758 2.204.758 3.562 0 1.352-.253 2.534-.758 3.546-.506 1.011-1.216 1.798-2.131 2.36-.915.563-1.986.844-3.213.844Zm.009-2.139c.795 0 1.454-.21 1.977-.631.523-.42.909-.98 1.159-1.679.256-.699.383-1.468.383-2.309 0-.836-.127-1.603-.383-2.301-.25-.705-.636-1.27-1.159-1.696-.523-.427-1.182-.64-1.977-.64-.802 0-1.466.213-1.995.64-.522.426-.912.991-1.167 1.696a6.78 6.78 0 0 0-.375 2.301c0 .841.125 1.61.375 2.309.255.699.645 1.259 1.167 1.679.529.421 1.193.631 1.995.631Zm14.452 2.139c-1.267 0-2.358-.287-3.273-.861-.909-.579-1.608-1.377-2.096-2.394-.489-1.018-.733-2.182-.733-3.495 0-1.329.25-2.503.75-3.52.5-1.022 1.204-1.821 2.113-2.395.909-.573 1.98-.86 3.213-.86.995 0 1.881.184 2.659.554a4.76 4.76 0 0 1 1.884 1.534c.483.659.77 1.429.861 2.309h-2.48a2.975 2.975 0 0 0-.938-1.585c-.483-.443-1.13-.665-1.943-.665-.71 0-1.332.188-1.866.563-.529.369-.941.898-1.236 1.585-.296.682-.443 1.489-.443 2.421 0 .954.144 1.778.434 2.471.29.693.699 1.23 1.227 1.611.535.381 1.162.571 1.884.571.483 0 .92-.088 1.313-.264a2.69 2.69 0 0 0 .997-.776c.272-.335.463-.738.571-1.21h2.48a4.821 4.821 0 0 1-.827 2.267c-.46.665-1.077 1.187-1.849 1.568-.767.381-1.668.571-2.702.571Zm13.745 0c-1.29 0-2.401-.275-3.332-.826-.927-.557-1.642-1.339-2.148-2.344-.5-1.012-.75-2.196-.75-3.554 0-1.341.25-2.523.75-3.546.506-1.022 1.21-1.821 2.114-2.395.909-.573 1.971-.86 3.187-.86.739 0 1.455.122 2.148.366a5.193 5.193 0 0 1 1.866 1.151c.551.522.986 1.201 1.304 2.037.318.829.477 1.838.477 3.025v.904h-10.406v-1.91h7.909c0-.67-.136-1.264-.409-1.781a3.107 3.107 0 0 0-1.15-1.236c-.489-.301-1.063-.451-1.722-.451-.716 0-1.341.176-1.875.528a3.551 3.551 0 0 0-1.227 1.364 3.938 3.938 0 0 0-.426 1.815v1.492c0 .875.153 1.619.46 2.233a3.328 3.328 0 0 0 1.304 1.406c.557.318 1.207.477 1.952.477.483 0 .923-.068 1.321-.204a2.88 2.88 0 0 0 1.031-.631 2.75 2.75 0 0 0 .665-1.031l2.412.434a4.38 4.38 0 0 1-1.04 1.867c-.495.528-1.117.94-1.867 1.236-.744.289-1.593.434-2.548.434Zm18.254-10.159-2.31.409a2.754 2.754 0 0 0-.46-.844 2.283 2.283 0 0 0-.836-.656c-.352-.17-.792-.255-1.321-.255-.721 0-1.323.161-1.806.485-.483.318-.725.73-.725 1.236 0 .438.162.79.486 1.057.324.267.847.486 1.568.656l2.08.477c1.204.279 2.102.708 2.693 1.287.591.58.886 1.333.886 2.259 0 .784-.227 1.483-.682 2.096-.448.608-1.076 1.086-1.883 1.432-.801.347-1.73.52-2.787.52-1.466 0-2.662-.312-3.588-.937-.926-.631-1.494-1.526-1.705-2.685l2.463-.375c.154.642.469 1.128.946 1.457.478.324 1.1.486 1.867.486.835 0 1.503-.173 2.003-.52.5-.352.75-.781.75-1.287a1.34 1.34 0 0 0-.46-1.031c-.302-.278-.765-.488-1.39-.631l-2.216-.485c-1.221-.279-2.125-.722-2.71-1.33-.579-.608-.869-1.378-.869-2.31 0-.772.216-1.448.648-2.028.431-.579 1.028-1.031 1.789-1.355.762-.33 1.634-.494 2.617-.494 1.415 0 2.528.306 3.341.92.812.608 1.349 1.423 1.611 2.446Zm12.867 0-2.31.409a2.754 2.754 0 0 0-.46-.844 2.288 2.288 0 0 0-.835-.656c-.353-.17-.793-.255-1.321-.255-.722 0-1.324.161-1.807.485-.483.318-.725.73-.725 1.236 0 .438.162.79.486 1.057.324.267.847.486 1.568.656l2.08.477c1.204.279 2.102.708 2.693 1.287.591.58.886 1.333.886 2.259 0 .784-.227 1.483-.681 2.096-.449.608-1.077 1.086-1.884 1.432-.801.347-1.73.52-2.787.52-1.466 0-2.662-.312-3.588-.937-.926-.631-1.494-1.526-1.704-2.685l2.463-.375c.153.642.468 1.128.946 1.457.477.324 1.099.486 1.866.486.835 0 1.503-.173 2.003-.52.5-.352.75-.781.75-1.287 0-.409-.153-.752-.46-1.031-.301-.278-.765-.488-1.389-.631l-2.216-.485c-1.222-.279-2.125-.722-2.711-1.33-.579-.608-.869-1.378-.869-2.31 0-.772.216-1.448.648-2.028.432-.579 1.028-1.031 1.79-1.355.761-.33 1.633-.494 2.616-.494 1.415 0 2.528.306 3.341.92.812.608 1.349 1.423 1.611 2.446Zm3.057 9.895v-13.091h2.549V260h-2.549Zm1.287-15.111c-.443 0-.824-.148-1.142-.443a1.443 1.443 0 0 1-.469-1.074c0-.42.157-.778.469-1.074a1.603 1.603 0 0 1 1.142-.451c.443 0 .821.15 1.134.451.318.296.477.654.477 1.074 0 .415-.159.773-.477 1.074a1.594 1.594 0 0 1-1.134.443Zm7.238 7.338V260h-2.548v-13.091h2.446v2.131h.162a3.747 3.747 0 0 1 1.415-1.671c.647-.42 1.463-.63 2.446-.63.892 0 1.673.187 2.343.562.671.369 1.191.921 1.56 1.654.369.732.554 1.639.554 2.718V260h-2.548v-8.02c0-.949-.247-1.69-.742-2.224-.494-.54-1.173-.81-2.037-.81-.591 0-1.116.128-1.576.384-.455.255-.816.63-1.083 1.125-.261.488-.392 1.079-.392 1.772Zm17.284 12.955c-1.04 0-1.934-.137-2.684-.409-.745-.273-1.353-.634-1.824-1.083a4.54 4.54 0 0 1-1.057-1.474l2.19-.904c.154.25.358.515.614.793.261.284.613.526 1.057.725.449.198 1.025.298 1.73.298.966 0 1.764-.236 2.395-.708.63-.465.946-1.21.946-2.232v-2.574h-.162a5.857 5.857 0 0 1-.665.929c-.284.341-.676.636-1.176.886-.5.25-1.151.375-1.952.375-1.034 0-1.966-.242-2.795-.724-.824-.489-1.478-1.208-1.961-2.157-.477-.954-.715-2.128-.715-3.52s.235-2.585.707-3.579c.477-.994 1.131-1.756 1.96-2.284.83-.534 1.77-.801 2.821-.801.813 0 1.469.136 1.969.409.5.267.889.579 1.168.937.284.358.502.674.656.946h.187v-2.122h2.497v13.381c0 1.125-.261 2.048-.784 2.77-.522.721-1.23 1.255-2.122 1.602-.886.347-1.886.52-3 .52Zm-.025-7.492c.733 0 1.352-.17 1.858-.511.511-.347.897-.841 1.159-1.483.267-.648.4-1.423.4-2.327 0-.88-.13-1.656-.392-2.326-.261-.671-.645-1.194-1.15-1.569-.506-.38-1.131-.571-1.875-.571-.767 0-1.407.199-1.918.597-.511.392-.898.926-1.159 1.602-.256.676-.384 1.432-.384 2.267 0 .858.131 1.611.392 2.259.262.648.648 1.153 1.16 1.517.517.364 1.153.545 1.909.545Zm21.811-10.781v2.046h-7.15v-2.046h7.15Zm-5.233-3.136h2.549v12.383c0 .495.074.867.221 1.117.148.244.338.412.571.503.239.085.498.127.776.127.204 0 .383-.014.537-.042l.358-.068.46 2.105a4.3 4.3 0 0 1-.631.17 4.9 4.9 0 0 1-1.022.102 4.473 4.473 0 0 1-1.875-.358 3.214 3.214 0 0 1-1.407-1.159c-.358-.522-.537-1.179-.537-1.968v-12.912ZM675.619 260v-13.091h2.549V260h-2.549Zm1.287-15.111c-.443 0-.824-.148-1.142-.443a1.443 1.443 0 0 1-.469-1.074c0-.42.157-.778.469-1.074a1.603 1.603 0 0 1 1.142-.451c.443 0 .821.15 1.134.451.318.296.477.654.477 1.074 0 .415-.159.773-.477 1.074a1.594 1.594 0 0 1-1.134.443Zm4.69 15.111v-13.091h2.446v2.131h.162a3.387 3.387 0 0 1 1.338-1.688c.619-.409 1.361-.613 2.224-.613.875 0 1.608.204 2.199.613.597.409 1.037.972 1.321 1.688h.137a3.68 3.68 0 0 1 1.491-1.671c.682-.42 1.494-.63 2.438-.63 1.187 0 2.156.372 2.906 1.116.755.744 1.133 1.867 1.133 3.367V260h-2.548v-8.54c0-.886-.241-1.528-.724-1.926-.483-.398-1.06-.596-1.731-.596-.829 0-1.474.255-1.934.767-.46.505-.691 1.156-.691 1.951V260h-2.539v-8.702c0-.71-.222-1.281-.665-1.713-.443-.432-1.02-.647-1.73-.647-.483 0-.929.127-1.338.383-.404.25-.73.599-.98 1.048-.245.449-.367.969-.367 1.56V260h-2.548Zm26.853.264c-1.29 0-2.401-.275-3.333-.826-.926-.557-1.642-1.339-2.147-2.344-.5-1.012-.75-2.196-.75-3.554 0-1.341.25-2.523.75-3.546.505-1.022 1.21-1.821 2.113-2.395.909-.573 1.972-.86 3.188-.86.739 0 1.454.122 2.148.366a5.193 5.193 0 0 1 1.866 1.151c.551.522.986 1.201 1.304 2.037.318.829.477 1.838.477 3.025v.904h-10.406v-1.91h7.909c0-.67-.136-1.264-.409-1.781a3.107 3.107 0 0 0-1.15-1.236c-.489-.301-1.063-.451-1.722-.451-.716 0-1.341.176-1.875.528a3.543 3.543 0 0 0-1.227 1.364 3.938 3.938 0 0 0-.426 1.815v1.492c0 .875.153 1.619.46 2.233a3.328 3.328 0 0 0 1.304 1.406c.557.318 1.207.477 1.951.477a4.06 4.06 0 0 0 1.321-.204 2.875 2.875 0 0 0 1.032-.631c.289-.279.511-.622.664-1.031l2.412.434a4.367 4.367 0 0 1-1.039 1.867c-.495.528-1.117.94-1.867 1.236-.744.289-1.594.434-2.548.434Z"/><path stroke="#DCB750" d="M478.5 210.5h290v81h-290z"/><path fill="#232325" d="M138 210.5h339.5v81H138a7.5 7.5 0 0 1-7.5-7.5v-66a7.5 7.5 0 0 1 7.5-7.5Z"/><path fill="#F4F4F5" d="M244.551 242.545V260h-2.633v-17.455h2.633Zm6.179 9.682V260h-2.548v-13.091h2.446v2.131h.162a3.747 3.747 0 0 1 1.415-1.671c.647-.42 1.463-.63 2.446-.63.892 0 1.673.187 2.343.562.671.369 1.191.921 1.56 1.654.369.732.554 1.639.554 2.718V260h-2.548v-8.02c0-.949-.247-1.69-.742-2.224-.494-.54-1.173-.81-2.037-.81-.591 0-1.116.128-1.576.384-.455.255-.816.63-1.083 1.125-.261.488-.392 1.079-.392 1.772Zm11.796 12.682v-18h2.488v2.122h.213c.148-.272.361-.588.639-.946.279-.358.665-.67 1.16-.937.494-.273 1.147-.409 1.96-.409 1.057 0 2 .267 2.829.801.83.534 1.48 1.304 1.952 2.309.477 1.006.716 2.216.716 3.631 0 1.415-.236 2.628-.707 3.639-.472 1.006-1.12 1.782-1.944 2.327-.823.54-1.764.81-2.821.81-.795 0-1.446-.134-1.951-.401-.5-.267-.892-.579-1.176-.937a7.11 7.11 0 0 1-.657-.955h-.153v6.946h-2.548Zm2.497-11.454c0 .92.133 1.727.4 2.42.267.693.654 1.236 1.159 1.628.506.386 1.125.579 1.858.579.762 0 1.398-.201 1.909-.605.512-.409.898-.963 1.16-1.662.267-.699.4-1.485.4-2.36 0-.864-.131-1.64-.392-2.327-.256-.688-.642-1.23-1.159-1.628-.511-.398-1.151-.597-1.918-.597-.738 0-1.363.191-1.875.571-.505.381-.889.912-1.15 1.594-.262.682-.392 1.477-.392 2.387Zm20.608 1.116v-7.662h2.557V260h-2.506v-2.267h-.137c-.301.699-.784 1.281-1.448 1.747-.659.46-1.481.69-2.463.69-.841 0-1.586-.184-2.233-.554-.642-.375-1.148-.928-1.517-1.661-.364-.733-.546-1.64-.546-2.719v-8.327h2.548v8.02c0 .892.248 1.602.742 2.131.494.528 1.136.792 1.926.792.477 0 .952-.119 1.423-.358a2.991 2.991 0 0 0 1.185-1.082c.318-.483.474-1.097.469-1.841Zm12.091-7.662v2.046h-7.15v-2.046h7.15Zm-5.233-3.136h2.549v12.383c0 .495.074.867.221 1.117.148.244.338.412.571.503.239.085.497.127.776.127.204 0 .383-.014.537-.042l.358-.068.46 2.105a4.3 4.3 0 0 1-.631.17 4.9 4.9 0 0 1-1.022.102 4.473 4.473 0 0 1-1.875-.358 3.214 3.214 0 0 1-1.407-1.159c-.358-.522-.537-1.179-.537-1.968v-12.912Zm19.304 16.483c-1.056 0-2-.27-2.829-.81-.824-.545-1.472-1.321-1.943-2.327-.466-1.011-.699-2.224-.699-3.639 0-1.415.236-2.625.707-3.631.477-1.005 1.131-1.775 1.96-2.309.83-.534 1.77-.801 2.821-.801.813 0 1.466.136 1.961.409.5.267.886.579 1.159.937.278.358.494.674.647.946h.154v-6.486h2.548V260h-2.489v-2.037h-.213a6.788 6.788 0 0 1-.664.955c-.284.358-.676.67-1.176.937-.5.267-1.148.401-1.944.401Zm.563-2.174c.733 0 1.352-.193 1.858-.579.511-.392.898-.935 1.159-1.628.267-.693.4-1.5.4-2.42 0-.91-.13-1.705-.392-2.387-.261-.682-.644-1.213-1.15-1.594-.506-.38-1.131-.571-1.875-.571-.767 0-1.406.199-1.918.597-.511.398-.898.94-1.159 1.628-.256.687-.383 1.463-.383 2.327 0 .875.13 1.661.392 2.36.261.699.647 1.253 1.159 1.662.517.404 1.153.605 1.909.605Zm15.202 2.182c-1.29 0-2.4-.275-3.332-.826-.926-.557-1.642-1.339-2.148-2.344-.5-1.012-.75-2.196-.75-3.554 0-1.341.25-2.523.75-3.546.506-1.022 1.21-1.821 2.114-2.395.909-.573 1.971-.86 3.187-.86.739 0 1.455.122 2.148.366a5.193 5.193 0 0 1 1.866 1.151c.552.522.986 1.201 1.304 2.037.319.829.478 1.838.478 3.025v.904h-10.407v-1.91h7.91c0-.67-.137-1.264-.41-1.781a3.1 3.1 0 0 0-1.15-1.236c-.489-.301-1.063-.451-1.722-.451-.716 0-1.341.176-1.875.528a3.551 3.551 0 0 0-1.227 1.364 3.938 3.938 0 0 0-.426 1.815v1.492c0 .875.153 1.619.46 2.233.313.613.747 1.082 1.304 1.406.557.318 1.207.477 1.952.477.483 0 .923-.068 1.321-.204a2.871 2.871 0 0 0 1.031-.631 2.75 2.75 0 0 0 .665-1.031l2.412.434a4.369 4.369 0 0 1-1.04 1.867c-.494.528-1.116.94-1.866 1.236-.745.289-1.594.434-2.549.434Zm10.992-17.719V260h-2.548v-17.455h2.548Zm7.238 17.745c-.829 0-1.579-.154-2.25-.46a3.796 3.796 0 0 1-1.593-1.356c-.387-.59-.58-1.315-.58-2.173 0-.739.142-1.346.426-1.824a3.142 3.142 0 0 1 1.151-1.133 5.982 5.982 0 0 1 1.619-.631c.597-.142 1.205-.25 1.824-.324l1.909-.221c.489-.063.844-.162 1.065-.299.222-.136.333-.358.333-.664v-.06c0-.744-.21-1.321-.631-1.73-.415-.409-1.034-.614-1.858-.614-.858 0-1.534.19-2.028.571-.489.375-.827.793-1.014 1.253l-2.395-.545c.284-.796.698-1.438 1.244-1.927a5.041 5.041 0 0 1 1.901-1.073 7.389 7.389 0 0 1 2.258-.341c.523 0 1.077.062 1.662.187a4.85 4.85 0 0 1 1.653.665c.517.324.941.787 1.27 1.389.33.597.495 1.372.495 2.327V260h-2.489v-1.79h-.102c-.165.33-.412.654-.742.972-.329.318-.753.582-1.27.792-.517.211-1.136.316-1.858.316Zm.554-2.046c.705 0 1.307-.139 1.807-.417.506-.279.889-.642 1.151-1.091.267-.455.4-.941.4-1.458v-1.687c-.091.091-.267.176-.528.256a8.478 8.478 0 0 1-.878.196c-.33.051-.651.099-.963.145-.313.039-.574.073-.784.102a6.274 6.274 0 0 0-1.355.315 2.328 2.328 0 0 0-.972.639c-.238.273-.358.637-.358 1.091 0 .631.233 1.108.699 1.432.466.318 1.06.477 1.781.477Zm10.443 6.665a5.28 5.28 0 0 1-1.04-.094 3.26 3.26 0 0 1-.699-.187l.614-2.088c.466.125.88.179 1.244.162.364-.017.685-.154.963-.409.284-.256.534-.674.75-1.253l.316-.87-4.79-13.261h2.727l3.315 10.159h.137l3.315-10.159h2.736l-5.395 14.838c-.25.682-.568 1.259-.955 1.73a3.688 3.688 0 0 1-1.38 1.074c-.534.239-1.154.358-1.858.358Z"/><path stroke="#6D6D74" d="M138 210.5h339.5v81H138a7.5 7.5 0 0 1-7.5-7.5v-66a7.5 7.5 0 0 1 7.5-7.5Z"/><g filter="url(#a)" opacity=".9"><circle cx="131.5" cy="97.5" r="27.5" fill="#D1FAE5" fill-opacity=".35"/></g><circle cx="130.5" cy="97.5" r="27.5" fill="#D1FAE5" fill-opacity=".1"/><circle cx="130.5" cy="97.5" r="15" fill="#CEF3E4" stroke="#6EE7B7" stroke-width="5"/><path stroke="#D4D4D8" stroke-dasharray="9 9" stroke-linecap="round" stroke-width="4" d="M130.5 125v125.5"/><g filter="url(#b)" opacity=".9"><circle cx="1078.5" cy="97.5" r="27.5" fill="#D1FAE5" fill-opacity=".35"/></g><circle cx="1077.5" cy="97.5" r="27.5" fill="#D1FAE5" fill-opacity=".1"/><circle cx="1077.5" cy="97.5" r="15" fill="#CEF3E4" stroke="#6EE7B7" stroke-width="5"/><path stroke="#D4D4D8" stroke-dasharray="9 9" stroke-linecap="round" stroke-width="4" d="M1077.5 125v125.5"/><path stroke="#F4F4F5" stroke-linecap="round" stroke-width="4" d="M130 345v24"/><path fill="#F4F4F5" d="M130 355a2 2 0 1 0 0 4v-4Zm0 4h43v-4h-43v4Zm59.397 9v-21.818h13.53v2.834h-10.238v6.647h9.268v2.824h-9.268V368h-3.292Zm17.322 0v-16.364h3.186V368h-3.186Zm1.609-18.888c-.554 0-1.03-.185-1.427-.554-.391-.377-.586-.824-.586-1.343 0-.525.195-.973.586-1.342a2 2 0 0 1 1.427-.565c.554 0 1.026.188 1.417.565.398.369.597.817.597 1.342 0 .519-.199.966-.597 1.343a1.99 1.99 0 0 1-1.417.554ZM214.19 368v-16.364h3.079v2.6h.17a3.962 3.962 0 0 1 1.577-2.078c.76-.511 1.619-.767 2.578-.767.199 0 .434.007.703.022.277.014.494.032.65.053v3.047a5.498 5.498 0 0 0-.682-.117 6.458 6.458 0 0 0-.98-.075c-.753 0-1.424.16-2.013.479a3.564 3.564 0 0 0-1.385 1.311c-.341.554-.511 1.186-.511 1.896V368h-3.186Zm23.776-12.369-2.887.512a3.437 3.437 0 0 0-.575-1.055c-.256-.334-.604-.607-1.044-.82-.441-.213-.991-.32-1.652-.32-.902 0-1.655.203-2.258.607-.604.398-.906.913-.906 1.545 0 .547.203.987.607 1.321.405.334 1.059.607 1.961.82l2.599.597c1.506.348 2.628.884 3.367 1.609.738.724 1.108 1.665 1.108 2.823 0 .98-.285 1.854-.853 2.621-.561.76-1.346 1.356-2.354 1.789-1.002.434-2.163.65-3.484.65-1.832 0-3.327-.39-4.485-1.172-1.158-.788-1.868-1.907-2.131-3.355l3.079-.469c.192.802.586 1.41 1.183 1.822.596.404 1.374.607 2.333.607 1.044 0 1.878-.217 2.503-.65.625-.44.938-.977.938-1.609 0-.511-.192-.941-.575-1.289-.377-.348-.956-.611-1.737-.788l-2.77-.607c-1.527-.348-2.656-.902-3.388-1.662-.724-.76-1.086-1.723-1.086-2.887 0-.966.27-1.811.809-2.536.54-.724 1.286-1.289 2.238-1.694.951-.412 2.042-.618 3.27-.618 1.769 0 3.161.384 4.176 1.151 1.016.76 1.687 1.779 2.014 3.057Zm11.46-3.995v2.557h-8.938v-2.557h8.938Zm-6.541-3.92h3.185v15.479c0 .618.093 1.083.277 1.396.185.305.423.515.714.628.299.107.622.16.97.16.255 0 .479-.017.671-.053l.447-.085.576 2.631a5.379 5.379 0 0 1-.789.213 6.239 6.239 0 0 1-1.278.128 5.622 5.622 0 0 1-2.344-.447 4.033 4.033 0 0 1-1.758-1.449c-.447-.654-.671-1.474-.671-2.461v-16.14Zm21.552-1.534V368h-3.292v-21.818h3.292Zm7.724 12.102V368h-3.186v-16.364h3.058v2.664h.202a4.674 4.674 0 0 1 1.769-2.088c.809-.526 1.829-.789 3.057-.789 1.115 0 2.092.235 2.93.703.838.462 1.488 1.151 1.95 2.067.461.916.692 2.049.692 3.399V368h-3.185v-10.025c0-1.186-.309-2.113-.927-2.78-.618-.675-1.467-1.012-2.546-1.012-.739 0-1.396.159-1.971.479-.568.32-1.019.788-1.353 1.406-.327.611-.49 1.35-.49 2.216Zm14.744 15.852v-22.5h3.111v2.653h.266a8.9 8.9 0 0 1 .799-1.182c.348-.448.831-.839 1.449-1.172.618-.341 1.435-.512 2.45-.512 1.321 0 2.5.334 3.537 1.002 1.037.667 1.85 1.63 2.44 2.887.596 1.257.895 2.77.895 4.538 0 1.769-.295 3.285-.884 4.549-.59 1.257-1.4 2.227-2.429 2.909-1.03.674-2.206 1.012-3.527 1.012-.994 0-1.807-.167-2.439-.501-.625-.334-1.115-.725-1.471-1.172a8.87 8.87 0 0 1-.82-1.193h-.192v8.682h-3.185Zm3.121-14.318c0 1.151.167 2.159.501 3.026.334.866.817 1.544 1.449 2.035.632.483 1.406.724 2.322.724.952 0 1.748-.252 2.387-.756.639-.512 1.122-1.204 1.449-2.078.334-.873.5-1.857.5-2.951 0-1.079-.163-2.049-.49-2.908-.319-.86-.802-1.538-1.449-2.035-.639-.497-1.438-.746-2.397-.746-.923 0-1.704.238-2.343.714-.632.476-1.112 1.14-1.438 1.992-.327.852-.491 1.847-.491 2.983Zm25.76 1.396v-9.578h3.196V368h-3.132v-2.834h-.17c-.377.874-.98 1.602-1.811 2.184-.824.575-1.85.863-3.079.863-1.051 0-1.982-.231-2.791-.692-.803-.469-1.435-1.162-1.897-2.078-.454-.916-.681-2.049-.681-3.398v-10.409h3.185v10.025c0 1.115.309 2.003.927 2.664.618.66 1.42.99 2.408.99.596 0 1.189-.149 1.779-.447a3.74 3.74 0 0 0 1.48-1.353c.398-.604.594-1.371.586-2.301Zm15.115-9.578v2.557h-8.938v-2.557h8.938Zm-6.541-3.92h3.185v15.479c0 .618.092 1.083.277 1.396.185.305.423.515.714.628.298.107.621.16.969.16.256 0 .48-.017.671-.053l.448-.085.575 2.631a5.324 5.324 0 0 1-.788.213 6.241 6.241 0 0 1-1.279.128 5.615 5.615 0 0 1-2.343-.447 4.022 4.022 0 0 1-1.758-1.449c-.448-.654-.671-1.474-.671-2.461v-16.14ZM349.683 368h-7.063v-21.818h7.287c2.137 0 3.973.437 5.507 1.31 1.535.867 2.71 2.113 3.527 3.74.824 1.619 1.235 3.561 1.235 5.827 0 2.273-.415 4.226-1.246 5.859-.824 1.634-2.017 2.891-3.58 3.772-1.562.873-3.451 1.31-5.667 1.31Zm-3.771-2.876h3.59c1.662 0 3.043-.313 4.144-.938 1.101-.632 1.925-1.545 2.472-2.738.546-1.2.82-2.663.82-4.389 0-1.712-.274-3.164-.82-4.357-.54-1.193-1.346-2.099-2.419-2.717-1.072-.618-2.404-.927-3.995-.927h-3.792v16.066Zm25.155 3.206c-1.612 0-3.001-.344-4.166-1.033-1.157-.696-2.052-1.673-2.684-2.93-.625-1.264-.938-2.745-.938-4.442 0-1.676.313-3.154.938-4.432.632-1.279 1.513-2.276 2.642-2.994 1.136-.717 2.464-1.076 3.984-1.076a8.03 8.03 0 0 1 2.685.458 6.51 6.51 0 0 1 2.333 1.439c.689.653 1.232 1.502 1.63 2.546.398 1.037.597 2.297.597 3.782v1.129H365.08v-2.386h9.886c0-.838-.17-1.581-.511-2.227a3.88 3.88 0 0 0-1.438-1.545c-.611-.376-1.329-.564-2.152-.564-.895 0-1.677.22-2.344.66a4.428 4.428 0 0 0-1.534 1.705 4.92 4.92 0 0 0-.533 2.269v1.864c0 1.094.192 2.024.575 2.791.391.768.934 1.353 1.63 1.758.696.398 1.51.597 2.44.597.604 0 1.154-.085 1.651-.256.497-.177.927-.44 1.289-.788.362-.348.639-.778.831-1.289l3.015.543a5.45 5.45 0 0 1-1.3 2.333c-.617.661-1.395 1.176-2.333 1.545-.93.362-1.992.543-3.185.543Zm13.74-22.148V368h-3.185v-21.818h3.185Zm9.048 22.18c-1.037 0-1.975-.192-2.813-.575a4.738 4.738 0 0 1-1.992-1.694c-.483-.739-.725-1.644-.725-2.717 0-.923.178-1.683.533-2.279a3.932 3.932 0 0 1 1.438-1.417 7.54 7.54 0 0 1 2.024-.789 20.192 20.192 0 0 1 2.28-.404l2.387-.277c.61-.079 1.054-.203 1.331-.373.277-.171.416-.448.416-.831v-.075c0-.93-.263-1.651-.789-2.163-.518-.511-1.292-.767-2.322-.767-1.072 0-1.918.238-2.535.714-.611.469-1.034.991-1.268 1.566l-2.994-.682c.355-.994.874-1.796 1.556-2.407a6.298 6.298 0 0 1 2.375-1.343 9.278 9.278 0 0 1 2.823-.426c.654 0 1.346.078 2.078.235a6.087 6.087 0 0 1 2.067.831c.646.404 1.175.983 1.587 1.736.412.746.618 1.715.618 2.909V368h-3.111v-2.237h-.128c-.206.412-.515.817-.927 1.214-.412.398-.941.728-1.587.991s-1.42.394-2.322.394Zm.692-2.557c.881 0 1.634-.174 2.259-.522.632-.348 1.111-.802 1.438-1.363.334-.568.5-1.176.5-1.822v-2.109c-.113.113-.333.22-.66.319-.32.093-.685.174-1.097.245-.412.064-.814.125-1.204.181-.391.05-.717.093-.98.128a7.924 7.924 0 0 0-1.694.394c-.504.185-.909.451-1.215.799-.298.341-.447.796-.447 1.364 0 .788.291 1.385.873 1.79.583.398 1.325.596 2.227.596Zm13.053 8.331a6.66 6.66 0 0 1-1.3-.117c-.39-.071-.681-.149-.873-.234l.767-2.61c.582.156 1.101.223 1.555.202a1.863 1.863 0 0 0 1.204-.511c.355-.32.668-.842.938-1.566l.394-1.087-5.987-16.577h3.409l4.144 12.699h.17l4.144-12.699h3.42l-6.743 18.548c-.313.852-.711 1.573-1.194 2.163a4.637 4.637 0 0 1-1.725 1.342c-.668.298-1.442.447-2.323.447Z"/><path stroke="#F4F4F5" stroke-linecap="round" stroke-width="4" d="M478 369v-24"/><path fill="#F4F4F5" d="M478 359a2 2 0 1 0 0-4v4Zm0-4h-43v4h43v-4Z"/><path stroke="#F4F4F5" stroke-linecap="round" stroke-width="4" d="M130 435v24"/><path fill="#F4F4F5" d="M130 445a2 2 0 1 0 0 4v-4Zm0 4h285.5v-4H130v4Zm305.189-12.818V458h-3.292v-21.818h3.292Zm7.724 12.102V458h-3.186v-16.364h3.058v2.664h.202a4.674 4.674 0 0 1 1.769-2.088c.809-.526 1.829-.789 3.057-.789 1.115 0 2.092.235 2.93.703.838.462 1.488 1.151 1.949 2.067.462.916.693 2.049.693 3.399V458H450.2v-10.025c0-1.186-.309-2.113-.927-2.78-.618-.675-1.467-1.012-2.546-1.012-.739 0-1.396.159-1.971.479-.568.32-1.019.788-1.353 1.406-.327.611-.49 1.35-.49 2.216Zm22.382-6.648v2.557h-8.938v-2.557h8.938Zm-6.541-3.92h3.186v15.479c0 .618.092 1.083.277 1.396.184.305.422.515.713.628.299.107.622.16.97.16.256 0 .479-.017.671-.053l.447-.085.576 2.631a5.379 5.379 0 0 1-.789.213 6.239 6.239 0 0 1-1.278.128 5.622 5.622 0 0 1-2.344-.447 4.033 4.033 0 0 1-1.758-1.449c-.447-.654-.671-1.474-.671-2.461v-16.14Zm16.942 20.614c-1.612 0-3.001-.344-4.166-1.033-1.157-.696-2.052-1.673-2.684-2.93-.625-1.264-.938-2.745-.938-4.442 0-1.676.313-3.154.938-4.432.632-1.279 1.512-2.276 2.642-2.994 1.136-.717 2.464-1.076 3.984-1.076.923 0 1.818.153 2.685.458a6.51 6.51 0 0 1 2.333 1.439c.689.653 1.232 1.502 1.63 2.546.398 1.037.596 2.297.596 3.782v1.129h-13.007v-2.386h9.886c0-.838-.17-1.581-.511-2.227a3.875 3.875 0 0 0-1.439-1.545c-.61-.376-1.328-.564-2.152-.564-.894 0-1.676.22-2.343.66a4.428 4.428 0 0 0-1.534 1.705 4.908 4.908 0 0 0-.533 2.269v1.864c0 1.094.192 2.024.575 2.791.391.768.934 1.353 1.63 1.758.696.398 1.509.597 2.44.597.603 0 1.154-.085 1.651-.256.497-.177.927-.44 1.289-.788.362-.348.639-.778.831-1.289l3.015.543a5.45 5.45 0 0 1-1.3 2.333c-.618.661-1.395 1.176-2.333 1.545-.93.362-1.992.543-3.185.543Zm10.555-.33v-16.364h3.079v2.6h.17a3.957 3.957 0 0 1 1.577-2.078c.76-.511 1.619-.767 2.578-.767.199 0 .433.007.703.022.277.014.494.032.65.053v3.047a5.498 5.498 0 0 0-.682-.117 6.468 6.468 0 0 0-.98-.075c-.753 0-1.424.16-2.014.479a3.57 3.57 0 0 0-1.385 1.311c-.34.554-.511 1.186-.511 1.896V458h-3.185Zm16.129.362c-1.037 0-1.974-.192-2.813-.575a4.738 4.738 0 0 1-1.992-1.694c-.483-.739-.724-1.644-.724-2.717 0-.923.177-1.683.533-2.279a3.924 3.924 0 0 1 1.438-1.417 7.514 7.514 0 0 1 2.024-.789 20.192 20.192 0 0 1 2.28-.404l2.386-.277c.611-.079 1.055-.203 1.332-.373.277-.171.415-.448.415-.831v-.075c0-.93-.263-1.651-.788-2.163-.519-.511-1.293-.767-2.323-.767-1.072 0-1.917.238-2.535.714-.611.469-1.033.991-1.268 1.566l-2.993-.682c.355-.994.873-1.796 1.555-2.407a6.31 6.31 0 0 1 2.376-1.343 9.278 9.278 0 0 1 2.823-.426c.653 0 1.346.078 2.077.235a6.071 6.071 0 0 1 2.067.831c.646.404 1.175.983 1.587 1.736.412.746.618 1.715.618 2.909V458h-3.111v-2.237h-.127c-.206.412-.515.817-.927 1.214-.412.398-.941.728-1.588.991-.646.263-1.42.394-2.322.394Zm.692-2.557c.881 0 1.634-.174 2.259-.522.632-.348 1.111-.802 1.438-1.363a3.537 3.537 0 0 0 .501-1.822v-2.109c-.114.113-.334.22-.661.319-.319.093-.685.174-1.097.245-.412.064-.813.125-1.204.181l-.98.128a7.938 7.938 0 0 0-1.694.394c-.504.185-.909.451-1.214.799-.299.341-.448.796-.448 1.364 0 .788.291 1.385.874 1.79.582.398 1.324.596 2.226.596Zm18.519 2.525c-1.584 0-2.948-.358-4.091-1.076-1.137-.724-2.01-1.722-2.621-2.993-.611-1.272-.916-2.728-.916-4.368 0-1.662.312-3.129.937-4.4.625-1.279 1.506-2.276 2.642-2.994 1.137-.717 2.476-1.076 4.017-1.076 1.243 0 2.351.231 3.324.693.973.454 1.757 1.094 2.354 1.917.604.824.962 1.787 1.076 2.887h-3.1c-.171-.767-.561-1.427-1.172-1.981-.604-.554-1.413-.831-2.429-.831-.888 0-1.665.234-2.333.703-.661.462-1.175 1.122-1.545 1.982-.369.852-.554 1.86-.554 3.025 0 1.193.181 2.223.544 3.09.362.866.873 1.537 1.534 2.013.667.476 1.452.714 2.354.714.604 0 1.151-.11 1.641-.33a3.36 3.36 0 0 0 1.246-.97c.341-.419.579-.923.714-1.513h3.1c-.114 1.059-.458 2.003-1.033 2.834-.576.831-1.346 1.485-2.312 1.96-.959.476-2.085.714-3.377.714Zm17.767-16.694v2.557h-8.938v-2.557h8.938Zm-6.541-3.92h3.185v15.479c0 .618.092 1.083.277 1.396.185.305.423.515.714.628.298.107.621.16.969.16.256 0 .48-.017.672-.053l.447-.085.575 2.631a5.324 5.324 0 0 1-.788.213 6.241 6.241 0 0 1-1.279.128 5.615 5.615 0 0 1-2.343-.447 4.022 4.022 0 0 1-1.758-1.449c-.448-.654-.671-1.474-.671-2.461v-16.14ZM542.882 458v-16.364h3.185V458h-3.185Zm1.608-18.888c-.554 0-1.03-.185-1.427-.554-.391-.377-.586-.824-.586-1.343 0-.525.195-.973.586-1.342a2 2 0 0 1 1.427-.565c.554 0 1.027.188 1.417.565.398.369.597.817.597 1.342 0 .519-.199.966-.597 1.343-.39.369-.863.554-1.417.554Zm12.755 19.218c-1.534 0-2.873-.351-4.016-1.054-1.144-.704-2.032-1.687-2.664-2.951-.632-1.265-.948-2.742-.948-4.432 0-1.698.316-3.182.948-4.453.632-1.272 1.52-2.259 2.664-2.962 1.143-.703 2.482-1.055 4.016-1.055 1.534 0 2.873.352 4.016 1.055 1.144.703 2.032 1.69 2.664 2.962.632 1.271.948 2.755.948 4.453 0 1.69-.316 3.167-.948 4.432-.632 1.264-1.52 2.247-2.664 2.951-1.143.703-2.482 1.054-4.016 1.054Zm.011-2.674c.994 0 1.818-.263 2.471-.788.654-.526 1.137-1.225 1.449-2.099.32-.873.48-1.836.48-2.887 0-1.044-.16-2.003-.48-2.876-.312-.881-.795-1.588-1.449-2.12-.653-.533-1.477-.799-2.471-.799-1.002 0-1.833.266-2.493.799-.654.532-1.14 1.239-1.46 2.12-.312.873-.468 1.832-.468 2.876 0 1.051.156 2.014.468 2.887.32.874.806 1.573 1.46 2.099.66.525 1.491.788 2.493.788Zm14.358-7.372V458h-3.186v-16.364h3.058v2.664h.202a4.674 4.674 0 0 1 1.769-2.088c.81-.526 1.829-.789 3.057-.789 1.115 0 2.092.235 2.93.703.838.462 1.488 1.151 1.95 2.067.461.916.692 2.049.692 3.399V458h-3.185v-10.025c0-1.186-.309-2.113-.927-2.78-.618-.675-1.467-1.012-2.546-1.012-.739 0-1.396.159-1.971.479-.568.32-1.019.788-1.353 1.406-.327.611-.49 1.35-.49 2.216Zm30.322-6.648v2.557h-8.938v-2.557h8.938Zm-6.541-3.92h3.185v15.479c0 .618.093 1.083.277 1.396.185.305.423.515.714.628.298.107.621.16.969.16.256 0 .48-.017.672-.053l.447-.085.575 2.631a5.324 5.324 0 0 1-.788.213 6.239 6.239 0 0 1-1.278.128 5.62 5.62 0 0 1-2.344-.447 4.022 4.022 0 0 1-1.758-1.449c-.447-.654-.671-1.474-.671-2.461v-16.14Zm16.782 20.614c-1.534 0-2.873-.351-4.017-1.054-1.143-.704-2.031-1.687-2.663-2.951-.632-1.265-.948-2.742-.948-4.432 0-1.698.316-3.182.948-4.453.632-1.272 1.52-2.259 2.663-2.962 1.144-.703 2.483-1.055 4.017-1.055 1.534 0 2.873.352 4.016 1.055 1.143.703 2.031 1.69 2.663 2.962.632 1.271.949 2.755.949 4.453 0 1.69-.317 3.167-.949 4.432-.632 1.264-1.52 2.247-2.663 2.951-1.143.703-2.482 1.054-4.016 1.054Zm.01-2.674c.995 0 1.819-.263 2.472-.788.653-.526 1.136-1.225 1.449-2.099.319-.873.479-1.836.479-2.887 0-1.044-.16-2.003-.479-2.876-.313-.881-.796-1.588-1.449-2.12-.653-.533-1.477-.799-2.472-.799-1.001 0-1.832.266-2.493.799-.653.532-1.139 1.239-1.459 2.12-.313.873-.469 1.832-.469 2.876 0 1.051.156 2.014.469 2.887.32.874.806 1.573 1.459 2.099.661.525 1.492.788 2.493.788Zm36.978-19.474V458h-3.025l-11.09-16.001h-.203V458h-3.292v-21.818h3.047l11.101 16.023h.202v-16.023h3.26Zm11.599 22.148c-1.612 0-3.001-.344-4.165-1.033-1.158-.696-2.053-1.673-2.685-2.93-.625-1.264-.937-2.745-.937-4.442 0-1.676.312-3.154.937-4.432.632-1.279 1.513-2.276 2.642-2.994 1.136-.717 2.465-1.076 3.984-1.076.924 0 1.819.153 2.685.458a6.5 6.5 0 0 1 2.333 1.439c.689.653 1.232 1.502 1.63 2.546.398 1.037.597 2.297.597 3.782v1.129h-13.008v-2.386h9.886c0-.838-.17-1.581-.511-2.227a3.873 3.873 0 0 0-1.438-1.545c-.611-.376-1.328-.564-2.152-.564-.895 0-1.676.22-2.344.66a4.436 4.436 0 0 0-1.534 1.705 4.92 4.92 0 0 0-.533 2.269v1.864c0 1.094.192 2.024.576 2.791.39.768.934 1.353 1.63 1.758.696.398 1.509.597 2.439.597.604 0 1.154-.085 1.651-.256.498-.177.927-.44 1.29-.788.362-.348.639-.778.83-1.289l3.015.543a5.448 5.448 0 0 1-1.299 2.333c-.618.661-1.396 1.176-2.333 1.545-.931.362-1.993.543-3.186.543Zm12.688-16.694 3.612 6.371 3.643-6.371h3.484l-5.103 8.182 5.146 8.182h-3.484l-3.686-6.115-3.676 6.115h-3.494l5.093-8.182-5.029-8.182h3.494Zm21.648 0v2.557h-8.938v-2.557h8.938Zm-6.541-3.92h3.185v15.479c0 .618.093 1.083.277 1.396.185.305.423.515.714.628.298.107.622.16.97.16.255 0 .479-.017.671-.053l.447-.085.575 2.631a5.324 5.324 0 0 1-.788.213 6.239 6.239 0 0 1-1.278.128 5.62 5.62 0 0 1-2.344-.447 4.027 4.027 0 0 1-1.758-1.449c-.447-.654-.671-1.474-.671-2.461v-16.14ZM706.819 458v-21.818h7.777c1.697 0 3.104.309 4.219.927 1.115.618 1.949 1.463 2.503 2.535.554 1.066.831 2.266.831 3.601 0 1.342-.28 2.55-.841 3.622-.554 1.066-1.393 1.911-2.515 2.536-1.115.618-2.517.927-4.208.927h-5.348v-2.792h5.05c1.072 0 1.942-.184 2.61-.554.668-.376 1.158-.887 1.47-1.534.313-.646.469-1.381.469-2.205 0-.824-.156-1.555-.469-2.195-.312-.639-.806-1.139-1.481-1.502-.667-.362-1.548-.543-2.642-.543h-4.133V458h-3.292Zm23.549.362c-1.037 0-1.974-.192-2.812-.575a4.738 4.738 0 0 1-1.992-1.694c-.483-.739-.725-1.644-.725-2.717 0-.923.178-1.683.533-2.279a3.924 3.924 0 0 1 1.438-1.417 7.527 7.527 0 0 1 2.024-.789 20.192 20.192 0 0 1 2.28-.404l2.386-.277c.611-.079 1.055-.203 1.332-.373.277-.171.416-.448.416-.831v-.075c0-.93-.263-1.651-.789-2.163-.518-.511-1.292-.767-2.322-.767-1.073 0-1.918.238-2.536.714-.611.469-1.033.991-1.268 1.566l-2.993-.682c.355-.994.873-1.796 1.555-2.407a6.31 6.31 0 0 1 2.376-1.343 9.278 9.278 0 0 1 2.823-.426c.654 0 1.346.078 2.078.235a6.074 6.074 0 0 1 2.066.831c.647.404 1.176.983 1.588 1.736.412.746.618 1.715.618 2.909V458h-3.111v-2.237h-.128c-.206.412-.515.817-.927 1.214-.412.398-.941.728-1.587.991-.647.263-1.421.394-2.323.394Zm.693-2.557c.88 0 1.633-.174 2.258-.522.632-.348 1.112-.802 1.438-1.363a3.537 3.537 0 0 0 .501-1.822v-2.109c-.113.113-.334.22-.66.319-.32.093-.686.174-1.098.245-.412.064-.813.125-1.203.181-.391.05-.718.093-.981.128a7.928 7.928 0 0 0-1.693.394c-.505.185-.91.451-1.215.799-.298.341-.447.796-.447 1.364 0 .788.291 1.385.873 1.79.583.398 1.325.596 2.227.596ZM742.686 458v-16.364h3.186V458h-3.186Zm1.609-18.888c-.554 0-1.03-.185-1.428-.554-.39-.377-.586-.824-.586-1.343 0-.525.196-.973.586-1.342a2.004 2.004 0 0 1 1.428-.565c.554 0 1.026.188 1.417.565.398.369.596.817.596 1.342 0 .519-.198.966-.596 1.343a1.99 1.99 0 0 1-1.417.554Zm9.047 9.172V458h-3.185v-16.364h3.057v2.664h.203a4.671 4.671 0 0 1 1.768-2.088c.81-.526 1.829-.789 3.058-.789 1.115 0 2.092.235 2.93.703.838.462 1.488 1.151 1.949 2.067.462.916.693 2.049.693 3.399V458h-3.186v-10.025c0-1.186-.309-2.113-.927-2.78-.617-.675-1.466-1.012-2.546-1.012-.738 0-1.395.159-1.971.479-.568.32-1.019.788-1.353 1.406-.326.611-.49 1.35-.49 2.216Zm22.383-6.648v2.557h-8.938v-2.557h8.938Zm-6.541-3.92h3.185v15.479c0 .618.093 1.083.277 1.396.185.305.423.515.714.628.298.107.622.16.97.16.255 0 .479-.017.671-.053l.447-.085.575 2.631a5.324 5.324 0 0 1-.788.213 6.239 6.239 0 0 1-1.278.128 5.62 5.62 0 0 1-2.344-.447 4.027 4.027 0 0 1-1.758-1.449c-.447-.654-.671-1.474-.671-2.461v-16.14Z"/><path stroke="#F4F4F5" stroke-linecap="round" stroke-width="4" d="M1077 459v-24"/><path fill="#F4F4F5" d="M1077 449c1.1 0 2-.895 2-2s-.9-2-2-2v4Zm0-4H791.5v4H1077v-4Z"/><path fill="#D4D4D8" d="M7.551 7.545V25H4.918V7.545H7.55Zm6.18 9.682V25h-2.55V11.91h2.447v2.13h.162a3.742 3.742 0 0 1 1.415-1.67c.647-.421 1.463-.631 2.446-.631.892 0 1.673.187 2.343.562.67.37 1.19.92 1.56 1.653.37.733.554 1.64.554 2.72V25H19.56v-8.02c0-.949-.247-1.69-.742-2.224-.494-.54-1.173-.81-2.037-.81-.59 0-1.116.128-1.576.383a2.76 2.76 0 0 0-1.083 1.125c-.261.49-.392 1.08-.392 1.773Zm17.905-5.318v2.045h-7.15V11.91h7.15Zm-5.233-3.136h2.549v12.383c0 .495.074.867.221 1.117.148.244.338.412.571.503.239.085.497.127.776.127.204 0 .383-.014.537-.042l.358-.068.46 2.105a4.284 4.284 0 0 1-.63.17 4.992 4.992 0 0 1-1.023.102 4.487 4.487 0 0 1-1.875-.358 3.217 3.217 0 0 1-1.407-1.159c-.358-.522-.537-1.179-.537-1.968V8.773Zm13.554 16.491c-1.29 0-2.4-.275-3.333-.826-.926-.557-1.642-1.339-2.147-2.344-.5-1.012-.75-2.196-.75-3.554 0-1.341.25-2.523.75-3.546.505-1.022 1.21-1.82 2.113-2.395.91-.573 1.972-.86 3.188-.86a6.42 6.42 0 0 1 2.147.366 5.202 5.202 0 0 1 1.867 1.15c.551.523.986 1.202 1.304 2.038.318.83.477 1.838.477 3.025v.904H35.167v-1.91h7.909c0-.67-.136-1.264-.41-1.78a3.092 3.092 0 0 0-1.15-1.236c-.488-.302-1.062-.452-1.721-.452-.716 0-1.341.176-1.875.528a3.545 3.545 0 0 0-1.227 1.364 3.936 3.936 0 0 0-.427 1.815v1.492c0 .875.154 1.619.46 2.233a3.328 3.328 0 0 0 1.305 1.406c.556.318 1.207.477 1.951.477a4.06 4.06 0 0 0 1.321-.204 2.853 2.853 0 0 0 1.032-.631 2.74 2.74 0 0 0 .664-1.031l2.412.434a4.368 4.368 0 0 1-1.04 1.867c-.494.528-1.116.94-1.866 1.235-.744.29-1.594.435-2.548.435ZM48.4 25V11.91h2.463v2.079H51a3.164 3.164 0 0 1 1.261-1.662 3.61 3.61 0 0 1 2.063-.614 10.845 10.845 0 0 1 1.082.06v2.437a4.57 4.57 0 0 0-.545-.094 5.201 5.201 0 0 0-.784-.06c-.603 0-1.14.129-1.611.384a2.85 2.85 0 0 0-1.517 2.566V25H48.4Zm12.903.29c-.83 0-1.58-.154-2.25-.46a3.79 3.79 0 0 1-1.594-1.356c-.386-.59-.58-1.315-.58-2.173 0-.738.143-1.346.427-1.824a3.144 3.144 0 0 1 1.15-1.133 6.004 6.004 0 0 1 1.62-.63c.596-.143 1.204-.25 1.824-.325l1.909-.221c.488-.063.843-.162 1.065-.299.222-.136.332-.358.332-.665v-.06c0-.743-.21-1.32-.63-1.73-.415-.408-1.034-.613-1.858-.613-.858 0-1.534.19-2.029.571-.488.375-.826.793-1.014 1.253l-2.395-.546c.284-.795.7-1.437 1.245-1.926a5.047 5.047 0 0 1 1.9-1.074 7.422 7.422 0 0 1 2.259-.34c.522 0 1.076.062 1.662.187.59.12 1.142.341 1.653.665.517.324.94.787 1.27 1.39.33.596.494 1.371.494 2.326V25h-2.488v-1.79h-.103c-.165.33-.412.654-.741.972-.33.318-.753.582-1.27.792-.517.21-1.136.316-1.858.316Zm.554-2.046c.705 0 1.307-.139 1.807-.417.506-.279.889-.642 1.15-1.091.267-.455.4-.94.4-1.458v-1.687c-.09.09-.266.176-.528.256a8.455 8.455 0 0 1-.877.196c-.33.05-.65.099-.963.145-.313.04-.574.073-.785.102a6.32 6.32 0 0 0-1.355.315c-.403.148-.727.36-.971.64-.239.272-.358.636-.358 1.09 0 .63.233 1.108.699 1.432.466.318 1.06.477 1.781.477Zm14.815 2.02c-1.267 0-2.358-.287-3.273-.86-.91-.58-1.608-1.378-2.097-2.395-.488-1.018-.733-2.182-.733-3.495 0-1.33.25-2.503.75-3.52.5-1.022 1.205-1.82 2.114-2.395.909-.573 1.98-.86 3.213-.86.994 0 1.88.184 2.66.554a4.768 4.768 0 0 1 1.883 1.534c.483.659.77 1.429.86 2.31h-2.48a2.972 2.972 0 0 0-.937-1.586c-.483-.443-1.13-.665-1.943-.665-.71 0-1.333.188-1.867.563-.528.37-.94.898-1.236 1.585-.295.682-.443 1.489-.443 2.42 0 .955.145 1.779.435 2.472.29.693.699 1.23 1.227 1.61.534.382 1.162.572 1.884.572.483 0 .92-.088 1.312-.264.398-.182.73-.44.997-.776.273-.335.463-.739.571-1.21h2.48a4.819 4.819 0 0 1-.826 2.267 4.757 4.757 0 0 1-1.85 1.568c-.767.38-1.667.571-2.701.571ZM90.886 11.91v2.045h-7.15V11.91h7.15Zm-5.233-3.136h2.549v12.383c0 .495.074.867.221 1.117.148.244.338.412.571.503.239.085.498.127.776.127.204 0 .383-.014.537-.042l.358-.068.46 2.105a4.284 4.284 0 0 1-.63.17 4.992 4.992 0 0 1-1.023.102 4.487 4.487 0 0 1-1.875-.358 3.217 3.217 0 0 1-1.407-1.159c-.358-.522-.537-1.179-.537-1.968V8.773ZM93.705 25V11.91h2.549V25h-2.549Zm1.287-15.11a1.62 1.62 0 0 1-1.142-.444 1.44 1.44 0 0 1-.469-1.074c0-.42.157-.778.47-1.074a1.603 1.603 0 0 1 1.141-.451c.443 0 .821.15 1.134.451.318.296.477.654.477 1.074 0 .415-.16.773-.477 1.074a1.59 1.59 0 0 1-1.134.443Zm10.204 15.374c-1.227 0-2.298-.281-3.213-.843-.915-.563-1.625-1.35-2.13-2.361-.506-1.012-.76-2.194-.76-3.546 0-1.358.254-2.545.76-3.562.505-1.017 1.215-1.807 2.13-2.37.915-.562 1.986-.843 3.213-.843s2.298.28 3.213.843 1.625 1.353 2.131 2.37c.505 1.017.758 2.204.758 3.562 0 1.352-.253 2.534-.758 3.546-.506 1.011-1.216 1.798-2.131 2.36-.915.563-1.986.844-3.213.844Zm.009-2.139c.795 0 1.454-.21 1.977-.63.523-.421.909-.98 1.159-1.68.256-.699.383-1.468.383-2.31 0-.834-.127-1.602-.383-2.3-.25-.705-.636-1.27-1.159-1.696-.523-.427-1.182-.64-1.977-.64-.802 0-1.466.213-1.995.64-.522.426-.912.991-1.167 1.695a6.789 6.789 0 0 0-.375 2.302c0 .84.125 1.61.375 2.31.255.698.645 1.258 1.167 1.678.529.42 1.193.631 1.995.631Zm11.486-5.898V25h-2.548V11.91h2.446v2.13h.162a3.74 3.74 0 0 1 1.414-1.67c.648-.421 1.464-.631 2.447-.631.892 0 1.673.187 2.343.562.671.37 1.191.92 1.56 1.653s.554 1.64.554 2.72V25h-2.548v-8.02c0-.949-.248-1.69-.742-2.224-.494-.54-1.173-.81-2.037-.81-.591 0-1.116.128-1.577.383a2.76 2.76 0 0 0-1.082 1.125c-.261.49-.392 1.08-.392 1.773Zm885.749-9.682 4.86 14.216h.2l4.86-14.216h2.84L1008.92 25h-3.04l-6.283-17.455h2.843ZM1017.52 25V11.91h2.55V25h-2.55Zm1.28-15.11c-.44 0-.82-.149-1.14-.444-.31-.301-.47-.66-.47-1.074 0-.42.16-.778.47-1.074.32-.3.7-.451 1.14-.451.45 0 .83.15 1.14.451.32.296.48.654.48 1.074 0 .415-.16.773-.48 1.074a1.59 1.59 0 0 1-1.14.443Zm14.5 5.215-2.31.41a2.607 2.607 0 0 0-.46-.845c-.2-.267-.48-.485-.83-.656-.35-.17-.79-.255-1.32-.255-.72 0-1.33.162-1.81.485-.48.319-.72.73-.72 1.236 0 .438.16.79.48 1.057.33.267.85.486 1.57.656l2.08.477c1.2.279 2.1.708 2.69 1.287.59.58.89 1.333.89 2.259a3.46 3.46 0 0 1-.68 2.096c-.45.608-1.08 1.086-1.89 1.432-.8.347-1.73.52-2.78.52-1.47 0-2.66-.312-3.59-.937-.93-.631-1.49-1.526-1.71-2.685l2.47-.375c.15.642.47 1.128.94 1.457.48.324 1.1.486 1.87.486.84 0 1.5-.173 2-.52.5-.352.75-.78.75-1.287 0-.409-.15-.752-.46-1.03-.3-.28-.76-.49-1.39-.632l-2.21-.485c-1.22-.279-2.13-.722-2.71-1.33-.58-.608-.87-1.378-.87-2.31 0-.772.21-1.448.65-2.028.43-.58 1.02-1.031 1.79-1.355.76-.33 1.63-.494 2.61-.494 1.42 0 2.53.306 3.34.92.82.608 1.35 1.423 1.61 2.446Zm11.35 4.466v-7.662h2.56V25h-2.5v-2.267h-.14c-.3.699-.79 1.281-1.45 1.747-.66.46-1.48.69-2.46.69-.84 0-1.59-.184-2.24-.554-.64-.375-1.14-.928-1.51-1.662-.37-.732-.55-1.639-.55-2.718v-8.327h2.55v8.02c0 .892.25 1.602.74 2.13.5.53 1.14.793 1.93.793.47 0 .95-.119 1.42-.358.48-.238.87-.6 1.19-1.082.31-.483.47-1.097.46-1.841Zm9.79 5.719a5.42 5.42 0 0 1-2.25-.46 3.77 3.77 0 0 1-1.59-1.356c-.39-.59-.58-1.315-.58-2.173 0-.738.14-1.346.43-1.824.28-.477.67-.855 1.15-1.133a5.928 5.928 0 0 1 1.62-.63c.59-.143 1.2-.25 1.82-.325.79-.09 1.42-.165 1.91-.221.49-.063.84-.162 1.07-.299.22-.136.33-.358.33-.665v-.06c0-.743-.21-1.32-.63-1.73-.42-.408-1.04-.613-1.86-.613-.86 0-1.53.19-2.03.571-.49.375-.83.793-1.01 1.253l-2.4-.546c.29-.795.7-1.437 1.25-1.926a5.006 5.006 0 0 1 1.9-1.074c.71-.227 1.47-.34 2.26-.34.52 0 1.07.062 1.66.187.59.12 1.14.341 1.65.665.52.324.94.787 1.27 1.39.33.596.49 1.371.49 2.326V25h-2.48v-1.79h-.11c-.16.33-.41.654-.74.972-.33.318-.75.582-1.27.792-.51.21-1.13.316-1.86.316Zm.56-2.046c.7 0 1.31-.139 1.81-.417.5-.279.88-.642 1.15-1.091.26-.455.4-.94.4-1.458v-1.687c-.09.09-.27.176-.53.256-.26.073-.55.139-.88.196l-.96.145c-.32.04-.58.073-.79.102-.49.062-.94.167-1.35.315-.41.148-.73.36-.97.64-.24.272-.36.636-.36 1.09 0 .63.23 1.108.7 1.432.46.318 1.06.477 1.78.477Zm11.85-15.699V25h-2.55V7.545h2.55Zm18.07 12.026v-7.662h2.56V25h-2.51v-2.267h-.14c-.3.699-.78 1.281-1.44 1.747-.66.46-1.48.69-2.47.69-.84 0-1.58-.184-2.23-.554-.64-.375-1.15-.928-1.52-1.662-.36-.732-.54-1.639-.54-2.718v-8.327h2.55v8.02c0 .892.24 1.602.74 2.13.49.53 1.13.793 1.92.793.48 0 .95-.119 1.43-.358.47-.238.87-.6 1.18-1.082.32-.483.48-1.097.47-1.841Zm5.98 10.338v-18h2.49v2.122h.21c.15-.273.36-.588.64-.946s.67-.67 1.16-.937c.49-.273 1.15-.41 1.96-.41 1.06 0 2 .268 2.83.802.83.534 1.48 1.304 1.95 2.31.48 1.005.72 2.215.72 3.63s-.24 2.628-.71 3.64c-.47 1.005-1.12 1.78-1.94 2.326-.83.54-1.77.81-2.82.81-.8 0-1.45-.134-1.96-.4-.5-.268-.89-.58-1.17-.938a7.26 7.26 0 0 1-.66-.955h-.15v6.946h-2.55Zm2.5-11.454c0 .92.13 1.727.4 2.42.27.693.65 1.236 1.16 1.628.5.386 1.12.58 1.86.58.76 0 1.39-.202 1.9-.606.52-.409.9-.963 1.16-1.662.27-.699.4-1.486.4-2.36 0-.864-.13-1.64-.39-2.327-.25-.688-.64-1.23-1.16-1.628-.51-.398-1.15-.597-1.91-.597-.74 0-1.37.19-1.88.571-.51.381-.89.912-1.15 1.594-.26.682-.39 1.477-.39 2.386Zm17.21 6.8c-1.05 0-2-.27-2.83-.809-.82-.545-1.47-1.321-1.94-2.327-.46-1.011-.7-2.224-.7-3.639 0-1.415.24-2.625.71-3.63.48-1.006 1.13-1.776 1.96-2.31.83-.534 1.77-.801 2.82-.801.81 0 1.47.136 1.96.409.5.267.89.58 1.16.937.28.358.49.673.65.946h.15V7.545h2.55V25h-2.49v-2.037h-.21c-.16.278-.38.597-.67.955-.28.358-.67.67-1.17.937-.5.267-1.15.4-1.95.4Zm.57-2.173c.73 0 1.35-.193 1.85-.58.52-.391.9-.934 1.16-1.627.27-.693.4-1.5.4-2.42 0-.91-.13-1.705-.39-2.387-.26-.682-.64-1.213-1.15-1.594-.5-.38-1.13-.57-1.87-.57-.77 0-1.41.198-1.92.596-.51.398-.9.94-1.16 1.628-.26.687-.38 1.463-.38 2.326 0 .875.13 1.662.39 2.361.26.7.65 1.253 1.16 1.662.51.404 1.15.605 1.91.605Zm13.37 2.208c-.83 0-1.58-.154-2.25-.46a3.798 3.798 0 0 1-1.6-1.356c-.38-.59-.58-1.315-.58-2.173 0-.738.14-1.346.43-1.824.28-.477.67-.855 1.15-1.133a5.928 5.928 0 0 1 1.62-.63c.6-.143 1.2-.25 1.82-.325.79-.09 1.42-.165 1.91-.221.49-.063.85-.162 1.07-.299.22-.136.33-.358.33-.665v-.06c0-.743-.21-1.32-.63-1.73-.42-.408-1.04-.613-1.86-.613-.86 0-1.53.19-2.03.571-.49.375-.82.793-1.01 1.253l-2.4-.546c.29-.795.7-1.437 1.25-1.926a5.006 5.006 0 0 1 1.9-1.074c.71-.227 1.47-.34 2.26-.34.52 0 1.07.062 1.66.187.59.12 1.14.341 1.65.665.52.324.94.787 1.27 1.39.33.596.5 1.371.5 2.326V25h-2.49v-1.79h-.1c-.17.33-.42.654-.75.972-.33.318-.75.582-1.27.792-.51.21-1.13.316-1.85.316Zm.55-2.046c.7 0 1.31-.139 1.81-.417.5-.279.89-.642 1.15-1.091.26-.455.4-.94.4-1.458v-1.687c-.09.09-.27.176-.53.256-.26.073-.55.139-.88.196l-.96.145c-.31.04-.58.073-.79.102-.49.062-.94.167-1.35.315-.4.148-.73.36-.97.64-.24.272-.36.636-.36 1.09 0 .63.23 1.108.7 1.432.46.318 1.06.477 1.78.477Zm15.41-11.335v2.045h-7.15V11.91h7.15Zm-5.23-3.136h2.55v12.383c0 .495.07.867.22 1.117.15.244.34.412.57.503.24.085.5.127.77.127.21 0 .39-.014.54-.042.16-.029.27-.051.36-.068l.46 2.105c-.15.056-.36.113-.63.17-.27.063-.61.097-1.02.102-.67.012-1.3-.108-1.88-.358a3.154 3.154 0 0 1-1.4-1.159c-.36-.522-.54-1.179-.54-1.968V8.773Zm13.55 16.491c-1.29 0-2.4-.275-3.33-.826-.93-.557-1.64-1.339-2.15-2.344-.5-1.012-.75-2.196-.75-3.554 0-1.341.25-2.523.75-3.546.51-1.022 1.21-1.82 2.12-2.395.9-.573 1.97-.86 3.18-.86.74 0 1.46.122 2.15.366s1.32.628 1.87 1.15c.55.523.98 1.202 1.3 2.038.32.83.48 1.838.48 3.025v.904h-10.41v-1.91h7.91c0-.67-.14-1.264-.41-1.78a3.034 3.034 0 0 0-1.15-1.236c-.49-.302-1.06-.452-1.72-.452-.72 0-1.34.176-1.88.528-.52.347-.93.801-1.22 1.364a3.867 3.867 0 0 0-.43 1.815v1.492c0 .875.15 1.619.46 2.233a3.31 3.31 0 0 0 1.31 1.406c.55.318 1.2.477 1.95.477.48 0 .92-.068 1.32-.204.4-.142.74-.353 1.03-.631.29-.279.51-.622.66-1.031l2.42.434c-.2.71-.54 1.333-1.04 1.867-.5.528-1.12.94-1.87 1.235-.74.29-1.59.435-2.55.435Z"/><defs><filter id="a" width="185" height="185" x="39" y="5" color-interpolation-filters="sRGB" filterUnits="userSpaceOnUse"><feFlood flood-opacity="0" result="BackgroundImageFix"/><feBlend in="SourceGraphic" in2="BackgroundImageFix" result="shape"/><feGaussianBlur result="effect1_foregroundBlur_430_1626" stdDeviation="32.5"/></filter><filter id="b" width="185" height="185" x="986" y="5" color-interpolation-filters="sRGB" filterUnits="userSpaceOnUse"><feFlood flood-opacity="0" result="BackgroundImageFix"/><feBlend in="SourceGraphic" in2="BackgroundImageFix" result="shape"/><feGaussianBlur result="effect1_foregroundBlur_430_1626" stdDeviation="32.5"/></filter></defs></svg>