<svg width="748" height="542" viewBox="0 0 748 542" fill="none" xmlns="http://www.w3.org/2000/svg">
<rect y="166" width="748" height="376" rx="8" fill="#FAFAFA"/>
<path d="M725.707 344.707C726.098 344.317 726.098 343.683 725.707 343.293L719.343 336.929C718.953 336.538 718.319 336.538 717.929 336.929C717.538 337.32 717.538 337.953 717.929 338.343L723.586 344L717.929 349.657C717.538 350.047 717.538 350.681 717.929 351.071C718.319 351.462 718.953 351.462 719.343 351.071L725.707 344.707ZM22 345L26.5064 345L26.5064 343L22 343L22 345ZM35.5192 345L44.532 345L44.5321 343L35.5192 343L35.5192 345ZM53.5449 345L62.5577 345L62.5577 343L53.5449 343L53.5449 345ZM71.5705 345L80.5833 345L80.5833 343L71.5705 343L71.5705 345ZM89.5962 345L98.609 345L98.609 343L89.5962 343L89.5962 345ZM107.622 345L116.635 345L116.635 343L107.622 343L107.622 345ZM125.647 345L134.66 345L134.66 343L125.647 343L125.647 345ZM143.673 345L152.686 345L152.686 343L143.673 343L143.673 345ZM161.699 345L170.712 345L170.712 343L161.699 343L161.699 345ZM179.724 345L188.737 345L188.737 343L179.724 343L179.724 345ZM197.75 345L206.763 345L206.763 343L197.75 343L197.75 345ZM215.776 345L224.788 345L224.788 343L215.776 343L215.776 345ZM233.801 345L242.814 345L242.814 343L233.801 343L233.801 345ZM251.827 345L260.84 345L260.84 343L251.827 343L251.827 345ZM269.853 345L278.865 345L278.865 343L269.853 343L269.853 345ZM287.878 345L296.891 345L296.891 343L287.878 343L287.878 345ZM305.904 345L314.917 345L314.917 343L305.904 343L305.904 345ZM323.929 345L332.942 345L332.942 343L323.929 343L323.929 345ZM341.955 345L350.968 345L350.968 343L341.955 343L341.955 345ZM359.981 345L368.993 345L368.993 343L359.981 343L359.981 345ZM378.006 345L387.019 345L387.019 343L378.006 343L378.006 345ZM396.032 345L405.045 345L405.045 343L396.032 343L396.032 345ZM414.058 345L423.07 345L423.07 343L414.058 343L414.058 345ZM432.083 345L441.096 345L441.096 343L432.083 343L432.083 345ZM450.109 345L459.122 345L459.122 343L450.109 343L450.109 345ZM468.134 345L477.147 345L477.147 343L468.134 343L468.134 345ZM486.16 345L495.173 345L495.173 343L486.16 343L486.16 345ZM504.186 345L513.199 345L513.199 343L504.186 343L504.186 345ZM522.211 345L531.224 345L531.224 343L522.211 343L522.211 345ZM540.237 345L549.25 345L549.25 343L540.237 343L540.237 345ZM558.263 345L567.276 345L567.276 343L558.263 343L558.263 345ZM576.288 345L585.301 345L585.301 343L576.288 343L576.288 345ZM594.314 345L603.327 345L603.327 343L594.314 343L594.314 345ZM612.34 345L621.352 345L621.352 343L612.34 343L612.34 345ZM630.365 345L639.378 345L639.378 343L630.365 343L630.365 345ZM648.391 345L657.404 345L657.404 343L648.391 343L648.391 345ZM666.417 345L675.429 345L675.429 343L666.417 343L666.417 345ZM684.442 345L693.455 345L693.455 343L684.442 343L684.442 345ZM702.468 345L711.481 345L711.481 343L702.468 343L702.468 345ZM720.493 345L725 345L725 343L720.493 343L720.493 345ZM726.414 345.414C727.195 344.633 727.195 343.367 726.414 342.586L713.686 329.858C712.905 329.077 711.639 329.077 710.858 329.858C710.077 330.639 710.077 331.905 710.858 332.686L722.172 344L710.858 355.314C710.077 356.095 710.077 357.361 710.858 358.142C711.639 358.923 712.905 358.923 713.686 358.142L726.414 345.414ZM22 346L26.5064 346L26.5064 342L22 342L22 346ZM35.5192 346L44.532 346L44.5321 342L35.5192 342L35.5192 346ZM53.5449 346L62.5577 346L62.5577 342L53.5449 342L53.5449 346ZM71.5705 346L80.5833 346L80.5833 342L71.5705 342L71.5705 346ZM89.5962 346L98.609 346L98.609 342L89.5962 342L89.5962 346ZM107.622 346L116.635 346L116.635 342L107.622 342L107.622 346ZM125.647 346L134.66 346L134.66 342L125.647 342L125.647 346ZM143.673 346L152.686 346L152.686 342L143.673 342L143.673 346ZM161.699 346L170.712 346L170.712 342L161.699 342L161.699 346ZM179.724 346L188.737 346L188.737 342L179.724 342L179.724 346ZM197.75 346L206.763 346L206.763 342L197.75 342L197.75 346ZM215.776 346L224.788 346L224.788 342L215.776 342L215.776 346ZM233.801 346L242.814 346L242.814 342L233.801 342L233.801 346ZM251.827 346L260.84 346L260.84 342L251.827 342L251.827 346ZM269.853 346L278.865 346L278.865 342L269.853 342L269.853 346ZM287.878 346L296.891 346L296.891 342L287.878 342L287.878 346ZM305.904 346L314.917 346L314.917 342L305.904 342L305.904 346ZM323.929 346L332.942 346L332.942 342L323.929 342L323.929 346ZM341.955 346L350.968 346L350.968 342L341.955 342L341.955 346ZM359.981 346L368.993 346L368.993 342L359.981 342L359.981 346ZM378.006 346L387.019 346L387.019 342L378.006 342L378.006 346ZM396.032 346L405.045 346L405.045 342L396.032 342L396.032 346ZM414.058 346L423.07 346L423.07 342L414.058 342L414.058 346ZM432.083 346L441.096 346L441.096 342L432.083 342L432.083 346ZM450.109 346L459.122 346L459.122 342L450.109 342L450.109 346ZM468.134 346L477.147 346L477.147 342L468.134 342L468.134 346ZM486.16 346L495.173 346L495.173 342L486.16 342L486.16 346ZM504.186 346L513.199 346L513.199 342L504.186 342L504.186 346ZM522.211 346L531.224 346L531.224 342L522.211 342L522.211 346ZM540.237 346L549.25 346L549.25 342L540.237 342L540.237 346ZM558.263 346L567.276 346L567.276 342L558.263 342L558.263 346ZM576.288 346L585.301 346L585.301 342L576.288 342L576.288 346ZM594.314 346L603.327 346L603.327 342L594.314 342L594.314 346ZM612.34 346L621.352 346L621.352 342L612.34 342L612.34 346ZM630.365 346L639.378 346L639.378 342L630.365 342L630.365 346ZM648.391 346L657.404 346L657.404 342L648.391 342L648.391 346ZM666.417 346L675.429 346L675.429 342L666.417 342L666.417 346ZM684.442 346L693.455 346L693.455 342L684.442 342L684.442 346ZM702.468 346L711.481 346L711.481 342L702.468 342L702.468 346ZM720.493 346L725 346L725 342L720.493 342L720.493 346Z" fill="#52525B"/>
<rect x="56" y="303" width="365" height="82" rx="8" fill="#E4E4E7"/>
<path d="M163.418 353V335.545H169.81C171.048 335.545 172.074 335.75 172.886 336.159C173.699 336.562 174.307 337.111 174.71 337.804C175.114 338.491 175.315 339.267 175.315 340.131C175.315 340.858 175.182 341.472 174.915 341.972C174.648 342.466 174.29 342.864 173.841 343.165C173.398 343.46 172.909 343.676 172.375 343.812V343.983C172.955 344.011 173.52 344.199 174.071 344.545C174.628 344.886 175.088 345.372 175.452 346.003C175.815 346.634 175.997 347.401 175.997 348.304C175.997 349.196 175.787 349.997 175.366 350.707C174.952 351.412 174.31 351.972 173.44 352.386C172.571 352.795 171.46 353 170.108 353H163.418ZM166.051 350.741H169.852C171.114 350.741 172.017 350.497 172.562 350.009C173.108 349.52 173.381 348.909 173.381 348.176C173.381 347.625 173.241 347.119 172.963 346.659C172.685 346.199 172.287 345.832 171.77 345.56C171.259 345.287 170.651 345.151 169.946 345.151H166.051V350.741ZM166.051 343.097H169.58C170.17 343.097 170.702 342.983 171.173 342.756C171.651 342.528 172.028 342.21 172.307 341.801C172.591 341.386 172.733 340.898 172.733 340.335C172.733 339.614 172.48 339.009 171.974 338.52C171.469 338.031 170.693 337.787 169.648 337.787H166.051V343.097ZM181.464 335.545V353H178.916V335.545H181.464ZM190.407 353.264C189.18 353.264 188.109 352.983 187.194 352.42C186.279 351.858 185.569 351.071 185.063 350.06C184.558 349.048 184.305 347.866 184.305 346.514C184.305 345.156 184.558 343.969 185.063 342.952C185.569 341.935 186.279 341.145 187.194 340.582C188.109 340.02 189.18 339.739 190.407 339.739C191.634 339.739 192.705 340.02 193.62 340.582C194.535 341.145 195.245 341.935 195.751 342.952C196.256 343.969 196.509 345.156 196.509 346.514C196.509 347.866 196.256 349.048 195.751 350.06C195.245 351.071 194.535 351.858 193.62 352.42C192.705 352.983 191.634 353.264 190.407 353.264ZM190.415 351.125C191.211 351.125 191.87 350.915 192.393 350.494C192.915 350.074 193.302 349.514 193.552 348.815C193.808 348.116 193.935 347.347 193.935 346.506C193.935 345.67 193.808 344.903 193.552 344.205C193.302 343.5 192.915 342.935 192.393 342.509C191.87 342.082 191.211 341.869 190.415 341.869C189.614 341.869 188.95 342.082 188.421 342.509C187.898 342.935 187.509 343.5 187.254 344.205C187.004 344.903 186.879 345.67 186.879 346.506C186.879 347.347 187.004 348.116 187.254 348.815C187.509 349.514 187.898 350.074 188.421 350.494C188.95 350.915 189.614 351.125 190.415 351.125ZM204.868 353.264C203.601 353.264 202.51 352.977 201.595 352.403C200.686 351.824 199.987 351.026 199.499 350.009C199.01 348.991 198.766 347.827 198.766 346.514C198.766 345.185 199.016 344.011 199.516 342.994C200.016 341.972 200.72 341.173 201.629 340.599C202.538 340.026 203.609 339.739 204.842 339.739C205.837 339.739 206.723 339.923 207.501 340.293C208.28 340.656 208.908 341.168 209.385 341.827C209.868 342.486 210.155 343.256 210.246 344.136H207.766C207.629 343.523 207.317 342.994 206.828 342.551C206.345 342.108 205.697 341.886 204.885 341.886C204.175 341.886 203.553 342.074 203.018 342.449C202.49 342.818 202.078 343.347 201.783 344.034C201.487 344.716 201.339 345.523 201.339 346.455C201.339 347.409 201.484 348.233 201.774 348.926C202.064 349.619 202.473 350.156 203.001 350.537C203.536 350.918 204.163 351.108 204.885 351.108C205.368 351.108 205.805 351.02 206.197 350.844C206.595 350.662 206.928 350.403 207.195 350.068C207.467 349.733 207.658 349.33 207.766 348.858H210.246C210.155 349.705 209.879 350.46 209.419 351.125C208.959 351.79 208.342 352.312 207.57 352.693C206.803 353.074 205.902 353.264 204.868 353.264ZM215.315 348.56L215.298 345.449H215.741L220.957 339.909H224.008L218.059 346.216H217.658L215.315 348.56ZM212.971 353V335.545H215.519V353H212.971ZM221.238 353L216.55 346.778L218.306 344.997L224.366 353H221.238ZM226.33 353V339.909H228.879V353H226.33ZM227.617 337.889C227.174 337.889 226.793 337.741 226.475 337.446C226.163 337.145 226.006 336.787 226.006 336.372C226.006 335.952 226.163 335.594 226.475 335.298C226.793 334.997 227.174 334.847 227.617 334.847C228.06 334.847 228.438 334.997 228.751 335.298C229.069 335.594 229.228 335.952 229.228 336.372C229.228 336.787 229.069 337.145 228.751 337.446C228.438 337.741 228.06 337.889 227.617 337.889ZM234.855 345.227V353H232.307V339.909H234.753V342.04H234.915C235.216 341.347 235.688 340.79 236.33 340.369C236.977 339.949 237.793 339.739 238.776 339.739C239.668 339.739 240.449 339.926 241.119 340.301C241.79 340.67 242.31 341.222 242.679 341.955C243.048 342.687 243.233 343.594 243.233 344.673V353H240.685V344.98C240.685 344.031 240.438 343.29 239.943 342.756C239.449 342.216 238.77 341.946 237.906 341.946C237.315 341.946 236.79 342.074 236.33 342.33C235.875 342.585 235.514 342.96 235.247 343.455C234.986 343.943 234.855 344.534 234.855 345.227ZM252.139 358.182C251.099 358.182 250.205 358.045 249.455 357.773C248.71 357.5 248.102 357.139 247.631 356.69C247.159 356.241 246.807 355.75 246.574 355.216L248.764 354.312C248.918 354.562 249.122 354.827 249.378 355.105C249.639 355.389 249.991 355.631 250.435 355.83C250.884 356.028 251.46 356.128 252.165 356.128C253.131 356.128 253.929 355.892 254.56 355.42C255.19 354.955 255.506 354.21 255.506 353.188V350.614H255.344C255.19 350.892 254.969 351.202 254.679 351.543C254.395 351.884 254.003 352.179 253.503 352.429C253.003 352.679 252.352 352.804 251.551 352.804C250.517 352.804 249.585 352.562 248.756 352.08C247.932 351.591 247.278 350.872 246.795 349.923C246.318 348.969 246.08 347.795 246.08 346.403C246.08 345.011 246.315 343.818 246.787 342.824C247.264 341.83 247.918 341.068 248.747 340.54C249.577 340.006 250.517 339.739 251.568 339.739C252.381 339.739 253.037 339.875 253.537 340.148C254.037 340.415 254.426 340.727 254.705 341.085C254.989 341.443 255.207 341.759 255.361 342.031H255.548V339.909H258.045V353.29C258.045 354.415 257.784 355.338 257.261 356.06C256.739 356.781 256.031 357.315 255.139 357.662C254.253 358.009 253.253 358.182 252.139 358.182ZM252.114 350.69C252.847 350.69 253.466 350.52 253.972 350.179C254.483 349.832 254.869 349.338 255.131 348.696C255.398 348.048 255.531 347.273 255.531 346.369C255.531 345.489 255.401 344.713 255.139 344.043C254.878 343.372 254.494 342.849 253.989 342.474C253.483 342.094 252.858 341.903 252.114 341.903C251.347 341.903 250.707 342.102 250.196 342.5C249.685 342.892 249.298 343.426 249.037 344.102C248.781 344.778 248.653 345.534 248.653 346.369C248.653 347.227 248.784 347.98 249.045 348.628C249.307 349.276 249.693 349.781 250.205 350.145C250.722 350.509 251.358 350.69 252.114 350.69ZM273.925 339.909V341.955H266.775V339.909H273.925ZM268.692 336.773H271.241V349.156C271.241 349.651 271.315 350.023 271.462 350.273C271.61 350.517 271.8 350.685 272.033 350.776C272.272 350.861 272.531 350.903 272.809 350.903C273.013 350.903 273.192 350.889 273.346 350.861C273.499 350.832 273.619 350.81 273.704 350.793L274.164 352.898C274.016 352.955 273.806 353.011 273.533 353.068C273.261 353.131 272.92 353.165 272.511 353.17C271.84 353.182 271.215 353.062 270.636 352.812C270.056 352.562 269.587 352.176 269.229 351.653C268.871 351.131 268.692 350.474 268.692 349.685V336.773ZM280.554 353.29C279.724 353.29 278.974 353.136 278.304 352.83C277.634 352.517 277.102 352.065 276.71 351.474C276.324 350.884 276.131 350.159 276.131 349.301C276.131 348.562 276.273 347.955 276.557 347.477C276.841 347 277.224 346.622 277.707 346.344C278.19 346.065 278.73 345.855 279.327 345.713C279.923 345.571 280.531 345.463 281.151 345.389C281.935 345.298 282.571 345.224 283.06 345.168C283.548 345.105 283.903 345.006 284.125 344.869C284.347 344.733 284.457 344.511 284.457 344.205V344.145C284.457 343.401 284.247 342.824 283.827 342.415C283.412 342.006 282.793 341.801 281.969 341.801C281.111 341.801 280.435 341.991 279.94 342.372C279.452 342.747 279.114 343.165 278.926 343.625L276.531 343.08C276.815 342.284 277.23 341.642 277.776 341.153C278.327 340.659 278.96 340.301 279.676 340.08C280.392 339.852 281.145 339.739 281.935 339.739C282.457 339.739 283.011 339.801 283.597 339.926C284.188 340.045 284.739 340.267 285.25 340.591C285.767 340.915 286.19 341.378 286.52 341.98C286.849 342.577 287.014 343.352 287.014 344.307V353H284.526V351.21H284.423C284.259 351.54 284.011 351.864 283.682 352.182C283.352 352.5 282.929 352.764 282.412 352.974C281.895 353.185 281.276 353.29 280.554 353.29ZM281.108 351.244C281.813 351.244 282.415 351.105 282.915 350.827C283.42 350.548 283.804 350.185 284.065 349.736C284.332 349.281 284.466 348.795 284.466 348.278V346.591C284.375 346.682 284.199 346.767 283.938 346.847C283.682 346.92 283.389 346.986 283.06 347.043C282.73 347.094 282.409 347.142 282.097 347.188C281.784 347.227 281.523 347.261 281.312 347.29C280.818 347.352 280.366 347.457 279.957 347.605C279.554 347.753 279.23 347.966 278.986 348.244C278.747 348.517 278.628 348.881 278.628 349.335C278.628 349.966 278.861 350.443 279.327 350.767C279.793 351.085 280.386 351.244 281.108 351.244ZM300.218 343.105L297.908 343.514C297.812 343.219 297.658 342.937 297.448 342.67C297.244 342.403 296.965 342.185 296.613 342.014C296.261 341.844 295.82 341.759 295.292 341.759C294.57 341.759 293.968 341.92 293.485 342.244C293.002 342.562 292.761 342.974 292.761 343.48C292.761 343.918 292.923 344.27 293.246 344.537C293.57 344.804 294.093 345.023 294.815 345.193L296.894 345.67C298.099 345.949 298.996 346.378 299.587 346.957C300.178 347.537 300.474 348.29 300.474 349.216C300.474 350 300.246 350.699 299.792 351.312C299.343 351.92 298.715 352.398 297.908 352.744C297.107 353.091 296.178 353.264 295.121 353.264C293.656 353.264 292.46 352.952 291.533 352.327C290.607 351.696 290.039 350.801 289.829 349.642L292.292 349.267C292.445 349.909 292.761 350.395 293.238 350.724C293.715 351.048 294.337 351.21 295.104 351.21C295.94 351.21 296.607 351.037 297.107 350.69C297.607 350.338 297.857 349.909 297.857 349.403C297.857 348.994 297.704 348.651 297.397 348.372C297.096 348.094 296.633 347.884 296.008 347.741L293.792 347.256C292.57 346.977 291.667 346.534 291.082 345.926C290.502 345.318 290.212 344.548 290.212 343.616C290.212 342.844 290.428 342.168 290.86 341.588C291.292 341.009 291.888 340.557 292.65 340.233C293.411 339.903 294.283 339.739 295.266 339.739C296.681 339.739 297.795 340.045 298.607 340.659C299.42 341.267 299.957 342.082 300.218 343.105ZM305.619 348.56L305.602 345.449H306.045L311.261 339.909H314.312L308.364 346.216H307.963L305.619 348.56ZM303.276 353V335.545H305.824V353H303.276ZM311.543 353L306.855 346.778L308.611 344.997L314.67 353H311.543Z" fill="#18181B"/>
<rect x="467" y="303" width="194" height="82" rx="8" fill="#FCEFCF"/>
<path d="M510.213 357.909V339.909H512.702V342.031H512.915C513.063 341.759 513.276 341.443 513.554 341.085C513.832 340.727 514.219 340.415 514.713 340.148C515.207 339.875 515.861 339.739 516.673 339.739C517.73 339.739 518.673 340.006 519.503 340.54C520.332 341.074 520.983 341.844 521.455 342.849C521.932 343.855 522.17 345.065 522.17 346.48C522.17 347.895 521.935 349.108 521.463 350.119C520.991 351.125 520.344 351.901 519.52 352.446C518.696 352.986 517.756 353.256 516.699 353.256C515.903 353.256 515.253 353.122 514.747 352.855C514.247 352.588 513.855 352.276 513.571 351.918C513.287 351.56 513.068 351.241 512.915 350.963H512.761V357.909H510.213ZM512.71 346.455C512.71 347.375 512.844 348.182 513.111 348.875C513.378 349.568 513.764 350.111 514.27 350.503C514.776 350.889 515.395 351.082 516.128 351.082C516.889 351.082 517.526 350.881 518.037 350.477C518.548 350.068 518.935 349.514 519.196 348.815C519.463 348.116 519.597 347.33 519.597 346.455C519.597 345.591 519.466 344.815 519.205 344.128C518.949 343.44 518.563 342.898 518.045 342.5C517.534 342.102 516.895 341.903 516.128 341.903C515.389 341.903 514.764 342.094 514.253 342.474C513.747 342.855 513.364 343.386 513.102 344.068C512.841 344.75 512.71 345.545 512.71 346.455ZM530.54 353.264C529.313 353.264 528.241 352.983 527.327 352.42C526.412 351.858 525.702 351.071 525.196 350.06C524.69 349.048 524.438 347.866 524.438 346.514C524.438 345.156 524.69 343.969 525.196 342.952C525.702 341.935 526.412 341.145 527.327 340.582C528.241 340.02 529.313 339.739 530.54 339.739C531.767 339.739 532.838 340.02 533.753 340.582C534.668 341.145 535.378 341.935 535.884 342.952C536.389 343.969 536.642 345.156 536.642 346.514C536.642 347.866 536.389 349.048 535.884 350.06C535.378 351.071 534.668 351.858 533.753 352.42C532.838 352.983 531.767 353.264 530.54 353.264ZM530.548 351.125C531.344 351.125 532.003 350.915 532.526 350.494C533.048 350.074 533.435 349.514 533.685 348.815C533.94 348.116 534.068 347.347 534.068 346.506C534.068 345.67 533.94 344.903 533.685 344.205C533.435 343.5 533.048 342.935 532.526 342.509C532.003 342.082 531.344 341.869 530.548 341.869C529.747 341.869 529.082 342.082 528.554 342.509C528.031 342.935 527.642 343.5 527.386 344.205C527.136 344.903 527.011 345.67 527.011 346.506C527.011 347.347 527.136 348.116 527.386 348.815C527.642 349.514 528.031 350.074 528.554 350.494C529.082 350.915 529.747 351.125 530.548 351.125ZM539.487 353V339.909H542.035V353H539.487ZM540.773 337.889C540.33 337.889 539.95 337.741 539.631 337.446C539.319 337.145 539.163 336.787 539.163 336.372C539.163 335.952 539.319 335.594 539.631 335.298C539.95 334.997 540.33 334.847 540.773 334.847C541.217 334.847 541.594 334.997 541.907 335.298C542.225 335.594 542.384 335.952 542.384 336.372C542.384 336.787 542.225 337.145 541.907 337.446C541.594 337.741 541.217 337.889 540.773 337.889ZM548.011 345.227V353H545.463V339.909H547.909V342.04H548.071C548.372 341.347 548.844 340.79 549.486 340.369C550.134 339.949 550.949 339.739 551.932 339.739C552.824 339.739 553.605 339.926 554.276 340.301C554.946 340.67 555.466 341.222 555.835 341.955C556.205 342.687 556.389 343.594 556.389 344.673V353H553.841V344.98C553.841 344.031 553.594 343.29 553.099 342.756C552.605 342.216 551.926 341.946 551.062 341.946C550.472 341.946 549.946 342.074 549.486 342.33C549.031 342.585 548.67 342.96 548.403 343.455C548.142 343.943 548.011 344.534 548.011 345.227ZM565.918 339.909V341.955H558.767V339.909H565.918ZM560.685 336.773H563.233V349.156C563.233 349.651 563.307 350.023 563.455 350.273C563.602 350.517 563.793 350.685 564.026 350.776C564.264 350.861 564.523 350.903 564.801 350.903C565.006 350.903 565.185 350.889 565.338 350.861C565.491 350.832 565.611 350.81 565.696 350.793L566.156 352.898C566.009 352.955 565.798 353.011 565.526 353.068C565.253 353.131 564.912 353.165 564.503 353.17C563.832 353.182 563.207 353.062 562.628 352.812C562.048 352.562 561.58 352.176 561.222 351.653C560.864 351.131 560.685 350.474 560.685 349.685V336.773ZM574.238 353.264C572.948 353.264 571.837 352.989 570.906 352.438C569.979 351.881 569.263 351.099 568.758 350.094C568.258 349.082 568.008 347.898 568.008 346.54C568.008 345.199 568.258 344.017 568.758 342.994C569.263 341.972 569.968 341.173 570.871 340.599C571.781 340.026 572.843 339.739 574.059 339.739C574.798 339.739 575.513 339.861 576.207 340.105C576.9 340.349 577.522 340.733 578.073 341.256C578.624 341.778 579.059 342.457 579.377 343.293C579.695 344.122 579.854 345.131 579.854 346.318V347.222H569.448V345.312H577.357C577.357 344.642 577.221 344.048 576.948 343.531C576.675 343.009 576.292 342.597 575.798 342.295C575.309 341.994 574.735 341.844 574.076 341.844C573.36 341.844 572.735 342.02 572.201 342.372C571.673 342.719 571.263 343.173 570.974 343.736C570.69 344.293 570.548 344.898 570.548 345.551V347.043C570.548 347.918 570.701 348.662 571.008 349.276C571.32 349.889 571.755 350.358 572.312 350.682C572.869 351 573.519 351.159 574.263 351.159C574.746 351.159 575.187 351.091 575.585 350.955C575.982 350.812 576.326 350.602 576.616 350.324C576.906 350.045 577.127 349.702 577.281 349.293L579.692 349.727C579.499 350.437 579.153 351.06 578.653 351.594C578.158 352.122 577.536 352.534 576.786 352.83C576.042 353.119 575.192 353.264 574.238 353.264ZM582.682 353V339.909H585.145V341.989H585.281C585.52 341.284 585.94 340.73 586.543 340.327C587.151 339.918 587.838 339.713 588.605 339.713C588.764 339.713 588.952 339.719 589.168 339.73C589.389 339.741 589.562 339.756 589.688 339.773V342.21C589.585 342.182 589.403 342.151 589.142 342.116C588.881 342.077 588.619 342.057 588.358 342.057C587.756 342.057 587.219 342.185 586.747 342.44C586.281 342.69 585.912 343.04 585.639 343.489C585.366 343.932 585.23 344.437 585.23 345.006V353H582.682ZM600.185 347.571V339.909H602.742V353H600.237V350.733H600.1C599.799 351.432 599.316 352.014 598.651 352.48C597.992 352.94 597.171 353.17 596.188 353.17C595.347 353.17 594.603 352.986 593.955 352.616C593.313 352.241 592.808 351.688 592.438 350.955C592.075 350.222 591.893 349.315 591.893 348.236V339.909H594.441V347.929C594.441 348.821 594.688 349.531 595.183 350.06C595.677 350.588 596.319 350.852 597.109 350.852C597.586 350.852 598.06 350.733 598.532 350.494C599.009 350.256 599.404 349.895 599.717 349.412C600.035 348.929 600.191 348.315 600.185 347.571ZM606.166 357.909V339.909H608.655V342.031H608.868C609.016 341.759 609.229 341.443 609.507 341.085C609.786 340.727 610.172 340.415 610.666 340.148C611.161 339.875 611.814 339.739 612.626 339.739C613.683 339.739 614.626 340.006 615.456 340.54C616.286 341.074 616.936 341.844 617.408 342.849C617.885 343.855 618.124 345.065 618.124 346.48C618.124 347.895 617.888 349.108 617.416 350.119C616.945 351.125 616.297 351.901 615.473 352.446C614.649 352.986 613.709 353.256 612.652 353.256C611.857 353.256 611.206 353.122 610.7 352.855C610.2 352.588 609.808 352.276 609.524 351.918C609.24 351.56 609.021 351.241 608.868 350.963H608.714V357.909H606.166ZM608.663 346.455C608.663 347.375 608.797 348.182 609.064 348.875C609.331 349.568 609.717 350.111 610.223 350.503C610.729 350.889 611.348 351.082 612.081 351.082C612.842 351.082 613.479 350.881 613.99 350.477C614.501 350.068 614.888 349.514 615.149 348.815C615.416 348.116 615.55 347.33 615.55 346.455C615.55 345.591 615.419 344.815 615.158 344.128C614.902 343.44 614.516 342.898 613.999 342.5C613.487 342.102 612.848 341.903 612.081 341.903C611.342 341.903 610.717 342.094 610.206 342.474C609.7 342.855 609.317 343.386 609.055 344.068C608.794 344.75 608.663 345.545 608.663 346.455Z" fill="#78350F"/>
<g filter="url(#filter0_f_443_2638)">
<circle cx="191.5" cy="92.5" r="27.5" fill="#D1FAE5" fill-opacity="0.95"/>
</g>
<circle cx="191.5" cy="92.5" r="27.5" fill="#D1FAE5" fill-opacity="0.95"/>
<circle cx="191.5" cy="92.5" r="15" fill="white" fill-opacity="0.7" stroke="#34D399" stroke-width="5"/>
<path d="M191.5 120L191.5 303" stroke="#52525B" stroke-width="4" stroke-linecap="round" stroke-dasharray="9 9"/>
<path d="M23.9176 207.545H27.1136L32.6705 221.114H32.875L38.4318 207.545H41.6278V225H39.1222V212.369H38.9602L33.8125 224.974H31.733L26.5852 212.361H26.4233V225H23.9176V207.545ZM49.0618 225.29C48.2322 225.29 47.4822 225.136 46.8118 224.83C46.1413 224.517 45.6101 224.065 45.218 223.474C44.8317 222.884 44.6385 222.159 44.6385 221.301C44.6385 220.562 44.7805 219.955 45.0646 219.477C45.3487 219 45.7322 218.622 46.2152 218.344C46.6982 218.065 47.2379 217.855 47.8345 217.713C48.4311 217.571 49.0391 217.463 49.6584 217.389C50.4425 217.298 51.0788 217.224 51.5675 217.168C52.0561 217.105 52.4112 217.006 52.6328 216.869C52.8544 216.733 52.9652 216.511 52.9652 216.205V216.145C52.9652 215.401 52.755 214.824 52.3345 214.415C51.9197 214.006 51.3004 213.801 50.4766 213.801C49.6186 213.801 48.9425 213.991 48.4482 214.372C47.9595 214.747 47.6214 215.165 47.4339 215.625L45.0391 215.08C45.3232 214.284 45.7379 213.642 46.2834 213.153C46.8345 212.659 47.468 212.301 48.1839 212.08C48.8999 211.852 49.6527 211.739 50.4425 211.739C50.9652 211.739 51.5192 211.801 52.1044 211.926C52.6953 212.045 53.2464 212.267 53.7578 212.591C54.2749 212.915 54.6982 213.378 55.0277 213.98C55.3572 214.577 55.522 215.352 55.522 216.307V225H53.0334V223.21H52.9311C52.7663 223.54 52.5192 223.864 52.1896 224.182C51.8601 224.5 51.4368 224.764 50.9197 224.974C50.4027 225.185 49.7834 225.29 49.0618 225.29ZM49.6158 223.244C50.3203 223.244 50.9226 223.105 51.4226 222.827C51.9283 222.548 52.3118 222.185 52.5732 221.736C52.8402 221.281 52.9737 220.795 52.9737 220.278V218.591C52.8828 218.682 52.7067 218.767 52.4453 218.847C52.1896 218.92 51.897 218.986 51.5675 219.043C51.2379 219.094 50.9169 219.142 50.6044 219.188C50.2919 219.227 50.0305 219.261 49.8203 219.29C49.326 219.352 48.8743 219.457 48.4652 219.605C48.0618 219.753 47.7379 219.966 47.4936 220.244C47.255 220.517 47.1357 220.881 47.1357 221.335C47.1357 221.966 47.3686 222.443 47.8345 222.767C48.3004 223.085 48.8942 223.244 49.6158 223.244ZM58.9162 225V211.909H61.4645V225H58.9162ZM60.2031 209.889C59.7599 209.889 59.3793 209.741 59.0611 209.446C58.7486 209.145 58.5923 208.787 58.5923 208.372C58.5923 207.952 58.7486 207.594 59.0611 207.298C59.3793 206.997 59.7599 206.847 60.2031 206.847C60.6463 206.847 61.0241 206.997 61.3366 207.298C61.6548 207.594 61.8139 207.952 61.8139 208.372C61.8139 208.787 61.6548 209.145 61.3366 209.446C61.0241 209.741 60.6463 209.889 60.2031 209.889ZM67.4411 217.227V225H64.8928V211.909H67.3388V214.04H67.5007C67.8018 213.347 68.2734 212.79 68.9155 212.369C69.5632 211.949 70.3786 211.739 71.3615 211.739C72.2536 211.739 73.0348 211.926 73.7053 212.301C74.3757 212.67 74.8956 213.222 75.2649 213.955C75.6342 214.687 75.8189 215.594 75.8189 216.673V225H73.2706V216.98C73.2706 216.031 73.0234 215.29 72.5291 214.756C72.0348 214.216 71.3558 213.946 70.4922 213.946C69.9013 213.946 69.3757 214.074 68.9155 214.33C68.4609 214.585 68.1001 214.96 67.8331 215.455C67.5717 215.943 67.4411 216.534 67.4411 217.227ZM91.6989 211.909V213.955H84.5483V211.909H91.6989ZM86.4659 208.773H89.0142V221.156C89.0142 221.651 89.0881 222.023 89.2358 222.273C89.3835 222.517 89.5739 222.685 89.8068 222.776C90.0455 222.861 90.304 222.903 90.5824 222.903C90.7869 222.903 90.9659 222.889 91.1193 222.861C91.2727 222.832 91.392 222.81 91.4773 222.793L91.9375 224.898C91.7898 224.955 91.5795 225.011 91.3068 225.068C91.0341 225.131 90.6932 225.165 90.2841 225.17C89.6136 225.182 88.9886 225.062 88.4091 224.812C87.8295 224.562 87.3608 224.176 87.0028 223.653C86.6449 223.131 86.4659 222.474 86.4659 221.685V208.773ZM97.3473 217.227V225H94.799V207.545H97.3132V214.04H97.4751C97.782 213.335 98.2507 212.776 98.8814 212.361C99.5121 211.946 100.336 211.739 101.353 211.739C102.251 211.739 103.035 211.923 103.705 212.293C104.381 212.662 104.904 213.213 105.273 213.946C105.648 214.673 105.836 215.582 105.836 216.673V225H103.288V216.98C103.288 216.02 103.04 215.276 102.546 214.747C102.052 214.213 101.364 213.946 100.484 213.946C99.8814 213.946 99.3416 214.074 98.8643 214.33C98.3928 214.585 98.0206 214.96 97.7479 215.455C97.4808 215.943 97.3473 216.534 97.3473 217.227ZM109.237 225V211.909H111.7V213.989H111.836C112.075 213.284 112.495 212.73 113.097 212.327C113.705 211.918 114.393 211.713 115.16 211.713C115.319 211.713 115.506 211.719 115.722 211.73C115.944 211.741 116.117 211.756 116.242 211.773V214.21C116.14 214.182 115.958 214.151 115.697 214.116C115.435 214.077 115.174 214.057 114.913 214.057C114.31 214.057 113.773 214.185 113.302 214.44C112.836 214.69 112.467 215.04 112.194 215.489C111.921 215.932 111.785 216.437 111.785 217.006V225H109.237ZM123.621 225.264C122.331 225.264 121.22 224.989 120.288 224.438C119.362 223.881 118.646 223.099 118.141 222.094C117.641 221.082 117.391 219.898 117.391 218.54C117.391 217.199 117.641 216.017 118.141 214.994C118.646 213.972 119.351 213.173 120.254 212.599C121.163 212.026 122.226 211.739 123.442 211.739C124.18 211.739 124.896 211.861 125.589 212.105C126.283 212.349 126.905 212.733 127.456 213.256C128.007 213.778 128.442 214.457 128.76 215.293C129.078 216.122 129.237 217.131 129.237 218.318V219.222H118.831V217.312H126.74C126.74 216.642 126.604 216.048 126.331 215.531C126.058 215.009 125.675 214.597 125.18 214.295C124.692 213.994 124.118 213.844 123.459 213.844C122.743 213.844 122.118 214.02 121.584 214.372C121.055 214.719 120.646 215.173 120.357 215.736C120.072 216.293 119.93 216.898 119.93 217.551V219.043C119.93 219.918 120.084 220.662 120.391 221.276C120.703 221.889 121.138 222.358 121.695 222.682C122.251 223 122.902 223.159 123.646 223.159C124.129 223.159 124.57 223.091 124.967 222.955C125.365 222.812 125.709 222.602 125.999 222.324C126.288 222.045 126.51 221.702 126.663 221.293L129.075 221.727C128.882 222.437 128.536 223.06 128.036 223.594C127.541 224.122 126.919 224.534 126.169 224.83C125.425 225.119 124.575 225.264 123.621 225.264ZM135.874 225.29C135.045 225.29 134.295 225.136 133.624 224.83C132.954 224.517 132.423 224.065 132.031 223.474C131.644 222.884 131.451 222.159 131.451 221.301C131.451 220.562 131.593 219.955 131.877 219.477C132.161 219 132.545 218.622 133.028 218.344C133.511 218.065 134.05 217.855 134.647 217.713C135.244 217.571 135.852 217.463 136.471 217.389C137.255 217.298 137.891 217.224 138.38 217.168C138.869 217.105 139.224 217.006 139.445 216.869C139.667 216.733 139.778 216.511 139.778 216.205V216.145C139.778 215.401 139.567 214.824 139.147 214.415C138.732 214.006 138.113 213.801 137.289 213.801C136.431 213.801 135.755 213.991 135.261 214.372C134.772 214.747 134.434 215.165 134.246 215.625L131.852 215.08C132.136 214.284 132.55 213.642 133.096 213.153C133.647 212.659 134.281 212.301 134.996 212.08C135.712 211.852 136.465 211.739 137.255 211.739C137.778 211.739 138.332 211.801 138.917 211.926C139.508 212.045 140.059 212.267 140.57 212.591C141.087 212.915 141.511 213.378 141.84 213.98C142.17 214.577 142.335 215.352 142.335 216.307V225H139.846V223.21H139.744C139.579 223.54 139.332 223.864 139.002 224.182C138.673 224.5 138.249 224.764 137.732 224.974C137.215 225.185 136.596 225.29 135.874 225.29ZM136.428 223.244C137.133 223.244 137.735 223.105 138.235 222.827C138.741 222.548 139.124 222.185 139.386 221.736C139.653 221.281 139.786 220.795 139.786 220.278V218.591C139.695 218.682 139.519 218.767 139.258 218.847C139.002 218.92 138.71 218.986 138.38 219.043C138.05 219.094 137.729 219.142 137.417 219.188C137.104 219.227 136.843 219.261 136.633 219.29C136.138 219.352 135.687 219.457 135.278 219.605C134.874 219.753 134.55 219.966 134.306 220.244C134.067 220.517 133.948 220.881 133.948 221.335C133.948 221.966 134.181 222.443 134.647 222.767C135.113 223.085 135.707 223.244 136.428 223.244ZM150.629 225.256C149.572 225.256 148.629 224.986 147.8 224.446C146.976 223.901 146.328 223.125 145.857 222.119C145.391 221.108 145.158 219.895 145.158 218.48C145.158 217.065 145.393 215.855 145.865 214.849C146.342 213.844 146.996 213.074 147.825 212.54C148.655 212.006 149.595 211.739 150.646 211.739C151.459 211.739 152.112 211.875 152.607 212.148C153.107 212.415 153.493 212.727 153.766 213.085C154.044 213.443 154.26 213.759 154.413 214.031H154.567V207.545H157.115V225H154.626V222.963H154.413C154.26 223.241 154.038 223.56 153.749 223.918C153.464 224.276 153.072 224.588 152.572 224.855C152.072 225.122 151.425 225.256 150.629 225.256ZM151.192 223.082C151.925 223.082 152.544 222.889 153.05 222.503C153.561 222.111 153.947 221.568 154.209 220.875C154.476 220.182 154.609 219.375 154.609 218.455C154.609 217.545 154.479 216.75 154.217 216.068C153.956 215.386 153.572 214.855 153.067 214.474C152.561 214.094 151.936 213.903 151.192 213.903C150.425 213.903 149.786 214.102 149.274 214.5C148.763 214.898 148.376 215.44 148.115 216.128C147.859 216.815 147.732 217.591 147.732 218.455C147.732 219.33 147.862 220.116 148.124 220.815C148.385 221.514 148.771 222.068 149.283 222.477C149.8 222.881 150.436 223.082 151.192 223.082Z" fill="#52525B"/>
<path d="M136.551 8.54545V26H133.918V8.54545H136.551ZM142.73 18.2273V26H140.182V12.9091H142.628V15.0398H142.79C143.091 14.3466 143.563 13.7898 144.205 13.3693C144.852 12.9489 145.668 12.7386 146.651 12.7386C147.543 12.7386 148.324 12.9261 148.994 13.3011C149.665 13.6705 150.185 14.2216 150.554 14.9545C150.923 15.6875 151.108 16.5937 151.108 17.6733V26H148.56V17.9801C148.56 17.0312 148.313 16.2898 147.818 15.7557C147.324 15.2159 146.645 14.946 145.781 14.946C145.19 14.946 144.665 15.0739 144.205 15.3295C143.75 15.5852 143.389 15.9602 143.122 16.4545C142.861 16.9432 142.73 17.5341 142.73 18.2273ZM160.636 12.9091V14.9545H153.486V12.9091H160.636ZM155.403 9.77273H157.952V22.1562C157.952 22.6506 158.026 23.0227 158.173 23.2727C158.321 23.517 158.511 23.6847 158.744 23.7756C158.983 23.8608 159.241 23.9034 159.52 23.9034C159.724 23.9034 159.903 23.8892 160.057 23.8608C160.21 23.8324 160.33 23.8097 160.415 23.7926L160.875 25.8977C160.727 25.9545 160.517 26.0114 160.244 26.0682C159.972 26.1307 159.631 26.1648 159.222 26.1705C158.551 26.1818 157.926 26.0625 157.347 25.8125C156.767 25.5625 156.298 25.1761 155.94 24.6534C155.582 24.1307 155.403 23.4744 155.403 22.6847V9.77273ZM168.957 26.2642C167.667 26.2642 166.556 25.9886 165.624 25.4375C164.698 24.8807 163.982 24.0994 163.477 23.0938C162.977 22.0824 162.727 20.8977 162.727 19.5398C162.727 18.1989 162.977 17.017 163.477 15.9943C163.982 14.9716 164.687 14.1733 165.59 13.5994C166.499 13.0256 167.562 12.7386 168.778 12.7386C169.516 12.7386 170.232 12.8608 170.925 13.1051C171.619 13.3494 172.241 13.733 172.792 14.2557C173.343 14.7784 173.778 15.4574 174.096 16.2926C174.414 17.1222 174.573 18.1307 174.573 19.3182V20.2216H164.167V18.3125H172.076C172.076 17.642 171.94 17.0483 171.667 16.5312C171.394 16.0085 171.011 15.5966 170.516 15.2955C170.028 14.9943 169.454 14.8438 168.795 14.8438C168.079 14.8438 167.454 15.0199 166.92 15.3722C166.391 15.7187 165.982 16.1733 165.692 16.7358C165.408 17.2926 165.266 17.8977 165.266 18.5511V20.0426C165.266 20.9176 165.42 21.6619 165.727 22.2756C166.039 22.8892 166.474 23.358 167.031 23.6818C167.587 24 168.238 24.1591 168.982 24.1591C169.465 24.1591 169.906 24.0909 170.303 23.9545C170.701 23.8125 171.045 23.6023 171.335 23.3239C171.624 23.0455 171.846 22.7017 171.999 22.2926L174.411 22.7273C174.218 23.4375 173.871 24.0597 173.371 24.5938C172.877 25.1222 172.255 25.5341 171.505 25.8295C170.761 26.1193 169.911 26.2642 168.957 26.2642ZM177.401 26V12.9091H179.864V14.9886H180C180.239 14.2841 180.659 13.7301 181.261 13.3267C181.869 12.9176 182.557 12.7131 183.324 12.7131C183.483 12.7131 183.67 12.7187 183.886 12.7301C184.108 12.7415 184.281 12.7557 184.406 12.7727V15.2102C184.304 15.1818 184.122 15.1506 183.861 15.1165C183.599 15.0767 183.338 15.0568 183.077 15.0568C182.474 15.0568 181.938 15.1847 181.466 15.4403C181 15.6903 180.631 16.0398 180.358 16.4886C180.085 16.9318 179.949 17.4375 179.949 18.0057V26H177.401ZM190.304 26.2898C189.474 26.2898 188.724 26.1364 188.054 25.8295C187.384 25.517 186.852 25.0653 186.46 24.4744C186.074 23.8835 185.881 23.1591 185.881 22.3011C185.881 21.5625 186.023 20.9545 186.307 20.4773C186.591 20 186.974 19.6222 187.457 19.3438C187.94 19.0653 188.48 18.8551 189.077 18.7131C189.673 18.571 190.281 18.4631 190.901 18.3892C191.685 18.2983 192.321 18.2244 192.81 18.1676C193.298 18.1051 193.653 18.0057 193.875 17.8693C194.097 17.733 194.207 17.5114 194.207 17.2045V17.1449C194.207 16.4006 193.997 15.8239 193.577 15.4148C193.162 15.0057 192.543 14.8011 191.719 14.8011C190.861 14.8011 190.185 14.9915 189.69 15.3722C189.202 15.7472 188.864 16.1648 188.676 16.625L186.281 16.0795C186.565 15.2841 186.98 14.642 187.526 14.1534C188.077 13.6591 188.71 13.3011 189.426 13.0795C190.142 12.8523 190.895 12.7386 191.685 12.7386C192.207 12.7386 192.761 12.8011 193.347 12.9261C193.938 13.0455 194.489 13.267 195 13.5909C195.517 13.9148 195.94 14.3778 196.27 14.9801C196.599 15.5767 196.764 16.3523 196.764 17.3068V26H194.276V24.2102H194.173C194.009 24.5398 193.761 24.8636 193.432 25.1818C193.102 25.5 192.679 25.7642 192.162 25.9744C191.645 26.1847 191.026 26.2898 190.304 26.2898ZM190.858 24.2443C191.563 24.2443 192.165 24.1051 192.665 23.8267C193.17 23.5483 193.554 23.1847 193.815 22.7358C194.082 22.2812 194.216 21.7955 194.216 21.2784V19.5909C194.125 19.6818 193.949 19.767 193.688 19.8466C193.432 19.9205 193.139 19.9858 192.81 20.0426C192.48 20.0937 192.159 20.142 191.847 20.1875C191.534 20.2273 191.273 20.2614 191.062 20.2898C190.568 20.3523 190.116 20.4574 189.707 20.6051C189.304 20.7528 188.98 20.9659 188.736 21.2443C188.497 21.517 188.378 21.8807 188.378 22.3352C188.378 22.9659 188.611 23.4432 189.077 23.767C189.543 24.0852 190.136 24.2443 190.858 24.2443ZM205.673 26.2642C204.406 26.2642 203.315 25.9773 202.4 25.4034C201.491 24.8239 200.792 24.0256 200.303 23.0085C199.815 21.9915 199.57 20.8267 199.57 19.5142C199.57 18.1847 199.82 17.0114 200.32 15.9943C200.82 14.9716 201.525 14.1733 202.434 13.5994C203.343 13.0256 204.414 12.7386 205.647 12.7386C206.641 12.7386 207.528 12.9233 208.306 13.2926C209.085 13.6562 209.712 14.1676 210.19 14.8267C210.673 15.4858 210.96 16.2557 211.05 17.1364H208.57C208.434 16.5227 208.121 15.9943 207.633 15.5511C207.15 15.108 206.502 14.8864 205.69 14.8864C204.979 14.8864 204.357 15.0739 203.823 15.4489C203.295 15.8182 202.883 16.3466 202.587 17.0341C202.292 17.7159 202.144 18.5227 202.144 19.4545C202.144 20.4091 202.289 21.233 202.579 21.9261C202.869 22.6193 203.278 23.1562 203.806 23.5369C204.34 23.9176 204.968 24.108 205.69 24.108C206.173 24.108 206.61 24.0199 207.002 23.8438C207.4 23.6619 207.732 23.4034 207.999 23.0682C208.272 22.733 208.462 22.3295 208.57 21.858H211.05C210.96 22.7045 210.684 23.4602 210.224 24.125C209.763 24.7898 209.147 25.3125 208.374 25.6932C207.607 26.0739 206.707 26.2642 205.673 26.2642ZM219.886 12.9091V14.9545H212.736V12.9091H219.886ZM214.653 9.77273H217.202V22.1562C217.202 22.6506 217.276 23.0227 217.423 23.2727C217.571 23.517 217.761 23.6847 217.994 23.7756C218.233 23.8608 218.491 23.9034 218.77 23.9034C218.974 23.9034 219.153 23.8892 219.307 23.8608C219.46 23.8324 219.58 23.8097 219.665 23.7926L220.125 25.8977C219.977 25.9545 219.767 26.0114 219.494 26.0682C219.222 26.1307 218.881 26.1648 218.472 26.1705C217.801 26.1818 217.176 26.0625 216.597 25.8125C216.017 25.5625 215.548 25.1761 215.19 24.6534C214.832 24.1307 214.653 23.4744 214.653 22.6847V9.77273ZM222.705 26V12.9091H225.254V26H222.705ZM223.992 10.8892C223.549 10.8892 223.168 10.7415 222.85 10.446C222.538 10.1449 222.381 9.78693 222.381 9.37216C222.381 8.9517 222.538 8.59375 222.85 8.29829C223.168 7.99716 223.549 7.84659 223.992 7.84659C224.435 7.84659 224.813 7.99716 225.126 8.29829C225.444 8.59375 225.603 8.9517 225.603 9.37216C225.603 9.78693 225.444 10.1449 225.126 10.446C224.813 10.7415 224.435 10.8892 223.992 10.8892ZM234.196 26.2642C232.969 26.2642 231.898 25.983 230.983 25.4205C230.068 24.858 229.358 24.071 228.852 23.0597C228.347 22.0483 228.094 20.8665 228.094 19.5142C228.094 18.1562 228.347 16.9687 228.852 15.9517C229.358 14.9347 230.068 14.1449 230.983 13.5824C231.898 13.0199 232.969 12.7386 234.196 12.7386C235.423 12.7386 236.494 13.0199 237.409 13.5824C238.324 14.1449 239.034 14.9347 239.54 15.9517C240.045 16.9687 240.298 18.1562 240.298 19.5142C240.298 20.8665 240.045 22.0483 239.54 23.0597C239.034 24.071 238.324 24.858 237.409 25.4205C236.494 25.983 235.423 26.2642 234.196 26.2642ZM234.205 24.125C235 24.125 235.659 23.9148 236.182 23.4943C236.705 23.0739 237.091 22.5142 237.341 21.8153C237.597 21.1165 237.724 20.3466 237.724 19.5057C237.724 18.6705 237.597 17.9034 237.341 17.2045C237.091 16.5 236.705 15.9347 236.182 15.5085C235.659 15.0824 235 14.8693 234.205 14.8693C233.403 14.8693 232.739 15.0824 232.21 15.5085C231.688 15.9347 231.298 16.5 231.043 17.2045C230.793 17.9034 230.668 18.6705 230.668 19.5057C230.668 20.3466 230.793 21.1165 231.043 21.8153C231.298 22.5142 231.688 23.0739 232.21 23.4943C232.739 23.9148 233.403 24.125 234.205 24.125ZM245.691 18.2273V26H243.143V12.9091H245.589V15.0398H245.751C246.052 14.3466 246.523 13.7898 247.165 13.3693C247.813 12.9489 248.629 12.7386 249.612 12.7386C250.504 12.7386 251.285 12.9261 251.955 13.3011C252.626 13.6705 253.146 14.2216 253.515 14.9545C253.884 15.6875 254.069 16.5937 254.069 17.6733V26H251.521V17.9801C251.521 17.0312 251.273 16.2898 250.779 15.7557C250.285 15.2159 249.606 14.946 248.742 14.946C248.151 14.946 247.626 15.0739 247.165 15.3295C246.711 15.5852 246.35 15.9602 246.083 16.4545C245.822 16.9432 245.691 17.5341 245.691 18.2273Z" fill="#52525B"/>
<path d="M191 447L191 471" stroke="#18181B" stroke-width="4" stroke-linecap="round"/>
<path d="M191 457C189.895 457 189 457.895 189 459C189 460.105 189.895 461 191 461V457ZM191 461H235.5V457H191V461Z" fill="#18181B"/>
<path d="M255.189 448.182V470H251.897V448.182H255.189ZM262.913 460.284V470H259.727V453.636H262.785V456.3H262.987C263.364 455.433 263.953 454.737 264.756 454.212C265.565 453.686 266.585 453.423 267.813 453.423C268.928 453.423 269.905 453.658 270.743 454.126C271.581 454.588 272.231 455.277 272.692 456.193C273.154 457.109 273.385 458.242 273.385 459.592V470H270.2V459.975C270.2 458.789 269.891 457.862 269.273 457.195C268.655 456.52 267.806 456.183 266.727 456.183C265.988 456.183 265.331 456.342 264.756 456.662C264.188 456.982 263.737 457.45 263.403 458.068C263.076 458.679 262.913 459.418 262.913 460.284ZM277.657 476.136V453.636H280.768V456.289H281.034C281.219 455.948 281.485 455.554 281.833 455.107C282.181 454.659 282.664 454.268 283.282 453.935C283.9 453.594 284.717 453.423 285.732 453.423C287.053 453.423 288.232 453.757 289.269 454.425C290.306 455.092 291.119 456.055 291.709 457.312C292.305 458.569 292.604 460.082 292.604 461.85C292.604 463.619 292.309 465.135 291.719 466.399C291.13 467.656 290.32 468.626 289.29 469.308C288.261 469.982 287.085 470.32 285.764 470.32C284.77 470.32 283.957 470.153 283.325 469.819C282.7 469.485 282.21 469.094 281.854 468.647C281.499 468.2 281.226 467.802 281.034 467.454H280.842V476.136H277.657ZM280.778 461.818C280.778 462.969 280.945 463.977 281.279 464.844C281.613 465.71 282.096 466.388 282.728 466.879C283.36 467.362 284.134 467.603 285.05 467.603C286.002 467.603 286.798 467.351 287.437 466.847C288.076 466.335 288.559 465.643 288.886 464.769C289.219 463.896 289.386 462.912 289.386 461.818C289.386 460.739 289.223 459.769 288.896 458.91C288.577 458.05 288.094 457.372 287.447 456.875C286.808 456.378 286.009 456.129 285.05 456.129C284.127 456.129 283.346 456.367 282.707 456.843C282.075 457.319 281.595 457.983 281.268 458.835C280.942 459.687 280.778 460.682 280.778 461.818ZM306.538 463.214V453.636H309.734V470H306.602V467.166H306.432C306.055 468.04 305.452 468.768 304.621 469.35C303.797 469.925 302.771 470.213 301.542 470.213C300.491 470.213 299.56 469.982 298.751 469.521C297.948 469.052 297.316 468.359 296.854 467.443C296.4 466.527 296.173 465.394 296.173 464.045V453.636H299.358V463.661C299.358 464.776 299.667 465.664 300.285 466.325C300.903 466.985 301.705 467.315 302.692 467.315C303.289 467.315 303.882 467.166 304.472 466.868C305.068 466.57 305.562 466.119 305.952 465.515C306.35 464.911 306.545 464.144 306.538 463.214ZM321.653 453.636V456.193H312.715V453.636H321.653ZM315.112 449.716H318.297V465.195C318.297 465.813 318.389 466.278 318.574 466.591C318.759 466.896 318.997 467.106 319.288 467.219C319.586 467.326 319.909 467.379 320.257 467.379C320.513 467.379 320.737 467.362 320.928 467.326C321.12 467.29 321.269 467.262 321.376 467.241L321.951 469.872C321.767 469.943 321.504 470.014 321.163 470.085C320.822 470.163 320.396 470.206 319.884 470.213C319.046 470.227 318.265 470.078 317.541 469.766C316.816 469.453 316.23 468.97 315.783 468.317C315.335 467.663 315.112 466.843 315.112 465.856V449.716ZM339.242 470.32C337.921 470.32 336.742 469.982 335.705 469.308C334.675 468.626 333.865 467.656 333.276 466.399C332.693 465.135 332.402 463.619 332.402 461.85C332.402 460.082 332.697 458.569 333.286 457.312C333.883 456.055 334.7 455.092 335.737 454.425C336.774 453.757 337.949 453.423 339.263 453.423C340.279 453.423 341.095 453.594 341.713 453.935C342.338 454.268 342.821 454.659 343.162 455.107C343.51 455.554 343.78 455.948 343.972 456.289H344.164V448.182H347.349V470H344.238V467.454H343.972C343.78 467.802 343.503 468.2 343.141 468.647C342.786 469.094 342.296 469.485 341.671 469.819C341.046 470.153 340.236 470.32 339.242 470.32ZM339.945 467.603C340.861 467.603 341.635 467.362 342.267 466.879C342.906 466.388 343.389 465.71 343.716 464.844C344.05 463.977 344.217 462.969 344.217 461.818C344.217 460.682 344.053 459.687 343.727 458.835C343.4 457.983 342.921 457.319 342.289 456.843C341.656 456.367 340.875 456.129 339.945 456.129C338.986 456.129 338.187 456.378 337.548 456.875C336.909 457.372 336.426 458.05 336.099 458.91C335.779 459.769 335.619 460.739 335.619 461.818C335.619 462.912 335.783 463.896 336.11 464.769C336.436 465.643 336.919 466.335 337.558 466.847C338.205 467.351 339 467.603 339.945 467.603ZM358.948 470.33C357.336 470.33 355.947 469.986 354.782 469.297C353.625 468.601 352.73 467.624 352.098 466.367C351.473 465.103 351.16 463.622 351.16 461.925C351.16 460.249 351.473 458.771 352.098 457.493C352.73 456.214 353.61 455.217 354.74 454.499C355.876 453.782 357.204 453.423 358.724 453.423C359.647 453.423 360.542 453.576 361.409 453.881C362.275 454.187 363.053 454.666 363.742 455.32C364.431 455.973 364.974 456.822 365.372 457.866C365.77 458.903 365.968 460.163 365.968 461.648V462.777H352.961V460.391H362.847C362.847 459.553 362.676 458.81 362.336 458.164C361.995 457.511 361.515 456.996 360.897 456.619C360.287 456.243 359.569 456.055 358.745 456.055C357.85 456.055 357.069 456.275 356.402 456.715C355.741 457.148 355.23 457.717 354.868 458.42C354.512 459.116 354.335 459.872 354.335 460.689V462.553C354.335 463.647 354.527 464.577 354.91 465.344C355.301 466.112 355.844 466.697 356.54 467.102C357.236 467.5 358.049 467.699 358.98 467.699C359.583 467.699 360.134 467.614 360.631 467.443C361.128 467.266 361.558 467.003 361.92 466.655C362.282 466.307 362.559 465.877 362.751 465.366L365.766 465.909C365.525 466.797 365.091 467.575 364.466 468.242C363.848 468.903 363.071 469.418 362.133 469.787C361.203 470.149 360.141 470.33 358.948 470.33ZM372.688 448.182V470H369.503V448.182H372.688ZM381.735 470.362C380.699 470.362 379.761 470.17 378.923 469.787C378.085 469.396 377.421 468.832 376.931 468.093C376.448 467.354 376.206 466.449 376.206 465.376C376.206 464.453 376.384 463.693 376.739 463.097C377.094 462.5 377.574 462.028 378.177 461.68C378.781 461.332 379.456 461.069 380.201 460.891C380.947 460.714 381.707 460.579 382.481 460.487C383.461 460.373 384.257 460.281 384.868 460.21C385.478 460.131 385.922 460.007 386.199 459.837C386.476 459.666 386.615 459.389 386.615 459.006V458.931C386.615 458.001 386.352 457.28 385.826 456.768C385.308 456.257 384.534 456.001 383.504 456.001C382.431 456.001 381.586 456.239 380.968 456.715C380.358 457.184 379.935 457.706 379.701 458.281L376.707 457.599C377.062 456.605 377.581 455.803 378.262 455.192C378.951 454.574 379.743 454.126 380.638 453.849C381.533 453.565 382.474 453.423 383.461 453.423C384.115 453.423 384.807 453.501 385.539 453.658C386.277 453.807 386.966 454.084 387.605 454.489C388.252 454.893 388.781 455.472 389.193 456.225C389.605 456.971 389.811 457.94 389.811 459.134V470H386.7V467.763H386.572C386.366 468.175 386.057 468.58 385.645 468.977C385.233 469.375 384.704 469.705 384.058 469.968C383.412 470.231 382.637 470.362 381.735 470.362ZM382.428 467.805C383.309 467.805 384.061 467.631 384.686 467.283C385.319 466.935 385.798 466.481 386.125 465.92C386.458 465.352 386.625 464.744 386.625 464.098V461.989C386.512 462.102 386.292 462.209 385.965 462.308C385.645 462.401 385.279 462.482 384.868 462.553C384.456 462.617 384.054 462.678 383.664 462.734C383.273 462.784 382.946 462.827 382.684 462.862C382.066 462.94 381.501 463.072 380.99 463.256C380.485 463.441 380.081 463.707 379.775 464.055C379.477 464.396 379.328 464.851 379.328 465.419C379.328 466.207 379.619 466.804 380.201 467.209C380.784 467.607 381.526 467.805 382.428 467.805ZM395.481 476.136C395.005 476.136 394.572 476.097 394.181 476.019C393.791 475.948 393.499 475.87 393.308 475.785L394.075 473.175C394.657 473.331 395.176 473.398 395.63 473.377C396.085 473.356 396.486 473.185 396.834 472.866C397.189 472.546 397.502 472.024 397.771 471.3L398.166 470.213L392.178 453.636H395.588L399.732 466.335H399.902L404.046 453.636H407.466L400.722 472.184C400.41 473.036 400.012 473.757 399.529 474.347C399.046 474.943 398.471 475.391 397.803 475.689C397.136 475.987 396.362 476.136 395.481 476.136Z" fill="#18181B"/>
<path d="M467 471V447" stroke="#18181B" stroke-width="4" stroke-linecap="round"/>
<path d="M467 461C468.105 461 469 460.105 469 459C469 457.895 468.105 457 467 457V461ZM467 457H422.5V461H467V457Z" fill="#18181B"/>
<defs>
<filter id="filter0_f_443_2638" x="99" y="0" width="185" height="185" filterUnits="userSpaceOnUse" color-interpolation-filters="sRGB">
<feFlood flood-opacity="0" result="BackgroundImageFix"/>
<feBlend mode="normal" in="SourceGraphic" in2="BackgroundImageFix" result="shape"/>
<feGaussianBlur stdDeviation="32.5" result="effect1_foregroundBlur_443_2638"/>
</filter>
</defs>
</svg>
