<svg xmlns="http://www.w3.org/2000/svg" width="1146" height="542" fill="none" viewBox="0 0 1146 542"><rect width="1146" height="376" y="166" fill="#FAFAFA" rx="8"/><path fill="#52525B" d="M1117.71 344.707a1 1 0 0 0 0-1.414l-6.37-6.364a.996.996 0 0 0-1.41 0 1 1 0 0 0 0 1.414l5.66 5.657-5.66 5.657a1 1 0 0 0 0 1.414.994.994 0 0 0 1.41 0l6.37-6.364ZM22 345h4.488v-2H22v2Zm13.463 0h8.975v-2h-8.975v2Zm17.95 0h8.976v-2h-8.975v2Zm17.952 0h8.975v-2h-8.975v2Zm17.95 0h8.976v-2h-8.975v2Zm17.951 0h8.976v-2h-8.976v2Zm17.951 0h8.976v-2h-8.976v2Zm17.951 0h8.975v-2h-8.975v2Zm17.951 0h8.975v-2h-8.975v2Zm17.951 0h8.975v-2h-8.975v2Zm17.95 0h8.976v-2h-8.976v2Zm17.951 0h8.976v-2h-8.976v2Zm17.951 0h8.975v-2h-8.975v2Zm17.951 0h8.975v-2h-8.975v2Zm17.951 0h8.975v-2h-8.975v2Zm17.951 0h8.975v-2h-8.975v2Zm17.95 0h8.976v-2h-8.976v2Zm17.951 0h8.976v-2h-8.976v2Zm17.951 0h8.975v-2h-8.975v2Zm17.951 0h8.975v-2h-8.975v2Zm17.951 0h8.975v-2h-8.975v2Zm17.95 0h8.976v-2h-8.976v2Zm17.951 0h8.976v-2h-8.976v2Zm17.951 0h8.975v-2h-8.975v2Zm17.951 0h8.975v-2h-8.975v2Zm17.951 0h8.975v-2h-8.975v2Zm17.95 0h8.976v-2h-8.976v2Zm17.951 0h8.976v-2h-8.976v2Zm17.951 0h8.975v-2h-8.975v2Zm17.951 0h8.975v-2h-8.975v2Zm17.951 0h8.975v-2h-8.975v2Zm17.95 0h8.976v-2h-8.976v2Zm17.951 0h8.976v-2h-8.976v2Zm17.951 0h8.975v-2h-8.975v2Zm17.951 0h8.975v-2h-8.975v2Zm17.951 0h8.975v-2h-8.975v2Zm17.95 0h8.976v-2h-8.976v2Zm17.951 0h8.976v-2h-8.976v2Zm17.951 0h8.975v-2h-8.975v2Zm17.951 0h8.975v-2h-8.975v2Zm17.951 0h8.975v-2h-8.975v2Zm17.95 0h8.976v-2h-8.976v2Zm17.951 0h8.976v-2h-8.976v2Zm17.951 0h8.975v-2h-8.975v2Zm17.951 0h8.975v-2h-8.975v2Zm17.951 0h8.975v-2h-8.975v2Zm17.951 0h8.975v-2h-8.975v2Zm17.95 0h8.976v-2H861.2v2Zm17.951 0h8.976v-2h-8.976v2Zm17.951 0h8.975v-2h-8.975v2Zm17.951 0h8.975v-2h-8.975v2Zm17.951 0h8.975v-2h-8.975v2Zm17.95 0h8.976v-2h-8.976v2Zm17.951 0h8.976v-2h-8.976v2Zm17.951 0h8.975v-2h-8.975v2Zm17.954 0h8.97v-2h-8.97v2Zm17.95 0h8.97v-2h-8.97v2Zm17.95 0h8.97v-2h-8.97v2Zm17.95 0h8.97v-2h-8.97v2Zm17.95 0h8.98v-2h-8.98v2Zm17.95 0h8.98v-2h-8.98v2Zm17.95 0h4.49v-2h-4.49v2Zm5.9.414c.79-.781.79-2.047 0-2.828l-12.72-12.728a2.001 2.001 0 0 0-2.83 2.828L1114.17 344l-11.31 11.314a2.001 2.001 0 0 0 2.83 2.828l12.72-12.728ZM22 346h4.488v-4H22v4Zm13.463 0h8.975v-4h-8.975v4Zm17.95 0h8.976v-4h-8.975v4Zm17.952 0h8.975v-4h-8.975v4Zm17.95 0h8.976v-4h-8.975v4Zm17.951 0h8.976v-4h-8.976v4Zm17.951 0h8.976v-4h-8.976v4Zm17.951 0h8.975v-4h-8.975v4Zm17.951 0h8.975v-4h-8.975v4Zm17.951 0h8.975v-4h-8.975v4Zm17.95 0h8.976v-4h-8.976v4Zm17.951 0h8.976v-4h-8.976v4Zm17.951 0h8.975v-4h-8.975v4Zm17.951 0h8.975v-4h-8.975v4Zm17.951 0h8.975v-4h-8.975v4Zm17.951 0h8.975v-4h-8.975v4Zm17.95 0h8.976v-4h-8.976v4Zm17.951 0h8.976v-4h-8.976v4Zm17.951 0h8.975v-4h-8.975v4Zm17.951 0h8.975v-4h-8.975v4Zm17.951 0h8.975v-4h-8.975v4Zm17.95 0h8.976v-4h-8.976v4Zm17.951 0h8.976v-4h-8.976v4Zm17.951 0h8.975v-4h-8.975v4Zm17.951 0h8.975v-4h-8.975v4Zm17.951 0h8.975v-4h-8.975v4Zm17.95 0h8.976v-4h-8.976v4Zm17.951 0h8.976v-4h-8.976v4Zm17.951 0h8.975v-4h-8.975v4Zm17.951 0h8.975v-4h-8.975v4Zm17.951 0h8.975v-4h-8.975v4Zm17.95 0h8.976v-4h-8.976v4Zm17.951 0h8.976v-4h-8.976v4Zm17.951 0h8.975v-4h-8.975v4Zm17.951 0h8.975v-4h-8.975v4Zm17.951 0h8.975v-4h-8.975v4Zm17.95 0h8.976v-4h-8.976v4Zm17.951 0h8.976v-4h-8.976v4Zm17.951 0h8.975v-4h-8.975v4Zm17.951 0h8.975v-4h-8.975v4Zm17.951 0h8.975v-4h-8.975v4Zm17.95 0h8.976v-4h-8.976v4Zm17.951 0h8.976v-4h-8.976v4Zm17.951 0h8.975v-4h-8.975v4Zm17.951 0h8.975v-4h-8.975v4Zm17.951 0h8.975v-4h-8.975v4Zm17.951 0h8.975v-4h-8.975v4Zm17.95 0h8.976v-4H861.2v4Zm17.951 0h8.976v-4h-8.976v4Zm17.951 0h8.975v-4h-8.975v4Zm17.951 0h8.975v-4h-8.975v4Zm17.951 0h8.975v-4h-8.975v4Zm17.95 0h8.976v-4h-8.976v4Zm17.951 0h8.976v-4h-8.976v4Zm17.951 0h8.975v-4h-8.975v4Zm17.954 0h8.97v-4h-8.97v4Zm17.95 0h8.97v-4h-8.97v4Zm17.95 0h8.97v-4h-8.97v4Zm17.95 0h8.97v-4h-8.97v4Zm17.95 0h8.98v-4h-8.98v4Zm17.95 0h8.98v-4h-8.98v4Zm17.95 0h4.49v-4h-4.49v4Z"/><rect width="365" height="82" x="56" y="303" fill="#E4E4E7" rx="8"/><path fill="#18181B" d="M163.418 353v-17.455h6.392c1.238 0 2.264.205 3.076.614.813.403 1.421.952 1.824 1.645.404.687.605 1.463.605 2.327 0 .727-.133 1.341-.4 1.841a3.298 3.298 0 0 1-1.074 1.193 4.731 4.731 0 0 1-1.466.647v.171c.58.028 1.145.216 1.696.562.557.341 1.017.827 1.381 1.458.363.631.545 1.398.545 2.301 0 .892-.21 1.693-.631 2.403-.414.705-1.056 1.265-1.926 1.679-.869.409-1.98.614-3.332.614h-6.69Zm2.633-2.259h3.801c1.262 0 2.165-.244 2.71-.732.546-.489.819-1.1.819-1.833a2.88 2.88 0 0 0-.418-1.517 2.976 2.976 0 0 0-1.193-1.099c-.511-.273-1.119-.409-1.824-.409h-3.895v5.59Zm0-7.644h3.529c.59 0 1.122-.114 1.593-.341a2.797 2.797 0 0 0 1.134-.955c.284-.415.426-.903.426-1.466 0-.721-.253-1.326-.759-1.815-.505-.489-1.281-.733-2.326-.733h-3.597v5.31Zm15.413-7.552V353h-2.548v-17.455h2.548Zm8.943 17.719c-1.227 0-2.298-.281-3.213-.844-.915-.562-1.625-1.349-2.131-2.36-.505-1.012-.758-2.194-.758-3.546 0-1.358.253-2.545.758-3.562.506-1.017 1.216-1.807 2.131-2.37.915-.562 1.986-.843 3.213-.843s2.298.281 3.213.843c.915.563 1.625 1.353 2.131 2.37.505 1.017.758 2.204.758 3.562 0 1.352-.253 2.534-.758 3.546-.506 1.011-1.216 1.798-2.131 2.36-.915.563-1.986.844-3.213.844Zm.008-2.139c.796 0 1.455-.21 1.978-.631.522-.42.909-.98 1.159-1.679.256-.699.383-1.468.383-2.309 0-.836-.127-1.603-.383-2.301-.25-.705-.637-1.27-1.159-1.696-.523-.427-1.182-.64-1.978-.64-.801 0-1.465.213-1.994.64-.523.426-.912.991-1.167 1.696a6.78 6.78 0 0 0-.375 2.301c0 .841.125 1.61.375 2.309.255.699.644 1.259 1.167 1.679.529.421 1.193.631 1.994.631Zm14.453 2.139c-1.267 0-2.358-.287-3.273-.861-.909-.579-1.608-1.377-2.096-2.394-.489-1.018-.733-2.182-.733-3.495 0-1.329.25-2.503.75-3.52.5-1.022 1.204-1.821 2.113-2.395.909-.573 1.98-.86 3.213-.86.995 0 1.881.184 2.659.554a4.76 4.76 0 0 1 1.884 1.534c.483.659.77 1.429.861 2.309h-2.48a2.975 2.975 0 0 0-.938-1.585c-.483-.443-1.131-.665-1.943-.665-.71 0-1.332.188-1.867.563-.528.369-.94.898-1.235 1.585-.296.682-.444 1.489-.444 2.421 0 .954.145 1.778.435 2.471.29.693.699 1.23 1.227 1.611.535.381 1.162.571 1.884.571.483 0 .92-.088 1.312-.264.398-.182.731-.441.998-.776.272-.335.463-.738.571-1.21h2.48a4.821 4.821 0 0 1-.827 2.267c-.46.665-1.077 1.187-1.849 1.568-.767.381-1.668.571-2.702.571Zm10.447-4.704-.017-3.111h.443l5.216-5.54h3.051l-5.949 6.307h-.401l-2.343 2.344Zm-2.344 4.44v-17.455h2.548V353h-2.548Zm8.267 0-4.688-6.222 1.756-1.781 6.06 8.003h-3.128Zm5.092 0v-13.091h2.549V353h-2.549Zm1.287-15.111c-.443 0-.824-.148-1.142-.443a1.443 1.443 0 0 1-.469-1.074c0-.42.157-.778.469-1.074a1.603 1.603 0 0 1 1.142-.451c.443 0 .821.15 1.134.451.318.296.477.654.477 1.074 0 .415-.159.773-.477 1.074a1.594 1.594 0 0 1-1.134.443Zm7.238 7.338V353h-2.548v-13.091h2.446v2.131h.162a3.747 3.747 0 0 1 1.415-1.671c.647-.42 1.463-.63 2.446-.63.892 0 1.673.187 2.343.562.671.369 1.191.921 1.56 1.654.369.732.554 1.639.554 2.718V353h-2.548v-8.02c0-.949-.247-1.69-.742-2.224-.494-.54-1.173-.81-2.037-.81-.591 0-1.116.128-1.576.384-.455.255-.816.63-1.083 1.125-.261.488-.392 1.079-.392 1.772Zm17.284 12.955c-1.04 0-1.934-.137-2.684-.409-.745-.273-1.353-.634-1.824-1.083a4.54 4.54 0 0 1-1.057-1.474l2.19-.904c.154.25.358.515.614.793.261.284.613.526 1.057.725.449.198 1.025.298 1.73.298.966 0 1.764-.236 2.395-.708.63-.465.946-1.21.946-2.232v-2.574h-.162a5.857 5.857 0 0 1-.665.929c-.284.341-.676.636-1.176.886-.5.25-1.151.375-1.952.375-1.034 0-1.966-.242-2.795-.724-.824-.489-1.478-1.208-1.961-2.157-.477-.954-.715-2.128-.715-3.52s.235-2.585.707-3.579c.477-.994 1.131-1.756 1.96-2.284.83-.534 1.77-.801 2.821-.801.813 0 1.469.136 1.969.409.5.267.889.579 1.168.937.284.358.502.674.656.946h.187v-2.122h2.497v13.381c0 1.125-.261 2.048-.784 2.77-.522.721-1.23 1.255-2.122 1.602-.886.347-1.886.52-3 .52Zm-.025-7.492c.733 0 1.352-.17 1.858-.511.511-.347.897-.841 1.159-1.483.267-.648.4-1.423.4-2.327 0-.88-.13-1.656-.392-2.326-.261-.671-.645-1.194-1.15-1.569-.506-.38-1.131-.571-1.875-.571-.767 0-1.407.199-1.918.597-.511.392-.898.926-1.159 1.602-.256.676-.384 1.432-.384 2.267 0 .858.131 1.611.392 2.259.262.648.648 1.153 1.16 1.517.517.364 1.153.545 1.909.545Zm21.811-10.781v2.046h-7.15v-2.046h7.15Zm-5.233-3.136h2.549v12.383c0 .495.074.867.221 1.117.148.244.338.412.571.503.239.085.498.127.776.127.204 0 .383-.014.537-.042l.358-.068.46 2.105a4.3 4.3 0 0 1-.631.17 4.9 4.9 0 0 1-1.022.102 4.473 4.473 0 0 1-1.875-.358 3.214 3.214 0 0 1-1.407-1.159c-.358-.522-.537-1.179-.537-1.968v-12.912Zm11.862 16.517c-.83 0-1.58-.154-2.25-.46a3.798 3.798 0 0 1-1.594-1.356c-.386-.59-.579-1.315-.579-2.173 0-.739.142-1.346.426-1.824a3.14 3.14 0 0 1 1.15-1.133 5.989 5.989 0 0 1 1.62-.631c.596-.142 1.204-.25 1.824-.324l1.909-.221c.488-.063.843-.162 1.065-.299.222-.136.332-.358.332-.664v-.06c0-.744-.21-1.321-.63-1.73-.415-.409-1.034-.614-1.858-.614-.858 0-1.534.19-2.029.571-.488.375-.826.793-1.014 1.253l-2.395-.545c.284-.796.699-1.438 1.245-1.927a5.037 5.037 0 0 1 1.9-1.073 7.4 7.4 0 0 1 2.259-.341c.522 0 1.076.062 1.662.187a4.85 4.85 0 0 1 1.653.665c.517.324.94.787 1.27 1.389.329.597.494 1.372.494 2.327V353h-2.488v-1.79h-.103a3.61 3.61 0 0 1-.741.972c-.33.318-.753.582-1.27.792-.517.211-1.136.316-1.858.316Zm.554-2.046c.705 0 1.307-.139 1.807-.417.505-.279.889-.642 1.15-1.091.267-.455.401-.941.401-1.458v-1.687c-.091.091-.267.176-.528.256a8.537 8.537 0 0 1-.878.196c-.33.051-.651.099-.963.145a64.13 64.13 0 0 0-.785.102 6.274 6.274 0 0 0-1.355.315 2.331 2.331 0 0 0-.971.639c-.239.273-.358.637-.358 1.091 0 .631.233 1.108.699 1.432.466.318 1.059.477 1.781.477Zm19.11-8.139-2.31.409a2.733 2.733 0 0 0-.46-.844 2.28 2.28 0 0 0-.835-.656c-.352-.17-.793-.255-1.321-.255-.722 0-1.324.161-1.807.485-.483.318-.724.73-.724 1.236 0 .438.162.79.485 1.057.324.267.847.486 1.569.656l2.079.477c1.205.279 2.102.708 2.693 1.287.591.58.887 1.333.887 2.259 0 .784-.228 1.483-.682 2.096-.449.608-1.077 1.086-1.884 1.432-.801.347-1.73.52-2.787.52-1.465 0-2.661-.312-3.588-.937-.926-.631-1.494-1.526-1.704-2.685l2.463-.375c.153.642.469 1.128.946 1.457.477.324 1.099.486 1.866.486.836 0 1.503-.173 2.003-.52.5-.352.75-.781.75-1.287 0-.409-.153-.752-.46-1.031-.301-.278-.764-.488-1.389-.631l-2.216-.485c-1.222-.279-2.125-.722-2.71-1.33-.58-.608-.87-1.378-.87-2.31 0-.772.216-1.448.648-2.028.432-.579 1.028-1.031 1.79-1.355.761-.33 1.633-.494 2.616-.494 1.415 0 2.529.306 3.341.92.813.608 1.35 1.423 1.611 2.446Zm5.401 5.455-.017-3.111h.443l5.216-5.54h3.051l-5.948 6.307h-.401l-2.344 2.344Zm-2.343 4.44v-17.455h2.548V353h-2.548Zm8.267 0-4.688-6.222 1.756-1.781L314.67 353h-3.127Z"/><rect width="194" height="82" x="467" y="303" fill="#FCEFCF" rx="8"/><path fill="#78350F" d="M510.213 357.909v-18h2.489v2.122h.213c.148-.272.361-.588.639-.946s.665-.67 1.159-.937c.494-.273 1.148-.409 1.96-.409 1.057 0 2 .267 2.83.801.829.534 1.48 1.304 1.952 2.309.477 1.006.715 2.216.715 3.631 0 1.415-.235 2.628-.707 3.639-.472 1.006-1.119 1.782-1.943 2.327-.824.54-1.764.81-2.821.81-.796 0-1.446-.134-1.952-.401-.5-.267-.892-.579-1.176-.937a7.092 7.092 0 0 1-.656-.955h-.154v6.946h-2.548Zm2.497-11.454c0 .92.134 1.727.401 2.42.267.693.653 1.236 1.159 1.628.506.386 1.125.579 1.858.579.761 0 1.398-.201 1.909-.605.511-.409.898-.963 1.159-1.662.267-.699.401-1.485.401-2.36 0-.864-.131-1.64-.392-2.327-.256-.688-.642-1.23-1.16-1.628-.511-.398-1.15-.597-1.917-.597-.739 0-1.364.191-1.875.571-.506.381-.889.912-1.151 1.594-.261.682-.392 1.477-.392 2.387Zm17.83 6.809c-1.227 0-2.299-.281-3.213-.844-.915-.562-1.625-1.349-2.131-2.36-.506-1.012-.758-2.194-.758-3.546 0-1.358.252-2.545.758-3.562s1.216-1.807 2.131-2.37c.914-.562 1.986-.843 3.213-.843s2.298.281 3.213.843c.915.563 1.625 1.353 2.131 2.37.505 1.017.758 2.204.758 3.562 0 1.352-.253 2.534-.758 3.546-.506 1.011-1.216 1.798-2.131 2.36-.915.563-1.986.844-3.213.844Zm.008-2.139c.796 0 1.455-.21 1.978-.631.522-.42.909-.98 1.159-1.679.255-.699.383-1.468.383-2.309a6.66 6.66 0 0 0-.383-2.301c-.25-.705-.637-1.27-1.159-1.696-.523-.427-1.182-.64-1.978-.64-.801 0-1.466.213-1.994.64-.523.426-.912.991-1.168 1.696a6.78 6.78 0 0 0-.375 2.301c0 .841.125 1.61.375 2.309.256.699.645 1.259 1.168 1.679.528.421 1.193.631 1.994.631Zm8.939 1.875v-13.091h2.548V353h-2.548Zm1.286-15.111c-.443 0-.823-.148-1.142-.443a1.442 1.442 0 0 1-.468-1.074c0-.42.156-.778.468-1.074a1.605 1.605 0 0 1 1.142-.451c.444 0 .821.15 1.134.451.318.296.477.654.477 1.074 0 .415-.159.773-.477 1.074-.313.295-.69.443-1.134.443Zm7.238 7.338V353h-2.548v-13.091h2.446v2.131h.162a3.747 3.747 0 0 1 1.415-1.671c.648-.42 1.463-.63 2.446-.63.892 0 1.673.187 2.344.562.67.369 1.19.921 1.559 1.654.37.732.554 1.639.554 2.718V353h-2.548v-8.02c0-.949-.247-1.69-.742-2.224-.494-.54-1.173-.81-2.037-.81-.59 0-1.116.128-1.576.384-.455.255-.816.63-1.083 1.125-.261.488-.392 1.079-.392 1.772Zm17.907-5.318v2.046h-7.151v-2.046h7.151Zm-5.233-3.136h2.548v12.383c0 .495.074.867.222 1.117.147.244.338.412.571.503.238.085.497.127.775.127.205 0 .384-.014.537-.042l.358-.068.46 2.105a4.28 4.28 0 0 1-.63.17 4.917 4.917 0 0 1-1.023.102 4.473 4.473 0 0 1-1.875-.358 3.211 3.211 0 0 1-1.406-1.159c-.358-.522-.537-1.179-.537-1.968v-12.912Zm13.553 16.491c-1.29 0-2.401-.275-3.332-.826-.927-.557-1.643-1.339-2.148-2.344-.5-1.012-.75-2.196-.75-3.554 0-1.341.25-2.523.75-3.546.505-1.022 1.21-1.821 2.113-2.395.91-.573 1.972-.86 3.188-.86.739 0 1.454.122 2.148.366a5.193 5.193 0 0 1 1.866 1.151c.551.522.986 1.201 1.304 2.037.318.829.477 1.838.477 3.025v.904h-10.406v-1.91h7.909c0-.67-.136-1.264-.409-1.781a3.107 3.107 0 0 0-1.15-1.236c-.489-.301-1.063-.451-1.722-.451-.716 0-1.341.176-1.875.528a3.543 3.543 0 0 0-1.227 1.364 3.938 3.938 0 0 0-.426 1.815v1.492c0 .875.153 1.619.46 2.233a3.328 3.328 0 0 0 1.304 1.406c.557.318 1.207.477 1.951.477a4.07 4.07 0 0 0 1.322-.204 2.88 2.88 0 0 0 1.031-.631 2.75 2.75 0 0 0 .665-1.031l2.411.434a4.367 4.367 0 0 1-1.039 1.867c-.495.528-1.117.94-1.867 1.236-.744.289-1.594.434-2.548.434Zm8.444-.264v-13.091h2.463v2.08h.136a3.16 3.16 0 0 1 1.262-1.662 3.61 3.61 0 0 1 2.062-.614 11.338 11.338 0 0 1 1.083.06v2.437a4.912 4.912 0 0 0-.546-.094 5.305 5.305 0 0 0-.784-.059c-.602 0-1.139.128-1.611.383a2.851 2.851 0 0 0-1.517 2.566V353h-2.548Zm17.503-5.429v-7.662h2.557V353h-2.505v-2.267h-.137c-.301.699-.784 1.281-1.449 1.747-.659.46-1.48.69-2.463.69-.841 0-1.585-.184-2.233-.554-.642-.375-1.147-.928-1.517-1.661-.363-.733-.545-1.64-.545-2.719v-8.327h2.548v8.02c0 .892.247 1.602.742 2.131.494.528 1.136.792 1.926.792.477 0 .951-.119 1.423-.358a2.998 2.998 0 0 0 1.185-1.082c.318-.483.474-1.097.468-1.841Zm5.981 10.338v-18h2.489v2.122h.213c.148-.272.361-.588.639-.946.279-.358.665-.67 1.159-.937.495-.273 1.148-.409 1.96-.409 1.057 0 2 .267 2.83.801.83.534 1.48 1.304 1.952 2.309.477 1.006.716 2.216.716 3.631 0 1.415-.236 2.628-.708 3.639-.471 1.006-1.119 1.782-1.943 2.327-.824.54-1.764.81-2.821.81-.795 0-1.446-.134-1.952-.401-.5-.267-.892-.579-1.176-.937a7.092 7.092 0 0 1-.656-.955h-.154v6.946h-2.548Zm2.497-11.454c0 .92.134 1.727.401 2.42.267.693.653 1.236 1.159 1.628.506.386 1.125.579 1.858.579.761 0 1.398-.201 1.909-.605.511-.409.898-.963 1.159-1.662.267-.699.401-1.485.401-2.36 0-.864-.131-1.64-.392-2.327-.256-.688-.642-1.23-1.159-1.628-.512-.398-1.151-.597-1.918-.597-.739 0-1.364.191-1.875.571-.506.381-.889.912-1.151 1.594-.261.682-.392 1.477-.392 2.387Z"/><rect width="178" height="82" x="674" y="303" fill="#FCEFCF" rx="8"/><path fill="#78350F" d="M711.713 353v-13.091h2.446v2.131h.162a3.387 3.387 0 0 1 1.338-1.688c.619-.409 1.361-.613 2.225-.613.875 0 1.607.204 2.198.613.597.409 1.037.972 1.321 1.688h.137a3.68 3.68 0 0 1 1.491-1.671c.682-.42 1.495-.63 2.438-.63 1.187 0 2.156.372 2.906 1.116.756.744 1.134 1.867 1.134 3.367V353h-2.549v-8.54c0-.886-.241-1.528-.724-1.926-.483-.398-1.06-.596-1.73-.596-.83 0-1.475.255-1.935.767-.46.505-.69 1.156-.69 1.951V353h-2.54v-8.702c0-.71-.222-1.281-.665-1.713-.443-.432-1.02-.647-1.73-.647-.483 0-.929.127-1.338.383-.403.25-.73.599-.98 1.048-.244.449-.367.969-.367 1.56V353h-2.548Zm26.725.264c-1.227 0-2.298-.281-3.213-.844-.915-.562-1.625-1.349-2.131-2.36-.505-1.012-.758-2.194-.758-3.546 0-1.358.253-2.545.758-3.562.506-1.017 1.216-1.807 2.131-2.37.915-.562 1.986-.843 3.213-.843s2.299.281 3.213.843c.915.563 1.625 1.353 2.131 2.37.506 1.017.758 2.204.758 3.562 0 1.352-.252 2.534-.758 3.546-.506 1.011-1.216 1.798-2.131 2.36-.914.563-1.986.844-3.213.844Zm.009-2.139c.795 0 1.454-.21 1.977-.631.523-.42.909-.98 1.159-1.679.256-.699.384-1.468.384-2.309 0-.836-.128-1.603-.384-2.301-.25-.705-.636-1.27-1.159-1.696-.523-.427-1.182-.64-1.977-.64-.801 0-1.466.213-1.995.64-.522.426-.912.991-1.167 1.696a6.78 6.78 0 0 0-.375 2.301c0 .841.125 1.61.375 2.309.255.699.645 1.259 1.167 1.679.529.421 1.194.631 1.995.631Zm17.231-3.554v-7.662h2.556V353h-2.505v-2.267h-.137c-.301.699-.784 1.281-1.449 1.747-.659.46-1.48.69-2.463.69-.841 0-1.585-.184-2.233-.554-.642-.375-1.147-.928-1.517-1.661-.363-.733-.545-1.64-.545-2.719v-8.327h2.548v8.02c0 .892.247 1.602.742 2.131.494.528 1.136.792 1.926.792.477 0 .952-.119 1.423-.358a2.998 2.998 0 0 0 1.185-1.082c.318-.483.474-1.097.469-1.841Zm15.79-4.466-2.31.409a2.733 2.733 0 0 0-.46-.844 2.28 2.28 0 0 0-.835-.656c-.352-.17-.793-.255-1.321-.255-.722 0-1.324.161-1.807.485-.483.318-.724.73-.724 1.236 0 .438.162.79.485 1.057.324.267.847.486 1.569.656l2.079.477c1.205.279 2.102.708 2.693 1.287.591.58.887 1.333.887 2.259 0 .784-.228 1.483-.682 2.096-.449.608-1.077 1.086-1.884 1.432-.801.347-1.73.52-2.787.52-1.465 0-2.661-.312-3.588-.937-.926-.631-1.494-1.526-1.704-2.685l2.463-.375c.153.642.469 1.128.946 1.457.477.324 1.099.486 1.866.486.836 0 1.503-.173 2.003-.52.5-.352.75-.781.75-1.287 0-.409-.153-.752-.46-1.031-.301-.278-.764-.488-1.389-.631l-2.216-.485c-1.222-.279-2.125-.722-2.71-1.33-.58-.608-.87-1.378-.87-2.31 0-.772.216-1.448.648-2.028.432-.579 1.028-1.031 1.79-1.355.761-.33 1.633-.494 2.616-.494 1.415 0 2.529.306 3.341.92.813.608 1.35 1.423 1.611 2.446Zm8.7 10.159c-1.29 0-2.401-.275-3.333-.826-.926-.557-1.642-1.339-2.147-2.344-.5-1.012-.75-2.196-.75-3.554 0-1.341.25-2.523.75-3.546.505-1.022 1.21-1.821 2.113-2.395.909-.573 1.972-.86 3.188-.86a6.42 6.42 0 0 1 2.147.366 5.189 5.189 0 0 1 1.867 1.151c.551.522.986 1.201 1.304 2.037.318.829.477 1.838.477 3.025v.904h-10.406v-1.91h7.909c0-.67-.136-1.264-.409-1.781a3.102 3.102 0 0 0-1.151-1.236c-.488-.301-1.062-.451-1.721-.451-.716 0-1.341.176-1.875.528a3.546 3.546 0 0 0-1.228 1.364 3.938 3.938 0 0 0-.426 1.815v1.492c0 .875.154 1.619.461 2.233a3.332 3.332 0 0 0 1.303 1.406c.557.318 1.208.477 1.952.477.483 0 .923-.068 1.321-.204a2.863 2.863 0 0 0 1.031-.631c.29-.279.512-.622.665-1.031l2.412.434a4.369 4.369 0 0 1-1.04 1.867c-.494.528-1.116.94-1.866 1.236-.744.289-1.594.434-2.548.434Zm16.736-5.693v-7.662h2.557V353h-2.506v-2.267h-.136c-.301.699-.784 1.281-1.449 1.747-.659.46-1.48.69-2.463.69-.841 0-1.585-.184-2.233-.554-.642-.375-1.148-.928-1.517-1.661-.364-.733-.545-1.64-.545-2.719v-8.327h2.548v8.02c0 .892.247 1.602.741 2.131.495.528 1.137.792 1.926.792.478 0 .952-.119 1.424-.358a2.989 2.989 0 0 0 1.184-1.082c.319-.483.475-1.097.469-1.841Zm5.981 10.338v-18h2.489v2.122h.213a7.04 7.04 0 0 1 .639-.946c.278-.358.665-.67 1.159-.937.494-.273 1.148-.409 1.96-.409 1.057 0 2 .267 2.83.801.829.534 1.48 1.304 1.951 2.309.478 1.006.716 2.216.716 3.631 0 1.415-.235 2.628-.707 3.639-.472 1.006-1.119 1.782-1.943 2.327-.824.54-1.764.81-2.821.81-.796 0-1.446-.134-1.952-.401-.5-.267-.892-.579-1.176-.937a7.092 7.092 0 0 1-.656-.955h-.154v6.946h-2.548Zm2.497-11.454c0 .92.134 1.727.401 2.42.267.693.653 1.236 1.159 1.628.505.386 1.125.579 1.858.579.761 0 1.397-.201 1.909-.605.511-.409.898-.963 1.159-1.662.267-.699.4-1.485.4-2.36 0-.864-.13-1.64-.392-2.327-.255-.688-.642-1.23-1.159-1.628-.511-.398-1.15-.597-1.917-.597-.739 0-1.364.191-1.875.571-.506.381-.889.912-1.151 1.594-.261.682-.392 1.477-.392 2.387Z"/><rect width="155" height="82" x="865" y="303" fill="#FCEFCF" rx="8"/><path fill="#78350F" d="M923.227 353.264c-1.267 0-2.358-.287-3.272-.861-.91-.579-1.608-1.377-2.097-2.394-.489-1.018-.733-2.182-.733-3.495 0-1.329.25-2.503.75-3.52.5-1.022 1.205-1.821 2.114-2.395.909-.573 1.98-.86 3.213-.86.994 0 1.88.184 2.659.554a4.764 4.764 0 0 1 1.883 1.534c.483.659.77 1.429.861 2.309h-2.48a2.974 2.974 0 0 0-.937-1.585c-.483-.443-1.131-.665-1.944-.665-.71 0-1.332.188-1.866.563-.529.369-.94.898-1.236 1.585-.295.682-.443 1.489-.443 2.421 0 .954.145 1.778.435 2.471.289.693.698 1.23 1.227 1.611.534.381 1.162.571 1.883.571.483 0 .921-.088 1.313-.264.398-.182.73-.441.997-.776a2.91 2.91 0 0 0 .571-1.21h2.48a4.81 4.81 0 0 1-.827 2.267c-.46.665-1.076 1.187-1.849 1.568-.767.381-1.668.571-2.702.571Zm10.652-17.719V353h-2.549v-17.455h2.549ZM937.307 353v-13.091h2.548V353h-2.548Zm1.287-15.111c-.443 0-.824-.148-1.142-.443a1.44 1.44 0 0 1-.469-1.074c0-.42.156-.778.469-1.074a1.603 1.603 0 0 1 1.142-.451c.443 0 .821.15 1.133.451.318.296.478.654.478 1.074 0 .415-.16.773-.478 1.074a1.59 1.59 0 0 1-1.133.443Zm10.204 15.375c-1.267 0-2.358-.287-3.273-.861-.909-.579-1.608-1.377-2.097-2.394-.488-1.018-.733-2.182-.733-3.495 0-1.329.25-2.503.75-3.52.5-1.022 1.205-1.821 2.114-2.395.909-.573 1.98-.86 3.213-.86.994 0 1.881.184 2.659.554a4.767 4.767 0 0 1 1.884 1.534c.483.659.77 1.429.86 2.309h-2.48a2.974 2.974 0 0 0-.937-1.585c-.483-.443-1.131-.665-1.943-.665-.711 0-1.333.188-1.867.563-.528.369-.94.898-1.236 1.585-.295.682-.443 1.489-.443 2.421 0 .954.145 1.778.435 2.471.29.693.699 1.23 1.227 1.611.534.381 1.162.571 1.884.571.483 0 .92-.088 1.312-.264.398-.182.73-.441.997-.776a2.91 2.91 0 0 0 .571-1.21h2.48a4.81 4.81 0 0 1-.826 2.267 4.763 4.763 0 0 1-1.85 1.568c-.767.381-1.667.571-2.701.571Zm10.446-4.704-.017-3.111h.443l5.216-5.54h3.052l-5.949 6.307h-.401l-2.344 2.344Zm-2.343 4.44v-17.455h2.548V353h-2.548Zm8.267 0-4.688-6.222 1.756-1.781 6.059 8.003h-3.127Z"/><g filter="url(#a)"><circle cx="191.5" cy="92.5" r="27.5" fill="#D1FAE5" fill-opacity=".95"/></g><circle cx="191.5" cy="92.5" r="27.5" fill="#D1FAE5" fill-opacity=".95"/><circle cx="191.5" cy="92.5" r="15" fill="#fff" fill-opacity=".7" stroke="#34D399" stroke-width="5"/><path stroke="#52525B" stroke-dasharray="9 9" stroke-linecap="round" stroke-width="4" d="M191.5 120v183"/><path fill="#52525B" d="M23.918 207.545h3.196l5.556 13.569h.205l5.557-13.569h3.196V225h-2.506v-12.631h-.162l-5.148 12.605h-2.079l-5.148-12.613h-.162V225h-2.505v-17.455Zm25.144 17.745c-.83 0-1.58-.154-2.25-.46a3.795 3.795 0 0 1-1.594-1.356c-.386-.59-.58-1.315-.58-2.173 0-.739.143-1.346.427-1.824a3.142 3.142 0 0 1 1.15-1.133 5.989 5.989 0 0 1 1.62-.631c.596-.142 1.204-.25 1.823-.324l1.91-.221c.488-.063.843-.162 1.065-.299.221-.136.332-.358.332-.664v-.06c0-.744-.21-1.321-.63-1.73-.415-.409-1.035-.614-1.858-.614-.858 0-1.534.19-2.029.571-.489.375-.827.793-1.014 1.253l-2.395-.545c.284-.796.699-1.438 1.244-1.927a5.04 5.04 0 0 1 1.9-1.073 7.398 7.398 0 0 1 2.26-.341c.522 0 1.076.062 1.661.187a4.863 4.863 0 0 1 1.654.665c.517.324.94.787 1.27 1.389.33.597.494 1.372.494 2.327V225h-2.489v-1.79h-.102c-.165.33-.412.654-.741.972-.33.318-.753.582-1.27.792-.517.211-1.137.316-1.858.316Zm.554-2.046c.704 0 1.307-.139 1.807-.417.505-.279.889-.642 1.15-1.091.267-.455.4-.941.4-1.458v-1.687c-.09.091-.266.176-.528.256a8.485 8.485 0 0 1-.877.196c-.33.051-.651.099-.964.145-.312.039-.573.073-.784.102a6.272 6.272 0 0 0-1.355.315 2.333 2.333 0 0 0-.971.639c-.239.273-.358.637-.358 1.091 0 .631.233 1.108.698 1.432.466.318 1.06.477 1.782.477Zm9.3 1.756v-13.091h2.549V225h-2.549Zm1.287-15.111c-.443 0-.824-.148-1.142-.443a1.44 1.44 0 0 1-.469-1.074c0-.42.157-.778.47-1.074a1.603 1.603 0 0 1 1.141-.451c.443 0 .821.15 1.134.451.318.296.477.654.477 1.074 0 .415-.16.773-.477 1.074-.313.295-.69.443-1.134.443Zm7.238 7.338V225h-2.548v-13.091h2.446v2.131h.162a3.747 3.747 0 0 1 1.414-1.671c.648-.42 1.464-.63 2.447-.63.892 0 1.673.187 2.343.562.67.369 1.19.921 1.56 1.654.37.732.554 1.639.554 2.718V225H73.27v-8.02c0-.949-.248-1.69-.742-2.224-.494-.54-1.173-.81-2.037-.81-.59 0-1.116.128-1.577.384a2.75 2.75 0 0 0-1.082 1.125c-.261.488-.392 1.079-.392 1.772Zm24.258-5.318v2.046h-7.15v-2.046h7.15Zm-5.233-3.136h2.548v12.383c0 .495.074.867.222 1.117.147.244.338.412.57.503.24.085.498.127.776.127.205 0 .384-.014.537-.042l.358-.068.46 2.105a4.294 4.294 0 0 1-.63.17 4.911 4.911 0 0 1-1.023.102 4.476 4.476 0 0 1-1.875-.358 3.214 3.214 0 0 1-1.406-1.159c-.358-.522-.537-1.179-.537-1.968v-12.912Zm10.881 8.454V225H94.8v-17.455h2.514v6.495h.162a3.762 3.762 0 0 1 1.406-1.679c.631-.415 1.455-.622 2.472-.622.898 0 1.682.184 2.352.554.676.369 1.199.92 1.568 1.653.375.727.563 1.636.563 2.727V225h-2.548v-8.02c0-.96-.248-1.704-.742-2.233-.494-.534-1.182-.801-2.062-.801-.603 0-1.142.128-1.62.384-.471.255-.843.63-1.116 1.125-.267.488-.4 1.079-.4 1.772Zm11.89 7.773v-13.091h2.463v2.08h.136a3.164 3.164 0 0 1 1.261-1.662 3.612 3.612 0 0 1 2.063-.614 11.301 11.301 0 0 1 1.082.06v2.437a4.838 4.838 0 0 0-.545-.094 5.316 5.316 0 0 0-.784-.059c-.603 0-1.14.128-1.611.383a2.851 2.851 0 0 0-1.517 2.566V225h-2.548Zm14.384.264c-1.29 0-2.401-.275-3.333-.826-.926-.557-1.642-1.339-2.147-2.344-.5-1.012-.75-2.196-.75-3.554 0-1.341.25-2.523.75-3.546.505-1.022 1.21-1.821 2.113-2.395.909-.573 1.972-.86 3.188-.86a6.42 6.42 0 0 1 2.147.366 5.189 5.189 0 0 1 1.867 1.151c.551.522.986 1.201 1.304 2.037.318.829.477 1.838.477 3.025v.904h-10.406v-1.91h7.909c0-.67-.136-1.264-.409-1.781a3.102 3.102 0 0 0-1.151-1.236c-.488-.301-1.062-.451-1.721-.451-.716 0-1.341.176-1.875.528a3.535 3.535 0 0 0-1.227 1.364 3.926 3.926 0 0 0-.427 1.815v1.492c0 .875.154 1.619.461 2.233a3.328 3.328 0 0 0 1.304 1.406c.556.318 1.207.477 1.951.477a4.06 4.06 0 0 0 1.321-.204 2.875 2.875 0 0 0 1.032-.631c.289-.279.511-.622.664-1.031l2.412.434a4.367 4.367 0 0 1-1.039 1.867c-.495.528-1.117.94-1.867 1.236-.744.289-1.594.434-2.548.434Zm12.253.026c-.829 0-1.579-.154-2.25-.46a3.796 3.796 0 0 1-1.593-1.356c-.387-.59-.58-1.315-.58-2.173 0-.739.142-1.346.426-1.824a3.142 3.142 0 0 1 1.151-1.133 5.982 5.982 0 0 1 1.619-.631c.597-.142 1.205-.25 1.824-.324l1.909-.221c.489-.063.844-.162 1.065-.299.222-.136.333-.358.333-.664v-.06c0-.744-.211-1.321-.631-1.73-.415-.409-1.034-.614-1.858-.614-.858 0-1.534.19-2.028.571-.489.375-.827.793-1.015 1.253l-2.394-.545c.284-.796.698-1.438 1.244-1.927a5.045 5.045 0 0 1 1.9-1.073 7.4 7.4 0 0 1 2.259-.341c.523 0 1.077.062 1.662.187a4.85 4.85 0 0 1 1.653.665c.517.324.941.787 1.27 1.389.33.597.495 1.372.495 2.327V225h-2.489v-1.79h-.102c-.165.33-.412.654-.742.972-.329.318-.753.582-1.27.792-.517.211-1.136.316-1.858.316Zm.554-2.046c.705 0 1.307-.139 1.807-.417.506-.279.889-.642 1.151-1.091.267-.455.4-.941.4-1.458v-1.687c-.091.091-.267.176-.528.256a8.478 8.478 0 0 1-.878.196c-.33.051-.651.099-.963.145-.313.039-.574.073-.784.102a6.26 6.26 0 0 0-1.355.315 2.328 2.328 0 0 0-.972.639c-.239.273-.358.637-.358 1.091 0 .631.233 1.108.699 1.432.466.318 1.06.477 1.781.477Zm14.201 2.012c-1.057 0-2-.27-2.829-.81-.824-.545-1.472-1.321-1.943-2.327-.466-1.011-.699-2.224-.699-3.639 0-1.415.235-2.625.707-3.631.477-1.005 1.131-1.775 1.96-2.309.83-.534 1.77-.801 2.821-.801.813 0 1.466.136 1.961.409.5.267.886.579 1.159.937.278.358.494.674.647.946h.154v-6.486h2.548V225h-2.489v-2.037h-.213a6.788 6.788 0 0 1-.664.955c-.285.358-.677.67-1.177.937s-1.147.401-1.943.401Zm.563-2.174c.733 0 1.352-.193 1.858-.579.511-.392.897-.935 1.159-1.628.267-.693.4-1.5.4-2.42 0-.91-.13-1.705-.392-2.387-.261-.682-.645-1.213-1.15-1.594-.506-.38-1.131-.571-1.875-.571-.767 0-1.406.199-1.918.597-.511.398-.898.94-1.159 1.628-.256.687-.383 1.463-.383 2.327 0 .875.13 1.661.392 2.36.261.699.647 1.253 1.159 1.662.517.404 1.153.605 1.909.605ZM136.551 8.545V26h-2.633V8.545h2.633Zm6.179 9.682V26h-2.548V12.91h2.446v2.13h.162a3.742 3.742 0 0 1 1.415-1.67c.647-.421 1.463-.631 2.446-.631.892 0 1.673.187 2.343.562.671.37 1.191.92 1.56 1.653s.554 1.64.554 2.72V26h-2.548v-8.02c0-.949-.247-1.69-.742-2.224-.494-.54-1.173-.81-2.037-.81-.591 0-1.116.128-1.576.383a2.76 2.76 0 0 0-1.083 1.125c-.261.49-.392 1.08-.392 1.773Zm17.906-5.318v2.045h-7.15V12.91h7.15Zm-5.233-3.136h2.549v12.383c0 .495.074.867.221 1.117.148.244.338.412.571.503.239.085.497.127.776.127.204 0 .383-.014.537-.042l.358-.068.46 2.105a4.29 4.29 0 0 1-.631.17 4.98 4.98 0 0 1-1.022.102 4.484 4.484 0 0 1-1.875-.358 3.216 3.216 0 0 1-1.407-1.159c-.358-.522-.537-1.179-.537-1.968V9.773Zm13.554 16.491c-1.29 0-2.401-.275-3.333-.826-.926-.557-1.642-1.339-2.147-2.344-.5-1.012-.75-2.196-.75-3.554 0-1.341.25-2.523.75-3.546.505-1.022 1.21-1.82 2.113-2.395.909-.573 1.972-.86 3.188-.86a6.42 6.42 0 0 1 2.147.366 5.196 5.196 0 0 1 1.867 1.15c.551.523.986 1.202 1.304 2.038.318.83.477 1.838.477 3.025v.904h-10.406v-1.91h7.909c0-.67-.136-1.264-.409-1.78a3.091 3.091 0 0 0-1.151-1.236c-.488-.302-1.062-.452-1.721-.452-.716 0-1.341.176-1.875.528a3.545 3.545 0 0 0-1.228 1.364 3.937 3.937 0 0 0-.426 1.815v1.492c0 .875.154 1.619.461 2.233a3.324 3.324 0 0 0 1.304 1.406c.556.318 1.207.477 1.951.477a4.06 4.06 0 0 0 1.321-.204 2.855 2.855 0 0 0 1.032-.631c.289-.279.511-.622.664-1.031l2.412.434a4.367 4.367 0 0 1-1.04 1.867c-.494.528-1.116.94-1.866 1.235-.744.29-1.594.435-2.548.435Zm8.444-.264V12.91h2.463v2.079H180a3.167 3.167 0 0 1 1.261-1.662 3.611 3.611 0 0 1 2.063-.614 10.834 10.834 0 0 1 1.082.06v2.437a4.566 4.566 0 0 0-.545-.094 5.21 5.21 0 0 0-.784-.06c-.603 0-1.139.129-1.611.384a2.851 2.851 0 0 0-1.517 2.566V26h-2.548Zm12.903.29c-.83 0-1.58-.154-2.25-.46a3.793 3.793 0 0 1-1.594-1.356c-.386-.59-.579-1.315-.579-2.173 0-.738.142-1.346.426-1.824a3.142 3.142 0 0 1 1.15-1.133 6.005 6.005 0 0 1 1.62-.63c.596-.143 1.204-.25 1.824-.325l1.909-.221c.488-.063.843-.162 1.065-.299.222-.136.332-.358.332-.665v-.06c0-.743-.21-1.32-.63-1.73-.415-.408-1.034-.613-1.858-.613-.858 0-1.534.19-2.029.571-.488.375-.826.793-1.014 1.253l-2.395-.546c.284-.795.699-1.437 1.245-1.926a5.043 5.043 0 0 1 1.9-1.074 7.424 7.424 0 0 1 2.259-.34 7.98 7.98 0 0 1 1.662.187 4.86 4.86 0 0 1 1.653.665c.517.324.94.787 1.27 1.39.329.596.494 1.371.494 2.326V26h-2.488v-1.79h-.103a3.61 3.61 0 0 1-.741.972c-.33.318-.753.582-1.27.792-.517.21-1.136.316-1.858.316Zm.554-2.046c.705 0 1.307-.139 1.807-.417.505-.279.889-.642 1.15-1.091a2.83 2.83 0 0 0 .401-1.458v-1.687c-.091.09-.267.176-.528.256a8.537 8.537 0 0 1-.878.196l-.963.145c-.313.04-.574.073-.785.102a6.321 6.321 0 0 0-1.355.315c-.403.148-.727.36-.971.64-.239.272-.358.636-.358 1.09 0 .63.233 1.108.699 1.432.466.318 1.059.477 1.781.477Zm14.815 2.02c-1.267 0-2.358-.287-3.273-.86-.909-.58-1.608-1.378-2.097-2.395-.488-1.018-.733-2.182-.733-3.495 0-1.33.25-2.503.75-3.52.5-1.022 1.205-1.82 2.114-2.395.909-.573 1.98-.86 3.213-.86.994 0 1.881.184 2.659.554a4.771 4.771 0 0 1 1.884 1.534c.483.659.77 1.429.86 2.31h-2.48a2.973 2.973 0 0 0-.937-1.586c-.483-.443-1.131-.665-1.943-.665-.711 0-1.333.188-1.867.563-.528.37-.94.898-1.236 1.585-.295.682-.443 1.489-.443 2.42 0 .955.145 1.779.435 2.472.29.693.699 1.23 1.227 1.61.534.382 1.162.572 1.884.572.483 0 .92-.088 1.312-.264.398-.182.73-.44.997-.776.273-.335.463-.739.571-1.21h2.48a4.81 4.81 0 0 1-.826 2.267 4.762 4.762 0 0 1-1.85 1.568c-.767.38-1.667.571-2.701.571Zm14.213-13.355v2.045h-7.15V12.91h7.15Zm-5.233-3.136h2.549v12.383c0 .495.074.867.221 1.117.148.244.338.412.571.503.239.085.497.127.776.127.204 0 .383-.014.537-.042l.358-.068.46 2.105a4.29 4.29 0 0 1-.631.17 4.98 4.98 0 0 1-1.022.102 4.484 4.484 0 0 1-1.875-.358 3.216 3.216 0 0 1-1.407-1.159c-.358-.522-.537-1.179-.537-1.968V9.773ZM222.705 26V12.91h2.549V26h-2.549Zm1.287-15.11a1.62 1.62 0 0 1-1.142-.444 1.443 1.443 0 0 1-.469-1.074c0-.42.157-.778.469-1.074a1.603 1.603 0 0 1 1.142-.451c.443 0 .821.15 1.134.451.318.296.477.654.477 1.074 0 .415-.159.773-.477 1.074a1.592 1.592 0 0 1-1.134.443Zm10.204 15.374c-1.227 0-2.298-.281-3.213-.843-.915-.563-1.625-1.35-2.131-2.361-.505-1.012-.758-2.194-.758-3.546 0-1.358.253-2.545.758-3.562.506-1.017 1.216-1.807 2.131-2.37.915-.562 1.986-.843 3.213-.843s2.298.28 3.213.843 1.625 1.353 2.131 2.37c.505 1.017.758 2.204.758 3.562 0 1.352-.253 2.534-.758 3.546-.506 1.011-1.216 1.798-2.131 2.36-.915.563-1.986.844-3.213.844Zm.009-2.139c.795 0 1.454-.21 1.977-.63.523-.421.909-.98 1.159-1.68.256-.699.383-1.468.383-2.31 0-.834-.127-1.602-.383-2.3-.25-.705-.636-1.27-1.159-1.696-.523-.427-1.182-.64-1.977-.64-.802 0-1.466.213-1.995.64-.522.426-.912.991-1.167 1.695a6.789 6.789 0 0 0-.375 2.302c0 .84.125 1.61.375 2.31.255.698.645 1.258 1.167 1.678.529.42 1.193.631 1.995.631Zm11.486-5.898V26h-2.548V12.91h2.446v2.13h.162a3.74 3.74 0 0 1 1.414-1.67c.648-.421 1.464-.631 2.447-.631.892 0 1.673.187 2.343.562.671.37 1.191.92 1.56 1.653s.554 1.64.554 2.72V26h-2.548v-8.02c0-.949-.248-1.69-.742-2.224-.494-.54-1.173-.81-2.037-.81-.591 0-1.116.128-1.577.383a2.76 2.76 0 0 0-1.082 1.125c-.261.49-.392 1.08-.392 1.773Z"/><path stroke="#18181B" stroke-linecap="round" stroke-width="4" d="M467 447v24"/><path fill="#18181B" d="M467 457a2 2 0 1 0 0 4v-4Zm0 4h147.5v-4H467v4Zm163.897 9v-21.818h7.777c1.697 0 3.104.309 4.219.927 1.115.618 1.949 1.463 2.503 2.535.554 1.066.831 2.266.831 3.601 0 1.342-.28 2.55-.841 3.622-.554 1.066-1.392 1.911-2.515 2.536-1.115.618-2.517.927-4.208.927h-5.348v-2.792h5.05c1.073 0 1.943-.184 2.61-.554.668-.376 1.158-.887 1.47-1.534.313-.646.469-1.381.469-2.205 0-.824-.156-1.555-.469-2.195-.312-.639-.806-1.139-1.481-1.502-.667-.362-1.548-.543-2.642-.543h-4.133V470h-3.292Zm18.934 0v-16.364h3.079v2.6h.17a3.957 3.957 0 0 1 1.577-2.078c.76-.511 1.619-.767 2.578-.767.199 0 .433.007.703.022.277.014.494.032.65.053v3.047a5.498 5.498 0 0 0-.682-.117 6.468 6.468 0 0 0-.98-.075c-.753 0-1.424.16-2.014.479a3.561 3.561 0 0 0-1.384 1.311c-.341.554-.512 1.186-.512 1.896V470h-3.185Zm17.82.33c-1.534 0-2.873-.351-4.016-1.054-1.144-.704-2.031-1.687-2.663-2.951-.633-1.265-.949-2.742-.949-4.432 0-1.698.316-3.182.949-4.453.632-1.272 1.519-2.259 2.663-2.962 1.143-.703 2.482-1.055 4.016-1.055 1.534 0 2.873.352 4.017 1.055 1.143.703 2.031 1.69 2.663 2.962.632 1.271.948 2.755.948 4.453 0 1.69-.316 3.167-.948 4.432-.632 1.264-1.52 2.247-2.663 2.951-1.144.703-2.483 1.054-4.017 1.054Zm.011-2.674c.994 0 1.818-.263 2.472-.788.653-.526 1.136-1.225 1.448-2.099.32-.873.48-1.836.48-2.887 0-1.044-.16-2.003-.48-2.876-.312-.881-.795-1.588-1.448-2.12-.654-.533-1.478-.799-2.472-.799-1.001 0-1.832.266-2.493.799-.653.532-1.14 1.239-1.459 2.12-.313.873-.469 1.832-.469 2.876 0 1.051.156 2.014.469 2.887.319.874.806 1.573 1.459 2.099.661.525 1.492.788 2.493.788Zm18.065 2.674c-1.583 0-2.947-.358-4.09-1.076-1.137-.724-2.01-1.722-2.621-2.993-.611-1.272-.916-2.728-.916-4.368 0-1.662.312-3.129.937-4.4.625-1.279 1.506-2.276 2.642-2.994 1.137-.717 2.475-1.076 4.016-1.076 1.243 0 2.351.231 3.324.693.973.454 1.758 1.094 2.355 1.917.603.824.962 1.787 1.076 2.887h-3.1c-.171-.767-.561-1.427-1.172-1.981-.604-.554-1.414-.831-2.429-.831-.888 0-1.666.234-2.333.703-.661.462-1.176 1.122-1.545 1.982-.369.852-.554 1.86-.554 3.025 0 1.193.181 2.223.543 3.09.362.866.874 1.537 1.534 2.013.668.476 1.453.714 2.355.714.603 0 1.15-.11 1.64-.33a3.356 3.356 0 0 0 1.247-.97c.341-.419.579-.923.714-1.513h3.1c-.114 1.059-.458 2.003-1.034 2.834-.575.831-1.346 1.485-2.311 1.96-.959.476-2.085.714-3.378.714Zm17.182 0c-1.612 0-3.001-.344-4.166-1.033-1.157-.696-2.052-1.673-2.684-2.93-.625-1.264-.938-2.745-.938-4.442 0-1.676.313-3.154.938-4.432.632-1.279 1.512-2.276 2.642-2.994 1.136-.717 2.464-1.076 3.984-1.076.923 0 1.818.153 2.685.458a6.51 6.51 0 0 1 2.333 1.439c.689.653 1.232 1.502 1.63 2.546.397 1.037.596 2.297.596 3.782v1.129h-13.007v-2.386h9.886c0-.838-.171-1.581-.511-2.227a3.875 3.875 0 0 0-1.439-1.545c-.61-.376-1.328-.564-2.152-.564-.895 0-1.676.22-2.343.66a4.438 4.438 0 0 0-1.535 1.705 4.92 4.92 0 0 0-.532 2.269v1.864c0 1.094.192 2.024.575 2.791.391.768.934 1.353 1.63 1.758.696.398 1.509.597 2.44.597.603 0 1.154-.085 1.651-.256.497-.177.927-.44 1.289-.788.362-.348.639-.778.831-1.289l3.015.543a5.46 5.46 0 0 1-1.3 2.333c-.618.661-1.395 1.176-2.333 1.545-.93.362-1.992.543-3.185.543Zm22.817-12.699-2.887.512a3.42 3.42 0 0 0-.576-1.055c-.255-.334-.603-.607-1.044-.82-.44-.213-.99-.32-1.651-.32-.902 0-1.655.203-2.259.607-.603.398-.905.913-.905 1.545 0 .547.202.987.607 1.321.405.334 1.058.607 1.96.82l2.6.597c1.506.348 2.628.884 3.366 1.609.739.724 1.108 1.665 1.108 2.823 0 .98-.284 1.854-.852 2.621-.561.76-1.346 1.356-2.354 1.789-1.002.434-2.163.65-3.484.65-1.832 0-3.327-.39-4.485-1.172-1.158-.788-1.868-1.907-2.131-3.355l3.079-.469c.192.802.586 1.41 1.183 1.822.596.404 1.374.607 2.333.607 1.044 0 1.878-.217 2.503-.65.625-.44.938-.977.938-1.609 0-.511-.192-.941-.576-1.289-.376-.348-.955-.611-1.736-.788l-2.77-.607c-1.527-.348-2.656-.902-3.388-1.662-.724-.76-1.086-1.723-1.086-2.887 0-.966.269-1.811.809-2.536.54-.724 1.286-1.289 2.237-1.694.952-.412 2.042-.618 3.271-.618 1.769 0 3.161.384 4.176 1.151 1.016.76 1.687 1.779 2.014 3.057Zm16.084 0-2.887.512a3.42 3.42 0 0 0-.576-1.055c-.255-.334-.603-.607-1.044-.82-.44-.213-.99-.32-1.651-.32-.902 0-1.655.203-2.259.607-.603.398-.905.913-.905 1.545 0 .547.202.987.607 1.321.405.334 1.058.607 1.96.82l2.6.597c1.506.348 2.628.884 3.366 1.609.739.724 1.108 1.665 1.108 2.823 0 .98-.284 1.854-.852 2.621-.561.76-1.346 1.356-2.354 1.789-1.002.434-2.163.65-3.484.65-1.832 0-3.327-.39-4.485-1.172-1.158-.788-1.868-1.907-2.131-3.355l3.079-.469c.192.802.586 1.41 1.183 1.822.596.404 1.374.607 2.333.607 1.044 0 1.878-.217 2.503-.65.625-.44.938-.977.938-1.609 0-.511-.192-.941-.576-1.289-.376-.348-.955-.611-1.736-.788l-2.77-.607c-1.527-.348-2.656-.902-3.388-1.662-.724-.76-1.086-1.723-1.086-2.887 0-.966.269-1.811.809-2.536.54-.724 1.286-1.289 2.237-1.694.952-.412 2.042-.618 3.271-.618 1.768 0 3.161.384 4.176 1.151 1.016.76 1.687 1.779 2.014 3.057ZM745.632 470v-16.364h3.185V470h-3.185Zm1.608-18.888c-.554 0-1.03-.185-1.427-.554-.391-.377-.586-.824-.586-1.343 0-.525.195-.973.586-1.342a2 2 0 0 1 1.427-.565c.554 0 1.027.188 1.417.565.398.369.597.817.597 1.342 0 .519-.199.966-.597 1.343-.39.369-.863.554-1.417.554Zm9.048 9.172V470h-3.186v-16.364h3.058v2.664h.202a4.674 4.674 0 0 1 1.769-2.088c.809-.526 1.829-.789 3.057-.789 1.115 0 2.092.235 2.93.703.838.462 1.488 1.151 1.949 2.067.462.916.693 2.049.693 3.399V470h-3.185v-10.025c0-1.186-.309-2.113-.927-2.78-.618-.675-1.467-1.012-2.546-1.012-.739 0-1.396.159-1.971.479-.568.32-1.019.788-1.353 1.406-.327.611-.49 1.35-.49 2.216Zm21.605 16.193c-1.3 0-2.419-.17-3.356-.511-.93-.341-1.69-.792-2.28-1.353-.589-.561-1.03-1.175-1.321-1.843l2.738-1.129c.192.312.447.642.767.99.327.356.767.657 1.321.906.561.249 1.282.373 2.163.373 1.207 0 2.205-.295 2.993-.884.789-.583 1.183-1.513 1.183-2.792v-3.217h-.203a7.158 7.158 0 0 1-.831 1.161c-.355.426-.845.796-1.47 1.108-.625.313-1.438.469-2.439.469-1.293 0-2.458-.302-3.495-.906-1.029-.61-1.846-1.509-2.45-2.695-.597-1.193-.895-2.66-.895-4.4 0-1.74.295-3.231.884-4.474.597-1.243 1.414-2.195 2.451-2.855 1.037-.668 2.212-1.002 3.526-1.002 1.016 0 1.836.171 2.461.512.625.333 1.111.724 1.459 1.172.356.447.629.841.821 1.182h.234v-2.653h3.122v16.726c0 1.406-.327 2.561-.981 3.463-.653.902-1.537 1.569-2.652 2.002-1.108.434-2.358.65-3.75.65Zm-.032-9.364c.916 0 1.69-.213 2.322-.639.639-.434 1.122-1.051 1.449-1.854.334-.81.501-1.779.501-2.908 0-1.101-.164-2.071-.49-2.909-.327-.838-.806-1.491-1.438-1.96-.633-.476-1.414-.714-2.344-.714-.959 0-1.758.249-2.397.746-.639.49-1.122 1.158-1.449 2.003-.32.845-.479 1.79-.479 2.834 0 1.072.163 2.013.49 2.823.326.809.809 1.442 1.448 1.896.647.455 1.442.682 2.387.682Zm27.265-13.477v2.557h-8.939v-2.557h8.939Zm-6.542-3.92h3.186v15.479c0 .618.092 1.083.277 1.396.184.305.422.515.713.628.299.107.622.16.97.16.256 0 .479-.017.671-.053l.448-.085.575 2.631a5.379 5.379 0 0 1-.789.213 6.23 6.23 0 0 1-1.278.128 5.622 5.622 0 0 1-2.344-.447 4.025 4.025 0 0 1-1.757-1.449c-.448-.654-.672-1.474-.672-2.461v-16.14ZM808.649 470v-16.364h3.186V470h-3.186Zm1.609-18.888c-.554 0-1.03-.185-1.428-.554-.39-.377-.586-.824-.586-1.343 0-.525.196-.973.586-1.342a2.004 2.004 0 0 1 1.428-.565c.554 0 1.026.188 1.417.565.397.369.596.817.596 1.342 0 .519-.199.966-.596 1.343a1.99 1.99 0 0 1-1.417.554ZM816.12 470v-16.364h3.057v2.664h.203c.341-.902.898-1.605 1.672-2.11.775-.511 1.701-.767 2.781-.767 1.094 0 2.01.256 2.748.767.746.512 1.297 1.215 1.652 2.11h.17c.391-.874 1.012-1.57 1.865-2.088.852-.526 1.867-.789 3.046-.789 1.485 0 2.696.465 3.633 1.396.945.93 1.417 2.333 1.417 4.208V470h-3.185v-10.675c0-1.108-.302-1.91-.906-2.407-.603-.498-1.324-.746-2.162-.746-1.037 0-1.843.319-2.419.959-.575.632-.863 1.445-.863 2.439V470h-3.174v-10.877c0-.888-.277-1.602-.831-2.141-.554-.54-1.275-.81-2.163-.81-.604 0-1.161.16-1.673.479a3.53 3.53 0 0 0-1.225 1.311c-.305.561-.458 1.211-.458 1.949V470h-3.185Zm33.566.33c-1.612 0-3.001-.344-4.165-1.033-1.158-.696-2.053-1.673-2.685-2.93-.625-1.264-.938-2.745-.938-4.442 0-1.676.313-3.154.938-4.432.632-1.279 1.513-2.276 2.642-2.994 1.136-.717 2.464-1.076 3.984-1.076.924 0 1.819.153 2.685.458a6.51 6.51 0 0 1 2.333 1.439c.689.653 1.232 1.502 1.63 2.546.398 1.037.597 2.297.597 3.782v1.129h-13.008v-2.386h9.886c0-.838-.17-1.581-.511-2.227a3.873 3.873 0 0 0-1.438-1.545c-.611-.376-1.328-.564-2.152-.564-.895 0-1.676.22-2.344.66a4.428 4.428 0 0 0-1.534 1.705 4.92 4.92 0 0 0-.533 2.269v1.864c0 1.094.192 2.024.575 2.791.391.768.934 1.353 1.63 1.758.696.398 1.51.597 2.44.597.604 0 1.154-.085 1.651-.256.497-.177.927-.44 1.289-.788.363-.348.64-.778.831-1.289l3.015.543a5.448 5.448 0 0 1-1.299 2.333c-.618.661-1.396 1.176-2.334 1.545-.93.362-1.992.543-3.185.543Z"/><path stroke="#18181B" stroke-linecap="round" stroke-width="4" d="M1020 471v-24"/><path fill="#18181B" d="M1020 461c1.1 0 2-.895 2-2s-.9-2-2-2v4Zm0-4H872.5v4H1020v-4Z"/><defs><filter id="a" width="185" height="185" x="99" y="0" color-interpolation-filters="sRGB" filterUnits="userSpaceOnUse"><feFlood flood-opacity="0" result="BackgroundImageFix"/><feBlend in="SourceGraphic" in2="BackgroundImageFix" result="shape"/><feGaussianBlur result="effect1_foregroundBlur_443_2830" stdDeviation="32.5"/></filter></defs></svg>