<svg width="1008" height="711" viewBox="0 0 1008 711" fill="none" xmlns="http://www.w3.org/2000/svg">
<rect y="166" width="1008" height="376" rx="8" fill="#FAFAFA"/>
<path d="M981.707 344.707C982.098 344.317 982.098 343.684 981.707 343.293L975.343 336.929C974.953 336.538 974.319 336.538 973.929 336.929C973.538 337.32 973.538 337.953 973.929 338.343L979.586 344L973.929 349.657C973.538 350.047 973.538 350.681 973.929 351.071C974.319 351.462 974.953 351.462 975.343 351.071L981.707 344.707ZM22 345L26.5236 345L26.5236 343L22 343L22 345ZM35.5708 345L44.6179 345L44.6179 343L35.5708 343L35.5708 345ZM53.6651 345L62.7123 345L62.7123 343L53.6651 343L53.6651 345ZM71.7594 345L80.8066 345L80.8066 343L71.7594 343L71.7594 345ZM89.8538 345L98.9009 345L98.9009 343L89.8538 343L89.8538 345ZM107.948 345L116.995 345L116.995 343L107.948 343L107.948 345ZM126.042 345L135.09 345L135.09 343L126.042 343L126.042 345ZM144.137 345L153.184 345L153.184 343L144.137 343L144.137 345ZM162.231 345L171.278 345L171.278 343L162.231 343L162.231 345ZM180.325 345L189.373 345L189.373 343L180.325 343L180.325 345ZM198.42 345L207.467 345L207.467 343L198.42 343L198.42 345ZM216.514 345L225.561 345L225.561 343L216.514 343L216.514 345ZM234.608 345L243.656 345L243.656 343L234.608 343L234.608 345ZM252.703 345L261.75 345L261.75 343L252.703 343L252.703 345ZM270.797 345L279.844 345L279.844 343L270.797 343L270.797 345ZM288.891 345L297.939 345L297.939 343L288.891 343L288.891 345ZM306.986 345L316.033 345L316.033 343L306.986 343L306.986 345ZM325.08 345L334.127 345L334.127 343L325.08 343L325.08 345ZM343.175 345L352.222 345L352.222 343L343.175 343L343.175 345ZM361.269 345L370.316 345L370.316 343L361.269 343L361.269 345ZM379.363 345L388.41 345L388.41 343L379.363 343L379.363 345ZM397.458 345L406.505 345L406.505 343L397.458 343L397.458 345ZM415.552 345L424.599 345L424.599 343L415.552 343L415.552 345ZM433.646 345L442.694 345L442.694 343L433.646 343L433.646 345ZM451.741 345L460.788 345L460.788 343L451.741 343L451.741 345ZM469.835 345L478.882 345L478.882 343L469.835 343L469.835 345ZM487.929 345L496.977 345L496.977 343L487.929 343L487.929 345ZM506.024 345L515.071 345L515.071 343L506.024 343L506.024 345ZM524.118 345L533.165 345L533.165 343L524.118 343L524.118 345ZM542.213 345L551.26 345L551.26 343L542.213 343L542.213 345ZM560.307 345L569.354 345L569.354 343L560.307 343L560.307 345ZM578.401 345L587.448 345L587.448 343L578.401 343L578.401 345ZM596.496 345L605.543 345L605.543 343L596.496 343L596.496 345ZM614.59 345L623.637 345L623.637 343L614.59 343L614.59 345ZM632.684 345L641.732 345L641.732 343L632.684 343L632.684 345ZM650.779 345L659.826 345L659.826 343L650.779 343L650.779 345ZM668.873 345L677.92 345L677.92 343L668.873 343L668.873 345ZM686.967 345L696.015 345L696.015 343L686.967 343L686.967 345ZM705.062 345L714.109 345L714.109 343L705.062 343L705.062 345ZM723.156 345L732.203 345L732.203 343L723.156 343L723.156 345ZM741.251 345L750.298 345L750.298 343L741.251 343L741.251 345ZM759.345 345L768.392 345L768.392 343L759.345 343L759.345 345ZM777.439 345L786.486 345L786.486 343L777.439 343L777.439 345ZM795.534 345L804.581 345L804.581 343L795.534 343L795.534 345ZM813.628 345L822.675 345L822.675 343L813.628 343L813.628 345ZM831.722 345L840.769 345L840.769 343L831.722 343L831.722 345ZM849.817 345L858.864 345L858.864 343L849.817 343L849.817 345ZM867.911 345L876.958 345L876.958 343L867.911 343L867.911 345ZM886.005 345L895.053 345L895.053 343L886.005 343L886.005 345ZM904.1 345L913.147 345L913.147 343L904.1 343L904.1 345ZM922.194 345L931.241 345L931.241 343L922.194 343L922.194 345ZM940.288 345L949.336 345L949.336 343L940.288 343L940.288 345ZM958.383 345L967.43 345L967.43 343L958.383 343L958.383 345ZM976.477 345L981 345L981 343L976.477 343L976.477 345ZM982.414 345.414C983.195 344.633 983.195 343.367 982.414 342.586L969.686 329.858C968.905 329.077 967.639 329.077 966.858 329.858C966.077 330.639 966.077 331.905 966.858 332.686L978.172 344L966.858 355.314C966.077 356.095 966.077 357.361 966.858 358.142C967.639 358.923 968.905 358.923 969.686 358.142L982.414 345.414ZM22 346L26.5236 346L26.5236 342L22 342L22 346ZM35.5708 346L44.6179 346L44.6179 342L35.5708 342L35.5708 346ZM53.6651 346L62.7123 346L62.7123 342L53.6651 342L53.6651 346ZM71.7594 346L80.8066 346L80.8066 342L71.7594 342L71.7594 346ZM89.8538 346L98.9009 346L98.9009 342L89.8538 342L89.8538 346ZM107.948 346L116.995 346L116.995 342L107.948 342L107.948 346ZM126.042 346L135.09 346L135.09 342L126.042 342L126.042 346ZM144.137 346L153.184 346L153.184 342L144.137 342L144.137 346ZM162.231 346L171.278 346L171.278 342L162.231 342L162.231 346ZM180.325 346L189.373 346L189.373 342L180.325 342L180.325 346ZM198.42 346L207.467 346L207.467 342L198.42 342L198.42 346ZM216.514 346L225.561 346L225.561 342L216.514 342L216.514 346ZM234.608 346L243.656 346L243.656 342L234.608 342L234.608 346ZM252.703 346L261.75 346L261.75 342L252.703 342L252.703 346ZM270.797 346L279.844 346L279.844 342L270.797 342L270.797 346ZM288.891 346L297.939 346L297.939 342L288.891 342L288.891 346ZM306.986 346L316.033 346L316.033 342L306.986 342L306.986 346ZM325.08 346L334.127 346L334.127 342L325.08 342L325.08 346ZM343.175 346L352.222 346L352.222 342L343.175 342L343.175 346ZM361.269 346L370.316 346L370.316 342L361.269 342L361.269 346ZM379.363 346L388.41 346L388.41 342L379.363 342L379.363 346ZM397.458 346L406.505 346L406.505 342L397.458 342L397.458 346ZM415.552 346L424.599 346L424.599 342L415.552 342L415.552 346ZM433.646 346L442.694 346L442.694 342L433.646 342L433.646 346ZM451.741 346L460.788 346L460.788 342L451.741 342L451.741 346ZM469.835 346L478.882 346L478.882 342L469.835 342L469.835 346ZM487.929 346L496.977 346L496.977 342L487.929 342L487.929 346ZM506.024 346L515.071 346L515.071 342L506.024 342L506.024 346ZM524.118 346L533.165 346L533.165 342L524.118 342L524.118 346ZM542.213 346L551.26 346L551.26 342L542.213 342L542.213 346ZM560.307 346L569.354 346L569.354 342L560.307 342L560.307 346ZM578.401 346L587.448 346L587.448 342L578.401 342L578.401 346ZM596.496 346L605.543 346L605.543 342L596.496 342L596.496 346ZM614.59 346L623.637 346L623.637 342L614.59 342L614.59 346ZM632.684 346L641.732 346L641.732 342L632.684 342L632.684 346ZM650.779 346L659.826 346L659.826 342L650.779 342L650.779 346ZM668.873 346L677.92 346L677.92 342L668.873 342L668.873 346ZM686.967 346L696.015 346L696.015 342L686.967 342L686.967 346ZM705.062 346L714.109 346L714.109 342L705.062 342L705.062 346ZM723.156 346L732.203 346L732.203 342L723.156 342L723.156 346ZM741.251 346L750.298 346L750.298 342L741.251 342L741.251 346ZM759.345 346L768.392 346L768.392 342L759.345 342L759.345 346ZM777.439 346L786.486 346L786.486 342L777.439 342L777.439 346ZM795.534 346L804.581 346L804.581 342L795.534 342L795.534 346ZM813.628 346L822.675 346L822.675 342L813.628 342L813.628 346ZM831.722 346L840.769 346L840.769 342L831.722 342L831.722 346ZM849.817 346L858.864 346L858.864 342L849.817 342L849.817 346ZM867.911 346L876.958 346L876.958 342L867.911 342L867.911 346ZM886.005 346L895.053 346L895.053 342L886.005 342L886.005 346ZM904.1 346L913.147 346L913.147 342L904.1 342L904.1 346ZM922.194 346L931.241 346L931.241 342L922.194 342L922.194 346ZM940.288 346L949.336 346L949.336 342L940.288 342L940.288 346ZM958.383 346L967.43 346L967.43 342L958.383 342L958.383 346ZM976.477 346L981 346L981 342L976.477 342L976.477 346Z" fill="#52525B"/>
<rect x="286" y="303" width="316" height="82" rx="8" fill="#FCEFCF"/>
<path d="M382.71 341V339.364C382.71 338.881 382.801 338.372 382.983 337.838C383.165 337.304 383.418 336.793 383.741 336.304C384.065 335.815 384.446 335.398 384.884 335.051L386.145 335.955C385.798 336.46 385.503 336.989 385.259 337.54C385.014 338.091 384.892 338.69 384.892 339.338V341H382.71ZM387.057 341V339.364C387.057 338.881 387.148 338.372 387.33 337.838C387.511 337.304 387.764 336.793 388.088 336.304C388.412 335.815 388.793 335.398 389.23 335.051L390.491 335.955C390.145 336.46 389.849 336.989 389.605 337.54C389.361 338.091 389.239 338.69 389.239 339.338V341H387.057ZM392.04 353H389.245L395.526 335.545H398.569L404.85 353H402.055L397.12 338.716H396.984L392.04 353ZM392.509 346.165H401.577V348.381H392.509V346.165ZM406.896 335.545V337.182C406.896 337.665 406.805 338.173 406.623 338.707C406.447 339.236 406.197 339.744 405.873 340.233C405.549 340.722 405.168 341.142 404.731 341.494L403.469 340.591C403.805 340.102 404.094 339.582 404.339 339.031C404.589 338.48 404.714 337.872 404.714 337.207V335.545H406.896ZM411.234 335.545V337.182C411.234 337.665 411.143 338.173 410.961 338.707C410.785 339.236 410.535 339.744 410.211 340.233C409.887 340.722 409.506 341.142 409.069 341.494L407.808 340.591C408.143 340.102 408.433 339.582 408.677 339.031C408.927 338.48 409.052 337.872 409.052 337.207V335.545H411.234ZM423.074 345.227V353H420.526V335.545H423.04V342.04H423.202C423.509 341.335 423.977 340.776 424.608 340.361C425.239 339.946 426.063 339.739 427.08 339.739C427.977 339.739 428.761 339.923 429.432 340.293C430.108 340.662 430.631 341.213 431 341.946C431.375 342.673 431.562 343.582 431.562 344.673V353H429.014V344.98C429.014 344.02 428.767 343.276 428.273 342.747C427.778 342.213 427.091 341.946 426.21 341.946C425.608 341.946 425.068 342.074 424.591 342.33C424.119 342.585 423.747 342.96 423.474 343.455C423.207 343.943 423.074 344.534 423.074 345.227ZM438.773 353.29C437.943 353.29 437.193 353.136 436.523 352.83C435.852 352.517 435.321 352.065 434.929 351.474C434.543 350.884 434.349 350.159 434.349 349.301C434.349 348.562 434.491 347.955 434.776 347.477C435.06 347 435.443 346.622 435.926 346.344C436.409 346.065 436.949 345.855 437.545 345.713C438.142 345.571 438.75 345.463 439.369 345.389C440.153 345.298 440.79 345.224 441.278 345.168C441.767 345.105 442.122 345.006 442.344 344.869C442.565 344.733 442.676 344.511 442.676 344.205V344.145C442.676 343.401 442.466 342.824 442.045 342.415C441.631 342.006 441.011 341.801 440.188 341.801C439.33 341.801 438.653 341.991 438.159 342.372C437.67 342.747 437.332 343.165 437.145 343.625L434.75 343.08C435.034 342.284 435.449 341.642 435.994 341.153C436.545 340.659 437.179 340.301 437.895 340.08C438.611 339.852 439.364 339.739 440.153 339.739C440.676 339.739 441.23 339.801 441.815 339.926C442.406 340.045 442.957 340.267 443.469 340.591C443.986 340.915 444.409 341.378 444.739 341.98C445.068 342.577 445.233 343.352 445.233 344.307V353H442.744V351.21H442.642C442.477 351.54 442.23 351.864 441.901 352.182C441.571 352.5 441.148 352.764 440.631 352.974C440.114 353.185 439.494 353.29 438.773 353.29ZM439.327 351.244C440.031 351.244 440.634 351.105 441.134 350.827C441.639 350.548 442.023 350.185 442.284 349.736C442.551 349.281 442.685 348.795 442.685 348.278V346.591C442.594 346.682 442.418 346.767 442.156 346.847C441.901 346.92 441.608 346.986 441.278 347.043C440.949 347.094 440.628 347.142 440.315 347.188C440.003 347.227 439.741 347.261 439.531 347.29C439.037 347.352 438.585 347.457 438.176 347.605C437.773 347.753 437.449 347.966 437.205 348.244C436.966 348.517 436.847 348.881 436.847 349.335C436.847 349.966 437.08 350.443 437.545 350.767C438.011 351.085 438.605 351.244 439.327 351.244ZM451.175 345.227V353H448.627V339.909H451.073V342.04H451.235C451.536 341.347 452.008 340.79 452.65 340.369C453.298 339.949 454.113 339.739 455.096 339.739C455.988 339.739 456.769 339.926 457.44 340.301C458.11 340.67 458.63 341.222 458.999 341.955C459.369 342.687 459.553 343.594 459.553 344.673V353H457.005V344.98C457.005 344.031 456.758 343.29 456.263 342.756C455.769 342.216 455.09 341.946 454.227 341.946C453.636 341.946 453.11 342.074 452.65 342.33C452.195 342.585 451.835 342.96 451.567 343.455C451.306 343.943 451.175 344.534 451.175 345.227ZM467.871 353.256C466.815 353.256 465.871 352.986 465.042 352.446C464.218 351.901 463.57 351.125 463.099 350.119C462.633 349.108 462.4 347.895 462.4 346.48C462.4 345.065 462.636 343.855 463.107 342.849C463.585 341.844 464.238 341.074 465.067 340.54C465.897 340.006 466.837 339.739 467.888 339.739C468.701 339.739 469.354 339.875 469.849 340.148C470.349 340.415 470.735 340.727 471.008 341.085C471.286 341.443 471.502 341.759 471.656 342.031H471.809V335.545H474.357V353H471.869V350.963H471.656C471.502 351.241 471.281 351.56 470.991 351.918C470.707 352.276 470.315 352.588 469.815 352.855C469.315 353.122 468.667 353.256 467.871 353.256ZM468.434 351.082C469.167 351.082 469.786 350.889 470.292 350.503C470.803 350.111 471.19 349.568 471.451 348.875C471.718 348.182 471.852 347.375 471.852 346.455C471.852 345.545 471.721 344.75 471.46 344.068C471.198 343.386 470.815 342.855 470.309 342.474C469.803 342.094 469.178 341.903 468.434 341.903C467.667 341.903 467.028 342.102 466.516 342.5C466.005 342.898 465.619 343.44 465.357 344.128C465.102 344.815 464.974 345.591 464.974 346.455C464.974 347.33 465.104 348.116 465.366 348.815C465.627 349.514 466.013 350.068 466.525 350.477C467.042 350.881 467.678 351.082 468.434 351.082ZM480.543 335.545V353H477.994V335.545H480.543ZM489.613 353.264C488.323 353.264 487.212 352.989 486.281 352.438C485.354 351.881 484.638 351.099 484.133 350.094C483.633 349.082 483.383 347.898 483.383 346.54C483.383 345.199 483.633 344.017 484.133 342.994C484.638 341.972 485.343 341.173 486.246 340.599C487.156 340.026 488.218 339.739 489.434 339.739C490.173 339.739 490.888 339.861 491.582 340.105C492.275 340.349 492.897 340.733 493.448 341.256C493.999 341.778 494.434 342.457 494.752 343.293C495.07 344.122 495.229 345.131 495.229 346.318V347.222H484.823V345.312H492.732C492.732 344.642 492.596 344.048 492.323 343.531C492.05 343.009 491.667 342.597 491.173 342.295C490.684 341.994 490.11 341.844 489.451 341.844C488.735 341.844 488.11 342.02 487.576 342.372C487.048 342.719 486.638 343.173 486.349 343.736C486.065 344.293 485.923 344.898 485.923 345.551V347.043C485.923 347.918 486.076 348.662 486.383 349.276C486.695 349.889 487.13 350.358 487.687 350.682C488.244 351 488.894 351.159 489.638 351.159C490.121 351.159 490.562 351.091 490.96 350.955C491.357 350.812 491.701 350.602 491.991 350.324C492.281 350.045 492.502 349.702 492.656 349.293L495.067 349.727C494.874 350.437 494.528 351.06 494.028 351.594C493.533 352.122 492.911 352.534 492.161 352.83C491.417 353.119 490.567 353.264 489.613 353.264ZM498.057 353V339.909H500.52V341.989H500.656C500.895 341.284 501.315 340.73 501.918 340.327C502.526 339.918 503.213 339.713 503.98 339.713C504.139 339.713 504.327 339.719 504.543 339.73C504.764 339.741 504.938 339.756 505.062 339.773V342.21C504.96 342.182 504.778 342.151 504.517 342.116C504.256 342.077 503.994 342.057 503.733 342.057C503.131 342.057 502.594 342.185 502.122 342.44C501.656 342.69 501.287 343.04 501.014 343.489C500.741 343.932 500.605 344.437 500.605 345.006V353H498.057Z" fill="#78350F"/>
<g filter="url(#filter0_f_443_2736)">
<circle cx="335.5" cy="92.5" r="27.5" fill="#D1FAE5" fill-opacity="0.95"/>
</g>
<circle cx="335.5" cy="92.5" r="27.5" fill="#D1FAE5" fill-opacity="0.95"/>
<circle cx="335.5" cy="92.5" r="15" fill="white" fill-opacity="0.7" stroke="#34D399" stroke-width="5"/>
<path d="M335.5 120L335.5 303" stroke="#52525B" stroke-width="4" stroke-linecap="round" stroke-dasharray="9 9"/>
<g filter="url(#filter1_f_443_2736)">
<circle cx="200.5" cy="618.5" r="27.5" transform="rotate(-180 200.5 618.5)" fill="#D1FAE5" fill-opacity="0.95"/>
</g>
<circle cx="200.5" cy="618.5" r="27.5" transform="rotate(-180 200.5 618.5)" fill="#D1FAE5" fill-opacity="0.95"/>
<circle cx="200.5" cy="618.5" r="15" transform="rotate(-180 200.5 618.5)" fill="white" fill-opacity="0.7" stroke="#34D399" stroke-width="5"/>
<path d="M200.5 591L200.5 344" stroke="#52525B" stroke-width="4" stroke-linecap="round" stroke-dasharray="9 9"/>
<path d="M23.9176 207.545H27.1136L32.6705 221.114H32.875L38.4318 207.545H41.6278V225H39.1222V212.369H38.9602L33.8125 224.974H31.733L26.5852 212.361H26.4233V225H23.9176V207.545ZM49.0618 225.29C48.2322 225.29 47.4822 225.136 46.8118 224.83C46.1413 224.517 45.6101 224.065 45.218 223.474C44.8317 222.884 44.6385 222.159 44.6385 221.301C44.6385 220.562 44.7805 219.955 45.0646 219.477C45.3487 219 45.7322 218.622 46.2152 218.344C46.6982 218.065 47.2379 217.855 47.8345 217.713C48.4311 217.571 49.0391 217.463 49.6584 217.389C50.4425 217.298 51.0788 217.224 51.5675 217.168C52.0561 217.105 52.4112 217.006 52.6328 216.869C52.8544 216.733 52.9652 216.511 52.9652 216.205V216.145C52.9652 215.401 52.755 214.824 52.3345 214.415C51.9197 214.006 51.3004 213.801 50.4766 213.801C49.6186 213.801 48.9425 213.991 48.4482 214.372C47.9595 214.747 47.6214 215.165 47.4339 215.625L45.0391 215.08C45.3232 214.284 45.7379 213.642 46.2834 213.153C46.8345 212.659 47.468 212.301 48.1839 212.08C48.8999 211.852 49.6527 211.739 50.4425 211.739C50.9652 211.739 51.5192 211.801 52.1044 211.926C52.6953 212.045 53.2464 212.267 53.7578 212.591C54.2749 212.915 54.6982 213.378 55.0277 213.98C55.3572 214.577 55.522 215.352 55.522 216.307V225H53.0334V223.21H52.9311C52.7663 223.54 52.5192 223.864 52.1896 224.182C51.8601 224.5 51.4368 224.764 50.9197 224.974C50.4027 225.185 49.7834 225.29 49.0618 225.29ZM49.6158 223.244C50.3203 223.244 50.9226 223.105 51.4226 222.827C51.9283 222.548 52.3118 222.185 52.5732 221.736C52.8402 221.281 52.9737 220.795 52.9737 220.278V218.591C52.8828 218.682 52.7067 218.767 52.4453 218.847C52.1896 218.92 51.897 218.986 51.5675 219.043C51.2379 219.094 50.9169 219.142 50.6044 219.188C50.2919 219.227 50.0305 219.261 49.8203 219.29C49.326 219.352 48.8743 219.457 48.4652 219.605C48.0618 219.753 47.7379 219.966 47.4936 220.244C47.255 220.517 47.1357 220.881 47.1357 221.335C47.1357 221.966 47.3686 222.443 47.8345 222.767C48.3004 223.085 48.8942 223.244 49.6158 223.244ZM58.9162 225V211.909H61.4645V225H58.9162ZM60.2031 209.889C59.7599 209.889 59.3793 209.741 59.0611 209.446C58.7486 209.145 58.5923 208.787 58.5923 208.372C58.5923 207.952 58.7486 207.594 59.0611 207.298C59.3793 206.997 59.7599 206.847 60.2031 206.847C60.6463 206.847 61.0241 206.997 61.3366 207.298C61.6548 207.594 61.8139 207.952 61.8139 208.372C61.8139 208.787 61.6548 209.145 61.3366 209.446C61.0241 209.741 60.6463 209.889 60.2031 209.889ZM67.4411 217.227V225H64.8928V211.909H67.3388V214.04H67.5007C67.8018 213.347 68.2734 212.79 68.9155 212.369C69.5632 211.949 70.3786 211.739 71.3615 211.739C72.2536 211.739 73.0348 211.926 73.7053 212.301C74.3757 212.67 74.8956 213.222 75.2649 213.955C75.6342 214.687 75.8189 215.594 75.8189 216.673V225H73.2706V216.98C73.2706 216.031 73.0234 215.29 72.5291 214.756C72.0348 214.216 71.3558 213.946 70.4922 213.946C69.9013 213.946 69.3757 214.074 68.9155 214.33C68.4609 214.585 68.1001 214.96 67.8331 215.455C67.5717 215.943 67.4411 216.534 67.4411 217.227ZM91.6989 211.909V213.955H84.5483V211.909H91.6989ZM86.4659 208.773H89.0142V221.156C89.0142 221.651 89.0881 222.023 89.2358 222.273C89.3835 222.517 89.5739 222.685 89.8068 222.776C90.0455 222.861 90.304 222.903 90.5824 222.903C90.7869 222.903 90.9659 222.889 91.1193 222.861C91.2727 222.832 91.392 222.81 91.4773 222.793L91.9375 224.898C91.7898 224.955 91.5795 225.011 91.3068 225.068C91.0341 225.131 90.6932 225.165 90.2841 225.17C89.6136 225.182 88.9886 225.062 88.4091 224.812C87.8295 224.562 87.3608 224.176 87.0028 223.653C86.6449 223.131 86.4659 222.474 86.4659 221.685V208.773ZM97.3473 217.227V225H94.799V207.545H97.3132V214.04H97.4751C97.782 213.335 98.2507 212.776 98.8814 212.361C99.5121 211.946 100.336 211.739 101.353 211.739C102.251 211.739 103.035 211.923 103.705 212.293C104.381 212.662 104.904 213.213 105.273 213.946C105.648 214.673 105.836 215.582 105.836 216.673V225H103.288V216.98C103.288 216.02 103.04 215.276 102.546 214.747C102.052 214.213 101.364 213.946 100.484 213.946C99.8814 213.946 99.3416 214.074 98.8643 214.33C98.3928 214.585 98.0206 214.96 97.7479 215.455C97.4808 215.943 97.3473 216.534 97.3473 217.227ZM109.237 225V211.909H111.7V213.989H111.836C112.075 213.284 112.495 212.73 113.097 212.327C113.705 211.918 114.393 211.713 115.16 211.713C115.319 211.713 115.506 211.719 115.722 211.73C115.944 211.741 116.117 211.756 116.242 211.773V214.21C116.14 214.182 115.958 214.151 115.697 214.116C115.435 214.077 115.174 214.057 114.913 214.057C114.31 214.057 113.773 214.185 113.302 214.44C112.836 214.69 112.467 215.04 112.194 215.489C111.921 215.932 111.785 216.437 111.785 217.006V225H109.237ZM123.621 225.264C122.331 225.264 121.22 224.989 120.288 224.438C119.362 223.881 118.646 223.099 118.141 222.094C117.641 221.082 117.391 219.898 117.391 218.54C117.391 217.199 117.641 216.017 118.141 214.994C118.646 213.972 119.351 213.173 120.254 212.599C121.163 212.026 122.226 211.739 123.442 211.739C124.18 211.739 124.896 211.861 125.589 212.105C126.283 212.349 126.905 212.733 127.456 213.256C128.007 213.778 128.442 214.457 128.76 215.293C129.078 216.122 129.237 217.131 129.237 218.318V219.222H118.831V217.312H126.74C126.74 216.642 126.604 216.048 126.331 215.531C126.058 215.009 125.675 214.597 125.18 214.295C124.692 213.994 124.118 213.844 123.459 213.844C122.743 213.844 122.118 214.02 121.584 214.372C121.055 214.719 120.646 215.173 120.357 215.736C120.072 216.293 119.93 216.898 119.93 217.551V219.043C119.93 219.918 120.084 220.662 120.391 221.276C120.703 221.889 121.138 222.358 121.695 222.682C122.251 223 122.902 223.159 123.646 223.159C124.129 223.159 124.57 223.091 124.967 222.955C125.365 222.812 125.709 222.602 125.999 222.324C126.288 222.045 126.51 221.702 126.663 221.293L129.075 221.727C128.882 222.437 128.536 223.06 128.036 223.594C127.541 224.122 126.919 224.534 126.169 224.83C125.425 225.119 124.575 225.264 123.621 225.264ZM135.874 225.29C135.045 225.29 134.295 225.136 133.624 224.83C132.954 224.517 132.423 224.065 132.031 223.474C131.644 222.884 131.451 222.159 131.451 221.301C131.451 220.562 131.593 219.955 131.877 219.477C132.161 219 132.545 218.622 133.028 218.344C133.511 218.065 134.05 217.855 134.647 217.713C135.244 217.571 135.852 217.463 136.471 217.389C137.255 217.298 137.891 217.224 138.38 217.168C138.869 217.105 139.224 217.006 139.445 216.869C139.667 216.733 139.778 216.511 139.778 216.205V216.145C139.778 215.401 139.567 214.824 139.147 214.415C138.732 214.006 138.113 213.801 137.289 213.801C136.431 213.801 135.755 213.991 135.261 214.372C134.772 214.747 134.434 215.165 134.246 215.625L131.852 215.08C132.136 214.284 132.55 213.642 133.096 213.153C133.647 212.659 134.281 212.301 134.996 212.08C135.712 211.852 136.465 211.739 137.255 211.739C137.778 211.739 138.332 211.801 138.917 211.926C139.508 212.045 140.059 212.267 140.57 212.591C141.087 212.915 141.511 213.378 141.84 213.98C142.17 214.577 142.335 215.352 142.335 216.307V225H139.846V223.21H139.744C139.579 223.54 139.332 223.864 139.002 224.182C138.673 224.5 138.249 224.764 137.732 224.974C137.215 225.185 136.596 225.29 135.874 225.29ZM136.428 223.244C137.133 223.244 137.735 223.105 138.235 222.827C138.741 222.548 139.124 222.185 139.386 221.736C139.653 221.281 139.786 220.795 139.786 220.278V218.591C139.695 218.682 139.519 218.767 139.258 218.847C139.002 218.92 138.71 218.986 138.38 219.043C138.05 219.094 137.729 219.142 137.417 219.188C137.104 219.227 136.843 219.261 136.633 219.29C136.138 219.352 135.687 219.457 135.278 219.605C134.874 219.753 134.55 219.966 134.306 220.244C134.067 220.517 133.948 220.881 133.948 221.335C133.948 221.966 134.181 222.443 134.647 222.767C135.113 223.085 135.707 223.244 136.428 223.244ZM150.629 225.256C149.572 225.256 148.629 224.986 147.8 224.446C146.976 223.901 146.328 223.125 145.857 222.119C145.391 221.108 145.158 219.895 145.158 218.48C145.158 217.065 145.393 215.855 145.865 214.849C146.342 213.844 146.996 213.074 147.825 212.54C148.655 212.006 149.595 211.739 150.646 211.739C151.459 211.739 152.112 211.875 152.607 212.148C153.107 212.415 153.493 212.727 153.766 213.085C154.044 213.443 154.26 213.759 154.413 214.031H154.567V207.545H157.115V225H154.626V222.963H154.413C154.26 223.241 154.038 223.56 153.749 223.918C153.464 224.276 153.072 224.588 152.572 224.855C152.072 225.122 151.425 225.256 150.629 225.256ZM151.192 223.082C151.925 223.082 152.544 222.889 153.05 222.503C153.561 222.111 153.947 221.568 154.209 220.875C154.476 220.182 154.609 219.375 154.609 218.455C154.609 217.545 154.479 216.75 154.217 216.068C153.956 215.386 153.572 214.855 153.067 214.474C152.561 214.094 151.936 213.903 151.192 213.903C150.425 213.903 149.786 214.102 149.274 214.5C148.763 214.898 148.376 215.44 148.115 216.128C147.859 216.815 147.732 217.591 147.732 218.455C147.732 219.33 147.862 220.116 148.124 220.815C148.385 221.514 148.771 222.068 149.283 222.477C149.8 222.881 150.436 223.082 151.192 223.082Z" fill="#52525B"/>
<path d="M264.21 14V12.3636C264.21 11.8807 264.301 11.3722 264.483 10.8381C264.665 10.304 264.918 9.79261 265.241 9.30398C265.565 8.81534 265.946 8.39773 266.384 8.05114L267.645 8.95454C267.298 9.46023 267.003 9.98864 266.759 10.5398C266.514 11.0909 266.392 11.6903 266.392 12.3381V14H264.21ZM268.557 14V12.3636C268.557 11.8807 268.648 11.3722 268.83 10.8381C269.011 10.304 269.264 9.79261 269.588 9.30398C269.912 8.81534 270.293 8.39773 270.73 8.05114L271.991 8.95454C271.645 9.46023 271.349 9.98864 271.105 10.5398C270.861 11.0909 270.739 11.6903 270.739 12.3381V14H268.557ZM274.386 26V8.54545H280.778C282.017 8.54545 283.043 8.75 283.855 9.15909C284.668 9.5625 285.276 10.1108 285.679 10.804C286.082 11.4915 286.284 12.267 286.284 13.1307C286.284 13.858 286.151 14.4716 285.884 14.9716C285.616 15.4659 285.259 15.8636 284.81 16.1648C284.366 16.4602 283.878 16.6761 283.344 16.8125V16.983C283.923 17.0114 284.489 17.1989 285.04 17.5455C285.597 17.8864 286.057 18.3722 286.42 19.0028C286.784 19.6335 286.966 20.4006 286.966 21.304C286.966 22.196 286.756 22.9972 286.335 23.7074C285.92 24.4119 285.278 24.9716 284.409 25.3864C283.54 25.7955 282.429 26 281.077 26H274.386ZM277.02 23.7415H280.821C282.082 23.7415 282.986 23.4972 283.531 23.0085C284.077 22.5199 284.349 21.9091 284.349 21.1761C284.349 20.625 284.21 20.1193 283.932 19.6591C283.653 19.1989 283.256 18.8324 282.739 18.5597C282.227 18.2869 281.619 18.1506 280.915 18.1506H277.02V23.7415ZM277.02 16.0966H280.548C281.139 16.0966 281.67 15.983 282.142 15.7557C282.619 15.5284 282.997 15.2102 283.276 14.8011C283.56 14.3864 283.702 13.8977 283.702 13.3352C283.702 12.6136 283.449 12.0085 282.943 11.5199C282.438 11.0312 281.662 10.7869 280.616 10.7869H277.02V16.0966ZM292.075 8.54545V10.1818C292.075 10.6648 291.984 11.1733 291.803 11.7074C291.626 12.2358 291.376 12.7443 291.053 13.233C290.729 13.7216 290.348 14.142 289.911 14.4943L288.649 13.5909C288.984 13.1023 289.274 12.5824 289.518 12.0312C289.768 11.4801 289.893 10.8722 289.893 10.2074V8.54545H292.075ZM296.413 8.54545V10.1818C296.413 10.6648 296.322 11.1733 296.141 11.7074C295.964 12.2358 295.714 12.7443 295.391 13.233C295.067 13.7216 294.686 14.142 294.249 14.4943L292.987 13.5909C293.322 13.1023 293.612 12.5824 293.857 12.0312C294.107 11.4801 294.232 10.8722 294.232 10.2074V8.54545H296.413ZM308.049 21.5597L308.032 18.4489H308.475L313.691 12.9091H316.742L310.793 19.2159H310.393L308.049 21.5597ZM305.705 26V8.54545H308.254V26H305.705ZM313.972 26L309.285 19.7784L311.04 17.9972L317.1 26H313.972ZM324.168 26.2642C322.878 26.2642 321.767 25.9886 320.835 25.4375C319.909 24.8807 319.193 24.0994 318.688 23.0938C318.188 22.0824 317.938 20.8977 317.938 19.5398C317.938 18.1989 318.188 17.017 318.688 15.9943C319.193 14.9716 319.898 14.1733 320.801 13.5994C321.71 13.0256 322.773 12.7386 323.989 12.7386C324.727 12.7386 325.443 12.8608 326.136 13.1051C326.83 13.3494 327.452 13.733 328.003 14.2557C328.554 14.7784 328.989 15.4574 329.307 16.2926C329.625 17.1222 329.784 18.1307 329.784 19.3182V20.2216H319.378V18.3125H327.287C327.287 17.642 327.151 17.0483 326.878 16.5312C326.605 16.0085 326.222 15.5966 325.727 15.2955C325.239 14.9943 324.665 14.8438 324.006 14.8438C323.29 14.8438 322.665 15.0199 322.131 15.3722C321.602 15.7187 321.193 16.1733 320.903 16.7358C320.619 17.2926 320.477 17.8977 320.477 18.5511V20.0426C320.477 20.9176 320.631 21.6619 320.938 22.2756C321.25 22.8892 321.685 23.358 322.241 23.6818C322.798 24 323.449 24.1591 324.193 24.1591C324.676 24.1591 325.116 24.0909 325.514 23.9545C325.912 23.8125 326.256 23.6023 326.545 23.3239C326.835 23.0455 327.057 22.7017 327.21 22.2926L329.622 22.7273C329.429 23.4375 329.082 24.0597 328.582 24.5938C328.088 25.1222 327.466 25.5341 326.716 25.8295C325.972 26.1193 325.122 26.2642 324.168 26.2642ZM333.847 30.9091C333.467 30.9091 333.12 30.8778 332.808 30.8153C332.495 30.7585 332.262 30.696 332.109 30.6278L332.722 28.5398C333.188 28.6648 333.603 28.7188 333.967 28.7017C334.33 28.6847 334.651 28.5483 334.93 28.2926C335.214 28.0369 335.464 27.6193 335.68 27.0398L335.995 26.1705L331.205 12.9091H333.933L337.248 23.0682H337.384L340.7 12.9091H343.435L338.04 27.7472C337.79 28.429 337.472 29.0057 337.086 29.4773C336.7 29.9545 336.239 30.3125 335.705 30.5511C335.171 30.7898 334.552 30.9091 333.847 30.9091ZM345.83 30.9091V12.9091H348.319V15.0312H348.532C348.68 14.7585 348.893 14.4432 349.171 14.0852C349.45 13.7273 349.836 13.4148 350.33 13.1477C350.825 12.875 351.478 12.7386 352.29 12.7386C353.347 12.7386 354.29 13.0057 355.12 13.5398C355.95 14.0739 356.6 14.8437 357.072 15.8494C357.549 16.8551 357.788 18.0653 357.788 19.4801C357.788 20.8949 357.552 22.108 357.08 23.1193C356.609 24.125 355.961 24.9006 355.137 25.446C354.313 25.9858 353.373 26.2557 352.316 26.2557C351.521 26.2557 350.87 26.1222 350.364 25.8551C349.864 25.5881 349.472 25.2756 349.188 24.9176C348.904 24.5597 348.685 24.2415 348.532 23.9631H348.379V30.9091H345.83ZM348.327 19.4545C348.327 20.375 348.461 21.1818 348.728 21.875C348.995 22.5682 349.381 23.1108 349.887 23.5028C350.393 23.8892 351.012 24.0824 351.745 24.0824C352.506 24.0824 353.143 23.8807 353.654 23.4773C354.165 23.0682 354.552 22.5142 354.813 21.8153C355.08 21.1165 355.214 20.3295 355.214 19.4545C355.214 18.5909 355.083 17.8153 354.822 17.1278C354.566 16.4403 354.18 15.8977 353.663 15.5C353.151 15.1023 352.512 14.9034 351.745 14.9034C351.006 14.9034 350.381 15.0937 349.87 15.4744C349.364 15.8551 348.981 16.3864 348.719 17.0682C348.458 17.75 348.327 18.5455 348.327 19.4545ZM360.643 26V12.9091H363.106V14.9886H363.242C363.481 14.2841 363.901 13.7301 364.504 13.3267C365.112 12.9176 365.799 12.7131 366.566 12.7131C366.725 12.7131 366.913 12.7187 367.129 12.7301C367.35 12.7415 367.523 12.7557 367.648 12.7727V15.2102C367.546 15.1818 367.364 15.1506 367.103 15.1165C366.842 15.0767 366.58 15.0568 366.319 15.0568C365.717 15.0568 365.18 15.1847 364.708 15.4403C364.242 15.6903 363.873 16.0398 363.6 16.4886C363.327 16.9318 363.191 17.4375 363.191 18.0057V26H360.643ZM375.027 26.2642C373.737 26.2642 372.626 25.9886 371.695 25.4375C370.768 24.8807 370.053 24.0994 369.547 23.0938C369.047 22.0824 368.797 20.8977 368.797 19.5398C368.797 18.1989 369.047 17.017 369.547 15.9943C370.053 14.9716 370.757 14.1733 371.661 13.5994C372.57 13.0256 373.632 12.7386 374.848 12.7386C375.587 12.7386 376.303 12.8608 376.996 13.1051C377.689 13.3494 378.311 13.733 378.862 14.2557C379.413 14.7784 379.848 15.4574 380.166 16.2926C380.484 17.1222 380.643 18.1307 380.643 19.3182V20.2216H370.237V18.3125H378.146C378.146 17.642 378.01 17.0483 377.737 16.5312C377.464 16.0085 377.081 15.5966 376.587 15.2955C376.098 14.9943 375.524 14.8438 374.865 14.8438C374.149 14.8438 373.524 15.0199 372.99 15.3722C372.462 15.7187 372.053 16.1733 371.763 16.7358C371.479 17.2926 371.337 17.8977 371.337 18.5511V20.0426C371.337 20.9176 371.49 21.6619 371.797 22.2756C372.109 22.8892 372.544 23.358 373.101 23.6818C373.658 24 374.308 24.1591 375.053 24.1591C375.536 24.1591 375.976 24.0909 376.374 23.9545C376.771 23.8125 377.115 23.6023 377.405 23.3239C377.695 23.0455 377.916 22.7017 378.07 22.2926L380.482 22.7273C380.288 23.4375 379.942 24.0597 379.442 24.5938C378.947 25.1222 378.325 25.5341 377.575 25.8295C376.831 26.1193 375.982 26.2642 375.027 26.2642ZM393.281 16.1051L390.971 16.5142C390.874 16.2187 390.721 15.9375 390.511 15.6705C390.306 15.4034 390.028 15.1847 389.675 15.0142C389.323 14.8437 388.883 14.7585 388.354 14.7585C387.633 14.7585 387.031 14.9205 386.548 15.2443C386.065 15.5625 385.823 15.9744 385.823 16.4801C385.823 16.9176 385.985 17.2699 386.309 17.5369C386.633 17.804 387.156 18.0227 387.877 18.1932L389.957 18.6705C391.161 18.9489 392.059 19.3778 392.65 19.9574C393.241 20.5369 393.536 21.2898 393.536 22.2159C393.536 23 393.309 23.6989 392.854 24.3125C392.406 24.9205 391.778 25.3977 390.971 25.7443C390.17 26.0909 389.241 26.2642 388.184 26.2642C386.718 26.2642 385.522 25.9517 384.596 25.3267C383.67 24.696 383.102 23.8011 382.891 22.642L385.354 22.267C385.508 22.9091 385.823 23.3949 386.3 23.7244C386.778 24.0483 387.4 24.2102 388.167 24.2102C389.002 24.2102 389.67 24.0369 390.17 23.6903C390.67 23.3381 390.92 22.9091 390.92 22.4034C390.92 21.9943 390.766 21.6506 390.46 21.3722C390.158 21.0937 389.695 20.8835 389.07 20.7415L386.854 20.2557C385.633 19.9773 384.729 19.5341 384.144 18.9261C383.565 18.3182 383.275 17.5483 383.275 16.6165C383.275 15.8437 383.491 15.1676 383.923 14.5881C384.354 14.0085 384.951 13.5568 385.712 13.233C386.474 12.9034 387.346 12.7386 388.329 12.7386C389.744 12.7386 390.857 13.0455 391.67 13.6591C392.482 14.267 393.019 15.0824 393.281 16.1051ZM406.148 16.1051L403.838 16.5142C403.741 16.2187 403.588 15.9375 403.378 15.6705C403.173 15.4034 402.895 15.1847 402.543 15.0142C402.19 14.8437 401.75 14.7585 401.222 14.7585C400.5 14.7585 399.898 14.9205 399.415 15.2443C398.932 15.5625 398.69 15.9744 398.69 16.4801C398.69 16.9176 398.852 17.2699 399.176 17.5369C399.5 17.804 400.023 18.0227 400.744 18.1932L402.824 18.6705C404.028 18.9489 404.926 19.3778 405.517 19.9574C406.108 20.5369 406.403 21.2898 406.403 22.2159C406.403 23 406.176 23.6989 405.722 24.3125C405.273 24.9205 404.645 25.3977 403.838 25.7443C403.037 26.0909 402.108 26.2642 401.051 26.2642C399.585 26.2642 398.389 25.9517 397.463 25.3267C396.537 24.696 395.969 23.8011 395.759 22.642L398.222 22.267C398.375 22.9091 398.69 23.3949 399.168 23.7244C399.645 24.0483 400.267 24.2102 401.034 24.2102C401.869 24.2102 402.537 24.0369 403.037 23.6903C403.537 23.3381 403.787 22.9091 403.787 22.4034C403.787 21.9943 403.634 21.6506 403.327 21.3722C403.026 21.0937 402.562 20.8835 401.938 20.7415L399.722 20.2557C398.5 19.9773 397.597 19.5341 397.011 18.9261C396.432 18.3182 396.142 17.5483 396.142 16.6165C396.142 15.8437 396.358 15.1676 396.79 14.5881C397.222 14.0085 397.818 13.5568 398.58 13.233C399.341 12.9034 400.213 12.7386 401.196 12.7386C402.611 12.7386 403.724 13.0455 404.537 13.6591C405.349 14.267 405.886 15.0824 406.148 16.1051Z" fill="#52525B"/>
<path d="M335 447L335 471" stroke="#18181B" stroke-width="4" stroke-linecap="round"/>
<path d="M335 457C333.895 457 333 457.895 333 459C333 460.105 333.895 461 335 461V457ZM335 461H404V457H335V461Z" fill="#18181B"/>
<path d="M423.689 448.182V470H420.397V448.182H423.689ZM431.413 460.284V470H428.227V453.636H431.285V456.3H431.487C431.864 455.433 432.453 454.737 433.256 454.212C434.065 453.686 435.085 453.423 436.313 453.423C437.428 453.423 438.405 453.658 439.243 454.126C440.081 454.588 440.731 455.277 441.192 456.193C441.654 457.109 441.885 458.242 441.885 459.592V470H438.7V459.975C438.7 458.789 438.391 457.862 437.773 457.195C437.155 456.52 436.306 456.183 435.227 456.183C434.488 456.183 433.831 456.342 433.256 456.662C432.688 456.982 432.237 457.45 431.903 458.068C431.576 458.679 431.413 459.418 431.413 460.284ZM446.157 476.136V453.636H449.268V456.289H449.534C449.719 455.948 449.985 455.554 450.333 455.107C450.681 454.659 451.164 454.268 451.782 453.935C452.4 453.594 453.217 453.423 454.232 453.423C455.553 453.423 456.732 453.757 457.769 454.425C458.806 455.092 459.619 456.055 460.209 457.312C460.805 458.569 461.104 460.082 461.104 461.85C461.104 463.619 460.809 465.135 460.219 466.399C459.63 467.656 458.82 468.626 457.79 469.308C456.761 469.982 455.585 470.32 454.264 470.32C453.27 470.32 452.457 470.153 451.825 469.819C451.2 469.485 450.71 469.094 450.354 468.647C449.999 468.2 449.726 467.802 449.534 467.454H449.342V476.136H446.157ZM449.278 461.818C449.278 462.969 449.445 463.977 449.779 464.844C450.113 465.71 450.596 466.388 451.228 466.879C451.86 467.362 452.634 467.603 453.55 467.603C454.502 467.603 455.298 467.351 455.937 466.847C456.576 466.335 457.059 465.643 457.386 464.769C457.719 463.896 457.886 462.912 457.886 461.818C457.886 460.739 457.723 459.769 457.396 458.91C457.077 458.05 456.594 457.372 455.947 456.875C455.308 456.378 454.509 456.129 453.55 456.129C452.627 456.129 451.846 456.367 451.207 456.843C450.575 457.319 450.095 457.983 449.768 458.835C449.442 459.687 449.278 460.682 449.278 461.818ZM475.038 463.214V453.636H478.234V470H475.102V467.166H474.932C474.555 468.04 473.952 468.768 473.121 469.35C472.297 469.925 471.271 470.213 470.042 470.213C468.991 470.213 468.06 469.982 467.251 469.521C466.448 469.052 465.816 468.359 465.354 467.443C464.9 466.527 464.673 465.394 464.673 464.045V453.636H467.858V463.661C467.858 464.776 468.167 465.664 468.785 466.325C469.403 466.985 470.205 467.315 471.192 467.315C471.789 467.315 472.382 467.166 472.972 466.868C473.568 466.57 474.062 466.119 474.452 465.515C474.85 464.911 475.045 464.144 475.038 463.214ZM490.153 453.636V456.193H481.215V453.636H490.153ZM483.612 449.716H486.797V465.195C486.797 465.813 486.889 466.278 487.074 466.591C487.259 466.896 487.497 467.106 487.788 467.219C488.086 467.326 488.409 467.379 488.757 467.379C489.013 467.379 489.237 467.362 489.428 467.326C489.62 467.29 489.769 467.262 489.876 467.241L490.451 469.872C490.267 469.943 490.004 470.014 489.663 470.085C489.322 470.163 488.896 470.206 488.384 470.213C487.546 470.227 486.765 470.078 486.041 469.766C485.316 469.453 484.73 468.97 484.283 468.317C483.835 467.663 483.612 466.843 483.612 465.856V449.716ZM507.742 470.32C506.421 470.32 505.242 469.982 504.205 469.308C503.175 468.626 502.365 467.656 501.776 466.399C501.193 465.135 500.902 463.619 500.902 461.85C500.902 460.082 501.197 458.569 501.786 457.312C502.383 456.055 503.2 455.092 504.237 454.425C505.274 453.757 506.449 453.423 507.763 453.423C508.779 453.423 509.595 453.594 510.213 453.935C510.838 454.268 511.321 454.659 511.662 455.107C512.01 455.554 512.28 455.948 512.472 456.289H512.664V448.182H515.849V470H512.738V467.454H512.472C512.28 467.802 512.003 468.2 511.641 468.647C511.286 469.094 510.796 469.485 510.171 469.819C509.546 470.153 508.736 470.32 507.742 470.32ZM508.445 467.603C509.361 467.603 510.135 467.362 510.767 466.879C511.406 466.388 511.889 465.71 512.216 464.844C512.55 463.977 512.717 462.969 512.717 461.818C512.717 460.682 512.553 459.687 512.227 458.835C511.9 457.983 511.421 457.319 510.789 456.843C510.156 456.367 509.375 456.129 508.445 456.129C507.486 456.129 506.687 456.378 506.048 456.875C505.409 457.372 504.926 458.05 504.599 458.91C504.279 459.769 504.119 460.739 504.119 461.818C504.119 462.912 504.283 463.896 504.61 464.769C504.936 465.643 505.419 466.335 506.058 466.847C506.705 467.351 507.5 467.603 508.445 467.603ZM527.448 470.33C525.836 470.33 524.447 469.986 523.282 469.297C522.125 468.601 521.23 467.624 520.598 466.367C519.973 465.103 519.66 463.622 519.66 461.925C519.66 460.249 519.973 458.771 520.598 457.493C521.23 456.214 522.11 455.217 523.24 454.499C524.376 453.782 525.704 453.423 527.224 453.423C528.147 453.423 529.042 453.576 529.909 453.881C530.775 454.187 531.553 454.666 532.242 455.32C532.931 455.973 533.474 456.822 533.872 457.866C534.27 458.903 534.468 460.163 534.468 461.648V462.777H521.461V460.391H531.347C531.347 459.553 531.176 458.81 530.836 458.164C530.495 457.511 530.015 456.996 529.397 456.619C528.787 456.243 528.069 456.055 527.245 456.055C526.35 456.055 525.569 456.275 524.902 456.715C524.241 457.148 523.73 457.717 523.368 458.42C523.012 459.116 522.835 459.872 522.835 460.689V462.553C522.835 463.647 523.027 464.577 523.41 465.344C523.801 466.112 524.344 466.697 525.04 467.102C525.736 467.5 526.549 467.699 527.48 467.699C528.083 467.699 528.634 467.614 529.131 467.443C529.628 467.266 530.058 467.003 530.42 466.655C530.782 466.307 531.059 465.877 531.251 465.366L534.266 465.909C534.025 466.797 533.591 467.575 532.966 468.242C532.348 468.903 531.571 469.418 530.633 469.787C529.703 470.149 528.641 470.33 527.448 470.33ZM541.188 448.182V470H538.003V448.182H541.188ZM550.235 470.362C549.199 470.362 548.261 470.17 547.423 469.787C546.585 469.396 545.921 468.832 545.431 468.093C544.948 467.354 544.706 466.449 544.706 465.376C544.706 464.453 544.884 463.693 545.239 463.097C545.594 462.5 546.074 462.028 546.677 461.68C547.281 461.332 547.956 461.069 548.701 460.891C549.447 460.714 550.207 460.579 550.981 460.487C551.961 460.373 552.757 460.281 553.368 460.21C553.978 460.131 554.422 460.007 554.699 459.837C554.976 459.666 555.115 459.389 555.115 459.006V458.931C555.115 458.001 554.852 457.28 554.326 456.768C553.808 456.257 553.034 456.001 552.004 456.001C550.931 456.001 550.086 456.239 549.468 456.715C548.858 457.184 548.435 457.706 548.201 458.281L545.207 457.599C545.562 456.605 546.081 455.803 546.762 455.192C547.451 454.574 548.243 454.126 549.138 453.849C550.033 453.565 550.974 453.423 551.961 453.423C552.615 453.423 553.307 453.501 554.039 453.658C554.777 453.807 555.466 454.084 556.105 454.489C556.752 454.893 557.281 455.472 557.693 456.225C558.105 456.971 558.311 457.94 558.311 459.134V470H555.2V467.763H555.072C554.866 468.175 554.557 468.58 554.145 468.977C553.733 469.375 553.204 469.705 552.558 469.968C551.912 470.231 551.137 470.362 550.235 470.362ZM550.928 467.805C551.809 467.805 552.561 467.631 553.186 467.283C553.819 466.935 554.298 466.481 554.625 465.92C554.958 465.352 555.125 464.744 555.125 464.098V461.989C555.012 462.102 554.792 462.209 554.465 462.308C554.145 462.401 553.779 462.482 553.368 462.553C552.956 462.617 552.554 462.678 552.164 462.734C551.773 462.784 551.446 462.827 551.184 462.862C550.566 462.94 550.001 463.072 549.49 463.256C548.985 463.441 548.581 463.707 548.275 464.055C547.977 464.396 547.828 464.851 547.828 465.419C547.828 466.207 548.119 466.804 548.701 467.209C549.284 467.607 550.026 467.805 550.928 467.805ZM563.981 476.136C563.505 476.136 563.072 476.097 562.681 476.019C562.291 475.948 561.999 475.87 561.808 475.785L562.575 473.175C563.157 473.331 563.676 473.398 564.13 473.377C564.585 473.356 564.986 473.185 565.334 472.866C565.689 472.546 566.002 472.024 566.271 471.3L566.666 470.213L560.678 453.636H564.088L568.232 466.335H568.402L572.546 453.636H575.966L569.222 472.184C568.91 473.036 568.512 473.757 568.029 474.347C567.546 474.943 566.971 475.391 566.303 475.689C565.636 475.987 564.862 476.136 563.981 476.136Z" fill="#18181B"/>
<path d="M660 471V447" stroke="#18181B" stroke-width="4" stroke-linecap="round"/>
<path d="M660 461C661.105 461 662 460.105 662 459C662 457.895 661.105 457 660 457V461ZM660 457H591V461H660V457Z" fill="#18181B"/>
<rect x="660" y="303" width="216" height="82" rx="8" fill="#FCEFCF"/>
<path d="M705.21 341V339.364C705.21 338.881 705.301 338.372 705.483 337.838C705.665 337.304 705.918 336.793 706.241 336.304C706.565 335.815 706.946 335.398 707.384 335.051L708.645 335.955C708.298 336.46 708.003 336.989 707.759 337.54C707.514 338.091 707.392 338.69 707.392 339.338V341H705.21ZM709.557 341V339.364C709.557 338.881 709.648 338.372 709.83 337.838C710.011 337.304 710.264 336.793 710.588 336.304C710.912 335.815 711.293 335.398 711.73 335.051L712.991 335.955C712.645 336.46 712.349 336.989 712.105 337.54C711.861 338.091 711.739 338.69 711.739 339.338V341H709.557ZM715.386 353V335.545H721.778C723.017 335.545 724.043 335.75 724.855 336.159C725.668 336.562 726.276 337.111 726.679 337.804C727.082 338.491 727.284 339.267 727.284 340.131C727.284 340.858 727.151 341.472 726.884 341.972C726.616 342.466 726.259 342.864 725.81 343.165C725.366 343.46 724.878 343.676 724.344 343.812V343.983C724.923 344.011 725.489 344.199 726.04 344.545C726.597 344.886 727.057 345.372 727.42 346.003C727.784 346.634 727.966 347.401 727.966 348.304C727.966 349.196 727.756 349.997 727.335 350.707C726.92 351.412 726.278 351.972 725.409 352.386C724.54 352.795 723.429 353 722.077 353H715.386ZM718.02 350.741H721.821C723.082 350.741 723.986 350.497 724.531 350.009C725.077 349.52 725.349 348.909 725.349 348.176C725.349 347.625 725.21 347.119 724.932 346.659C724.653 346.199 724.256 345.832 723.739 345.56C723.227 345.287 722.619 345.151 721.915 345.151H718.02V350.741ZM718.02 343.097H721.548C722.139 343.097 722.67 342.983 723.142 342.756C723.619 342.528 723.997 342.21 724.276 341.801C724.56 341.386 724.702 340.898 724.702 340.335C724.702 339.614 724.449 339.009 723.943 338.52C723.438 338.031 722.662 337.787 721.616 337.787H718.02V343.097ZM733.075 335.545V337.182C733.075 337.665 732.984 338.173 732.803 338.707C732.626 339.236 732.376 339.744 732.053 340.233C731.729 340.722 731.348 341.142 730.911 341.494L729.649 340.591C729.984 340.102 730.274 339.582 730.518 339.031C730.768 338.48 730.893 337.872 730.893 337.207V335.545H733.075ZM737.413 335.545V337.182C737.413 337.665 737.322 338.173 737.141 338.707C736.964 339.236 736.714 339.744 736.391 340.233C736.067 340.722 735.686 341.142 735.249 341.494L733.987 340.591C734.322 340.102 734.612 339.582 734.857 339.031C735.107 338.48 735.232 337.872 735.232 337.207V335.545H737.413ZM749.254 345.227V353H746.705V335.545H749.219V342.04H749.381C749.688 341.335 750.157 340.776 750.788 340.361C751.418 339.946 752.242 339.739 753.259 339.739C754.157 339.739 754.941 339.923 755.612 340.293C756.288 340.662 756.81 341.213 757.18 341.946C757.555 342.673 757.742 343.582 757.742 344.673V353H755.194V344.98C755.194 344.02 754.947 343.276 754.452 342.747C753.958 342.213 753.271 341.946 752.39 341.946C751.788 341.946 751.248 342.074 750.771 342.33C750.299 342.585 749.927 342.96 749.654 343.455C749.387 343.943 749.254 344.534 749.254 345.227ZM764.952 353.29C764.123 353.29 763.373 353.136 762.702 352.83C762.032 352.517 761.501 352.065 761.109 351.474C760.722 350.884 760.529 350.159 760.529 349.301C760.529 348.562 760.671 347.955 760.955 347.477C761.239 347 761.623 346.622 762.106 346.344C762.589 346.065 763.129 345.855 763.725 345.713C764.322 345.571 764.93 345.463 765.549 345.389C766.333 345.298 766.969 345.224 767.458 345.168C767.947 345.105 768.302 345.006 768.523 344.869C768.745 344.733 768.856 344.511 768.856 344.205V344.145C768.856 343.401 768.646 342.824 768.225 342.415C767.81 342.006 767.191 341.801 766.367 341.801C765.509 341.801 764.833 341.991 764.339 342.372C763.85 342.747 763.512 343.165 763.325 343.625L760.93 343.08C761.214 342.284 761.629 341.642 762.174 341.153C762.725 340.659 763.359 340.301 764.075 340.08C764.79 339.852 765.543 339.739 766.333 339.739C766.856 339.739 767.41 339.801 767.995 339.926C768.586 340.045 769.137 340.267 769.648 340.591C770.165 340.915 770.589 341.378 770.918 341.98C771.248 342.577 771.413 343.352 771.413 344.307V353H768.924V351.21H768.822C768.657 351.54 768.41 351.864 768.08 352.182C767.751 352.5 767.327 352.764 766.81 352.974C766.293 353.185 765.674 353.29 764.952 353.29ZM765.506 351.244C766.211 351.244 766.813 351.105 767.313 350.827C767.819 350.548 768.202 350.185 768.464 349.736C768.731 349.281 768.864 348.795 768.864 348.278V346.591C768.773 346.682 768.597 346.767 768.336 346.847C768.08 346.92 767.788 346.986 767.458 347.043C767.129 347.094 766.808 347.142 766.495 347.188C766.183 347.227 765.921 347.261 765.711 347.29C765.217 347.352 764.765 347.457 764.356 347.605C763.952 347.753 763.629 347.966 763.384 348.244C763.146 348.517 763.026 348.881 763.026 349.335C763.026 349.966 763.259 350.443 763.725 350.767C764.191 351.085 764.785 351.244 765.506 351.244ZM777.355 345.227V353H774.807V339.909H777.253V342.04H777.415C777.716 341.347 778.188 340.79 778.83 340.369C779.477 339.949 780.293 339.739 781.276 339.739C782.168 339.739 782.949 339.926 783.619 340.301C784.29 340.67 784.81 341.222 785.179 341.955C785.548 342.687 785.733 343.594 785.733 344.673V353H783.185V344.98C783.185 344.031 782.938 343.29 782.443 342.756C781.949 342.216 781.27 341.946 780.406 341.946C779.815 341.946 779.29 342.074 778.83 342.33C778.375 342.585 778.014 342.96 777.747 343.455C777.486 343.943 777.355 344.534 777.355 345.227ZM794.051 353.256C792.994 353.256 792.051 352.986 791.222 352.446C790.398 351.901 789.75 351.125 789.278 350.119C788.813 349.108 788.58 347.895 788.58 346.48C788.58 345.065 788.815 343.855 789.287 342.849C789.764 341.844 790.418 341.074 791.247 340.54C792.077 340.006 793.017 339.739 794.068 339.739C794.881 339.739 795.534 339.875 796.028 340.148C796.528 340.415 796.915 340.727 797.188 341.085C797.466 341.443 797.682 341.759 797.835 342.031H797.989V335.545H800.537V353H798.048V350.963H797.835C797.682 351.241 797.46 351.56 797.17 351.918C796.886 352.276 796.494 352.588 795.994 352.855C795.494 353.122 794.847 353.256 794.051 353.256ZM794.614 351.082C795.347 351.082 795.966 350.889 796.472 350.503C796.983 350.111 797.369 349.568 797.631 348.875C797.898 348.182 798.031 347.375 798.031 346.455C798.031 345.545 797.901 344.75 797.639 344.068C797.378 343.386 796.994 342.855 796.489 342.474C795.983 342.094 795.358 341.903 794.614 341.903C793.847 341.903 793.207 342.102 792.696 342.5C792.185 342.898 791.798 343.44 791.537 344.128C791.281 344.815 791.153 345.591 791.153 346.455C791.153 347.33 791.284 348.116 791.545 348.815C791.807 349.514 792.193 350.068 792.705 350.477C793.222 350.881 793.858 351.082 794.614 351.082ZM806.722 335.545V353H804.174V335.545H806.722ZM815.793 353.264C814.503 353.264 813.392 352.989 812.46 352.438C811.534 351.881 810.818 351.099 810.312 350.094C809.812 349.082 809.562 347.898 809.562 346.54C809.562 345.199 809.812 344.017 810.312 342.994C810.818 341.972 811.523 341.173 812.426 340.599C813.335 340.026 814.398 339.739 815.614 339.739C816.352 339.739 817.068 339.861 817.761 340.105C818.455 340.349 819.077 340.733 819.628 341.256C820.179 341.778 820.614 342.457 820.932 343.293C821.25 344.122 821.409 345.131 821.409 346.318V347.222H811.003V345.312H818.912C818.912 344.642 818.776 344.048 818.503 343.531C818.23 343.009 817.847 342.597 817.352 342.295C816.864 341.994 816.29 341.844 815.631 341.844C814.915 341.844 814.29 342.02 813.756 342.372C813.227 342.719 812.818 343.173 812.528 343.736C812.244 344.293 812.102 344.898 812.102 345.551V347.043C812.102 347.918 812.256 348.662 812.562 349.276C812.875 349.889 813.31 350.358 813.866 350.682C814.423 351 815.074 351.159 815.818 351.159C816.301 351.159 816.741 351.091 817.139 350.955C817.537 350.812 817.881 350.602 818.17 350.324C818.46 350.045 818.682 349.702 818.835 349.293L821.247 349.727C821.054 350.437 820.707 351.06 820.207 351.594C819.713 352.122 819.091 352.534 818.341 352.83C817.597 353.119 816.747 353.264 815.793 353.264ZM824.237 353V339.909H826.7V341.989H826.836C827.075 341.284 827.495 340.73 828.097 340.327C828.705 339.918 829.393 339.713 830.16 339.713C830.319 339.713 830.506 339.719 830.722 339.73C830.944 339.741 831.117 339.756 831.242 339.773V342.21C831.14 342.182 830.958 342.151 830.697 342.116C830.435 342.077 830.174 342.057 829.913 342.057C829.31 342.057 828.773 342.185 828.302 342.44C827.836 342.69 827.467 343.04 827.194 343.489C826.921 343.932 826.785 344.437 826.785 345.006V353H824.237Z" fill="#78350F"/>
<path d="M129.21 684V682.364C129.21 681.881 129.301 681.372 129.483 680.838C129.665 680.304 129.918 679.793 130.241 679.304C130.565 678.815 130.946 678.398 131.384 678.051L132.645 678.955C132.298 679.46 132.003 679.989 131.759 680.54C131.514 681.091 131.392 681.69 131.392 682.338V684H129.21ZM133.557 684V682.364C133.557 681.881 133.648 681.372 133.83 680.838C134.011 680.304 134.264 679.793 134.588 679.304C134.912 678.815 135.293 678.398 135.73 678.051L136.991 678.955C136.645 679.46 136.349 679.989 136.105 680.54C135.861 681.091 135.739 681.69 135.739 682.338V684H133.557ZM138.54 696H135.745L142.026 678.545H145.069L151.35 696H148.555L143.62 681.716H143.484L138.54 696ZM139.009 689.165H148.077V691.381H139.009V689.165ZM153.396 678.545V680.182C153.396 680.665 153.305 681.173 153.123 681.707C152.947 682.236 152.697 682.744 152.373 683.233C152.049 683.722 151.668 684.142 151.231 684.494L149.969 683.591C150.305 683.102 150.594 682.582 150.839 682.031C151.089 681.48 151.214 680.872 151.214 680.207V678.545H153.396ZM157.734 678.545V680.182C157.734 680.665 157.643 681.173 157.461 681.707C157.285 682.236 157.035 682.744 156.711 683.233C156.387 683.722 156.006 684.142 155.569 684.494L154.308 683.591C154.643 683.102 154.933 682.582 155.177 682.031C155.427 681.48 155.552 680.872 155.552 680.207V678.545H157.734ZM169.369 691.56L169.352 688.449H169.795L175.011 682.909H178.062L172.114 689.216H171.713L169.369 691.56ZM167.026 696V678.545H169.574V696H167.026ZM175.293 696L170.605 689.778L172.361 687.997L178.42 696H175.293ZM185.488 696.264C184.198 696.264 183.087 695.989 182.156 695.438C181.229 694.881 180.513 694.099 180.008 693.094C179.508 692.082 179.258 690.898 179.258 689.54C179.258 688.199 179.508 687.017 180.008 685.994C180.513 684.972 181.218 684.173 182.121 683.599C183.031 683.026 184.093 682.739 185.309 682.739C186.048 682.739 186.763 682.861 187.457 683.105C188.15 683.349 188.772 683.733 189.323 684.256C189.874 684.778 190.309 685.457 190.627 686.293C190.945 687.122 191.104 688.131 191.104 689.318V690.222H180.698V688.312H188.607C188.607 687.642 188.471 687.048 188.198 686.531C187.925 686.009 187.542 685.597 187.048 685.295C186.559 684.994 185.985 684.844 185.326 684.844C184.61 684.844 183.985 685.02 183.451 685.372C182.923 685.719 182.513 686.173 182.224 686.736C181.94 687.293 181.798 687.898 181.798 688.551V690.043C181.798 690.918 181.951 691.662 182.258 692.276C182.57 692.889 183.005 693.358 183.562 693.682C184.119 694 184.769 694.159 185.513 694.159C185.996 694.159 186.437 694.091 186.835 693.955C187.232 693.812 187.576 693.602 187.866 693.324C188.156 693.045 188.377 692.702 188.531 692.293L190.942 692.727C190.749 693.437 190.403 694.06 189.903 694.594C189.408 695.122 188.786 695.534 188.036 695.83C187.292 696.119 186.442 696.264 185.488 696.264ZM195.168 700.909C194.787 700.909 194.44 700.878 194.128 700.815C193.815 700.759 193.582 700.696 193.429 700.628L194.043 698.54C194.509 698.665 194.923 698.719 195.287 698.702C195.651 698.685 195.972 698.548 196.25 698.293C196.534 698.037 196.784 697.619 197 697.04L197.315 696.17L192.526 682.909H195.253L198.568 693.068H198.705L202.02 682.909H204.756L199.361 697.747C199.111 698.429 198.793 699.006 198.406 699.477C198.02 699.955 197.56 700.313 197.026 700.551C196.491 700.79 195.872 700.909 195.168 700.909ZM207.151 700.909V682.909H209.639V685.031H209.852C210 684.759 210.213 684.443 210.491 684.085C210.77 683.727 211.156 683.415 211.651 683.148C212.145 682.875 212.798 682.739 213.611 682.739C214.668 682.739 215.611 683.006 216.44 683.54C217.27 684.074 217.92 684.844 218.392 685.849C218.869 686.855 219.108 688.065 219.108 689.48C219.108 690.895 218.872 692.108 218.401 693.119C217.929 694.125 217.281 694.901 216.457 695.446C215.634 695.986 214.693 696.256 213.636 696.256C212.841 696.256 212.19 696.122 211.685 695.855C211.185 695.588 210.793 695.276 210.509 694.918C210.224 694.56 210.006 694.241 209.852 693.963H209.699V700.909H207.151ZM209.648 689.455C209.648 690.375 209.781 691.182 210.048 691.875C210.315 692.568 210.702 693.111 211.207 693.503C211.713 693.889 212.332 694.082 213.065 694.082C213.827 694.082 214.463 693.881 214.974 693.477C215.486 693.068 215.872 692.514 216.134 691.815C216.401 691.116 216.534 690.33 216.534 689.455C216.534 688.591 216.403 687.815 216.142 687.128C215.886 686.44 215.5 685.898 214.983 685.5C214.472 685.102 213.832 684.903 213.065 684.903C212.327 684.903 211.702 685.094 211.19 685.474C210.685 685.855 210.301 686.386 210.04 687.068C209.778 687.75 209.648 688.545 209.648 689.455ZM221.963 696V682.909H224.426V684.989H224.562C224.801 684.284 225.222 683.73 225.824 683.327C226.432 682.918 227.119 682.713 227.886 682.713C228.045 682.713 228.233 682.719 228.449 682.73C228.67 682.741 228.844 682.756 228.969 682.773V685.21C228.866 685.182 228.685 685.151 228.423 685.116C228.162 685.077 227.901 685.057 227.639 685.057C227.037 685.057 226.5 685.185 226.028 685.44C225.563 685.69 225.193 686.04 224.92 686.489C224.648 686.932 224.511 687.437 224.511 688.006V696H221.963ZM236.347 696.264C235.058 696.264 233.947 695.989 233.015 695.438C232.089 694.881 231.373 694.099 230.867 693.094C230.367 692.082 230.117 690.898 230.117 689.54C230.117 688.199 230.367 687.017 230.867 685.994C231.373 684.972 232.077 684.173 232.981 683.599C233.89 683.026 234.952 682.739 236.168 682.739C236.907 682.739 237.623 682.861 238.316 683.105C239.009 683.349 239.631 683.733 240.183 684.256C240.734 684.778 241.168 685.457 241.487 686.293C241.805 687.122 241.964 688.131 241.964 689.318V690.222H231.558V688.312H239.467C239.467 687.642 239.33 687.048 239.058 686.531C238.785 686.009 238.401 685.597 237.907 685.295C237.418 684.994 236.844 684.844 236.185 684.844C235.469 684.844 234.844 685.02 234.31 685.372C233.782 685.719 233.373 686.173 233.083 686.736C232.799 687.293 232.657 687.898 232.657 688.551V690.043C232.657 690.918 232.81 691.662 233.117 692.276C233.43 692.889 233.864 693.358 234.421 693.682C234.978 694 235.629 694.159 236.373 694.159C236.856 694.159 237.296 694.091 237.694 693.955C238.092 693.812 238.435 693.602 238.725 693.324C239.015 693.045 239.237 692.702 239.39 692.293L241.802 692.727C241.609 693.437 241.262 694.06 240.762 694.594C240.268 695.122 239.646 695.534 238.896 695.83C238.151 696.119 237.302 696.264 236.347 696.264ZM254.601 686.105L252.291 686.514C252.195 686.219 252.041 685.937 251.831 685.67C251.626 685.403 251.348 685.185 250.996 685.014C250.643 684.844 250.203 684.759 249.675 684.759C248.953 684.759 248.351 684.92 247.868 685.244C247.385 685.562 247.143 685.974 247.143 686.48C247.143 686.918 247.305 687.27 247.629 687.537C247.953 687.804 248.476 688.023 249.197 688.193L251.277 688.67C252.482 688.949 253.379 689.378 253.97 689.957C254.561 690.537 254.857 691.29 254.857 692.216C254.857 693 254.629 693.699 254.175 694.312C253.726 694.92 253.098 695.398 252.291 695.744C251.49 696.091 250.561 696.264 249.504 696.264C248.038 696.264 246.842 695.952 245.916 695.327C244.99 694.696 244.422 693.801 244.212 692.642L246.675 692.267C246.828 692.909 247.143 693.395 247.621 693.724C248.098 694.048 248.72 694.21 249.487 694.21C250.322 694.21 250.99 694.037 251.49 693.69C251.99 693.338 252.24 692.909 252.24 692.403C252.24 691.994 252.087 691.651 251.78 691.372C251.479 691.094 251.016 690.884 250.391 690.741L248.175 690.256C246.953 689.977 246.05 689.534 245.464 688.926C244.885 688.318 244.595 687.548 244.595 686.616C244.595 685.844 244.811 685.168 245.243 684.588C245.675 684.009 246.271 683.557 247.033 683.233C247.794 682.903 248.666 682.739 249.649 682.739C251.064 682.739 252.178 683.045 252.99 683.659C253.803 684.267 254.339 685.082 254.601 686.105ZM267.468 686.105L265.158 686.514C265.062 686.219 264.908 685.937 264.698 685.67C264.494 685.403 264.215 685.185 263.863 685.014C263.511 684.844 263.07 684.759 262.542 684.759C261.82 684.759 261.218 684.92 260.735 685.244C260.252 685.562 260.011 685.974 260.011 686.48C260.011 686.918 260.173 687.27 260.496 687.537C260.82 687.804 261.343 688.023 262.065 688.193L264.144 688.67C265.349 688.949 266.246 689.378 266.837 689.957C267.428 690.537 267.724 691.29 267.724 692.216C267.724 693 267.496 693.699 267.042 694.312C266.593 694.92 265.965 695.398 265.158 695.744C264.357 696.091 263.428 696.264 262.371 696.264C260.906 696.264 259.71 695.952 258.783 695.327C257.857 694.696 257.289 693.801 257.079 692.642L259.542 692.267C259.695 692.909 260.011 693.395 260.488 693.724C260.965 694.048 261.587 694.21 262.354 694.21C263.19 694.21 263.857 694.037 264.357 693.69C264.857 693.338 265.107 692.909 265.107 692.403C265.107 691.994 264.954 691.651 264.647 691.372C264.346 691.094 263.883 690.884 263.258 690.741L261.042 690.256C259.82 689.977 258.917 689.534 258.332 688.926C257.752 688.318 257.462 687.548 257.462 686.616C257.462 685.844 257.678 685.168 258.11 684.588C258.542 684.009 259.138 683.557 259.9 683.233C260.661 682.903 261.533 682.739 262.516 682.739C263.931 682.739 265.045 683.045 265.857 683.659C266.67 684.267 267.207 685.082 267.468 686.105Z" fill="#52525B"/>
<defs>
<filter id="filter0_f_443_2736" x="243" y="0" width="185" height="185" filterUnits="userSpaceOnUse" color-interpolation-filters="sRGB">
<feFlood flood-opacity="0" result="BackgroundImageFix"/>
<feBlend mode="normal" in="SourceGraphic" in2="BackgroundImageFix" result="shape"/>
<feGaussianBlur stdDeviation="32.5" result="effect1_foregroundBlur_443_2736"/>
</filter>
<filter id="filter1_f_443_2736" x="108" y="526" width="185" height="185" filterUnits="userSpaceOnUse" color-interpolation-filters="sRGB">
<feFlood flood-opacity="0" result="BackgroundImageFix"/>
<feBlend mode="normal" in="SourceGraphic" in2="BackgroundImageFix" result="shape"/>
<feGaussianBlur stdDeviation="32.5" result="effect1_foregroundBlur_443_2736"/>
</filter>
</defs>
</svg>
