<svg xmlns="http://www.w3.org/2000/svg" width="310" height="311" fill="none" viewBox="0 0 310 311"><path fill="#232325" d="M309.711 155.957c0 85.524-69.331 154.855-154.856 154.855C69.331 310.812 0 241.481 0 155.957 0 70.432 69.331 1.101 154.855 1.101c85.525 0 154.856 69.331 154.856 154.856Zm-265.829 0c0 61.289 49.685 110.973 110.973 110.973 61.289 0 110.974-49.684 110.974-110.973 0-61.29-49.685-110.974-110.974-110.974-61.288 0-110.973 49.685-110.973 110.974Z"/><path fill="#A7F3D0" d="M281.381 111.945c11.988-4.12 18.513-17.286 12.668-28.534A154.851 154.851 0 0 0 160.475.006c-12.672-.314-21.638 11.329-20.077 23.908 1.561 12.58 13.104 21.258 25.732 22.362a108.95 108.95 0 0 1 83.864 52.365c6.535 10.861 19.4 17.424 31.387 13.304Z"/></svg>