<svg xmlns="http://www.w3.org/2000/svg" width="906" height="692" fill="none" viewBox="0 0 906 692"><rect width="906" height="376" y="166" fill="#FAFAFA" rx="8"/><path fill="#52525B" d="M877.707 344.707a.999.999 0 0 0 0-1.414l-6.364-6.364a.999.999 0 1 0-1.414 1.414l5.657 5.657-5.657 5.657a.999.999 0 1 0 1.414 1.414l6.364-6.364ZM22 345h4.453v-2H22v2Zm13.36 0h8.906v-2h-8.907v2Zm17.812 0h8.906v-2h-8.906v2Zm17.812 0h8.907v-2h-8.907v2Zm17.813 0h8.906v-2h-8.906v2Zm17.812 0h8.907v-2h-8.907v2Zm17.813 0h8.906v-2h-8.906v2Zm17.812 0h8.907v-2h-8.907v2Zm17.813 0h8.906v-2h-8.906v2Zm17.812 0h8.907v-2h-8.907v2Zm17.813 0h8.906v-2h-8.906v2Zm17.812 0h8.907v-2h-8.907v2Zm17.813 0h8.906v-2h-8.906v2Zm17.812 0h8.907v-2h-8.907v2Zm17.813 0h8.906v-2h-8.906v2Zm17.812 0h8.907v-2h-8.907v2Zm17.813 0h8.906v-2h-8.906v2Zm17.812 0h8.907v-2h-8.907v2Zm17.813 0h8.906v-2h-8.906v2Zm17.812 0h8.907v-2h-8.907v2Zm17.813 0h8.906v-2h-8.906v2Zm17.812 0h8.907v-2h-8.907v2Zm17.813 0h8.906v-2h-8.906v2Zm17.812 0h8.907v-2h-8.907v2Zm17.813 0h8.906v-2h-8.906v2Zm17.812 0h8.907v-2h-8.907v2Zm17.813 0h8.906v-2h-8.906v2Zm17.812 0h8.907v-2h-8.907v2Zm17.813 0h8.906v-2h-8.906v2Zm17.812 0h8.907v-2h-8.907v2Zm17.813 0h8.906v-2h-8.906v2Zm17.812 0h8.907v-2h-8.907v2Zm17.813 0h8.906v-2h-8.906v2Zm17.812 0h8.907v-2h-8.907v2Zm17.813 0h8.906v-2h-8.906v2Zm17.812 0h8.907v-2h-8.907v2Zm17.813 0h8.906v-2h-8.906v2Zm17.812 0h8.907v-2h-8.907v2Zm17.813 0h8.906v-2h-8.906v2Zm17.812 0h8.907v-2h-8.907v2Zm17.813 0h8.906v-2h-8.906v2Zm17.812 0h8.907v-2h-8.907v2Zm17.813 0h8.906v-2h-8.906v2Zm17.812 0h8.907v-2h-8.907v2Zm17.813 0h8.906v-2h-8.906v2Zm17.812 0h8.907v-2h-8.907v2Zm17.813 0h8.906v-2h-8.906v2Zm17.812 0h8.907v-2h-8.907v2Zm17.813 0H877v-2h-4.453v2Zm5.867.414a2 2 0 0 0 0-2.828l-12.728-12.728a2 2 0 1 0-2.828 2.828L874.172 344l-11.314 11.314a2 2 0 1 0 2.828 2.828l12.728-12.728ZM22 346h4.453v-4H22v4Zm13.36 0h8.906v-4h-8.907v4Zm17.812 0h8.906v-4h-8.906v4Zm17.812 0h8.907v-4h-8.907v4Zm17.813 0h8.906v-4h-8.906v4Zm17.812 0h8.907v-4h-8.907v4Zm17.813 0h8.906v-4h-8.906v4Zm17.812 0h8.907v-4h-8.907v4Zm17.813 0h8.906v-4h-8.906v4Zm17.812 0h8.907v-4h-8.907v4Zm17.813 0h8.906v-4h-8.906v4Zm17.812 0h8.907v-4h-8.907v4Zm17.813 0h8.906v-4h-8.906v4Zm17.812 0h8.907v-4h-8.907v4Zm17.813 0h8.906v-4h-8.906v4Zm17.812 0h8.907v-4h-8.907v4Zm17.813 0h8.906v-4h-8.906v4Zm17.812 0h8.907v-4h-8.907v4Zm17.813 0h8.906v-4h-8.906v4Zm17.812 0h8.907v-4h-8.907v4Zm17.813 0h8.906v-4h-8.906v4Zm17.812 0h8.907v-4h-8.907v4Zm17.813 0h8.906v-4h-8.906v4Zm17.812 0h8.907v-4h-8.907v4Zm17.813 0h8.906v-4h-8.906v4Zm17.812 0h8.907v-4h-8.907v4Zm17.813 0h8.906v-4h-8.906v4Zm17.812 0h8.907v-4h-8.907v4Zm17.813 0h8.906v-4h-8.906v4Zm17.812 0h8.907v-4h-8.907v4Zm17.813 0h8.906v-4h-8.906v4Zm17.812 0h8.907v-4h-8.907v4Zm17.813 0h8.906v-4h-8.906v4Zm17.812 0h8.907v-4h-8.907v4Zm17.813 0h8.906v-4h-8.906v4Zm17.812 0h8.907v-4h-8.907v4Zm17.813 0h8.906v-4h-8.906v4Zm17.812 0h8.907v-4h-8.907v4Zm17.813 0h8.906v-4h-8.906v4Zm17.812 0h8.907v-4h-8.907v4Zm17.813 0h8.906v-4h-8.906v4Zm17.812 0h8.907v-4h-8.907v4Zm17.813 0h8.906v-4h-8.906v4Zm17.812 0h8.907v-4h-8.907v4Zm17.813 0h8.906v-4h-8.906v4Zm17.812 0h8.907v-4h-8.907v4Zm17.813 0h8.906v-4h-8.906v4Zm17.812 0h8.907v-4h-8.907v4Zm17.813 0H877v-4h-4.453v4Z"/><rect width="155" height="82" x="57" y="303" fill="#FCEFCF" rx="8"/><path fill="#78350F" d="M115.227 353.264c-1.267 0-2.358-.287-3.272-.861-.91-.579-1.608-1.377-2.097-2.394-.489-1.018-.733-2.182-.733-3.495 0-1.329.25-2.503.75-3.52.5-1.022 1.205-1.821 2.114-2.395.909-.573 1.98-.86 3.213-.86.994 0 1.88.184 2.659.554a4.764 4.764 0 0 1 1.883 1.534c.483.659.77 1.429.861 2.309h-2.48a2.974 2.974 0 0 0-.937-1.585c-.483-.443-1.131-.665-1.944-.665-.71 0-1.332.188-1.866.563-.529.369-.94.898-1.236 1.585-.295.682-.443 1.489-.443 2.421 0 .954.145 1.778.435 2.471.289.693.698 1.23 1.227 1.611.534.381 1.162.571 1.883.571.483 0 .921-.088 1.313-.264.398-.182.73-.441.997-.776a2.91 2.91 0 0 0 .571-1.21h2.48a4.81 4.81 0 0 1-.827 2.267c-.46.665-1.076 1.187-1.849 1.568-.767.381-1.668.571-2.702.571Zm10.652-17.719V353h-2.549v-17.455h2.549ZM129.307 353v-13.091h2.548V353h-2.548Zm1.287-15.111c-.443 0-.824-.148-1.142-.443a1.44 1.44 0 0 1-.469-1.074c0-.42.156-.778.469-1.074a1.603 1.603 0 0 1 1.142-.451c.443 0 .821.15 1.133.451.318.296.478.654.478 1.074 0 .415-.16.773-.478 1.074a1.59 1.59 0 0 1-1.133.443Zm10.204 15.375c-1.267 0-2.358-.287-3.273-.861-.909-.579-1.608-1.377-2.097-2.394-.488-1.018-.733-2.182-.733-3.495 0-1.329.25-2.503.75-3.52.5-1.022 1.205-1.821 2.114-2.395.909-.573 1.98-.86 3.213-.86.994 0 1.881.184 2.659.554a4.767 4.767 0 0 1 1.884 1.534c.483.659.77 1.429.86 2.309h-2.48a2.974 2.974 0 0 0-.937-1.585c-.483-.443-1.131-.665-1.943-.665-.711 0-1.333.188-1.867.563-.528.369-.94.898-1.236 1.585-.295.682-.443 1.489-.443 2.421 0 .954.145 1.778.435 2.471.29.693.699 1.23 1.227 1.611.534.381 1.162.571 1.884.571.483 0 .92-.088 1.312-.264.398-.182.73-.441.997-.776a2.91 2.91 0 0 0 .571-1.21h2.48a4.81 4.81 0 0 1-.826 2.267 4.763 4.763 0 0 1-1.85 1.568c-.767.381-1.667.571-2.701.571Zm10.446-4.704-.017-3.111h.443l5.216-5.54h3.052l-5.949 6.307h-.401l-2.344 2.344Zm-2.343 4.44v-17.455h2.548V353h-2.548Zm8.267 0-4.688-6.222 1.756-1.781 6.059 8.003h-3.127Z"/><rect width="147" height="82" x="257" y="303" fill="#E2DAF6" rx="8"/><path fill="#4C1D95" d="M290.918 353v-17.455h6.221c1.352 0 2.475.233 3.367.699.897.466 1.568 1.111 2.011 1.935.443.818.665 1.764.665 2.838 0 1.068-.225 2.009-.673 2.821-.444.807-1.114 1.435-2.012 1.884-.892.448-2.014.673-3.366.673h-4.713v-2.267h4.474c.852 0 1.546-.122 2.08-.367.539-.244.934-.599 1.184-1.065.25-.466.375-1.026.375-1.679 0-.659-.128-1.23-.383-1.713-.25-.483-.645-.852-1.185-1.108-.534-.261-1.236-.392-2.105-.392h-3.307V353h-2.633Zm8.616-7.875 4.313 7.875h-3l-4.228-7.875h2.915Zm12.126 8.139c-1.29 0-2.401-.275-3.333-.826-.926-.557-1.642-1.339-2.147-2.344-.5-1.012-.75-2.196-.75-3.554 0-1.341.25-2.523.75-3.546.505-1.022 1.21-1.821 2.113-2.395.909-.573 1.972-.86 3.188-.86a6.43 6.43 0 0 1 2.148.366 5.193 5.193 0 0 1 1.866 1.151c.551.522.986 1.201 1.304 2.037.318.829.477 1.838.477 3.025v.904H306.87v-1.91h7.909c0-.67-.136-1.264-.409-1.781a3.102 3.102 0 0 0-1.151-1.236c-.488-.301-1.062-.451-1.721-.451-.716 0-1.341.176-1.875.528a3.535 3.535 0 0 0-1.227 1.364 3.939 3.939 0 0 0-.427 1.815v1.492c0 .875.154 1.619.461 2.233a3.328 3.328 0 0 0 1.304 1.406c.556.318 1.207.477 1.951.477a4.06 4.06 0 0 0 1.321-.204 2.875 2.875 0 0 0 1.032-.631c.289-.279.511-.622.664-1.031l2.412.434a4.367 4.367 0 0 1-1.039 1.867c-.495.528-1.117.94-1.867 1.236-.744.289-1.594.434-2.548.434Zm10.992-8.037V353h-2.548v-13.091h2.446v2.131h.162a3.745 3.745 0 0 1 1.414-1.671c.648-.42 1.463-.63 2.446-.63.892 0 1.674.187 2.344.562.671.369 1.191.921 1.56 1.654.369.732.554 1.639.554 2.718V353h-2.548v-8.02c0-.949-.248-1.69-.742-2.224-.494-.54-1.173-.81-2.037-.81-.591 0-1.116.128-1.577.384-.454.255-.815.63-1.082 1.125-.261.488-.392 1.079-.392 1.772Zm16.696 8.029c-1.057 0-2-.27-2.83-.81-.823-.545-1.471-1.321-1.943-2.327-.466-1.011-.699-2.224-.699-3.639 0-1.415.236-2.625.708-3.631.477-1.005 1.13-1.775 1.96-2.309.83-.534 1.77-.801 2.821-.801.813 0 1.466.136 1.96.409.5.267.887.579 1.159.937.279.358.495.674.648.946h.154v-6.486h2.548V353h-2.489v-2.037h-.213a6.721 6.721 0 0 1-.665.955c-.284.358-.676.67-1.176.937-.5.267-1.148.401-1.943.401Zm.563-2.174c.732 0 1.352-.193 1.857-.579.512-.392.898-.935 1.16-1.628.267-.693.4-1.5.4-2.42 0-.91-.131-1.705-.392-2.387-.261-.682-.645-1.213-1.15-1.594-.506-.38-1.131-.571-1.875-.571-.768 0-1.407.199-1.918.597-.511.398-.898.94-1.159 1.628-.256.687-.384 1.463-.384 2.327 0 .875.131 1.661.392 2.36.262.699.648 1.253 1.159 1.662.517.404 1.154.605 1.91.605Zm15.202 2.182c-1.29 0-2.401-.275-3.332-.826-.927-.557-1.643-1.339-2.148-2.344-.5-1.012-.75-2.196-.75-3.554 0-1.341.25-2.523.75-3.546.505-1.022 1.21-1.821 2.113-2.395.91-.573 1.972-.86 3.188-.86.739 0 1.454.122 2.148.366a5.193 5.193 0 0 1 1.866 1.151c.551.522.986 1.201 1.304 2.037.318.829.477 1.838.477 3.025v.904h-10.406v-1.91h7.909c0-.67-.136-1.264-.409-1.781a3.107 3.107 0 0 0-1.15-1.236c-.489-.301-1.063-.451-1.722-.451-.716 0-1.341.176-1.875.528a3.543 3.543 0 0 0-1.227 1.364 3.938 3.938 0 0 0-.426 1.815v1.492c0 .875.153 1.619.46 2.233a3.328 3.328 0 0 0 1.304 1.406c.557.318 1.207.477 1.951.477a4.07 4.07 0 0 0 1.322-.204 2.88 2.88 0 0 0 1.031-.631 2.75 2.75 0 0 0 .665-1.031l2.411.434a4.367 4.367 0 0 1-1.039 1.867c-.495.528-1.117.94-1.867 1.236-.744.289-1.594.434-2.548.434Zm8.444-.264v-13.091h2.463v2.08h.136a3.16 3.16 0 0 1 1.262-1.662 3.61 3.61 0 0 1 2.062-.614 11.338 11.338 0 0 1 1.082.06v2.437a4.838 4.838 0 0 0-.545-.094 5.305 5.305 0 0 0-.784-.059c-.602 0-1.139.128-1.611.383a2.851 2.851 0 0 0-1.517 2.566V353h-2.548Z"/><rect width="166" height="82" x="417" y="303" fill="#D1FAE5" rx="8"/><path fill="#064E3B" d="M472.418 353v-17.455h6.221c1.358 0 2.483.248 3.375.742.892.494 1.56 1.17 2.003 2.028.443.853.665 1.813.665 2.881 0 1.074-.225 2.04-.673 2.898-.444.852-1.114 1.528-2.012 2.028-.892.494-2.014.742-3.366.742h-4.279v-2.233h4.04c.858 0 1.554-.148 2.088-.443a2.79 2.79 0 0 0 1.176-1.228c.25-.517.375-1.105.375-1.764s-.125-1.244-.375-1.756c-.25-.511-.645-.912-1.184-1.201-.534-.29-1.239-.435-2.114-.435h-3.307V353h-2.633Zm18.839.29c-.829 0-1.579-.154-2.25-.46a3.798 3.798 0 0 1-1.594-1.356c-.386-.59-.579-1.315-.579-2.173 0-.739.142-1.346.426-1.824a3.142 3.142 0 0 1 1.151-1.133 5.97 5.97 0 0 1 1.619-.631c.596-.142 1.204-.25 1.824-.324l1.909-.221c.488-.063.844-.162 1.065-.299.222-.136.333-.358.333-.664v-.06c0-.744-.211-1.321-.631-1.73-.415-.409-1.034-.614-1.858-.614-.858 0-1.534.19-2.029.571-.488.375-.826.793-1.014 1.253l-2.395-.545c.284-.796.699-1.438 1.245-1.927a5.037 5.037 0 0 1 1.9-1.073 7.4 7.4 0 0 1 2.259-.341 7.97 7.97 0 0 1 1.662.187 4.85 4.85 0 0 1 1.653.665c.517.324.94.787 1.27 1.389.33.597.494 1.372.494 2.327V353h-2.488v-1.79h-.103a3.61 3.61 0 0 1-.741.972c-.33.318-.753.582-1.27.792-.517.211-1.136.316-1.858.316Zm.554-2.046c.705 0 1.307-.139 1.807-.417.506-.279.889-.642 1.15-1.091.268-.455.401-.941.401-1.458v-1.687c-.091.091-.267.176-.528.256a8.537 8.537 0 0 1-.878.196c-.33.051-.651.099-.963.145-.313.039-.574.073-.784.102a6.26 6.26 0 0 0-1.355.315 2.328 2.328 0 0 0-.972.639c-.239.273-.358.637-.358 1.091 0 .631.233 1.108.699 1.432.466.318 1.059.477 1.781.477Zm9.301 1.756v-13.091h2.548V353h-2.548Zm1.286-15.111c-.443 0-.823-.148-1.142-.443a1.442 1.442 0 0 1-.468-1.074c0-.42.156-.778.468-1.074a1.605 1.605 0 0 1 1.142-.451c.444 0 .821.15 1.134.451.318.296.477.654.477 1.074 0 .415-.159.773-.477 1.074-.313.295-.69.443-1.134.443Zm7.238 7.338V353h-2.548v-13.091h2.446v2.131h.162a3.747 3.747 0 0 1 1.415-1.671c.648-.42 1.463-.63 2.446-.63.892 0 1.673.187 2.344.562.67.369 1.19.921 1.559 1.654.37.732.554 1.639.554 2.718V353h-2.548v-8.02c0-.949-.247-1.69-.742-2.224-.494-.54-1.173-.81-2.036-.81-.591 0-1.117.128-1.577.384-.455.255-.816.63-1.083 1.125-.261.488-.392 1.079-.392 1.772Zm17.907-5.318v2.046h-7.151v-2.046h7.151Zm-5.233-3.136h2.548v12.383c0 .495.074.867.222 1.117.147.244.338.412.571.503.238.085.497.127.775.127.205 0 .384-.014.537-.042l.358-.068.46 2.105a4.28 4.28 0 0 1-.63.17 4.917 4.917 0 0 1-1.023.102 4.473 4.473 0 0 1-1.875-.358 3.211 3.211 0 0 1-1.406-1.159c-.358-.522-.537-1.179-.537-1.968v-12.912Z"/><rect width="189" height="114" x="599" y="578" fill="#D1FAE5" rx="8"/><path fill="#064E3B" d="M640.915 616.222h-2.659a4.074 4.074 0 0 0-.571-1.5 4.212 4.212 0 0 0-1.023-1.1 4.418 4.418 0 0 0-1.355-.682 5.303 5.303 0 0 0-1.577-.23c-1.006 0-1.906.253-2.702.759-.789.505-1.414 1.247-1.875 2.224-.454.977-.681 2.171-.681 3.58 0 1.42.227 2.619.681 3.596.461.978 1.088 1.716 1.884 2.216.795.5 1.69.75 2.685.75.551 0 1.073-.074 1.568-.221.5-.154.951-.378 1.355-.674a4.083 4.083 0 0 0 1.611-2.565l2.659.009a7.131 7.131 0 0 1-.827 2.369 6.525 6.525 0 0 1-1.56 1.858 7.045 7.045 0 0 1-2.164 1.201c-.813.285-1.699.427-2.659.427-1.512 0-2.858-.358-4.04-1.074-1.182-.722-2.114-1.753-2.796-3.094-.676-1.341-1.014-2.94-1.014-4.798 0-1.864.341-3.463 1.023-4.799.682-1.34 1.613-2.369 2.795-3.085 1.182-.721 2.526-1.082 4.032-1.082a8.14 8.14 0 0 1 2.59.4 6.86 6.86 0 0 1 2.174 1.159 6.371 6.371 0 0 1 1.593 1.858c.421.728.705 1.56.853 2.498Zm8.461 12.042c-1.228 0-2.299-.281-3.213-.844-.915-.562-1.625-1.349-2.131-2.36-.506-1.012-.759-2.194-.759-3.546 0-1.358.253-2.545.759-3.562s1.216-1.807 2.131-2.37c.914-.562 1.985-.843 3.213-.843 1.227 0 2.298.281 3.213.843.915.563 1.625 1.353 2.13 2.37.506 1.017.759 2.204.759 3.562 0 1.352-.253 2.534-.759 3.546-.505 1.011-1.215 1.798-2.13 2.36-.915.563-1.986.844-3.213.844Zm.008-2.139c.796 0 1.455-.21 1.978-.631.522-.42.909-.98 1.159-1.679.255-.699.383-1.468.383-2.309a6.66 6.66 0 0 0-.383-2.301c-.25-.705-.637-1.27-1.159-1.696-.523-.427-1.182-.64-1.978-.64-.801 0-1.466.213-1.994.64-.523.426-.912.991-1.168 1.696a6.78 6.78 0 0 0-.375 2.301c0 .841.125 1.61.375 2.309.256.699.645 1.259 1.168 1.679.528.421 1.193.631 1.994.631Zm8.938 1.875v-13.091h2.446v2.131h.162a3.387 3.387 0 0 1 1.338-1.688c.62-.409 1.361-.613 2.225-.613.875 0 1.608.204 2.199.613.596.409 1.037.972 1.321 1.688h.136a3.689 3.689 0 0 1 1.492-1.671c.681-.42 1.494-.63 2.437-.63 1.188 0 2.156.372 2.906 1.116.756.744 1.134 1.867 1.134 3.367V628h-2.548v-8.54c0-.886-.242-1.528-.725-1.926-.483-.398-1.059-.596-1.73-.596-.829 0-1.474.255-1.935.767-.46.505-.69 1.156-.69 1.951V628h-2.54v-8.702c0-.71-.221-1.281-.664-1.713-.444-.432-1.02-.647-1.731-.647-.483 0-.929.127-1.338.383-.403.25-.73.599-.98 1.048-.244.449-.366.969-.366 1.56V628h-2.549Zm21.211 4.909v-18h2.489v2.122h.213c.148-.272.361-.588.639-.946.279-.358.665-.67 1.159-.937.495-.273 1.148-.409 1.961-.409 1.056 0 2 .267 2.829.801.83.534 1.48 1.304 1.952 2.309.477 1.006.716 2.216.716 3.631 0 1.415-.236 2.628-.708 3.639-.471 1.006-1.119 1.782-1.943 2.327-.824.54-1.764.81-2.821.81-.795 0-1.446-.134-1.952-.401-.5-.267-.892-.579-1.176-.937a7.092 7.092 0 0 1-.656-.955h-.153v6.946h-2.549Zm2.498-11.454c0 .92.133 1.727.4 2.42.267.693.654 1.236 1.159 1.628.506.386 1.125.579 1.858.579.762 0 1.398-.201 1.909-.605.512-.409.898-.963 1.159-1.662.267-.699.401-1.485.401-2.36 0-.864-.131-1.64-.392-2.327-.256-.688-.642-1.23-1.159-1.628-.512-.398-1.151-.597-1.918-.597-.738 0-1.363.191-1.875.571-.506.381-.889.912-1.15 1.594-.262.682-.392 1.477-.392 2.387Zm17.829 6.809c-1.227 0-2.298-.281-3.213-.844-.915-.562-1.625-1.349-2.131-2.36-.505-1.012-.758-2.194-.758-3.546 0-1.358.253-2.545.758-3.562.506-1.017 1.216-1.807 2.131-2.37.915-.562 1.986-.843 3.213-.843s2.298.281 3.213.843c.915.563 1.625 1.353 2.131 2.37.506 1.017.758 2.204.758 3.562 0 1.352-.252 2.534-.758 3.546-.506 1.011-1.216 1.798-2.131 2.36-.915.563-1.986.844-3.213.844Zm.009-2.139c.795 0 1.454-.21 1.977-.631.523-.42.909-.98 1.159-1.679.256-.699.383-1.468.383-2.309 0-.836-.127-1.603-.383-2.301-.25-.705-.636-1.27-1.159-1.696-.523-.427-1.182-.64-1.977-.64-.802 0-1.466.213-1.995.64-.522.426-.912.991-1.167 1.696a6.78 6.78 0 0 0-.375 2.301c0 .841.125 1.61.375 2.309.255.699.645 1.259 1.167 1.679.529.421 1.193.631 1.995.631Zm18.747-8.02-2.309.409a2.754 2.754 0 0 0-.46-.844 2.283 2.283 0 0 0-.836-.656c-.352-.17-.792-.255-1.321-.255-.721 0-1.324.161-1.806.485-.483.318-.725.73-.725 1.236 0 .438.162.79.486 1.057.324.267.846.486 1.568.656l2.08.477c1.204.279 2.102.708 2.693 1.287.591.58.886 1.333.886 2.259 0 .784-.227 1.483-.682 2.096-.449.608-1.076 1.086-1.883 1.432-.801.347-1.73.52-2.787.52-1.466 0-2.662-.312-3.588-.937-.926-.631-1.494-1.526-1.705-2.685l2.463-.375c.154.642.469 1.128.946 1.457.478.324 1.1.486 1.867.486.835 0 1.503-.173 2.003-.52.5-.352.75-.781.75-1.287 0-.409-.154-.752-.461-1.031-.301-.278-.764-.488-1.389-.631l-2.216-.485c-1.221-.279-2.125-.722-2.71-1.33-.579-.608-.869-1.378-.869-2.31 0-.772.216-1.448.648-2.028.431-.579 1.028-1.031 1.789-1.355.762-.33 1.634-.494 2.617-.494 1.415 0 2.528.306 3.341.92.812.608 1.349 1.423 1.61 2.446Zm3.058 9.895v-13.091h2.548V628h-2.548Zm1.287-15.111c-.443 0-.824-.148-1.142-.443a1.44 1.44 0 0 1-.469-1.074c0-.42.156-.778.469-1.074a1.603 1.603 0 0 1 1.142-.451c.443 0 .821.15 1.133.451.319.296.478.654.478 1.074 0 .415-.159.773-.478 1.074a1.59 1.59 0 0 1-1.133.443Zm10.8 2.02v2.046h-7.15v-2.046h7.15Zm-5.233-3.136h2.549v12.383c0 .495.074.867.221 1.117.148.244.338.412.571.503.239.085.497.127.776.127.204 0 .383-.014.537-.042l.358-.068.46 2.105a4.3 4.3 0 0 1-.631.17 4.9 4.9 0 0 1-1.022.102 4.473 4.473 0 0 1-1.875-.358 3.214 3.214 0 0 1-1.407-1.159c-.358-.522-.537-1.179-.537-1.968v-12.912Zm13.554 16.491c-1.29 0-2.401-.275-3.333-.826-.926-.557-1.642-1.339-2.147-2.344-.5-1.012-.75-2.196-.75-3.554 0-1.341.25-2.523.75-3.546.505-1.022 1.21-1.821 2.113-2.395.909-.573 1.972-.86 3.188-.86a6.42 6.42 0 0 1 2.147.366 5.189 5.189 0 0 1 1.867 1.151c.551.522.986 1.201 1.304 2.037.318.829.477 1.838.477 3.025v.904h-10.406v-1.91h7.909c0-.67-.136-1.264-.409-1.781a3.102 3.102 0 0 0-1.151-1.236c-.488-.301-1.062-.451-1.721-.451-.716 0-1.341.176-1.875.528a3.546 3.546 0 0 0-1.228 1.364 3.938 3.938 0 0 0-.426 1.815v1.492c0 .875.154 1.619.461 2.233a3.328 3.328 0 0 0 1.304 1.406c.556.318 1.207.477 1.951.477a4.06 4.06 0 0 0 1.321-.204 2.875 2.875 0 0 0 1.032-.631c.289-.279.511-.622.664-1.031l2.412.434a4.369 4.369 0 0 1-1.04 1.867c-.494.528-1.116.94-1.866 1.236-.744.289-1.594.434-2.548.434Zm11.759-2.65-.128.929c-.085.681-.23 1.392-.435 2.13a32.047 32.047 0 0 1-.622 2.071c-.21.637-.383 1.142-.52 1.517h-1.806c.073-.352.176-.829.306-1.431.131-.597.259-1.265.384-2.003.125-.739.219-1.492.281-2.259l.085-.954h2.455ZM638.23 648.06a5.336 5.336 0 0 0-.665-1.39 4.225 4.225 0 0 0-2.284-1.73 5.254 5.254 0 0 0-1.593-.23c-.983 0-1.87.253-2.66.759-.789.505-1.414 1.247-1.875 2.224-.454.972-.681 2.162-.681 3.571 0 1.415.23 2.611.69 3.588.46.978 1.091 1.719 1.892 2.225.801.505 1.713.758 2.736.758.949 0 1.775-.193 2.48-.579a4.046 4.046 0 0 0 1.645-1.637c.392-.71.588-1.545.588-2.505l.682.127h-4.995v-2.173h6.861v1.986c0 1.466-.312 2.739-.937 3.818a6.39 6.39 0 0 1-2.574 2.489c-1.091.585-2.341.878-3.75.878-1.58 0-2.966-.364-4.159-1.091-1.188-.728-2.114-1.759-2.779-3.094-.664-1.341-.997-2.932-.997-4.773 0-1.392.193-2.642.58-3.75.386-1.108.929-2.048 1.627-2.821a7.116 7.116 0 0 1 2.481-1.781c.954-.415 1.997-.622 3.127-.622.944 0 1.821.139 2.634.417a7.133 7.133 0 0 1 2.182 1.185 6.706 6.706 0 0 1 2.446 4.151h-2.702Zm6.164 11.94v-17.455h6.222c1.358 0 2.483.248 3.375.742.892.494 1.559 1.17 2.003 2.028.443.853.664 1.813.664 2.881 0 1.074-.224 2.04-.673 2.898-.443.852-1.114 1.528-2.011 2.028-.892.494-2.014.742-3.367.742h-4.278v-2.233h4.04c.858 0 1.554-.148 2.088-.443a2.79 2.79 0 0 0 1.176-1.228c.25-.517.375-1.105.375-1.764s-.125-1.244-.375-1.756c-.25-.511-.645-.912-1.185-1.201-.534-.29-1.238-.435-2.113-.435h-3.307V660h-2.634Zm26.576-17.455h2.642v11.481c0 1.221-.287 2.304-.861 3.247-.573.937-1.38 1.676-2.42 2.216-1.04.534-2.259.801-3.656.801-1.392 0-2.608-.267-3.648-.801-1.04-.54-1.847-1.279-2.42-2.216-.574-.943-.861-2.026-.861-3.247v-11.481h2.633v11.267c0 .79.174 1.492.52 2.106.352.613.85 1.096 1.492 1.448.642.347 1.403.52 2.284.52.886 0 1.65-.173 2.292-.52a3.644 3.644 0 0 0 1.483-1.448c.347-.614.52-1.316.52-2.106v-11.267Zm8.762 15.069-.128.929c-.086.681-.23 1.392-.435 2.13a32.69 32.69 0 0 1-.622 2.071c-.21.637-.384 1.142-.52 1.517h-1.807c.074-.352.176-.829.307-1.431.131-.597.259-1.265.384-2.003.125-.739.218-1.492.281-2.259l.085-.954h2.455Zm9.873 2.386v-17.455h6.222c1.352 0 2.474.233 3.366.699.898.466 1.568 1.111 2.012 1.935.443.818.664 1.764.664 2.838 0 1.068-.224 2.009-.673 2.821-.443.807-1.114 1.435-2.011 1.884-.892.448-2.015.673-3.367.673h-4.713v-2.267h4.475c.852 0 1.545-.122 2.079-.367.54-.244.935-.599 1.185-1.065.25-.466.375-1.026.375-1.679 0-.659-.128-1.23-.384-1.713-.25-.483-.645-.852-1.184-1.108-.535-.261-1.236-.392-2.106-.392h-3.306V660h-2.634Zm8.617-7.875 4.312 7.875h-3l-4.227-7.875h2.915Zm10.457 8.165c-.83 0-1.58-.154-2.25-.46a3.798 3.798 0 0 1-1.594-1.356c-.386-.59-.579-1.315-.579-2.173 0-.739.142-1.346.426-1.824a3.14 3.14 0 0 1 1.15-1.133 5.989 5.989 0 0 1 1.62-.631c.596-.142 1.204-.25 1.824-.324l1.909-.221c.488-.063.843-.162 1.065-.299.222-.136.332-.358.332-.664v-.06c0-.744-.21-1.321-.63-1.73-.415-.409-1.034-.614-1.858-.614-.858 0-1.534.19-2.029.571-.488.375-.826.793-1.014 1.253l-2.395-.545c.284-.796.699-1.438 1.245-1.927a5.037 5.037 0 0 1 1.9-1.073 7.4 7.4 0 0 1 2.259-.341c.522 0 1.076.062 1.662.187a4.85 4.85 0 0 1 1.653.665c.517.324.94.787 1.27 1.389.329.597.494 1.372.494 2.327V660h-2.488v-1.79h-.103a3.61 3.61 0 0 1-.741.972c-.33.318-.753.582-1.27.792-.517.211-1.136.316-1.858.316Zm.554-2.046c.705 0 1.307-.139 1.807-.417.505-.279.889-.642 1.15-1.091.267-.455.401-.941.401-1.458v-1.687c-.091.091-.267.176-.529.256a8.455 8.455 0 0 1-.877.196c-.33.051-.651.099-.963.145-.313.039-.574.073-.784.102a6.27 6.27 0 0 0-1.356.315 2.331 2.331 0 0 0-.971.639c-.239.273-.358.637-.358 1.091 0 .631.233 1.108.699 1.432.466.318 1.059.477 1.781.477Zm19.11-8.139-2.31.409a2.733 2.733 0 0 0-.46-.844 2.28 2.28 0 0 0-.835-.656c-.352-.17-.793-.255-1.321-.255-.722 0-1.324.161-1.807.485-.483.318-.724.73-.724 1.236 0 .438.162.79.485 1.057.324.267.847.486 1.569.656l2.079.477c1.205.279 2.102.708 2.693 1.287.591.58.887 1.333.887 2.259 0 .784-.228 1.483-.682 2.096-.449.608-1.077 1.086-1.884 1.432-.801.347-1.73.52-2.787.52-1.465 0-2.661-.312-3.588-.937-.926-.631-1.494-1.526-1.704-2.685l2.463-.375c.153.642.469 1.128.946 1.457.477.324 1.099.486 1.866.486.836 0 1.503-.173 2.003-.52.5-.352.75-.781.75-1.287 0-.409-.153-.752-.46-1.031-.301-.278-.764-.488-1.389-.631l-2.216-.485c-1.222-.279-2.125-.722-2.71-1.33-.58-.608-.87-1.378-.87-2.31 0-.772.216-1.448.648-2.028.432-.579 1.028-1.031 1.79-1.355.761-.33 1.633-.494 2.616-.494 1.415 0 2.529.306 3.341.92.813.608 1.35 1.423 1.611 2.446Zm9.168-3.196v2.046h-7.15v-2.046h7.15Zm-5.233-3.136h2.549v12.383c0 .495.074.867.221 1.117.148.244.338.412.571.503.239.085.497.127.776.127.204 0 .383-.014.537-.042l.358-.068.46 2.105a4.3 4.3 0 0 1-.631.17 4.9 4.9 0 0 1-1.022.102 4.473 4.473 0 0 1-1.875-.358 3.214 3.214 0 0 1-1.407-1.159c-.358-.522-.537-1.179-.537-1.968v-12.912Zm13.554 16.491c-1.29 0-2.401-.275-3.333-.826-.926-.557-1.642-1.339-2.147-2.344-.5-1.012-.75-2.196-.75-3.554 0-1.341.25-2.523.75-3.546.505-1.022 1.21-1.821 2.113-2.395.909-.573 1.972-.86 3.188-.86a6.42 6.42 0 0 1 2.147.366 5.189 5.189 0 0 1 1.867 1.151c.551.522.986 1.201 1.304 2.037.318.829.477 1.838.477 3.025v.904h-10.406v-1.91h7.909c0-.67-.136-1.264-.409-1.781a3.102 3.102 0 0 0-1.151-1.236c-.488-.301-1.062-.451-1.721-.451-.716 0-1.341.176-1.875.528a3.546 3.546 0 0 0-1.228 1.364 3.938 3.938 0 0 0-.426 1.815v1.492c0 .875.154 1.619.461 2.233a3.328 3.328 0 0 0 1.304 1.406c.556.318 1.207.477 1.951.477a4.06 4.06 0 0 0 1.321-.204 2.875 2.875 0 0 0 1.032-.631c.289-.279.511-.622.664-1.031l2.412.434a4.369 4.369 0 0 1-1.04 1.867c-.494.528-1.116.94-1.866 1.236-.744.289-1.594.434-2.548.434Zm8.444-.264v-13.091h2.463v2.08h.136a3.164 3.164 0 0 1 1.261-1.662 3.612 3.612 0 0 1 2.063-.614 11.301 11.301 0 0 1 1.082.06v2.437a4.838 4.838 0 0 0-.545-.094 5.316 5.316 0 0 0-.784-.059c-.603 0-1.139.128-1.611.383a2.851 2.851 0 0 0-1.517 2.566V660h-2.548Z"/><g filter="url(#a)"><circle cx="787.5" cy="92.5" r="27.5" fill="#D1FAE5" fill-opacity=".95"/></g><circle cx="787.5" cy="92.5" r="27.5" fill="#D1FAE5" fill-opacity=".95"/><circle cx="787.5" cy="92.5" r="15" fill="#fff" fill-opacity=".7" stroke="#34D399" stroke-width="5"/><path stroke="#52525B" stroke-dasharray="9 9" stroke-linecap="round" stroke-width="4" d="M787.5 120v224"/><path fill="#52525B" d="M23.918 207.545h3.196l5.556 13.569h.205l5.557-13.569h3.196V225h-2.506v-12.631h-.162l-5.148 12.605h-2.079l-5.148-12.613h-.162V225h-2.505v-17.455Zm25.144 17.745c-.83 0-1.58-.154-2.25-.46a3.795 3.795 0 0 1-1.594-1.356c-.386-.59-.58-1.315-.58-2.173 0-.739.143-1.346.427-1.824a3.142 3.142 0 0 1 1.15-1.133 5.989 5.989 0 0 1 1.62-.631c.596-.142 1.204-.25 1.823-.324l1.91-.221c.488-.063.843-.162 1.065-.299.221-.136.332-.358.332-.664v-.06c0-.744-.21-1.321-.63-1.73-.415-.409-1.035-.614-1.858-.614-.858 0-1.534.19-2.029.571-.489.375-.827.793-1.014 1.253l-2.395-.545c.284-.796.699-1.438 1.244-1.927a5.04 5.04 0 0 1 1.9-1.073 7.398 7.398 0 0 1 2.26-.341c.522 0 1.076.062 1.661.187a4.863 4.863 0 0 1 1.654.665c.517.324.94.787 1.27 1.389.33.597.494 1.372.494 2.327V225h-2.489v-1.79h-.102c-.165.33-.412.654-.741.972-.33.318-.753.582-1.27.792-.517.211-1.137.316-1.858.316Zm.554-2.046c.704 0 1.307-.139 1.807-.417.505-.279.889-.642 1.15-1.091.267-.455.4-.941.4-1.458v-1.687c-.09.091-.266.176-.528.256a8.485 8.485 0 0 1-.877.196c-.33.051-.651.099-.964.145-.312.039-.573.073-.784.102a6.272 6.272 0 0 0-1.355.315 2.333 2.333 0 0 0-.971.639c-.239.273-.358.637-.358 1.091 0 .631.233 1.108.698 1.432.466.318 1.06.477 1.782.477Zm9.3 1.756v-13.091h2.549V225h-2.549Zm1.287-15.111c-.443 0-.824-.148-1.142-.443a1.44 1.44 0 0 1-.469-1.074c0-.42.157-.778.47-1.074a1.603 1.603 0 0 1 1.141-.451c.443 0 .821.15 1.134.451.318.296.477.654.477 1.074 0 .415-.16.773-.477 1.074-.313.295-.69.443-1.134.443Zm7.238 7.338V225h-2.548v-13.091h2.446v2.131h.162a3.747 3.747 0 0 1 1.414-1.671c.648-.42 1.464-.63 2.447-.63.892 0 1.673.187 2.343.562.67.369 1.19.921 1.56 1.654.37.732.554 1.639.554 2.718V225H73.27v-8.02c0-.949-.248-1.69-.742-2.224-.494-.54-1.173-.81-2.037-.81-.59 0-1.116.128-1.577.384a2.75 2.75 0 0 0-1.082 1.125c-.261.488-.392 1.079-.392 1.772Zm24.258-5.318v2.046h-7.15v-2.046h7.15Zm-5.233-3.136h2.548v12.383c0 .495.074.867.222 1.117.147.244.338.412.57.503.24.085.498.127.776.127.205 0 .384-.014.537-.042l.358-.068.46 2.105a4.294 4.294 0 0 1-.63.17 4.911 4.911 0 0 1-1.023.102 4.476 4.476 0 0 1-1.875-.358 3.214 3.214 0 0 1-1.406-1.159c-.358-.522-.537-1.179-.537-1.968v-12.912Zm10.881 8.454V225H94.8v-17.455h2.514v6.495h.162a3.762 3.762 0 0 1 1.406-1.679c.631-.415 1.455-.622 2.472-.622.898 0 1.682.184 2.352.554.676.369 1.199.92 1.568 1.653.375.727.563 1.636.563 2.727V225h-2.548v-8.02c0-.96-.248-1.704-.742-2.233-.494-.534-1.182-.801-2.062-.801-.603 0-1.142.128-1.62.384-.471.255-.843.63-1.116 1.125-.267.488-.4 1.079-.4 1.772Zm11.89 7.773v-13.091h2.463v2.08h.136a3.164 3.164 0 0 1 1.261-1.662 3.612 3.612 0 0 1 2.063-.614 11.301 11.301 0 0 1 1.082.06v2.437a4.838 4.838 0 0 0-.545-.094 5.316 5.316 0 0 0-.784-.059c-.603 0-1.14.128-1.611.383a2.851 2.851 0 0 0-1.517 2.566V225h-2.548Zm14.384.264c-1.29 0-2.401-.275-3.333-.826-.926-.557-1.642-1.339-2.147-2.344-.5-1.012-.75-2.196-.75-3.554 0-1.341.25-2.523.75-3.546.505-1.022 1.21-1.821 2.113-2.395.909-.573 1.972-.86 3.188-.86a6.42 6.42 0 0 1 2.147.366 5.189 5.189 0 0 1 1.867 1.151c.551.522.986 1.201 1.304 2.037.318.829.477 1.838.477 3.025v.904h-10.406v-1.91h7.909c0-.67-.136-1.264-.409-1.781a3.102 3.102 0 0 0-1.151-1.236c-.488-.301-1.062-.451-1.721-.451-.716 0-1.341.176-1.875.528a3.535 3.535 0 0 0-1.227 1.364 3.926 3.926 0 0 0-.427 1.815v1.492c0 .875.154 1.619.461 2.233a3.328 3.328 0 0 0 1.304 1.406c.556.318 1.207.477 1.951.477a4.06 4.06 0 0 0 1.321-.204 2.875 2.875 0 0 0 1.032-.631c.289-.279.511-.622.664-1.031l2.412.434a4.367 4.367 0 0 1-1.039 1.867c-.495.528-1.117.94-1.867 1.236-.744.289-1.594.434-2.548.434Zm12.253.026c-.829 0-1.579-.154-2.25-.46a3.796 3.796 0 0 1-1.593-1.356c-.387-.59-.58-1.315-.58-2.173 0-.739.142-1.346.426-1.824a3.142 3.142 0 0 1 1.151-1.133 5.982 5.982 0 0 1 1.619-.631c.597-.142 1.205-.25 1.824-.324l1.909-.221c.489-.063.844-.162 1.065-.299.222-.136.333-.358.333-.664v-.06c0-.744-.211-1.321-.631-1.73-.415-.409-1.034-.614-1.858-.614-.858 0-1.534.19-2.028.571-.489.375-.827.793-1.015 1.253l-2.394-.545c.284-.796.698-1.438 1.244-1.927a5.045 5.045 0 0 1 1.9-1.073 7.4 7.4 0 0 1 2.259-.341c.523 0 1.077.062 1.662.187a4.85 4.85 0 0 1 1.653.665c.517.324.941.787 1.27 1.389.33.597.495 1.372.495 2.327V225h-2.489v-1.79h-.102c-.165.33-.412.654-.742.972-.329.318-.753.582-1.27.792-.517.211-1.136.316-1.858.316Zm.554-2.046c.705 0 1.307-.139 1.807-.417.506-.279.889-.642 1.151-1.091.267-.455.4-.941.4-1.458v-1.687c-.091.091-.267.176-.528.256a8.478 8.478 0 0 1-.878.196c-.33.051-.651.099-.963.145-.313.039-.574.073-.784.102a6.26 6.26 0 0 0-1.355.315 2.328 2.328 0 0 0-.972.639c-.239.273-.358.637-.358 1.091 0 .631.233 1.108.699 1.432.466.318 1.06.477 1.781.477Zm14.201 2.012c-1.057 0-2-.27-2.829-.81-.824-.545-1.472-1.321-1.943-2.327-.466-1.011-.699-2.224-.699-3.639 0-1.415.235-2.625.707-3.631.477-1.005 1.131-1.775 1.96-2.309.83-.534 1.77-.801 2.821-.801.813 0 1.466.136 1.961.409.5.267.886.579 1.159.937.278.358.494.674.647.946h.154v-6.486h2.548V225h-2.489v-2.037h-.213a6.788 6.788 0 0 1-.664.955c-.285.358-.677.67-1.177.937s-1.147.401-1.943.401Zm.563-2.174c.733 0 1.352-.193 1.858-.579.511-.392.897-.935 1.159-1.628.267-.693.4-1.5.4-2.42 0-.91-.13-1.705-.392-2.387-.261-.682-.645-1.213-1.15-1.594-.506-.38-1.131-.571-1.875-.571-.767 0-1.406.199-1.918.597-.511.398-.898.94-1.159 1.628-.256.687-.383 1.463-.383 2.327 0 .875.13 1.661.392 2.36.261.699.647 1.253 1.159 1.662.517.404 1.153.605 1.909.605ZM712.443 8.545l4.858 14.216h.196l4.858-14.216h2.847L718.92 26h-3.042l-6.281-17.455h2.846ZM727.518 26V12.91h2.548V26h-2.548Zm1.287-15.11a1.62 1.62 0 0 1-1.142-.444 1.44 1.44 0 0 1-.469-1.074c0-.42.156-.778.469-1.074a1.603 1.603 0 0 1 1.142-.451c.443 0 .821.15 1.133.451.318.296.477.654.477 1.074 0 .415-.159.773-.477 1.074-.312.296-.69.443-1.133.443Zm14.499 5.215-2.31.41a2.726 2.726 0 0 0-.46-.845 2.274 2.274 0 0 0-.835-.656c-.352-.17-.793-.255-1.321-.255-.722 0-1.324.162-1.807.485-.483.319-.724.73-.724 1.236 0 .438.162.79.485 1.057.324.267.847.486 1.569.656l2.079.477c1.205.279 2.102.708 2.693 1.287.591.58.887 1.333.887 2.259 0 .784-.228 1.483-.682 2.096-.449.608-1.077 1.086-1.884 1.432-.801.347-1.73.52-2.787.52-1.466 0-2.662-.312-3.588-.937-.926-.631-1.494-1.526-1.704-2.685l2.463-.375c.153.642.469 1.128.946 1.457.477.324 1.099.486 1.866.486.836 0 1.503-.173 2.003-.52.5-.352.75-.78.75-1.287 0-.409-.153-.752-.46-1.03-.301-.28-.764-.49-1.389-.632l-2.216-.485c-1.222-.279-2.125-.722-2.71-1.33-.58-.608-.87-1.378-.87-2.31 0-.772.216-1.448.648-2.028.432-.58 1.028-1.031 1.79-1.355.761-.33 1.633-.494 2.616-.494 1.415 0 2.529.306 3.341.92.813.608 1.35 1.423 1.611 2.446Zm11.35 4.466v-7.662h2.557V26h-2.506v-2.267h-.136c-.301.699-.784 1.281-1.449 1.747-.659.46-1.48.69-2.463.69-.841 0-1.585-.184-2.233-.554-.642-.375-1.148-.928-1.517-1.662-.364-.732-.545-1.639-.545-2.718v-8.327h2.548v8.02c0 .892.247 1.602.741 2.13.495.53 1.137.793 1.926.793.478 0 .952-.119 1.424-.358.477-.238.872-.6 1.184-1.082.319-.483.475-1.097.469-1.841Zm9.791 5.719c-.83 0-1.58-.154-2.25-.46a3.787 3.787 0 0 1-1.594-1.356c-.387-.59-.58-1.315-.58-2.173 0-.738.142-1.346.426-1.824a3.152 3.152 0 0 1 1.151-1.133 6.01 6.01 0 0 1 1.619-.63c.597-.143 1.205-.25 1.824-.325l1.909-.221c.489-.063.844-.162 1.066-.299.221-.136.332-.358.332-.665v-.06c0-.743-.21-1.32-.631-1.73-.414-.408-1.034-.613-1.858-.613-.858 0-1.534.19-2.028.571-.489.375-.827.793-1.014 1.253l-2.395-.546c.284-.795.699-1.437 1.244-1.926a5.047 5.047 0 0 1 1.901-1.074 7.423 7.423 0 0 1 2.258-.34c.523 0 1.077.062 1.662.187.591.12 1.142.341 1.654.665.517.324.94.787 1.27 1.39.329.596.494 1.371.494 2.326V26h-2.489v-1.79h-.102c-.165.33-.412.654-.742.972-.329.318-.752.582-1.269.792-.517.21-1.137.316-1.858.316Zm.554-2.046c.704 0 1.306-.139 1.806-.417.506-.279.89-.642 1.151-1.091a2.83 2.83 0 0 0 .401-1.458v-1.687c-.091.09-.268.176-.529.256a8.478 8.478 0 0 1-.878.196c-.329.05-.65.099-.963.145-.312.04-.574.073-.784.102a6.321 6.321 0 0 0-1.355.315c-.403.148-.727.36-.972.64-.238.272-.358.636-.358 1.09 0 .63.233 1.108.699 1.432.466.318 1.06.477 1.782.477Zm11.848-15.699V26h-2.548V8.545h2.548Zm18.073 12.026v-7.662h2.557V26h-2.506v-2.267h-.136c-.302.699-.785 1.281-1.449 1.747-.659.46-1.48.69-2.463.69-.841 0-1.586-.184-2.233-.554-.642-.375-1.148-.928-1.517-1.662-.364-.732-.546-1.639-.546-2.718v-8.327h2.548v8.02c0 .892.248 1.602.742 2.13.494.53 1.136.793 1.926.793.477 0 .952-.119 1.423-.358.478-.238.872-.6 1.185-1.082.318-.483.474-1.097.469-1.841Zm5.981 10.338v-18h2.488v2.122h.213a7.19 7.19 0 0 1 .639-.946c.279-.358.665-.67 1.16-.937.494-.273 1.147-.41 1.96-.41 1.057 0 2 .268 2.829.802.83.534 1.48 1.304 1.952 2.31.477 1.005.716 2.215.716 3.63s-.236 2.628-.707 3.64c-.472 1.005-1.12 1.78-1.944 2.326-.823.54-1.764.81-2.821.81-.795 0-1.446-.134-1.951-.4-.5-.268-.892-.58-1.176-.938a7.077 7.077 0 0 1-.657-.955h-.153v6.946h-2.548Zm2.497-11.454c0 .92.133 1.727.4 2.42.267.693.654 1.236 1.159 1.628.506.386 1.125.58 1.858.58.762 0 1.398-.202 1.909-.606.512-.409.898-.963 1.16-1.662.267-.699.4-1.486.4-2.36 0-.864-.131-1.64-.392-2.327-.256-.688-.642-1.23-1.159-1.628-.511-.398-1.151-.597-1.918-.597-.738 0-1.363.19-1.875.571-.505.381-.889.912-1.15 1.594-.262.682-.392 1.477-.392 2.386Zm17.216 6.8c-1.057 0-2-.27-2.83-.809-.824-.545-1.471-1.321-1.943-2.327-.466-1.011-.699-2.224-.699-3.639 0-1.415.236-2.625.707-3.63.478-1.006 1.131-1.776 1.961-2.31.829-.534 1.77-.801 2.821-.801.812 0 1.466.136 1.96.409.5.267.886.58 1.159.937.278.358.494.673.648.946h.153V8.545h2.548V26h-2.488v-2.037h-.213a6.775 6.775 0 0 1-.665.955c-.284.358-.676.67-1.176.937-.5.267-1.148.4-1.943.4Zm.562-2.173c.733 0 1.352-.193 1.858-.58.511-.391.898-.934 1.159-1.627.267-.693.401-1.5.401-2.42 0-.91-.131-1.705-.392-2.387-.262-.682-.645-1.213-1.151-1.594-.506-.38-1.131-.57-1.875-.57-.767 0-1.406.198-1.917.596-.512.398-.898.94-1.16 1.628-.255.687-.383 1.463-.383 2.326 0 .875.131 1.662.392 2.361.261.7.648 1.253 1.159 1.662.517.404 1.153.605 1.909.605Zm13.37 2.208c-.829 0-1.579-.154-2.25-.46a3.793 3.793 0 0 1-1.594-1.356c-.386-.59-.579-1.315-.579-2.173 0-.738.142-1.346.426-1.824a3.145 3.145 0 0 1 1.151-1.133 5.998 5.998 0 0 1 1.619-.63c.596-.143 1.204-.25 1.824-.325l1.909-.221c.488-.063.844-.162 1.065-.299.222-.136.333-.358.333-.665v-.06c0-.743-.211-1.32-.631-1.73-.415-.408-1.034-.613-1.858-.613-.858 0-1.534.19-2.028.571-.489.375-.827.793-1.015 1.253l-2.395-.546c.285-.795.699-1.437 1.245-1.926a5.043 5.043 0 0 1 1.9-1.074 7.424 7.424 0 0 1 2.259-.34c.523 0 1.077.062 1.662.187a4.86 4.86 0 0 1 1.653.665c.517.324.941.787 1.27 1.39.33.596.494 1.371.494 2.326V26h-2.488v-1.79h-.103a3.59 3.59 0 0 1-.741.972c-.33.318-.753.582-1.27.792-.517.21-1.136.316-1.858.316Zm.554-2.046c.705 0 1.307-.139 1.807-.417.506-.279.889-.642 1.151-1.091.267-.455.4-.94.4-1.458v-1.687c-.091.09-.267.176-.528.256a8.537 8.537 0 0 1-.878.196l-.963.145c-.313.04-.574.073-.784.102a6.307 6.307 0 0 0-1.355.315c-.404.148-.728.36-.972.64-.239.272-.358.636-.358 1.09 0 .63.233 1.108.699 1.432.466.318 1.06.477 1.781.477Zm15.411-11.335v2.045h-7.15V12.91h7.15Zm-5.233-3.136h2.549v12.383c0 .495.074.867.221 1.117.148.244.338.412.571.503.239.085.497.127.776.127.204 0 .383-.014.537-.042l.358-.068.46 2.105a4.29 4.29 0 0 1-.631.17 4.98 4.98 0 0 1-1.022.102 4.484 4.484 0 0 1-1.875-.358 3.216 3.216 0 0 1-1.407-1.159c-.358-.522-.537-1.179-.537-1.968V9.773Zm13.554 16.491c-1.29 0-2.401-.275-3.333-.826-.926-.557-1.642-1.339-2.147-2.344-.5-1.012-.75-2.196-.75-3.554 0-1.341.25-2.523.75-3.546.505-1.022 1.21-1.82 2.113-2.395.909-.573 1.972-.86 3.188-.86a6.42 6.42 0 0 1 2.147.366 5.196 5.196 0 0 1 1.867 1.15c.551.523.986 1.202 1.304 2.038.318.83.477 1.838.477 3.025v.904h-10.406v-1.91h7.909c0-.67-.136-1.264-.409-1.78a3.091 3.091 0 0 0-1.151-1.236c-.488-.302-1.062-.452-1.721-.452-.716 0-1.341.176-1.875.528a3.545 3.545 0 0 0-1.228 1.364 3.937 3.937 0 0 0-.426 1.815v1.492c0 .875.154 1.619.461 2.233a3.324 3.324 0 0 0 1.304 1.406c.556.318 1.207.477 1.951.477a4.06 4.06 0 0 0 1.321-.204 2.855 2.855 0 0 0 1.032-.631c.289-.279.511-.622.664-1.031l2.412.434a4.367 4.367 0 0 1-1.04 1.867c-.494.528-1.116.94-1.866 1.235-.744.29-1.594.435-2.548.435Z"/><path stroke="#18181B" stroke-linecap="round" stroke-width="4" d="M212 447v24"/><path fill="#18181B" d="M212 457a2 2 0 1 0 0 4v-4Zm0 4h140v-4H212v4Zm156.397 9v-21.818h7.777c1.697 0 3.104.309 4.219.927 1.115.618 1.949 1.463 2.503 2.535.554 1.066.831 2.266.831 3.601 0 1.342-.28 2.55-.841 3.622-.554 1.066-1.392 1.911-2.515 2.536-1.115.618-2.517.927-4.208.927h-5.348v-2.792h5.05c1.073 0 1.943-.184 2.61-.554.668-.376 1.158-.887 1.47-1.534.313-.646.469-1.381.469-2.205 0-.824-.156-1.555-.469-2.195-.312-.639-.806-1.139-1.481-1.502-.667-.362-1.548-.543-2.642-.543h-4.133V470h-3.292Zm18.934 0v-16.364h3.079v2.6h.17a3.957 3.957 0 0 1 1.577-2.078c.76-.511 1.619-.767 2.578-.767.199 0 .433.007.703.022.277.014.494.032.65.053v3.047a5.498 5.498 0 0 0-.682-.117 6.468 6.468 0 0 0-.98-.075c-.753 0-1.424.16-2.014.479a3.561 3.561 0 0 0-1.384 1.311c-.341.554-.512 1.186-.512 1.896V470h-3.185Zm17.98.33c-1.612 0-3.001-.344-4.165-1.033-1.158-.696-2.053-1.673-2.685-2.93-.625-1.264-.938-2.745-.938-4.442 0-1.676.313-3.154.938-4.432.632-1.279 1.513-2.276 2.642-2.994 1.136-.717 2.464-1.076 3.984-1.076.924 0 1.819.153 2.685.458a6.51 6.51 0 0 1 2.333 1.439c.689.653 1.232 1.502 1.63 2.546.398 1.037.597 2.297.597 3.782v1.129h-13.008v-2.386h9.886c0-.838-.17-1.581-.511-2.227a3.873 3.873 0 0 0-1.438-1.545c-.611-.376-1.328-.564-2.152-.564-.895 0-1.676.22-2.344.66a4.428 4.428 0 0 0-1.534 1.705 4.92 4.92 0 0 0-.533 2.269v1.864c0 1.094.192 2.024.575 2.791.391.768.934 1.353 1.63 1.758.696.398 1.51.597 2.44.597.604 0 1.154-.085 1.651-.256.497-.177.927-.44 1.289-.788.363-.348.64-.778.831-1.289l3.015.543a5.448 5.448 0 0 1-1.299 2.333c-.618.661-1.396 1.176-2.334 1.545-.93.362-1.992.543-3.185.543Zm22.817-12.699-2.887.512a3.437 3.437 0 0 0-.575-1.055c-.256-.334-.604-.607-1.044-.82-.441-.213-.991-.32-1.652-.32-.902 0-1.654.203-2.258.607-.604.398-.906.913-.906 1.545 0 .547.203.987.608 1.321.404.334 1.058.607 1.96.82l2.599.597c1.506.348 2.628.884 3.367 1.609.738.724 1.108 1.665 1.108 2.823 0 .98-.284 1.854-.853 2.621-.561.76-1.346 1.356-2.354 1.789-1.001.434-2.163.65-3.484.65-1.832 0-3.327-.39-4.485-1.172-1.157-.788-1.868-1.907-2.13-3.355l3.078-.469c.192.802.586 1.41 1.183 1.822.596.404 1.374.607 2.333.607 1.044 0 1.879-.217 2.504-.65.625-.44.937-.977.937-1.609 0-.511-.192-.941-.575-1.289-.377-.348-.956-.611-1.737-.788l-2.77-.607c-1.527-.348-2.656-.902-3.387-1.662-.725-.76-1.087-1.723-1.087-2.887 0-.966.27-1.811.81-2.536.539-.724 1.285-1.289 2.237-1.694.951-.412 2.042-.618 3.27-.618 1.769 0 3.161.384 4.177 1.151 1.015.76 1.686 1.779 2.013 3.057Zm10.874 12.699c-1.612 0-3-.344-4.165-1.033-1.158-.696-2.053-1.673-2.685-2.93-.625-1.264-.937-2.745-.937-4.442 0-1.676.312-3.154.937-4.432.632-1.279 1.513-2.276 2.642-2.994 1.137-.717 2.465-1.076 3.985-1.076.923 0 1.818.153 2.684.458a6.504 6.504 0 0 1 2.334 1.439c.688.653 1.232 1.502 1.629 2.546.398 1.037.597 2.297.597 3.782v1.129h-13.008v-2.386h9.887c0-.838-.171-1.581-.512-2.227a3.873 3.873 0 0 0-1.438-1.545c-.611-.376-1.328-.564-2.152-.564-.895 0-1.676.22-2.344.66a4.436 4.436 0 0 0-1.534 1.705 4.92 4.92 0 0 0-.532 2.269v1.864c0 1.094.191 2.024.575 2.791.39.768.934 1.353 1.63 1.758.696.398 1.509.597 2.439.597.604 0 1.155-.085 1.652-.256.497-.177.927-.44 1.289-.788.362-.348.639-.778.831-1.289l3.015.543a5.46 5.46 0 0 1-1.3 2.333c-.618.661-1.396 1.176-2.333 1.545-.931.362-1.992.543-3.186.543Zm13.741-10.046V470h-3.186v-16.364h3.058v2.664h.202a4.674 4.674 0 0 1 1.769-2.088c.809-.526 1.829-.789 3.057-.789 1.115 0 2.092.235 2.93.703.838.462 1.488 1.151 1.95 2.067.461.916.692 2.049.692 3.399V470h-3.185v-10.025c0-1.186-.309-2.113-.927-2.78-.618-.675-1.467-1.012-2.546-1.012-.739 0-1.396.159-1.971.479-.568.32-1.019.788-1.353 1.406-.327.611-.49 1.35-.49 2.216Zm22.383-6.648v2.557h-8.939v-2.557h8.939Zm-6.542-3.92h3.186v15.479c0 .618.092 1.083.277 1.396.184.305.422.515.713.628.299.107.622.16.97.16.256 0 .479-.017.671-.053l.448-.085.575 2.631a5.379 5.379 0 0 1-.789.213 6.23 6.23 0 0 1-1.278.128 5.622 5.622 0 0 1-2.344-.447 4.025 4.025 0 0 1-1.757-1.449c-.448-.654-.672-1.474-.672-2.461v-16.14Zm14.827 20.646c-1.037 0-1.974-.192-2.812-.575a4.738 4.738 0 0 1-1.992-1.694c-.483-.739-.725-1.644-.725-2.717 0-.923.178-1.683.533-2.279a3.924 3.924 0 0 1 1.438-1.417 7.527 7.527 0 0 1 2.024-.789 20.192 20.192 0 0 1 2.28-.404l2.386-.277c.611-.079 1.055-.203 1.332-.373.277-.171.415-.448.415-.831v-.075c0-.93-.262-1.651-.788-2.163-.518-.511-1.292-.767-2.322-.767-1.073 0-1.918.238-2.536.714-.611.469-1.033.991-1.268 1.566l-2.993-.682c.355-.994.873-1.796 1.555-2.407a6.31 6.31 0 0 1 2.376-1.343 9.278 9.278 0 0 1 2.823-.426c.653 0 1.346.078 2.077.235a6.071 6.071 0 0 1 2.067.831c.647.404 1.176.983 1.588 1.736.412.746.618 1.715.618 2.909V470h-3.111v-2.237h-.128c-.206.412-.515.817-.927 1.214-.412.398-.941.728-1.587.991-.647.263-1.421.394-2.323.394Zm.693-2.557c.88 0 1.633-.174 2.258-.522.632-.348 1.112-.802 1.438-1.363a3.537 3.537 0 0 0 .501-1.822v-2.109c-.113.113-.334.22-.66.319-.32.093-.686.174-1.098.245-.412.064-.813.125-1.204.181l-.98.128a7.938 7.938 0 0 0-1.694.394c-.504.185-.909.451-1.214.799-.298.341-.447.796-.447 1.364 0 .788.291 1.385.873 1.79.583.398 1.325.596 2.227.596Zm19.264-14.169v2.557h-8.938v-2.557h8.938Zm-6.541-3.92h3.185v15.479c0 .618.092 1.083.277 1.396.185.305.422.515.714.628.298.107.621.16.969.16.256 0 .48-.017.671-.053l.448-.085.575 2.631a5.36 5.36 0 0 1-.788.213 6.241 6.241 0 0 1-1.279.128 5.615 5.615 0 0 1-2.343-.447 4.022 4.022 0 0 1-1.758-1.449c-.448-.654-.671-1.474-.671-2.461v-16.14ZM506.891 470v-16.364h3.186V470h-3.186Zm1.609-18.888c-.554 0-1.03-.185-1.428-.554-.39-.377-.585-.824-.585-1.343 0-.525.195-.973.585-1.342a2.004 2.004 0 0 1 1.428-.565c.554 0 1.026.188 1.417.565.398.369.596.817.596 1.342 0 .519-.198.966-.596 1.343a1.99 1.99 0 0 1-1.417.554Zm12.755 19.218c-1.534 0-2.873-.351-4.017-1.054-1.143-.704-2.031-1.687-2.663-2.951-.632-1.265-.948-2.742-.948-4.432 0-1.698.316-3.182.948-4.453.632-1.272 1.52-2.259 2.663-2.962 1.144-.703 2.483-1.055 4.017-1.055 1.534 0 2.873.352 4.016 1.055 1.144.703 2.031 1.69 2.663 2.962.633 1.271.949 2.755.949 4.453 0 1.69-.316 3.167-.949 4.432-.632 1.264-1.519 2.247-2.663 2.951-1.143.703-2.482 1.054-4.016 1.054Zm.01-2.674c.995 0 1.819-.263 2.472-.788.653-.526 1.136-1.225 1.449-2.099.32-.873.479-1.836.479-2.887 0-1.044-.159-2.003-.479-2.876-.313-.881-.796-1.588-1.449-2.12-.653-.533-1.477-.799-2.472-.799-1.001 0-1.832.266-2.492.799-.654.532-1.14 1.239-1.46 2.12-.312.873-.469 1.832-.469 2.876 0 1.051.157 2.014.469 2.887.32.874.806 1.573 1.46 2.099.66.525 1.491.788 2.492.788Zm14.359-7.372V470h-3.186v-16.364h3.058v2.664h.202a4.674 4.674 0 0 1 1.769-2.088c.809-.526 1.828-.789 3.057-.789 1.115 0 2.092.235 2.93.703.838.462 1.488 1.151 1.949 2.067.462.916.693 2.049.693 3.399V470h-3.185v-10.025c0-1.186-.309-2.113-.927-2.78-.618-.675-1.467-1.012-2.546-1.012-.739 0-1.396.159-1.971.479-.569.32-1.02.788-1.353 1.406-.327.611-.49 1.35-.49 2.216Zm28.809 10.036c-1.321 0-2.5-.338-3.537-1.012-1.03-.682-1.839-1.652-2.429-2.909-.582-1.264-.873-2.78-.873-4.549 0-1.768.294-3.281.884-4.538.596-1.257 1.413-2.22 2.45-2.887 1.037-.668 2.212-1.002 3.526-1.002 1.016 0 1.833.171 2.451.512.625.333 1.108.724 1.449 1.172.348.447.617.841.809 1.182h.192v-8.107h3.185V470h-3.11v-2.546h-.267a8.442 8.442 0 0 1-.831 1.193c-.355.447-.845.838-1.47 1.172-.625.334-1.435.501-2.429.501Zm.703-2.717c.916 0 1.691-.241 2.323-.724.639-.491 1.122-1.169 1.448-2.035.334-.867.501-1.875.501-3.026 0-1.136-.163-2.131-.49-2.983-.327-.852-.806-1.516-1.438-1.992-.632-.476-1.413-.714-2.344-.714-.959 0-1.758.249-2.397.746-.639.497-1.122 1.175-1.449 2.035-.319.859-.479 1.829-.479 2.908 0 1.094.163 2.078.49 2.951.327.874.81 1.566 1.449 2.078.646.504 1.442.756 2.386.756Zm19.003 2.727c-1.612 0-3.001-.344-4.165-1.033-1.158-.696-2.053-1.673-2.685-2.93-.625-1.264-.937-2.745-.937-4.442 0-1.676.312-3.154.937-4.432.632-1.279 1.513-2.276 2.642-2.994 1.136-.717 2.465-1.076 3.984-1.076.924 0 1.819.153 2.685.458a6.5 6.5 0 0 1 2.333 1.439c.689.653 1.232 1.502 1.63 2.546.398 1.037.597 2.297.597 3.782v1.129h-13.008v-2.386h9.886c0-.838-.17-1.581-.511-2.227a3.873 3.873 0 0 0-1.438-1.545c-.611-.376-1.328-.564-2.152-.564-.895 0-1.676.22-2.344.66a4.436 4.436 0 0 0-1.534 1.705 4.92 4.92 0 0 0-.533 2.269v1.864c0 1.094.192 2.024.576 2.791.39.768.934 1.353 1.63 1.758.696.398 1.509.597 2.439.597.604 0 1.154-.085 1.651-.256.498-.177.927-.44 1.29-.788.362-.348.639-.778.83-1.289l3.015.543a5.448 5.448 0 0 1-1.299 2.333c-.618.661-1.396 1.176-2.333 1.545-.931.362-1.993.543-3.186.543Zm13.74-22.148V470h-3.185v-21.818h3.185Zm9.048 22.18c-1.037 0-1.975-.192-2.813-.575a4.738 4.738 0 0 1-1.992-1.694c-.483-.739-.724-1.644-.724-2.717 0-.923.177-1.683.532-2.279a3.935 3.935 0 0 1 1.439-1.417 7.514 7.514 0 0 1 2.024-.789 20.113 20.113 0 0 1 2.28-.404l2.386-.277c.611-.079 1.055-.203 1.332-.373.277-.171.415-.448.415-.831v-.075c0-.93-.263-1.651-.788-2.163-.519-.511-1.293-.767-2.323-.767-1.072 0-1.917.238-2.535.714-.611.469-1.034.991-1.268 1.566l-2.994-.682c.356-.994.874-1.796 1.556-2.407a6.31 6.31 0 0 1 2.376-1.343 9.268 9.268 0 0 1 2.823-.426c.653 0 1.346.078 2.077.235a6.071 6.071 0 0 1 2.067.831c.646.404 1.175.983 1.587 1.736.412.746.618 1.715.618 2.909V470h-3.111v-2.237h-.128c-.205.412-.514.817-.926 1.214-.412.398-.941.728-1.588.991-.646.263-1.42.394-2.322.394Zm.692-2.557c.881 0 1.634-.174 2.259-.522.632-.348 1.111-.802 1.438-1.363a3.537 3.537 0 0 0 .501-1.822v-2.109c-.114.113-.334.22-.661.319-.319.093-.685.174-1.097.245-.412.064-.813.125-1.204.181-.391.05-.717.093-.98.128a7.924 7.924 0 0 0-1.694.394c-.504.185-.909.451-1.214.799-.299.341-.448.796-.448 1.364 0 .788.291 1.385.874 1.79.582.398 1.324.596 2.226.596Zm13.053 8.331a6.65 6.65 0 0 1-1.299-.117c-.391-.071-.682-.149-.874-.234l.767-2.61c.583.156 1.101.223 1.556.202a1.863 1.863 0 0 0 1.203-.511c.356-.32.668-.842.938-1.566l.394-1.087-5.987-16.577h3.409l4.144 12.699h.171l4.144-12.699h3.419l-6.743 18.548c-.313.852-.71 1.573-1.193 2.163a4.64 4.64 0 0 1-1.726 1.342c-.668.298-1.442.447-2.323.447Z"/><path stroke="#18181B" stroke-linecap="round" stroke-width="4" d="M788 471v-24"/><path fill="#18181B" d="M788 461a2 2 0 1 0 0-4v4Zm0-4H648v4h140v-4Z"/><defs><filter id="a" width="185" height="185" x="695" y="0" color-interpolation-filters="sRGB" filterUnits="userSpaceOnUse"><feFlood flood-opacity="0" result="BackgroundImageFix"/><feBlend in="SourceGraphic" in2="BackgroundImageFix" result="shape"/><feGaussianBlur result="effect1_foregroundBlur_443_2982" stdDeviation="32.5"/></filter></defs></svg>