<svg xmlns="http://www.w3.org/2000/svg" width="1007" height="194" fill="none" viewBox="0 0 1007 194"><path fill="#52525B" d="M1005.71 101.707a1 1 0 0 0 0-1.414l-6.367-6.364a1 1 0 1 0-1.414 1.414l5.661 5.657-5.661 5.657a.999.999 0 1 0 1.414 1.414l6.367-6.364ZM53 102h4.49v-2H53v2Zm13.472 0h8.98v-2h-8.98v2Zm17.962 0h8.981v-2h-8.981v2Zm17.962 0h8.981v-2h-8.981v2Zm17.962 0h8.982v-2h-8.982v2Zm17.963 0h8.981v-2h-8.981v2Zm17.962 0h8.981v-2h-8.981v2Zm17.962 0h8.981v-2h-8.981v2Zm17.963 0h8.981v-2h-8.981v2Zm17.962 0h8.981v-2h-8.981v2Zm17.962 0h8.981v-2h-8.981v2Zm17.962 0h8.982v-2h-8.982v2Zm17.963 0h8.981v-2h-8.981v2Zm17.962 0H291v-2h-8.981v2Zm17.962 0h8.981v-2h-8.981v2Zm17.963 0h8.981v-2h-8.981v2Zm17.962 0h8.981v-2h-8.981v2Zm17.962 0h8.981v-2h-8.981v2Zm17.962 0h8.981v-2h-8.981v2Zm17.963 0h8.981v-2h-8.981v2Zm17.962 0h8.981v-2h-8.981v2Zm17.962 0h8.981v-2h-8.981v2Zm17.962 0h8.982v-2h-8.982v2Zm17.963 0h8.981v-2h-8.981v2Zm17.962 0h8.981v-2h-8.981v2Zm17.962 0h8.981v-2h-8.981v2Zm17.963 0h8.981v-2h-8.981v2Zm17.962 0h8.981v-2h-8.981v2Zm17.962 0h8.981v-2h-8.981v2Zm17.962 0h8.982v-2h-8.982v2Zm17.963 0h8.981v-2h-8.981v2Zm17.962 0h8.981v-2h-8.981v2Zm17.962 0h8.981v-2h-8.981v2Zm17.963 0h8.981v-2h-8.981v2Zm17.962 0h8.981v-2h-8.981v2Zm17.962 0h8.981v-2h-8.981v2Zm17.962 0h8.982v-2h-8.982v2Zm17.963 0h8.981v-2h-8.981v2Zm17.962 0h8.981v-2h-8.981v2Zm17.962 0h8.981v-2h-8.981v2ZM767 102h8.982v-2H767v2Zm17.963 0h8.981v-2h-8.981v2Zm17.962 0h8.981v-2h-8.981v2Zm17.962 0h8.981v-2h-8.981v2Zm17.963 0h8.981v-2h-8.981v2Zm17.962 0h8.981v-2h-8.981v2Zm17.962 0h8.981v-2h-8.981v2Zm17.962 0h8.982v-2h-8.982v2Zm17.963 0h8.981v-2h-8.981v2Zm17.962 0h8.981v-2h-8.981v2Zm17.962 0h8.981v-2h-8.981v2Zm17.963 0h8.981v-2h-8.981v2Zm17.962 0h8.981v-2h-8.981v2Zm17.962 0h4.49v-2h-4.49v2Zm5.9.414c.79-.781.79-2.047 0-2.828l-12.724-12.728a2 2 0 1 0-2.828 2.828L1002.17 101l-11.312 11.314a2 2 0 1 0 2.828 2.828l12.724-12.728ZM53 103h4.49v-4H53v4Zm13.472 0h8.98v-4h-8.98v4Zm17.962 0h8.981v-4h-8.981v4Zm17.962 0h8.981v-4h-8.981v4Zm17.962 0h8.982v-4h-8.982v4Zm17.963 0h8.981v-4h-8.981v4Zm17.962 0h8.981v-4h-8.981v4Zm17.962 0h8.981v-4h-8.981v4Zm17.963 0h8.981v-4h-8.981v4Zm17.962 0h8.981v-4h-8.981v4Zm17.962 0h8.981v-4h-8.981v4Zm17.962 0h8.982v-4h-8.982v4Zm17.963 0h8.981v-4h-8.981v4Zm17.962 0H291v-4h-8.981v4Zm17.962 0h8.981v-4h-8.981v4Zm17.963 0h8.981v-4h-8.981v4Zm17.962 0h8.981v-4h-8.981v4Zm17.962 0h8.981v-4h-8.981v4Zm17.962 0h8.981v-4h-8.981v4Zm17.963 0h8.981v-4h-8.981v4Zm17.962 0h8.981v-4h-8.981v4Zm17.962 0h8.981v-4h-8.981v4Zm17.962 0h8.982v-4h-8.982v4Zm17.963 0h8.981v-4h-8.981v4Zm17.962 0h8.981v-4h-8.981v4Zm17.962 0h8.981v-4h-8.981v4Zm17.963 0h8.981v-4h-8.981v4Zm17.962 0h8.981v-4h-8.981v4Zm17.962 0h8.981v-4h-8.981v4Zm17.962 0h8.982v-4h-8.982v4Zm17.963 0h8.981v-4h-8.981v4Zm17.962 0h8.981v-4h-8.981v4Zm17.962 0h8.981v-4h-8.981v4Zm17.963 0h8.981v-4h-8.981v4Zm17.962 0h8.981v-4h-8.981v4Zm17.962 0h8.981v-4h-8.981v4Zm17.962 0h8.982v-4h-8.982v4Zm17.963 0h8.981v-4h-8.981v4Zm17.962 0h8.981v-4h-8.981v4Zm17.962 0h8.981v-4h-8.981v4ZM767 103h8.982v-4H767v4Zm17.963 0h8.981v-4h-8.981v4Zm17.962 0h8.981v-4h-8.981v4Zm17.962 0h8.981v-4h-8.981v4Zm17.963 0h8.981v-4h-8.981v4Zm17.962 0h8.981v-4h-8.981v4Zm17.962 0h8.981v-4h-8.981v4Zm17.962 0h8.982v-4h-8.982v4Zm17.963 0h8.981v-4h-8.981v4Zm17.962 0h8.981v-4h-8.981v4Zm17.962 0h8.981v-4h-8.981v4Zm17.963 0h8.981v-4h-8.981v4Zm17.962 0h8.981v-4h-8.981v4Zm17.962 0h4.49v-4h-4.49v4Z"/><g filter="url(#a)"><circle cx="129.5" cy="101.5" r="27.5" fill="#D1FAE5" fill-opacity=".95"/></g><circle cx="129.5" cy="101.5" r="27.5" fill="#D1FAE5" fill-opacity=".95"/><circle cx="129.5" cy="101.5" r="15" fill="#fff" fill-opacity=".7" stroke="#34D399" stroke-width="5"/><g filter="url(#b)"><circle cx="889.5" cy="101.5" r="27.5" fill="#D1FAE5" fill-opacity=".95"/></g><circle cx="889.5" cy="101.5" r="27.5" fill="#D1FAE5" fill-opacity=".95"/><circle cx="889.5" cy="101.5" r="15" fill="#fff" fill-opacity=".7" stroke="#34D399" stroke-width="5"/><path stroke="#18181B" stroke-linecap="round" stroke-width="4" d="M130 6v24"/><path fill="#18181B" d="M130 16a2 2 0 1 0 0 4v-4Zm0 4h232v-4H130v4ZM381.689 7.182V29h-3.292V7.182h3.292Zm7.724 12.102V29h-3.186V12.636h3.058V15.3h.202a4.68 4.68 0 0 1 1.769-2.088c.809-.526 1.829-.789 3.057-.789 1.115 0 2.092.235 2.93.703.838.462 1.488 1.151 1.949 2.067.462.916.693 2.05.693 3.399V29H396.7V18.975c0-1.186-.309-2.113-.927-2.78-.618-.675-1.467-1.013-2.546-1.013-.739 0-1.396.16-1.971.48-.568.32-1.019.788-1.353 1.406-.327.611-.49 1.35-.49 2.216Zm22.382-6.648v2.557h-8.938v-2.557h8.938Zm-6.541-3.92h3.186v15.48c0 .617.092 1.082.277 1.395.184.305.422.515.713.628.299.107.622.16.97.16.256 0 .479-.018.671-.053.192-.035.341-.064.447-.085l.576 2.631a5.379 5.379 0 0 1-.789.213 6.239 6.239 0 0 1-1.278.128 5.612 5.612 0 0 1-2.344-.447 4.026 4.026 0 0 1-1.758-1.45c-.447-.653-.671-1.473-.671-2.46V8.716Zm16.942 20.614c-1.612 0-3.001-.344-4.166-1.033-1.157-.696-2.052-1.673-2.684-2.93-.625-1.264-.938-2.745-.938-4.442 0-1.676.313-3.154.938-4.432.632-1.278 1.512-2.276 2.642-2.994 1.136-.717 2.464-1.076 3.984-1.076.923 0 1.818.153 2.685.458a6.507 6.507 0 0 1 2.333 1.439c.689.653 1.232 1.502 1.63 2.546.398 1.037.596 2.297.596 3.782v1.129h-13.007v-2.386h9.886c0-.838-.17-1.58-.511-2.227a3.868 3.868 0 0 0-1.439-1.545c-.61-.376-1.328-.564-2.152-.564-.894 0-1.676.22-2.343.66a4.427 4.427 0 0 0-1.534 1.705 4.91 4.91 0 0 0-.533 2.269v1.864c0 1.094.192 2.024.575 2.791.391.767.934 1.353 1.63 1.758.696.398 1.509.597 2.44.597.603 0 1.154-.085 1.651-.256.497-.177.927-.44 1.289-.788a3.43 3.43 0 0 0 .831-1.29l3.015.544a5.455 5.455 0 0 1-1.3 2.333c-.618.66-1.395 1.176-2.333 1.545-.93.362-1.992.543-3.185.543Zm10.555-.33V12.636h3.079v2.6h.17a3.953 3.953 0 0 1 1.577-2.078c.76-.511 1.619-.767 2.578-.767a13.614 13.614 0 0 1 1.353.075v3.047a5.709 5.709 0 0 0-.682-.117 6.507 6.507 0 0 0-.98-.075c-.753 0-1.424.16-2.014.48a3.565 3.565 0 0 0-1.385 1.31c-.34.554-.511 1.186-.511 1.896V29h-3.185Zm16.129.362c-1.037 0-1.974-.191-2.813-.575a4.737 4.737 0 0 1-1.992-1.694c-.483-.739-.724-1.644-.724-2.717 0-.923.177-1.683.533-2.28a3.927 3.927 0 0 1 1.438-1.416 7.5 7.5 0 0 1 2.024-.789 20.149 20.149 0 0 1 2.28-.404l2.386-.277c.611-.079 1.055-.203 1.332-.373.277-.17.415-.448.415-.831v-.075c0-.93-.263-1.651-.788-2.163-.519-.51-1.293-.767-2.323-.767-1.072 0-1.917.238-2.535.714-.611.469-1.033.991-1.268 1.566l-2.993-.682c.355-.994.873-1.796 1.555-2.407a6.31 6.31 0 0 1 2.376-1.343 9.275 9.275 0 0 1 2.823-.426c.653 0 1.346.078 2.077.235a6.09 6.09 0 0 1 2.067.83c.646.405 1.175.984 1.587 1.737.412.746.618 1.715.618 2.909V29h-3.111v-2.237h-.127c-.206.412-.515.816-.927 1.214-.412.398-.941.728-1.588.991-.646.263-1.42.394-2.322.394Zm.692-2.557c.881 0 1.634-.174 2.259-.522.632-.348 1.111-.802 1.438-1.363a3.535 3.535 0 0 0 .501-1.822v-2.11c-.114.114-.334.22-.661.32a10.23 10.23 0 0 1-1.097.245c-.412.064-.813.125-1.204.181l-.98.128a7.902 7.902 0 0 0-1.694.394c-.504.185-.909.451-1.214.8-.299.34-.448.795-.448 1.363 0 .788.291 1.385.874 1.79.582.398 1.324.596 2.226.596Zm18.519 2.525c-1.584 0-2.948-.358-4.091-1.076-1.137-.724-2.01-1.722-2.621-2.993-.611-1.272-.916-2.728-.916-4.368 0-1.662.312-3.129.937-4.4.625-1.278 1.506-2.276 2.642-2.994 1.137-.717 2.476-1.076 4.017-1.076 1.243 0 2.351.231 3.324.693.973.454 1.757 1.094 2.354 1.917.604.824.962 1.787 1.076 2.888h-3.1c-.171-.768-.561-1.428-1.172-1.982-.604-.554-1.413-.831-2.429-.831-.888 0-1.665.234-2.333.703-.661.462-1.175 1.122-1.545 1.982-.369.852-.554 1.86-.554 3.025 0 1.193.181 2.223.544 3.09.362.866.873 1.537 1.534 2.013.667.476 1.452.714 2.354.714a3.96 3.96 0 0 0 1.641-.33 3.35 3.35 0 0 0 1.246-.97c.341-.419.579-.923.714-1.513h3.1c-.114 1.059-.458 2.003-1.033 2.834-.576.831-1.346 1.485-2.312 1.96-.959.476-2.085.714-3.377.714Zm17.767-16.694v2.557h-8.938v-2.557h8.938Zm-6.541-3.92h3.185v15.48c0 .617.092 1.082.277 1.395.185.305.423.515.714.628.298.107.621.16.969.16.256 0 .48-.018.672-.053.191-.035.34-.064.447-.085l.575 2.631a5.324 5.324 0 0 1-.788.213 6.241 6.241 0 0 1-1.279.128 5.604 5.604 0 0 1-2.343-.447 4.015 4.015 0 0 1-1.758-1.45c-.448-.653-.671-1.473-.671-2.46V8.716ZM489.382 29V12.636h3.185V29h-3.185Zm1.608-18.889c-.554 0-1.03-.184-1.427-.553-.391-.377-.586-.824-.586-1.343 0-.525.195-.973.586-1.342a2.002 2.002 0 0 1 1.427-.565c.554 0 1.027.188 1.417.565.398.37.597.817.597 1.342 0 .519-.199.966-.597 1.343-.39.369-.863.553-1.417.553Zm12.755 19.22c-1.534 0-2.873-.352-4.016-1.055-1.144-.704-2.032-1.687-2.664-2.951-.632-1.265-.948-2.742-.948-4.432 0-1.698.316-3.182.948-4.453.632-1.272 1.52-2.259 2.664-2.962 1.143-.703 2.482-1.055 4.016-1.055 1.534 0 2.873.352 4.016 1.055 1.144.703 2.032 1.69 2.664 2.962.632 1.27.948 2.755.948 4.453 0 1.69-.316 3.167-.948 4.432-.632 1.264-1.52 2.247-2.664 2.95-1.143.704-2.482 1.055-4.016 1.055Zm.011-2.675c.994 0 1.818-.262 2.471-.788.654-.526 1.137-1.225 1.449-2.099.32-.873.48-1.836.48-2.887 0-1.044-.16-2.003-.48-2.876-.312-.881-.795-1.588-1.449-2.12-.653-.533-1.477-.8-2.471-.8-1.002 0-1.833.267-2.493.8-.654.532-1.14 1.239-1.46 2.12-.312.873-.468 1.832-.468 2.876 0 1.051.156 2.014.468 2.887.32.874.806 1.573 1.46 2.099.66.526 1.491.788 2.493.788Zm14.358-7.372V29h-3.186V12.636h3.058V15.3h.202a4.68 4.68 0 0 1 1.769-2.088c.81-.526 1.829-.789 3.057-.789 1.115 0 2.092.235 2.93.703.838.462 1.488 1.151 1.95 2.067.461.916.692 2.05.692 3.399V29h-3.185V18.975c0-1.186-.309-2.113-.927-2.78-.618-.675-1.467-1.013-2.546-1.013-.739 0-1.396.16-1.971.48-.568.32-1.019.788-1.353 1.406-.327.611-.49 1.35-.49 2.216Zm25.869-12.102V29h-3.185V7.182h3.185Zm9.047 22.18c-1.037 0-1.974-.191-2.812-.575a4.737 4.737 0 0 1-1.992-1.694c-.483-.739-.725-1.644-.725-2.717 0-.923.178-1.683.533-2.28a3.927 3.927 0 0 1 1.438-1.416 7.526 7.526 0 0 1 2.024-.789 20.149 20.149 0 0 1 2.28-.404l2.386-.277c.611-.079 1.055-.203 1.332-.373.277-.17.416-.448.416-.831v-.075c0-.93-.263-1.651-.789-2.163-.518-.51-1.292-.767-2.322-.767-1.073 0-1.918.238-2.536.714-.61.469-1.033.991-1.267 1.566l-2.994-.682c.355-.994.874-1.796 1.555-2.407a6.31 6.31 0 0 1 2.376-1.343 9.275 9.275 0 0 1 2.823-.426c.654 0 1.346.078 2.078.235a6.08 6.08 0 0 1 2.066.83c.647.405 1.176.984 1.588 1.737.412.746.618 1.715.618 2.909V29h-3.111v-2.237h-.128c-.206.412-.515.816-.927 1.214-.412.398-.941.728-1.587.991-.647.263-1.421.394-2.323.394Zm.693-2.557c.881 0 1.633-.174 2.258-.522.632-.348 1.112-.802 1.439-1.363.333-.568.5-1.176.5-1.822v-2.11c-.113.114-.334.22-.66.32-.32.093-.686.174-1.098.245-.411.064-.813.125-1.203.181-.391.05-.718.093-.98.128a7.888 7.888 0 0 0-1.694.394c-.505.185-.909.451-1.215.8-.298.34-.447.795-.447 1.363 0 .788.291 1.385.873 1.79.583.398 1.325.596 2.227.596Zm19.264-14.169v2.557h-8.938v-2.557h8.938Zm-6.541-3.92h3.185v15.48c0 .617.092 1.082.277 1.395.185.305.423.515.714.628.298.107.621.16.969.16.256 0 .48-.018.671-.053.192-.035.341-.064.448-.085l.575 2.631a5.36 5.36 0 0 1-.788.213 6.241 6.241 0 0 1-1.279.128 5.604 5.604 0 0 1-2.343-.447 4.015 4.015 0 0 1-1.758-1.45c-.448-.653-.671-1.473-.671-2.46V8.716Zm16.941 20.614c-1.612 0-3-.344-4.165-1.033-1.158-.696-2.053-1.673-2.685-2.93-.625-1.264-.937-2.745-.937-4.442 0-1.676.312-3.154.937-4.432.632-1.278 1.513-2.276 2.642-2.994 1.137-.717 2.465-1.076 3.985-1.076.923 0 1.818.153 2.684.458a6.498 6.498 0 0 1 2.333 1.439c.689.653 1.233 1.502 1.63 2.546.398 1.037.597 2.297.597 3.782v1.129H577.4v-2.386h9.886c0-.838-.17-1.58-.511-2.227a3.866 3.866 0 0 0-1.438-1.545c-.611-.376-1.328-.564-2.152-.564-.895 0-1.676.22-2.344.66a4.435 4.435 0 0 0-1.534 1.705 4.923 4.923 0 0 0-.533 2.269v1.864c0 1.094.192 2.024.576 2.791.39.767.934 1.353 1.63 1.758.696.398 1.509.597 2.439.597.604 0 1.154-.085 1.651-.256a3.57 3.57 0 0 0 1.29-.788 3.43 3.43 0 0 0 .831-1.29l3.014.544a5.453 5.453 0 0 1-1.299 2.333c-.618.66-1.396 1.176-2.333 1.545-.931.362-1.993.543-3.186.543Zm13.74-10.046V29h-3.185V12.636H597V15.3h.202a4.673 4.673 0 0 1 1.769-2.088c.809-.526 1.828-.789 3.057-.789 1.115 0 2.092.235 2.93.703.838.462 1.488 1.151 1.949 2.067.462.916.693 2.05.693 3.399V29h-3.186V18.975c0-1.186-.309-2.113-.926-2.78-.618-.675-1.467-1.013-2.547-1.013-.738 0-1.395.16-1.97.48-.569.32-1.02.788-1.353 1.406-.327.611-.491 1.35-.491 2.216Zm21.638 10.046c-1.584 0-2.948-.358-4.091-1.076-1.137-.724-2.01-1.722-2.621-2.993-.611-1.272-.916-2.728-.916-4.368 0-1.662.312-3.129.937-4.4.625-1.278 1.506-2.276 2.642-2.994 1.137-.717 2.475-1.076 4.017-1.076 1.242 0 2.35.231 3.323.693.973.454 1.758 1.094 2.355 1.917.604.824.962 1.787 1.076 2.888h-3.1c-.171-.768-.561-1.428-1.172-1.982-.604-.554-1.414-.831-2.429-.831-.888 0-1.666.234-2.333.703-.661.462-1.176 1.122-1.545 1.982-.369.852-.554 1.86-.554 3.025 0 1.193.181 2.223.543 3.09.363.866.874 1.537 1.534 2.013.668.476 1.453.714 2.355.714.604 0 1.15-.11 1.64-.33.498-.228.913-.55 1.247-.97.341-.419.579-.923.714-1.513h3.1c-.114 1.059-.458 2.003-1.034 2.834-.575.831-1.345 1.485-2.311 1.96-.959.476-2.085.714-3.377.714Zm12.142 5.806a6.66 6.66 0 0 1-1.3-.117c-.391-.07-.682-.149-.874-.234l.768-2.61c.582.156 1.1.223 1.555.202a1.864 1.864 0 0 0 1.204-.511c.355-.32.667-.842.937-1.566l.394-1.087-5.987-16.577h3.409l4.144 12.7h.171l4.144-12.7h3.42l-6.744 18.548c-.312.852-.71 1.573-1.193 2.163a4.63 4.63 0 0 1-1.726 1.342c-.667.298-1.442.447-2.322.447Z"/><path stroke="#18181B" stroke-linecap="round" stroke-width="4" d="M890 30V6"/><path fill="#18181B" d="M890 20a2 2 0 1 0 0-4v4Zm0-4H658v4h232v-4Z"/><path fill="#52525B" d="M19.415 169.222h-2.66a4.055 4.055 0 0 0-1.593-2.6 4.423 4.423 0 0 0-1.355-.682 5.304 5.304 0 0 0-1.577-.23c-1.006 0-1.906.253-2.702.759-.79.505-1.414 1.247-1.875 2.224-.454.977-.681 2.171-.681 3.58 0 1.42.227 2.619.681 3.596.46.978 1.088 1.716 1.884 2.216.795.5 1.69.75 2.685.75.55 0 1.074-.074 1.568-.221.5-.154.952-.378 1.355-.674a4.081 4.081 0 0 0 1.61-2.565l2.66.009a7.13 7.13 0 0 1-.827 2.369 6.54 6.54 0 0 1-1.56 1.858 7.051 7.051 0 0 1-2.164 1.201c-.813.285-1.7.427-2.66.427-1.51 0-2.857-.358-4.04-1.074-1.181-.722-2.113-1.753-2.795-3.094-.676-1.341-1.014-2.94-1.014-4.798 0-1.864.341-3.463 1.023-4.799.682-1.34 1.613-2.369 2.795-3.085 1.182-.721 2.526-1.082 4.031-1.082.927 0 1.79.133 2.591.4a6.86 6.86 0 0 1 2.174 1.159 6.381 6.381 0 0 1 1.593 1.858c.421.728.705 1.56.853 2.498Zm5.495-5.677V181h-2.55v-17.455h2.549ZM28.338 181v-13.091h2.548V181h-2.548Zm1.287-15.111c-.443 0-.824-.148-1.142-.443a1.44 1.44 0 0 1-.469-1.074c0-.42.157-.778.469-1.074a1.603 1.603 0 0 1 1.142-.451c.443 0 .821.15 1.134.451.318.296.477.654.477 1.074 0 .415-.16.773-.477 1.074-.313.295-.69.443-1.134.443Zm10.204 15.375c-1.267 0-2.358-.287-3.273-.861-.909-.579-1.608-1.377-2.096-2.394-.49-1.018-.733-2.182-.733-3.495 0-1.329.25-2.503.75-3.52.5-1.022 1.204-1.821 2.113-2.395.91-.573 1.98-.86 3.213-.86.995 0 1.88.184 2.66.554a4.765 4.765 0 0 1 1.883 1.534c.483.659.77 1.429.86 2.309h-2.48a2.973 2.973 0 0 0-.937-1.585c-.483-.443-1.13-.665-1.943-.665-.71 0-1.332.188-1.867.563-.528.369-.94.898-1.235 1.585-.296.682-.444 1.489-.444 2.421 0 .954.145 1.778.435 2.471.29.693.699 1.23 1.227 1.611.534.381 1.162.571 1.884.571.483 0 .92-.088 1.312-.264.398-.182.73-.441.998-.776.272-.335.463-.738.57-1.21h2.48a4.818 4.818 0 0 1-.826 2.267c-.46.665-1.077 1.187-1.85 1.568-.767.381-1.667.571-2.701.571Zm10.447-4.704-.018-3.111h.444l5.216-5.54h3.05l-5.948 6.307h-.4l-2.344 2.344ZM47.932 181v-17.455h2.548V181h-2.548Zm8.267 0-4.688-6.222 1.756-1.781 6.06 8.003h-3.128Zm8.407-2.386-.127.929c-.085.681-.23 1.392-.435 2.13a32.623 32.623 0 0 1-.622 2.071c-.21.637-.384 1.142-.52 1.517h-1.807c.074-.352.176-.829.307-1.431.13-.597.258-1.265.383-2.003.126-.739.22-1.492.282-2.259l.085-.954h2.454Zm15.78-10.705v2.046h-7.15v-2.046h7.15Zm-5.233-3.136h2.549v12.383c0 .495.074.867.221 1.117.148.244.338.412.571.503.239.085.498.127.776.127.204 0 .383-.014.537-.042l.358-.068.46 2.105a4.294 4.294 0 0 1-.63.17 4.911 4.911 0 0 1-1.023.102 4.476 4.476 0 0 1-1.875-.358 3.214 3.214 0 0 1-1.407-1.159c-.358-.522-.537-1.179-.537-1.968v-12.912Zm11.862 16.517c-.83 0-1.58-.154-2.25-.46a3.795 3.795 0 0 1-1.594-1.356c-.386-.59-.58-1.315-.58-2.173 0-.739.143-1.346.427-1.824a3.142 3.142 0 0 1 1.15-1.133 5.99 5.99 0 0 1 1.62-.631c.596-.142 1.204-.25 1.824-.324l1.909-.221c.488-.063.843-.162 1.065-.299.222-.136.332-.358.332-.664v-.06c0-.744-.21-1.321-.63-1.73-.415-.409-1.034-.614-1.858-.614-.858 0-1.534.19-2.029.571-.488.375-.826.793-1.014 1.253l-2.395-.545c.284-.796.7-1.438 1.245-1.927a5.041 5.041 0 0 1 1.9-1.073 7.397 7.397 0 0 1 2.259-.341c.522 0 1.076.062 1.662.187.59.119 1.142.341 1.653.665.517.324.94.787 1.27 1.389.33.597.494 1.372.494 2.327V181h-2.488v-1.79h-.103c-.165.33-.412.654-.741.972-.33.318-.753.582-1.27.792-.517.211-1.136.316-1.858.316Zm.554-2.046c.704 0 1.307-.139 1.807-.417.505-.279.889-.642 1.15-1.091.267-.455.4-.941.4-1.458v-1.687c-.09.091-.266.176-.528.256a8.48 8.48 0 0 1-.877.196c-.33.051-.651.099-.963.145a64.13 64.13 0 0 0-.785.102 6.272 6.272 0 0 0-1.355.315 2.333 2.333 0 0 0-.971.639c-.239.273-.358.637-.358 1.091 0 .631.233 1.108.699 1.432.466.318 1.06.477 1.78.477Zm9.3 6.665v-18h2.489v2.122h.213c.148-.272.36-.588.639-.946s.665-.67 1.159-.937c.495-.273 1.148-.409 1.961-.409 1.056 0 2 .267 2.829.801.83.534 1.48 1.304 1.952 2.309.477 1.006.716 2.216.716 3.631 0 1.415-.236 2.628-.708 3.639-.471 1.006-1.119 1.782-1.943 2.327-.824.54-1.764.81-2.821.81-.795 0-1.446-.134-1.952-.401-.5-.267-.892-.579-1.176-.937a7.148 7.148 0 0 1-.656-.955h-.153v6.946h-2.549Zm2.498-11.454c0 .92.133 1.727.4 2.42.267.693.653 1.236 1.159 1.628.506.386 1.125.579 1.858.579.761 0 1.398-.201 1.909-.605.512-.409.898-.963 1.159-1.662.267-.699.401-1.485.401-2.36 0-.864-.131-1.64-.392-2.327-.256-.688-.642-1.23-1.159-1.628-.512-.398-1.151-.597-1.918-.597-.739 0-1.364.191-1.875.571-.506.381-.889.912-1.15 1.594-.262.682-.392 1.477-.392 2.387Zm15.63 4.159-.128.929c-.085.681-.23 1.392-.434 2.13a32.67 32.67 0 0 1-.623 2.071c-.21.637-.383 1.142-.519 1.517h-1.807c.074-.352.176-.829.307-1.431.13-.597.258-1.265.383-2.003.125-.739.219-1.492.281-2.259l.086-.954h2.454Zm15.183 2.65c-1.227 0-2.298-.281-3.213-.844-.914-.562-1.625-1.349-2.13-2.36-.506-1.012-.759-2.194-.759-3.546 0-1.358.253-2.545.759-3.562.505-1.017 1.216-1.807 2.13-2.37.915-.562 1.986-.843 3.213-.843 1.228 0 2.299.281 3.213.843.915.563 1.625 1.353 2.131 2.37.506 1.017.759 2.204.759 3.562 0 1.352-.253 2.534-.759 3.546-.506 1.011-1.216 1.798-2.131 2.36-.914.563-1.985.844-3.213.844Zm.009-2.139c.795 0 1.454-.21 1.977-.631.523-.42.909-.98 1.159-1.679.256-.699.384-1.468.384-2.309 0-.836-.128-1.603-.384-2.301-.25-.705-.636-1.27-1.159-1.696-.523-.427-1.182-.64-1.977-.64-.801 0-1.466.213-1.994.64-.523.426-.912.991-1.168 1.696a6.78 6.78 0 0 0-.375 2.301c0 .841.125 1.61.375 2.309.256.699.645 1.259 1.168 1.679.528.421 1.193.631 1.994.631Zm8.938 1.875v-13.091h2.463v2.08h.137a3.159 3.159 0 0 1 1.261-1.662 3.61 3.61 0 0 1 2.062-.614 11.303 11.303 0 0 1 1.083.06v2.437a4.824 4.824 0 0 0-.546-.094 5.295 5.295 0 0 0-.784-.059c-.602 0-1.139.128-1.611.383-.465.25-.835.6-1.107 1.049a2.83 2.83 0 0 0-.41 1.517V181h-2.548Zm17.906-4.44-.017-3.111h.444l5.215-5.54h3.052l-5.949 6.307h-.401l-2.344 2.344ZM154.69 181v-17.455h2.548V181h-2.548Zm8.267 0-4.688-6.222 1.756-1.781 6.06 8.003h-3.128Zm10.195.264c-1.29 0-2.401-.275-3.332-.826-.927-.557-1.642-1.339-2.148-2.344-.5-1.012-.75-2.196-.75-3.554 0-1.341.25-2.523.75-3.546.506-1.022 1.21-1.821 2.114-2.395.909-.573 1.971-.86 3.187-.86.739 0 1.455.122 2.148.366a5.193 5.193 0 0 1 1.866 1.151c.551.522.986 1.201 1.304 2.037.318.829.477 1.838.477 3.025v.904h-10.406v-1.91h7.909c0-.67-.136-1.264-.409-1.781a3.107 3.107 0 0 0-1.15-1.236c-.489-.301-1.063-.451-1.722-.451-.716 0-1.341.176-1.875.528a3.551 3.551 0 0 0-1.227 1.364 3.938 3.938 0 0 0-.426 1.815v1.492c0 .875.153 1.619.46 2.233a3.328 3.328 0 0 0 1.304 1.406c.557.318 1.207.477 1.952.477.483 0 .923-.068 1.321-.204a2.88 2.88 0 0 0 1.031-.631 2.75 2.75 0 0 0 .665-1.031l2.412.434a4.38 4.38 0 0 1-1.04 1.867c-.495.528-1.117.94-1.867 1.236-.744.289-1.593.434-2.548.434Zm9.68 4.645c-.381 0-.728-.031-1.04-.094a3.226 3.226 0 0 1-.699-.187l.614-2.088c.466.125.88.179 1.244.162.364-.017.685-.154.963-.409.284-.256.534-.674.75-1.253l.315-.87-4.789-13.261h2.727l3.315 10.159h.137l3.315-10.159h2.736l-5.395 14.838c-.25.682-.568 1.259-.955 1.73a3.688 3.688 0 0 1-1.38 1.074c-.534.239-1.154.358-1.858.358Zm11.983 0v-18h2.488v2.122h.213c.148-.272.361-.588.64-.946.278-.358.664-.67 1.159-.937.494-.273 1.147-.409 1.96-.409 1.057 0 2 .267 2.829.801.83.534 1.481 1.304 1.952 2.309.477 1.006.716 2.216.716 3.631 0 1.415-.236 2.628-.707 3.639-.472 1.006-1.12 1.782-1.944 2.327-.823.54-1.764.81-2.821.81-.795 0-1.446-.134-1.951-.401-.5-.267-.892-.579-1.176-.937a7.11 7.11 0 0 1-.657-.955h-.153v6.946h-2.548Zm2.497-11.454c0 .92.133 1.727.4 2.42.267.693.654 1.236 1.159 1.628.506.386 1.125.579 1.858.579.762 0 1.398-.201 1.909-.605.512-.409.898-.963 1.16-1.662.267-.699.4-1.485.4-2.36 0-.864-.131-1.64-.392-2.327-.256-.688-.642-1.23-1.159-1.628-.511-.398-1.151-.597-1.918-.597-.738 0-1.363.191-1.875.571-.505.381-.889.912-1.15 1.594-.262.682-.392 1.477-.392 2.387ZM209.627 181v-13.091h2.463v2.08h.137a3.159 3.159 0 0 1 1.261-1.662 3.61 3.61 0 0 1 2.062-.614 11.303 11.303 0 0 1 1.083.06v2.437a4.824 4.824 0 0 0-.546-.094 5.295 5.295 0 0 0-.784-.059c-.602 0-1.139.128-1.611.383-.465.25-.835.6-1.107 1.049a2.83 2.83 0 0 0-.41 1.517V181h-2.548Zm14.384.264c-1.289 0-2.4-.275-3.332-.826-.926-.557-1.642-1.339-2.148-2.344-.5-1.012-.75-2.196-.75-3.554 0-1.341.25-2.523.75-3.546.506-1.022 1.21-1.821 2.114-2.395.909-.573 1.971-.86 3.187-.86.739 0 1.455.122 2.148.366a5.206 5.206 0 0 1 1.867 1.151c.551.522.985 1.201 1.304 2.037.318.829.477 1.838.477 3.025v.904h-10.406v-1.91h7.909c0-.67-.137-1.264-.409-1.781a3.11 3.11 0 0 0-1.151-1.236c-.489-.301-1.062-.451-1.722-.451-.715 0-1.34.176-1.875.528a3.551 3.551 0 0 0-1.227 1.364 3.938 3.938 0 0 0-.426 1.815v1.492c0 .875.153 1.619.46 2.233.313.613.747 1.082 1.304 1.406.557.318 1.208.477 1.952.477.483 0 .923-.068 1.321-.204a2.871 2.871 0 0 0 1.031-.631c.29-.279.512-.622.665-1.031l2.412.434a4.369 4.369 0 0 1-1.04 1.867c-.494.528-1.116.94-1.866 1.236-.745.289-1.594.434-2.549.434Zm18.254-10.159-2.31.409a2.733 2.733 0 0 0-.46-.844 2.288 2.288 0 0 0-.835-.656c-.352-.17-.793-.255-1.321-.255-.722 0-1.324.161-1.807.485-.483.318-.724.73-.724 1.236 0 .438.161.79.485 1.057.324.267.847.486 1.569.656l2.079.477c1.205.279 2.102.708 2.693 1.287.591.58.887 1.333.887 2.259 0 .784-.228 1.483-.682 2.096-.449.608-1.077 1.086-1.884 1.432-.801.347-1.73.52-2.787.52-1.466 0-2.662-.312-3.588-.937-.926-.631-1.494-1.526-1.704-2.685l2.463-.375c.153.642.469 1.128.946 1.457.477.324 1.099.486 1.866.486.836 0 1.503-.173 2.003-.52.5-.352.75-.781.75-1.287 0-.409-.153-.752-.46-1.031-.301-.278-.764-.488-1.389-.631l-2.216-.485c-1.222-.279-2.125-.722-2.71-1.33-.58-.608-.87-1.378-.87-2.31 0-.772.216-1.448.648-2.028.432-.579 1.028-1.031 1.79-1.355.761-.33 1.633-.494 2.616-.494 1.415 0 2.529.306 3.341.92.813.608 1.35 1.423 1.611 2.446Zm12.867 0-2.31.409a2.733 2.733 0 0 0-.46-.844 2.28 2.28 0 0 0-.835-.656c-.352-.17-.793-.255-1.321-.255-.722 0-1.324.161-1.807.485-.483.318-.724.73-.724 1.236 0 .438.162.79.486 1.057.323.267.846.486 1.568.656l2.079.477c1.205.279 2.103.708 2.693 1.287.591.58.887 1.333.887 2.259 0 .784-.227 1.483-.682 2.096-.449.608-1.077 1.086-1.884 1.432-.801.347-1.73.52-2.786.52-1.466 0-2.662-.312-3.589-.937-.926-.631-1.494-1.526-1.704-2.685l2.463-.375c.153.642.469 1.128.946 1.457.477.324 1.099.486 1.866.486.836 0 1.503-.173 2.003-.52.5-.352.75-.781.75-1.287 0-.409-.153-.752-.46-1.031-.301-.278-.764-.488-1.389-.631l-2.216-.485c-1.222-.279-2.125-.722-2.71-1.33-.58-.608-.87-1.378-.87-2.31 0-.772.216-1.448.648-2.028.432-.579 1.029-1.031 1.79-1.355.761-.33 1.633-.494 2.616-.494 1.415 0 2.529.306 3.341.92.813.608 1.35 1.423 1.611 2.446Zm559.311-7.56 4.858 14.216h.196l4.858-14.216h2.847L820.92 181h-3.042l-6.281-17.455h2.846ZM829.518 181v-13.091h2.548V181h-2.548Zm1.287-15.111c-.443 0-.824-.148-1.142-.443a1.44 1.44 0 0 1-.469-1.074c0-.42.156-.778.469-1.074a1.603 1.603 0 0 1 1.142-.451c.443 0 .821.15 1.133.451.318.296.477.654.477 1.074 0 .415-.159.773-.477 1.074a1.59 1.59 0 0 1-1.133.443Zm14.499 5.216-2.31.409a2.733 2.733 0 0 0-.46-.844 2.28 2.28 0 0 0-.835-.656c-.352-.17-.793-.255-1.321-.255-.722 0-1.324.161-1.807.485-.483.318-.724.73-.724 1.236 0 .438.162.79.485 1.057.324.267.847.486 1.569.656l2.079.477c1.205.279 2.102.708 2.693 1.287.591.58.887 1.333.887 2.259 0 .784-.228 1.483-.682 2.096-.449.608-1.077 1.086-1.884 1.432-.801.347-1.73.52-2.787.52-1.466 0-2.662-.312-3.588-.937-.926-.631-1.494-1.526-1.704-2.685l2.463-.375c.153.642.469 1.128.946 1.457.477.324 1.099.486 1.866.486.836 0 1.503-.173 2.003-.52.5-.352.75-.781.75-1.287 0-.409-.153-.752-.46-1.031-.301-.278-.764-.488-1.389-.631l-2.216-.485c-1.222-.279-2.125-.722-2.71-1.33-.58-.608-.87-1.378-.87-2.31 0-.772.216-1.448.648-2.028.432-.579 1.028-1.031 1.79-1.355.761-.33 1.633-.494 2.616-.494 1.415 0 2.529.306 3.341.92.813.608 1.35 1.423 1.611 2.446Zm11.35 4.466v-7.662h2.557V181h-2.506v-2.267h-.136c-.301.699-.784 1.281-1.449 1.747-.659.46-1.48.69-2.463.69-.841 0-1.585-.184-2.233-.554-.642-.375-1.148-.928-1.517-1.661-.364-.733-.545-1.64-.545-2.719v-8.327h2.548v8.02c0 .892.247 1.602.741 2.131.495.528 1.137.792 1.926.792.478 0 .952-.119 1.424-.358a2.989 2.989 0 0 0 1.184-1.082c.319-.483.475-1.097.469-1.841Zm9.791 5.719c-.83 0-1.58-.154-2.25-.46a3.792 3.792 0 0 1-1.594-1.356c-.387-.59-.58-1.315-.58-2.173 0-.739.142-1.346.426-1.824a3.15 3.15 0 0 1 1.151-1.133 5.995 5.995 0 0 1 1.619-.631c.597-.142 1.205-.25 1.824-.324l1.909-.221c.489-.063.844-.162 1.066-.299.221-.136.332-.358.332-.664v-.06c0-.744-.21-1.321-.631-1.73-.414-.409-1.034-.614-1.858-.614-.858 0-1.534.19-2.028.571-.489.375-.827.793-1.014 1.253l-2.395-.545c.284-.796.699-1.438 1.244-1.927a5.041 5.041 0 0 1 1.901-1.073 7.398 7.398 0 0 1 2.258-.341c.523 0 1.077.062 1.662.187a4.863 4.863 0 0 1 1.654.665c.517.324.94.787 1.27 1.389.329.597.494 1.372.494 2.327V181h-2.489v-1.79h-.102c-.165.33-.412.654-.742.972-.329.318-.752.582-1.269.792-.517.211-1.137.316-1.858.316Zm.554-2.046c.704 0 1.306-.139 1.806-.417.506-.279.89-.642 1.151-1.091.267-.455.401-.941.401-1.458v-1.687c-.091.091-.268.176-.529.256a8.478 8.478 0 0 1-.878.196c-.329.051-.65.099-.963.145a63.64 63.64 0 0 0-.784.102 6.274 6.274 0 0 0-1.355.315 2.341 2.341 0 0 0-.972.639c-.238.273-.358.637-.358 1.091 0 .631.233 1.108.699 1.432.466.318 1.06.477 1.782.477Zm11.848-15.699V181h-2.548v-17.455h2.548Zm18.073 12.026v-7.662h2.557V181h-2.506v-2.267h-.136c-.302.699-.785 1.281-1.449 1.747-.659.46-1.48.69-2.463.69-.841 0-1.586-.184-2.233-.554-.642-.375-1.148-.928-1.517-1.661-.364-.733-.546-1.64-.546-2.719v-8.327h2.548v8.02c0 .892.248 1.602.742 2.131.494.528 1.136.792 1.926.792.477 0 .952-.119 1.423-.358a2.991 2.991 0 0 0 1.185-1.082c.318-.483.474-1.097.469-1.841Zm5.981 10.338v-18h2.488v2.122h.213c.148-.272.361-.588.639-.946.279-.358.665-.67 1.16-.937.494-.273 1.147-.409 1.96-.409 1.057 0 2 .267 2.829.801.83.534 1.48 1.304 1.952 2.309.477 1.006.716 2.216.716 3.631 0 1.415-.236 2.628-.707 3.639-.472 1.006-1.12 1.782-1.944 2.327-.823.54-1.764.81-2.821.81-.795 0-1.446-.134-1.951-.401-.5-.267-.892-.579-1.176-.937a7.11 7.11 0 0 1-.657-.955h-.153v6.946h-2.548Zm2.497-11.454c0 .92.133 1.727.4 2.42.267.693.654 1.236 1.159 1.628.506.386 1.125.579 1.858.579.762 0 1.398-.201 1.909-.605.512-.409.898-.963 1.16-1.662.267-.699.4-1.485.4-2.36 0-.864-.131-1.64-.392-2.327-.256-.688-.642-1.23-1.159-1.628-.511-.398-1.151-.597-1.918-.597-.738 0-1.363.191-1.875.571-.505.381-.889.912-1.15 1.594-.262.682-.392 1.477-.392 2.387Zm17.216 6.801c-1.057 0-2-.27-2.83-.81-.824-.545-1.471-1.321-1.943-2.327-.466-1.011-.699-2.224-.699-3.639 0-1.415.236-2.625.707-3.631.478-1.005 1.131-1.775 1.961-2.309.829-.534 1.77-.801 2.821-.801.812 0 1.466.136 1.96.409.5.267.886.579 1.159.937.278.358.494.674.648.946h.153v-6.486h2.548V181h-2.488v-2.037h-.213a6.805 6.805 0 0 1-.665.955c-.284.358-.676.67-1.176.937-.5.267-1.148.401-1.943.401Zm.562-2.174c.733 0 1.352-.193 1.858-.579.511-.392.898-.935 1.159-1.628.267-.693.401-1.5.401-2.42 0-.91-.131-1.705-.392-2.387-.262-.682-.645-1.213-1.151-1.594-.506-.38-1.131-.571-1.875-.571-.767 0-1.406.199-1.917.597-.512.398-.898.94-1.16 1.628-.255.687-.383 1.463-.383 2.327 0 .875.131 1.661.392 2.36.261.699.648 1.253 1.159 1.662.517.404 1.153.605 1.909.605Zm13.37 2.208c-.829 0-1.579-.154-2.25-.46a3.798 3.798 0 0 1-1.594-1.356c-.386-.59-.579-1.315-.579-2.173 0-.739.142-1.346.426-1.824a3.142 3.142 0 0 1 1.151-1.133 5.982 5.982 0 0 1 1.619-.631c.596-.142 1.204-.25 1.824-.324l1.909-.221c.488-.063.844-.162 1.065-.299.222-.136.333-.358.333-.664v-.06c0-.744-.211-1.321-.631-1.73-.415-.409-1.034-.614-1.858-.614-.858 0-1.534.19-2.028.571-.489.375-.827.793-1.015 1.253l-2.395-.545c.285-.796.699-1.438 1.245-1.927a5.037 5.037 0 0 1 1.9-1.073 7.4 7.4 0 0 1 2.259-.341c.523 0 1.077.062 1.662.187a4.85 4.85 0 0 1 1.653.665c.517.324.941.787 1.27 1.389.33.597.494 1.372.494 2.327V181h-2.488v-1.79h-.103a3.59 3.59 0 0 1-.741.972c-.33.318-.753.582-1.27.792-.517.211-1.136.316-1.858.316Zm.554-2.046c.705 0 1.307-.139 1.807-.417.506-.279.889-.642 1.151-1.091.267-.455.4-.941.4-1.458v-1.687c-.091.091-.267.176-.528.256a8.537 8.537 0 0 1-.878.196c-.33.051-.651.099-.963.145-.313.039-.574.073-.784.102a6.26 6.26 0 0 0-1.355.315 2.328 2.328 0 0 0-.972.639c-.239.273-.358.637-.358 1.091 0 .631.233 1.108.699 1.432.466.318 1.06.477 1.781.477Zm15.411-11.335v2.046h-7.15v-2.046h7.15Zm-5.233-3.136h2.549v12.383c0 .495.074.867.221 1.117.148.244.338.412.571.503.239.085.497.127.776.127.204 0 .383-.014.537-.042l.358-.068.46 2.105a4.3 4.3 0 0 1-.631.17 4.9 4.9 0 0 1-1.022.102 4.473 4.473 0 0 1-1.875-.358 3.214 3.214 0 0 1-1.407-1.159c-.358-.522-.537-1.179-.537-1.968v-12.912Zm13.554 16.491c-1.29 0-2.401-.275-3.333-.826-.926-.557-1.642-1.339-2.147-2.344-.5-1.012-.75-2.196-.75-3.554 0-1.341.25-2.523.75-3.546.505-1.022 1.21-1.821 2.113-2.395.909-.573 1.972-.86 3.188-.86a6.42 6.42 0 0 1 2.147.366 5.189 5.189 0 0 1 1.867 1.151c.551.522.986 1.201 1.304 2.037.318.829.477 1.838.477 3.025v.904h-10.406v-1.91h7.909c0-.67-.136-1.264-.409-1.781a3.102 3.102 0 0 0-1.151-1.236c-.488-.301-1.062-.451-1.721-.451-.716 0-1.341.176-1.875.528a3.546 3.546 0 0 0-1.228 1.364 3.938 3.938 0 0 0-.426 1.815v1.492c0 .875.154 1.619.461 2.233a3.328 3.328 0 0 0 1.304 1.406c.556.318 1.207.477 1.951.477a4.06 4.06 0 0 0 1.321-.204 2.875 2.875 0 0 0 1.032-.631c.289-.279.511-.622.664-1.031l2.412.434a4.369 4.369 0 0 1-1.04 1.867c-.494.528-1.116.94-1.866 1.236-.744.289-1.594.434-2.548.434Z"/><defs><filter id="a" width="185" height="185" x="37" y="9" color-interpolation-filters="sRGB" filterUnits="userSpaceOnUse"><feFlood flood-opacity="0" result="BackgroundImageFix"/><feBlend in="SourceGraphic" in2="BackgroundImageFix" result="shape"/><feGaussianBlur result="effect1_foregroundBlur_413_1324" stdDeviation="32.5"/></filter><filter id="b" width="185" height="185" x="797" y="9" color-interpolation-filters="sRGB" filterUnits="userSpaceOnUse"><feFlood flood-opacity="0" result="BackgroundImageFix"/><feBlend in="SourceGraphic" in2="BackgroundImageFix" result="shape"/><feGaussianBlur result="effect1_foregroundBlur_413_1324" stdDeviation="32.5"/></filter></defs></svg>