<svg width="1007" height="188" viewBox="0 0 1007 188" fill="none" xmlns="http://www.w3.org/2000/svg">
<path d="M1005.71 101.707C1006.1 101.317 1006.1 100.684 1005.71 100.293L999.343 93.929C998.953 93.5385 998.32 93.5385 997.929 93.929C997.538 94.3195 997.538 94.9527 997.929 95.3432L1003.59 101L997.929 106.657C997.538 107.047 997.538 107.681 997.929 108.071C998.32 108.462 998.953 108.462 999.343 108.071L1005.71 101.707ZM53 102L57.4906 102L57.4906 100L53 100L53 102ZM66.4717 102L75.4528 102L75.4528 100L66.4717 100L66.4717 102ZM84.434 102L93.4151 102L93.4151 100L84.434 100L84.434 102ZM102.396 102L111.377 102L111.377 100L102.396 100L102.396 102ZM120.358 102L129.34 102L129.34 100L120.358 100L120.358 102ZM138.321 102L147.302 102L147.302 100L138.321 100L138.321 102ZM156.283 102L165.264 102L165.264 100L156.283 100L156.283 102ZM174.245 102L183.226 102L183.226 100L174.245 100L174.245 102ZM192.208 102L201.189 102L201.189 100L192.208 100L192.208 102ZM210.17 102L219.151 102L219.151 100L210.17 100L210.17 102ZM228.132 102L237.113 102L237.113 100L228.132 100L228.132 102ZM246.094 102L255.076 102L255.076 100L246.094 100L246.094 102ZM264.057 102L273.038 102L273.038 100L264.057 100L264.057 102ZM282.019 102L291 102L291 100L282.019 100L282.019 102ZM299.981 102L308.962 102L308.962 100L299.981 100L299.981 102ZM317.944 102L326.925 102L326.925 100L317.944 100L317.944 102ZM335.906 102L344.887 102L344.887 100L335.906 100L335.906 102ZM353.868 102L362.849 102L362.849 100L353.868 100L353.868 102ZM371.83 102L380.811 102L380.811 100L371.83 100L371.83 102ZM389.793 102L398.774 102L398.774 100L389.793 100L389.793 102ZM407.755 102L416.736 102L416.736 100L407.755 100L407.755 102ZM425.717 102L434.698 102L434.698 100L425.717 100L425.717 102ZM443.679 102L452.661 102L452.661 100L443.679 100L443.679 102ZM461.642 102L470.623 102L470.623 100L461.642 100L461.642 102ZM479.604 102L488.585 102L488.585 100L479.604 100L479.604 102ZM497.566 102L506.547 102L506.547 100L497.566 100L497.566 102ZM515.529 102L524.51 102L524.51 100L515.529 100L515.529 102ZM533.491 102L542.472 102L542.472 100L533.491 100L533.491 102ZM551.453 102L560.434 102L560.434 100L551.453 100L551.453 102ZM569.415 102L578.397 102L578.397 100L569.415 100L569.415 102ZM587.378 102L596.359 102L596.359 100L587.378 100L587.378 102ZM605.34 102L614.321 102L614.321 100L605.34 100L605.34 102ZM623.302 102L632.283 102L632.283 100L623.302 100L623.302 102ZM641.265 102L650.246 102L650.246 100L641.265 100L641.265 102ZM659.227 102L668.208 102L668.208 100L659.227 100L659.227 102ZM677.189 102L686.17 102L686.17 100L677.189 100L677.189 102ZM695.151 102L704.133 102L704.133 100L695.151 100L695.151 102ZM713.114 102L722.095 102L722.095 100L713.114 100L713.114 102ZM731.076 102L740.057 102L740.057 100L731.076 100L731.076 102ZM749.038 102L758.019 102L758.019 100L749.038 100L749.038 102ZM767 102L775.982 102L775.982 100L767 100L767 102ZM784.963 102L793.944 102L793.944 100L784.963 100L784.963 102ZM802.925 102L811.906 102L811.906 100L802.925 100L802.925 102ZM820.887 102L829.868 102L829.868 100L820.887 100L820.887 102ZM838.85 102L847.831 102L847.831 100L838.85 100L838.85 102ZM856.812 102L865.793 102L865.793 100L856.812 100L856.812 102ZM874.774 102L883.755 102L883.755 100L874.774 100L874.774 102ZM892.736 102L901.718 102L901.718 100L892.736 100L892.736 102ZM910.699 102L919.68 102L919.68 100L910.699 100L910.699 102ZM928.661 102L937.642 102L937.642 100L928.661 100L928.661 102ZM946.623 102L955.604 102L955.604 100L946.623 100L946.623 102ZM964.586 102L973.567 102L973.567 100L964.586 100L964.586 102ZM982.548 102L991.529 102L991.529 100L982.548 100L982.548 102ZM1000.51 102L1005 102L1005 100L1000.51 100L1000.51 102ZM1006.41 102.414C1007.2 101.633 1007.2 100.367 1006.41 99.5859L993.686 86.8579C992.905 86.0769 991.639 86.0769 990.858 86.8579C990.077 87.639 990.077 88.9053 990.858 89.6864L1002.17 101L990.858 112.314C990.077 113.095 990.077 114.361 990.858 115.142C991.639 115.923 992.905 115.923 993.686 115.142L1006.41 102.414ZM53 103L57.4906 103L57.4906 99L53 99L53 103ZM66.4717 103L75.4528 103L75.4528 99L66.4717 99L66.4717 103ZM84.434 103L93.4151 103L93.4151 99L84.434 99L84.434 103ZM102.396 103L111.377 103L111.377 99L102.396 99L102.396 103ZM120.358 103L129.34 103L129.34 99L120.358 99L120.358 103ZM138.321 103L147.302 103L147.302 99L138.321 99L138.321 103ZM156.283 103L165.264 103L165.264 99L156.283 99L156.283 103ZM174.245 103L183.226 103L183.226 99L174.245 99L174.245 103ZM192.208 103L201.189 103L201.189 99L192.208 99L192.208 103ZM210.17 103L219.151 103L219.151 99L210.17 99L210.17 103ZM228.132 103L237.113 103L237.113 99L228.132 99L228.132 103ZM246.094 103L255.076 103L255.076 99L246.094 99L246.094 103ZM264.057 103L273.038 103L273.038 99L264.057 99L264.057 103ZM282.019 103L291 103L291 99L282.019 99L282.019 103ZM299.981 103L308.962 103L308.962 99L299.981 99L299.981 103ZM317.944 103L326.925 103L326.925 99L317.944 99L317.944 103ZM335.906 103L344.887 103L344.887 99L335.906 99L335.906 103ZM353.868 103L362.849 103L362.849 99L353.868 99L353.868 103ZM371.83 103L380.811 103L380.811 99L371.83 99L371.83 103ZM389.793 103L398.774 103L398.774 99L389.793 99L389.793 103ZM407.755 103L416.736 103L416.736 99L407.755 99L407.755 103ZM425.717 103L434.698 103L434.698 99L425.717 99L425.717 103ZM443.679 103L452.661 103L452.661 99L443.679 99L443.679 103ZM461.642 103L470.623 103L470.623 99L461.642 99L461.642 103ZM479.604 103L488.585 103L488.585 99L479.604 99L479.604 103ZM497.566 103L506.547 103L506.547 99L497.566 99L497.566 103ZM515.529 103L524.51 103L524.51 99L515.529 99L515.529 103ZM533.491 103L542.472 103L542.472 99L533.491 99L533.491 103ZM551.453 103L560.434 103L560.434 99L551.453 99L551.453 103ZM569.415 103L578.397 103L578.397 99L569.415 99L569.415 103ZM587.378 103L596.359 103L596.359 99L587.378 99L587.378 103ZM605.34 103L614.321 103L614.321 99L605.34 99L605.34 103ZM623.302 103L632.283 103L632.283 99.0001L623.302 99L623.302 103ZM641.265 103L650.246 103L650.246 99.0001L641.265 99.0001L641.265 103ZM659.227 103L668.208 103L668.208 99.0001L659.227 99.0001L659.227 103ZM677.189 103L686.17 103L686.17 99.0001L677.189 99.0001L677.189 103ZM695.151 103L704.133 103L704.133 99.0001L695.151 99.0001L695.151 103ZM713.114 103L722.095 103L722.095 99.0001L713.114 99.0001L713.114 103ZM731.076 103L740.057 103L740.057 99.0001L731.076 99.0001L731.076 103ZM749.038 103L758.019 103L758.019 99.0001L749.038 99.0001L749.038 103ZM767 103L775.982 103L775.982 99.0001L767 99.0001L767 103ZM784.963 103L793.944 103L793.944 99.0001L784.963 99.0001L784.963 103ZM802.925 103L811.906 103L811.906 99.0001L802.925 99.0001L802.925 103ZM820.887 103L829.868 103L829.868 99.0001L820.887 99.0001L820.887 103ZM838.85 103L847.831 103L847.831 99.0001L838.85 99.0001L838.85 103ZM856.812 103L865.793 103L865.793 99.0001L856.812 99.0001L856.812 103ZM874.774 103L883.755 103L883.755 99.0001L874.774 99.0001L874.774 103ZM892.736 103L901.718 103L901.718 99.0001L892.736 99.0001L892.736 103ZM910.699 103L919.68 103L919.68 99.0001L910.699 99.0001L910.699 103ZM928.661 103L937.642 103L937.642 99.0001L928.661 99.0001L928.661 103ZM946.623 103L955.604 103L955.604 99.0001L946.623 99.0001L946.623 103ZM964.586 103L973.567 103L973.567 99.0001L964.586 99.0001L964.586 103ZM982.548 103L991.529 103L991.529 99.0001L982.548 99.0001L982.548 103ZM1000.51 103L1005 103L1005 99.0001L1000.51 99.0001L1000.51 103Z" fill="#D4D4D8"/>
<g opacity="0.9" filter="url(#filter0_f_413_1324)">
<circle cx="130.5" cy="101.5" r="27.5" fill="#D1FAE5" fill-opacity="0.2"/>
</g>
<circle cx="129.5" cy="101.5" r="27.5" fill="#D1FAE5" fill-opacity="0.1"/>
<circle cx="129.5" cy="101.5" r="15" fill="#CEF3E4" stroke="#6EE7B7" stroke-width="5"/>
<g opacity="0.9" filter="url(#filter1_f_413_1324)">
<circle cx="890.5" cy="101.5" r="27.5" fill="#D1FAE5" fill-opacity="0.2"/>
</g>
<circle cx="889.5" cy="101.5" r="27.5" fill="#D1FAE5" fill-opacity="0.1"/>
<circle cx="889.5" cy="101.5" r="15" fill="#CEF3E4" stroke="#6EE7B7" stroke-width="5"/>
<path d="M130 6L130 30" stroke="#F4F4F5" stroke-width="4" stroke-linecap="round"/>
<path d="M130 16C128.895 16 128 16.8954 128 18C128 19.1046 128.895 20 130 20V16ZM130 20H362V16H130V20Z" fill="#F4F4F5"/>
<path d="M381.689 7.18182V29H378.397V7.18182H381.689ZM389.413 19.2841V29H386.227V12.6364H389.285V15.2997H389.487C389.864 14.4332 390.453 13.7372 391.256 13.2116C392.065 12.6861 393.085 12.4233 394.313 12.4233C395.428 12.4233 396.405 12.6577 397.243 13.1264C398.081 13.5881 398.731 14.277 399.192 15.1932C399.654 16.1094 399.885 17.2422 399.885 18.5916V29H396.7V18.9751C396.7 17.7891 396.391 16.8622 395.773 16.1946C395.155 15.5199 394.306 15.1825 393.227 15.1825C392.488 15.1825 391.831 15.3423 391.256 15.6619C390.688 15.9815 390.237 16.4503 389.903 17.0682C389.576 17.679 389.413 18.4176 389.413 19.2841ZM411.795 12.6364V15.1932H402.857V12.6364H411.795ZM405.254 8.71591H408.44V24.1953C408.44 24.8132 408.532 25.2784 408.717 25.5909C408.901 25.8963 409.139 26.1058 409.43 26.2195C409.729 26.326 410.052 26.3793 410.4 26.3793C410.656 26.3793 410.879 26.3615 411.071 26.326C411.263 26.2905 411.412 26.2621 411.518 26.2408L412.094 28.8722C411.909 28.9432 411.646 29.0142 411.305 29.0852C410.964 29.1634 410.538 29.206 410.027 29.2131C409.189 29.2273 408.408 29.0781 407.683 28.7656C406.959 28.4531 406.373 27.9702 405.925 27.3168C405.478 26.6634 405.254 25.843 405.254 24.8558V8.71591ZM422.196 29.3303C420.584 29.3303 419.195 28.9858 418.03 28.2969C416.873 27.6009 415.978 26.6243 415.346 25.3672C414.721 24.103 414.408 22.6222 414.408 20.9247C414.408 19.2486 414.721 17.7713 415.346 16.4929C415.978 15.2145 416.858 14.2166 417.988 13.4993C419.124 12.782 420.452 12.4233 421.972 12.4233C422.895 12.4233 423.79 12.576 424.657 12.8814C425.523 13.1868 426.301 13.6662 426.99 14.3196C427.679 14.973 428.222 15.8217 428.62 16.8658C429.018 17.9027 429.216 19.1634 429.216 20.6477V21.777H416.209V19.3906H426.095C426.095 18.5526 425.925 17.8104 425.584 17.1641C425.243 16.5107 424.763 15.9957 424.145 15.6193C423.535 15.2429 422.817 15.0547 421.993 15.0547C421.099 15.0547 420.317 15.2749 419.65 15.7152C418.989 16.1484 418.478 16.7166 418.116 17.4197C417.76 18.1158 417.583 18.8722 417.583 19.6889V21.5533C417.583 22.647 417.775 23.5774 418.158 24.3445C418.549 25.1115 419.092 25.6974 419.788 26.1023C420.484 26.5 421.297 26.6989 422.228 26.6989C422.831 26.6989 423.382 26.6136 423.879 26.4432C424.376 26.2656 424.806 26.0028 425.168 25.6548C425.53 25.3068 425.807 24.8771 425.999 24.3658L429.014 24.9091C428.773 25.7969 428.339 26.5746 427.714 27.2422C427.096 27.9027 426.319 28.4176 425.381 28.7869C424.451 29.1491 423.389 29.3303 422.196 29.3303ZM432.751 29V12.6364H435.83V15.2358H436C436.298 14.3551 436.824 13.6626 437.577 13.1584C438.337 12.647 439.196 12.3913 440.155 12.3913C440.354 12.3913 440.588 12.3984 440.858 12.4126C441.135 12.4268 441.352 12.4446 441.508 12.4659V15.5128C441.38 15.4773 441.153 15.4382 440.826 15.3956C440.499 15.3459 440.173 15.321 439.846 15.321C439.093 15.321 438.422 15.4808 437.832 15.8004C437.25 16.1129 436.788 16.5497 436.447 17.1108C436.107 17.6648 435.936 18.2969 435.936 19.0071V29H432.751ZM448.88 29.3622C447.843 29.3622 446.906 29.1705 446.067 28.7869C445.229 28.3963 444.565 27.8317 444.075 27.093C443.592 26.3544 443.351 25.4489 443.351 24.3764C443.351 23.4531 443.528 22.6932 443.884 22.0966C444.239 21.5 444.718 21.0277 445.322 20.6797C445.925 20.3317 446.6 20.0689 447.346 19.8913C448.092 19.7138 448.852 19.5788 449.626 19.4865C450.606 19.3729 451.401 19.2805 452.012 19.2095C452.623 19.1314 453.067 19.0071 453.344 18.8366C453.621 18.6662 453.759 18.3892 453.759 18.0057V17.9311C453.759 17.0007 453.496 16.2798 452.971 15.7685C452.452 15.2571 451.678 15.0014 450.648 15.0014C449.576 15.0014 448.731 15.2393 448.113 15.7152C447.502 16.1839 447.08 16.706 446.845 17.2812L443.852 16.5994C444.207 15.6051 444.725 14.8026 445.407 14.1918C446.096 13.5739 446.888 13.1264 447.783 12.8494C448.678 12.5653 449.619 12.4233 450.606 12.4233C451.259 12.4233 451.952 12.5014 452.683 12.6577C453.422 12.8068 454.111 13.0838 454.75 13.4886C455.396 13.8935 455.925 14.4723 456.337 15.2251C456.749 15.9709 456.955 16.9403 456.955 18.1335V29H453.844V26.7628H453.717C453.511 27.1747 453.202 27.5795 452.79 27.9773C452.378 28.375 451.849 28.7053 451.202 28.968C450.556 29.2308 449.782 29.3622 448.88 29.3622ZM449.572 26.8054C450.453 26.8054 451.206 26.6314 451.831 26.2834C452.463 25.9354 452.942 25.4808 453.269 24.9197C453.603 24.3516 453.77 23.7443 453.77 23.098V20.9886C453.656 21.1023 453.436 21.2088 453.109 21.3082C452.79 21.4006 452.424 21.4822 452.012 21.5533C451.6 21.6172 451.199 21.6776 450.808 21.7344C450.418 21.7841 450.091 21.8267 449.828 21.8622C449.21 21.9403 448.646 22.0717 448.134 22.2564C447.63 22.4411 447.225 22.7074 446.92 23.0554C446.621 23.3963 446.472 23.8509 446.472 24.419C446.472 25.2074 446.763 25.804 447.346 26.2088C447.928 26.6065 448.67 26.8054 449.572 26.8054ZM468.091 29.3303C466.507 29.3303 465.143 28.9716 464 28.2543C462.863 27.5298 461.99 26.532 461.379 25.2607C460.768 23.9893 460.463 22.5334 460.463 20.8928C460.463 19.2308 460.775 17.7642 461.4 16.4929C462.025 15.2145 462.906 14.2166 464.042 13.4993C465.179 12.782 466.518 12.4233 468.059 12.4233C469.302 12.4233 470.41 12.6541 471.383 13.1158C472.356 13.5703 473.14 14.2095 473.737 15.0334C474.341 15.8572 474.699 16.8196 474.813 17.9205H471.713C471.542 17.1534 471.152 16.4929 470.541 15.9389C469.937 15.3849 469.128 15.108 468.112 15.108C467.224 15.108 466.447 15.3423 465.779 15.8111C465.118 16.2727 464.604 16.9332 464.234 17.7926C463.865 18.6449 463.68 19.6534 463.68 20.8182C463.68 22.0114 463.861 23.0412 464.224 23.9077C464.586 24.7741 465.097 25.4453 465.758 25.9212C466.425 26.397 467.21 26.6349 468.112 26.6349C468.716 26.6349 469.263 26.5249 469.753 26.3047C470.25 26.0774 470.665 25.7543 470.999 25.3352C471.34 24.9162 471.578 24.4119 471.713 23.8224H474.813C474.699 24.8807 474.355 25.8253 473.78 26.6562C473.204 27.4872 472.434 28.1406 471.468 28.6165C470.509 29.0923 469.383 29.3303 468.091 29.3303ZM485.858 12.6364V15.1932H476.92V12.6364H485.858ZM479.317 8.71591H482.502V24.1953C482.502 24.8132 482.594 25.2784 482.779 25.5909C482.964 25.8963 483.202 26.1058 483.493 26.2195C483.791 26.326 484.114 26.3793 484.462 26.3793C484.718 26.3793 484.942 26.3615 485.134 26.326C485.325 26.2905 485.474 26.2621 485.581 26.2408L486.156 28.8722C485.972 28.9432 485.709 29.0142 485.368 29.0852C485.027 29.1634 484.601 29.206 484.089 29.2131C483.251 29.2273 482.47 29.0781 481.746 28.7656C481.021 28.4531 480.435 27.9702 479.988 27.3168C479.54 26.6634 479.317 25.843 479.317 24.8558V8.71591ZM489.382 29V12.6364H492.567V29H489.382ZM490.99 10.1115C490.436 10.1115 489.96 9.92685 489.563 9.55753C489.172 9.18111 488.977 8.73366 488.977 8.2152C488.977 7.68963 489.172 7.24219 489.563 6.87287C489.96 6.49645 490.436 6.30824 490.99 6.30824C491.544 6.30824 492.017 6.49645 492.407 6.87287C492.805 7.24219 493.004 7.68963 493.004 8.2152C493.004 8.73366 492.805 9.18111 492.407 9.55753C492.017 9.92685 491.544 10.1115 490.99 10.1115ZM503.745 29.3303C502.211 29.3303 500.872 28.9787 499.729 28.2756C498.585 27.5724 497.697 26.5888 497.065 25.3246C496.433 24.0604 496.117 22.5831 496.117 20.8928C496.117 19.1953 496.433 17.7109 497.065 16.4396C497.697 15.1683 498.585 14.1811 499.729 13.478C500.872 12.7749 502.211 12.4233 503.745 12.4233C505.279 12.4233 506.618 12.7749 507.761 13.478C508.905 14.1811 509.793 15.1683 510.425 16.4396C511.057 17.7109 511.373 19.1953 511.373 20.8928C511.373 22.5831 511.057 24.0604 510.425 25.3246C509.793 26.5888 508.905 27.5724 507.761 28.2756C506.618 28.9787 505.279 29.3303 503.745 29.3303ZM503.756 26.6562C504.75 26.6562 505.574 26.3935 506.227 25.8679C506.881 25.3423 507.364 24.6428 507.676 23.7692C507.996 22.8956 508.156 21.9332 508.156 20.8821C508.156 19.8381 507.996 18.8793 507.676 18.0057C507.364 17.125 506.881 16.4183 506.227 15.8857C505.574 15.353 504.75 15.0866 503.756 15.0866C502.754 15.0866 501.923 15.353 501.263 15.8857C500.609 16.4183 500.123 17.125 499.803 18.0057C499.491 18.8793 499.335 19.8381 499.335 20.8821C499.335 21.9332 499.491 22.8956 499.803 23.7692C500.123 24.6428 500.609 25.3423 501.263 25.8679C501.923 26.3935 502.754 26.6562 503.756 26.6562ZM518.114 19.2841V29H514.928V12.6364H517.986V15.2997H518.188C518.565 14.4332 519.154 13.7372 519.957 13.2116C520.767 12.6861 521.786 12.4233 523.014 12.4233C524.129 12.4233 525.106 12.6577 525.944 13.1264C526.782 13.5881 527.432 14.277 527.894 15.1932C528.355 16.1094 528.586 17.2422 528.586 18.5916V29H525.401V18.9751C525.401 17.7891 525.092 16.8622 524.474 16.1946C523.856 15.5199 523.007 15.1825 521.928 15.1825C521.189 15.1825 520.532 15.3423 519.957 15.6619C519.389 15.9815 518.938 16.4503 518.604 17.0682C518.277 17.679 518.114 18.4176 518.114 19.2841ZM543.983 7.18182V29H540.798V7.18182H543.983ZM553.03 29.3622C551.993 29.3622 551.056 29.1705 550.218 28.7869C549.38 28.3963 548.716 27.8317 548.226 27.093C547.743 26.3544 547.501 25.4489 547.501 24.3764C547.501 23.4531 547.679 22.6932 548.034 22.0966C548.389 21.5 548.868 21.0277 549.472 20.6797C550.076 20.3317 550.751 20.0689 551.496 19.8913C552.242 19.7138 553.002 19.5788 553.776 19.4865C554.756 19.3729 555.552 19.2805 556.162 19.2095C556.773 19.1314 557.217 19.0071 557.494 18.8366C557.771 18.6662 557.91 18.3892 557.91 18.0057V17.9311C557.91 17.0007 557.647 16.2798 557.121 15.7685C556.603 15.2571 555.829 15.0014 554.799 15.0014C553.726 15.0014 552.881 15.2393 552.263 15.7152C551.653 16.1839 551.23 16.706 550.996 17.2812L548.002 16.5994C548.357 15.6051 548.876 14.8026 549.557 14.1918C550.246 13.5739 551.038 13.1264 551.933 12.8494C552.828 12.5653 553.769 12.4233 554.756 12.4233C555.41 12.4233 556.102 12.5014 556.834 12.6577C557.572 12.8068 558.261 13.0838 558.9 13.4886C559.547 13.8935 560.076 14.4723 560.488 15.2251C560.9 15.9709 561.106 16.9403 561.106 18.1335V29H557.995V26.7628H557.867C557.661 27.1747 557.352 27.5795 556.94 27.9773C556.528 28.375 555.999 28.7053 555.353 28.968C554.706 29.2308 553.932 29.3622 553.03 29.3622ZM553.723 26.8054C554.604 26.8054 555.356 26.6314 555.981 26.2834C556.613 25.9354 557.093 25.4808 557.42 24.9197C557.753 24.3516 557.92 23.7443 557.92 23.098V20.9886C557.807 21.1023 557.586 21.2088 557.26 21.3082C556.94 21.4006 556.574 21.4822 556.162 21.5533C555.751 21.6172 555.349 21.6776 554.959 21.7344C554.568 21.7841 554.241 21.8267 553.979 21.8622C553.361 21.9403 552.796 22.0717 552.285 22.2564C551.78 22.4411 551.376 22.7074 551.07 23.0554C550.772 23.3963 550.623 23.8509 550.623 24.419C550.623 25.2074 550.914 25.804 551.496 26.2088C552.079 26.6065 552.821 26.8054 553.723 26.8054ZM572.987 12.6364V15.1932H564.049V12.6364H572.987ZM566.446 8.71591H569.631V24.1953C569.631 24.8132 569.723 25.2784 569.908 25.5909C570.093 25.8963 570.331 26.1058 570.622 26.2195C570.92 26.326 571.243 26.3793 571.591 26.3793C571.847 26.3793 572.071 26.3615 572.262 26.326C572.454 26.2905 572.603 26.2621 572.71 26.2408L573.285 28.8722C573.1 28.9432 572.838 29.0142 572.497 29.0852C572.156 29.1634 571.73 29.206 571.218 29.2131C570.38 29.2273 569.599 29.0781 568.875 28.7656C568.15 28.4531 567.564 27.9702 567.117 27.3168C566.669 26.6634 566.446 25.843 566.446 24.8558V8.71591ZM583.387 29.3303C581.775 29.3303 580.387 28.9858 579.222 28.2969C578.064 27.6009 577.169 26.6243 576.537 25.3672C575.912 24.103 575.6 22.6222 575.6 20.9247C575.6 19.2486 575.912 17.7713 576.537 16.4929C577.169 15.2145 578.05 14.2166 579.179 13.4993C580.316 12.782 581.644 12.4233 583.164 12.4233C584.087 12.4233 584.982 12.576 585.848 12.8814C586.715 13.1868 587.492 13.6662 588.181 14.3196C588.87 14.973 589.414 15.8217 589.811 16.8658C590.209 17.9027 590.408 19.1634 590.408 20.6477V21.777H577.4V19.3906H587.286C587.286 18.5526 587.116 17.8104 586.775 17.1641C586.434 16.5107 585.955 15.9957 585.337 15.6193C584.726 15.2429 584.009 15.0547 583.185 15.0547C582.29 15.0547 581.509 15.2749 580.841 15.7152C580.181 16.1484 579.669 16.7166 579.307 17.4197C578.952 18.1158 578.774 18.8722 578.774 19.6889V21.5533C578.774 22.647 578.966 23.5774 579.35 24.3445C579.74 25.1115 580.284 25.6974 580.98 26.1023C581.676 26.5 582.489 26.6989 583.419 26.6989C584.023 26.6989 584.573 26.6136 585.07 26.4432C585.568 26.2656 585.997 26.0028 586.36 25.6548C586.722 25.3068 586.999 24.8771 587.191 24.3658L590.205 24.9091C589.964 25.7969 589.531 26.5746 588.906 27.2422C588.288 27.9027 587.51 28.4176 586.573 28.7869C585.642 29.1491 584.58 29.3303 583.387 29.3303ZM597.127 19.2841V29H593.942V12.6364H597V15.2997H597.202C597.578 14.4332 598.168 13.7372 598.971 13.2116C599.78 12.6861 600.799 12.4233 602.028 12.4233C603.143 12.4233 604.12 12.6577 604.958 13.1264C605.796 13.5881 606.446 14.277 606.907 15.1932C607.369 16.1094 607.6 17.2422 607.6 18.5916V29H604.414V18.9751C604.414 17.7891 604.105 16.8622 603.488 16.1946C602.87 15.5199 602.021 15.1825 600.941 15.1825C600.203 15.1825 599.546 15.3423 598.971 15.6619C598.402 15.9815 597.951 16.4503 597.618 17.0682C597.291 17.679 597.127 18.4176 597.127 19.2841ZM618.765 29.3303C617.181 29.3303 615.817 28.9716 614.674 28.2543C613.537 27.5298 612.664 26.532 612.053 25.2607C611.442 23.9893 611.137 22.5334 611.137 20.8928C611.137 19.2308 611.449 17.7642 612.074 16.4929C612.699 15.2145 613.58 14.2166 614.716 13.4993C615.853 12.782 617.191 12.4233 618.733 12.4233C619.975 12.4233 621.083 12.6541 622.056 13.1158C623.029 13.5703 623.814 14.2095 624.411 15.0334C625.015 15.8572 625.373 16.8196 625.487 17.9205H622.387C622.216 17.1534 621.826 16.4929 621.215 15.9389C620.611 15.3849 619.801 15.108 618.786 15.108C617.898 15.108 617.12 15.3423 616.453 15.8111C615.792 16.2727 615.277 16.9332 614.908 17.7926C614.539 18.6449 614.354 19.6534 614.354 20.8182C614.354 22.0114 614.535 23.0412 614.897 23.9077C615.26 24.7741 615.771 25.4453 616.431 25.9212C617.099 26.397 617.884 26.6349 618.786 26.6349C619.39 26.6349 619.936 26.5249 620.426 26.3047C620.924 26.0774 621.339 25.7543 621.673 25.3352C622.014 24.9162 622.252 24.4119 622.387 23.8224H625.487C625.373 24.8807 625.029 25.8253 624.453 26.6562C623.878 27.4872 623.108 28.1406 622.142 28.6165C621.183 29.0923 620.057 29.3303 618.765 29.3303ZM630.907 35.1364C630.431 35.1364 629.998 35.0973 629.607 35.0192C629.216 34.9482 628.925 34.87 628.733 34.7848L629.501 32.1747C630.083 32.331 630.601 32.3984 631.056 32.3771C631.51 32.3558 631.912 32.1854 632.26 31.8658C632.615 31.5462 632.927 31.0241 633.197 30.2997L633.591 29.2131L627.604 12.6364H631.013L635.157 25.3352H635.328L639.472 12.6364H642.892L636.148 31.1839C635.836 32.0362 635.438 32.7571 634.955 33.3466C634.472 33.9432 633.897 34.3906 633.229 34.6889C632.562 34.9872 631.787 35.1364 630.907 35.1364Z" fill="#F4F4F5"/>
<path d="M890 30L890 6" stroke="#F4F4F5" stroke-width="4" stroke-linecap="round"/>
<path d="M890 18L658 18" stroke="#F4F4F5" stroke-width="4" stroke-linecap="round"/>
<path d="M16.4148 169.222H13.7557C13.6534 168.653 13.4631 168.153 13.1847 167.722C12.9063 167.29 12.5653 166.923 12.1619 166.622C11.7585 166.321 11.3068 166.094 10.8068 165.94C10.3125 165.787 9.78693 165.71 9.23011 165.71C8.22443 165.71 7.32386 165.963 6.52841 166.469C5.73864 166.974 5.11364 167.716 4.65341 168.693C4.19886 169.67 3.97159 170.864 3.97159 172.273C3.97159 173.693 4.19886 174.892 4.65341 175.869C5.11364 176.847 5.74148 177.585 6.53693 178.085C7.33239 178.585 8.22727 178.835 9.22159 178.835C9.77273 178.835 10.2955 178.761 10.7898 178.614C11.2898 178.46 11.7415 178.236 12.1449 177.94C12.5483 177.645 12.8892 177.284 13.1676 176.858C13.4517 176.426 13.6477 175.932 13.7557 175.375L16.4148 175.384C16.2727 176.241 15.9972 177.031 15.5881 177.753C15.1847 178.469 14.6648 179.088 14.0284 179.611C13.3977 180.128 12.6761 180.528 11.8636 180.812C11.0511 181.097 10.1648 181.239 9.20455 181.239C7.69318 181.239 6.34659 180.881 5.16477 180.165C3.98295 179.443 3.05114 178.412 2.36932 177.071C1.69318 175.73 1.35511 174.131 1.35511 172.273C1.35511 170.409 1.69602 168.81 2.37784 167.474C3.05966 166.134 3.99148 165.105 5.1733 164.389C6.35511 163.668 7.69886 163.307 9.20455 163.307C10.1307 163.307 10.9943 163.44 11.7955 163.707C12.6023 163.969 13.3267 164.355 13.9688 164.866C14.6108 165.372 15.142 165.991 15.5625 166.724C15.983 167.452 16.267 168.284 16.4148 169.222ZM21.9098 163.545V181H19.3615V163.545H21.9098ZM25.3381 181V167.909H27.8864V181H25.3381ZM26.625 165.889C26.1818 165.889 25.8011 165.741 25.483 165.446C25.1705 165.145 25.0142 164.787 25.0142 164.372C25.0142 163.952 25.1705 163.594 25.483 163.298C25.8011 162.997 26.1818 162.847 26.625 162.847C27.0682 162.847 27.446 162.997 27.7585 163.298C28.0767 163.594 28.2358 163.952 28.2358 164.372C28.2358 164.787 28.0767 165.145 27.7585 165.446C27.446 165.741 27.0682 165.889 26.625 165.889ZM36.8288 181.264C35.5618 181.264 34.4709 180.977 33.5561 180.403C32.647 179.824 31.9482 179.026 31.4595 178.009C30.9709 176.991 30.7266 175.827 30.7266 174.514C30.7266 173.185 30.9766 172.011 31.4766 170.994C31.9766 169.972 32.6811 169.173 33.5902 168.599C34.4993 168.026 35.5703 167.739 36.8033 167.739C37.7976 167.739 38.6839 167.923 39.4624 168.293C40.2408 168.656 40.8686 169.168 41.3459 169.827C41.8288 170.486 42.1158 171.256 42.2067 172.136H39.7266C39.5902 171.523 39.2777 170.994 38.7891 170.551C38.3061 170.108 37.6584 169.886 36.8459 169.886C36.1357 169.886 35.5135 170.074 34.9794 170.449C34.451 170.818 34.0391 171.347 33.7436 172.034C33.4482 172.716 33.3004 173.523 33.3004 174.455C33.3004 175.409 33.4453 176.233 33.7351 176.926C34.0249 177.619 34.4339 178.156 34.9624 178.537C35.4964 178.918 36.1243 179.108 36.8459 179.108C37.3288 179.108 37.7663 179.02 38.1584 178.844C38.5561 178.662 38.8885 178.403 39.1555 178.068C39.4283 177.733 39.6186 177.33 39.7266 176.858H42.2067C42.1158 177.705 41.8402 178.46 41.38 179.125C40.9197 179.79 40.3033 180.312 39.5305 180.693C38.7635 181.074 37.8629 181.264 36.8288 181.264ZM47.2756 176.56L47.2585 173.449H47.7017L52.9176 167.909H55.9688L50.0199 174.216H49.6193L47.2756 176.56ZM44.9318 181V163.545H47.4801V181H44.9318ZM53.1989 181L48.5114 174.778L50.267 172.997L56.3267 181H53.1989ZM61.6065 178.614L61.4787 179.543C61.3935 180.224 61.2486 180.935 61.044 181.673C60.8452 182.418 60.6378 183.108 60.4219 183.744C60.2116 184.381 60.0384 184.886 59.902 185.261H58.0952C58.169 184.909 58.2713 184.432 58.402 183.83C58.5327 183.233 58.6605 182.565 58.7855 181.827C58.9105 181.088 59.0043 180.335 59.0668 179.568L59.152 178.614H61.6065ZM77.3864 167.909V169.955H70.2358V167.909H77.3864ZM72.1534 164.773H74.7017V177.156C74.7017 177.651 74.7756 178.023 74.9233 178.273C75.071 178.517 75.2614 178.685 75.4943 178.776C75.733 178.861 75.9915 178.903 76.2699 178.903C76.4744 178.903 76.6534 178.889 76.8068 178.861C76.9602 178.832 77.0795 178.81 77.1648 178.793L77.625 180.898C77.4773 180.955 77.267 181.011 76.9943 181.068C76.7216 181.131 76.3807 181.165 75.9716 181.17C75.3011 181.182 74.6761 181.062 74.0966 180.812C73.517 180.562 73.0483 180.176 72.6903 179.653C72.3324 179.131 72.1534 178.474 72.1534 177.685V164.773ZM84.0149 181.29C83.1854 181.29 82.4354 181.136 81.7649 180.83C81.0945 180.517 80.5632 180.065 80.1712 179.474C79.7848 178.884 79.5916 178.159 79.5916 177.301C79.5916 176.562 79.7337 175.955 80.0178 175.477C80.3018 175 80.6854 174.622 81.1683 174.344C81.6513 174.065 82.1911 173.855 82.7876 173.713C83.3842 173.571 83.9922 173.463 84.6115 173.389C85.3956 173.298 86.032 173.224 86.5206 173.168C87.0092 173.105 87.3643 173.006 87.5859 172.869C87.8075 172.733 87.9183 172.511 87.9183 172.205V172.145C87.9183 171.401 87.7081 170.824 87.2876 170.415C86.8729 170.006 86.2536 169.801 85.4297 169.801C84.5717 169.801 83.8956 169.991 83.4013 170.372C82.9126 170.747 82.5746 171.165 82.3871 171.625L79.9922 171.08C80.2763 170.284 80.6911 169.642 81.2365 169.153C81.7876 168.659 82.4212 168.301 83.1371 168.08C83.853 167.852 84.6058 167.739 85.3956 167.739C85.9183 167.739 86.4723 167.801 87.0575 167.926C87.6484 168.045 88.1996 168.267 88.7109 168.591C89.228 168.915 89.6513 169.378 89.9808 169.98C90.3104 170.577 90.4751 171.352 90.4751 172.307V181H87.9865V179.21H87.8842C87.7195 179.54 87.4723 179.864 87.1428 180.182C86.8132 180.5 86.3899 180.764 85.8729 180.974C85.3558 181.185 84.7365 181.29 84.0149 181.29ZM84.5689 179.244C85.2734 179.244 85.8757 179.105 86.3757 178.827C86.8814 178.548 87.2649 178.185 87.5263 177.736C87.7933 177.281 87.9268 176.795 87.9268 176.278V174.591C87.8359 174.682 87.6598 174.767 87.3984 174.847C87.1428 174.92 86.8501 174.986 86.5206 175.043C86.1911 175.094 85.87 175.142 85.5575 175.188C85.245 175.227 84.9837 175.261 84.7734 175.29C84.2791 175.352 83.8274 175.457 83.4183 175.605C83.0149 175.753 82.6911 175.966 82.4467 176.244C82.2081 176.517 82.0888 176.881 82.0888 177.335C82.0888 177.966 82.3217 178.443 82.7876 178.767C83.2536 179.085 83.8473 179.244 84.5689 179.244ZM93.8693 185.909V167.909H96.358V170.031H96.571C96.7188 169.759 96.9318 169.443 97.2102 169.085C97.4886 168.727 97.875 168.415 98.3693 168.148C98.8636 167.875 99.517 167.739 100.33 167.739C101.386 167.739 102.33 168.006 103.159 168.54C103.989 169.074 104.639 169.844 105.111 170.849C105.588 171.855 105.827 173.065 105.827 174.48C105.827 175.895 105.591 177.108 105.119 178.119C104.648 179.125 104 179.901 103.176 180.446C102.352 180.986 101.412 181.256 100.355 181.256C99.5597 181.256 98.9091 181.122 98.4034 180.855C97.9034 180.588 97.5114 180.276 97.2273 179.918C96.9432 179.56 96.7244 179.241 96.571 178.963H96.4176V185.909H93.8693ZM96.3665 174.455C96.3665 175.375 96.5 176.182 96.767 176.875C97.0341 177.568 97.4205 178.111 97.9261 178.503C98.4318 178.889 99.0511 179.082 99.7841 179.082C100.545 179.082 101.182 178.881 101.693 178.477C102.205 178.068 102.591 177.514 102.852 176.815C103.119 176.116 103.253 175.33 103.253 174.455C103.253 173.591 103.122 172.815 102.861 172.128C102.605 171.44 102.219 170.898 101.702 170.5C101.19 170.102 100.551 169.903 99.7841 169.903C99.0455 169.903 98.4205 170.094 97.9091 170.474C97.4034 170.855 97.0199 171.386 96.7585 172.068C96.4972 172.75 96.3665 173.545 96.3665 174.455ZM111.997 178.614L111.869 179.543C111.784 180.224 111.639 180.935 111.435 181.673C111.236 182.418 111.028 183.108 110.812 183.744C110.602 184.381 110.429 184.886 110.293 185.261H108.486C108.56 184.909 108.662 184.432 108.793 183.83C108.923 183.233 109.051 182.565 109.176 181.827C109.301 181.088 109.395 180.335 109.457 179.568L109.543 178.614H111.997ZM127.18 181.264C125.953 181.264 124.882 180.983 123.967 180.42C123.053 179.858 122.342 179.071 121.837 178.06C121.331 177.048 121.078 175.866 121.078 174.514C121.078 173.156 121.331 171.969 121.837 170.952C122.342 169.935 123.053 169.145 123.967 168.582C124.882 168.02 125.953 167.739 127.18 167.739C128.408 167.739 129.479 168.02 130.393 168.582C131.308 169.145 132.018 169.935 132.524 170.952C133.03 171.969 133.283 173.156 133.283 174.514C133.283 175.866 133.03 177.048 132.524 178.06C132.018 179.071 131.308 179.858 130.393 180.42C129.479 180.983 128.408 181.264 127.18 181.264ZM127.189 179.125C127.984 179.125 128.643 178.915 129.166 178.494C129.689 178.074 130.075 177.514 130.325 176.815C130.581 176.116 130.709 175.347 130.709 174.506C130.709 173.67 130.581 172.903 130.325 172.205C130.075 171.5 129.689 170.935 129.166 170.509C128.643 170.082 127.984 169.869 127.189 169.869C126.388 169.869 125.723 170.082 125.195 170.509C124.672 170.935 124.283 171.5 124.027 172.205C123.777 172.903 123.652 173.67 123.652 174.506C123.652 175.347 123.777 176.116 124.027 176.815C124.283 177.514 124.672 178.074 125.195 178.494C125.723 178.915 126.388 179.125 127.189 179.125ZM136.127 181V167.909H138.59V169.989H138.727C138.965 169.284 139.386 168.73 139.988 168.327C140.596 167.918 141.283 167.713 142.05 167.713C142.21 167.713 142.397 167.719 142.613 167.73C142.835 167.741 143.008 167.756 143.133 167.773V170.21C143.031 170.182 142.849 170.151 142.587 170.116C142.326 170.077 142.065 170.057 141.803 170.057C141.201 170.057 140.664 170.185 140.192 170.44C139.727 170.69 139.357 171.04 139.085 171.489C138.812 171.932 138.675 172.437 138.675 173.006V181H136.127ZM154.033 176.56L154.016 173.449H154.46L159.675 167.909H162.727L156.778 174.216H156.377L154.033 176.56ZM151.69 181V163.545H154.238V181H151.69ZM159.957 181L155.269 174.778L157.025 172.997L163.085 181H159.957ZM170.152 181.264C168.862 181.264 167.751 180.989 166.82 180.438C165.893 179.881 165.178 179.099 164.672 178.094C164.172 177.082 163.922 175.898 163.922 174.54C163.922 173.199 164.172 172.017 164.672 170.994C165.178 169.972 165.882 169.173 166.786 168.599C167.695 168.026 168.757 167.739 169.973 167.739C170.712 167.739 171.428 167.861 172.121 168.105C172.814 168.349 173.436 168.733 173.987 169.256C174.538 169.778 174.973 170.457 175.291 171.293C175.609 172.122 175.768 173.131 175.768 174.318V175.222H165.362V173.312H173.271C173.271 172.642 173.135 172.048 172.862 171.531C172.589 171.009 172.206 170.597 171.712 170.295C171.223 169.994 170.649 169.844 169.99 169.844C169.274 169.844 168.649 170.02 168.115 170.372C167.587 170.719 167.178 171.173 166.888 171.736C166.604 172.293 166.462 172.898 166.462 173.551V175.043C166.462 175.918 166.615 176.662 166.922 177.276C167.234 177.889 167.669 178.358 168.226 178.682C168.783 179 169.433 179.159 170.178 179.159C170.661 179.159 171.101 179.091 171.499 178.955C171.896 178.812 172.24 178.602 172.53 178.324C172.82 178.045 173.041 177.702 173.195 177.293L175.607 177.727C175.413 178.437 175.067 179.06 174.567 179.594C174.072 180.122 173.45 180.534 172.7 180.83C171.956 181.119 171.107 181.264 170.152 181.264ZM179.832 185.909C179.451 185.909 179.104 185.878 178.792 185.815C178.479 185.759 178.246 185.696 178.093 185.628L178.707 183.54C179.173 183.665 179.587 183.719 179.951 183.702C180.315 183.685 180.636 183.548 180.914 183.293C181.198 183.037 181.448 182.619 181.664 182.04L181.979 181.17L177.19 167.909H179.917L183.232 178.068H183.369L186.684 167.909H189.42L184.025 182.747C183.775 183.429 183.457 184.006 183.07 184.477C182.684 184.955 182.224 185.313 181.69 185.551C181.156 185.79 180.536 185.909 179.832 185.909ZM198.166 185.909V167.909H200.655V170.031H200.868C201.016 169.759 201.229 169.443 201.507 169.085C201.786 168.727 202.172 168.415 202.666 168.148C203.161 167.875 203.814 167.739 204.626 167.739C205.683 167.739 206.626 168.006 207.456 168.54C208.286 169.074 208.936 169.844 209.408 170.849C209.885 171.855 210.124 173.065 210.124 174.48C210.124 175.895 209.888 177.108 209.416 178.119C208.945 179.125 208.297 179.901 207.473 180.446C206.649 180.986 205.709 181.256 204.652 181.256C203.857 181.256 203.206 181.122 202.7 180.855C202.2 180.588 201.808 180.276 201.524 179.918C201.24 179.56 201.021 179.241 200.868 178.963H200.714V185.909H198.166ZM200.663 174.455C200.663 175.375 200.797 176.182 201.064 176.875C201.331 177.568 201.717 178.111 202.223 178.503C202.729 178.889 203.348 179.082 204.081 179.082C204.842 179.082 205.479 178.881 205.99 178.477C206.501 178.068 206.888 177.514 207.149 176.815C207.416 176.116 207.55 175.33 207.55 174.455C207.55 173.591 207.419 172.815 207.158 172.128C206.902 171.44 206.516 170.898 205.999 170.5C205.487 170.102 204.848 169.903 204.081 169.903C203.342 169.903 202.717 170.094 202.206 170.474C201.7 170.855 201.317 171.386 201.055 172.068C200.794 172.75 200.663 173.545 200.663 174.455ZM212.979 181V167.909H215.442V169.989H215.578C215.817 169.284 216.237 168.73 216.839 168.327C217.447 167.918 218.135 167.713 218.902 167.713C219.061 167.713 219.249 167.719 219.464 167.73C219.686 167.741 219.859 167.756 219.984 167.773V170.21C219.882 170.182 219.7 170.151 219.439 170.116C219.178 170.077 218.916 170.057 218.655 170.057C218.053 170.057 217.516 170.185 217.044 170.44C216.578 170.69 216.209 171.04 215.936 171.489C215.663 171.932 215.527 172.437 215.527 173.006V181H212.979ZM227.363 181.264C226.073 181.264 224.962 180.989 224.031 180.438C223.104 179.881 222.388 179.099 221.883 178.094C221.383 177.082 221.133 175.898 221.133 174.54C221.133 173.199 221.383 172.017 221.883 170.994C222.388 169.972 223.093 169.173 223.996 168.599C224.906 168.026 225.968 167.739 227.184 167.739C227.923 167.739 228.638 167.861 229.332 168.105C230.025 168.349 230.647 168.733 231.198 169.256C231.749 169.778 232.184 170.457 232.502 171.293C232.82 172.122 232.979 173.131 232.979 174.318V175.222H222.573V173.312H230.482C230.482 172.642 230.346 172.048 230.073 171.531C229.8 171.009 229.417 170.597 228.923 170.295C228.434 169.994 227.86 169.844 227.201 169.844C226.485 169.844 225.86 170.02 225.326 170.372C224.798 170.719 224.388 171.173 224.099 171.736C223.815 172.293 223.673 172.898 223.673 173.551V175.043C223.673 175.918 223.826 176.662 224.133 177.276C224.445 177.889 224.88 178.358 225.437 178.682C225.994 179 226.644 179.159 227.388 179.159C227.871 179.159 228.312 179.091 228.71 178.955C229.107 178.812 229.451 178.602 229.741 178.324C230.031 178.045 230.252 177.702 230.406 177.293L232.817 177.727C232.624 178.437 232.278 179.06 231.778 179.594C231.283 180.122 230.661 180.534 229.911 180.83C229.167 181.119 228.317 181.264 227.363 181.264ZM245.616 171.105L243.307 171.514C243.21 171.219 243.057 170.937 242.847 170.67C242.642 170.403 242.364 170.185 242.011 170.014C241.659 169.844 241.219 169.759 240.69 169.759C239.969 169.759 239.366 169.92 238.884 170.244C238.401 170.562 238.159 170.974 238.159 171.48C238.159 171.918 238.321 172.27 238.645 172.537C238.969 172.804 239.491 173.023 240.213 173.193L242.293 173.67C243.497 173.949 244.395 174.378 244.986 174.957C245.577 175.537 245.872 176.29 245.872 177.216C245.872 178 245.645 178.699 245.19 179.312C244.741 179.92 244.114 180.398 243.307 180.744C242.506 181.091 241.577 181.264 240.52 181.264C239.054 181.264 237.858 180.952 236.932 180.327C236.006 179.696 235.438 178.801 235.227 177.642L237.69 177.267C237.844 177.909 238.159 178.395 238.636 178.724C239.114 179.048 239.736 179.21 240.503 179.21C241.338 179.21 242.006 179.037 242.506 178.69C243.006 178.338 243.256 177.909 243.256 177.403C243.256 176.994 243.102 176.651 242.795 176.372C242.494 176.094 242.031 175.884 241.406 175.741L239.19 175.256C237.969 174.977 237.065 174.534 236.48 173.926C235.901 173.318 235.611 172.548 235.611 171.616C235.611 170.844 235.827 170.168 236.259 169.588C236.69 169.009 237.287 168.557 238.048 168.233C238.81 167.903 239.682 167.739 240.665 167.739C242.08 167.739 243.193 168.045 244.006 168.659C244.818 169.267 245.355 170.082 245.616 171.105ZM258.484 171.105L256.174 171.514C256.077 171.219 255.924 170.937 255.714 170.67C255.509 170.403 255.231 170.185 254.879 170.014C254.526 169.844 254.086 169.759 253.558 169.759C252.836 169.759 252.234 169.92 251.751 170.244C251.268 170.562 251.026 170.974 251.026 171.48C251.026 171.918 251.188 172.27 251.512 172.537C251.836 172.804 252.359 173.023 253.08 173.193L255.16 173.67C256.364 173.949 257.262 174.378 257.853 174.957C258.444 175.537 258.739 176.29 258.739 177.216C258.739 178 258.512 178.699 258.058 179.312C257.609 179.92 256.981 180.398 256.174 180.744C255.373 181.091 254.444 181.264 253.387 181.264C251.921 181.264 250.725 180.952 249.799 180.327C248.873 179.696 248.305 178.801 248.094 177.642L250.558 177.267C250.711 177.909 251.026 178.395 251.504 178.724C251.981 179.048 252.603 179.21 253.37 179.21C254.205 179.21 254.873 179.037 255.373 178.69C255.873 178.338 256.123 177.909 256.123 177.403C256.123 176.994 255.969 176.651 255.663 176.372C255.362 176.094 254.898 175.884 254.273 175.741L252.058 175.256C250.836 174.977 249.933 174.534 249.347 173.926C248.768 173.318 248.478 172.548 248.478 171.616C248.478 170.844 248.694 170.168 249.126 169.588C249.558 169.009 250.154 168.557 250.915 168.233C251.677 167.903 252.549 167.739 253.532 167.739C254.947 167.739 256.06 168.045 256.873 168.659C257.685 169.267 258.222 170.082 258.484 171.105Z" fill="#D4D4D8"/>
<path d="M814.443 163.545L819.301 177.761H819.497L824.355 163.545H827.202L820.92 181H817.878L811.597 163.545H814.443ZM829.518 181V167.909H832.066V181H829.518ZM830.805 165.889C830.362 165.889 829.981 165.741 829.663 165.446C829.35 165.145 829.194 164.787 829.194 164.372C829.194 163.952 829.35 163.594 829.663 163.298C829.981 162.997 830.362 162.847 830.805 162.847C831.248 162.847 831.626 162.997 831.938 163.298C832.256 163.594 832.415 163.952 832.415 164.372C832.415 164.787 832.256 165.145 831.938 165.446C831.626 165.741 831.248 165.889 830.805 165.889ZM845.304 171.105L842.994 171.514C842.898 171.219 842.744 170.937 842.534 170.67C842.33 170.403 842.051 170.185 841.699 170.014C841.347 169.844 840.906 169.759 840.378 169.759C839.656 169.759 839.054 169.92 838.571 170.244C838.088 170.562 837.847 170.974 837.847 171.48C837.847 171.918 838.009 172.27 838.332 172.537C838.656 172.804 839.179 173.023 839.901 173.193L841.98 173.67C843.185 173.949 844.082 174.378 844.673 174.957C845.264 175.537 845.56 176.29 845.56 177.216C845.56 178 845.332 178.699 844.878 179.312C844.429 179.92 843.801 180.398 842.994 180.744C842.193 181.091 841.264 181.264 840.207 181.264C838.741 181.264 837.545 180.952 836.619 180.327C835.693 179.696 835.125 178.801 834.915 177.642L837.378 177.267C837.531 177.909 837.847 178.395 838.324 178.724C838.801 179.048 839.423 179.21 840.19 179.21C841.026 179.21 841.693 179.037 842.193 178.69C842.693 178.338 842.943 177.909 842.943 177.403C842.943 176.994 842.79 176.651 842.483 176.372C842.182 176.094 841.719 175.884 841.094 175.741L838.878 175.256C837.656 174.977 836.753 174.534 836.168 173.926C835.588 173.318 835.298 172.548 835.298 171.616C835.298 170.844 835.514 170.168 835.946 169.588C836.378 169.009 836.974 168.557 837.736 168.233C838.497 167.903 839.369 167.739 840.352 167.739C841.767 167.739 842.881 168.045 843.693 168.659C844.506 169.267 845.043 170.082 845.304 171.105ZM856.654 175.571V167.909H859.211V181H856.705V178.733H856.569C856.268 179.432 855.785 180.014 855.12 180.48C854.461 180.94 853.64 181.17 852.657 181.17C851.816 181.17 851.072 180.986 850.424 180.616C849.782 180.241 849.276 179.688 848.907 178.955C848.543 178.222 848.362 177.315 848.362 176.236V167.909H850.91V175.929C850.91 176.821 851.157 177.531 851.651 178.06C852.146 178.588 852.788 178.852 853.577 178.852C854.055 178.852 854.529 178.733 855.001 178.494C855.478 178.256 855.873 177.895 856.185 177.412C856.504 176.929 856.66 176.315 856.654 175.571ZM866.445 181.29C865.615 181.29 864.865 181.136 864.195 180.83C863.524 180.517 862.993 180.065 862.601 179.474C862.214 178.884 862.021 178.159 862.021 177.301C862.021 176.562 862.163 175.955 862.447 175.477C862.732 175 863.115 174.622 863.598 174.344C864.081 174.065 864.621 173.855 865.217 173.713C865.814 173.571 866.422 173.463 867.041 173.389C867.825 173.298 868.462 173.224 868.95 173.168C869.439 173.105 869.794 173.006 870.016 172.869C870.237 172.733 870.348 172.511 870.348 172.205V172.145C870.348 171.401 870.138 170.824 869.717 170.415C869.303 170.006 868.683 169.801 867.859 169.801C867.001 169.801 866.325 169.991 865.831 170.372C865.342 170.747 865.004 171.165 864.817 171.625L862.422 171.08C862.706 170.284 863.121 169.642 863.666 169.153C864.217 168.659 864.851 168.301 865.567 168.08C866.283 167.852 867.036 167.739 867.825 167.739C868.348 167.739 868.902 167.801 869.487 167.926C870.078 168.045 870.629 168.267 871.141 168.591C871.658 168.915 872.081 169.378 872.411 169.98C872.74 170.577 872.905 171.352 872.905 172.307V181H870.416V179.21H870.314C870.149 179.54 869.902 179.864 869.572 180.182C869.243 180.5 868.82 180.764 868.303 180.974C867.786 181.185 867.166 181.29 866.445 181.29ZM866.999 179.244C867.703 179.244 868.305 179.105 868.805 178.827C869.311 178.548 869.695 178.185 869.956 177.736C870.223 177.281 870.357 176.795 870.357 176.278V174.591C870.266 174.682 870.089 174.767 869.828 174.847C869.572 174.92 869.28 174.986 868.95 175.043C868.621 175.094 868.3 175.142 867.987 175.188C867.675 175.227 867.413 175.261 867.203 175.29C866.709 175.352 866.257 175.457 865.848 175.605C865.445 175.753 865.121 175.966 864.876 176.244C864.638 176.517 864.518 176.881 864.518 177.335C864.518 177.966 864.751 178.443 865.217 178.767C865.683 179.085 866.277 179.244 866.999 179.244ZM878.847 163.545V181H876.299V163.545H878.847ZM896.92 175.571V167.909H899.477V181H896.971V178.733H896.835C896.533 179.432 896.05 180.014 895.386 180.48C894.727 180.94 893.906 181.17 892.923 181.17C892.082 181.17 891.337 180.986 890.69 180.616C890.048 180.241 889.542 179.688 889.173 178.955C888.809 178.222 888.627 177.315 888.627 176.236V167.909H891.175V175.929C891.175 176.821 891.423 177.531 891.917 178.06C892.411 178.588 893.053 178.852 893.843 178.852C894.32 178.852 894.795 178.733 895.266 178.494C895.744 178.256 896.138 177.895 896.451 177.412C896.769 176.929 896.925 176.315 896.92 175.571ZM902.901 185.909V167.909H905.389V170.031H905.602C905.75 169.759 905.963 169.443 906.241 169.085C906.52 168.727 906.906 168.415 907.401 168.148C907.895 167.875 908.548 167.739 909.361 167.739C910.418 167.739 911.361 168.006 912.19 168.54C913.02 169.074 913.67 169.844 914.142 170.849C914.619 171.855 914.858 173.065 914.858 174.48C914.858 175.895 914.622 177.108 914.151 178.119C913.679 179.125 913.031 179.901 912.207 180.446C911.384 180.986 910.443 181.256 909.386 181.256C908.591 181.256 907.94 181.122 907.435 180.855C906.935 180.588 906.543 180.276 906.259 179.918C905.974 179.56 905.756 179.241 905.602 178.963H905.449V185.909H902.901ZM905.398 174.455C905.398 175.375 905.531 176.182 905.798 176.875C906.065 177.568 906.452 178.111 906.957 178.503C907.463 178.889 908.082 179.082 908.815 179.082C909.577 179.082 910.213 178.881 910.724 178.477C911.236 178.068 911.622 177.514 911.884 176.815C912.151 176.116 912.284 175.33 912.284 174.455C912.284 173.591 912.153 172.815 911.892 172.128C911.636 171.44 911.25 170.898 910.733 170.5C910.222 170.102 909.582 169.903 908.815 169.903C908.077 169.903 907.452 170.094 906.94 170.474C906.435 170.855 906.051 171.386 905.79 172.068C905.528 172.75 905.398 173.545 905.398 174.455ZM922.614 181.256C921.557 181.256 920.614 180.986 919.784 180.446C918.96 179.901 918.313 179.125 917.841 178.119C917.375 177.108 917.142 175.895 917.142 174.48C917.142 173.065 917.378 171.855 917.849 170.849C918.327 169.844 918.98 169.074 919.81 168.54C920.639 168.006 921.58 167.739 922.631 167.739C923.443 167.739 924.097 167.875 924.591 168.148C925.091 168.415 925.477 168.727 925.75 169.085C926.028 169.443 926.244 169.759 926.398 170.031H926.551V163.545H929.099V181H926.611V178.963H926.398C926.244 179.241 926.023 179.56 925.733 179.918C925.449 180.276 925.057 180.588 924.557 180.855C924.057 181.122 923.409 181.256 922.614 181.256ZM923.176 179.082C923.909 179.082 924.528 178.889 925.034 178.503C925.545 178.111 925.932 177.568 926.193 176.875C926.46 176.182 926.594 175.375 926.594 174.455C926.594 173.545 926.463 172.75 926.202 172.068C925.94 171.386 925.557 170.855 925.051 170.474C924.545 170.094 923.92 169.903 923.176 169.903C922.409 169.903 921.77 170.102 921.259 170.5C920.747 170.898 920.361 171.44 920.099 172.128C919.844 172.815 919.716 173.591 919.716 174.455C919.716 175.33 919.847 176.116 920.108 176.815C920.369 177.514 920.756 178.068 921.267 178.477C921.784 178.881 922.42 179.082 923.176 179.082ZM936.546 181.29C935.717 181.29 934.967 181.136 934.296 180.83C933.626 180.517 933.094 180.065 932.702 179.474C932.316 178.884 932.123 178.159 932.123 177.301C932.123 176.562 932.265 175.955 932.549 175.477C932.833 175 933.217 174.622 933.7 174.344C934.183 174.065 934.722 173.855 935.319 173.713C935.915 173.571 936.523 173.463 937.143 173.389C937.927 173.298 938.563 173.224 939.052 173.168C939.54 173.105 939.896 173.006 940.117 172.869C940.339 172.733 940.45 172.511 940.45 172.205V172.145C940.45 171.401 940.239 170.824 939.819 170.415C939.404 170.006 938.785 169.801 937.961 169.801C937.103 169.801 936.427 169.991 935.933 170.372C935.444 170.747 935.106 171.165 934.918 171.625L932.523 171.08C932.808 170.284 933.222 169.642 933.768 169.153C934.319 168.659 934.952 168.301 935.668 168.08C936.384 167.852 937.137 167.739 937.927 167.739C938.45 167.739 939.004 167.801 939.589 167.926C940.18 168.045 940.731 168.267 941.242 168.591C941.759 168.915 942.183 169.378 942.512 169.98C942.842 170.577 943.006 171.352 943.006 172.307V181H940.518V179.21H940.415C940.251 179.54 940.004 179.864 939.674 180.182C939.344 180.5 938.921 180.764 938.404 180.974C937.887 181.185 937.268 181.29 936.546 181.29ZM937.1 179.244C937.805 179.244 938.407 179.105 938.907 178.827C939.413 178.548 939.796 178.185 940.058 177.736C940.325 177.281 940.458 176.795 940.458 176.278V174.591C940.367 174.682 940.191 174.767 939.93 174.847C939.674 174.92 939.381 174.986 939.052 175.043C938.722 175.094 938.401 175.142 938.089 175.188C937.776 175.227 937.515 175.261 937.305 175.29C936.81 175.352 936.359 175.457 935.95 175.605C935.546 175.753 935.222 175.966 934.978 176.244C934.739 176.517 934.62 176.881 934.62 177.335C934.62 177.966 934.853 178.443 935.319 178.767C935.785 179.085 936.379 179.244 937.1 179.244ZM952.511 167.909V169.955H945.361V167.909H952.511ZM947.278 164.773H949.827V177.156C949.827 177.651 949.901 178.023 950.048 178.273C950.196 178.517 950.386 178.685 950.619 178.776C950.858 178.861 951.116 178.903 951.395 178.903C951.599 178.903 951.778 178.889 951.932 178.861C952.085 178.832 952.205 178.81 952.29 178.793L952.75 180.898C952.602 180.955 952.392 181.011 952.119 181.068C951.847 181.131 951.506 181.165 951.097 181.17C950.426 181.182 949.801 181.062 949.222 180.812C948.642 180.562 948.173 180.176 947.815 179.653C947.457 179.131 947.278 178.474 947.278 177.685V164.773ZM960.832 181.264C959.542 181.264 958.431 180.989 957.499 180.438C956.573 179.881 955.857 179.099 955.352 178.094C954.852 177.082 954.602 175.898 954.602 174.54C954.602 173.199 954.852 172.017 955.352 170.994C955.857 169.972 956.562 169.173 957.465 168.599C958.374 168.026 959.437 167.739 960.653 167.739C961.391 167.739 962.107 167.861 962.8 168.105C963.494 168.349 964.116 168.733 964.667 169.256C965.218 169.778 965.653 170.457 965.971 171.293C966.289 172.122 966.448 173.131 966.448 174.318V175.222H956.042V173.312H963.951C963.951 172.642 963.815 172.048 963.542 171.531C963.269 171.009 962.886 170.597 962.391 170.295C961.903 169.994 961.329 169.844 960.67 169.844C959.954 169.844 959.329 170.02 958.795 170.372C958.266 170.719 957.857 171.173 957.567 171.736C957.283 172.293 957.141 172.898 957.141 173.551V175.043C957.141 175.918 957.295 176.662 957.602 177.276C957.914 177.889 958.349 178.358 958.906 178.682C959.462 179 960.113 179.159 960.857 179.159C961.34 179.159 961.781 179.091 962.178 178.955C962.576 178.812 962.92 178.602 963.21 178.324C963.499 178.045 963.721 177.702 963.874 177.293L966.286 177.727C966.093 178.437 965.746 179.06 965.246 179.594C964.752 180.122 964.13 180.534 963.38 180.83C962.636 181.119 961.786 181.264 960.832 181.264Z" fill="#D4D4D8"/>
<defs>
<filter id="filter0_f_413_1324" x="53" y="24" width="155" height="155" filterUnits="userSpaceOnUse" color-interpolation-filters="sRGB">
<feFlood flood-opacity="0" result="BackgroundImageFix"/>
<feBlend mode="normal" in="SourceGraphic" in2="BackgroundImageFix" result="shape"/>
<feGaussianBlur stdDeviation="25" result="effect1_foregroundBlur_413_1324"/>
</filter>
<filter id="filter1_f_413_1324" x="813" y="24" width="155" height="155" filterUnits="userSpaceOnUse" color-interpolation-filters="sRGB">
<feFlood flood-opacity="0" result="BackgroundImageFix"/>
<feBlend mode="normal" in="SourceGraphic" in2="BackgroundImageFix" result="shape"/>
<feGaussianBlur stdDeviation="25" result="effect1_foregroundBlur_413_1324"/>
</filter>
</defs>
</svg>
