<svg width="1005" height="175" viewBox="0 0 1005 175" fill="none" xmlns="http://www.w3.org/2000/svg">
<path d="M16.4148 156.222H13.7557C13.6534 155.653 13.4631 155.153 13.1847 154.722C12.9063 154.29 12.5653 153.923 12.1619 153.622C11.7585 153.321 11.3068 153.094 10.8068 152.94C10.3125 152.787 9.78693 152.71 9.23011 152.71C8.22443 152.71 7.32386 152.963 6.52841 153.469C5.73864 153.974 5.11364 154.716 4.65341 155.693C4.19886 156.67 3.97159 157.864 3.97159 159.273C3.97159 160.693 4.19886 161.892 4.65341 162.869C5.11364 163.847 5.74148 164.585 6.53693 165.085C7.33239 165.585 8.22727 165.835 9.22159 165.835C9.77273 165.835 10.2955 165.761 10.7898 165.614C11.2898 165.46 11.7415 165.236 12.1449 164.94C12.5483 164.645 12.8892 164.284 13.1676 163.858C13.4517 163.426 13.6477 162.932 13.7557 162.375L16.4148 162.384C16.2727 163.241 15.9972 164.031 15.5881 164.753C15.1847 165.469 14.6648 166.088 14.0284 166.611C13.3977 167.128 12.6761 167.528 11.8636 167.812C11.0511 168.097 10.1648 168.239 9.20455 168.239C7.69318 168.239 6.34659 167.881 5.16477 167.165C3.98295 166.443 3.05114 165.412 2.36932 164.071C1.69318 162.73 1.35511 161.131 1.35511 159.273C1.35511 157.409 1.69602 155.81 2.37784 154.474C3.05966 153.134 3.99148 152.105 5.1733 151.389C6.35511 150.668 7.69886 150.307 9.20455 150.307C10.1307 150.307 10.9943 150.44 11.7955 150.707C12.6023 150.969 13.3267 151.355 13.9688 151.866C14.6108 152.372 15.142 152.991 15.5625 153.724C15.983 154.452 16.267 155.284 16.4148 156.222ZM21.9098 150.545V168H19.3615V150.545H21.9098ZM25.3381 168V154.909H27.8864V168H25.3381ZM26.625 152.889C26.1818 152.889 25.8011 152.741 25.483 152.446C25.1705 152.145 25.0142 151.787 25.0142 151.372C25.0142 150.952 25.1705 150.594 25.483 150.298C25.8011 149.997 26.1818 149.847 26.625 149.847C27.0682 149.847 27.446 149.997 27.7585 150.298C28.0767 150.594 28.2358 150.952 28.2358 151.372C28.2358 151.787 28.0767 152.145 27.7585 152.446C27.446 152.741 27.0682 152.889 26.625 152.889ZM36.8288 168.264C35.5618 168.264 34.4709 167.977 33.5561 167.403C32.647 166.824 31.9482 166.026 31.4595 165.009C30.9709 163.991 30.7266 162.827 30.7266 161.514C30.7266 160.185 30.9766 159.011 31.4766 157.994C31.9766 156.972 32.6811 156.173 33.5902 155.599C34.4993 155.026 35.5703 154.739 36.8033 154.739C37.7976 154.739 38.6839 154.923 39.4624 155.293C40.2408 155.656 40.8686 156.168 41.3459 156.827C41.8288 157.486 42.1158 158.256 42.2067 159.136H39.7266C39.5902 158.523 39.2777 157.994 38.7891 157.551C38.3061 157.108 37.6584 156.886 36.8459 156.886C36.1357 156.886 35.5135 157.074 34.9794 157.449C34.451 157.818 34.0391 158.347 33.7436 159.034C33.4482 159.716 33.3004 160.523 33.3004 161.455C33.3004 162.409 33.4453 163.233 33.7351 163.926C34.0249 164.619 34.4339 165.156 34.9624 165.537C35.4964 165.918 36.1243 166.108 36.8459 166.108C37.3288 166.108 37.7663 166.02 38.1584 165.844C38.5561 165.662 38.8885 165.403 39.1555 165.068C39.4283 164.733 39.6186 164.33 39.7266 163.858H42.2067C42.1158 164.705 41.8402 165.46 41.38 166.125C40.9197 166.79 40.3033 167.312 39.5305 167.693C38.7635 168.074 37.8629 168.264 36.8288 168.264ZM47.2756 163.56L47.2585 160.449H47.7017L52.9176 154.909H55.9688L50.0199 161.216H49.6193L47.2756 163.56ZM44.9318 168V150.545H47.4801V168H44.9318ZM53.1989 168L48.5114 161.778L50.267 159.997L56.3267 168H53.1989ZM61.6065 165.614L61.4787 166.543C61.3935 167.224 61.2486 167.935 61.044 168.673C60.8452 169.418 60.6378 170.108 60.4219 170.744C60.2116 171.381 60.0384 171.886 59.902 172.261H58.0952C58.169 171.909 58.2713 171.432 58.402 170.83C58.5327 170.233 58.6605 169.565 58.7855 168.827C58.9105 168.088 59.0043 167.335 59.0668 166.568L59.152 165.614H61.6065ZM77.3864 154.909V156.955H70.2358V154.909H77.3864ZM72.1534 151.773H74.7017V164.156C74.7017 164.651 74.7756 165.023 74.9233 165.273C75.071 165.517 75.2614 165.685 75.4943 165.776C75.733 165.861 75.9915 165.903 76.2699 165.903C76.4744 165.903 76.6534 165.889 76.8068 165.861C76.9602 165.832 77.0795 165.81 77.1648 165.793L77.625 167.898C77.4773 167.955 77.267 168.011 76.9943 168.068C76.7216 168.131 76.3807 168.165 75.9716 168.17C75.3011 168.182 74.6761 168.062 74.0966 167.812C73.517 167.562 73.0483 167.176 72.6903 166.653C72.3324 166.131 72.1534 165.474 72.1534 164.685V151.773ZM84.0149 168.29C83.1854 168.29 82.4354 168.136 81.7649 167.83C81.0945 167.517 80.5632 167.065 80.1712 166.474C79.7848 165.884 79.5916 165.159 79.5916 164.301C79.5916 163.562 79.7337 162.955 80.0178 162.477C80.3018 162 80.6854 161.622 81.1683 161.344C81.6513 161.065 82.1911 160.855 82.7876 160.713C83.3842 160.571 83.9922 160.463 84.6115 160.389C85.3956 160.298 86.032 160.224 86.5206 160.168C87.0092 160.105 87.3643 160.006 87.5859 159.869C87.8075 159.733 87.9183 159.511 87.9183 159.205V159.145C87.9183 158.401 87.7081 157.824 87.2876 157.415C86.8729 157.006 86.2536 156.801 85.4297 156.801C84.5717 156.801 83.8956 156.991 83.4013 157.372C82.9126 157.747 82.5746 158.165 82.3871 158.625L79.9922 158.08C80.2763 157.284 80.6911 156.642 81.2365 156.153C81.7876 155.659 82.4212 155.301 83.1371 155.08C83.853 154.852 84.6058 154.739 85.3956 154.739C85.9183 154.739 86.4723 154.801 87.0575 154.926C87.6484 155.045 88.1996 155.267 88.7109 155.591C89.228 155.915 89.6513 156.378 89.9808 156.98C90.3104 157.577 90.4751 158.352 90.4751 159.307V168H87.9865V166.21H87.8842C87.7195 166.54 87.4723 166.864 87.1428 167.182C86.8132 167.5 86.3899 167.764 85.8729 167.974C85.3558 168.185 84.7365 168.29 84.0149 168.29ZM84.5689 166.244C85.2734 166.244 85.8757 166.105 86.3757 165.827C86.8814 165.548 87.2649 165.185 87.5263 164.736C87.7933 164.281 87.9268 163.795 87.9268 163.278V161.591C87.8359 161.682 87.6598 161.767 87.3984 161.847C87.1428 161.92 86.8501 161.986 86.5206 162.043C86.1911 162.094 85.87 162.142 85.5575 162.188C85.245 162.227 84.9837 162.261 84.7734 162.29C84.2791 162.352 83.8274 162.457 83.4183 162.605C83.0149 162.753 82.6911 162.966 82.4467 163.244C82.2081 163.517 82.0888 163.881 82.0888 164.335C82.0888 164.966 82.3217 165.443 82.7876 165.767C83.2536 166.085 83.8473 166.244 84.5689 166.244ZM93.8693 172.909V154.909H96.358V157.031H96.571C96.7188 156.759 96.9318 156.443 97.2102 156.085C97.4886 155.727 97.875 155.415 98.3693 155.148C98.8636 154.875 99.517 154.739 100.33 154.739C101.386 154.739 102.33 155.006 103.159 155.54C103.989 156.074 104.639 156.844 105.111 157.849C105.588 158.855 105.827 160.065 105.827 161.48C105.827 162.895 105.591 164.108 105.119 165.119C104.648 166.125 104 166.901 103.176 167.446C102.352 167.986 101.412 168.256 100.355 168.256C99.5597 168.256 98.9091 168.122 98.4034 167.855C97.9034 167.588 97.5114 167.276 97.2273 166.918C96.9432 166.56 96.7244 166.241 96.571 165.963H96.4176V172.909H93.8693ZM96.3665 161.455C96.3665 162.375 96.5 163.182 96.767 163.875C97.0341 164.568 97.4205 165.111 97.9261 165.503C98.4318 165.889 99.0511 166.082 99.7841 166.082C100.545 166.082 101.182 165.881 101.693 165.477C102.205 165.068 102.591 164.514 102.852 163.815C103.119 163.116 103.253 162.33 103.253 161.455C103.253 160.591 103.122 159.815 102.861 159.128C102.605 158.44 102.219 157.898 101.702 157.5C101.19 157.102 100.551 156.903 99.7841 156.903C99.0455 156.903 98.4205 157.094 97.9091 157.474C97.4034 157.855 97.0199 158.386 96.7585 159.068C96.4972 159.75 96.3665 160.545 96.3665 161.455ZM111.997 165.614L111.869 166.543C111.784 167.224 111.639 167.935 111.435 168.673C111.236 169.418 111.028 170.108 110.812 170.744C110.602 171.381 110.429 171.886 110.293 172.261H108.486C108.56 171.909 108.662 171.432 108.793 170.83C108.923 170.233 109.051 169.565 109.176 168.827C109.301 168.088 109.395 167.335 109.457 166.568L109.543 165.614H111.997ZM127.18 168.264C125.953 168.264 124.882 167.983 123.967 167.42C123.053 166.858 122.342 166.071 121.837 165.06C121.331 164.048 121.078 162.866 121.078 161.514C121.078 160.156 121.331 158.969 121.837 157.952C122.342 156.935 123.053 156.145 123.967 155.582C124.882 155.02 125.953 154.739 127.18 154.739C128.408 154.739 129.479 155.02 130.393 155.582C131.308 156.145 132.018 156.935 132.524 157.952C133.03 158.969 133.283 160.156 133.283 161.514C133.283 162.866 133.03 164.048 132.524 165.06C132.018 166.071 131.308 166.858 130.393 167.42C129.479 167.983 128.408 168.264 127.18 168.264ZM127.189 166.125C127.984 166.125 128.643 165.915 129.166 165.494C129.689 165.074 130.075 164.514 130.325 163.815C130.581 163.116 130.709 162.347 130.709 161.506C130.709 160.67 130.581 159.903 130.325 159.205C130.075 158.5 129.689 157.935 129.166 157.509C128.643 157.082 127.984 156.869 127.189 156.869C126.388 156.869 125.723 157.082 125.195 157.509C124.672 157.935 124.283 158.5 124.027 159.205C123.777 159.903 123.652 160.67 123.652 161.506C123.652 162.347 123.777 163.116 124.027 163.815C124.283 164.514 124.672 165.074 125.195 165.494C125.723 165.915 126.388 166.125 127.189 166.125ZM136.127 168V154.909H138.59V156.989H138.727C138.965 156.284 139.386 155.73 139.988 155.327C140.596 154.918 141.283 154.713 142.05 154.713C142.21 154.713 142.397 154.719 142.613 154.73C142.835 154.741 143.008 154.756 143.133 154.773V157.21C143.031 157.182 142.849 157.151 142.587 157.116C142.326 157.077 142.065 157.057 141.803 157.057C141.201 157.057 140.664 157.185 140.192 157.44C139.727 157.69 139.357 158.04 139.085 158.489C138.812 158.932 138.675 159.437 138.675 160.006V168H136.127ZM154.033 163.56L154.016 160.449H154.46L159.675 154.909H162.727L156.778 161.216H156.377L154.033 163.56ZM151.69 168V150.545H154.238V168H151.69ZM159.957 168L155.269 161.778L157.025 159.997L163.085 168H159.957ZM170.152 168.264C168.862 168.264 167.751 167.989 166.82 167.438C165.893 166.881 165.178 166.099 164.672 165.094C164.172 164.082 163.922 162.898 163.922 161.54C163.922 160.199 164.172 159.017 164.672 157.994C165.178 156.972 165.882 156.173 166.786 155.599C167.695 155.026 168.757 154.739 169.973 154.739C170.712 154.739 171.428 154.861 172.121 155.105C172.814 155.349 173.436 155.733 173.987 156.256C174.538 156.778 174.973 157.457 175.291 158.293C175.609 159.122 175.768 160.131 175.768 161.318V162.222H165.362V160.312H173.271C173.271 159.642 173.135 159.048 172.862 158.531C172.589 158.009 172.206 157.597 171.712 157.295C171.223 156.994 170.649 156.844 169.99 156.844C169.274 156.844 168.649 157.02 168.115 157.372C167.587 157.719 167.178 158.173 166.888 158.736C166.604 159.293 166.462 159.898 166.462 160.551V162.043C166.462 162.918 166.615 163.662 166.922 164.276C167.234 164.889 167.669 165.358 168.226 165.682C168.783 166 169.433 166.159 170.178 166.159C170.661 166.159 171.101 166.091 171.499 165.955C171.896 165.812 172.24 165.602 172.53 165.324C172.82 165.045 173.041 164.702 173.195 164.293L175.607 164.727C175.413 165.437 175.067 166.06 174.567 166.594C174.072 167.122 173.45 167.534 172.7 167.83C171.956 168.119 171.107 168.264 170.152 168.264ZM179.832 172.909C179.451 172.909 179.104 172.878 178.792 172.815C178.479 172.759 178.246 172.696 178.093 172.628L178.707 170.54C179.173 170.665 179.587 170.719 179.951 170.702C180.315 170.685 180.636 170.548 180.914 170.293C181.198 170.037 181.448 169.619 181.664 169.04L181.979 168.17L177.19 154.909H179.917L183.232 165.068H183.369L186.684 154.909H189.42L184.025 169.747C183.775 170.429 183.457 171.006 183.07 171.477C182.684 171.955 182.224 172.313 181.69 172.551C181.156 172.79 180.536 172.909 179.832 172.909ZM198.166 172.909V154.909H200.655V157.031H200.868C201.016 156.759 201.229 156.443 201.507 156.085C201.786 155.727 202.172 155.415 202.666 155.148C203.161 154.875 203.814 154.739 204.626 154.739C205.683 154.739 206.626 155.006 207.456 155.54C208.286 156.074 208.936 156.844 209.408 157.849C209.885 158.855 210.124 160.065 210.124 161.48C210.124 162.895 209.888 164.108 209.416 165.119C208.945 166.125 208.297 166.901 207.473 167.446C206.649 167.986 205.709 168.256 204.652 168.256C203.857 168.256 203.206 168.122 202.7 167.855C202.2 167.588 201.808 167.276 201.524 166.918C201.24 166.56 201.021 166.241 200.868 165.963H200.714V172.909H198.166ZM200.663 161.455C200.663 162.375 200.797 163.182 201.064 163.875C201.331 164.568 201.717 165.111 202.223 165.503C202.729 165.889 203.348 166.082 204.081 166.082C204.842 166.082 205.479 165.881 205.99 165.477C206.501 165.068 206.888 164.514 207.149 163.815C207.416 163.116 207.55 162.33 207.55 161.455C207.55 160.591 207.419 159.815 207.158 159.128C206.902 158.44 206.516 157.898 205.999 157.5C205.487 157.102 204.848 156.903 204.081 156.903C203.342 156.903 202.717 157.094 202.206 157.474C201.7 157.855 201.317 158.386 201.055 159.068C200.794 159.75 200.663 160.545 200.663 161.455ZM212.979 168V154.909H215.442V156.989H215.578C215.817 156.284 216.237 155.73 216.839 155.327C217.447 154.918 218.135 154.713 218.902 154.713C219.061 154.713 219.249 154.719 219.464 154.73C219.686 154.741 219.859 154.756 219.984 154.773V157.21C219.882 157.182 219.7 157.151 219.439 157.116C219.178 157.077 218.916 157.057 218.655 157.057C218.053 157.057 217.516 157.185 217.044 157.44C216.578 157.69 216.209 158.04 215.936 158.489C215.663 158.932 215.527 159.437 215.527 160.006V168H212.979ZM227.363 168.264C226.073 168.264 224.962 167.989 224.031 167.438C223.104 166.881 222.388 166.099 221.883 165.094C221.383 164.082 221.133 162.898 221.133 161.54C221.133 160.199 221.383 159.017 221.883 157.994C222.388 156.972 223.093 156.173 223.996 155.599C224.906 155.026 225.968 154.739 227.184 154.739C227.923 154.739 228.638 154.861 229.332 155.105C230.025 155.349 230.647 155.733 231.198 156.256C231.749 156.778 232.184 157.457 232.502 158.293C232.82 159.122 232.979 160.131 232.979 161.318V162.222H222.573V160.312H230.482C230.482 159.642 230.346 159.048 230.073 158.531C229.8 158.009 229.417 157.597 228.923 157.295C228.434 156.994 227.86 156.844 227.201 156.844C226.485 156.844 225.86 157.02 225.326 157.372C224.798 157.719 224.388 158.173 224.099 158.736C223.815 159.293 223.673 159.898 223.673 160.551V162.043C223.673 162.918 223.826 163.662 224.133 164.276C224.445 164.889 224.88 165.358 225.437 165.682C225.994 166 226.644 166.159 227.388 166.159C227.871 166.159 228.312 166.091 228.71 165.955C229.107 165.812 229.451 165.602 229.741 165.324C230.031 165.045 230.252 164.702 230.406 164.293L232.817 164.727C232.624 165.437 232.278 166.06 231.778 166.594C231.283 167.122 230.661 167.534 229.911 167.83C229.167 168.119 228.317 168.264 227.363 168.264ZM245.616 158.105L243.307 158.514C243.21 158.219 243.057 157.937 242.847 157.67C242.642 157.403 242.364 157.185 242.011 157.014C241.659 156.844 241.219 156.759 240.69 156.759C239.969 156.759 239.366 156.92 238.884 157.244C238.401 157.562 238.159 157.974 238.159 158.48C238.159 158.918 238.321 159.27 238.645 159.537C238.969 159.804 239.491 160.023 240.213 160.193L242.293 160.67C243.497 160.949 244.395 161.378 244.986 161.957C245.577 162.537 245.872 163.29 245.872 164.216C245.872 165 245.645 165.699 245.19 166.312C244.741 166.92 244.114 167.398 243.307 167.744C242.506 168.091 241.577 168.264 240.52 168.264C239.054 168.264 237.858 167.952 236.932 167.327C236.006 166.696 235.438 165.801 235.227 164.642L237.69 164.267C237.844 164.909 238.159 165.395 238.636 165.724C239.114 166.048 239.736 166.21 240.503 166.21C241.338 166.21 242.006 166.037 242.506 165.69C243.006 165.338 243.256 164.909 243.256 164.403C243.256 163.994 243.102 163.651 242.795 163.372C242.494 163.094 242.031 162.884 241.406 162.741L239.19 162.256C237.969 161.977 237.065 161.534 236.48 160.926C235.901 160.318 235.611 159.548 235.611 158.616C235.611 157.844 235.827 157.168 236.259 156.588C236.69 156.009 237.287 155.557 238.048 155.233C238.81 154.903 239.682 154.739 240.665 154.739C242.08 154.739 243.193 155.045 244.006 155.659C244.818 156.267 245.355 157.082 245.616 158.105ZM258.484 158.105L256.174 158.514C256.077 158.219 255.924 157.937 255.714 157.67C255.509 157.403 255.231 157.185 254.879 157.014C254.526 156.844 254.086 156.759 253.558 156.759C252.836 156.759 252.234 156.92 251.751 157.244C251.268 157.562 251.026 157.974 251.026 158.48C251.026 158.918 251.188 159.27 251.512 159.537C251.836 159.804 252.359 160.023 253.08 160.193L255.16 160.67C256.364 160.949 257.262 161.378 257.853 161.957C258.444 162.537 258.739 163.29 258.739 164.216C258.739 165 258.512 165.699 258.058 166.312C257.609 166.92 256.981 167.398 256.174 167.744C255.373 168.091 254.444 168.264 253.387 168.264C251.921 168.264 250.725 167.952 249.799 167.327C248.873 166.696 248.305 165.801 248.094 164.642L250.558 164.267C250.711 164.909 251.026 165.395 251.504 165.724C251.981 166.048 252.603 166.21 253.37 166.21C254.205 166.21 254.873 166.037 255.373 165.69C255.873 165.338 256.123 164.909 256.123 164.403C256.123 163.994 255.969 163.651 255.663 163.372C255.362 163.094 254.898 162.884 254.273 162.741L252.058 162.256C250.836 161.977 249.933 161.534 249.347 160.926C248.768 160.318 248.478 159.548 248.478 158.616C248.478 157.844 248.694 157.168 249.126 156.588C249.558 156.009 250.154 155.557 250.915 155.233C251.677 154.903 252.549 154.739 253.532 154.739C254.947 154.739 256.06 155.045 256.873 155.659C257.685 156.267 258.222 157.082 258.484 158.105Z" fill="#D4D4D8"/>
<path d="M816.443 150.545L821.301 164.761H821.497L826.355 150.545H829.202L822.92 168H819.878L813.597 150.545H816.443ZM831.518 168V154.909H834.066V168H831.518ZM832.805 152.889C832.362 152.889 831.981 152.741 831.663 152.446C831.35 152.145 831.194 151.787 831.194 151.372C831.194 150.952 831.35 150.594 831.663 150.298C831.981 149.997 832.362 149.847 832.805 149.847C833.248 149.847 833.626 149.997 833.938 150.298C834.256 150.594 834.415 150.952 834.415 151.372C834.415 151.787 834.256 152.145 833.938 152.446C833.626 152.741 833.248 152.889 832.805 152.889ZM847.304 158.105L844.994 158.514C844.898 158.219 844.744 157.937 844.534 157.67C844.33 157.403 844.051 157.185 843.699 157.014C843.347 156.844 842.906 156.759 842.378 156.759C841.656 156.759 841.054 156.92 840.571 157.244C840.088 157.562 839.847 157.974 839.847 158.48C839.847 158.918 840.009 159.27 840.332 159.537C840.656 159.804 841.179 160.023 841.901 160.193L843.98 160.67C845.185 160.949 846.082 161.378 846.673 161.957C847.264 162.537 847.56 163.29 847.56 164.216C847.56 165 847.332 165.699 846.878 166.312C846.429 166.92 845.801 167.398 844.994 167.744C844.193 168.091 843.264 168.264 842.207 168.264C840.741 168.264 839.545 167.952 838.619 167.327C837.693 166.696 837.125 165.801 836.915 164.642L839.378 164.267C839.531 164.909 839.847 165.395 840.324 165.724C840.801 166.048 841.423 166.21 842.19 166.21C843.026 166.21 843.693 166.037 844.193 165.69C844.693 165.338 844.943 164.909 844.943 164.403C844.943 163.994 844.79 163.651 844.483 163.372C844.182 163.094 843.719 162.884 843.094 162.741L840.878 162.256C839.656 161.977 838.753 161.534 838.168 160.926C837.588 160.318 837.298 159.548 837.298 158.616C837.298 157.844 837.514 157.168 837.946 156.588C838.378 156.009 838.974 155.557 839.736 155.233C840.497 154.903 841.369 154.739 842.352 154.739C843.767 154.739 844.881 155.045 845.693 155.659C846.506 156.267 847.043 157.082 847.304 158.105ZM858.654 162.571V154.909H861.211V168H858.705V165.733H858.569C858.268 166.432 857.785 167.014 857.12 167.48C856.461 167.94 855.64 168.17 854.657 168.17C853.816 168.17 853.072 167.986 852.424 167.616C851.782 167.241 851.276 166.688 850.907 165.955C850.543 165.222 850.362 164.315 850.362 163.236V154.909H852.91V162.929C852.91 163.821 853.157 164.531 853.651 165.06C854.146 165.588 854.788 165.852 855.577 165.852C856.055 165.852 856.529 165.733 857.001 165.494C857.478 165.256 857.873 164.895 858.185 164.412C858.504 163.929 858.66 163.315 858.654 162.571ZM868.445 168.29C867.615 168.29 866.865 168.136 866.195 167.83C865.524 167.517 864.993 167.065 864.601 166.474C864.214 165.884 864.021 165.159 864.021 164.301C864.021 163.562 864.163 162.955 864.447 162.477C864.732 162 865.115 161.622 865.598 161.344C866.081 161.065 866.621 160.855 867.217 160.713C867.814 160.571 868.422 160.463 869.041 160.389C869.825 160.298 870.462 160.224 870.95 160.168C871.439 160.105 871.794 160.006 872.016 159.869C872.237 159.733 872.348 159.511 872.348 159.205V159.145C872.348 158.401 872.138 157.824 871.717 157.415C871.303 157.006 870.683 156.801 869.859 156.801C869.001 156.801 868.325 156.991 867.831 157.372C867.342 157.747 867.004 158.165 866.817 158.625L864.422 158.08C864.706 157.284 865.121 156.642 865.666 156.153C866.217 155.659 866.851 155.301 867.567 155.08C868.283 154.852 869.036 154.739 869.825 154.739C870.348 154.739 870.902 154.801 871.487 154.926C872.078 155.045 872.629 155.267 873.141 155.591C873.658 155.915 874.081 156.378 874.411 156.98C874.74 157.577 874.905 158.352 874.905 159.307V168H872.416V166.21H872.314C872.149 166.54 871.902 166.864 871.572 167.182C871.243 167.5 870.82 167.764 870.303 167.974C869.786 168.185 869.166 168.29 868.445 168.29ZM868.999 166.244C869.703 166.244 870.305 166.105 870.805 165.827C871.311 165.548 871.695 165.185 871.956 164.736C872.223 164.281 872.357 163.795 872.357 163.278V161.591C872.266 161.682 872.089 161.767 871.828 161.847C871.572 161.92 871.28 161.986 870.95 162.043C870.621 162.094 870.3 162.142 869.987 162.188C869.675 162.227 869.413 162.261 869.203 162.29C868.709 162.352 868.257 162.457 867.848 162.605C867.445 162.753 867.121 162.966 866.876 163.244C866.638 163.517 866.518 163.881 866.518 164.335C866.518 164.966 866.751 165.443 867.217 165.767C867.683 166.085 868.277 166.244 868.999 166.244ZM880.847 150.545V168H878.299V150.545H880.847ZM898.92 162.571V154.909H901.477V168H898.971V165.733H898.835C898.533 166.432 898.05 167.014 897.386 167.48C896.727 167.94 895.906 168.17 894.923 168.17C894.082 168.17 893.337 167.986 892.69 167.616C892.048 167.241 891.542 166.688 891.173 165.955C890.809 165.222 890.627 164.315 890.627 163.236V154.909H893.175V162.929C893.175 163.821 893.423 164.531 893.917 165.06C894.411 165.588 895.053 165.852 895.843 165.852C896.32 165.852 896.795 165.733 897.266 165.494C897.744 165.256 898.138 164.895 898.451 164.412C898.769 163.929 898.925 163.315 898.92 162.571ZM904.901 172.909V154.909H907.389V157.031H907.602C907.75 156.759 907.963 156.443 908.241 156.085C908.52 155.727 908.906 155.415 909.401 155.148C909.895 154.875 910.548 154.739 911.361 154.739C912.418 154.739 913.361 155.006 914.19 155.54C915.02 156.074 915.67 156.844 916.142 157.849C916.619 158.855 916.858 160.065 916.858 161.48C916.858 162.895 916.622 164.108 916.151 165.119C915.679 166.125 915.031 166.901 914.207 167.446C913.384 167.986 912.443 168.256 911.386 168.256C910.591 168.256 909.94 168.122 909.435 167.855C908.935 167.588 908.543 167.276 908.259 166.918C907.974 166.56 907.756 166.241 907.602 165.963H907.449V172.909H904.901ZM907.398 161.455C907.398 162.375 907.531 163.182 907.798 163.875C908.065 164.568 908.452 165.111 908.957 165.503C909.463 165.889 910.082 166.082 910.815 166.082C911.577 166.082 912.213 165.881 912.724 165.477C913.236 165.068 913.622 164.514 913.884 163.815C914.151 163.116 914.284 162.33 914.284 161.455C914.284 160.591 914.153 159.815 913.892 159.128C913.636 158.44 913.25 157.898 912.733 157.5C912.222 157.102 911.582 156.903 910.815 156.903C910.077 156.903 909.452 157.094 908.94 157.474C908.435 157.855 908.051 158.386 907.79 159.068C907.528 159.75 907.398 160.545 907.398 161.455ZM924.614 168.256C923.557 168.256 922.614 167.986 921.784 167.446C920.96 166.901 920.313 166.125 919.841 165.119C919.375 164.108 919.142 162.895 919.142 161.48C919.142 160.065 919.378 158.855 919.849 157.849C920.327 156.844 920.98 156.074 921.81 155.54C922.639 155.006 923.58 154.739 924.631 154.739C925.443 154.739 926.097 154.875 926.591 155.148C927.091 155.415 927.477 155.727 927.75 156.085C928.028 156.443 928.244 156.759 928.398 157.031H928.551V150.545H931.099V168H928.611V165.963H928.398C928.244 166.241 928.023 166.56 927.733 166.918C927.449 167.276 927.057 167.588 926.557 167.855C926.057 168.122 925.409 168.256 924.614 168.256ZM925.176 166.082C925.909 166.082 926.528 165.889 927.034 165.503C927.545 165.111 927.932 164.568 928.193 163.875C928.46 163.182 928.594 162.375 928.594 161.455C928.594 160.545 928.463 159.75 928.202 159.068C927.94 158.386 927.557 157.855 927.051 157.474C926.545 157.094 925.92 156.903 925.176 156.903C924.409 156.903 923.77 157.102 923.259 157.5C922.747 157.898 922.361 158.44 922.099 159.128C921.844 159.815 921.716 160.591 921.716 161.455C921.716 162.33 921.847 163.116 922.108 163.815C922.369 164.514 922.756 165.068 923.267 165.477C923.784 165.881 924.42 166.082 925.176 166.082ZM938.546 168.29C937.717 168.29 936.967 168.136 936.296 167.83C935.626 167.517 935.094 167.065 934.702 166.474C934.316 165.884 934.123 165.159 934.123 164.301C934.123 163.562 934.265 162.955 934.549 162.477C934.833 162 935.217 161.622 935.7 161.344C936.183 161.065 936.722 160.855 937.319 160.713C937.915 160.571 938.523 160.463 939.143 160.389C939.927 160.298 940.563 160.224 941.052 160.168C941.54 160.105 941.896 160.006 942.117 159.869C942.339 159.733 942.45 159.511 942.45 159.205V159.145C942.45 158.401 942.239 157.824 941.819 157.415C941.404 157.006 940.785 156.801 939.961 156.801C939.103 156.801 938.427 156.991 937.933 157.372C937.444 157.747 937.106 158.165 936.918 158.625L934.523 158.08C934.808 157.284 935.222 156.642 935.768 156.153C936.319 155.659 936.952 155.301 937.668 155.08C938.384 154.852 939.137 154.739 939.927 154.739C940.45 154.739 941.004 154.801 941.589 154.926C942.18 155.045 942.731 155.267 943.242 155.591C943.759 155.915 944.183 156.378 944.512 156.98C944.842 157.577 945.006 158.352 945.006 159.307V168H942.518V166.21H942.415C942.251 166.54 942.004 166.864 941.674 167.182C941.344 167.5 940.921 167.764 940.404 167.974C939.887 168.185 939.268 168.29 938.546 168.29ZM939.1 166.244C939.805 166.244 940.407 166.105 940.907 165.827C941.413 165.548 941.796 165.185 942.058 164.736C942.325 164.281 942.458 163.795 942.458 163.278V161.591C942.367 161.682 942.191 161.767 941.93 161.847C941.674 161.92 941.381 161.986 941.052 162.043C940.722 162.094 940.401 162.142 940.089 162.188C939.776 162.227 939.515 162.261 939.305 162.29C938.81 162.352 938.359 162.457 937.95 162.605C937.546 162.753 937.222 162.966 936.978 163.244C936.739 163.517 936.62 163.881 936.62 164.335C936.62 164.966 936.853 165.443 937.319 165.767C937.785 166.085 938.379 166.244 939.1 166.244ZM954.511 154.909V156.955H947.361V154.909H954.511ZM949.278 151.773H951.827V164.156C951.827 164.651 951.901 165.023 952.048 165.273C952.196 165.517 952.386 165.685 952.619 165.776C952.858 165.861 953.116 165.903 953.395 165.903C953.599 165.903 953.778 165.889 953.932 165.861C954.085 165.832 954.205 165.81 954.29 165.793L954.75 167.898C954.602 167.955 954.392 168.011 954.119 168.068C953.847 168.131 953.506 168.165 953.097 168.17C952.426 168.182 951.801 168.062 951.222 167.812C950.642 167.562 950.173 167.176 949.815 166.653C949.457 166.131 949.278 165.474 949.278 164.685V151.773ZM962.832 168.264C961.542 168.264 960.431 167.989 959.499 167.438C958.573 166.881 957.857 166.099 957.352 165.094C956.852 164.082 956.602 162.898 956.602 161.54C956.602 160.199 956.852 159.017 957.352 157.994C957.857 156.972 958.562 156.173 959.465 155.599C960.374 155.026 961.437 154.739 962.653 154.739C963.391 154.739 964.107 154.861 964.8 155.105C965.494 155.349 966.116 155.733 966.667 156.256C967.218 156.778 967.653 157.457 967.971 158.293C968.289 159.122 968.448 160.131 968.448 161.318V162.222H958.042V160.312H965.951C965.951 159.642 965.815 159.048 965.542 158.531C965.269 158.009 964.886 157.597 964.391 157.295C963.903 156.994 963.329 156.844 962.67 156.844C961.954 156.844 961.329 157.02 960.795 157.372C960.266 157.719 959.857 158.173 959.567 158.736C959.283 159.293 959.141 159.898 959.141 160.551V162.043C959.141 162.918 959.295 163.662 959.602 164.276C959.914 164.889 960.349 165.358 960.906 165.682C961.462 166 962.113 166.159 962.857 166.159C963.34 166.159 963.781 166.091 964.178 165.955C964.576 165.812 964.92 165.602 965.21 165.324C965.499 165.045 965.721 164.702 965.874 164.293L968.286 164.727C968.093 165.437 967.746 166.06 967.246 166.594C966.752 167.122 966.13 167.534 965.38 167.83C964.636 168.119 963.786 168.264 962.832 168.264Z" fill="#D4D4D8"/>
<path d="M1003.71 94.7072C1004.1 94.3167 1004.1 93.6835 1003.71 93.293L997.343 86.929C996.953 86.5385 996.32 86.5385 995.929 86.929C995.538 87.3195 995.538 87.9527 995.929 88.3432L1001.59 94.0001L995.929 99.6569C995.538 100.047 995.538 100.681 995.929 101.071C996.32 101.462 996.953 101.462 997.343 101.071L1003.71 94.7072ZM51 95L55.4906 95L55.4906 93L51 93L51 95ZM64.4717 95L73.4528 95L73.4528 93L64.4717 93L64.4717 95ZM82.434 95L91.4151 95L91.4151 93L82.434 93L82.434 95ZM100.396 95L109.377 95L109.377 93L100.396 93L100.396 95ZM118.358 95L127.34 95L127.34 93L118.358 93L118.358 95ZM136.321 95L145.302 95L145.302 93L136.321 93L136.321 95ZM154.283 95L163.264 95L163.264 93L154.283 93L154.283 95ZM172.245 95L181.226 95L181.226 93L172.245 93L172.245 95ZM190.208 95L199.189 95L199.189 93L190.208 93L190.208 95ZM208.17 95L217.151 95L217.151 93L208.17 93L208.17 95ZM226.132 95L235.113 95L235.113 93L226.132 93L226.132 95ZM244.094 95L253.076 95L253.076 93L244.094 93L244.094 95ZM262.057 95L271.038 95L271.038 93L262.057 93L262.057 95ZM280.019 95L289 95L289 93L280.019 93L280.019 95ZM297.981 95L306.962 95L306.962 93L297.981 93L297.981 95ZM315.944 95L324.925 95L324.925 93L315.944 93L315.944 95ZM333.906 95L342.887 95L342.887 93L333.906 93L333.906 95ZM351.868 95L360.849 95L360.849 93L351.868 93L351.868 95ZM369.83 95L378.811 95L378.811 93L369.83 93L369.83 95ZM387.793 95L396.774 95L396.774 93L387.793 93L387.793 95ZM405.755 95L414.736 95L414.736 93L405.755 93L405.755 95ZM423.717 95L432.698 95L432.698 93L423.717 93L423.717 95ZM441.679 95L450.661 95L450.661 93L441.679 93L441.679 95ZM459.642 95L468.623 95L468.623 93L459.642 93L459.642 95ZM477.604 95L486.585 95L486.585 93L477.604 93L477.604 95ZM495.566 95L504.547 95L504.547 93L495.566 93L495.566 95ZM513.529 95L522.51 95L522.51 93L513.529 93L513.529 95ZM531.491 95L540.472 95L540.472 93L531.491 93L531.491 95ZM549.453 95L558.434 95L558.434 93L549.453 93L549.453 95ZM567.415 95L576.397 95L576.397 93L567.415 93L567.415 95ZM585.378 95L594.359 95L594.359 93L585.378 93L585.378 95ZM603.34 95L612.321 95L612.321 93L603.34 93L603.34 95ZM621.302 95L630.283 95.0001L630.283 93.0001L621.302 93L621.302 95ZM639.265 95.0001L648.246 95.0001L648.246 93.0001L639.265 93.0001L639.265 95.0001ZM657.227 95.0001L666.208 95.0001L666.208 93.0001L657.227 93.0001L657.227 95.0001ZM675.189 95.0001L684.17 95.0001L684.17 93.0001L675.189 93.0001L675.189 95.0001ZM693.151 95.0001L702.133 95.0001L702.133 93.0001L693.151 93.0001L693.151 95.0001ZM711.114 95.0001L720.095 95.0001L720.095 93.0001L711.114 93.0001L711.114 95.0001ZM729.076 95.0001L738.057 95.0001L738.057 93.0001L729.076 93.0001L729.076 95.0001ZM747.038 95.0001L756.019 95.0001L756.019 93.0001L747.038 93.0001L747.038 95.0001ZM765 95.0001L773.982 95.0001L773.982 93.0001L765 93.0001L765 95.0001ZM782.963 95.0001L791.944 95.0001L791.944 93.0001L782.963 93.0001L782.963 95.0001ZM800.925 95.0001L809.906 95.0001L809.906 93.0001L800.925 93.0001L800.925 95.0001ZM818.887 95.0001L827.868 95.0001L827.868 93.0001L818.887 93.0001L818.887 95.0001ZM836.85 95.0001L845.831 95.0001L845.831 93.0001L836.85 93.0001L836.85 95.0001ZM854.812 95.0001L863.793 95.0001L863.793 93.0001L854.812 93.0001L854.812 95.0001ZM872.774 95.0001L881.755 95.0001L881.755 93.0001L872.774 93.0001L872.774 95.0001ZM890.736 95.0001L899.718 95.0001L899.718 93.0001L890.736 93.0001L890.736 95.0001ZM908.699 95.0001L917.68 95.0001L917.68 93.0001L908.699 93.0001L908.699 95.0001ZM926.661 95.0001L935.642 95.0001L935.642 93.0001L926.661 93.0001L926.661 95.0001ZM944.623 95.0001L953.604 95.0001L953.604 93.0001L944.623 93.0001L944.623 95.0001ZM962.586 95.0001L971.567 95.0001L971.567 93.0001L962.586 93.0001L962.586 95.0001ZM980.548 95.0001L989.529 95.0001L989.529 93.0001L980.548 93.0001L980.548 95.0001ZM998.51 95.0001L1003 95.0001L1003 93.0001L998.51 93.0001L998.51 95.0001ZM1004.41 95.4143C1005.2 94.6332 1005.2 93.3669 1004.41 92.5859L991.686 79.8579C990.905 79.0769 989.639 79.0769 988.858 79.8579C988.077 80.639 988.077 81.9053 988.858 82.6864L1000.17 94.0001L988.858 105.314C988.077 106.095 988.077 107.361 988.858 108.142C989.639 108.923 990.905 108.923 991.686 108.142L1004.41 95.4143ZM51 96L55.4906 96L55.4906 92L51 92L51 96ZM64.4717 96L73.4528 96L73.4528 92L64.4717 92L64.4717 96ZM82.434 96L91.4151 96L91.4151 92L82.434 92L82.434 96ZM100.396 96L109.377 96L109.377 92L100.396 92L100.396 96ZM118.358 96L127.34 96L127.34 92L118.358 92L118.358 96ZM136.321 96L145.302 96L145.302 92L136.321 92L136.321 96ZM154.283 96L163.264 96L163.264 92L154.283 92L154.283 96ZM172.245 96L181.226 96L181.226 92L172.245 92L172.245 96ZM190.208 96L199.189 96L199.189 92L190.208 92L190.208 96ZM208.17 96L217.151 96L217.151 92L208.17 92L208.17 96ZM226.132 96L235.113 96L235.113 92L226.132 92L226.132 96ZM244.094 96L253.076 96L253.076 92L244.094 92L244.094 96ZM262.057 96L271.038 96L271.038 92L262.057 92L262.057 96ZM280.019 96L289 96L289 92L280.019 92L280.019 96ZM297.981 96L306.962 96L306.962 92L297.981 92L297.981 96ZM315.944 96L324.925 96L324.925 92L315.944 92L315.944 96ZM333.906 96L342.887 96L342.887 92L333.906 92L333.906 96ZM351.868 96L360.849 96L360.849 92L351.868 92L351.868 96ZM369.83 96L378.811 96L378.811 92L369.83 92L369.83 96ZM387.793 96L396.774 96L396.774 92L387.793 92L387.793 96ZM405.755 96L414.736 96L414.736 92L405.755 92L405.755 96ZM423.717 96L432.698 96L432.698 92L423.717 92L423.717 96ZM441.679 96L450.661 96L450.661 92L441.679 92L441.679 96ZM459.642 96L468.623 96L468.623 92L459.642 92L459.642 96ZM477.604 96L486.585 96L486.585 92L477.604 92L477.604 96ZM495.566 96L504.547 96L504.547 92L495.566 92L495.566 96ZM513.529 96L522.51 96L522.51 92L513.529 92L513.529 96ZM531.491 96L540.472 96L540.472 92L531.491 92L531.491 96ZM549.453 96L558.434 96L558.434 92L549.453 92L549.453 96ZM567.415 96L576.397 96L576.397 92L567.415 92L567.415 96ZM585.378 96L594.359 96L594.359 92L585.378 92L585.378 96ZM603.34 96L612.321 96L612.321 92L603.34 92L603.34 96ZM621.302 96L630.283 96.0001L630.283 92.0001L621.302 92L621.302 96ZM639.265 96.0001L648.246 96.0001L648.246 92.0001L639.265 92.0001L639.265 96.0001ZM657.227 96.0001L666.208 96.0001L666.208 92.0001L657.227 92.0001L657.227 96.0001ZM675.189 96.0001L684.17 96.0001L684.17 92.0001L675.189 92.0001L675.189 96.0001ZM693.151 96.0001L702.133 96.0001L702.133 92.0001L693.151 92.0001L693.151 96.0001ZM711.114 96.0001L720.095 96.0001L720.095 92.0001L711.114 92.0001L711.114 96.0001ZM729.076 96.0001L738.057 96.0001L738.057 92.0001L729.076 92.0001L729.076 96.0001ZM747.038 96.0001L756.019 96.0001L756.019 92.0001L747.038 92.0001L747.038 96.0001ZM765 96.0001L773.982 96.0001L773.982 92.0001L765 92.0001L765 96.0001ZM782.963 96.0001L791.944 96.0001L791.944 92.0001L782.963 92.0001L782.963 96.0001ZM800.925 96.0001L809.906 96.0001L809.906 92.0001L800.925 92.0001L800.925 96.0001ZM818.887 96.0001L827.868 96.0001L827.868 92.0001L818.887 92.0001L818.887 96.0001ZM836.85 96.0001L845.831 96.0001L845.831 92.0001L836.85 92.0001L836.85 96.0001ZM854.812 96.0001L863.793 96.0001L863.793 92.0001L854.812 92.0001L854.812 96.0001ZM872.774 96.0001L881.755 96.0001L881.755 92.0001L872.774 92.0001L872.774 96.0001ZM890.736 96.0001L899.718 96.0001L899.718 92.0001L890.736 92.0001L890.736 96.0001ZM908.699 96.0001L917.68 96.0001L917.68 92.0001L908.699 92.0001L908.699 96.0001ZM926.661 96.0001L935.642 96.0001L935.642 92.0001L926.661 92.0001L926.661 96.0001ZM944.623 96.0001L953.604 96.0001L953.604 92.0001L944.623 92.0001L944.623 96.0001ZM962.586 96.0001L971.567 96.0001L971.567 92.0001L962.586 92.0001L962.586 96.0001ZM980.548 96.0001L989.529 96.0001L989.529 92.0001L980.548 92.0001L980.548 96.0001ZM998.51 96.0001L1003 96.0001L1003 92.0001L998.51 92.0001L998.51 96.0001Z" fill="#D4D4D8"/>
<g opacity="0.9" filter="url(#filter0_f_413_1266)">
<circle cx="130.5" cy="94.5" r="27.5" fill="#D1FAE5" fill-opacity="0.1"/>
</g>
<circle cx="130.5" cy="94.5" r="27.5" fill="#D1FAE5" fill-opacity="0.1"/>
<circle cx="130.5" cy="94.5" r="15" fill="#6EE7B7" fill-opacity="0.8" stroke="#6EE7B7" stroke-width="5"/>
<g opacity="0.9" filter="url(#filter1_f_413_1266)">
<circle cx="891.5" cy="94.5" r="27.5" fill="#D1FAE5" fill-opacity="0.1"/>
</g>
<circle cx="891.5" cy="94.5" r="27.5" fill="#D1FAE5" fill-opacity="0.1"/>
<circle cx="891.5" cy="94.5" r="15" fill="#6EE7B7" fill-opacity="0.8" stroke="#6EE7B7" stroke-width="5"/>
<path fill-rule="evenodd" clip-rule="evenodd" d="M369 18H138C133.582 18 130 21.5817 130 26V38H132V26C132 22.6863 134.686 20 138 20H369V18ZM652 20H884C887.314 20 890 22.6863 890 26V38H892V26C892 21.5817 888.418 18 884 18H652V20Z" fill="#F4F4F5"/>
<path d="M382.689 7.18182V29H379.397V7.18182H382.689ZM390.413 19.2841V29H387.227V12.6364H390.285V15.2997H390.487C390.864 14.4332 391.453 13.7372 392.256 13.2116C393.065 12.6861 394.085 12.4233 395.313 12.4233C396.428 12.4233 397.405 12.6577 398.243 13.1264C399.081 13.5881 399.731 14.277 400.192 15.1932C400.654 16.1094 400.885 17.2422 400.885 18.5916V29H397.7V18.9751C397.7 17.7891 397.391 16.8622 396.773 16.1946C396.155 15.5199 395.306 15.1825 394.227 15.1825C393.488 15.1825 392.831 15.3423 392.256 15.6619C391.688 15.9815 391.237 16.4503 390.903 17.0682C390.576 17.679 390.413 18.4176 390.413 19.2841ZM412.795 12.6364V15.1932H403.857V12.6364H412.795ZM406.254 8.71591H409.44V24.1953C409.44 24.8132 409.532 25.2784 409.717 25.5909C409.901 25.8963 410.139 26.1058 410.43 26.2195C410.729 26.326 411.052 26.3793 411.4 26.3793C411.656 26.3793 411.879 26.3615 412.071 26.326C412.263 26.2905 412.412 26.2621 412.518 26.2408L413.094 28.8722C412.909 28.9432 412.646 29.0142 412.305 29.0852C411.964 29.1634 411.538 29.206 411.027 29.2131C410.189 29.2273 409.408 29.0781 408.683 28.7656C407.959 28.4531 407.373 27.9702 406.925 27.3168C406.478 26.6634 406.254 25.843 406.254 24.8558V8.71591ZM423.196 29.3303C421.584 29.3303 420.195 28.9858 419.03 28.2969C417.873 27.6009 416.978 26.6243 416.346 25.3672C415.721 24.103 415.408 22.6222 415.408 20.9247C415.408 19.2486 415.721 17.7713 416.346 16.4929C416.978 15.2145 417.858 14.2166 418.988 13.4993C420.124 12.782 421.452 12.4233 422.972 12.4233C423.895 12.4233 424.79 12.576 425.657 12.8814C426.523 13.1868 427.301 13.6662 427.99 14.3196C428.679 14.973 429.222 15.8217 429.62 16.8658C430.018 17.9027 430.216 19.1634 430.216 20.6477V21.777H417.209V19.3906H427.095C427.095 18.5526 426.925 17.8104 426.584 17.1641C426.243 16.5107 425.763 15.9957 425.145 15.6193C424.535 15.2429 423.817 15.0547 422.993 15.0547C422.099 15.0547 421.317 15.2749 420.65 15.7152C419.989 16.1484 419.478 16.7166 419.116 17.4197C418.76 18.1158 418.583 18.8722 418.583 19.6889V21.5533C418.583 22.647 418.775 23.5774 419.158 24.3445C419.549 25.1115 420.092 25.6974 420.788 26.1023C421.484 26.5 422.297 26.6989 423.228 26.6989C423.831 26.6989 424.382 26.6136 424.879 26.4432C425.376 26.2656 425.806 26.0028 426.168 25.6548C426.53 25.3068 426.807 24.8771 426.999 24.3658L430.014 24.9091C429.773 25.7969 429.339 26.5746 428.714 27.2422C428.096 27.9027 427.319 28.4176 426.381 28.7869C425.451 29.1491 424.389 29.3303 423.196 29.3303ZM433.751 29V12.6364H436.83V15.2358H437C437.298 14.3551 437.824 13.6626 438.577 13.1584C439.337 12.647 440.196 12.3913 441.155 12.3913C441.354 12.3913 441.588 12.3984 441.858 12.4126C442.135 12.4268 442.352 12.4446 442.508 12.4659V15.5128C442.38 15.4773 442.153 15.4382 441.826 15.3956C441.499 15.3459 441.173 15.321 440.846 15.321C440.093 15.321 439.422 15.4808 438.832 15.8004C438.25 16.1129 437.788 16.5497 437.447 17.1108C437.107 17.6648 436.936 18.2969 436.936 19.0071V29H433.751ZM449.88 29.3622C448.843 29.3622 447.906 29.1705 447.067 28.7869C446.229 28.3963 445.565 27.8317 445.075 27.093C444.592 26.3544 444.351 25.4489 444.351 24.3764C444.351 23.4531 444.528 22.6932 444.884 22.0966C445.239 21.5 445.718 21.0277 446.322 20.6797C446.925 20.3317 447.6 20.0689 448.346 19.8913C449.092 19.7138 449.852 19.5788 450.626 19.4865C451.606 19.3729 452.401 19.2805 453.012 19.2095C453.623 19.1314 454.067 19.0071 454.344 18.8366C454.621 18.6662 454.759 18.3892 454.759 18.0057V17.9311C454.759 17.0007 454.496 16.2798 453.971 15.7685C453.452 15.2571 452.678 15.0014 451.648 15.0014C450.576 15.0014 449.731 15.2393 449.113 15.7152C448.502 16.1839 448.08 16.706 447.845 17.2812L444.852 16.5994C445.207 15.6051 445.725 14.8026 446.407 14.1918C447.096 13.5739 447.888 13.1264 448.783 12.8494C449.678 12.5653 450.619 12.4233 451.606 12.4233C452.259 12.4233 452.952 12.5014 453.683 12.6577C454.422 12.8068 455.111 13.0838 455.75 13.4886C456.396 13.8935 456.925 14.4723 457.337 15.2251C457.749 15.9709 457.955 16.9403 457.955 18.1335V29H454.844V26.7628H454.717C454.511 27.1747 454.202 27.5795 453.79 27.9773C453.378 28.375 452.849 28.7053 452.202 28.968C451.556 29.2308 450.782 29.3622 449.88 29.3622ZM450.572 26.8054C451.453 26.8054 452.206 26.6314 452.831 26.2834C453.463 25.9354 453.942 25.4808 454.269 24.9197C454.603 24.3516 454.77 23.7443 454.77 23.098V20.9886C454.656 21.1023 454.436 21.2088 454.109 21.3082C453.79 21.4006 453.424 21.4822 453.012 21.5533C452.6 21.6172 452.199 21.6776 451.808 21.7344C451.418 21.7841 451.091 21.8267 450.828 21.8622C450.21 21.9403 449.646 22.0717 449.134 22.2564C448.63 22.4411 448.225 22.7074 447.92 23.0554C447.621 23.3963 447.472 23.8509 447.472 24.419C447.472 25.2074 447.763 25.804 448.346 26.2088C448.928 26.6065 449.67 26.8054 450.572 26.8054ZM469.091 29.3303C467.507 29.3303 466.143 28.9716 465 28.2543C463.863 27.5298 462.99 26.532 462.379 25.2607C461.768 23.9893 461.463 22.5334 461.463 20.8928C461.463 19.2308 461.775 17.7642 462.4 16.4929C463.025 15.2145 463.906 14.2166 465.042 13.4993C466.179 12.782 467.518 12.4233 469.059 12.4233C470.302 12.4233 471.41 12.6541 472.383 13.1158C473.356 13.5703 474.14 14.2095 474.737 15.0334C475.341 15.8572 475.699 16.8196 475.813 17.9205H472.713C472.542 17.1534 472.152 16.4929 471.541 15.9389C470.937 15.3849 470.128 15.108 469.112 15.108C468.224 15.108 467.447 15.3423 466.779 15.8111C466.118 16.2727 465.604 16.9332 465.234 17.7926C464.865 18.6449 464.68 19.6534 464.68 20.8182C464.68 22.0114 464.861 23.0412 465.224 23.9077C465.586 24.7741 466.097 25.4453 466.758 25.9212C467.425 26.397 468.21 26.6349 469.112 26.6349C469.716 26.6349 470.263 26.5249 470.753 26.3047C471.25 26.0774 471.665 25.7543 471.999 25.3352C472.34 24.9162 472.578 24.4119 472.713 23.8224H475.813C475.699 24.8807 475.355 25.8253 474.78 26.6562C474.204 27.4872 473.434 28.1406 472.468 28.6165C471.509 29.0923 470.383 29.3303 469.091 29.3303ZM486.858 12.6364V15.1932H477.92V12.6364H486.858ZM480.317 8.71591H483.502V24.1953C483.502 24.8132 483.594 25.2784 483.779 25.5909C483.964 25.8963 484.202 26.1058 484.493 26.2195C484.791 26.326 485.114 26.3793 485.462 26.3793C485.718 26.3793 485.942 26.3615 486.134 26.326C486.325 26.2905 486.474 26.2621 486.581 26.2408L487.156 28.8722C486.972 28.9432 486.709 29.0142 486.368 29.0852C486.027 29.1634 485.601 29.206 485.089 29.2131C484.251 29.2273 483.47 29.0781 482.746 28.7656C482.021 28.4531 481.435 27.9702 480.988 27.3168C480.54 26.6634 480.317 25.843 480.317 24.8558V8.71591ZM490.382 29V12.6364H493.567V29H490.382ZM491.99 10.1115C491.436 10.1115 490.96 9.92685 490.563 9.55753C490.172 9.18111 489.977 8.73366 489.977 8.2152C489.977 7.68963 490.172 7.24219 490.563 6.87287C490.96 6.49645 491.436 6.30824 491.99 6.30824C492.544 6.30824 493.017 6.49645 493.407 6.87287C493.805 7.24219 494.004 7.68963 494.004 8.2152C494.004 8.73366 493.805 9.18111 493.407 9.55753C493.017 9.92685 492.544 10.1115 491.99 10.1115ZM504.745 29.3303C503.211 29.3303 501.872 28.9787 500.729 28.2756C499.585 27.5724 498.697 26.5888 498.065 25.3246C497.433 24.0604 497.117 22.5831 497.117 20.8928C497.117 19.1953 497.433 17.7109 498.065 16.4396C498.697 15.1683 499.585 14.1811 500.729 13.478C501.872 12.7749 503.211 12.4233 504.745 12.4233C506.279 12.4233 507.618 12.7749 508.761 13.478C509.905 14.1811 510.793 15.1683 511.425 16.4396C512.057 17.7109 512.373 19.1953 512.373 20.8928C512.373 22.5831 512.057 24.0604 511.425 25.3246C510.793 26.5888 509.905 27.5724 508.761 28.2756C507.618 28.9787 506.279 29.3303 504.745 29.3303ZM504.756 26.6562C505.75 26.6562 506.574 26.3935 507.227 25.8679C507.881 25.3423 508.364 24.6428 508.676 23.7692C508.996 22.8956 509.156 21.9332 509.156 20.8821C509.156 19.8381 508.996 18.8793 508.676 18.0057C508.364 17.125 507.881 16.4183 507.227 15.8857C506.574 15.353 505.75 15.0866 504.756 15.0866C503.754 15.0866 502.923 15.353 502.263 15.8857C501.609 16.4183 501.123 17.125 500.803 18.0057C500.491 18.8793 500.335 19.8381 500.335 20.8821C500.335 21.9332 500.491 22.8956 500.803 23.7692C501.123 24.6428 501.609 25.3423 502.263 25.8679C502.923 26.3935 503.754 26.6562 504.756 26.6562ZM519.114 19.2841V29H515.928V12.6364H518.986V15.2997H519.188C519.565 14.4332 520.154 13.7372 520.957 13.2116C521.767 12.6861 522.786 12.4233 524.014 12.4233C525.129 12.4233 526.106 12.6577 526.944 13.1264C527.782 13.5881 528.432 14.277 528.894 15.1932C529.355 16.1094 529.586 17.2422 529.586 18.5916V29H526.401V18.9751C526.401 17.7891 526.092 16.8622 525.474 16.1946C524.856 15.5199 524.007 15.1825 522.928 15.1825C522.189 15.1825 521.532 15.3423 520.957 15.6619C520.389 15.9815 519.938 16.4503 519.604 17.0682C519.277 17.679 519.114 18.4176 519.114 19.2841ZM544.983 7.18182V29H541.798V7.18182H544.983ZM554.03 29.3622C552.993 29.3622 552.056 29.1705 551.218 28.7869C550.38 28.3963 549.716 27.8317 549.226 27.093C548.743 26.3544 548.501 25.4489 548.501 24.3764C548.501 23.4531 548.679 22.6932 549.034 22.0966C549.389 21.5 549.868 21.0277 550.472 20.6797C551.076 20.3317 551.751 20.0689 552.496 19.8913C553.242 19.7138 554.002 19.5788 554.776 19.4865C555.756 19.3729 556.552 19.2805 557.162 19.2095C557.773 19.1314 558.217 19.0071 558.494 18.8366C558.771 18.6662 558.91 18.3892 558.91 18.0057V17.9311C558.91 17.0007 558.647 16.2798 558.121 15.7685C557.603 15.2571 556.829 15.0014 555.799 15.0014C554.726 15.0014 553.881 15.2393 553.263 15.7152C552.653 16.1839 552.23 16.706 551.996 17.2812L549.002 16.5994C549.357 15.6051 549.876 14.8026 550.557 14.1918C551.246 13.5739 552.038 13.1264 552.933 12.8494C553.828 12.5653 554.769 12.4233 555.756 12.4233C556.41 12.4233 557.102 12.5014 557.834 12.6577C558.572 12.8068 559.261 13.0838 559.9 13.4886C560.547 13.8935 561.076 14.4723 561.488 15.2251C561.9 15.9709 562.106 16.9403 562.106 18.1335V29H558.995V26.7628H558.867C558.661 27.1747 558.352 27.5795 557.94 27.9773C557.528 28.375 556.999 28.7053 556.353 28.968C555.706 29.2308 554.932 29.3622 554.03 29.3622ZM554.723 26.8054C555.604 26.8054 556.356 26.6314 556.981 26.2834C557.613 25.9354 558.093 25.4808 558.42 24.9197C558.753 24.3516 558.92 23.7443 558.92 23.098V20.9886C558.807 21.1023 558.586 21.2088 558.26 21.3082C557.94 21.4006 557.574 21.4822 557.162 21.5533C556.751 21.6172 556.349 21.6776 555.959 21.7344C555.568 21.7841 555.241 21.8267 554.979 21.8622C554.361 21.9403 553.796 22.0717 553.285 22.2564C552.78 22.4411 552.376 22.7074 552.07 23.0554C551.772 23.3963 551.623 23.8509 551.623 24.419C551.623 25.2074 551.914 25.804 552.496 26.2088C553.079 26.6065 553.821 26.8054 554.723 26.8054ZM573.987 12.6364V15.1932H565.049V12.6364H573.987ZM567.446 8.71591H570.631V24.1953C570.631 24.8132 570.723 25.2784 570.908 25.5909C571.093 25.8963 571.331 26.1058 571.622 26.2195C571.92 26.326 572.243 26.3793 572.591 26.3793C572.847 26.3793 573.071 26.3615 573.262 26.326C573.454 26.2905 573.603 26.2621 573.71 26.2408L574.285 28.8722C574.1 28.9432 573.838 29.0142 573.497 29.0852C573.156 29.1634 572.73 29.206 572.218 29.2131C571.38 29.2273 570.599 29.0781 569.875 28.7656C569.15 28.4531 568.564 27.9702 568.117 27.3168C567.669 26.6634 567.446 25.843 567.446 24.8558V8.71591ZM584.387 29.3303C582.775 29.3303 581.387 28.9858 580.222 28.2969C579.064 27.6009 578.169 26.6243 577.537 25.3672C576.912 24.103 576.6 22.6222 576.6 20.9247C576.6 19.2486 576.912 17.7713 577.537 16.4929C578.169 15.2145 579.05 14.2166 580.179 13.4993C581.316 12.782 582.644 12.4233 584.164 12.4233C585.087 12.4233 585.982 12.576 586.848 12.8814C587.715 13.1868 588.492 13.6662 589.181 14.3196C589.87 14.973 590.414 15.8217 590.811 16.8658C591.209 17.9027 591.408 19.1634 591.408 20.6477V21.777H578.4V19.3906H588.286C588.286 18.5526 588.116 17.8104 587.775 17.1641C587.434 16.5107 586.955 15.9957 586.337 15.6193C585.726 15.2429 585.009 15.0547 584.185 15.0547C583.29 15.0547 582.509 15.2749 581.841 15.7152C581.181 16.1484 580.669 16.7166 580.307 17.4197C579.952 18.1158 579.774 18.8722 579.774 19.6889V21.5533C579.774 22.647 579.966 23.5774 580.35 24.3445C580.74 25.1115 581.284 25.6974 581.98 26.1023C582.676 26.5 583.489 26.6989 584.419 26.6989C585.023 26.6989 585.573 26.6136 586.07 26.4432C586.568 26.2656 586.997 26.0028 587.36 25.6548C587.722 25.3068 587.999 24.8771 588.191 24.3658L591.205 24.9091C590.964 25.7969 590.531 26.5746 589.906 27.2422C589.288 27.9027 588.51 28.4176 587.573 28.7869C586.642 29.1491 585.58 29.3303 584.387 29.3303ZM598.127 19.2841V29H594.942V12.6364H598V15.2997H598.202C598.578 14.4332 599.168 13.7372 599.971 13.2116C600.78 12.6861 601.799 12.4233 603.028 12.4233C604.143 12.4233 605.12 12.6577 605.958 13.1264C606.796 13.5881 607.446 14.277 607.907 15.1932C608.369 16.1094 608.6 17.2422 608.6 18.5916V29H605.414V18.9751C605.414 17.7891 605.105 16.8622 604.488 16.1946C603.87 15.5199 603.021 15.1825 601.941 15.1825C601.203 15.1825 600.546 15.3423 599.971 15.6619C599.402 15.9815 598.951 16.4503 598.618 17.0682C598.291 17.679 598.127 18.4176 598.127 19.2841ZM619.765 29.3303C618.181 29.3303 616.817 28.9716 615.674 28.2543C614.537 27.5298 613.664 26.532 613.053 25.2607C612.442 23.9893 612.137 22.5334 612.137 20.8928C612.137 19.2308 612.449 17.7642 613.074 16.4929C613.699 15.2145 614.58 14.2166 615.716 13.4993C616.853 12.782 618.191 12.4233 619.733 12.4233C620.975 12.4233 622.083 12.6541 623.056 13.1158C624.029 13.5703 624.814 14.2095 625.411 15.0334C626.015 15.8572 626.373 16.8196 626.487 17.9205H623.387C623.216 17.1534 622.826 16.4929 622.215 15.9389C621.611 15.3849 620.801 15.108 619.786 15.108C618.898 15.108 618.12 15.3423 617.453 15.8111C616.792 16.2727 616.277 16.9332 615.908 17.7926C615.539 18.6449 615.354 19.6534 615.354 20.8182C615.354 22.0114 615.535 23.0412 615.897 23.9077C616.26 24.7741 616.771 25.4453 617.431 25.9212C618.099 26.397 618.884 26.6349 619.786 26.6349C620.39 26.6349 620.936 26.5249 621.426 26.3047C621.924 26.0774 622.339 25.7543 622.673 25.3352C623.014 24.9162 623.252 24.4119 623.387 23.8224H626.487C626.373 24.8807 626.029 25.8253 625.453 26.6562C624.878 27.4872 624.108 28.1406 623.142 28.6165C622.183 29.0923 621.057 29.3303 619.765 29.3303ZM631.907 35.1364C631.431 35.1364 630.998 35.0973 630.607 35.0192C630.216 34.9482 629.925 34.87 629.733 34.7848L630.501 32.1747C631.083 32.331 631.601 32.3984 632.056 32.3771C632.51 32.3558 632.912 32.1854 633.26 31.8658C633.615 31.5462 633.927 31.0241 634.197 30.2997L634.591 29.2131L628.604 12.6364H632.013L636.157 25.3352H636.328L640.472 12.6364H643.892L637.148 31.1839C636.836 32.0362 636.438 32.7571 635.955 33.3466C635.472 33.9432 634.897 34.3906 634.229 34.6889C633.562 34.9872 632.787 35.1364 631.907 35.1364Z" fill="#F4F4F5"/>
<defs>
<filter id="filter0_f_413_1266" x="53" y="17" width="155" height="155" filterUnits="userSpaceOnUse" color-interpolation-filters="sRGB">
<feFlood flood-opacity="0" result="BackgroundImageFix"/>
<feBlend mode="normal" in="SourceGraphic" in2="BackgroundImageFix" result="shape"/>
<feGaussianBlur stdDeviation="25" result="effect1_foregroundBlur_413_1266"/>
</filter>
<filter id="filter1_f_413_1266" x="814" y="17" width="155" height="155" filterUnits="userSpaceOnUse" color-interpolation-filters="sRGB">
<feFlood flood-opacity="0" result="BackgroundImageFix"/>
<feBlend mode="normal" in="SourceGraphic" in2="BackgroundImageFix" result="shape"/>
<feGaussianBlur stdDeviation="25" result="effect1_foregroundBlur_413_1266"/>
</filter>
</defs>
</svg>
