<svg width="589" height="344" viewBox="0 0 589 344" fill="none" xmlns="http://www.w3.org/2000/svg">
<rect width="589" height="344" fill="#E2E8F0"/>
<g filter="url(#filter0_dd_1703_1061)">
<rect x="459" y="163" width="104" height="17" rx="8" fill="#34D399"/>
</g>
<path d="M498.057 176V167.273H501.006C501.69 167.273 502.25 167.396 502.685 167.643C503.122 167.888 503.446 168.219 503.656 168.636C503.866 169.054 503.972 169.52 503.972 170.034C503.972 170.548 503.866 171.016 503.656 171.436C503.449 171.857 503.128 172.192 502.693 172.442C502.259 172.689 501.702 172.812 501.023 172.812H498.909V171.875H500.989C501.457 171.875 501.834 171.794 502.118 171.632C502.402 171.47 502.608 171.251 502.736 170.976C502.866 170.697 502.932 170.384 502.932 170.034C502.932 169.685 502.866 169.372 502.736 169.097C502.608 168.821 502.401 168.605 502.114 168.449C501.827 168.29 501.446 168.21 500.972 168.21H499.114V176H498.057ZM507.464 176.153C507.049 176.153 506.673 176.075 506.335 175.919C505.996 175.76 505.728 175.531 505.529 175.233C505.33 174.932 505.231 174.568 505.231 174.142C505.231 173.767 505.305 173.463 505.452 173.23C505.6 172.994 505.798 172.81 506.045 172.676C506.292 172.543 506.565 172.443 506.863 172.378C507.164 172.31 507.467 172.256 507.771 172.216C508.168 172.165 508.491 172.126 508.738 172.101C508.988 172.072 509.17 172.026 509.283 171.96C509.4 171.895 509.458 171.781 509.458 171.619V171.585C509.458 171.165 509.343 170.838 509.113 170.605C508.886 170.372 508.54 170.256 508.077 170.256C507.597 170.256 507.221 170.361 506.948 170.571C506.675 170.781 506.484 171.006 506.373 171.244L505.418 170.903C505.589 170.506 505.816 170.196 506.1 169.974C506.387 169.75 506.7 169.594 507.038 169.506C507.379 169.415 507.714 169.369 508.043 169.369C508.254 169.369 508.495 169.395 508.768 169.446C509.043 169.494 509.309 169.595 509.565 169.749C509.823 169.902 510.038 170.134 510.208 170.443C510.379 170.753 510.464 171.168 510.464 171.688V176H509.458V175.114H509.407C509.339 175.256 509.225 175.408 509.066 175.57C508.907 175.732 508.695 175.869 508.431 175.983C508.167 176.097 507.844 176.153 507.464 176.153ZM507.617 175.25C508.015 175.25 508.35 175.172 508.623 175.016C508.898 174.859 509.106 174.658 509.245 174.411C509.387 174.163 509.458 173.903 509.458 173.631V172.71C509.415 172.761 509.322 172.808 509.177 172.851C509.035 172.891 508.87 172.926 508.683 172.957C508.498 172.986 508.317 173.011 508.141 173.034C507.968 173.054 507.827 173.071 507.719 173.085C507.458 173.119 507.214 173.175 506.987 173.251C506.762 173.325 506.58 173.437 506.441 173.588C506.305 173.736 506.237 173.937 506.237 174.193C506.237 174.543 506.366 174.807 506.624 174.986C506.886 175.162 507.217 175.25 507.617 175.25ZM512.299 176V169.455H513.305V176H512.299ZM512.811 168.364C512.615 168.364 512.446 168.297 512.304 168.163C512.164 168.03 512.095 167.869 512.095 167.682C512.095 167.494 512.164 167.334 512.304 167.2C512.446 167.067 512.615 167 512.811 167C513.007 167 513.174 167.067 513.314 167.2C513.456 167.334 513.527 167.494 513.527 167.682C513.527 167.869 513.456 168.03 513.314 168.163C513.174 168.297 513.007 168.364 512.811 168.364ZM516.153 172.062V176H515.147V169.455H516.119V170.477H516.204C516.357 170.145 516.59 169.878 516.903 169.676C517.215 169.472 517.619 169.369 518.113 169.369C518.556 169.369 518.944 169.46 519.276 169.642C519.609 169.821 519.867 170.094 520.052 170.46C520.237 170.824 520.329 171.284 520.329 171.841V176H519.323V171.909C519.323 171.395 519.19 170.994 518.923 170.707C518.656 170.418 518.289 170.273 517.823 170.273C517.502 170.273 517.215 170.342 516.962 170.482C516.712 170.621 516.515 170.824 516.37 171.091C516.225 171.358 516.153 171.682 516.153 172.062ZM525.013 169.455V170.307H521.621V169.455H525.013ZM522.61 167.886H523.615V174.125C523.615 174.409 523.657 174.622 523.739 174.764C523.824 174.903 523.932 174.997 524.063 175.045C524.196 175.091 524.337 175.114 524.485 175.114C524.596 175.114 524.686 175.108 524.757 175.097C524.828 175.082 524.885 175.071 524.928 175.062L525.132 175.966C525.064 175.991 524.969 176.017 524.847 176.043C524.725 176.071 524.57 176.085 524.382 176.085C524.098 176.085 523.82 176.024 523.547 175.902C523.277 175.78 523.053 175.594 522.874 175.344C522.698 175.094 522.61 174.778 522.61 174.398V167.886Z" fill="#0B3224"/>
<g filter="url(#filter1_dd_1703_1061)">
<rect x="226" y="163" width="120" height="17" rx="8" fill="#7C3AED"/>
</g>
<path d="M252.057 176V167.273H255.006C255.688 167.273 256.247 167.389 256.685 167.622C257.122 167.852 257.446 168.169 257.656 168.572C257.866 168.976 257.972 169.435 257.972 169.949C257.972 170.463 257.866 170.919 257.656 171.317C257.446 171.714 257.124 172.027 256.689 172.254C256.254 172.479 255.699 172.591 255.023 172.591H252.636V171.636H254.989C255.455 171.636 255.83 171.568 256.114 171.432C256.401 171.295 256.608 171.102 256.736 170.852C256.866 170.599 256.932 170.298 256.932 169.949C256.932 169.599 256.866 169.294 256.736 169.033C256.605 168.771 256.396 168.57 256.109 168.428C255.822 168.283 255.443 168.21 254.972 168.21H253.114V176H252.057ZM256.165 172.08L258.312 176H257.085L254.972 172.08H256.165ZM262.27 176.136C261.64 176.136 261.096 175.997 260.638 175.719C260.184 175.438 259.833 175.045 259.586 174.543C259.341 174.037 259.219 173.449 259.219 172.778C259.219 172.108 259.341 171.517 259.586 171.006C259.833 170.491 260.176 170.091 260.617 169.804C261.06 169.514 261.577 169.369 262.168 169.369C262.509 169.369 262.846 169.426 263.178 169.54C263.51 169.653 263.813 169.838 264.086 170.094C264.358 170.347 264.576 170.682 264.738 171.099C264.9 171.517 264.98 172.031 264.98 172.642V173.068H259.935V172.199H263.958C263.958 171.83 263.884 171.5 263.736 171.21C263.591 170.92 263.384 170.692 263.114 170.524C262.847 170.357 262.532 170.273 262.168 170.273C261.767 170.273 261.421 170.372 261.128 170.571C260.838 170.767 260.615 171.023 260.459 171.338C260.303 171.653 260.225 171.991 260.225 172.352V172.932C260.225 173.426 260.31 173.845 260.48 174.189C260.654 174.53 260.894 174.79 261.201 174.969C261.507 175.145 261.864 175.233 262.27 175.233C262.534 175.233 262.773 175.196 262.986 175.122C263.202 175.045 263.388 174.932 263.544 174.781C263.701 174.628 263.821 174.437 263.907 174.21L264.878 174.483C264.776 174.812 264.604 175.102 264.363 175.352C264.121 175.599 263.823 175.793 263.468 175.932C263.113 176.068 262.713 176.136 262.27 176.136ZM269.169 176.136C268.556 176.136 268.027 175.991 267.584 175.702C267.141 175.412 266.8 175.013 266.561 174.504C266.323 173.996 266.203 173.415 266.203 172.761C266.203 172.097 266.326 171.51 266.57 171.001C266.817 170.49 267.161 170.091 267.601 169.804C268.044 169.514 268.561 169.369 269.152 169.369C269.613 169.369 270.027 169.455 270.397 169.625C270.766 169.795 271.069 170.034 271.304 170.341C271.54 170.648 271.686 171.006 271.743 171.415H270.738C270.661 171.116 270.49 170.852 270.226 170.622C269.965 170.389 269.613 170.273 269.169 170.273C268.777 170.273 268.434 170.375 268.138 170.58C267.846 170.781 267.617 171.067 267.452 171.436C267.29 171.803 267.209 172.233 267.209 172.727C267.209 173.233 267.289 173.673 267.448 174.048C267.61 174.423 267.837 174.714 268.13 174.922C268.425 175.129 268.772 175.233 269.169 175.233C269.431 175.233 269.668 175.188 269.881 175.097C270.094 175.006 270.275 174.875 270.422 174.705C270.57 174.534 270.675 174.33 270.738 174.091H271.743C271.686 174.477 271.546 174.825 271.321 175.135C271.1 175.442 270.806 175.686 270.439 175.868C270.076 176.047 269.652 176.136 269.169 176.136ZM275.14 176.153C274.725 176.153 274.348 176.075 274.01 175.919C273.672 175.76 273.404 175.531 273.205 175.233C273.006 174.932 272.907 174.568 272.907 174.142C272.907 173.767 272.98 173.463 273.128 173.23C273.276 172.994 273.473 172.81 273.721 172.676C273.968 172.543 274.24 172.443 274.539 172.378C274.84 172.31 275.142 172.256 275.446 172.216C275.844 172.165 276.167 172.126 276.414 172.101C276.664 172.072 276.846 172.026 276.959 171.96C277.076 171.895 277.134 171.781 277.134 171.619V171.585C277.134 171.165 277.019 170.838 276.789 170.605C276.561 170.372 276.216 170.256 275.753 170.256C275.273 170.256 274.897 170.361 274.624 170.571C274.351 170.781 274.159 171.006 274.049 171.244L273.094 170.903C273.265 170.506 273.492 170.196 273.776 169.974C274.063 169.75 274.375 169.594 274.713 169.506C275.054 169.415 275.39 169.369 275.719 169.369C275.929 169.369 276.171 169.395 276.444 169.446C276.719 169.494 276.985 169.595 277.24 169.749C277.499 169.902 277.713 170.134 277.884 170.443C278.054 170.753 278.14 171.168 278.14 171.688V176H277.134V175.114H277.083C277.015 175.256 276.901 175.408 276.742 175.57C276.583 175.732 276.371 175.869 276.107 175.983C275.843 176.097 275.52 176.153 275.14 176.153ZM275.293 175.25C275.691 175.25 276.026 175.172 276.299 175.016C276.574 174.859 276.782 174.658 276.921 174.411C277.063 174.163 277.134 173.903 277.134 173.631V172.71C277.091 172.761 276.998 172.808 276.853 172.851C276.711 172.891 276.546 172.926 276.358 172.957C276.174 172.986 275.993 173.011 275.817 173.034C275.644 173.054 275.503 173.071 275.395 173.085C275.134 173.119 274.89 173.175 274.662 173.251C274.438 173.325 274.256 173.437 274.117 173.588C273.98 173.736 273.912 173.937 273.912 174.193C273.912 174.543 274.042 174.807 274.3 174.986C274.561 175.162 274.892 175.25 275.293 175.25ZM280.981 167.273V176H279.975V167.273H280.981ZM285.482 176.136C284.868 176.136 284.34 175.991 283.897 175.702C283.453 175.412 283.113 175.013 282.874 174.504C282.635 173.996 282.516 173.415 282.516 172.761C282.516 172.097 282.638 171.51 282.882 171.001C283.13 170.49 283.473 170.091 283.914 169.804C284.357 169.514 284.874 169.369 285.465 169.369C285.925 169.369 286.34 169.455 286.709 169.625C287.078 169.795 287.381 170.034 287.617 170.341C287.853 170.648 287.999 171.006 288.056 171.415H287.05C286.973 171.116 286.803 170.852 286.539 170.622C286.277 170.389 285.925 170.273 285.482 170.273C285.09 170.273 284.746 170.375 284.451 170.58C284.158 170.781 283.929 171.067 283.765 171.436C283.603 171.803 283.522 172.233 283.522 172.727C283.522 173.233 283.601 173.673 283.76 174.048C283.922 174.423 284.15 174.714 284.442 174.922C284.738 175.129 285.084 175.233 285.482 175.233C285.743 175.233 285.98 175.188 286.194 175.097C286.407 175.006 286.587 174.875 286.735 174.705C286.882 174.534 286.988 174.33 287.05 174.091H288.056C287.999 174.477 287.858 174.825 287.634 175.135C287.412 175.442 287.118 175.686 286.752 175.868C286.388 176.047 285.965 176.136 285.482 176.136ZM297.81 169.455C297.759 169.023 297.551 168.688 297.188 168.449C296.824 168.21 296.378 168.091 295.85 168.091C295.463 168.091 295.125 168.153 294.836 168.278C294.549 168.403 294.324 168.575 294.162 168.794C294.003 169.013 293.924 169.261 293.924 169.54C293.924 169.773 293.979 169.973 294.09 170.141C294.203 170.305 294.348 170.443 294.525 170.554C294.701 170.662 294.885 170.751 295.078 170.822C295.272 170.891 295.449 170.946 295.611 170.989L296.498 171.227C296.725 171.287 296.978 171.369 297.256 171.474C297.537 171.58 297.806 171.723 298.061 171.905C298.32 172.084 298.533 172.314 298.701 172.595C298.868 172.876 298.952 173.222 298.952 173.631C298.952 174.102 298.828 174.528 298.581 174.909C298.337 175.29 297.979 175.592 297.507 175.817C297.039 176.041 296.469 176.153 295.799 176.153C295.174 176.153 294.632 176.053 294.175 175.851C293.721 175.649 293.363 175.368 293.101 175.007C292.843 174.646 292.696 174.227 292.662 173.75H293.753C293.782 174.08 293.892 174.352 294.086 174.568C294.282 174.781 294.529 174.94 294.827 175.045C295.128 175.148 295.452 175.199 295.799 175.199C296.202 175.199 296.564 175.134 296.885 175.003C297.206 174.869 297.461 174.685 297.648 174.449C297.836 174.21 297.929 173.932 297.929 173.614C297.929 173.324 297.848 173.088 297.686 172.906C297.525 172.724 297.311 172.577 297.047 172.463C296.783 172.349 296.498 172.25 296.191 172.165L295.117 171.858C294.435 171.662 293.895 171.382 293.498 171.018C293.1 170.655 292.901 170.179 292.901 169.591C292.901 169.102 293.033 168.676 293.297 168.312C293.564 167.946 293.922 167.662 294.371 167.46C294.823 167.256 295.327 167.153 295.884 167.153C296.446 167.153 296.946 167.254 297.384 167.456C297.821 167.655 298.168 167.928 298.424 168.274C298.682 168.621 298.819 169.014 298.833 169.455H297.81ZM303.4 169.455V170.307H300.008V169.455H303.4ZM300.996 167.886H302.002V174.125C302.002 174.409 302.043 174.622 302.126 174.764C302.211 174.903 302.319 174.997 302.45 175.045C302.583 175.091 302.724 175.114 302.871 175.114C302.982 175.114 303.073 175.108 303.144 175.097C303.215 175.082 303.272 175.071 303.315 175.062L303.519 175.966C303.451 175.991 303.356 176.017 303.234 176.043C303.112 176.071 302.957 176.085 302.769 176.085C302.485 176.085 302.207 176.024 301.934 175.902C301.664 175.78 301.44 175.594 301.261 175.344C301.085 175.094 300.996 174.778 300.996 174.398V167.886ZM305.56 178.455C305.39 178.455 305.238 178.44 305.104 178.412C304.971 178.386 304.879 178.361 304.827 178.335L305.083 177.449C305.327 177.511 305.543 177.534 305.731 177.517C305.918 177.5 306.085 177.416 306.229 177.266C306.377 177.118 306.512 176.878 306.634 176.545L306.822 176.034L304.401 169.455H305.492L307.299 174.67H307.367L309.174 169.455H310.265L307.487 176.955C307.362 177.293 307.207 177.572 307.022 177.794C306.837 178.018 306.623 178.185 306.379 178.293C306.137 178.401 305.864 178.455 305.56 178.455ZM312.598 167.273V176H311.592V167.273H312.598ZM317.184 176.136C316.554 176.136 316.01 175.997 315.552 175.719C315.098 175.438 314.747 175.045 314.5 174.543C314.255 174.037 314.133 173.449 314.133 172.778C314.133 172.108 314.255 171.517 314.5 171.006C314.747 170.491 315.091 170.091 315.531 169.804C315.974 169.514 316.491 169.369 317.082 169.369C317.423 169.369 317.76 169.426 318.092 169.54C318.424 169.653 318.727 169.838 319 170.094C319.272 170.347 319.49 170.682 319.652 171.099C319.814 171.517 319.895 172.031 319.895 172.642V173.068H314.849V172.199H318.872C318.872 171.83 318.798 171.5 318.65 171.21C318.505 170.92 318.298 170.692 318.028 170.524C317.761 170.357 317.446 170.273 317.082 170.273C316.681 170.273 316.335 170.372 316.042 170.571C315.752 170.767 315.529 171.023 315.373 171.338C315.217 171.653 315.139 171.991 315.139 172.352V172.932C315.139 173.426 315.224 173.845 315.395 174.189C315.568 174.53 315.808 174.79 316.115 174.969C316.422 175.145 316.778 175.233 317.184 175.233C317.449 175.233 317.687 175.196 317.9 175.122C318.116 175.045 318.302 174.932 318.458 174.781C318.615 174.628 318.735 174.437 318.821 174.21L319.792 174.483C319.69 174.812 319.518 175.102 319.277 175.352C319.035 175.599 318.737 175.793 318.382 175.932C318.027 176.068 317.627 176.136 317.184 176.136Z" fill="#EDE9FE"/>
<g filter="url(#filter2_dd_1703_1061)">
<rect x="356" y="163" width="93" height="17" rx="8" fill="#7C3AED"/>
</g>
<path d="M384.057 176V167.273H385.114V175.062H389.17V176H384.057ZM392.597 176.153C392.182 176.153 391.805 176.075 391.467 175.919C391.129 175.76 390.861 175.531 390.662 175.233C390.463 174.932 390.364 174.568 390.364 174.142C390.364 173.767 390.438 173.463 390.585 173.23C390.733 172.994 390.93 172.81 391.178 172.676C391.425 172.543 391.697 172.443 391.996 172.378C392.297 172.31 392.599 172.256 392.903 172.216C393.301 172.165 393.624 172.126 393.871 172.101C394.121 172.072 394.303 172.026 394.416 171.96C394.533 171.895 394.591 171.781 394.591 171.619V171.585C394.591 171.165 394.476 170.838 394.246 170.605C394.018 170.372 393.673 170.256 393.21 170.256C392.73 170.256 392.354 170.361 392.081 170.571C391.808 170.781 391.616 171.006 391.506 171.244L390.551 170.903C390.722 170.506 390.949 170.196 391.233 169.974C391.52 169.75 391.832 169.594 392.17 169.506C392.511 169.415 392.847 169.369 393.176 169.369C393.386 169.369 393.628 169.395 393.901 169.446C394.176 169.494 394.442 169.595 394.697 169.749C394.956 169.902 395.17 170.134 395.341 170.443C395.511 170.753 395.597 171.168 395.597 171.688V176H394.591V175.114H394.54C394.472 175.256 394.358 175.408 394.199 175.57C394.04 175.732 393.828 175.869 393.564 175.983C393.3 176.097 392.977 176.153 392.597 176.153ZM392.75 175.25C393.148 175.25 393.483 175.172 393.756 175.016C394.031 174.859 394.239 174.658 394.378 174.411C394.52 174.163 394.591 173.903 394.591 173.631V172.71C394.548 172.761 394.455 172.808 394.31 172.851C394.168 172.891 394.003 172.926 393.815 172.957C393.631 172.986 393.45 173.011 393.274 173.034C393.101 173.054 392.96 173.071 392.852 173.085C392.591 173.119 392.347 173.175 392.119 173.251C391.895 173.325 391.713 173.437 391.574 173.588C391.438 173.736 391.369 173.937 391.369 174.193C391.369 174.543 391.499 174.807 391.757 174.986C392.018 175.162 392.349 175.25 392.75 175.25ZM397.846 178.455C397.675 178.455 397.523 178.44 397.39 178.412C397.256 178.386 397.164 178.361 397.113 178.335L397.368 177.449C397.613 177.511 397.828 177.534 398.016 177.517C398.203 177.5 398.37 177.416 398.515 177.266C398.662 177.118 398.797 176.878 398.919 176.545L399.107 176.034L396.686 169.455H397.777L399.584 174.67H399.652L401.459 169.455H402.55L399.772 176.955C399.647 177.293 399.492 177.572 399.307 177.794C399.123 178.018 398.908 178.185 398.664 178.293C398.422 178.401 398.15 178.455 397.846 178.455ZM406.302 176.136C405.711 176.136 405.193 175.996 404.747 175.714C404.304 175.433 403.957 175.04 403.707 174.534C403.46 174.028 403.336 173.437 403.336 172.761C403.336 172.08 403.46 171.484 403.707 170.976C403.957 170.467 404.304 170.072 404.747 169.791C405.193 169.51 405.711 169.369 406.302 169.369C406.893 169.369 407.41 169.51 407.853 169.791C408.299 170.072 408.646 170.467 408.893 170.976C409.143 171.484 409.268 172.08 409.268 172.761C409.268 173.437 409.143 174.028 408.893 174.534C408.646 175.04 408.299 175.433 407.853 175.714C407.41 175.996 406.893 176.136 406.302 176.136ZM406.302 175.233C406.751 175.233 407.12 175.118 407.41 174.888C407.7 174.658 407.914 174.355 408.054 173.98C408.193 173.605 408.262 173.199 408.262 172.761C408.262 172.324 408.193 171.916 408.054 171.538C407.914 171.161 407.7 170.855 407.41 170.622C407.12 170.389 406.751 170.273 406.302 170.273C405.853 170.273 405.484 170.389 405.194 170.622C404.904 170.855 404.69 171.161 404.551 171.538C404.412 171.916 404.342 172.324 404.342 172.761C404.342 173.199 404.412 173.605 404.551 173.98C404.69 174.355 404.904 174.658 405.194 174.888C405.484 175.118 405.853 175.233 406.302 175.233ZM414.928 173.324V169.455H415.934V176H414.928V174.892H414.86C414.707 175.224 414.468 175.507 414.144 175.74C413.82 175.97 413.411 176.085 412.917 176.085C412.508 176.085 412.144 175.996 411.826 175.817C411.508 175.635 411.258 175.362 411.076 174.999C410.894 174.632 410.803 174.17 410.803 173.614V169.455H411.809V173.545C411.809 174.023 411.942 174.403 412.21 174.688C412.479 174.972 412.823 175.114 413.241 175.114C413.491 175.114 413.745 175.05 414.004 174.922C414.265 174.794 414.484 174.598 414.66 174.334C414.839 174.07 414.928 173.733 414.928 173.324ZM420.623 169.455V170.307H417.23V169.455H420.623ZM418.219 167.886H419.225V174.125C419.225 174.409 419.266 174.622 419.348 174.764C419.434 174.903 419.542 174.997 419.672 175.045C419.806 175.091 419.946 175.114 420.094 175.114C420.205 175.114 420.296 175.108 420.367 175.097C420.438 175.082 420.495 175.071 420.537 175.062L420.742 175.966C420.674 175.991 420.578 176.017 420.456 176.043C420.334 176.071 420.179 176.085 419.992 176.085C419.708 176.085 419.429 176.024 419.157 175.902C418.887 175.78 418.662 175.594 418.483 175.344C418.307 175.094 418.219 174.778 418.219 174.398V167.886Z" fill="#EDE9FE"/>
<g filter="url(#filter3_dd_1703_1061)">
<rect x="26" y="163" width="190" height="17" rx="8" fill="#FBBF24"/>
</g>
<path d="M95.3977 167.273H96.4545V173.511C96.4545 174.068 96.3523 174.541 96.1477 174.93C95.9432 175.32 95.6548 175.615 95.2827 175.817C94.9105 176.018 94.4716 176.119 93.9659 176.119C93.4886 176.119 93.0639 176.033 92.6918 175.859C92.3196 175.683 92.027 175.433 91.8139 175.109C91.6009 174.786 91.4943 174.401 91.4943 173.955H92.5341C92.5341 174.202 92.5952 174.418 92.7173 174.602C92.8423 174.784 93.0128 174.926 93.2287 175.028C93.4446 175.131 93.6903 175.182 93.9659 175.182C94.2699 175.182 94.5284 175.118 94.7415 174.99C94.9545 174.862 95.1165 174.675 95.2273 174.428C95.3409 174.178 95.3977 173.872 95.3977 173.511V167.273ZM100.362 176.153C99.9474 176.153 99.571 176.075 99.233 175.919C98.8949 175.76 98.6264 175.531 98.4276 175.233C98.2287 174.932 98.1293 174.568 98.1293 174.142C98.1293 173.767 98.2031 173.463 98.3509 173.23C98.4986 172.994 98.696 172.81 98.9432 172.676C99.1903 172.543 99.4631 172.443 99.7614 172.378C100.063 172.31 100.365 172.256 100.669 172.216C101.067 172.165 101.389 172.126 101.636 172.101C101.886 172.072 102.068 172.026 102.182 171.96C102.298 171.895 102.357 171.781 102.357 171.619V171.585C102.357 171.165 102.241 170.838 102.011 170.605C101.784 170.372 101.439 170.256 100.976 170.256C100.496 170.256 100.119 170.361 99.8466 170.571C99.5739 170.781 99.3821 171.006 99.2713 171.244L98.3168 170.903C98.4872 170.506 98.7145 170.196 98.9986 169.974C99.2855 169.75 99.598 169.594 99.9361 169.506C100.277 169.415 100.612 169.369 100.942 169.369C101.152 169.369 101.393 169.395 101.666 169.446C101.942 169.494 102.207 169.595 102.463 169.749C102.722 169.902 102.936 170.134 103.107 170.443C103.277 170.753 103.362 171.168 103.362 171.688V176H102.357V175.114H102.305C102.237 175.256 102.124 175.408 101.964 175.57C101.805 175.732 101.594 175.869 101.33 175.983C101.065 176.097 100.743 176.153 100.362 176.153ZM100.516 175.25C100.913 175.25 101.249 175.172 101.521 175.016C101.797 174.859 102.004 174.658 102.143 174.411C102.286 174.163 102.357 173.903 102.357 173.631V172.71C102.314 172.761 102.22 172.808 102.075 172.851C101.933 172.891 101.768 172.926 101.581 172.957C101.396 172.986 101.216 173.011 101.04 173.034C100.866 173.054 100.726 173.071 100.618 173.085C100.357 173.119 100.112 173.175 99.8849 173.251C99.6605 173.325 99.4787 173.437 99.3395 173.588C99.2031 173.736 99.1349 173.937 99.1349 174.193C99.1349 174.543 99.2642 174.807 99.5227 174.986C99.7841 175.162 100.115 175.25 100.516 175.25ZM110.316 169.455L107.895 176H106.873L104.452 169.455H105.543L107.35 174.67H107.418L109.225 169.455H110.316ZM113.37 176.153C112.955 176.153 112.579 176.075 112.241 175.919C111.903 175.76 111.634 175.531 111.435 175.233C111.237 174.932 111.137 174.568 111.137 174.142C111.137 173.767 111.211 173.463 111.359 173.23C111.506 172.994 111.704 172.81 111.951 172.676C112.198 172.543 112.471 172.443 112.769 172.378C113.07 172.31 113.373 172.256 113.677 172.216C114.075 172.165 114.397 172.126 114.644 172.101C114.894 172.072 115.076 172.026 115.19 171.96C115.306 171.895 115.364 171.781 115.364 171.619V171.585C115.364 171.165 115.249 170.838 115.019 170.605C114.792 170.372 114.447 170.256 113.984 170.256C113.504 170.256 113.127 170.361 112.854 170.571C112.582 170.781 112.39 171.006 112.279 171.244L111.325 170.903C111.495 170.506 111.722 170.196 112.006 169.974C112.293 169.75 112.606 169.594 112.944 169.506C113.285 169.415 113.62 169.369 113.95 169.369C114.16 169.369 114.401 169.395 114.674 169.446C114.95 169.494 115.215 169.595 115.471 169.749C115.729 169.902 115.944 170.134 116.114 170.443C116.285 170.753 116.37 171.168 116.37 171.688V176H115.364V175.114H115.313C115.245 175.256 115.131 175.408 114.972 175.57C114.813 175.732 114.602 175.869 114.337 175.983C114.073 176.097 113.751 176.153 113.37 176.153ZM113.523 175.25C113.921 175.25 114.256 175.172 114.529 175.016C114.805 174.859 115.012 174.658 115.151 174.411C115.293 174.163 115.364 173.903 115.364 173.631V172.71C115.322 172.761 115.228 172.808 115.083 172.851C114.941 172.891 114.776 172.926 114.589 172.957C114.404 172.986 114.224 173.011 114.048 173.034C113.874 173.054 113.734 173.071 113.626 173.085C113.364 173.119 113.12 173.175 112.893 173.251C112.668 173.325 112.487 173.437 112.347 173.588C112.211 173.736 112.143 173.937 112.143 174.193C112.143 174.543 112.272 174.807 112.531 174.986C112.792 175.162 113.123 175.25 113.523 175.25ZM123.115 169.455C123.064 169.023 122.856 168.688 122.493 168.449C122.129 168.21 121.683 168.091 121.154 168.091C120.768 168.091 120.43 168.153 120.14 168.278C119.853 168.403 119.629 168.575 119.467 168.794C119.308 169.013 119.228 169.261 119.228 169.54C119.228 169.773 119.284 169.973 119.395 170.141C119.508 170.305 119.653 170.443 119.829 170.554C120.005 170.662 120.19 170.751 120.383 170.822C120.576 170.891 120.754 170.946 120.916 170.989L121.802 171.227C122.029 171.287 122.282 171.369 122.561 171.474C122.842 171.58 123.11 171.723 123.366 171.905C123.625 172.084 123.838 172.314 124.005 172.595C124.173 172.876 124.257 173.222 124.257 173.631C124.257 174.102 124.133 174.528 123.886 174.909C123.642 175.29 123.284 175.592 122.812 175.817C122.343 176.041 121.774 176.153 121.103 176.153C120.478 176.153 119.937 176.053 119.48 175.851C119.025 175.649 118.667 175.368 118.406 175.007C118.147 174.646 118.001 174.227 117.967 173.75H119.058C119.086 174.08 119.197 174.352 119.39 174.568C119.586 174.781 119.833 174.94 120.132 175.045C120.433 175.148 120.757 175.199 121.103 175.199C121.507 175.199 121.869 175.134 122.19 175.003C122.511 174.869 122.765 174.685 122.953 174.449C123.14 174.21 123.234 173.932 123.234 173.614C123.234 173.324 123.153 173.088 122.991 172.906C122.829 172.724 122.616 172.577 122.352 172.463C122.088 172.349 121.802 172.25 121.495 172.165L120.422 171.858C119.74 171.662 119.2 171.382 118.802 171.018C118.404 170.655 118.206 170.179 118.206 169.591C118.206 169.102 118.338 168.676 118.602 168.312C118.869 167.946 119.227 167.662 119.676 167.46C120.127 167.256 120.632 167.153 121.189 167.153C121.751 167.153 122.251 167.254 122.689 167.456C123.126 167.655 123.473 167.928 123.728 168.274C123.987 168.621 124.123 169.014 124.137 169.455H123.115ZM128.517 176.136C127.903 176.136 127.375 175.991 126.932 175.702C126.489 175.412 126.148 175.013 125.909 174.504C125.67 173.996 125.551 173.415 125.551 172.761C125.551 172.097 125.673 171.51 125.918 171.001C126.165 170.49 126.509 170.091 126.949 169.804C127.392 169.514 127.909 169.369 128.5 169.369C128.96 169.369 129.375 169.455 129.744 169.625C130.114 169.795 130.416 170.034 130.652 170.341C130.888 170.648 131.034 171.006 131.091 171.415H130.085C130.009 171.116 129.838 170.852 129.574 170.622C129.313 170.389 128.96 170.273 128.517 170.273C128.125 170.273 127.781 170.375 127.486 170.58C127.193 170.781 126.964 171.067 126.8 171.436C126.638 171.803 126.557 172.233 126.557 172.727C126.557 173.233 126.636 173.673 126.795 174.048C126.957 174.423 127.185 174.714 127.477 174.922C127.773 175.129 128.119 175.233 128.517 175.233C128.778 175.233 129.016 175.188 129.229 175.097C129.442 175.006 129.622 174.875 129.77 174.705C129.918 174.534 130.023 174.33 130.085 174.091H131.091C131.034 174.477 130.893 174.825 130.669 175.135C130.447 175.442 130.153 175.686 129.787 175.868C129.423 176.047 129 176.136 128.517 176.136ZM132.561 176V169.455H133.533V170.443H133.601C133.72 170.119 133.936 169.857 134.249 169.655C134.561 169.453 134.913 169.352 135.305 169.352C135.379 169.352 135.472 169.354 135.582 169.357C135.693 169.359 135.777 169.364 135.834 169.369V170.392C135.8 170.384 135.722 170.371 135.599 170.354C135.48 170.334 135.354 170.324 135.22 170.324C134.902 170.324 134.618 170.391 134.368 170.524C134.121 170.655 133.925 170.837 133.78 171.07C133.638 171.3 133.567 171.562 133.567 171.858V176H132.561ZM137.026 176V169.455H138.032V176H137.026ZM137.537 168.364C137.341 168.364 137.172 168.297 137.03 168.163C136.891 168.03 136.821 167.869 136.821 167.682C136.821 167.494 136.891 167.334 137.03 167.2C137.172 167.067 137.341 167 137.537 167C137.733 167 137.901 167.067 138.04 167.2C138.182 167.334 138.253 167.494 138.253 167.682C138.253 167.869 138.182 168.03 138.04 168.163C137.901 168.297 137.733 168.364 137.537 168.364ZM139.874 178.455V169.455H140.845V170.494H140.964C141.038 170.381 141.141 170.236 141.271 170.06C141.405 169.881 141.595 169.722 141.842 169.582C142.092 169.44 142.43 169.369 142.857 169.369C143.408 169.369 143.893 169.507 144.314 169.783C144.734 170.058 145.063 170.449 145.298 170.955C145.534 171.46 145.652 172.057 145.652 172.744C145.652 173.438 145.534 174.038 145.298 174.547C145.063 175.053 144.736 175.445 144.318 175.723C143.901 175.999 143.419 176.136 142.874 176.136C142.453 176.136 142.116 176.067 141.864 175.928C141.611 175.786 141.416 175.625 141.28 175.446C141.143 175.264 141.038 175.114 140.964 174.994H140.879V178.455H139.874ZM140.862 172.727C140.862 173.222 140.935 173.658 141.08 174.036C141.224 174.411 141.436 174.705 141.714 174.918C141.993 175.128 142.334 175.233 142.737 175.233C143.158 175.233 143.509 175.122 143.79 174.901C144.074 174.676 144.287 174.375 144.429 173.997C144.574 173.616 144.646 173.193 144.646 172.727C144.646 172.267 144.575 171.852 144.433 171.483C144.294 171.111 144.082 170.817 143.798 170.601C143.517 170.382 143.163 170.273 142.737 170.273C142.328 170.273 141.984 170.376 141.706 170.584C141.428 170.788 141.217 171.075 141.075 171.445C140.933 171.811 140.862 172.239 140.862 172.727ZM150.033 169.455V170.307H146.641V169.455H150.033ZM147.629 167.886H148.635V174.125C148.635 174.409 148.676 174.622 148.759 174.764C148.844 174.903 148.952 174.997 149.082 175.045C149.216 175.091 149.357 175.114 149.504 175.114C149.615 175.114 149.706 175.108 149.777 175.097C149.848 175.082 149.905 175.071 149.947 175.062L150.152 175.966C150.084 175.991 149.989 176.017 149.866 176.043C149.744 176.071 149.589 176.085 149.402 176.085C149.118 176.085 148.839 176.024 148.567 175.902C148.297 175.78 148.072 175.594 147.893 175.344C147.717 175.094 147.629 174.778 147.629 174.398V167.886Z" fill="#78350F"/>
<defs>
<filter id="filter0_dd_1703_1061" x="456" y="161" width="110" height="23" filterUnits="userSpaceOnUse" color-interpolation-filters="sRGB">
<feFlood flood-opacity="0" result="BackgroundImageFix"/>
<feColorMatrix in="SourceAlpha" type="matrix" values="0 0 0 0 0 0 0 0 0 0 0 0 0 0 0 0 0 0 127 0" result="hardAlpha"/>
<feOffset dy="1"/>
<feGaussianBlur stdDeviation="1"/>
<feColorMatrix type="matrix" values="0 0 0 0 0 0 0 0 0 0 0 0 0 0 0 0 0 0 0.06 0"/>
<feBlend mode="normal" in2="BackgroundImageFix" result="effect1_dropShadow_1703_1061"/>
<feColorMatrix in="SourceAlpha" type="matrix" values="0 0 0 0 0 0 0 0 0 0 0 0 0 0 0 0 0 0 127 0" result="hardAlpha"/>
<feOffset dy="1"/>
<feGaussianBlur stdDeviation="1.5"/>
<feColorMatrix type="matrix" values="0 0 0 0 0 0 0 0 0 0 0 0 0 0 0 0 0 0 0.1 0"/>
<feBlend mode="normal" in2="effect1_dropShadow_1703_1061" result="effect2_dropShadow_1703_1061"/>
<feBlend mode="normal" in="SourceGraphic" in2="effect2_dropShadow_1703_1061" result="shape"/>
</filter>
<filter id="filter1_dd_1703_1061" x="223" y="161" width="126" height="23" filterUnits="userSpaceOnUse" color-interpolation-filters="sRGB">
<feFlood flood-opacity="0" result="BackgroundImageFix"/>
<feColorMatrix in="SourceAlpha" type="matrix" values="0 0 0 0 0 0 0 0 0 0 0 0 0 0 0 0 0 0 127 0" result="hardAlpha"/>
<feOffset dy="1"/>
<feGaussianBlur stdDeviation="1"/>
<feColorMatrix type="matrix" values="0 0 0 0 0 0 0 0 0 0 0 0 0 0 0 0 0 0 0.06 0"/>
<feBlend mode="normal" in2="BackgroundImageFix" result="effect1_dropShadow_1703_1061"/>
<feColorMatrix in="SourceAlpha" type="matrix" values="0 0 0 0 0 0 0 0 0 0 0 0 0 0 0 0 0 0 127 0" result="hardAlpha"/>
<feOffset dy="1"/>
<feGaussianBlur stdDeviation="1.5"/>
<feColorMatrix type="matrix" values="0 0 0 0 0 0 0 0 0 0 0 0 0 0 0 0 0 0 0.1 0"/>
<feBlend mode="normal" in2="effect1_dropShadow_1703_1061" result="effect2_dropShadow_1703_1061"/>
<feBlend mode="normal" in="SourceGraphic" in2="effect2_dropShadow_1703_1061" result="shape"/>
</filter>
<filter id="filter2_dd_1703_1061" x="353" y="161" width="99" height="23" filterUnits="userSpaceOnUse" color-interpolation-filters="sRGB">
<feFlood flood-opacity="0" result="BackgroundImageFix"/>
<feColorMatrix in="SourceAlpha" type="matrix" values="0 0 0 0 0 0 0 0 0 0 0 0 0 0 0 0 0 0 127 0" result="hardAlpha"/>
<feOffset dy="1"/>
<feGaussianBlur stdDeviation="1"/>
<feColorMatrix type="matrix" values="0 0 0 0 0 0 0 0 0 0 0 0 0 0 0 0 0 0 0.06 0"/>
<feBlend mode="normal" in2="BackgroundImageFix" result="effect1_dropShadow_1703_1061"/>
<feColorMatrix in="SourceAlpha" type="matrix" values="0 0 0 0 0 0 0 0 0 0 0 0 0 0 0 0 0 0 127 0" result="hardAlpha"/>
<feOffset dy="1"/>
<feGaussianBlur stdDeviation="1.5"/>
<feColorMatrix type="matrix" values="0 0 0 0 0 0 0 0 0 0 0 0 0 0 0 0 0 0 0.1 0"/>
<feBlend mode="normal" in2="effect1_dropShadow_1703_1061" result="effect2_dropShadow_1703_1061"/>
<feBlend mode="normal" in="SourceGraphic" in2="effect2_dropShadow_1703_1061" result="shape"/>
</filter>
<filter id="filter3_dd_1703_1061" x="23" y="161" width="196" height="23" filterUnits="userSpaceOnUse" color-interpolation-filters="sRGB">
<feFlood flood-opacity="0" result="BackgroundImageFix"/>
<feColorMatrix in="SourceAlpha" type="matrix" values="0 0 0 0 0 0 0 0 0 0 0 0 0 0 0 0 0 0 127 0" result="hardAlpha"/>
<feOffset dy="1"/>
<feGaussianBlur stdDeviation="1"/>
<feColorMatrix type="matrix" values="0 0 0 0 0 0 0 0 0 0 0 0 0 0 0 0 0 0 0.06 0"/>
<feBlend mode="normal" in2="BackgroundImageFix" result="effect1_dropShadow_1703_1061"/>
<feColorMatrix in="SourceAlpha" type="matrix" values="0 0 0 0 0 0 0 0 0 0 0 0 0 0 0 0 0 0 127 0" result="hardAlpha"/>
<feOffset dy="1"/>
<feGaussianBlur stdDeviation="1.5"/>
<feColorMatrix type="matrix" values="0 0 0 0 0 0 0 0 0 0 0 0 0 0 0 0 0 0 0.1 0"/>
<feBlend mode="normal" in2="effect1_dropShadow_1703_1061" result="effect2_dropShadow_1703_1061"/>
<feBlend mode="normal" in="SourceGraphic" in2="effect2_dropShadow_1703_1061" result="shape"/>
</filter>
</defs>
</svg>
